<svg width="129" height="80" viewBox="0 0 129 80" fill="none" xmlns="http://www.w3.org/2000/svg">
<mask id="mask0_1625_16218" style="mask-type:alpha" maskUnits="userSpaceOnUse" x="3" y="0" width="127" height="80">
<path fill-rule="evenodd" clip-rule="evenodd" d="M113.388 21.1918C111.582 23.6375 102.729 33.3387 101.418 34.3799C100.836 34.8422 98.6859 37.6032 96.5802 40.3074L96.5801 40.3075C94.5817 42.8739 92.6231 45.3891 92.0823 45.8399C90.8629 46.8564 87.7016 50.0683 86.1846 51.6621C87.6601 53.7407 92.61 49.9482 93.7188 48.9624C94.0053 48.7076 94.3746 48.555 94.7505 48.3996C95.1582 48.2311 95.5736 48.0593 95.8993 47.7507C96.2729 47.3967 97.2406 46.6923 97.7299 46.5525C97.9427 46.4917 98.1422 46.4328 98.3326 46.3765L98.3327 46.3765C99.4411 46.0492 100.244 45.812 101.593 45.812C105.279 45.812 103.544 51.2129 102.267 52.2064C101.179 53.0528 99.8842 53.4771 98.6871 53.8694C95.682 54.8544 93.2911 55.6381 96.3258 62.393C96.3117 62.3993 96.2976 62.4061 96.2836 62.4135C96.3714 62.4731 96.424 62.5514 96.424 62.6539C96.424 62.9762 96.5088 63.3251 96.5938 63.6752L96.5939 63.6753C96.6997 64.111 96.8061 64.5488 96.7502 64.94C96.6098 65.9229 95.7929 66.494 95.0025 67.0466C94.8007 67.1877 94.6006 67.3275 94.414 67.4727C93.2349 68.39 91.7963 69.0841 90.4515 69.7193C90.199 69.8386 89.966 69.9933 89.7336 70.1478C89.4748 70.3197 89.2167 70.4912 88.9328 70.6129C88.3575 70.8595 87.69 71.1538 87.1461 71.4681C86.8209 71.6561 86.4947 71.8483 86.1675 72.0411C85.3072 72.5481 84.4393 73.0595 83.5601 73.5105C83.087 73.7531 80.1044 74.321 77.9987 74.7218C77.0022 74.9115 76.2021 75.0639 75.9575 75.1266C68.2553 76.5273 63.356 74.9361 60.7422 74.0872L60.7421 74.0871L60.7421 74.0871C60.1878 73.9071 59.7364 73.7605 59.3827 73.6828C58.3317 73.4521 57.2357 73.4747 56.151 73.4972C56.015 73.5 55.8791 73.5028 55.7435 73.5051C53.8613 73.6954 51.9387 73.8888 50.0112 73.9188C49.8382 73.9833 49.6719 74.033 49.5152 74.0599C48.8324 74.0599 23.1628 77.523 22.4903 77.6734C22.4031 77.6929 22.2822 77.7203 22.1315 77.7545C19.5097 78.3489 7.87304 80.9872 7.87304 79.5646C6.78968 78.8533 9.11753 78.5223 9.3359 78.5223C10.3529 78.5223 15.4722 76.4255 16.3718 75.9756C17.5671 75.3779 20.3686 74.708 22.4903 74.2778C24.612 73.8477 26.6165 73.3816 28.0068 72.8572C28.3409 72.7311 28.6974 72.616 29.0435 72.5043L29.0436 72.5042C30.1375 72.1511 31.1271 71.8316 30.9772 71.3068C30.7798 70.6158 24.8587 70.2021 16.3718 73.6297C16.1399 73.7141 15.8432 73.8206 15.5128 73.9391L15.5083 73.9408L15.5074 73.9411L15.5064 73.9415C14.4435 74.3229 13.0346 74.8287 12.3061 75.1267C11.724 75.3649 9.05036 76.6764 8.48704 76.9581C8.23602 77.0837 7.53358 77.6313 6.78086 78.2181C5.84444 78.9482 4.83019 79.739 4.51037 79.8532C3.81368 79.8532 3.76061 79.6285 3.76061 78.8533C3.76061 78.8147 3.74481 78.7498 3.72355 78.6623C3.52827 77.8593 2.87208 75.1608 9.7601 73.6297C11.1261 73.2881 12.8868 72.1476 14.0893 71.3687C14.381 71.1798 14.6398 71.0121 14.8522 70.8823C15.1198 70.7187 15.8883 70.4934 16.5291 70.3055L16.5292 70.3054L16.5294 70.3054L16.5299 70.3052C16.9057 70.1951 17.2374 70.0978 17.3982 70.0334C17.7006 69.9124 18.1504 69.7801 18.5938 69.6497L18.5939 69.6497C19.1634 69.4821 19.7223 69.3177 19.9443 69.1845C20.9913 68.5562 26.2388 67.4397 31.2458 66.3744L31.2459 66.3743L31.2461 66.3743C34.4883 65.6845 37.6295 65.0161 39.464 64.5157C39.5492 64.5157 39.6301 64.517 39.7067 64.5196C48.7775 60.984 57.9264 57.7282 60.0118 57.3111C62.8849 56.1277 64.2723 55.6303 65.2559 55.2776L65.2562 55.2775C65.727 55.1087 66.1053 54.9731 66.5097 54.8113C69.6797 53.543 72.3101 52.1634 74.3695 51.0833L74.3696 51.0833L74.3716 51.0822C74.7469 50.8854 75.1032 50.6985 75.4404 50.5241C76.5877 49.9305 77.6908 49.4319 78.835 48.9146L78.9599 48.8582C79.0706 48.8081 79.1817 48.7579 79.2933 48.7073C79.7747 48.3099 80.2856 47.941 80.7915 47.5758C80.9254 47.4791 81.0591 47.3826 81.1917 47.2859C81.8005 46.8421 82.1184 46.5826 82.4489 46.3127C82.7467 46.0695 83.0548 45.8179 83.5955 45.4155C83.8751 45.2074 84.314 44.9185 84.788 44.6065C85.563 44.0964 86.4317 43.5246 86.851 43.1434L87.1446 42.8768C88.0429 42.0617 88.9398 41.2477 89.7674 40.3552C90.3911 39.6827 90.9744 39.1792 91.5512 38.6812C92.1934 38.1269 92.8277 37.5793 93.5011 36.8129C94.4895 36.2026 95.0791 35.3469 95.6618 34.5012C96.1105 33.8501 96.5551 33.2049 97.1744 32.6822C98.0095 31.9774 100.004 29.7486 101.714 27.8379L101.714 27.8375C102.793 26.6321 103.758 25.5533 104.248 25.0639C104.599 24.6857 108.874 19.7106 110.306 17.9279C110.303 17.9291 110.301 17.9304 110.298 17.9316C110.153 18.0007 110.008 18.0694 109.863 18.1339C109.456 18.3148 109.096 18.5783 108.735 18.8422C108.394 19.0914 108.053 19.341 107.671 19.5218C106.971 19.8535 106.217 20.0614 105.463 20.2693C105.067 20.3786 104.67 20.488 104.281 20.6155C103.224 20.9618 102.275 21.4916 101.317 22.0268C100.991 22.2091 100.663 22.392 100.33 22.5685C99.0982 23.2207 97.9145 23.8911 96.7554 24.664C96.5819 24.7797 96.3511 24.8341 96.1443 24.8341C96.142 24.8341 96.1887 24.7868 96.2474 24.7273C96.3326 24.6409 96.4433 24.5288 96.4659 24.4986C96.7841 24.0742 97.3023 23.6841 97.7631 23.337C97.8726 23.2545 97.9789 23.1745 98.0785 23.097C98.572 22.7131 99.0006 22.2653 99.4295 21.8171C99.7928 21.4376 100.156 21.0578 100.559 20.7166C101.189 20.1837 101.779 19.5991 102.369 19.0142C102.834 18.5533 103.3 18.0921 103.785 17.656C104.716 16.8182 105.586 15.9106 106.455 15.0033C107.041 14.3913 107.627 13.7794 108.232 13.1893C108.449 12.9771 108.689 12.7978 108.928 12.6188C109.143 12.4581 109.357 12.2977 109.555 12.114C109.578 12.093 109.652 12.0637 109.724 12.0349C109.813 11.9997 109.899 11.9654 109.886 11.9485C109.576 11.5496 109.443 11.0102 109.314 10.4856C109.266 10.2866 109.217 10.0898 109.16 9.90357C109.084 9.65652 108.962 9.42095 108.841 9.18613C108.704 8.92091 108.568 8.65665 108.498 8.37789C108.402 7.99153 108.156 7.64683 107.918 7.31413C107.814 7.16943 107.713 7.02699 107.626 6.88439C107.44 6.58129 107.054 5.71077 106.666 4.83581C106.272 3.94957 105.877 3.05879 105.687 2.74852C105.817 2.74852 106.023 2.8951 106.175 3.00366C106.216 3.03285 106.253 3.05928 106.284 3.07939C106.824 3.43287 107.219 3.84282 107.64 4.27939C107.76 4.40438 107.883 4.53155 108.011 4.66021C108.405 5.05363 109.975 5.84858 111.608 6.67539C113.451 7.60842 115.374 8.58202 115.776 9.06492C120.961 5.44656 122.111 3.96027 122.661 3.24971C122.843 3.01356 122.96 2.86309 123.136 2.74852C123.454 2.37106 126.14 0.302837 126.572 0.0556071C126.718 -0.027593 126.7 -0.00735595 126.648 0.0504377C126.616 0.0859616 126.572 0.135675 126.545 0.184279C126.444 0.366377 126.321 0.544548 126.198 0.72398C126.009 0.997619 125.819 1.27419 125.7 1.57209C125.595 1.83441 125.488 2.09607 125.382 2.35796C125.182 2.84988 124.981 3.34263 124.79 3.84222C124.542 4.49014 124.342 5.15036 124.142 5.81057C123.917 6.55426 123.692 7.29795 123.398 8.02405C123.066 8.84366 122.561 9.53853 122.055 10.2356C121.742 10.6656 121.429 11.0964 121.156 11.5579C121.145 11.5756 121.128 11.603 121.105 11.6382C120.925 11.9215 120.425 12.706 120.696 12.9228C120.775 12.986 120.863 13.0341 120.951 13.0823C121.064 13.1442 121.177 13.206 121.271 13.2996C121.325 13.3539 121.372 13.4033 121.414 13.4484C121.617 13.6619 121.73 13.7822 122.144 13.897C122.379 13.9625 122.625 14.0064 122.868 14.05C122.958 14.0661 123.047 14.0821 123.136 14.0992C123.345 14.1395 123.541 14.2326 123.737 14.3255C123.866 14.387 123.995 14.4484 124.128 14.4944C125.793 15.0707 127.275 15.7504 128.741 16.7278C129.239 17.0601 128.93 17.0594 128.56 17.0587C128.542 17.0587 128.524 17.0586 128.507 17.0586C127.84 17.0586 127.056 16.9112 126.403 16.7691C125.824 16.6433 125.168 16.6737 124.536 16.7031C124.268 16.7155 124.004 16.7278 123.752 16.7278C123.003 16.7278 122.262 16.6999 121.519 16.6404C121.338 16.626 121.152 16.6149 120.963 16.6037C120.415 16.5709 119.846 16.537 119.332 16.4153C119.083 16.3563 118.845 16.2825 118.608 16.2089C118.369 16.1346 118.13 16.0604 117.88 16.0017C117.405 15.8898 116.258 15.6284 116.189 16.3142C116.159 16.6197 116.097 16.916 116.034 17.2128C115.947 17.6309 115.859 18.0499 115.859 18.497V21.0291C115.859 21.3251 115.838 21.6145 115.817 21.9033C115.796 22.1911 115.776 22.4782 115.776 22.7707C115.776 23.0044 115.782 23.2406 115.788 23.4777C115.801 23.973 115.814 24.4718 115.771 24.9581C115.747 25.2344 115.679 25.5084 115.612 25.7819C115.533 26.0999 115.454 26.4171 115.445 26.7366C115.429 27.2887 115.256 26.9155 115.144 26.6718C115.126 26.6338 115.11 26.5988 115.096 26.5711C114.803 25.9843 114.661 25.3158 114.52 24.6513C114.444 24.2929 114.368 23.9358 114.269 23.5933C114.189 23.3186 114.046 23.0419 113.901 22.7627C113.703 22.3828 113.504 21.9983 113.46 21.6081C113.445 21.4725 113.419 21.3329 113.388 21.1918ZM77.9316 70.2442C76.6054 70.2247 75.2713 70.2373 73.9329 70.409C72.6243 70.5768 71.3096 70.6806 69.9954 70.7843H69.9953C67.9022 70.9496 65.8105 71.1148 63.7472 71.5382C64.5707 71.8421 67.3314 72.5782 69.8921 72.7265C74.0619 72.2563 76.5769 71.0626 77.9316 70.2442Z" fill="#7D7D7D"/>
</mask>
<g mask="url(#mask0_1625_16218)">
<g filter="url(#filter0_f_1625_16218)">
<path d="M-214.523 178.145C-207.958 184.308 -201.173 190.367 -194.718 196.583C-188.475 202.451 -175.203 197.611 -135.827 178.703C-45.2624 135.172 46.025 92.1491 137.135 48.9638C152.884 41.4914 163.789 33.7174 161.483 31.6066C145.085 16.5942 128.671 1.56706 112.493 -13.5498L-214.523 178.145Z" fill="#FFB9F8"/>
</g>
<g filter="url(#filter1_f_1625_16218)">
<path d="M-150.904 378.801C-154.6 423.139 -158.33 467.462 -162.047 511.835C-149.098 479.596 -137.534 443.073 -127.205 406.216C-117.939 373.115 -109.009 338.496 -96.4364 312.835C-85.8177 291.148 -73.4215 277.316 -60.3045 266.763C-45.8607 232.197 -28.681 206.579 -8.57631 190.833C6.45828 179.069 9.07216 193.899 24.0686 195.702C12.8265 224.394 40.396 216.842 52.2988 189.026C57.1737 177.634 53.0876 179.603 58.697 170.482C62.631 164.136 62.3821 149.054 66.7954 145.261C86.9703 128.047 98.6619 52.5855 119.441 40.6705C98.3097 11.7198 69.4448 78.5287 45.8292 71.4829C18.2289 136.739 -1.99395 148.366 -37.7432 180.585C-40.6893 183.23 -43.6589 185.732 -46.6421 188.184L-146.707 340.775C-148.421 353.323 -149.827 366.01 -150.904 378.801Z" fill="#71BBFF"/>
</g>
<g filter="url(#filter2_f_1625_16218)">
<path d="M-63.6511 120.52C-65.4802 122.654 -67.0397 122.878 -69.5573 125.044C-73.7151 124.94 -72.5953 130.04 -69.768 131.765C-65.7865 134.194 -64.6025 131.061 -61.5225 129.729C-56.122 127.393 -52.7727 125.211 -46.6174 124.047C-42.0944 123.192 -31.7845 126.807 -27.5019 128.785C-21.1221 131.731 -14.9863 122.272 -10.7563 118.963C-4.66085 114.195 -1.27238 108.288 6.67995 106.095C14.5598 103.922 22.887 105.025 30.9599 105.057C39.8909 105.093 46.5451 104.993 54.131 99.0589C60.5693 94.0224 57.074 86.2628 56.0171 80.4209C54.9761 74.6676 45.9684 70.765 41.336 68.2827C35.3424 65.071 30.5292 65.5897 23.9351 65.7927C16.5948 66.0188 10.0181 73.1227 2.94675 73.3405C-2.67035 73.5135 -12.9042 70.6576 -17.4212 75.3356C-26.334 84.5661 -31.3604 94.4363 -45.2506 97.0626C-50.5475 98.0641 -55.0127 107.379 -57.4303 111.893C-59.3277 115.436 -61.1552 117.608 -63.6511 120.52Z" fill="#0A9F68"/>
</g>
<g filter="url(#filter3_f_1625_16218)">
<path d="M-31.7265 28.4712C-33.076 29.8789 -33.3499 31.5853 -34.7509 33.0644C-36.1518 34.5434 -40.0581 38.397 -39.9805 39.3623C-39.8683 40.7572 -41.2929 43.129 -38.7739 44.0015C-36.3394 44.8447 -32.3465 44.0465 -29.4355 43.6813C-18.7505 42.3409 -7.96059 39.3431 2.59937 37.2256C7.93958 36.1548 13.3312 36.0726 18.7612 35.1833C21.4072 34.75 22.8295 33.7556 25.6811 33.7477C28.4195 33.7402 31.1294 33.1577 33.8588 32.7107C40.4636 31.629 46.2678 32.1815 52.7774 32.3331C59.9636 32.5005 70.0294 30.1949 77.0958 28.5183C99.6777 23.1604 115.993 11.0209 135.078 1.48887C142.482 -2.20874 148.825 -6.76835 156.692 -10.0451C164.979 -13.4966 173.778 -14.993 182.819 -16.4736C198.236 -18.9986 215.226 -21.4226 229.909 -26.2683C236.712 -28.5137 242.786 -31.1764 247.376 -35.5109C252.324 -40.1827 250.061 -48.9549 245.28 -52.5667C242.625 -54.5721 235.338 -55.4141 231.326 -55.8571C227.07 -56.3269 222.721 -56.4382 218.354 -56.4869C202.047 -56.669 184.846 -52.7079 169.726 -47.2803C150.745 -40.4666 133.125 -41.3117 113.455 -38.9378C104.019 -37.799 94.7582 -35.7636 85.5768 -33.8011C79.491 -32.5003 74.1517 -27.9814 69.1742 -25.3375C55.188 -17.9084 45.8925 -7.63524 30.1127 -2.01138C22.7866 0.599583 15.1134 3.04422 7.2656 4.41749C2.99713 5.16443 -3.39516 6.16961 -7.05875 8.27495C-13.869 12.1885 -22.4634 16.4052 -26.2764 22.0028C-27.6668 24.044 -29.9244 26.5913 -31.7265 28.4712Z" fill="#FFE665"/>
</g>
</g>
<path d="M2.88654 40.1428C2.40308 40.8055 2.42365 41.6683 2.44423 42.4656C2.46823 43.4079 2.47166 44.3536 2.45451 45.2958C3.24656 44.7643 3.76088 43.9532 4.17919 43.1317C4.3712 42.7521 4.5495 42.3621 4.65922 41.9548C4.76551 41.5475 4.80323 41.1264 4.82723 40.7088C4.85123 40.3292 4.86495 39.9495 4.87181 39.5664C4.87524 39.2868 4.87181 38.9624 4.4775 39.0797C3.88775 39.2557 3.23628 39.663 2.88997 40.1428H2.88654Z" fill="#252525"/>
<path d="M1.63254 56.215C2.75666 55.5386 3.81565 56.4774 4.9809 56.3738C6.51285 56.2392 7.89743 55.5316 9.41909 55.5282C9.76524 56.1115 10.1114 56.6982 10.4541 57.2815L10.1251 57.606C8.50061 57.0054 8.37038 58.2583 8.06536 59.2972C5.8137 59.3041 3.55862 59.3145 1.30696 59.3214C1.30353 58.9762 1.3001 58.6311 1.29325 58.2859C1.51602 58.2514 1.77305 58.2169 1.7662 57.9339C1.75935 57.6509 1.49888 57.6267 1.27954 57.5922C1.46118 56.7638 1.69766 56.7224 1.62911 56.215H1.63254Z" fill="#32302F"/>
<path d="M5.31422 41.7699C4.42637 41.1383 3.53167 41.4696 2.6404 41.7596C2.38673 40.8725 2.96949 40.4342 3.56938 40.0062C4.60806 40.4722 5.65016 40.9347 6.68884 41.4006C6.89451 41.2936 7.10362 41.1832 7.3093 41.0762C7.3093 41.4179 7.3093 41.7596 7.3093 42.1013C6.6477 41.9529 6.01695 41.6215 5.31079 41.7699H5.31422Z" fill="#44413F"/>
<path fill-rule="evenodd" clip-rule="evenodd" d="M5.44675 39.7136C6.35195 39.8827 6.72569 40.504 6.69483 41.4048L6.69826 41.4013C6.80112 41.3478 6.90484 41.2935 7.00856 41.2391C7.11228 41.1848 7.216 41.1304 7.31887 41.0769C7.15771 39.8102 6.69826 38.9715 4.63755 39.0543C4.68899 39.5513 5.02844 39.6342 5.44675 39.7136ZM5.01839 78.6222C5.01561 78.6726 5.01342 78.7242 5.0112 78.7764C4.98874 79.304 4.96354 79.8961 4.3052 79.9338C4.20227 79.9396 4.10442 79.9456 4.01133 79.9513L4.01091 79.9513C3.27628 79.9964 2.83872 80.0232 2.54966 79.8026C2.39022 79.6823 2.41838 79.3795 2.44225 79.1228C2.45329 79.0042 2.46341 78.8954 2.45366 78.819C2.40342 78.4306 2.45329 78.1868 2.5094 77.9126C2.54902 77.719 2.59175 77.5101 2.60452 77.2244C2.75882 77.3141 2.91311 77.4039 3.06741 77.4971C2.78041 79.0609 3.47789 78.8823 4.17576 78.7036C4.48672 78.624 4.79776 78.5443 5.02182 78.6188L5.01839 78.6222ZM6.47253 78.1585C6.63879 78.1533 6.87104 78.2534 7.10328 78.3535C7.33553 78.4536 7.56777 78.5537 7.73403 78.5485C8.12824 78.6107 8.61159 78.1896 8.84812 77.7305C8.87835 77.7316 8.90575 77.7327 8.93098 77.7337C9.01257 77.737 9.07141 77.7394 9.13008 77.7371C9.2818 77.7314 9.43235 77.695 9.9721 77.5645L10.0136 77.5545C10.0136 77.5672 10.0762 77.5618 10.1395 77.5563C10.1966 77.5513 10.2543 77.5463 10.2673 77.5545C10.9632 77.9307 10.9803 78.9144 10.2707 79.2561C10.152 79.3135 10.0317 79.3709 9.90937 79.4293L9.909 79.4295L9.90897 79.4295C9.67124 79.543 9.42602 79.66 9.17035 79.7876C8.62187 79.9982 7.68261 80.0051 7.43922 79.9982C6.49996 80.0396 6.15373 78.9109 6.4691 78.162L6.47253 78.1585Z" fill="#555250"/>
<path fill-rule="evenodd" clip-rule="evenodd" d="M6.69442 41.404L6.6978 41.4055H6.69437L6.69442 41.404ZM5.44629 39.7143C6.35441 39.8833 6.72481 40.5074 6.69442 41.404C6.17613 41.1715 5.65698 40.94 5.13784 40.7084L5.13769 40.7083C4.61737 40.4762 4.09706 40.2441 3.5776 40.0111C3.84505 39.5935 4.12621 39.1931 4.6371 39.0551C4.68853 39.5521 5.02798 39.6349 5.44629 39.7143ZM9.69261 68.6273C7.9553 69.1911 7.85502 70.7423 7.76482 72.1374L7.75878 72.2306C7.66159 73.7177 7.69009 75.2118 7.71861 76.7066L7.71861 76.7066C7.73034 77.3212 7.74207 77.9359 7.74506 78.5503L6.74729 78.5813C6.46955 78.2189 6.28097 77.8462 6.37698 77.3526C6.55913 76.4019 6.50462 75.663 6.43857 74.7677C6.39024 74.1125 6.33573 73.3736 6.36326 72.4067C6.38311 71.7673 6.5249 71.2318 6.67228 70.6752L6.67229 70.6751L6.67231 70.675L6.67232 70.675C6.70314 70.5586 6.73419 70.4413 6.76443 70.322C7.32913 70.2197 7.51837 69.7953 7.70858 69.3687C7.83944 69.0752 7.97075 68.7806 8.22509 68.5893C8.37414 68.4776 8.50591 68.3416 8.63749 68.2058C8.93272 67.9011 9.22698 67.5974 9.71319 67.5711L9.69261 68.6273ZM4.84078 79.6748C5.02164 79.4264 5.07 79.3103 5.13431 79.1559C5.18704 79.0293 5.2505 78.877 5.40653 78.6048C5.45796 78.5116 5.64998 77.6557 5.62597 77.559C5.6233 77.5496 5.62023 77.5381 5.61675 77.5251C5.59343 77.4379 5.55193 77.2826 5.49225 77.2346C5.29482 77.0804 5.16159 77.0657 4.88456 77.0351L4.8785 77.0344C4.83735 77.031 4.79278 77.0275 4.75849 77.0448C4.73377 77.0572 4.72019 77.078 4.70771 77.0972L4.70363 77.1034C4.57249 77.326 4.4882 77.559 4.4352 77.7978L3.07294 77.5008V77.5043C2.78594 79.069 3.48342 78.8902 4.18129 78.7114C4.23859 78.6968 4.29588 78.6821 4.35264 78.6684C4.35234 78.8039 4.35592 78.9395 4.36075 79.0742C4.36761 79.2779 4.38475 79.4988 4.54933 79.661C4.61448 79.7266 4.7482 79.7127 4.84078 79.6748ZM8.16535 58.9743L8.16536 58.9742C8.42026 58.0224 8.67544 57.0694 10.1366 57.6082C9.56052 58.2674 9.74568 58.9681 10.0303 59.6722L8.07586 59.2994C8.10689 59.1926 8.13611 59.0835 8.16533 58.9743L8.16534 58.9743L8.16535 58.9743ZM6.78014 41.9546C6.3081 41.8105 5.83509 41.666 5.32066 41.7736L5.31723 41.7701C5.59839 44.4381 6.29101 44.8937 6.80533 44.5037C7.2065 44.2 7.26479 43.9376 7.31965 43.3198V42.1049C7.13847 42.0641 6.95938 42.0094 6.78015 41.9546L6.78014 41.9546ZM4.11771 68.6743L4.11767 68.6742C3.35512 68.1419 2.52033 67.5592 1.63098 67.5914C1.63098 67.3567 1.63441 67.1185 1.63784 66.8838C2.37302 66.7565 2.97151 67.0752 3.56988 67.3939C4.00964 67.6281 4.44934 67.8622 4.94319 67.9193C4.94724 68.0304 4.95279 68.1445 4.95859 68.264C4.97244 68.5489 4.98776 68.8642 4.98776 69.2412C4.70978 69.0876 4.4194 68.8849 4.11771 68.6743Z" fill="#484543"/>
<path d="M1.27954 57.5912C1.49898 57.6258 1.763 57.6534 1.76643 57.9331C1.77329 58.2163 1.51613 58.2542 1.29326 58.2853C1.28983 58.054 1.28297 57.8191 1.27954 57.5878V57.5912Z" fill="#1E1E1E"/>
<path fill-rule="evenodd" clip-rule="evenodd" d="M2.5051 44.9242C2.63531 44.7477 2.61917 44.4994 2.60369 44.2613C2.59798 44.1735 2.59237 44.0871 2.59421 44.0062L2.64563 41.7592L2.77044 41.7189C3.62029 41.4436 4.47281 41.1675 5.31911 41.7696C5.72254 42.055 5.77817 42.5632 5.83229 43.0574C5.90186 43.6928 5.96892 44.3054 6.76896 44.3927C6.80344 45.6575 7.75276 45.707 8.45229 45.7435C8.72634 45.7578 8.96205 45.7701 9.08941 45.8527L9.08906 45.8811C9.0792 46.6989 9.07527 47.0241 7.84521 47.1435L7.49034 47.1778C6.27395 47.2956 5.07757 47.4114 3.87191 47.3699C5.07929 47.412 6.27731 47.2959 7.49541 47.178C7.61349 47.1665 7.73175 47.1551 7.85024 47.1437C9.08017 47.0243 9.0841 46.6991 9.09396 45.8813L9.09431 45.8529C10.3624 46.1877 10.9587 47.1679 11.4008 48.2965L11.4042 48.2896C11.5254 48.807 11.6919 49.3198 11.8585 49.8328C12.3566 51.3661 12.855 52.9005 12.1411 54.5609C12.0496 54.7736 11.9696 54.9948 11.8893 55.2166C11.5997 56.017 11.3071 56.8259 10.4617 57.2772C10.119 56.6939 9.77289 56.1072 9.42674 55.5239C9.43017 55.2909 9.43274 55.058 9.43531 54.825C9.43788 54.592 9.44045 54.359 9.44388 54.1261C10.1006 53.6587 10.0107 53.0083 9.92071 52.3575C9.86983 51.9893 9.81892 51.6209 9.90312 51.2855C8.94197 51.7381 9.05543 52.4526 9.16893 53.1672C9.23027 53.5535 9.29162 53.9397 9.18341 54.2848C9.27937 54.2365 9.36505 54.1847 9.44045 54.1295C9.43702 54.3624 9.43445 54.5954 9.43188 54.8283C9.42931 55.0613 9.42674 55.2943 9.42331 55.5273C8.59031 55.5292 7.79839 55.7421 7.00088 55.9565C6.34156 56.1338 5.67843 56.312 4.98512 56.373C4.52347 56.414 4.07849 56.2914 3.63954 56.1705C2.97054 55.9862 2.31552 55.8057 1.63676 56.2142C1.58923 56.0919 1.55893 55.9805 1.52989 55.8737C1.44167 55.5491 1.36502 55.2672 0.851938 54.8543C3.72118 53.9694 4.33759 51.4232 2.19836 49.3536C4.33448 51.4226 3.7169 53.9665 0.847856 54.851C0.680198 54.6301 0.623746 54.1879 0.563848 53.7187C0.524523 53.4106 0.483712 53.0909 0.408971 52.8146C-0.00934101 51.2614 -0.0333425 50.4055 0.0215181 48.7902C0.086665 46.8091 0.744992 46.0497 2.23994 45.1558L2.24013 45.1569L2.5051 44.9242ZM1.80347 48.9928C1.44018 48.6586 1.13813 48.3053 1.30775 47.7305C1.45225 47.2337 1.82495 47.2513 2.19545 47.2687C2.33389 47.2752 2.47203 47.2817 2.59783 47.2614C2.59662 47.2612 2.59542 47.2611 2.59421 47.2609L2.59375 47.2582C2.46811 47.2784 2.33021 47.2719 2.192 47.2654C1.82133 47.2479 1.44845 47.2304 1.30388 47.7271C1.13362 48.3039 1.43839 48.6576 1.80347 48.9928ZM6.76145 70.3237C6.68949 69.2754 6.60579 68.9117 6.49859 68.4459C6.45261 68.2462 6.40231 68.0276 6.34676 67.7282C6.34083 67.6968 6.33527 67.6641 6.32959 67.6308C6.27287 67.2976 6.20398 66.893 5.6339 66.9275C5.11983 66.9585 4.95875 67.4279 4.93819 67.9146C4.44457 67.8576 4.00508 67.6234 3.56552 67.3892C2.96743 67.0706 2.36922 66.7518 1.63439 66.8791C1.29852 64.3699 1.08946 61.8538 1.31223 59.317C2.43806 59.3135 3.56474 59.3092 4.69143 59.3049C5.81812 59.3006 6.9448 59.2963 8.07063 59.2928L10.0241 59.6656C10.2118 61.1466 10.0581 62.6147 9.90455 64.0825C9.78323 65.2417 9.66194 66.4008 9.70882 67.566C9.22097 67.5924 8.9248 67.8983 8.6287 68.2042C8.49838 68.3388 8.36806 68.4734 8.22142 68.5842C7.9672 68.7755 7.83595 69.07 7.70515 69.3635C7.51503 69.7901 7.32588 70.2146 6.76145 70.3168V70.3237ZM2.31673 75.5022C2.3711 72.8649 2.0045 70.2649 1.63748 67.6619L1.62754 67.5915C2.51462 67.5593 3.35062 68.1423 4.1141 68.6746C4.41595 68.8851 4.70647 69.0877 4.98432 69.2413C5.30436 71.3847 5.15587 73.0447 4.97995 75.0113L4.9799 75.0119C4.96555 75.1724 4.95101 75.3349 4.93653 75.4998H4.93984C4.94841 75.9019 4.95613 76.304 4.96384 76.7061C4.97156 77.1082 4.97927 77.5103 4.98785 77.9124L4.69887 77.8499C4.15662 77.7326 3.61265 77.6149 3.07115 77.4948V77.4982C2.91686 77.4085 2.76256 77.3188 2.60827 77.2256L2.46423 76.3625L2.32064 75.5022H2.31673ZM9.69103 68.6304L9.69132 68.6268V68.6303L9.69103 68.6304ZM9.69103 68.6304C9.64736 69.1548 9.61704 69.6808 9.58671 70.207C9.50535 71.6186 9.42392 73.0313 9.08443 74.4184C8.94527 74.9833 8.96648 75.5617 8.9877 76.1403C9.01354 76.8449 9.0394 77.55 8.77584 78.2322C8.54549 78.6792 8.16238 78.619 7.77524 78.5582L7.74377 78.5532C7.7417 77.9164 7.72962 77.2793 7.71755 76.6423C7.68964 75.1699 7.66175 73.6984 7.75749 72.2336L7.76353 72.1404C7.85372 70.7453 7.954 69.1942 9.69103 68.6304Z" fill="url(#paint0_linear_1625_16218)"/>
<defs>
<filter id="filter0_f_1625_16218" x="-222.523" y="-21.5498" width="392.314" height="228.48" filterUnits="userSpaceOnUse" color-interpolation-filters="sRGB">
<feFlood flood-opacity="0" result="BackgroundImageFix"/>
<feBlend mode="normal" in="SourceGraphic" in2="BackgroundImageFix" result="shape"/>
<feGaussianBlur stdDeviation="4" result="effect1_foregroundBlur_1625_16218"/>
</filter>
<filter id="filter1_f_1625_16218" x="-170.047" y="25.3558" width="297.488" height="494.479" filterUnits="userSpaceOnUse" color-interpolation-filters="sRGB">
<feFlood flood-opacity="0" result="BackgroundImageFix"/>
<feBlend mode="normal" in="SourceGraphic" in2="BackgroundImageFix" result="shape"/>
<feGaussianBlur stdDeviation="4" result="effect1_foregroundBlur_1625_16218"/>
</filter>
<filter id="filter2_f_1625_16218" x="-80.293" y="57.6333" width="146.208" height="83.0281" filterUnits="userSpaceOnUse" color-interpolation-filters="sRGB">
<feFlood flood-opacity="0" result="BackgroundImageFix"/>
<feBlend mode="normal" in="SourceGraphic" in2="BackgroundImageFix" result="shape"/>
<feGaussianBlur stdDeviation="4" result="effect1_foregroundBlur_1625_16218"/>
</filter>
<filter id="filter3_f_1625_16218" x="-48.2815" y="-64.493" width="306.435" height="116.868" filterUnits="userSpaceOnUse" color-interpolation-filters="sRGB">
<feFlood flood-opacity="0" result="BackgroundImageFix"/>
<feBlend mode="normal" in="SourceGraphic" in2="BackgroundImageFix" result="shape"/>
<feGaussianBlur stdDeviation="4" result="effect1_foregroundBlur_1625_16218"/>
</filter>
<linearGradient id="paint0_linear_1625_16218" x1="9.61148" y1="46.1219" x2="3.24115" y2="77.3771" gradientUnits="userSpaceOnUse">
<stop stop-color="#32302F"/>
<stop offset="0.0623553" stop-color="#454342"/>
<stop offset="1" stop-color="#32302F"/>
</linearGradient>
</defs>
</svg>
