<svg width="335" height="101" viewBox="0 0 335 101" fill="none" xmlns="http://www.w3.org/2000/svg">
<mask id="mask0_11991_32091" style="mask-type:alpha" maskUnits="userSpaceOnUse" x="0" y="0" width="335" height="101">
<path d="M0 8C0 3.58172 3.58172 0 8 0H335V101H0V8Z" fill="#D9D9D9"/>
</mask>
<g mask="url(#mask0_11991_32091)">
<mask id="mask1_11991_32091" style="mask-type:alpha" maskUnits="userSpaceOnUse" x="-20" y="-39" width="259" height="142">
<path d="M23.213 86.2139C0.239256 88.8474 -16.2655 99.6985 -20 102.267V-39C48.8207 -22.3048 31.087 10.2158 82.4454 24.2119C124.858 35.7701 149.13 24.2119 183.54 24.2119C211.068 24.2119 232.609 47.6866 238.478 52.1814C176.059 48.9708 140.848 95.2037 96.8351 98.4143C66.5509 100.623 40.018 84.2876 23.213 86.2139Z" fill="#32302F"/>
</mask>
<g mask="url(#mask1_11991_32091)">
<g filter="url(#filter0_f_11991_32091)">
<path d="M-10.9085 22.4828C-15.1312 25.2665 -15.8693 30.2963 -12.6971 34.7235C8.48873 64.2905 29.9195 93.7755 50.8937 123.413C72.7074 153.955 96.2094 152.321 159.928 129.999C306.422 78.485 455.216 29.8511 603.396 -19.6338C628.999 -28.2172 643.293 -44.1541 635.311 -55.2171C581.572 -129.698 527.784 -204.247 474.343 -278.837C469.772 -285.217 459.363 -287.532 453.279 -283.521L-10.9085 22.4828Z" fill="#FFE665"/>
</g>
<g filter="url(#filter1_f_11991_32091)">
<path d="M39.726 -1.28984L-111.645 96.5789L-119.277 157.135L104.546 130.293L185.382 31.9178L137.632 -17.9037L39.726 -1.28984Z" fill="#FFB9F8"/>
</g>
<g filter="url(#filter2_f_11991_32091)">
<path d="M-21.1594 -23.9952L-136.016 61.7331L-130.795 102.076L62.3724 51.6474L114.58 -23.9952L62.3724 -49.2095L-21.1594 -23.9952Z" fill="#71BBFF"/>
</g>
<g filter="url(#filter3_f_11991_32091)">
<path d="M-25.4465 -8.37164L-82.4492 35.8074L-79.8582 56.5975L16.01 30.6099L41.9203 -8.37164L16.01 -21.3655L-25.4465 -8.37164Z" fill="#0A9F68"/>
</g>
</g>
<g filter="url(#filter4_f_11991_32091)">
<ellipse cx="235.291" cy="98.0701" rx="11.7911" ry="1.07192" fill="url(#paint0_linear_11991_32091)"/>
</g>
<g filter="url(#filter5_f_11991_32091)">
<ellipse cx="198.846" cy="98.0701" rx="11.7911" ry="1.07192" fill="url(#paint1_linear_11991_32091)"/>
</g>
<path d="M236.239 55.4615C236.657 54.9041 236.678 54.829 236.925 54.1752C237.118 53.6606 236.807 52.3208 237.182 51.9241C237.761 51.3131 238.876 51.4632 239.433 52.0956C239.991 52.7281 240.076 53.6821 239.851 54.4967C239.626 55.3114 239.144 56.0296 238.661 56.7263C238.008 57.6911 237.354 58.6451 236.689 59.6098C236.325 60.1457 235.949 60.6924 235.446 61.1105C234.942 61.5285 234.288 61.8072 233.645 61.7107C233.28 61.6572 232.948 61.4964 232.627 61.3141C231.083 60.4566 229.668 59.1167 229.304 57.3909C229.057 56.2225 229.925 52.2028 231.383 52.4065C232.659 52.5887 232.98 56.7263 233.581 57.616C234.277 56.9086 235.628 56.2654 236.239 55.4615Z" fill="#2A2A2D"/>
<path d="M231.402 73.6626C231.938 73.8555 232.559 74.1235 232.677 74.6809C232.731 74.9167 232.677 75.1633 232.624 75.3884C231.788 79.2044 232.774 81.2625 232.377 85.1428C232.324 85.6252 231.68 87.1152 231.97 87.501C232.174 87.769 233.353 88.0156 233.685 88.0048C235.743 87.9512 236.043 88.7552 238.026 88.8624C238.316 88.8731 238.648 88.8624 238.852 88.648C239.087 88.38 238.98 87.9405 238.723 87.6833C238.466 87.426 238.123 87.2974 237.812 87.1259C236.472 86.3755 235.668 85.9896 235.647 84.4461C235.625 82.9025 236.107 81.4126 236.472 79.9119C236.997 77.7573 237.308 75.5599 237.383 73.341C237.404 72.58 237.394 71.7867 237.019 71.1329C236.686 70.554 236.107 70.1681 235.539 69.8037C232.795 68.0136 230.03 66.2771 227.232 64.5835C226.46 64.1118 225.656 63.6402 224.767 63.4687C223.877 63.2972 222.859 63.5008 222.28 64.1976C221.701 64.8943 221.679 65.9341 222.001 66.7809C223.309 70.2325 228.175 72.462 231.38 73.6519L231.402 73.6626Z" fill="#3C3C41"/>
<path d="M225.081 75.0882C225.575 75.3777 226.143 75.7528 226.153 76.3209C226.153 76.5568 226.068 76.7926 225.971 77.007C224.46 80.6086 225.06 82.8168 223.988 86.5685C223.849 87.0401 222.948 88.38 223.173 88.8088C223.324 89.1089 224.438 89.5591 224.771 89.6127C226.797 89.9343 226.957 90.7704 228.887 91.2313C229.176 91.2956 229.498 91.3492 229.734 91.167C230.012 90.9526 229.98 90.4917 229.776 90.1915C229.573 89.8914 229.251 89.7092 228.983 89.4841C227.793 88.4979 227.075 87.9834 227.333 86.4613C227.59 84.9392 228.329 83.5564 228.962 82.1522C229.862 80.1262 230.559 78.0146 231.031 75.8493C231.191 75.1097 231.32 74.3165 231.063 73.609C230.838 72.9766 230.334 72.4942 229.852 72.0333C227.472 69.7822 225.06 67.5741 222.616 65.4088C221.941 64.8086 221.233 64.1976 220.386 63.876C219.54 63.5544 218.5 63.5651 217.803 64.144C217.106 64.7228 216.903 65.7411 217.064 66.6308C217.728 70.2646 222.123 73.3303 225.06 75.0668L225.081 75.0882Z" fill="#2A2A2D"/>
<path d="M223.844 68.1958C224.059 67.9921 224.252 67.7563 224.423 67.5205C225.527 66.0626 226.342 64.4333 227.35 62.9112C229.343 59.8991 232.666 57.8625 232.377 53.7999C232.366 53.5855 232.355 53.3711 232.345 53.1675C232.302 52.0313 231.369 51.1952 230.233 51.088C230.233 51.088 230.222 51.088 230.212 51.088C229.129 50.9808 227.36 50.9701 226.278 50.8843C225.506 50.8307 223.266 51.2916 222.622 51.9348C221.465 53.0925 221.304 54.8718 221.004 56.4797C220.586 58.7307 219.75 60.9067 218.56 62.8576C218.099 63.6187 217.552 64.4548 217.724 65.323C217.895 66.2342 218.785 66.813 219.642 67.1667C220.747 67.6169 221.947 69.2034 223.244 68.6031C223.469 68.4959 223.673 68.3458 223.855 68.1743L223.844 68.1958Z" fill="#2C2A26"/>
<path d="M226.56 45.2246C226.613 44.8816 226.699 44.5171 226.913 44.2599C227.074 44.0777 227.299 43.9597 227.524 43.8633C228.607 43.3809 229.968 43.1022 230.879 43.9276C231.372 44.3671 231.63 45.0424 231.78 45.707C231.994 46.661 232.026 47.6686 231.866 48.6333C231.812 48.9334 231.737 49.255 231.512 49.4372C231.319 49.598 231.062 49.6302 230.858 49.7695C230.333 50.1233 230.376 50.9379 230.386 51.6132C230.386 51.7847 230.386 51.9562 230.301 52.1063C230.204 52.2671 230.043 52.3421 229.872 52.4065C228.671 52.8459 226.163 52.5136 226.495 50.7879C226.645 49.9839 227.01 49.7267 226.892 48.8048C226.731 47.5507 226.367 46.5323 226.56 45.2353V45.2246Z" fill="#3C3C41"/>
<path d="M229.13 44.7636C229.173 45.2245 229.344 45.664 229.334 46.1249C229.323 46.7145 229.012 47.2397 228.787 47.7864C228.455 48.5796 228.304 49.4479 228.337 50.3161C228.347 50.702 228.401 51.0986 228.315 51.4738C228.229 51.8489 227.951 52.2241 227.565 52.2777C227.072 52.3528 226.643 51.8811 226.536 51.3987C226.429 50.9164 226.536 50.4126 226.557 49.9195C226.6 48.9977 226.343 48.0972 226.236 47.1861C226.128 46.275 226.182 45.2781 226.739 44.5492C227.104 44.0668 227.919 43.5094 228.551 43.5309C229.666 43.563 229.066 43.8739 229.13 44.7636Z" fill="#2C2A26"/>
<path d="M229.817 65.516C228.198 64.5727 226.612 63.5115 225.454 62.0323C224.918 61.3355 224.479 60.5638 224.05 59.792C223.578 58.9559 223.117 58.1091 222.86 57.1765C222.71 56.6405 222.646 56.0831 222.463 55.5579C222.27 55.0005 221.949 54.4431 222.002 53.8536C222.035 53.5105 222.195 53.1782 222.42 52.9103C223.128 52.0742 224.5 51.9027 225.39 52.5351C225.754 52.8031 226.033 53.1675 226.301 53.532C227.416 55.0327 227.566 58.3127 228.391 59.9956C228.852 60.9282 230.556 61.3998 231.564 62.4825C232.786 63.8009 235.358 65.3338 235.809 65.4517C236.366 65.6018 236.977 65.4731 237.534 65.6339C238.446 65.9019 239.121 67.0703 239.067 68.0029C238.992 69.2034 238.253 68.7746 237.352 68.5067C234.683 67.692 232.239 66.9309 229.806 65.516H229.817Z" fill="#3C3C41"/>
<path d="M246.806 97.802C241.176 97.802 236.612 93.2381 236.612 87.6081C236.612 81.9782 241.176 77.4142 246.806 77.4142C252.436 77.4142 257 81.9782 257 87.6081C257 93.2381 252.436 97.802 246.806 97.802Z" stroke="#2A2A2D" stroke-width="2" stroke-miterlimit="10"/>
<path d="M209.042 97.802C203.412 97.802 198.848 93.2381 198.848 87.6081C198.848 81.9782 203.412 77.4142 209.042 77.4142C214.672 77.4142 219.236 81.9782 219.236 87.6081C219.236 93.2381 214.672 97.802 209.042 97.802Z" stroke="#2A2A2D" stroke-width="2" stroke-miterlimit="10"/>
<path d="M219.035 72.1082C216.909 72.1082 215.186 71.6186 215.186 71.0148C215.186 70.411 216.909 69.9214 219.035 69.9214C221.16 69.9214 222.883 70.411 222.883 71.0148C222.883 71.6186 221.16 72.1082 219.035 72.1082Z" fill="#2A2A2D"/>
<path d="M247.318 88.4443L239.107 65.9769" stroke="#2A2A2D" stroke-width="2" stroke-miterlimit="10" stroke-linecap="round"/>
<path d="M241.08 72.2153H220.274" stroke="#2A2A2D" stroke-width="2" stroke-miterlimit="10" stroke-linecap="round"/>
<path d="M241.08 72.2153L225.58 86.0537" stroke="#2A2A2D" stroke-width="2" stroke-miterlimit="10" stroke-linecap="round"/>
<path d="M220.276 72.2153L226.418 84.5959" stroke="#2A2A2D" stroke-width="2" stroke-miterlimit="10" stroke-linecap="round"/>
<path d="M224.121 87.9189L208.418 87.6081" stroke="#2A2A2D" stroke-width="2" stroke-miterlimit="10" stroke-linecap="round"/>
<path d="M220.273 72.2153L208.418 87.6081" stroke="#2A2A2D" stroke-width="2" stroke-miterlimit="10" stroke-linecap="round"/>
<path d="M239.217 65.5588L238.799 68.5709" stroke="#2A2A2D" stroke-width="2" stroke-miterlimit="10" stroke-linecap="round"/>
</g>
<defs>
<filter id="filter0_f_11991_32091" x="-20.6562" y="-291.507" width="664.18" height="444.081" filterUnits="userSpaceOnUse" color-interpolation-filters="sRGB">
<feFlood flood-opacity="0" result="BackgroundImageFix"/>
<feBlend mode="normal" in="SourceGraphic" in2="BackgroundImageFix" result="shape"/>
<feGaussianBlur stdDeviation="3" result="effect1_foregroundBlur_11991_32091"/>
</filter>
<filter id="filter1_f_11991_32091" x="-143.277" y="-41.9037" width="352.66" height="223.039" filterUnits="userSpaceOnUse" color-interpolation-filters="sRGB">
<feFlood flood-opacity="0" result="BackgroundImageFix"/>
<feBlend mode="normal" in="SourceGraphic" in2="BackgroundImageFix" result="shape"/>
<feGaussianBlur stdDeviation="12" result="effect1_foregroundBlur_11991_32091"/>
</filter>
<filter id="filter2_f_11991_32091" x="-160.016" y="-73.2095" width="298.596" height="199.285" filterUnits="userSpaceOnUse" color-interpolation-filters="sRGB">
<feFlood flood-opacity="0" result="BackgroundImageFix"/>
<feBlend mode="normal" in="SourceGraphic" in2="BackgroundImageFix" result="shape"/>
<feGaussianBlur stdDeviation="12" result="effect1_foregroundBlur_11991_32091"/>
</filter>
<filter id="filter3_f_11991_32091" x="-106.449" y="-45.3655" width="172.369" height="125.963" filterUnits="userSpaceOnUse" color-interpolation-filters="sRGB">
<feFlood flood-opacity="0" result="BackgroundImageFix"/>
<feBlend mode="normal" in="SourceGraphic" in2="BackgroundImageFix" result="shape"/>
<feGaussianBlur stdDeviation="12" result="effect1_foregroundBlur_11991_32091"/>
</filter>
<filter id="filter4_f_11991_32091" x="221.5" y="94.9982" width="27.582" height="6.14386" filterUnits="userSpaceOnUse" color-interpolation-filters="sRGB">
<feFlood flood-opacity="0" result="BackgroundImageFix"/>
<feBlend mode="normal" in="SourceGraphic" in2="BackgroundImageFix" result="shape"/>
<feGaussianBlur stdDeviation="1" result="effect1_foregroundBlur_11991_32091"/>
</filter>
<filter id="filter5_f_11991_32091" x="185.055" y="94.9982" width="27.582" height="6.14386" filterUnits="userSpaceOnUse" color-interpolation-filters="sRGB">
<feFlood flood-opacity="0" result="BackgroundImageFix"/>
<feBlend mode="normal" in="SourceGraphic" in2="BackgroundImageFix" result="shape"/>
<feGaussianBlur stdDeviation="1" result="effect1_foregroundBlur_11991_32091"/>
</filter>
<linearGradient id="paint0_linear_11991_32091" x1="247.082" y1="99.142" x2="243.581" y2="108.798" gradientUnits="userSpaceOnUse">
<stop stop-color="#32302F" stop-opacity="0.7"/>
<stop offset="1" stop-color="#C9D1DB" stop-opacity="0"/>
</linearGradient>
<linearGradient id="paint1_linear_11991_32091" x1="210.637" y1="99.142" x2="207.136" y2="108.798" gradientUnits="userSpaceOnUse">
<stop stop-color="#32302F" stop-opacity="0.7"/>
<stop offset="1" stop-color="#C9D1DB" stop-opacity="0"/>
</linearGradient>
</defs>
</svg>
