<svg width="251" height="140" viewBox="0 0 251 140" fill="none" xmlns="http://www.w3.org/2000/svg">
<g clip-path="url(#clip0_30211_151756)">
<path fill-rule="evenodd" clip-rule="evenodd" d="M78.1239 22.9645L64.292 2.46432L65.3449 1.75391L79.1768 22.2541L78.1239 22.9645Z" fill="#FFE6D6"/>
<path fill-rule="evenodd" clip-rule="evenodd" d="M74.5483 77.7789L57.4267 81.837L57.1338 80.6011L74.2554 76.543L74.5483 77.7789Z" fill="#FFE6D6"/>
<path fill-rule="evenodd" clip-rule="evenodd" d="M165.752 17.447L173.417 -3.28809L174.609 -2.84767L166.943 17.8875L165.752 17.447Z" fill="#FFE6D6"/>
<path fill-rule="evenodd" clip-rule="evenodd" d="M173.48 16.4191L180.238 6.05469L181.302 6.74837L174.544 17.1128L173.48 16.4191Z" fill="#FFE6D6"/>
<path fill-rule="evenodd" clip-rule="evenodd" d="M207.944 127.291L190.822 117.371L191.459 116.272L208.581 126.192L207.944 127.291Z" fill="#FFE6D6"/>
<path fill-rule="evenodd" clip-rule="evenodd" d="M213.506 118.337L198.633 114.285L198.967 113.06L213.84 117.111L213.506 118.337Z" fill="#FFE6D6"/>
<path fill-rule="evenodd" clip-rule="evenodd" d="M77.0544 84.7433L69.1668 88.1663L68.6611 87.0012L76.5487 83.5781L77.0544 84.7433Z" fill="#FFE6D6"/>
<path fill-rule="evenodd" clip-rule="evenodd" d="M242.888 77.4411L229.577 72.1954L230.043 71.0137L243.354 76.2594L242.888 77.4411Z" fill="#FFE6D6"/>
<path fill-rule="evenodd" clip-rule="evenodd" d="M221.238 34.6471L205.107 43.5191L204.495 42.4061L220.626 33.5342L221.238 34.6471Z" fill="#FFE6D6"/>
<path d="M173.006 104.93L181.375 103.333L180.34 107L173.006 104.93Z" fill="#FFC39C"/>
<rect x="14.6543" y="61.6387" width="3.67635" height="9.19088" transform="rotate(-44.4914 14.6543 61.6387)" fill="#FFC39C"/>
<rect x="44.6641" y="20.957" width="3.70851" height="9.27127" transform="rotate(1 44.6641 20.957)" fill="#FFC39C"/>
<rect x="211.59" y="16.4707" width="3.70851" height="9.27127" transform="rotate(37.2293 211.59 16.4707)" fill="#FFC39C"/>
<rect x="174.613" y="39.5557" width="2.79655" height="6.99138" transform="rotate(-146.115 174.613 39.5557)" fill="#FFC39C"/>
<rect x="245.491" y="107.461" width="2.80738" height="7.01844" transform="rotate(155 245.491 107.461)" fill="#FFC39C"/>
<rect x="81.3369" y="15.2373" width="1.32453" height="3.31132" transform="rotate(-73 81.3369 15.2373)" fill="#FFC39C"/>
<rect x="206.124" y="55.7266" width="2.73806" height="6.84514" transform="rotate(-109 206.124 55.7266)" fill="#FFC39C"/>
<rect x="19.9238" y="107.704" width="4.02044" height="10.0511" transform="rotate(-106 19.9238 107.704)" fill="#FFC39C"/>
<rect x="110.66" y="5.90234" width="2.56476" height="6.41191" transform="rotate(157 110.66 5.90234)" fill="#FFC39C"/>
<rect x="78.7441" y="46.3604" width="2.32215" height="5.80537" transform="rotate(60 78.7441 46.3604)" fill="#FFC39C"/>
<path fill-rule="evenodd" clip-rule="evenodd" d="M214.439 79.2978C214.32 78.7204 214.297 78.1756 214.356 77.699C214.456 76.894 214.775 76.36 215.168 76.1076L215.169 76.1069C215.558 75.8563 215.879 75.9038 216.135 76.0744C216.425 76.2674 216.668 76.653 216.722 77.1163C216.774 77.5611 216.648 78.0536 216.231 78.4696C215.894 78.806 215.332 79.1259 214.439 79.2978ZM213.169 79.4244C211.132 79.4622 209.248 78.7419 207.827 77.743C208.355 77.2479 208.68 76.6684 208.824 76.0585C209.026 75.2061 208.864 74.3505 208.508 73.6606C208.156 72.979 207.58 72.3955 206.88 72.1485C206.136 71.8857 205.316 72.0324 204.659 72.7095C203.951 73.4393 203.92 74.4301 204.231 75.3384C204.491 76.0991 205.007 76.8754 205.692 77.5862C203.839 78.3811 201.766 78.2319 200.026 77.8096C199.052 77.5733 198.209 77.2576 197.61 77.0007C197.311 76.8724 197.074 76.7595 196.913 76.6796C196.833 76.6396 196.772 76.608 196.732 76.5868C196.712 76.5762 196.697 76.5683 196.688 76.5632L196.678 76.5579L196.676 76.5569C196.676 76.557 196.676 76.5571 196.368 77.112C196.059 77.6669 196.059 77.6671 196.059 77.6672L196.061 77.6683L196.066 77.6709L196.082 77.6795C196.095 77.6868 196.114 77.6969 196.138 77.7098C196.187 77.7355 196.257 77.7718 196.347 77.8166C196.526 77.906 196.786 78.0293 197.109 78.1681C197.756 78.4452 198.667 78.7869 199.726 79.0439C201.731 79.5304 204.364 79.7366 206.719 78.5034C208.439 79.8335 210.863 80.824 213.52 80.6826C213.556 80.7799 213.595 80.8771 213.635 80.9741C214.628 83.358 216.931 85.6976 220.804 86.5452L221.075 85.3045C217.625 84.5494 215.662 82.5079 214.82 80.5162C215.832 80.2997 216.596 79.8999 217.129 79.3685C217.838 78.6608 218.078 77.7752 217.983 76.9686C217.891 76.1805 217.475 75.4414 216.84 75.0176C216.171 74.5715 215.302 74.51 214.481 75.0392C213.664 75.5645 213.224 76.5123 213.096 77.5428C213.023 78.129 213.047 78.7673 213.169 79.4244ZM206.831 76.9284C207.271 76.5641 207.496 76.1561 207.588 75.7654C207.711 75.2493 207.617 74.7033 207.379 74.2434C207.137 73.7753 206.782 73.4608 206.458 73.3462C206.178 73.2474 205.88 73.2754 205.57 73.5942C205.312 73.8602 205.213 74.2858 205.433 74.9273C205.641 75.5372 206.117 76.2466 206.831 76.9284Z" fill="#FFC39C"/>
<path fill-rule="evenodd" clip-rule="evenodd" d="M53.4426 126.759C57.0373 127.808 61.3639 126.849 64.1742 122.323C64.4777 121.835 64.7107 121.358 64.8805 120.895C65.6823 120.743 66.3998 120.538 66.9215 120.381L66.9229 120.38C69.021 119.74 70.7522 118.233 71.9357 116.938C72.5332 116.284 73.0047 115.669 73.3274 115.217C73.4889 114.99 73.6137 114.804 73.6989 114.673C73.7416 114.607 73.7743 114.555 73.7969 114.519C73.8081 114.501 73.8169 114.487 73.823 114.477L73.8302 114.465L73.8331 114.46C73.8332 114.46 73.8335 114.46 73.289 114.133C72.7444 113.806 72.7445 113.806 72.7446 113.806L72.7438 113.807L72.7394 113.814C72.7352 113.821 72.7284 113.832 72.7191 113.847C72.7006 113.877 72.6721 113.922 72.634 113.981C72.5577 114.098 72.4433 114.269 72.2934 114.479C71.9934 114.9 71.5538 115.473 70.998 116.081C69.875 117.31 68.3309 118.623 66.5532 119.165C66.179 119.278 65.7189 119.411 65.2106 119.528C65.358 118.22 64.9881 117.077 64.3071 116.193C63.2271 114.791 61.3631 114.074 59.86 114.523C58.6396 114.888 57.9099 116.127 57.936 117.384C57.9633 118.699 58.7911 120.027 60.584 120.728C61.4819 121.079 62.4779 121.147 63.4144 121.086C63.3213 121.271 63.2153 121.46 63.0955 121.652C60.6095 125.656 56.8899 126.442 53.7984 125.54C50.633 124.616 48.2577 121.986 48.3204 119.238L47.0506 119.209C46.9706 122.714 49.9217 125.732 53.4426 126.759ZM63.8886 119.766C64.1325 118.586 63.8184 117.64 63.3009 116.969C62.4788 115.901 61.1304 115.469 60.2238 115.74M63.8886 119.766C62.8737 119.891 61.8662 119.865 61.0466 119.545C59.6748 119.009 59.2213 118.101 59.2058 117.357C59.1892 116.555 59.6552 115.91 60.2238 115.74" fill="#FFC39C"/>
<path fill-rule="evenodd" clip-rule="evenodd" d="M47.5465 73.9606C46.3228 72.7553 45.7321 71.2235 45.7618 69.9252L46.3967 69.9398L45.7618 69.9258C45.794 68.4615 46.3903 67.1432 47.3187 66.5628C47.8083 66.2567 48.404 66.1571 48.9881 66.4095C49.5462 66.6508 49.988 67.1682 50.3146 67.8701C51.1221 69.6042 50.8962 71.241 50.1339 72.6674C49.9229 73.0622 49.6709 73.4414 49.3886 73.8041C50.6382 74.5834 52.4197 75.0138 54.8153 74.6219L55.0204 75.8754C52.2191 76.3336 50.0626 75.7785 48.5385 74.7653C48.0049 75.3031 47.4178 75.7957 46.8228 76.2396C45.5146 77.2156 44.1226 77.9899 43.0636 78.5184C42.5327 78.7834 42.0822 78.9883 41.7632 79.1274C41.6037 79.1969 41.4769 79.2501 41.3891 79.2863C41.3453 79.3043 41.3112 79.3181 41.2876 79.3276L41.2603 79.3385L41.2527 79.3414L41.2505 79.3423L41.2498 79.3426C41.2496 79.3427 41.2494 79.3428 41.0182 78.7512C40.7871 78.1597 40.787 78.1598 40.7869 78.1598L40.787 78.1598L40.7879 78.1594L40.7929 78.1574L40.815 78.1486C40.835 78.1406 40.8655 78.1283 40.9056 78.1118C40.9858 78.0788 41.1045 78.029 41.2555 77.9631C41.5576 77.8314 41.988 77.6357 42.4964 77.3819C43.5161 76.873 44.8365 76.1369 46.0633 75.2216C46.5921 74.8271 47.0952 74.4053 47.5465 73.9606ZM48.3959 73.0116C47.4362 72.0385 47.0111 70.8486 47.0316 69.9543L47.0316 69.9538C47.0583 68.7415 47.5538 67.9137 47.992 67.6398C48.1857 67.5187 48.3421 67.514 48.4841 67.5754C48.652 67.648 48.9102 67.8626 49.163 68.4059L49.1631 68.4061C49.7749 69.7198 49.6203 70.9337 49.0137 72.0687C48.8417 72.3905 48.6334 72.7052 48.3959 73.0116Z" fill="#FFC39C"/>
</g>
<defs>
<clipPath id="clip0_30211_151756">
<rect width="250.802" height="140" fill="white" transform="translate(0.0986328)"/>
</clipPath>
</defs>
</svg>
