<svg width="273" height="126" viewBox="0 0 273 126" fill="none" xmlns="http://www.w3.org/2000/svg">
<rect x="59.5215" y="73.0908" width="3.09091" height="6.18182" fill="#00A3FF"/>
<rect x="0.794922" y="57.4844" width="3.09091" height="7.72727" transform="rotate(-44.4914 0.794922 57.4844)" fill="#FFB400"/>
<rect x="268.931" y="55.3184" width="3.09091" height="6.95455" fill="#5CB85C"/>
<rect x="3.24902" y="10.5" width="3.11794" height="7.79486" transform="rotate(1 3.24902 10.5)" fill="#FFB400"/>
<rect x="236.385" y="123.914" width="3.35106" height="8.37765" transform="rotate(144 236.385 123.914)" fill="#FF6400"/>
<rect x="226.428" y="32.0752" width="2.36031" height="5.90078" transform="rotate(155 226.428 32.0752)" fill="#FF6400"/>
<rect x="198.609" y="90.8027" width="2.36031" height="5.90078" transform="rotate(155 198.609 90.8027)" fill="#FFB400"/>
<rect x="73.4316" y="117.465" width="2.76827" height="6.92067" transform="rotate(-73 73.4316 117.465)" fill="#FFB400"/>
<rect x="189.317" y="6.0498" width="2.30203" height="5.75508" transform="rotate(-109 189.317 6.0498)" fill="#00A3FF"/>
<rect x="219.595" y="65.6992" width="2.88483" height="7.21206" transform="rotate(-108 219.595 65.6992)" fill="#FFB400"/>
<rect x="9.4541" y="97.2139" width="3.3802" height="8.4505" transform="rotate(-106 9.4541 97.2139)" fill="#00A3FF"/>
<rect x="85.25" y="5.41602" width="2.15633" height="5.39084" transform="rotate(157 85.25 5.41602)" fill="#5CB85C"/>
<rect x="260.795" y="92.4092" width="1.95236" height="4.88089" transform="rotate(60 260.795 92.4092)" fill="#00A3FF"/>
<rect x="42.8857" y="30.5908" width="1.95236" height="4.88089" transform="rotate(60 42.8857 30.5908)" fill="#F44831"/>
</svg>
