<svg width="24" height="24" viewBox="0 0 24 24" fill="none" xmlns="http://www.w3.org/2000/svg">
<path d="M8.63662 5.93934L2.21484 20.4014C2.21484 20.6712 2.21466 21.1028 2.70034 21.5345C3.18602 21.9662 3.61785 22.1281 3.83371 22.0202L18.3501 15.5987C19.2675 14.6814 17.8103 11.7673 15.1121 9.12313C12.4139 6.47894 9.55402 5.07593 8.63662 5.93934Z" fill="#DD2F44"/>
<path d="M9.44589 8.52942L2.21484 20.3473V20.6711C2.21484 20.9409 2.21466 21.3727 2.70034 21.8044L3.13215 22.1282L11.9284 11.3356L9.44589 8.52942Z" fill="#E95A6F"/>
<path d="M15.2208 9.17712C17.865 11.8213 19.376 14.5734 18.5125 15.5447C17.6491 16.516 14.789 14.8971 12.1448 12.2529C9.50051 9.6087 7.93557 6.85658 8.799 5.83128C9.66243 4.80598 12.5226 6.47897 15.2208 9.17712Z" fill="#9F081F"/>
<path d="M12.6294 9.50081H12.2517C11.7971 9.4739 11.3627 9.30392 11.0106 9.01516C10.8684 8.87453 10.7565 8.70614 10.6822 8.52046C10.6079 8.33478 10.5728 8.13573 10.5788 7.93584C10.6227 7.72723 10.7087 7.5298 10.8317 7.35567C10.9547 7.18154 11.1123 7.03438 11.2942 6.92321C11.4761 6.81205 11.6786 6.73914 11.8897 6.70913C12.1007 6.67911 12.3157 6.69261 12.5214 6.74865C13.0071 6.74865 13.169 6.74865 13.223 6.74865C13.2769 6.74865 13.223 6.47885 12.5754 6.42489C12.137 6.39798 11.7196 6.22729 11.388 5.93924C11.237 5.80542 11.1195 5.63818 11.0445 5.45079C10.9696 5.26341 10.9395 5.06101 10.9566 4.85992C10.9566 4.1584 11.712 3.5648 12.8992 3.67272C12.9828 3.71536 13.0752 3.73761 13.169 3.73761C13.2628 3.73761 13.3552 3.71536 13.4387 3.67272C13.4387 3.67272 13.4388 3.40292 12.8452 3.34896C12.7671 3.34219 12.6913 3.32002 12.6219 3.28375C12.5524 3.24747 12.4906 3.19788 12.4404 3.13767C12.3902 3.07747 12.3525 3.00784 12.3294 2.93297C12.3062 2.85811 12.2983 2.77944 12.3057 2.70143C12.3321 2.55357 12.4134 2.42119 12.5336 2.33106C12.6538 2.24094 12.8039 2.19978 12.9532 2.21579C14.1404 2.21579 14.68 3.07924 14.5721 3.78076C14.4642 4.48227 13.8167 5.07587 12.6294 4.96795C12.5459 4.92531 12.4535 4.90306 12.3597 4.90306C12.2659 4.90306 12.1732 4.92531 12.0896 4.96795C12.0896 4.96795 12.0899 4.96793 12.6835 5.29171C13.2771 5.61549 14.4103 6.155 14.3563 6.85652C14.3024 7.55803 13.6006 8.15163 12.4134 8.04371C12.2175 8.00446 12.0158 8.00446 11.8199 8.04371C11.8199 8.04371 11.8198 8.31351 12.4134 8.36747C12.4873 8.36562 12.5609 8.38076 12.6281 8.41161C12.6954 8.44245 12.7549 8.48823 12.8017 8.54549C12.8486 8.60276 12.8816 8.66993 12.8985 8.74196C12.9155 8.81399 12.9157 8.88901 12.8992 8.96115C12.9217 9.06834 12.9073 9.18004 12.8584 9.278C12.8094 9.37596 12.7287 9.45446 12.6294 9.50081Z" fill="#A78DC0"/>
<path d="M19.5917 14.7892C19.7858 14.7016 19.9957 14.6545 20.2086 14.6508C20.4216 14.647 20.6331 14.6868 20.8302 14.7677C21.0272 14.8485 21.2056 14.9686 21.3545 15.1208C21.5035 15.2729 21.6198 15.454 21.6964 15.6527C21.6964 16.3002 21.6964 17.1098 20.3473 17.4335C18.9982 17.7573 19.7538 17.8112 19.7538 17.8652C19.7538 17.9191 20.0236 17.8652 20.4553 17.8652C20.8871 17.8652 22.3978 17.8652 22.5597 18.7286C22.7216 19.592 22.5597 20.1855 21.2106 20.5093C19.8615 20.8331 20.6171 20.8871 20.6711 20.9411C20.725 20.9951 20.6711 20.9411 21.3186 20.9411C21.4689 20.9032 21.6279 20.9205 21.7666 20.9898C21.9052 21.0592 22.0143 21.1759 22.0742 21.3189C22.107 21.4689 22.0803 21.6258 21.9998 21.7566C21.9193 21.8874 21.7912 21.9819 21.6424 22.0203C21.4517 22.1094 21.2451 22.1593 21.0347 22.1667C20.8243 22.174 20.6143 22.1388 20.4178 22.0632C20.2213 21.9877 20.0424 21.8733 19.8911 21.7268C19.7399 21.5803 19.6195 21.4048 19.5377 21.2108C19.5377 20.5093 19.5377 19.6999 20.8868 19.3761C22.2359 19.0524 21.4807 19.0524 21.4807 18.9445C21.4807 18.8366 21.2108 18.9445 20.7791 18.9445C20.3474 18.9445 18.8363 18.9444 18.6744 18.1349C18.5125 17.3255 18.6744 16.624 20.0235 16.3002C21.3726 15.9764 20.617 15.9765 20.5631 15.8686C20.5091 15.7606 20.5631 15.8686 19.9155 15.8686C19.8457 15.9039 19.7684 15.9218 19.6902 15.9208C19.612 15.9198 19.5351 15.8997 19.4662 15.8626C19.3974 15.8256 19.3385 15.7724 19.2946 15.7077C19.2507 15.6429 19.2229 15.5685 19.2139 15.4908C19.1892 15.42 19.1794 15.3448 19.1853 15.2701C19.1912 15.1954 19.2127 15.1229 19.2482 15.0569C19.2837 14.9909 19.3327 14.933 19.3918 14.8869C19.4509 14.8409 19.519 14.8075 19.5917 14.7892Z" fill="#77B356"/>
<path d="M15.1651 13.4941C15.098 13.5274 15.0242 13.5447 14.9493 13.5447C14.8744 13.5447 14.8007 13.5274 14.7336 13.4941C14.6762 13.4435 14.63 13.3813 14.5985 13.3115C14.567 13.2417 14.5508 13.1659 14.5508 13.0894C14.5508 13.0128 14.567 12.9371 14.5985 12.8674C14.63 12.7976 14.6762 12.7354 14.7336 12.6847C16.8495 11.1446 19.4809 10.4868 22.0727 10.85C22.2151 10.8867 22.3408 10.9708 22.429 11.0885C22.5173 11.2062 22.5628 11.3505 22.5582 11.4975C22.5317 11.6454 22.4504 11.7778 22.3302 11.8679C22.2101 11.958 22.06 11.9992 21.9106 11.9832C19.6253 11.6905 17.3135 12.2684 15.4348 13.602L15.1651 13.4941Z" fill="#A78DC0"/>
<path d="M5.29191 10.8499C5.21721 10.8255 5.14787 10.7864 5.08836 10.7351C5.02884 10.6838 4.98022 10.6213 4.94508 10.551C4.90994 10.4807 4.88914 10.4043 4.88382 10.3259C4.87849 10.2475 4.88881 10.1687 4.91412 10.0943C5.56169 7.93582 6.15511 4.69809 5.39961 3.56487C4.64411 2.43165 5.3998 3.56487 4.91412 3.56487C4.42844 3.56487 4.42829 4.75206 4.42829 4.75206C4.43586 4.82733 4.42763 4.90338 4.40392 4.97521C4.38021 5.04704 4.3415 5.11307 4.29062 5.16904C4.23973 5.22501 4.17773 5.2697 4.10847 5.30013C4.03922 5.33055 3.96443 5.34596 3.88878 5.34558C3.81785 5.35303 3.74599 5.34641 3.67765 5.32598C3.60932 5.30555 3.54577 5.27184 3.49057 5.22668C3.43537 5.18151 3.38974 5.12575 3.35619 5.06282C3.32263 4.99989 3.30166 4.93093 3.29492 4.85993C3.29492 4.05049 3.29513 2.53962 4.8601 2.4317C5.13302 2.40358 5.40869 2.44297 5.66278 2.54648C5.91687 2.65 6.14168 2.81438 6.31725 3.02521C7.66636 4.69806 6.31693 9.60865 5.99314 10.58C5.9253 10.699 5.81864 10.791 5.69078 10.8402C5.56291 10.8894 5.42202 10.8928 5.29191 10.8499Z" fill="#77B356"/>
<path d="M16.625 6.26309C16.7958 6.26309 16.9626 6.31363 17.1046 6.40851C17.2466 6.50338 17.3574 6.63824 17.4227 6.796C17.4881 6.95377 17.5051 7.1275 17.4718 7.29499C17.4385 7.46247 17.3564 7.61624 17.2357 7.73699C17.1149 7.85774 16.9608 7.94 16.7933 7.97331C16.6258 8.00663 16.4524 7.98959 16.2946 7.92424C16.1369 7.85889 16.0018 7.74822 15.907 7.60624C15.8121 7.46425 15.7617 7.29728 15.7617 7.12652C15.7617 7.01313 15.7839 6.90076 15.8273 6.796C15.8707 6.69125 15.9342 6.59605 16.0143 6.51588C16.0945 6.4357 16.1899 6.37219 16.2946 6.3288C16.3994 6.28541 16.5116 6.26309 16.625 6.26309Z" fill="#5C913B"/>
<path d="M3.13325 13.1164C3.75913 13.1164 4.26651 12.609 4.26651 11.9832C4.26651 11.3573 3.75913 10.8499 3.13325 10.8499C2.50737 10.8499 2 11.3573 2 11.9832C2 12.609 2.50737 13.1164 3.13325 13.1164Z" fill="#8668AB"/>
<path d="M20.6172 11.9831C20.8462 11.9831 21.0659 12.0742 21.2278 12.2361C21.3898 12.398 21.4808 12.6176 21.4808 12.8466C21.4808 13.0755 21.3898 13.2951 21.2278 13.457C21.0659 13.6189 20.8462 13.71 20.6172 13.71C20.3882 13.71 20.1685 13.6189 20.0065 13.457C19.8446 13.2951 19.7539 13.0755 19.7539 12.8466C19.7539 12.6176 19.8446 12.398 20.0065 12.2361C20.1685 12.0742 20.3882 11.9831 20.6172 11.9831Z" fill="#5C913B"/>
<path d="M15.4904 20.6172C15.9672 20.6172 16.3538 20.2307 16.3538 19.7538C16.3538 19.277 15.9672 18.8904 15.4904 18.8904C15.0135 18.8904 14.627 19.277 14.627 19.7538C14.627 20.2307 15.0135 20.6172 15.4904 20.6172Z" fill="#5C913B"/>
<path d="M18.0797 2.70149C18.3446 2.75897 18.5817 2.90541 18.7519 3.11649C18.9221 3.32756 19.0151 3.59053 19.0151 3.86167C19.0151 4.13282 18.9221 4.39578 18.7519 4.60686C18.5817 4.81793 18.3446 4.96438 18.0797 5.02186C17.9064 5.05943 17.7268 5.05776 17.5543 5.01691C17.3818 4.97607 17.2206 4.89714 17.0826 4.78587C16.9446 4.67459 16.8334 4.53375 16.7569 4.37383C16.6804 4.21391 16.6406 4.03894 16.6406 3.86167C16.6406 3.6844 16.6804 3.50943 16.7569 3.34951C16.8334 3.18959 16.9446 3.04875 17.0826 2.93748C17.2206 2.82621 17.3818 2.74727 17.5543 2.70643C17.7268 2.66559 17.9064 2.66391 18.0797 2.70149Z" fill="#FCCB4F"/>
<path d="M20.6701 7.39631C21.1469 7.39631 21.5335 7.00975 21.5335 6.5329C21.5335 6.05605 21.1469 5.66949 20.6701 5.66949C20.1932 5.66949 19.8066 6.05605 19.8066 6.5329C19.8066 7.00975 20.1932 7.39631 20.6701 7.39631Z" fill="#FCCB4F"/>
<path d="M18.9435 9.71668C19.4204 9.71668 19.8069 9.33012 19.8069 8.85327C19.8069 8.37643 19.4204 7.98987 18.9435 7.98987C18.4666 7.98987 18.0801 8.37643 18.0801 8.85327C18.0801 9.33012 18.4666 9.71668 18.9435 9.71668Z" fill="#FCCB4F"/>
<path d="M6.26205 14.3035C6.49105 14.3035 6.71046 14.3945 6.87238 14.5564C7.0343 14.7184 7.12534 14.9379 7.12534 15.1669C7.12534 15.3959 7.0343 15.6155 6.87238 15.7774C6.71046 15.9393 6.49105 16.0304 6.26205 16.0304C6.03306 16.0304 5.81332 15.9393 5.6514 15.7774C5.48947 15.6155 5.39844 15.3959 5.39844 15.1669C5.39844 14.9379 5.48947 14.7184 5.6514 14.5564C5.81332 14.3945 6.03306 14.3035 6.26205 14.3035Z" fill="#FCCB4F"/>
</svg>
