<svg width="255" height="134" viewBox="0 0 255 134" fill="none" xmlns="http://www.w3.org/2000/svg">
<rect width="255" height="134" rx="4" fill="#F5F5F5"/>
<mask id="mask0_9940_4328" style="mask-type:alpha" maskUnits="userSpaceOnUse" x="7" y="0" width="223" height="122">
<rect x="7" width="223" height="122" fill="#D9D9D9"/>
</mask>
<g mask="url(#mask0_9940_4328)">
<g filter="url(#filter0_f_9940_4328)">
<path d="M203.972 107.18L136.25 118.004L137.412 107.18L203.972 107.18Z" fill="url(#paint0_linear_9940_4328)"/>
</g>
<mask id="mask1_9940_4328" style="mask-type:alpha" maskUnits="userSpaceOnUse" x="-23" y="-119" width="183" height="227">
<path fill-rule="evenodd" clip-rule="evenodd" d="M-3.50975 -2.97276L-22.5562 -25.583L87.6803 -118.512L137.137 -59.8015C136.757 -53.5946 136.982 -47.5978 139.258 -42.2415C140.364 -39.64 141.929 -37.2791 143.489 -34.926C145.848 -31.3679 148.195 -27.8276 148.927 -23.4998C149.786 -18.4068 148.286 -12.9891 146.782 -7.5582C145.376 -2.48322 143.968 2.60328 144.479 7.44707C145.054 12.9085 148.02 17.4566 150.895 21.8472C151.793 23.2221 152.695 24.6176 153.525 26.0543H155.503C157.712 26.0543 159.503 27.8452 159.503 30.0543V103.467C159.503 105.676 157.712 107.467 155.503 107.467H107.698C105.489 107.467 103.698 105.676 103.698 103.467V79.4141C101.952 78.662 100.441 77.646 99.4202 76.0626C97.6369 73.3007 97.8174 69.4521 97.9932 65.7026C98.2125 61.0267 98.4245 56.5049 94.8116 54.4374C92.5033 53.116 89.5342 53.493 86.5377 53.8735C83.91 54.2071 81.2611 54.5435 79.0184 53.7394C74.999 52.3006 73.8771 48.0962 72.7341 43.8129C72.1517 41.6302 71.5638 39.427 70.5842 37.5587C67.0864 30.8785 59.0504 29.1118 50.9368 27.3281C43.4176 25.6751 35.8318 24.0074 31.7301 18.4005C30.74 17.0429 30.0092 15.5096 29.2775 13.9745C28.7573 12.8829 28.2366 11.7905 27.622 10.7598C22.2682 1.75811 10.6407 -1.45241 -0.526566 -2.67569C-1.51227 -2.78404 -2.51041 -2.8819 -3.50975 -2.97276Z" fill="#2C2A26"/>
</mask>
<g mask="url(#mask1_9940_4328)">
<g filter="url(#filter1_f_9940_4328)">
<path d="M-131.325 109.379C-131.136 92.7854 -130.767 76.1529 -130.669 59.579C-130.494 43.7882 -120.443 39.0099 -88.0857 32.393C-13.6377 17.2487 60.926 0.559922 135.482 -15.6874C148.374 -18.483 158.753 -16.0958 158.657 -10.3575C157.972 30.4526 157.287 71.3029 156.782 112.074L-131.325 109.379Z" fill="#FFB9F8"/>
</g>
<g filter="url(#filter2_f_9940_4328)">
<path d="M-143.501 -36.7064C-143.509 -36.7097 -143.514 -36.6989 -143.507 -36.693C-111.047 -9.68996 -67.4301 19.0794 -17.4249 46.0276C-15.9627 46.8146 -14.4961 47.5996 -13.0253 48.3826C0.732691 55.707 8.92674 72.6091 5.60132 87.5489C1.48414 106.046 -17.9654 112.665 -33.9812 101.12L-135.104 28.2259C-146.464 20.0368 -152.423 5.07673 -149.608 -8.08681C-147.569 -17.6212 -145.541 -27.1596 -143.496 -36.696C-143.495 -36.7002 -143.497 -36.7048 -143.501 -36.7064Z" fill="#FFE665"/>
</g>
<g filter="url(#filter3_f_9940_4328)">
<path d="M-52.3697 69.4857C-70.1542 47.9183 -87.9552 26.3667 -105.765 4.78651C-86.2851 18.0915 -66.1985 33.883 -46.7838 50.1303C-29.3545 64.7247 -11.611 80.1643 5.34015 90.229C19.6621 98.7373 32.3852 102.861 44.4276 105.159C65.6711 119.294 85.5474 128.27 103.856 131.576C117.543 134.043 114.052 125.937 122.995 121.551C105.838 109.645 126.06 107.077 143.333 118.387C150.408 123.019 147.115 122.97 153.868 126.284C158.587 128.582 163.675 136.267 167.811 137.163C186.675 141.195 220.39 176.65 237.796 177.862C234.383 197.399 182.542 159.946 169.923 168.98C129.605 142.371 122.832 151.529 88.8079 143.516C86.0077 142.861 83.2421 142.284 80.4854 141.735L-36.4613 87.7449C-41.9213 81.7959 -47.2325 75.7053 -52.3697 69.4857Z" fill="#71BBFF"/>
</g>
<g filter="url(#filter4_f_9940_4328)">
<path d="M155.462 73.1573C154.784 71.965 153.86 71.6193 152.76 70.3029C150.141 69.6773 151.951 67.7114 154.091 67.4406C157.106 67.0592 157.163 68.5684 158.795 69.6248C161.658 71.4771 163.274 72.9345 166.863 74.4151C169.5 75.503 176.723 75.6415 179.827 75.4986C184.451 75.2856 186.223 80.2537 188.143 82.3271C190.91 85.3148 191.739 88.346 196.226 90.5489C200.672 92.7318 206.11 93.6084 211.157 94.8942C216.74 96.3167 220.872 97.4301 224.316 101.148C227.238 104.304 223.367 107.007 221.436 109.295C219.533 111.548 213.061 111.741 209.628 112.04C205.188 112.426 202.296 111.433 198.224 110.286C193.691 109.009 191.132 104.961 186.765 103.731C183.296 102.754 176.286 102.309 174.484 99.6131C170.93 94.2941 169.941 89.3315 161.842 85.9903C158.753 84.7162 157.994 80.0774 157.467 77.7888C157.054 75.9926 156.386 74.7843 155.462 73.1573Z" fill="#71BBFF"/>
</g>
<g filter="url(#filter5_f_9940_4328)">
<path d="M-77.0071 63.7394C-50.1979 70.9126 -8.31194 86.7581 6.60932 107.965C-9.99225 124.321 -19.4062 85.6912 -36.0077 102.047L-76.1648 87.1621C-84.6801 75.8099 -91.4512 77.9692 -77.0071 63.7394Z" fill="#0A9F68"/>
</g>
<g filter="url(#filter6_f_9940_4328)">
<path d="M-56.9842 -14.004C-58.1694 -15.4338 -58.0908 -16.6532 -59.3173 -18.149C-60.5437 -19.6449 -64.0243 -23.6391 -63.7211 -24.2411C-63.2829 -25.1111 -64.3351 -27.1997 -61.3365 -26.8198C-58.4384 -26.4527 -54.1753 -24.424 -51.0185 -23.0867C-39.4315 -18.1783 -28.1 -12.1464 -16.8267 -6.77689C-11.1257 -4.06153 -5.14543 -1.97333 0.696146 0.657147C3.54279 1.939 4.90184 3.12601 8.07277 4.20715C11.1179 5.24538 14.002 6.64883 16.9383 7.97105C24.0438 11.1707 30.6257 12.9996 37.9023 15.3567C45.9353 17.9589 56.6166 23.2648 64.1021 27.0277C88.0231 39.0527 103.448 53.148 122.542 66.5834C129.948 71.7952 135.981 77.1707 143.998 82.2822C152.443 87.6663 161.896 91.9652 171.623 96.3449C188.209 103.814 206.568 111.81 221.815 120.519C228.88 124.555 235.039 128.588 239.173 133.155C243.628 138.077 239.14 142.96 233.009 143.518C229.605 143.828 221.308 141.629 216.745 140.405C211.904 139.106 207.041 137.538 202.171 135.922C183.987 129.888 165.739 120.807 150.136 111.552C130.548 99.9336 110.754 93.8374 89.4026 84.8628C79.1594 80.5573 69.3136 75.732 59.5391 70.984C53.0603 67.8369 48.1349 62.8669 43.1909 59.2597C29.2986 49.1237 21.2641 38.8976 4.97079 29.2654C-2.59367 24.7935 -10.5818 20.2993 -19.0048 16.44C-23.5861 14.3408 -30.4723 11.2714 -34.0755 8.51214C-40.7735 3.38296 -49.3884 -2.61766 -52.3733 -7.71721C-53.4618 -9.57678 -55.4014 -12.0945 -56.9842 -14.004Z" fill="#FFE665"/>
</g>
<g filter="url(#filter7_f_9940_4328)">
<path d="M144.37 86.5177C144.564 87 144.414 87.4845 144.613 87.99C144.812 88.4955 145.403 89.8315 145.252 90.0885C145.034 90.4598 145.121 91.21 144.292 91.2621C143.491 91.3125 142.468 90.8015 141.693 90.488C138.85 89.3372 136.198 87.7277 133.493 86.3746C132.126 85.6904 130.611 85.2714 129.194 84.63C128.503 84.3174 128.234 83.9422 127.428 83.7302C126.655 83.5267 125.966 83.1689 125.253 82.8465C123.53 82.0662 121.814 81.7896 119.953 81.3519C117.898 80.8688 115.358 79.501 113.583 78.5249C107.91 75.4057 104.915 70.9021 100.788 66.9043C99.1867 65.3535 98.0006 63.6461 96.2124 62.1757C94.3289 60.6269 92.0396 59.5724 89.6799 58.5044C85.6557 56.6831 81.1733 54.7736 77.6667 52.3749C76.0417 51.2634 74.6789 50.092 73.9587 48.5749C73.1825 46.9397 74.9927 44.7191 76.8267 44.088C77.8451 43.7376 80.0186 44.0446 81.2127 44.2192C82.479 44.4044 83.724 44.6941 84.9659 45.0021C89.6026 46.1522 93.9396 48.4955 97.4923 51.0847C101.952 54.3351 107.049 55.4014 112.296 57.4944C114.813 58.4985 117.161 59.7336 119.497 60.9431C121.044 61.7448 121.952 63.3672 123.007 64.4528C125.972 67.5033 127.231 70.9826 130.945 73.6737C132.669 74.9232 134.513 76.1529 136.55 77.1039C137.657 77.6211 139.331 78.3649 140.087 79.2073C141.491 80.7733 143.36 82.5529 143.691 84.3566C143.812 85.0143 144.111 85.8736 144.37 86.5177Z" fill="#0A9F68"/>
</g>
<g filter="url(#filter8_f_9940_4328)">
<path d="M172.274 73.1441C172.467 73.6265 172.317 74.111 172.516 74.6165C172.715 75.122 173.306 76.458 173.155 76.7149C172.938 77.0863 173.024 77.8365 172.195 77.8886C171.394 77.9389 170.371 77.428 169.597 77.1145C166.753 75.9637 164.101 74.3542 161.397 73.0011C160.029 72.3169 158.515 71.8979 157.097 71.2564C156.407 70.9438 156.137 70.5686 155.332 70.3567C154.558 70.1532 153.869 69.7954 153.157 69.4729C151.433 68.6927 149.717 68.416 147.856 67.9784C145.801 67.4953 143.261 66.1274 141.486 65.1513C135.813 62.0321 132.818 57.5286 128.691 53.5308C127.09 51.98 125.904 50.2726 124.116 48.8022C122.232 47.2534 119.943 46.1989 117.583 45.1309C113.559 43.3096 109.077 41.4001 105.57 39.0014C103.945 37.8899 102.582 36.7185 101.862 35.2014C101.086 33.5661 102.896 31.3456 104.73 30.7145C105.748 30.3641 107.922 30.671 109.116 30.8457C110.382 31.0309 111.627 31.3206 112.869 31.6286C117.506 32.7787 121.843 35.1219 125.396 37.7111C129.856 40.9616 134.953 42.0279 140.2 44.1209C142.717 45.125 145.065 46.3601 147.4 47.5696C148.948 48.3712 149.855 49.9937 150.911 51.0793C153.876 54.1297 155.135 57.609 158.848 60.3002C160.572 61.5496 162.416 62.7793 164.453 63.7303C165.561 64.2476 167.235 64.9914 167.99 65.8338C169.394 67.3997 171.263 69.1794 171.595 70.9831C171.716 71.6408 172.015 72.5 172.274 73.1441Z" fill="#FFE665"/>
</g>
<g filter="url(#filter9_f_9940_4328)">
<path d="M167.004 99.9903C166.326 98.798 165.402 98.4524 164.302 97.1359C161.683 96.5103 163.493 94.5444 165.633 94.2736C168.648 93.8922 168.705 95.4014 170.337 96.4578C173.2 98.3101 174.816 99.7675 178.405 101.248C181.042 102.336 188.265 102.475 191.369 102.332C195.993 102.119 197.764 107.087 199.685 109.16C202.452 112.148 203.281 115.179 207.768 117.382C212.214 119.565 217.652 120.441 222.699 121.727C228.282 123.15 232.414 124.263 235.858 127.981C238.78 131.137 234.909 133.84 232.978 136.128C231.075 138.381 224.603 138.574 221.17 138.873C216.73 139.259 213.838 138.266 209.766 137.119C205.233 135.842 202.674 131.794 198.307 130.564C194.838 129.587 187.828 129.142 186.026 126.446C182.472 121.127 181.483 116.164 173.384 112.823C170.295 111.549 169.536 106.91 169.009 104.622C168.596 102.826 167.928 101.617 167.004 99.9903Z" fill="#0A9F68"/>
</g>
<g filter="url(#filter10_f_9940_4328)">
<path d="M167.298 41.489C168.977 43.7932 170.976 44.2808 173.561 46.7378C179.139 47.3867 175.834 51.9103 171.454 53.0016C165.285 54.5385 164.821 51.4237 161.19 49.6378C154.823 46.5063 151.135 43.8848 143.346 41.7037C137.623 40.101 122.6 41.6019 116.19 42.6667C106.642 44.2529 101.826 34.3915 97.3649 30.5684C90.9365 25.0592 88.5199 18.9801 78.702 15.5237C68.9736 12.0988 57.4852 11.6278 46.7159 10.2113C34.8019 8.64426 25.9704 7.3589 17.9699 0.502569C11.1799 -5.3165 18.5947 -11.878 22.0788 -17.1C25.5101 -22.2428 38.9001 -24.2437 45.9552 -25.7129C55.0831 -27.6139 61.3128 -26.2709 70.0278 -24.9011C79.7289 -23.3764 85.9688 -15.6173 95.3146 -14.1484C102.738 -12.9816 117.39 -13.7931 121.748 -8.65035C130.345 1.49716 133.536 11.5408 151.113 16.4628C157.815 18.3397 160.456 27.7688 162.074 32.3832C163.343 36.0049 165.007 38.3446 167.298 41.489Z" fill="#71BBFF"/>
</g>
</g>
<path opacity="0.5" d="M159.503 30.0527C159.503 27.8436 157.712 26.0527 155.503 26.0527H107.698C105.489 26.0527 103.698 27.8436 103.698 30.0527V103.465C103.698 105.674 105.489 107.465 107.698 107.465H155.503C157.712 107.465 159.503 105.674 159.503 103.465V30.0527Z" fill="url(#paint1_linear_9940_4328)"/>
<path d="M159.503 26.0512L135.669 15.0024V118.512L159.503 107.463V26.0512Z" fill="url(#paint2_linear_9940_4328)"/>
<path d="M133.345 15.584L135.67 15.0024V118.512L133.345 117.931V15.584Z" fill="white"/>
<path d="M140.503 79.1553C140.743 78.912 140.901 78.4894 140.901 78.0089C140.901 77.2548 140.511 76.6436 140.029 76.6436C139.548 76.6436 139.157 77.2548 139.157 78.0089C139.157 78.4957 139.32 78.9229 139.565 79.1647L139.157 81.8772L140.901 81.6496L140.503 79.1553Z" fill="#7D7D7D"/>
<ellipse cx="8.02005" cy="4.90223" rx="8.02005" ry="4.90223" transform="matrix(0.897739 0.440528 -0.440269 0.897866 55.1152 33.0283)" fill="#FFE665"/>
<ellipse cx="10.2152" cy="4.47293" rx="10.2152" ry="4.47293" transform="matrix(0.683048 0.730373 -0.730126 0.683313 71.8623 10.9316)" fill="#F5F5F5"/>
<ellipse cx="3.4178" cy="2.99565" rx="3.4178" ry="2.99565" transform="matrix(0.897739 0.440528 -0.440269 0.897866 90.6396 55.1265)" fill="#0A9F68"/>
<ellipse cx="3.11521" cy="2.07426" rx="3.11521" ry="2.07426" transform="matrix(-0.897739 -0.440528 -0.440269 0.897866 47.1738 34.6108)" fill="#FFB9F8"/>
</g>
<defs>
<filter id="filter0_f_9940_4328" x="132.25" y="103.18" width="75.7217" height="18.8242" filterUnits="userSpaceOnUse" color-interpolation-filters="sRGB">
<feFlood flood-opacity="0" result="BackgroundImageFix"/>
<feBlend mode="normal" in="SourceGraphic" in2="BackgroundImageFix" result="shape"/>
<feGaussianBlur stdDeviation="2" result="effect1_foregroundBlur_9940_4328"/>
</filter>
<filter id="filter1_f_9940_4328" x="-139.325" y="-24.8569" width="305.983" height="144.931" filterUnits="userSpaceOnUse" color-interpolation-filters="sRGB">
<feFlood flood-opacity="0" result="BackgroundImageFix"/>
<feBlend mode="normal" in="SourceGraphic" in2="BackgroundImageFix" result="shape"/>
<feGaussianBlur stdDeviation="4" result="effect1_foregroundBlur_9940_4328"/>
</filter>
<filter id="filter2_f_9940_4328" x="-158.3" y="-44.707" width="172.64" height="159.551" filterUnits="userSpaceOnUse" color-interpolation-filters="sRGB">
<feFlood flood-opacity="0" result="BackgroundImageFix"/>
<feBlend mode="normal" in="SourceGraphic" in2="BackgroundImageFix" result="shape"/>
<feGaussianBlur stdDeviation="4" result="effect1_foregroundBlur_9940_4328"/>
</filter>
<filter id="filter3_f_9940_4328" x="-113.765" y="-3.21338" width="359.561" height="194.803" filterUnits="userSpaceOnUse" color-interpolation-filters="sRGB">
<feFlood flood-opacity="0" result="BackgroundImageFix"/>
<feBlend mode="normal" in="SourceGraphic" in2="BackgroundImageFix" result="shape"/>
<feGaussianBlur stdDeviation="4" result="effect1_foregroundBlur_9940_4328"/>
</filter>
<filter id="filter4_f_9940_4328" x="143.462" y="59.3804" width="89.9092" height="60.7441" filterUnits="userSpaceOnUse" color-interpolation-filters="sRGB">
<feFlood flood-opacity="0" result="BackgroundImageFix"/>
<feBlend mode="normal" in="SourceGraphic" in2="BackgroundImageFix" result="shape"/>
<feGaussianBlur stdDeviation="4" result="effect1_foregroundBlur_9940_4328"/>
</filter>
<filter id="filter5_f_9940_4328" x="-93.4219" y="55.7393" width="108.031" height="64.355" filterUnits="userSpaceOnUse" color-interpolation-filters="sRGB">
<feFlood flood-opacity="0" result="BackgroundImageFix"/>
<feBlend mode="normal" in="SourceGraphic" in2="BackgroundImageFix" result="shape"/>
<feGaussianBlur stdDeviation="4" result="effect1_foregroundBlur_9940_4328"/>
</filter>
<filter id="filter6_f_9940_4328" x="-71.7393" y="-34.8657" width="320.711" height="186.414" filterUnits="userSpaceOnUse" color-interpolation-filters="sRGB">
<feFlood flood-opacity="0" result="BackgroundImageFix"/>
<feBlend mode="normal" in="SourceGraphic" in2="BackgroundImageFix" result="shape"/>
<feGaussianBlur stdDeviation="4" result="effect1_foregroundBlur_9940_4328"/>
</filter>
<filter id="filter7_f_9940_4328" x="65.7744" y="35.9277" width="87.502" height="63.3379" filterUnits="userSpaceOnUse" color-interpolation-filters="sRGB">
<feFlood flood-opacity="0" result="BackgroundImageFix"/>
<feBlend mode="normal" in="SourceGraphic" in2="BackgroundImageFix" result="shape"/>
<feGaussianBlur stdDeviation="4" result="effect1_foregroundBlur_9940_4328"/>
</filter>
<filter id="filter8_f_9940_4328" x="93.6777" y="22.5542" width="87.502" height="63.3379" filterUnits="userSpaceOnUse" color-interpolation-filters="sRGB">
<feFlood flood-opacity="0" result="BackgroundImageFix"/>
<feBlend mode="normal" in="SourceGraphic" in2="BackgroundImageFix" result="shape"/>
<feGaussianBlur stdDeviation="4" result="effect1_foregroundBlur_9940_4328"/>
</filter>
<filter id="filter9_f_9940_4328" x="155.004" y="86.2134" width="89.9092" height="60.7441" filterUnits="userSpaceOnUse" color-interpolation-filters="sRGB">
<feFlood flood-opacity="0" result="BackgroundImageFix"/>
<feBlend mode="normal" in="SourceGraphic" in2="BackgroundImageFix" result="shape"/>
<feGaussianBlur stdDeviation="4" result="effect1_foregroundBlur_9940_4328"/>
</filter>
<filter id="filter10_f_9940_4328" x="7.2041" y="-34.6548" width="177.297" height="96.0698" filterUnits="userSpaceOnUse" color-interpolation-filters="sRGB">
<feFlood flood-opacity="0" result="BackgroundImageFix"/>
<feBlend mode="normal" in="SourceGraphic" in2="BackgroundImageFix" result="shape"/>
<feGaussianBlur stdDeviation="4" result="effect1_foregroundBlur_9940_4328"/>
</filter>
<linearGradient id="paint0_linear_9940_4328" x1="156.886" y1="103.975" x2="194.158" y2="92.3556" gradientUnits="userSpaceOnUse">
<stop stop-color="#32302F" stop-opacity="0.23"/>
<stop offset="1" stop-color="#BCBCBC" stop-opacity="0"/>
</linearGradient>
<linearGradient id="paint1_linear_9940_4328" x1="91.4903" y1="5.69967" x2="115.338" y2="55.9941" gradientUnits="userSpaceOnUse">
<stop stop-color="white"/>
<stop offset="1" stop-color="white" stop-opacity="0"/>
</linearGradient>
<linearGradient id="paint2_linear_9940_4328" x1="147.586" y1="15.0024" x2="147.586" y2="118.512" gradientUnits="userSpaceOnUse">
<stop stop-color="#C9C9C9"/>
<stop offset="1" stop-color="#DFDFDF"/>
</linearGradient>
</defs>
</svg>
