<svg width="268" height="90" viewBox="0 0 268 90" fill="none" xmlns="http://www.w3.org/2000/svg">
<rect width="67" height="52" transform="translate(0 38)" fill="#444444"/>
<path fill-rule="evenodd" clip-rule="evenodd" d="M32.5649 49.1479C33.1014 48.6838 33.9002 48.6838 34.4366 49.1479L40.2116 54.1445C40.5214 54.4126 40.7008 54.8015 40.7008 55.2122V62.184C40.7008 62.9723 40.0564 63.5998 39.2758 63.5998H36.1008C35.3113 63.5998 34.7008 62.9792 34.7008 62.1998V58.9998C34.7008 58.931 34.676 58.8839 34.6464 58.8542C34.6173 58.8249 34.5708 58.7998 34.5008 58.7998H32.5008C32.4307 58.7998 32.3843 58.8249 32.3551 58.8542C32.3256 58.8839 32.3008 58.931 32.3008 58.9998V62.1998C32.3008 62.9792 31.6903 63.5998 30.9008 63.5998H27.7258C26.9452 63.5998 26.3008 62.9723 26.3008 62.184V55.2122C26.3008 54.8015 26.4801 54.4126 26.7899 54.1445L32.5649 49.1479ZM33.6515 50.0554C33.5658 49.9813 33.4358 49.9813 33.3501 50.0554L27.5751 55.052C27.5268 55.0938 27.5008 55.1524 27.5008 55.2122V62.184C27.5008 62.2969 27.5951 62.3998 27.7258 62.3998H30.9008C30.9708 62.3998 31.0173 62.3747 31.0464 62.3454C31.076 62.3158 31.1008 62.2686 31.1008 62.1998V58.9998C31.1008 58.2204 31.7113 57.5998 32.5008 57.5998H34.5008C35.2903 57.5998 35.9008 58.2204 35.9008 58.9998V62.1998C35.9008 62.2686 35.9256 62.3158 35.9551 62.3454C35.9843 62.3747 36.0307 62.3998 36.1008 62.3998H39.2758C39.4064 62.3998 39.5008 62.2969 39.5008 62.184V55.2122C39.5008 55.1524 39.4748 55.0938 39.4265 55.052L33.6515 50.0554Z" fill="#7D7D7D"/>
<path d="M25.6485 72.0666V78.2002H24.8477V75.4194H21.7237V78.2002H20.9229V72.0666H21.7237V74.7594H24.8477V72.0666H25.6485ZM29.2071 78.2794C28.7554 78.2794 28.3447 78.1767 27.9751 77.9714C27.6114 77.7661 27.3239 77.4757 27.1127 77.1002C26.9074 76.7189 26.8047 76.2789 26.8047 75.7802C26.8047 75.2874 26.9103 74.8533 27.1215 74.4778C27.3386 74.0965 27.6319 73.8061 28.0015 73.6066C28.3711 73.4013 28.7847 73.2986 29.2423 73.2986C29.6999 73.2986 30.1135 73.4013 30.4831 73.6066C30.8527 73.8061 31.1431 74.0935 31.3543 74.469C31.5714 74.8445 31.6799 75.2815 31.6799 75.7802C31.6799 76.2789 31.5684 76.7189 31.3455 77.1002C31.1284 77.4757 30.8322 77.7661 30.4567 77.9714C30.0812 78.1767 29.6647 78.2794 29.2071 78.2794ZM29.2071 77.5754C29.4946 77.5754 29.7644 77.5079 30.0167 77.373C30.269 77.2381 30.4714 77.0357 30.6239 76.7658C30.7823 76.4959 30.8615 76.1674 30.8615 75.7802C30.8615 75.393 30.7852 75.0645 30.6327 74.7946C30.4802 74.5247 30.2807 74.3253 30.0343 74.1962C29.7879 74.0613 29.521 73.9938 29.2335 73.9938C28.9402 73.9938 28.6703 74.0613 28.4239 74.1962C28.1834 74.3253 27.9898 74.5247 27.8431 74.7946C27.6964 75.0645 27.6231 75.393 27.6231 75.7802C27.6231 76.1733 27.6935 76.5047 27.8343 76.7746C27.981 77.0445 28.1746 77.2469 28.4151 77.3818C28.6556 77.5109 28.9196 77.5754 29.2071 77.5754ZM38.62 73.2898C38.9955 73.2898 39.3299 73.369 39.6232 73.5274C39.9166 73.6799 40.1483 73.9117 40.3184 74.2226C40.4886 74.5335 40.5736 74.9119 40.5736 75.3578V78.2002H39.7816V75.4722C39.7816 74.9911 39.6614 74.6245 39.4208 74.3722C39.1862 74.1141 38.8664 73.985 38.4616 73.985C38.0451 73.985 37.7136 74.1199 37.4672 74.3898C37.2208 74.6538 37.0976 75.0381 37.0976 75.5426V78.2002H36.3056V75.4722C36.3056 74.9911 36.1854 74.6245 35.9448 74.3722C35.7102 74.1141 35.3904 73.985 34.9856 73.985C34.5691 73.985 34.2376 74.1199 33.9912 74.3898C33.7448 74.6538 33.6216 75.0381 33.6216 75.5426V78.2002H32.8208V73.3778H33.6216V74.073C33.78 73.8207 33.9912 73.6271 34.2552 73.4922C34.5251 73.3573 34.8214 73.2898 35.144 73.2898C35.5488 73.2898 35.9067 73.3807 36.2176 73.5626C36.5286 73.7445 36.7603 74.0114 36.9128 74.3634C37.0478 74.0231 37.2707 73.7591 37.5816 73.5714C37.8926 73.3837 38.2387 73.2898 38.62 73.2898ZM46.3752 75.6042C46.3752 75.7567 46.3664 75.9181 46.3488 76.0882H42.4944C42.5238 76.5634 42.6851 76.9359 42.9784 77.2058C43.2776 77.4698 43.6384 77.6018 44.0608 77.6018C44.407 77.6018 44.6944 77.5226 44.9232 77.3642C45.1579 77.1999 45.3222 76.9829 45.416 76.713H46.2784C46.1494 77.1765 45.8912 77.5549 45.504 77.8482C45.1168 78.1357 44.6358 78.2794 44.0608 78.2794C43.6032 78.2794 43.1926 78.1767 42.8288 77.9714C42.471 77.7661 42.1894 77.4757 41.984 77.1002C41.7787 76.7189 41.676 76.2789 41.676 75.7802C41.676 75.2815 41.7758 74.8445 41.9752 74.469C42.1747 74.0935 42.4534 73.8061 42.8112 73.6066C43.175 73.4013 43.5915 73.2986 44.0608 73.2986C44.5184 73.2986 44.9232 73.3983 45.2752 73.5978C45.6272 73.7973 45.8971 74.073 46.0848 74.425C46.2784 74.7711 46.3752 75.1642 46.3752 75.6042ZM45.548 75.437C45.548 75.1319 45.4806 74.8709 45.3456 74.6538C45.2107 74.4309 45.0259 74.2637 44.7912 74.1522C44.5624 74.0349 44.3072 73.9762 44.0256 73.9762C43.6208 73.9762 43.2747 74.1053 42.9872 74.3634C42.7056 74.6215 42.5443 74.9794 42.5032 75.437H45.548Z" fill="#7D7D7D"/>
<rect width="67" height="52" transform="translate(67 38)" fill="#32302F"/>
<path fill-rule="evenodd" clip-rule="evenodd" d="M99.5913 48.5812C99.9487 47.8063 101.05 47.8063 101.407 48.5812L103.386 52.8714L108.078 53.4277C108.926 53.5282 109.266 54.5756 108.639 55.1549L105.171 58.3628L106.091 62.9968C106.258 63.8338 105.367 64.4811 104.622 64.0643L100.499 61.7566L96.3766 64.0643C95.632 64.4811 94.7411 63.8338 94.9074 62.9968L95.8281 58.3628L92.3594 55.1549C91.7329 54.5756 92.0732 53.5282 92.9206 53.4277L97.6124 52.8714L99.5913 48.5812ZM97.5655 52.9731C97.5655 52.973 97.5656 52.9729 97.5656 52.9728L97.5655 52.9731ZM105.149 58.253C105.149 58.253 105.149 58.2531 105.149 58.2532L105.149 58.253ZM100.499 49.4775L98.6552 53.4757C98.5095 53.7915 98.2102 54.0089 97.8649 54.0499L93.4925 54.5683L96.7251 57.5578C96.9804 57.7939 97.0947 58.1457 97.027 58.4868L96.1689 62.8054L100.011 60.6548C100.314 60.4849 100.684 60.4849 100.988 60.6548L104.83 62.8054L103.972 58.4868C103.904 58.1457 104.018 57.7939 104.274 57.5578L107.506 54.5683L103.134 54.0499C102.789 54.0089 102.489 53.7915 102.344 53.4757L100.499 49.4775ZM104.914 63.2307C104.914 63.2306 104.914 63.2305 104.914 63.2304L104.914 63.2307Z" fill="#FFFDFB"/>
<path d="M84.467 72.0666V72.7178H81.8006V74.7858H83.9654V75.437H81.8006V78.2002H80.9998V72.0666H84.467ZM85.223 75.7714C85.223 75.2786 85.3227 74.8474 85.5222 74.4778C85.7217 74.1023 85.9945 73.8119 86.3406 73.6066C86.6926 73.4013 87.0827 73.2986 87.511 73.2986C87.9334 73.2986 88.3001 73.3895 88.611 73.5714C88.9219 73.7533 89.1537 73.9821 89.3062 74.2578V73.3778H90.1158V78.2002H89.3062V77.3026C89.1478 77.5842 88.9102 77.8189 88.5934 78.0066C88.2825 78.1885 87.9187 78.2794 87.5022 78.2794C87.0739 78.2794 86.6867 78.1738 86.3406 77.9626C85.9945 77.7514 85.7217 77.4551 85.5222 77.0738C85.3227 76.6925 85.223 76.2583 85.223 75.7714ZM89.3062 75.7802C89.3062 75.4165 89.2329 75.0997 89.0862 74.8298C88.9395 74.5599 88.7401 74.3546 88.4878 74.2138C88.2414 74.0671 87.9686 73.9938 87.6694 73.9938C87.3702 73.9938 87.0974 74.0642 86.851 74.205C86.6046 74.3458 86.4081 74.5511 86.2614 74.821C86.1147 75.0909 86.0414 75.4077 86.0414 75.7714C86.0414 76.141 86.1147 76.4637 86.2614 76.7394C86.4081 77.0093 86.6046 77.2175 86.851 77.3642C87.0974 77.505 87.3702 77.5754 87.6694 77.5754C87.9686 77.5754 88.2414 77.505 88.4878 77.3642C88.7401 77.2175 88.9395 77.0093 89.0862 76.7394C89.2329 76.4637 89.3062 76.1439 89.3062 75.7802ZM93.3523 77.461L94.8483 73.3778H95.7019L93.8099 78.2002H92.8771L90.9851 73.3778H91.8475L93.3523 77.461ZM98.6811 78.2794C98.2293 78.2794 97.8187 78.1767 97.4491 77.9714C97.0853 77.7661 96.7979 77.4757 96.5867 77.1002C96.3813 76.7189 96.2787 76.2789 96.2787 75.7802C96.2787 75.2874 96.3843 74.8533 96.5955 74.4778C96.8125 74.0965 97.1059 73.8061 97.4755 73.6066C97.8451 73.4013 98.2587 73.2986 98.7163 73.2986C99.1739 73.2986 99.5875 73.4013 99.9571 73.6066C100.327 73.8061 100.617 74.0935 100.828 74.469C101.045 74.8445 101.154 75.2815 101.154 75.7802C101.154 76.2789 101.042 76.7189 100.819 77.1002C100.602 77.4757 100.306 77.7661 99.9307 77.9714C99.5552 78.1767 99.1387 78.2794 98.6811 78.2794ZM98.6811 77.5754C98.9685 77.5754 99.2384 77.5079 99.4907 77.373C99.7429 77.2381 99.9453 77.0357 100.098 76.7658C100.256 76.4959 100.335 76.1674 100.335 75.7802C100.335 75.393 100.259 75.0645 100.107 74.7946C99.9541 74.5247 99.7547 74.3253 99.5083 74.1962C99.2619 74.0613 98.9949 73.9938 98.7075 73.9938C98.4141 73.9938 98.1443 74.0613 97.8979 74.1962C97.6573 74.3253 97.4637 74.5247 97.3171 74.7946C97.1704 75.0645 97.0971 75.393 97.0971 75.7802C97.0971 76.1733 97.1675 76.5047 97.3083 76.7746C97.4549 77.0445 97.6485 77.2469 97.8891 77.3818C98.1296 77.5109 98.3936 77.5754 98.6811 77.5754ZM103.096 74.161C103.236 73.8853 103.436 73.6711 103.694 73.5186C103.958 73.3661 104.278 73.2898 104.653 73.2898V74.117H104.442C103.544 74.117 103.096 74.6039 103.096 75.5778V78.2002H102.295V73.3778H103.096V74.161ZM106.079 72.5946C105.927 72.5946 105.798 72.5418 105.692 72.4362C105.586 72.3306 105.534 72.2015 105.534 72.049C105.534 71.8965 105.586 71.7674 105.692 71.6618C105.798 71.5562 105.927 71.5034 106.079 71.5034C106.226 71.5034 106.349 71.5562 106.449 71.6618C106.554 71.7674 106.607 71.8965 106.607 72.049C106.607 72.2015 106.554 72.3306 106.449 72.4362C106.349 72.5418 106.226 72.5946 106.079 72.5946ZM106.466 73.3778V78.2002H105.666V73.3778H106.466ZM108.896 74.0378V76.8802C108.896 77.1149 108.946 77.2821 109.046 77.3818C109.145 77.4757 109.318 77.5226 109.565 77.5226H110.154V78.2002H109.433C108.987 78.2002 108.653 78.0975 108.43 77.8922C108.207 77.6869 108.095 77.3495 108.095 76.8802V74.0378H107.47V73.3778H108.095V72.1634H108.896V73.3778H110.154V74.0378H108.896ZM115.613 75.6042C115.613 75.7567 115.604 75.9181 115.586 76.0882H111.732C111.761 76.5634 111.923 76.9359 112.216 77.2058C112.515 77.4698 112.876 77.6018 113.298 77.6018C113.644 77.6018 113.932 77.5226 114.161 77.3642C114.395 77.1999 114.56 76.9829 114.653 76.713H115.516C115.387 77.1765 115.129 77.5549 114.741 77.8482C114.354 78.1357 113.873 78.2794 113.298 78.2794C112.841 78.2794 112.43 78.1767 112.066 77.9714C111.708 77.7661 111.427 77.4757 111.221 77.1002C111.016 76.7189 110.913 76.2789 110.913 75.7802C110.913 75.2815 111.013 74.8445 111.213 74.469C111.412 74.0935 111.691 73.8061 112.049 73.6066C112.412 73.4013 112.829 73.2986 113.298 73.2986C113.756 73.2986 114.161 73.3983 114.513 73.5978C114.865 73.7973 115.135 74.073 115.322 74.425C115.516 74.7711 115.613 75.1642 115.613 75.6042ZM114.785 75.437C114.785 75.1319 114.718 74.8709 114.583 74.6538C114.448 74.4309 114.263 74.2637 114.029 74.1522C113.8 74.0349 113.545 73.9762 113.263 73.9762C112.858 73.9762 112.512 74.1053 112.225 74.3634C111.943 74.6215 111.782 74.9794 111.741 75.437H114.785ZM118.465 78.2794C118.095 78.2794 117.764 78.2178 117.471 78.0946C117.177 77.9655 116.945 77.7895 116.775 77.5666C116.605 77.3378 116.511 77.0767 116.494 76.7834H117.321C117.344 77.0239 117.456 77.2205 117.655 77.373C117.861 77.5255 118.128 77.6018 118.456 77.6018C118.761 77.6018 119.002 77.5343 119.178 77.3994C119.354 77.2645 119.442 77.0943 119.442 76.889C119.442 76.6778 119.348 76.5223 119.16 76.4226C118.972 76.317 118.682 76.2143 118.289 76.1146C117.931 76.0207 117.638 75.9269 117.409 75.833C117.186 75.7333 116.992 75.5895 116.828 75.4018C116.67 75.2082 116.591 74.9559 116.591 74.645C116.591 74.3986 116.664 74.1727 116.811 73.9674C116.957 73.7621 117.165 73.6007 117.435 73.4834C117.705 73.3602 118.013 73.2986 118.359 73.2986C118.893 73.2986 119.324 73.4335 119.653 73.7034C119.981 73.9733 120.157 74.3429 120.181 74.8122H119.38C119.363 74.5599 119.26 74.3575 119.072 74.205C118.89 74.0525 118.644 73.9762 118.333 73.9762C118.045 73.9762 117.817 74.0378 117.647 74.161C117.476 74.2842 117.391 74.4455 117.391 74.645C117.391 74.8034 117.441 74.9354 117.541 75.041C117.647 75.1407 117.776 75.2229 117.928 75.2874C118.087 75.3461 118.304 75.4135 118.579 75.4898C118.925 75.5837 119.207 75.6775 119.424 75.7714C119.641 75.8594 119.826 75.9943 119.979 76.1762C120.137 76.3581 120.219 76.5957 120.225 76.889C120.225 77.153 120.152 77.3906 120.005 77.6018C119.858 77.813 119.65 77.9802 119.38 78.1034C119.116 78.2207 118.811 78.2794 118.465 78.2794Z" fill="#FFFDFB"/>
<rect width="67" height="52" transform="translate(134 38)" fill="#444444"/>
<path fill-rule="evenodd" clip-rule="evenodd" d="M174.829 50.8206C175.159 49.7464 174.153 48.7403 173.079 49.0708L160.432 52.9622C159.225 53.3337 159.088 54.9877 160.217 55.5525L165.578 58.2326C165.616 58.252 165.648 58.2834 165.667 58.3221L168.347 63.6823C168.912 64.8119 170.566 64.675 170.937 63.4679L174.829 50.8206ZM173.432 50.2177C173.585 50.1705 173.729 50.3142 173.682 50.4677L169.791 63.115C169.737 63.2874 169.501 63.307 169.42 63.1456L166.814 57.9336L170.447 54.3011C170.681 54.0668 170.681 53.6869 170.447 53.4526C170.213 53.2183 169.833 53.2183 169.598 53.4526L165.966 57.0851L160.754 54.4792C160.593 54.3985 160.612 54.1622 160.785 54.1092L173.432 50.2177Z" fill="#7D7D7D"/>
<path d="M155.653 77.549H157.8V78.2002H154.852V72.0666H155.653V77.549ZM158.439 75.7714C158.439 75.2786 158.539 74.8474 158.739 74.4778C158.938 74.1023 159.211 73.8119 159.557 73.6066C159.909 73.4013 160.299 73.2986 160.727 73.2986C161.15 73.2986 161.516 73.3895 161.827 73.5714C162.138 73.7533 162.37 73.9821 162.523 74.2578V73.3778H163.332V78.2002H162.523V77.3026C162.364 77.5842 162.127 77.8189 161.81 78.0066C161.499 78.1885 161.135 78.2794 160.719 78.2794C160.29 78.2794 159.903 78.1738 159.557 77.9626C159.211 77.7514 158.938 77.4551 158.739 77.0738C158.539 76.6925 158.439 76.2583 158.439 75.7714ZM162.523 75.7802C162.523 75.4165 162.449 75.0997 162.303 74.8298C162.156 74.5599 161.956 74.3546 161.704 74.2138C161.458 74.0671 161.185 73.9938 160.886 73.9938C160.587 73.9938 160.314 74.0642 160.067 74.205C159.821 74.3458 159.624 74.5511 159.478 74.821C159.331 75.0909 159.258 75.4077 159.258 75.7714C159.258 76.141 159.331 76.4637 159.478 76.7394C159.624 77.0093 159.821 77.2175 160.067 77.3642C160.314 77.505 160.587 77.5754 160.886 77.5754C161.185 77.5754 161.458 77.505 161.704 77.3642C161.956 77.2175 162.156 77.0093 162.303 76.7394C162.449 76.4637 162.523 76.1439 162.523 75.7802ZM165.75 74.0378V76.8802C165.75 77.1149 165.8 77.2821 165.9 77.3818C166 77.4757 166.173 77.5226 166.419 77.5226H167.009V78.2002H166.287C165.841 78.2002 165.507 78.0975 165.284 77.8922C165.061 77.6869 164.949 77.3495 164.949 76.8802V74.0378H164.325V73.3778H164.949V72.1634H165.75V73.3778H167.009V74.0378H165.75ZM172.467 75.6042C172.467 75.7567 172.458 75.9181 172.441 76.0882H168.586C168.615 76.5634 168.777 76.9359 169.07 77.2058C169.369 77.4698 169.73 77.6018 170.153 77.6018C170.499 77.6018 170.786 77.5226 171.015 77.3642C171.25 77.1999 171.414 76.9829 171.508 76.713H172.37C172.241 77.1765 171.983 77.5549 171.596 77.8482C171.209 78.1357 170.727 78.2794 170.153 78.2794C169.695 78.2794 169.284 78.1767 168.921 77.9714C168.563 77.7661 168.281 77.4757 168.076 77.1002C167.87 76.7189 167.768 76.2789 167.768 75.7802C167.768 75.2815 167.867 74.8445 168.067 74.469C168.266 74.0935 168.545 73.8061 168.903 73.6066C169.267 73.4013 169.683 73.2986 170.153 73.2986C170.61 73.2986 171.015 73.3983 171.367 73.5978C171.719 73.7973 171.989 74.073 172.177 74.425C172.37 74.7711 172.467 75.1642 172.467 75.6042ZM171.64 75.437C171.64 75.1319 171.572 74.8709 171.437 74.6538C171.302 74.4309 171.118 74.2637 170.883 74.1522C170.654 74.0349 170.399 73.9762 170.117 73.9762C169.713 73.9762 169.366 74.1053 169.079 74.3634C168.797 74.6215 168.636 74.9794 168.595 75.437H171.64ZM175.319 78.2794C174.95 78.2794 174.618 78.2178 174.325 78.0946C174.031 77.9655 173.8 77.7895 173.63 77.5666C173.459 77.3378 173.366 77.0767 173.348 76.7834H174.175C174.199 77.0239 174.31 77.2205 174.51 77.373C174.715 77.5255 174.982 77.6018 175.31 77.6018C175.615 77.6018 175.856 77.5343 176.032 77.3994C176.208 77.2645 176.296 77.0943 176.296 76.889C176.296 76.6778 176.202 76.5223 176.014 76.4226C175.827 76.317 175.536 76.2143 175.143 76.1146C174.785 76.0207 174.492 75.9269 174.263 75.833C174.04 75.7333 173.847 75.5895 173.682 75.4018C173.524 75.2082 173.445 74.9559 173.445 74.645C173.445 74.3986 173.518 74.1727 173.665 73.9674C173.811 73.7621 174.02 73.6007 174.29 73.4834C174.559 73.3602 174.867 73.2986 175.214 73.2986C175.747 73.2986 176.179 73.4335 176.507 73.7034C176.836 73.9733 177.012 74.3429 177.035 74.8122H176.234C176.217 74.5599 176.114 74.3575 175.926 74.205C175.744 74.0525 175.498 73.9762 175.187 73.9762C174.9 73.9762 174.671 74.0378 174.501 74.161C174.331 74.2842 174.246 74.4455 174.246 74.645C174.246 74.8034 174.295 74.9354 174.395 75.041C174.501 75.1407 174.63 75.2229 174.782 75.2874C174.941 75.3461 175.158 75.4135 175.434 75.4898C175.78 75.5837 176.061 75.6775 176.278 75.7714C176.495 75.8594 176.68 75.9943 176.833 76.1762C176.991 76.3581 177.073 76.5957 177.079 76.889C177.079 77.153 177.006 77.3906 176.859 77.6018C176.712 77.813 176.504 77.9802 176.234 78.1034C175.97 78.2207 175.665 78.2794 175.319 78.2794ZM179.274 74.0378V76.8802C179.274 77.1149 179.324 77.2821 179.424 77.3818C179.524 77.4757 179.697 77.5226 179.943 77.5226H180.533V78.2002H179.811C179.365 78.2002 179.031 78.0975 178.808 77.8922C178.585 77.6869 178.474 77.3495 178.474 76.8802V74.0378H177.849V73.3778H178.474V72.1634H179.274V73.3778H180.533V74.0378H179.274Z" fill="#7D7D7D"/>
<rect width="67" height="52" transform="translate(201 38)" fill="#444444"/>
<path fill-rule="evenodd" clip-rule="evenodd" d="M233.801 48.1114C234.234 47.8613 234.768 47.8613 235.201 48.1114L241.329 51.6495C241.762 51.8996 242.029 52.3618 242.029 52.8619V59.9382C242.029 60.4384 241.762 60.9005 241.329 61.1506L235.201 64.6887C234.768 64.9388 234.234 64.9388 233.801 64.6887L227.673 61.1506C227.239 60.9005 226.973 60.4384 226.973 59.9382V52.8619C226.973 52.3618 227.239 51.8996 227.673 51.6495L233.801 48.1114L234.101 48.631L233.801 48.1114ZM234.601 49.1506C234.539 49.1149 234.463 49.1149 234.401 49.1506L228.273 52.6887C228.211 52.7245 228.173 52.7905 228.173 52.8619V59.9382C228.173 60.0096 228.211 60.0757 228.273 60.1114L234.401 63.6495C234.463 63.6852 234.539 63.6852 234.601 63.6495L240.729 60.1114C240.791 60.0757 240.829 60.0096 240.829 59.9382V52.8619C240.829 52.7905 240.791 52.7245 240.729 52.6887L234.601 49.1506ZM234.501 54.6001C233.507 54.6001 232.701 55.406 232.701 56.4001C232.701 57.3942 233.507 58.2001 234.501 58.2001C235.495 58.2001 236.301 57.3942 236.301 56.4001C236.301 55.406 235.495 54.6001 234.501 54.6001ZM231.501 56.4001C231.501 54.7432 232.844 53.4001 234.501 53.4001C236.158 53.4001 237.501 54.7432 237.501 56.4001C237.501 58.0569 236.158 59.4001 234.501 59.4001C232.844 59.4001 231.501 58.0569 231.501 56.4001Z" fill="#7D7D7D"/>
<path d="M220.183 76.8362H217.508L217.015 78.2002H216.17L218.388 72.1018H219.312L221.521 78.2002H220.676L220.183 76.8362ZM219.954 76.185L218.845 73.0874L217.737 76.185H219.954ZM222.276 75.7802C222.276 75.2815 222.376 74.8474 222.575 74.4778C222.775 74.1023 223.05 73.8119 223.402 73.6066C223.76 73.4013 224.168 73.2986 224.625 73.2986C225.218 73.2986 225.705 73.4423 226.086 73.7298C226.473 74.0173 226.729 74.4162 226.852 74.9266H225.989C225.907 74.6333 225.746 74.4015 225.505 74.2314C225.271 74.0613 224.977 73.9762 224.625 73.9762C224.168 73.9762 223.798 74.1346 223.517 74.4514C223.235 74.7623 223.094 75.2053 223.094 75.7802C223.094 76.361 223.235 76.8098 223.517 77.1266C223.798 77.4434 224.168 77.6018 224.625 77.6018C224.977 77.6018 225.271 77.5197 225.505 77.3554C225.74 77.1911 225.901 76.9565 225.989 76.6514H226.852C226.723 77.1442 226.465 77.5402 226.077 77.8394C225.69 78.1327 225.206 78.2794 224.625 78.2794C224.168 78.2794 223.76 78.1767 223.402 77.9714C223.05 77.7661 222.775 77.4757 222.575 77.1002C222.376 76.7247 222.276 76.2847 222.276 75.7802ZM227.709 75.7802C227.709 75.2815 227.809 74.8474 228.008 74.4778C228.208 74.1023 228.484 73.8119 228.836 73.6066C229.193 73.4013 229.601 73.2986 230.059 73.2986C230.651 73.2986 231.138 73.4423 231.52 73.7298C231.907 74.0173 232.162 74.4162 232.285 74.9266H231.423C231.341 74.6333 231.179 74.4015 230.939 74.2314C230.704 74.0613 230.411 73.9762 230.059 73.9762C229.601 73.9762 229.232 74.1346 228.95 74.4514C228.668 74.7623 228.528 75.2053 228.528 75.7802C228.528 76.361 228.668 76.8098 228.95 77.1266C229.232 77.4434 229.601 77.6018 230.059 77.6018C230.411 77.6018 230.704 77.5197 230.939 77.3554C231.173 77.1911 231.335 76.9565 231.423 76.6514H232.285C232.156 77.1442 231.898 77.5402 231.511 77.8394C231.124 78.1327 230.64 78.2794 230.059 78.2794C229.601 78.2794 229.193 78.1767 228.836 77.9714C228.484 77.7661 228.208 77.4757 228.008 77.1002C227.809 76.7247 227.709 76.2847 227.709 75.7802ZM235.545 78.2794C235.093 78.2794 234.682 78.1767 234.313 77.9714C233.949 77.7661 233.662 77.4757 233.45 77.1002C233.245 76.7189 233.142 76.2789 233.142 75.7802C233.142 75.2874 233.248 74.8533 233.459 74.4778C233.676 74.0965 233.97 73.8061 234.339 73.6066C234.709 73.4013 235.122 73.2986 235.58 73.2986C236.038 73.2986 236.451 73.4013 236.821 73.6066C237.19 73.8061 237.481 74.0935 237.692 74.469C237.909 74.8445 238.018 75.2815 238.018 75.7802C238.018 76.2789 237.906 76.7189 237.683 77.1002C237.466 77.4757 237.17 77.7661 236.794 77.9714C236.419 78.1767 236.002 78.2794 235.545 78.2794ZM235.545 77.5754C235.832 77.5754 236.102 77.5079 236.354 77.373C236.607 77.2381 236.809 77.0357 236.962 76.7658C237.12 76.4959 237.199 76.1674 237.199 75.7802C237.199 75.393 237.123 75.0645 236.97 74.7946C236.818 74.5247 236.618 74.3253 236.372 74.1962C236.126 74.0613 235.859 73.9938 235.571 73.9938C235.278 73.9938 235.008 74.0613 234.762 74.1962C234.521 74.3253 234.328 74.5247 234.181 74.7946C234.034 75.0645 233.961 75.393 233.961 75.7802C233.961 76.1733 234.031 76.5047 234.172 76.7746C234.319 77.0445 234.512 77.2469 234.753 77.3818C234.993 77.5109 235.257 77.5754 235.545 77.5754ZM243.435 73.3778V78.2002H242.635V77.4874C242.482 77.7338 242.268 77.9274 241.992 78.0682C241.722 78.2031 241.423 78.2706 241.095 78.2706C240.719 78.2706 240.382 78.1943 240.083 78.0418C239.783 77.8834 239.546 77.6487 239.37 77.3378C239.2 77.0269 239.115 76.6485 239.115 76.2026V73.3778H239.907V76.097C239.907 76.5722 240.027 76.9389 240.267 77.197C240.508 77.4493 240.836 77.5754 241.253 77.5754C241.681 77.5754 242.019 77.4434 242.265 77.1794C242.511 76.9154 242.635 76.5311 242.635 76.0266V73.3778H243.435ZM247.225 73.2898C247.812 73.2898 248.287 73.4687 248.651 73.8266C249.014 74.1786 249.196 74.689 249.196 75.3578V78.2002H248.404V75.4722C248.404 74.9911 248.284 74.6245 248.043 74.3722C247.803 74.1141 247.474 73.985 247.058 73.985C246.635 73.985 246.298 74.117 246.046 74.381C245.799 74.645 245.676 75.0293 245.676 75.5338V78.2002H244.875V73.3778H245.676V74.0642C245.835 73.8178 246.049 73.6271 246.319 73.4922C246.594 73.3573 246.897 73.2898 247.225 73.2898ZM251.569 74.0378V76.8802C251.569 77.1149 251.619 77.2821 251.719 77.3818C251.819 77.4757 251.992 77.5226 252.238 77.5226H252.828V78.2002H252.106C251.66 78.2002 251.326 78.0975 251.103 77.8922C250.88 77.6869 250.768 77.3495 250.768 76.8802V74.0378H250.144V73.3778H250.768V72.1634H251.569V73.3778H252.828V74.0378H251.569Z" fill="#7D7D7D"/>
<path d="M99.7152 42.6652C82.9003 43.0094 63.5108 51.817 65.6993 68.0189C67.8263 83.7659 85.3479 87.0921 100.618 86.7795C119.377 86.3955 137.143 76.5493 135.326 58.7834C133.188 37.8704 105.019 33.5931 86.1121 33.9801" stroke="url(#paint0_linear_22657_34371)" stroke-width="2" stroke-linecap="round"/>
<path d="M177.093 1.99567C177.643 1.94435 178.047 1.45697 177.996 0.907071C177.944 0.357176 177.457 -0.0469962 176.907 0.0043273L177.093 1.99567ZM117.003 29.5751C117.044 30.1258 117.524 30.5386 118.075 30.4972L127.05 29.8217C127.6 29.7802 128.013 29.3002 127.972 28.7494C127.93 28.1987 127.45 27.7859 126.9 27.8273L118.922 28.4278L118.322 20.4503C118.28 19.8996 117.8 19.4868 117.249 19.5282C116.699 19.5697 116.286 20.0497 116.327 20.6004L117.003 29.5751ZM176.907 0.0043273C170.56 0.596724 160.015 2.74496 148.886 7.26089C137.76 11.7762 125.98 18.6873 117.242 28.848L118.758 30.152C127.22 20.3127 138.69 13.5571 149.639 9.11411C160.585 4.67171 170.94 2.56994 177.093 1.99567L176.907 0.0043273Z" fill="url(#paint1_linear_22657_34371)"/>
<defs>
<linearGradient id="paint0_linear_22657_34371" x1="86.6691" y1="31.631" x2="123.324" y2="86.1117" gradientUnits="userSpaceOnUse">
<stop stop-color="#0A9F68"/>
<stop offset="0.104982" stop-color="#0A9F68"/>
<stop offset="0.242211" stop-color="#71BBFF"/>
<stop offset="0.373101" stop-color="#71BBFF"/>
<stop offset="0.503545" stop-color="#FFB9F8"/>
<stop offset="0.760414" stop-color="#FFB9F8"/>
<stop offset="1" stop-color="#FFE665"/>
</linearGradient>
<linearGradient id="paint1_linear_22657_34371" x1="136.4" y1="-0.254792" x2="151.112" y2="35.6357" gradientUnits="userSpaceOnUse">
<stop stop-color="#0A9F68"/>
<stop offset="0.104982" stop-color="#0A9F68"/>
<stop offset="0.242211" stop-color="#71BBFF"/>
<stop offset="0.373101" stop-color="#71BBFF"/>
<stop offset="0.503545" stop-color="#FFB9F8"/>
<stop offset="0.760414" stop-color="#FFB9F8"/>
<stop offset="1" stop-color="#FFE665"/>
</linearGradient>
</defs>
</svg>
