<svg width="255" height="120" viewBox="0 0 255 120" fill="none" xmlns="http://www.w3.org/2000/svg">
<rect width="255" height="120" rx="4" fill="#F5F5F5"/>
<path d="M107.539 28.8322C107.472 28.8289 107.373 28.8396 107.293 28.8396C107.262 28.8396 107.235 28.8381 107.214 28.8337C106.944 28.779 106.541 28.6959 106.055 28.5956C105.341 28.4483 104.445 28.2635 103.519 28.072C102.814 27.9262 102.091 27.7766 101.419 27.6378C100.421 27.4313 99.5346 27.2483 98.98 27.1344C98.9152 27.1212 98.8544 27.1087 98.7988 27.0973C98.5425 27.0448 98.2059 26.9834 97.9945 26.9448C97.9599 26.9386 97.9286 26.9327 97.9017 26.9279C97.8667 26.9213 97.8318 26.914 97.7971 26.9073C97.7478 26.8978 97.6981 26.889 97.648 26.8857C97.6068 26.8827 97.5581 26.8798 97.5044 26.8765C97.2702 26.8625 96.9277 26.8449 96.5646 26.8258C96.2188 26.8074 95.855 26.7876 95.5497 26.7674C95.0581 26.735 94.4626 26.6832 93.9732 26.6458C93.7596 26.6292 93.5662 26.6156 93.4108 26.6075C93.1015 26.5914 92.6905 26.5995 92.4817 26.6075C92.3764 26.6116 92.2637 26.6123 92.168 26.6509C92.2564 26.6421 92.3451 26.6391 92.4339 26.6373C92.5926 26.6344 92.7889 26.6358 92.9649 26.6549C93.177 26.6781 93.4591 26.7299 93.7047 26.7762C93.8631 26.8063 94.0711 26.8456 94.3086 26.8915C94.9649 27.0176 95.8476 27.1895 96.5407 27.3317C96.7878 27.3824 97.0639 27.4394 97.3586 27.5011C98.1982 27.6763 99.1899 27.8861 100.099 28.0787C100.482 28.1599 100.851 28.2381 101.187 28.309C101.616 28.3998 102.108 28.5056 102.598 28.611C103.322 28.7668 104.044 28.9222 104.564 29.031C104.738 29.0674 104.89 29.0982 105.011 29.1225C105.2 29.16 105.412 29.1691 105.585 29.1805C105.603 29.1816 105.621 29.1827 105.64 29.1835C105.779 29.1905 105.931 29.1912 106.048 29.189C106.152 29.1868 106.256 29.1813 106.359 29.1673C106.368 29.1662 106.376 29.1655 106.384 29.1644C106.524 29.1438 106.728 29.1063 106.891 29.0655C106.916 29.0593 106.942 29.0527 106.967 29.0457C107.078 29.0163 107.193 28.9818 107.292 28.9461C107.317 28.9373 107.341 28.9281 107.363 28.9193C107.424 28.8947 107.482 28.8649 107.539 28.833L107.539 28.8322Z" fill="#E9E8E8"/>
<path d="M159.181 82.8407C159.018 82.9249 158.829 82.9844 158.633 83.0307C158.424 83.0803 158.137 83.1159 157.939 83.1336C157.901 83.1369 157.864 83.1398 157.827 83.1417C157.841 83.1446 157.856 83.1461 157.87 83.1468C157.997 83.1541 158.295 83.1586 158.528 83.1461C158.782 83.1325 159.162 83.0924 159.593 83.0469C159.662 83.0395 159.733 83.0303 159.803 83.0219C159.909 83.0086 160.031 82.9932 160.148 82.9851C160.375 82.9697 160.625 82.9535 160.867 82.9374C161.072 82.9234 161.269 82.9091 161.441 82.8947C161.451 82.894 161.461 82.8933 161.47 82.8922C161.563 82.8841 161.663 82.8756 161.764 82.8668C161.957 82.8499 162.156 82.8312 162.333 82.8113C162.474 82.7955 162.601 82.7794 162.699 82.7624C162.832 82.7397 162.96 82.6934 163.086 82.6427C163.121 82.6283 163.156 82.614 163.191 82.5997C163.36 82.5295 163.556 82.4564 163.711 82.3421C163.734 82.3252 163.758 82.3068 163.784 82.287C163.883 82.2102 163.998 82.1128 164.112 82.0099C164.213 81.9188 164.314 81.8232 164.402 81.7336C164.428 81.7064 164.454 81.6799 164.478 81.6542C164.678 81.4396 164.846 81.1971 165.007 80.952C165.017 80.937 165.027 80.9212 165.038 80.9046C165.265 80.5544 165.657 79.9158 165.962 79.4168C166.066 79.2474 166.159 79.0938 166.233 78.9733C166.428 78.6522 166.625 78.3314 166.804 78.001C166.911 77.8052 167.027 77.58 167.144 77.3477C167.255 77.1287 167.367 76.9035 167.473 76.6904C167.65 76.3332 167.869 75.8823 168.057 75.4917C168.122 75.3558 168.183 75.2272 168.238 75.1125C168.41 74.7513 168.625 74.3034 168.741 74.0231C168.819 73.8309 168.887 73.6288 168.93 73.4293C168.972 73.2319 168.988 73.0074 168.997 72.8266C169 72.7679 169 72.7069 168.998 72.6462C168.996 72.5411 168.988 72.4368 168.979 72.3457C168.967 72.2178 168.947 72.0899 168.915 71.9653C168.882 71.8338 168.833 71.6898 168.778 71.5575C168.721 71.4204 168.654 71.2749 168.573 71.1434C168.532 71.075 168.479 70.992 168.42 70.9031C168.317 70.7473 168.197 70.5731 168.087 70.4257C167.881 70.1509 167.583 69.7831 167.318 69.4593C167.304 69.4424 167.29 69.4255 167.277 69.409C166.93 68.9864 166.292 68.2328 165.906 67.765C165.867 67.7176 165.831 67.6732 165.797 67.632C165.56 67.341 165.34 67.0364 165.104 66.7435C164.851 66.4283 164.537 66.0557 164.279 65.7415C164.037 65.4475 163.793 65.154 163.553 64.8585C163.459 64.7435 163.36 64.6201 163.261 64.497C163.1 64.2971 162.939 64.0968 162.805 63.9311C162.621 63.7044 162.436 63.478 162.252 63.252C162.057 63.0143 161.844 62.7553 161.641 62.5061C161.607 62.4639 161.571 62.4198 161.535 62.3746C161.352 62.1486 161.151 61.8987 161.004 61.7209C160.866 61.5544 160.72 61.395 160.583 61.2278C160.419 61.0286 160.187 60.7343 160.022 60.5248C159.921 60.3977 159.808 60.2566 159.71 60.1291C159.666 60.0725 159.625 60.0185 159.591 59.97C159.501 59.8454 159.418 59.7161 159.343 59.582C159.262 59.4376 159.174 59.2674 159.106 59.1024C159.067 59.0076 159.022 58.8871 158.98 58.7681C158.937 58.6483 158.899 58.53 158.874 58.4407C158.837 58.3084 158.828 58.1699 158.813 58.0335C158.798 57.8957 158.784 57.7546 158.782 57.615C158.781 57.5496 158.781 57.471 158.783 57.3854C158.785 57.2046 158.79 56.9937 158.798 56.8121C158.81 56.5075 158.842 56.1291 158.855 55.787C158.856 55.7561 158.857 55.7238 158.858 55.6918C158.869 55.3486 158.874 54.9547 158.878 54.6302C158.881 54.3069 158.884 53.974 158.878 53.6602C158.878 53.6422 158.877 53.6242 158.876 53.6062C158.869 53.314 158.852 52.983 158.841 52.7474C158.831 52.5508 158.814 52.3546 158.804 52.1584C158.798 52.043 158.793 51.917 158.788 51.7957C158.784 51.7057 158.781 51.6179 158.78 51.5396C158.776 51.3791 158.77 51.2082 158.78 51.0572C158.79 50.915 158.81 50.7731 158.841 50.6342C158.877 50.4733 158.934 50.2672 158.994 50.0922C159.037 49.9644 159.089 49.8339 159.143 49.7108C159.162 49.6678 159.181 49.626 159.2 49.5855C159.269 49.4367 159.338 49.2846 159.435 49.1519C159.519 49.0358 159.647 48.8738 159.79 48.6959C159.973 48.4685 160.181 48.2157 160.354 48.0011C160.703 47.5701 161.225 46.9263 161.723 46.3141C161.879 46.1231 162.032 45.9349 162.178 45.7571C162.804 44.9906 163.486 44.1701 164.112 43.4017C164.159 43.3448 164.205 43.2875 164.252 43.2298C164.822 42.5287 165.419 41.7798 165.935 41.1475C166.062 40.9917 166.2 40.8245 166.34 40.6543C166.759 40.1465 167.202 39.6141 167.465 39.2937C167.498 39.2544 167.53 39.2147 167.563 39.175C167.726 38.9766 167.892 38.7752 168.041 38.5808C168.214 38.3563 168.422 38.0859 168.543 37.8937C168.569 37.8533 168.593 37.8118 168.616 37.7699C168.676 37.66 168.728 37.5457 168.772 37.4285C168.837 37.2525 168.902 37.0243 168.932 36.8377C168.953 36.7101 168.956 36.5768 168.956 36.4482C168.956 36.4004 168.955 36.3537 168.955 36.3082C168.954 36.1468 168.95 35.9852 168.926 35.8257C168.913 35.739 168.896 35.6449 168.875 35.5497C168.854 35.4549 168.829 35.359 168.801 35.2679C168.75 35.1007 168.676 34.9034 168.598 34.7156C168.58 34.6715 168.562 34.6282 168.544 34.5859C168.417 34.2912 168.216 33.8587 168.041 33.5005C167.969 33.3535 167.886 33.1856 167.797 33.011C167.63 32.6822 167.448 32.3287 167.301 32.0399C167.184 31.8073 167.069 31.5732 166.952 31.3406C166.868 31.1745 166.783 31.0088 166.694 30.8453C166.569 30.6156 166.429 30.3669 166.283 30.1159C166.157 29.8984 166.028 29.6794 165.901 29.4685C165.806 29.3101 165.691 29.1227 165.571 28.9276C165.362 28.5892 165.136 28.2272 164.961 27.9509C164.905 27.8624 164.854 27.7823 164.811 27.715C164.758 27.6309 164.701 27.5423 164.644 27.4556C164.574 27.3487 164.502 27.2439 164.432 27.1524C164.411 27.1249 164.39 27.0981 164.369 27.0731C164.26 26.943 164.135 26.8258 164.002 26.7203C163.979 26.7027 163.957 26.6847 163.935 26.6678C163.879 26.6266 163.82 26.5836 163.758 26.5414C163.687 26.4932 163.612 26.4462 163.536 26.4025C163.469 26.3643 163.4 26.3286 163.331 26.2985C163.185 26.2346 163.021 26.1839 162.857 26.1423C162.773 26.121 162.689 26.1023 162.608 26.0857C162.427 26.049 162.243 26.0321 162.059 26.0178C162.005 26.0137 161.95 26.0097 161.896 26.0053C161.846 26.0016 161.791 25.9972 161.73 25.9931C161.577 25.9821 161.392 25.9693 161.193 25.956C161.035 25.9454 160.869 25.9347 160.702 25.9241C160.396 25.9046 160.09 25.8859 159.835 25.8715C159.794 25.8693 159.754 25.8671 159.716 25.8649C159.526 25.8546 159.308 25.844 159.091 25.8344C158.691 25.8168 158.295 25.8021 158.091 25.7969C158.004 25.7947 157.913 25.7918 157.83 25.8171C157.824 25.819 157.818 25.8208 157.811 25.8223C157.883 25.8216 157.954 25.8249 158.026 25.834C158.206 25.8568 158.43 25.9064 158.622 25.9759C158.705 26.006 158.798 26.0468 158.892 26.0905C159.034 26.157 159.175 26.2313 159.281 26.2886C159.419 26.3632 159.551 26.4499 159.676 26.5451C159.714 26.5737 159.753 26.6035 159.792 26.6343C159.893 26.7133 159.995 26.8004 160.08 26.8971C160.171 27.0018 160.274 27.1418 160.375 27.2862C160.433 27.3711 160.491 27.4574 160.544 27.539C160.638 27.6838 160.764 27.8745 160.907 28.0924C161.148 28.4591 161.436 28.9022 161.702 29.3336C161.837 29.5519 161.965 29.7668 162.08 29.9675C162.123 30.0432 162.168 30.1225 162.214 30.2045C162.403 30.5422 162.615 30.9302 162.828 31.3289C163.121 31.8764 163.416 32.443 163.656 32.9247C163.755 33.1231 163.845 33.3076 163.922 33.4696C164.116 33.8826 164.312 34.3982 164.463 34.834C164.544 35.0658 164.612 35.2753 164.661 35.4344C164.676 35.484 164.689 35.535 164.701 35.5869C164.748 35.7963 164.769 36.0179 164.77 36.2119C164.77 36.3173 164.762 36.4265 164.746 36.5334C164.728 36.6558 164.702 36.7752 164.67 36.8821C164.612 37.0725 164.514 37.2499 164.405 37.4164C164.366 37.477 164.318 37.5432 164.266 37.6126C164.132 37.7915 163.967 37.9922 163.827 38.1741C163.647 38.4092 163.387 38.7572 163.103 39.132C162.808 39.5208 162.487 39.9385 162.199 40.2891C162.106 40.4034 161.999 40.5323 161.883 40.6738C161.329 41.344 160.537 42.2943 159.687 43.311C158.83 44.3358 157.917 45.4279 157.135 46.3671C156.421 47.2243 155.816 47.9541 155.464 48.3899C155.406 48.4615 155.352 48.5398 155.301 48.6202C155.178 48.8168 155.074 49.0296 154.988 49.2122C154.914 49.368 154.851 49.5293 154.8 49.6939C154.775 49.7744 154.752 49.8556 154.733 49.9375C154.668 50.2131 154.626 50.5578 154.597 50.8679C154.573 51.1299 154.57 51.393 154.565 51.6561C154.563 51.7028 154.562 51.7491 154.561 51.7957C154.549 52.2168 154.534 52.8907 154.523 53.4684C154.521 53.5205 154.52 53.572 154.519 53.6223C154.508 54.1757 154.5 54.7493 154.489 55.288C154.488 55.3398 154.486 55.3916 154.485 55.4427C154.473 56.0008 154.442 56.6714 154.44 57.1171C154.44 57.2582 154.439 57.4107 154.44 57.5603C154.443 57.7657 154.451 57.9652 154.474 58.1217C154.506 58.3382 154.61 58.5377 154.678 58.7453C154.706 58.8316 154.737 58.9261 154.768 59.0231C154.82 59.1833 154.874 59.3501 154.926 59.4986C155.005 59.7264 155.063 59.9707 155.176 60.1772C155.226 60.2691 155.286 60.354 155.351 60.4363C155.432 60.5392 155.52 60.638 155.602 60.7394C155.917 61.126 156.49 61.819 157.112 62.5726C157.649 63.223 158.222 63.9182 158.697 64.501C158.796 64.6223 158.897 64.7461 158.999 64.8721C159.81 65.8708 160.716 67.0026 161.487 67.9528C161.67 68.1795 161.846 68.396 162.011 68.5977C162.266 68.9096 162.558 69.2569 162.852 69.6038C163.275 70.105 163.701 70.6058 164.022 70.9993C164.155 71.1621 164.27 71.3069 164.359 71.4256C164.534 71.6574 164.655 71.9532 164.735 72.2101C164.793 72.3931 164.826 72.5885 164.837 72.78C164.841 72.8428 164.842 72.9056 164.842 72.967C164.837 73.2154 164.796 73.4671 164.713 73.7008C164.57 74.0999 164.295 74.8395 163.998 75.491C163.922 75.6593 163.843 75.8221 163.765 75.9713C163.547 76.3894 163.229 76.9479 162.888 77.53C162.471 78.2425 162.021 78.9902 161.679 79.5605C161.613 79.6689 161.552 79.7711 161.496 79.8651C161.318 80.1624 161.111 80.5019 160.91 80.8278C160.638 81.2658 160.375 81.6788 160.202 81.9302C160.059 82.1389 159.863 82.3403 159.692 82.492C159.666 82.5159 159.638 82.5387 159.61 82.5615C159.475 82.6702 159.323 82.7669 159.181 82.8403V82.8407Z" fill="#E9E8E8"/>
<path d="M105.69 79.6895C105.829 79.6815 105.978 79.677 106.121 79.6789C106.233 79.6804 106.341 79.6855 106.435 79.6965C106.475 79.7009 106.514 79.7079 106.554 79.7156C106.695 79.7439 106.834 79.7902 106.971 79.835C106.979 79.8376 106.987 79.8405 106.996 79.8431C107.102 79.878 107.212 79.9151 107.321 79.9588C107.187 79.993 107.053 80.0268 106.919 80.061C106.919 80.061 106.901 80.0647 106.867 80.0716C106.753 80.0952 106.455 80.1569 106.035 80.2443C105.597 80.3351 105.025 80.4538 104.389 80.5857C103.655 80.7378 102.835 80.9079 102.034 81.0739C101.169 81.2532 100.327 81.4281 99.6407 81.5703C99.0596 81.6908 98.5901 81.7882 98.3135 81.8455C98.1953 81.8701 98.0771 81.8977 97.9582 81.9175C97.946 81.9194 97.9335 81.9216 97.9206 81.9238C97.8053 81.9432 97.6628 81.9675 97.5262 81.9837C97.4919 81.9877 97.4581 81.9914 97.4249 81.9943C97.3483 82.0009 97.2548 82.0083 97.1495 82.016C96.8865 82.0351 96.5514 82.0571 96.2292 82.0781C96.0594 82.0891 95.8933 82.0998 95.7435 82.1097C95.394 82.1325 94.9867 82.1593 94.6339 82.181C94.4439 82.1927 94.2693 82.203 94.129 82.2104C93.865 82.224 93.535 82.2368 93.3362 82.2342C93.2566 82.2335 93.0972 82.2328 93.0132 82.2228C92.9561 82.2159 92.965 82.1986 92.9377 82.196C92.9351 82.196 92.9274 82.1931 92.9303 82.1931C93.0176 82.1857 93.296 82.1795 93.4628 82.1534C93.862 82.0909 94.4991 81.9561 95.1259 81.8224C95.4014 81.7639 95.6746 81.7055 95.925 81.6541C96.6788 81.4987 97.9092 81.2444 99.0316 81.0111C99.7604 80.8594 100.444 80.7165 100.923 80.615C100.958 80.6077 100.993 80.6 101.029 80.5923C101.681 80.4527 102.419 80.284 102.989 80.1573C103.068 80.1396 103.144 80.1227 103.217 80.1069C103.486 80.0481 103.776 79.9794 104.051 79.9188C104.258 79.8729 104.458 79.8314 104.635 79.8012C104.694 79.7913 104.755 79.7821 104.817 79.7733C105.119 79.7311 105.442 79.7039 105.691 79.6895H105.69Z" fill="#E9E8E8"/>
<path d="M146.036 80.5898C145.92 80.5641 145.8 80.5362 145.679 80.5075C145.459 80.4561 145.239 80.4039 145.043 80.3635C144.984 80.3513 144.927 80.3403 144.872 80.3304C144.68 80.2962 144.466 80.269 144.274 80.2521C144.19 80.2448 144.111 80.2393 144.039 80.236C143.84 80.2268 143.639 80.2466 143.441 80.2672C143.35 80.2767 143.252 80.2874 143.15 80.3003C143.007 80.3186 142.86 80.3414 142.723 80.3723C142.49 80.4259 142.252 80.4799 142.039 80.5898C141.97 80.6254 141.89 80.6699 141.804 80.7199C141.513 80.8889 141.14 81.1263 140.796 81.3398C140.705 81.396 140.616 81.4507 140.531 81.5018C140.276 81.6554 139.986 81.8369 139.695 82.0155C139.358 82.2224 139.021 82.4259 138.738 82.5799C138.292 82.8213 137.671 83.0602 137.358 83.2204C137.18 83.3111 136.999 83.4243 136.852 83.543C136.769 83.6102 136.694 83.6863 136.622 83.766C136.573 83.8204 136.526 83.8763 136.479 83.9317C136.341 84.0949 136.156 84.3128 136.025 84.5244C135.966 84.62 135.896 84.735 135.822 84.8603C135.665 85.1263 135.492 85.4405 135.368 85.7245C135.13 86.272 134.76 87.1602 134.477 87.974C134.425 88.1218 134.376 88.2669 134.332 88.4069C134.065 89.2469 133.641 90.6836 133.204 92.1795C132.896 93.2352 132.581 94.3202 132.309 95.2458C132.107 95.9355 131.929 96.5371 131.796 96.9721C131.615 97.5663 131.38 98.3089 131.18 98.8781C131.095 99.1169 131.017 99.3256 130.951 99.4792C130.85 99.7166 130.638 99.9117 130.466 100.083C130.33 100.219 130.156 100.343 130.006 100.446C129.975 100.468 129.944 100.489 129.915 100.509C129.777 100.604 129.608 100.713 129.481 100.765C129.444 100.78 129.405 100.791 129.365 100.798C129.375 100.798 129.384 100.799 129.391 100.801C129.457 100.81 129.524 100.797 129.59 100.79C129.749 100.773 130.094 100.734 130.346 100.703C130.395 100.697 130.45 100.691 130.511 100.683C130.788 100.649 131.176 100.601 131.561 100.554C131.963 100.504 132.361 100.454 132.621 100.421C132.964 100.378 133.395 100.332 133.667 100.286C133.684 100.283 133.701 100.28 133.718 100.277C133.887 100.246 134.061 100.187 134.214 100.128C134.306 100.093 134.399 100.052 134.487 100.007C134.538 99.9804 134.588 99.9536 134.634 99.9253C134.758 99.8496 134.87 99.7559 134.979 99.66C134.986 99.6541 134.992 99.6479 134.999 99.6416C135.106 99.5468 135.217 99.437 135.306 99.3337C135.396 99.2294 135.483 99.1206 135.55 99.0004C135.622 98.8711 135.691 98.7098 135.741 98.5566C135.744 98.5459 135.748 98.5345 135.751 98.5235C135.963 97.8735 136.367 96.601 136.793 95.2587C137.09 94.3236 137.397 93.3546 137.656 92.5392C137.729 92.3121 137.805 92.0704 137.885 91.8187C138.284 90.5601 138.763 89.0474 139.161 87.7885C139.433 86.9312 139.668 86.1919 139.815 85.7311C139.904 85.4537 140.01 85.13 140.1 84.9051C140.172 84.7251 140.248 84.5439 140.353 84.3811C140.357 84.3749 140.362 84.3683 140.366 84.3617C140.482 84.1879 140.653 83.9913 140.794 83.8358C140.93 83.6856 141.109 83.5173 141.23 83.4129C141.236 83.4085 141.241 83.4045 141.246 83.4004C141.332 83.3284 141.425 83.2641 141.523 83.2101C141.719 83.1028 142.115 82.9202 142.409 82.7702C142.603 82.671 142.849 82.549 143.1 82.4208C143.334 82.3014 143.572 82.1768 143.778 82.06C144.11 81.8704 144.476 81.6301 144.777 81.436C144.843 81.3934 144.906 81.353 144.964 81.3159C145.203 81.1645 145.504 80.9767 145.692 80.8518C145.705 80.8426 145.719 80.8338 145.731 80.8253C145.836 80.7541 145.944 80.6519 146.036 80.5887V80.5898Z" fill="#E9E8E8"/>
<path d="M122.351 39.2099C122.589 39.1732 122.83 39.1434 123.072 39.1192C123.467 39.0799 123.868 39.0578 124.272 39.053C124.326 39.0523 124.379 39.0516 124.433 39.0516C124.713 39.0516 124.992 39.0597 125.27 39.0755C125.487 39.0876 125.702 39.1049 125.917 39.1265C126.288 39.164 126.656 39.2155 127.02 39.2809C127.204 39.3139 127.387 39.3503 127.569 39.39C127.534 39.3981 127.496 39.3933 127.46 39.3988C127.358 39.4131 127.129 39.4436 126.965 39.476C126.885 39.4918 126.786 39.5098 126.675 39.5304C126.371 39.5866 125.981 39.6612 125.671 39.7508C125.189 39.8905 124.552 40.1179 124.074 40.3127C123.639 40.4898 123.193 40.6985 122.802 40.9189C122.469 41.106 122.146 41.3353 121.843 41.5513C121.803 41.5796 121.764 41.6075 121.725 41.6355C121.403 41.8644 121.083 42.0985 120.782 42.3546C120.47 42.6206 120.147 42.9252 119.851 43.2313C119.552 43.5396 119.257 43.8791 118.992 44.2028C118.734 44.5166 118.484 44.8477 118.257 45.174C118.056 45.4624 117.866 45.7586 117.688 46.0614C117.669 46.0945 117.649 46.1275 117.63 46.161C117.416 46.535 117.157 47.0307 116.971 47.418C116.805 47.7663 116.655 48.1228 116.52 48.4847C116.369 48.8882 116.196 49.3809 116.067 49.8391C116.04 49.9354 116.014 50.0353 115.988 50.136C115.889 50.5263 115.799 50.9393 115.729 51.2994C115.647 51.7157 115.578 52.1349 115.534 52.5568C115.493 52.9591 115.471 53.3828 115.461 53.7987C115.46 53.8303 115.46 53.8623 115.459 53.8939C115.45 54.3775 115.457 55.0359 115.479 55.4574C115.495 55.7804 115.546 56.1004 115.586 56.4216C115.631 56.785 115.675 57.2564 115.749 57.6375C115.78 57.7962 115.818 57.9535 115.86 58.11C115.913 58.3106 115.973 58.5098 116.031 58.709C116.143 59.0878 116.278 59.5181 116.417 59.9109C116.555 60.3004 116.71 60.7094 116.866 61.0658C117.014 61.4009 117.182 61.7272 117.355 62.0494C117.487 62.2927 117.634 62.5628 117.791 62.8258C117.859 62.9409 117.929 63.0548 118 63.1643C118.241 63.5365 118.517 63.923 118.803 64.2817C119.102 64.6568 119.507 65.1081 119.792 65.4149C119.852 65.4792 119.913 65.5428 119.974 65.6052C120.149 65.7838 120.33 65.9565 120.516 66.123C120.802 66.378 121.161 66.6907 121.507 66.9457C121.882 67.2231 122.381 67.5509 122.771 67.7886C122.908 67.872 123.047 67.9518 123.187 68.03C123.404 68.1509 123.624 68.2663 123.849 68.3725C124.246 68.5603 124.762 68.7737 125.155 68.9156C125.231 68.9435 125.309 68.97 125.387 68.9949C125.655 69.082 125.928 69.1555 126.201 69.2239C126.363 69.2646 126.557 69.3102 126.752 69.3532C126.967 69.401 127.182 69.4451 127.352 69.4759C127.394 69.4837 127.434 69.4906 127.47 69.4961C127.656 69.5263 127.912 69.5112 128.046 69.5237C127.962 69.5465 127.878 69.5685 127.794 69.5898C127.666 69.6222 127.537 69.653 127.408 69.6817C127.049 69.7618 126.685 69.8272 126.317 69.8783C126.144 69.9022 125.97 69.9231 125.795 69.9404C125.504 69.9694 125.21 69.9893 124.914 69.9995C124.755 70.0051 124.594 70.008 124.433 70.008C124.346 70.008 124.259 70.0073 124.172 70.0054C123.722 69.997 123.276 69.9661 122.836 69.9147C122.462 69.8709 122.092 69.8118 121.727 69.7383C121.323 69.6567 120.924 69.5571 120.532 69.4403C119.687 69.189 118.874 68.8583 118.099 68.4559C116.861 67.8132 115.722 66.9883 114.711 66.0138C113.839 65.1724 113.062 64.2192 112.402 63.176C111.478 61.7165 110.781 60.0803 110.366 58.325C110.079 57.1102 109.926 55.8385 109.926 54.5292C109.926 54.3088 109.931 54.0898 109.939 53.8715C109.991 52.5601 110.196 51.2909 110.535 50.0835C110.918 48.7213 111.471 47.4375 112.17 46.2613C113.261 44.4237 114.705 42.8481 116.4 41.6425C117.681 40.7312 119.105 40.0319 120.628 39.5906C121.19 39.4278 121.765 39.2996 122.351 39.2096L122.351 39.2099Z" fill="#E9E8E8"/>
<path d="M129.726 8.22113C129.851 8.25346 129.972 8.3038 130.088 8.3626C130.128 8.38281 130.167 8.40412 130.206 8.42616C130.356 8.51215 130.504 8.61871 130.63 8.73629C130.751 8.84947 130.861 8.97623 130.948 9.1166C130.952 9.12174 130.955 9.12689 130.958 9.1324C131.063 9.30473 131.166 9.55092 131.255 9.76735C131.321 9.9305 131.393 10.1164 131.459 10.3042C131.489 10.392 131.518 10.4806 131.544 10.5673C131.665 10.9748 131.848 11.5976 132.067 12.3454C132.223 12.8807 132.398 13.4804 132.582 14.1117C132.74 14.6551 132.905 15.2221 133.072 15.7917C133.399 16.9131 133.729 18.0441 134.018 19.0263C134.3 19.9861 134.542 20.8033 134.703 21.3287C134.767 21.5375 134.843 21.7576 134.924 21.9758C135.083 22.4057 135.258 22.8294 135.388 23.1476C135.461 23.3284 135.539 23.5176 135.62 23.7003C135.701 23.8821 135.785 24.0574 135.872 24.2106C135.986 24.4113 136.126 24.613 136.268 24.7927C136.323 24.8629 136.378 24.9297 136.433 24.9915C136.606 25.1892 136.812 25.3802 137.015 25.5239C137.02 25.5272 137.025 25.5313 137.03 25.5346C137.228 25.6727 137.462 25.7521 137.678 25.8609C137.833 25.9395 138.019 26.0284 138.205 26.1217C138.317 26.178 138.429 26.236 138.535 26.2941C138.825 26.4539 139.133 26.6428 139.421 26.8199C139.487 26.8607 139.553 26.9018 139.618 26.9437C139.834 27.0797 140.047 27.2193 140.261 27.3578C140.456 27.4842 140.671 27.6375 140.887 27.7808C141.011 27.8627 141.136 27.9417 141.258 28.0097C141.429 28.1052 141.622 28.2004 141.808 28.2849C141.977 28.3621 142.141 28.4304 142.278 28.4819C142.334 28.5028 142.392 28.5219 142.451 28.5392C142.631 28.5914 142.821 28.6277 142.979 28.6571C143.05 28.6704 143.122 28.6799 143.194 28.6884C143.309 28.702 143.426 28.7104 143.542 28.7156C143.736 28.7236 143.993 28.7405 144.231 28.7262C144.275 28.7236 144.317 28.7203 144.359 28.7152C144.573 28.6898 144.833 28.6303 145.094 28.5708C145.23 28.5399 145.366 28.5087 145.496 28.4826C145.527 28.4764 145.56 28.4697 145.592 28.4631C145.743 28.4326 145.902 28.4014 146.064 28.3694C145.987 28.3224 145.891 28.2643 145.811 28.2129C145.8 28.2055 145.789 28.1982 145.778 28.1908C145.616 28.0843 145.396 27.9303 145.205 27.7995C145.188 27.7874 145.17 27.7749 145.152 27.7624C144.975 27.64 144.796 27.5107 144.614 27.3924C144.528 27.3369 144.438 27.281 144.347 27.2259C144.218 27.1473 144.086 27.069 143.957 26.9919C143.731 26.8566 143.488 26.71 143.256 26.5818C143.104 26.4973 142.948 26.4168 142.793 26.3371C142.718 26.2985 142.643 26.2599 142.568 26.2213C142.339 26.103 142.066 25.9755 141.88 25.8704C141.731 25.7863 141.588 25.6915 141.45 25.5908C141.43 25.5761 141.41 25.561 141.39 25.546C141.268 25.4552 141.143 25.3575 141.03 25.252C140.978 25.2035 140.923 25.1487 140.868 25.0922C140.778 24.9988 140.689 24.9011 140.62 24.8177C140.589 24.7802 140.56 24.7409 140.532 24.7016C140.474 24.62 140.42 24.5355 140.367 24.4502C140.287 24.3209 140.197 24.1765 140.13 24.0291C140.128 24.024 140.126 24.0188 140.123 24.0133C140.05 23.848 139.99 23.6437 139.929 23.4574C139.863 23.2597 139.797 23.0374 139.73 22.8272C139.669 22.6336 139.589 22.3778 139.494 22.0772C139.24 21.2703 138.883 20.1408 138.532 19.0252C138.181 17.9133 137.835 16.8157 137.598 16.0662C137.587 16.0334 137.577 16 137.566 15.9666C137.385 15.3945 137.179 14.7448 136.982 14.1253C136.771 13.4646 136.572 12.8392 136.427 12.381C136.399 12.2936 136.374 12.212 136.35 12.1378C136.226 11.7472 136.076 11.2434 135.983 10.9645C135.927 10.7958 135.862 10.6224 135.794 10.4655C135.79 10.4574 135.786 10.4493 135.783 10.4413C135.72 10.2976 135.65 10.1513 135.571 10.0216C135.49 9.88824 135.398 9.76147 135.296 9.64389C135.267 9.61082 135.235 9.57554 135.201 9.53953C135.103 9.43444 134.989 9.32311 134.892 9.24117C134.776 9.14342 134.638 9.05854 134.515 8.98652C134.425 8.93398 134.33 8.88878 134.236 8.84579C134.21 8.8333 134.182 8.82117 134.156 8.80868C134.083 8.77524 134.011 8.74033 133.937 8.7091C133.893 8.69036 133.848 8.67309 133.802 8.65876C133.769 8.64847 133.726 8.63708 133.68 8.62606C133.549 8.59446 133.393 8.56543 133.393 8.56543C133.276 8.55183 133.158 8.53824 133.041 8.52464C132.699 8.48532 132.357 8.44564 132.015 8.40632C131.617 8.36039 131.219 8.31446 130.821 8.26853C130.815 8.26779 130.811 8.26743 130.806 8.26669C130.229 8.20349 129.653 8.14029 129.076 8.07672C129.013 8.08223 128.95 8.08774 128.886 8.09289C128.823 8.09583 128.759 8.09877 128.695 8.10171C128.827 8.10906 128.944 8.11641 129.041 8.12302C129.271 8.13845 129.532 8.16895 129.726 8.21929V8.22113Z" fill="#E9E8E8"/>
<mask id="mask0_5294_8989" style="mask-type:alpha" maskUnits="userSpaceOnUse" x="85" y="7" width="80" height="95">
<path d="M164.84 72.6214C164.822 72.4822 164.793 72.3444 164.752 72.2095C164.719 72.103 164.678 71.9898 164.63 71.8774C164.561 71.7149 164.476 71.554 164.372 71.4155C163.917 70.8118 162.799 69.5352 162.023 68.5861C161.442 67.8758 160.725 66.9848 160.011 66.0992C159.565 65.5451 159.119 64.9932 158.708 64.4894C158.413 64.1271 158.08 63.7207 157.741 63.3092C156.903 62.2917 156.032 61.2401 155.614 60.7279C155.467 60.5467 155.303 60.3755 155.191 60.1705C155.141 60.079 155.102 59.9801 155.067 59.8787C155.024 59.7523 154.987 59.6218 154.943 59.4962C154.861 59.2581 154.769 58.9722 154.695 58.7436C154.628 58.5375 154.524 58.3402 154.493 58.1256C154.493 58.1245 154.493 58.1234 154.492 58.1227C154.453 57.853 154.459 57.4579 154.459 57.1258C154.461 56.6801 154.492 56.0095 154.504 55.4517C154.517 54.8693 154.525 54.2391 154.538 53.6313C154.551 53.0236 154.567 52.2637 154.58 51.8051C154.589 51.4961 154.588 51.1867 154.616 50.8792C154.641 50.5679 154.687 50.2585 154.752 49.9532C154.799 49.7522 154.864 49.556 154.945 49.366C154.964 49.3219 154.983 49.2778 155.004 49.2341C155.121 48.9853 155.271 48.68 155.461 48.4386C155.466 48.4319 155.471 48.4246 155.476 48.4184C156.228 47.4876 158.133 45.2142 159.794 43.2267C160.786 42.0398 161.691 40.9547 162.212 40.318C162.727 39.6892 163.351 38.8434 163.737 38.3374C163.773 38.2893 163.808 38.2437 163.84 38.2022C164.034 37.9494 164.279 37.6595 164.42 37.4427C164.535 37.2755 164.625 37.0925 164.688 36.8999C164.755 36.6795 164.789 36.4506 164.79 36.2202C164.79 36.215 164.79 36.2099 164.79 36.2047C164.789 35.9438 164.752 35.6844 164.68 35.4338C164.644 35.317 164.597 35.1726 164.543 35.0127C164.385 34.5442 164.162 33.9376 163.939 33.4647C163.85 33.2765 163.744 33.0586 163.626 32.8231C163.204 31.9824 162.634 30.9135 162.197 30.1363C162.163 30.0757 162.13 30.0165 162.097 29.96C161.623 29.1273 160.895 28.0444 160.56 27.53C160.418 27.3051 160.262 27.0894 160.093 26.884C160.076 26.8642 160.057 26.8447 160.039 26.8256C159.929 26.7139 159.799 26.6151 159.685 26.5276C159.559 26.431 159.425 26.3443 159.286 26.2686C159.271 26.2601 159.255 26.252 159.24 26.2439C159.04 26.1352 158.834 26.0378 158.623 25.9537C158.438 25.889 158.248 25.8434 158.055 25.8159C158.043 25.814 158.032 25.8118 158.02 25.8104C157.858 25.7931 157.695 25.7946 157.533 25.8148C157.336 25.835 157.067 25.8835 156.837 25.9305C156.499 25.9992 155.953 26.1282 155.511 26.2278C155.05 26.3321 154.534 26.449 154.072 26.5552C153.857 26.6048 153.639 26.6562 153.422 26.7069C153.192 26.7613 152.963 26.815 152.74 26.8653C152.322 26.9594 151.897 27.0465 151.483 27.1383C151.07 27.2302 150.657 27.3268 150.243 27.4205C149.698 27.5447 148.781 27.7531 148.208 27.882C148.152 27.8949 148.095 27.9078 148.037 27.9202C147.625 28.0132 147.205 28.108 146.806 28.1925C146.364 28.2859 145.89 28.3759 145.48 28.4593C145.102 28.5361 144.67 28.6526 144.345 28.6915C144.078 28.7235 143.764 28.7011 143.535 28.6915C143.348 28.6853 143.161 28.6658 142.977 28.6335C142.967 28.6316 142.956 28.6294 142.945 28.6276C142.742 28.5897 142.494 28.5401 142.281 28.46C141.97 28.341 141.667 28.2028 141.373 28.047C141.337 28.0283 141.302 28.0092 141.266 27.9897C140.933 27.803 140.578 27.537 140.272 27.3386C139.993 27.1578 139.719 26.9781 139.431 26.8006C139.143 26.6232 138.835 26.4343 138.544 26.2741C138.392 26.1903 138.227 26.1073 138.067 26.0286C137.932 25.9617 137.8 25.8982 137.686 25.8401C137.471 25.7317 137.239 25.6535 137.042 25.516C136.824 25.3606 136.626 25.1798 136.45 24.9781C136.409 24.9314 136.37 24.8837 136.33 24.8355C136.176 24.6448 136.035 24.4431 135.91 24.2318C135.905 24.2222 135.899 24.2127 135.893 24.2031C135.72 23.8974 135.558 23.5031 135.41 23.1438C135.376 23.0593 135.338 22.9674 135.299 22.87C135.114 22.4144 134.883 21.8375 134.727 21.3279C134.517 20.6407 134.167 19.4553 133.771 18.1039C133.176 16.0719 132.477 13.6658 131.994 12.0152C131.818 11.4141 131.671 10.9125 131.568 10.5664C131.487 10.2937 131.376 10.0038 131.278 9.76352C131.189 9.54562 131.085 9.29796 130.98 9.12416C130.887 8.97498 130.775 8.83902 130.645 8.71997C130.514 8.59908 130.37 8.49325 130.215 8.40506C130.17 8.37824 130.124 8.35362 130.077 8.33047C129.965 8.27536 129.848 8.23053 129.728 8.19672C129.502 8.14418 129.272 8.11111 129.041 8.09788C128.95 8.09163 128.841 8.08502 128.72 8.07804C128.211 8.04864 127.479 8.01483 126.902 8.00528C126.714 8.00197 126.507 8.0005 126.292 8.00014C125.616 7.99867 124.861 8.00932 124.342 8.01924C123.933 8.02696 123.492 8.04901 123.097 8.06995C122.994 8.07546 122.895 8.08061 122.8 8.08538C122.392 8.1067 121.896 8.1416 121.574 8.16328C121.339 8.17835 121.074 8.19047 120.869 8.21509C120.76 8.22612 120.651 8.24339 120.543 8.26543C120.477 8.27903 120.411 8.29373 120.346 8.31137C120.131 8.3764 119.922 8.45687 119.72 8.55204C119.609 8.60679 119.501 8.66706 119.395 8.73136C119.328 8.77251 119.262 8.81477 119.196 8.8596C119.099 8.92941 119.009 9.00915 118.928 9.09734C118.925 9.10101 118.921 9.10395 118.918 9.10763C118.82 9.21345 118.73 9.32736 118.651 9.44825C118.535 9.6283 118.429 9.81496 118.335 10.0075C118.252 10.192 118.18 10.3816 118.119 10.5748C118.107 10.6123 118.093 10.6542 118.079 10.6983C117.968 11.0511 117.807 11.5967 117.671 12.0259C117.497 12.5712 117.264 13.2576 117.082 13.8484C116.996 14.127 116.915 14.4103 116.834 14.6921C116.748 14.9886 116.664 15.2833 116.578 15.5699C116.413 16.1156 116.23 16.6976 116.072 17.204C115.925 17.6717 115.764 18.1774 115.63 18.6062C115.591 18.7282 115.552 18.8509 115.514 18.9736C115.429 19.2433 115.344 19.5134 115.262 19.7776C115.145 20.1553 115.019 20.5643 114.914 20.9115C114.818 21.2275 114.724 21.5593 114.632 21.8603C114.588 22.0058 114.542 22.1491 114.496 22.2935C114.452 22.4339 114.407 22.5746 114.363 22.7179C114.274 23.0089 114.195 23.329 114.09 23.6064C114.045 23.7346 113.993 23.861 113.937 23.9852C113.876 24.1205 113.808 24.2535 113.736 24.3828C113.597 24.6158 113.432 24.8322 113.245 25.0288C113.143 25.1357 113.035 25.2375 112.923 25.3345C112.809 25.4341 112.689 25.5282 112.566 25.6167C112.408 25.7299 112.237 25.8276 112.064 25.9228C111.971 25.9742 111.877 26.0246 111.785 26.076C111.509 26.2296 111.177 26.3854 110.909 26.5379C110.657 26.6805 110.42 26.8344 110.172 26.9917C110.126 27.0207 110.08 27.0501 110.034 27.0799C109.826 27.2125 109.612 27.3522 109.418 27.4833C109.354 27.5271 109.286 27.5741 109.217 27.6219C109.045 27.7417 108.871 27.8662 108.747 27.9544C108.622 28.043 108.492 28.1396 108.376 28.2241C108.26 28.3086 108.148 28.3968 108.031 28.4813C107.914 28.5659 107.786 28.6596 107.672 28.7301C107.596 28.7797 107.518 28.8245 107.436 28.8646C107.407 28.8789 107.378 28.8921 107.348 28.905C107.195 28.9638 107.038 29.013 106.879 29.052C106.784 29.0759 106.674 29.0987 106.571 29.1174C106.5 29.1306 106.432 29.142 106.374 29.1505C106.26 29.1648 106.145 29.1714 106.03 29.1707C105.906 29.1732 105.744 29.1721 105.597 29.1637C105.588 29.1633 105.578 29.1626 105.569 29.1622C105.377 29.1552 105.187 29.1358 104.998 29.1045C104.881 29.0814 104.737 29.0516 104.572 29.0174C104.144 28.9282 103.575 28.8062 102.98 28.6783C102.363 28.5456 101.719 28.4067 101.173 28.2914C100.87 28.2271 100.539 28.1572 100.196 28.0849C99.334 27.9026 98.3871 27.7023 97.5614 27.5293C97.185 27.4503 96.8337 27.3772 96.5273 27.314C95.8854 27.1824 95.0807 27.0251 94.4439 26.9024C94.1445 26.8447 93.8823 26.7948 93.6915 26.7587C93.4452 26.7106 93.1623 26.6603 92.9498 26.6371C92.7723 26.6202 92.5941 26.6143 92.4158 26.6191C92.274 26.6191 92.1326 26.6316 91.993 26.6559C91.9864 26.6573 91.9798 26.6592 91.9732 26.6606C91.8328 26.693 91.6944 26.7341 91.5596 26.7845C91.4546 26.8183 91.353 26.8613 91.2554 26.9131C91.1114 26.9899 90.9747 27.0795 90.847 27.1809C90.8285 27.1964 90.8094 27.2129 90.7899 27.2298C90.6503 27.3507 90.4835 27.5061 90.363 27.6671C90.2967 27.7553 90.2249 27.8644 90.1513 27.9823C90.0261 28.183 89.8942 28.4108 89.7719 28.611C89.7314 28.6772 89.6909 28.7437 89.65 28.8102C89.4957 29.0626 89.3422 29.3169 89.1963 29.5741C89.0788 29.7803 88.9371 30.0294 88.7912 30.2907C88.6472 30.5493 88.4992 30.8194 88.3677 31.0707C88.076 31.6274 87.6028 32.5585 87.2636 33.2391C87.1896 33.3879 87.1218 33.5246 87.064 33.6429C86.8404 34.0985 86.5893 34.6376 86.428 35.026C86.3005 35.3354 86.165 35.6995 86.0965 35.974C86.0796 36.0416 86.067 36.1136 86.0571 36.1864C86.0335 36.3572 86.0258 36.5332 86.0192 36.6721C86.0107 36.8345 86.0184 36.9973 86.042 37.1583C86.0685 37.317 86.1098 37.4732 86.1654 37.6242C86.1727 37.6451 86.1808 37.6661 86.1886 37.6867C86.2379 37.8186 86.2957 37.9468 86.3631 38.0703C86.4655 38.2595 86.5808 38.4414 86.7079 38.6148C86.9303 38.9106 87.3704 39.4324 87.6989 39.8436C88.0587 40.2948 88.592 40.972 89.1135 41.629C89.3153 41.8833 89.5153 42.1343 89.7027 42.3683C90.1167 42.8846 90.5788 43.4519 91.0108 43.9836C91.2907 44.3279 91.5577 44.6579 91.7909 44.9485C92.2843 45.5651 92.8843 46.339 93.2577 46.8093C93.5129 47.1315 93.7902 47.4703 94.0311 47.7702C94.255 48.0491 94.5091 48.3603 94.7017 48.608C94.8671 48.8214 95.0597 49.0596 95.186 49.2572C95.2928 49.4281 95.3849 49.6082 95.4604 49.7948C95.5436 49.9943 95.6118 50.1997 95.6648 50.4096C95.6677 50.4213 95.6699 50.4331 95.6725 50.4448C95.7186 50.6425 95.751 50.8435 95.7686 51.046C95.783 51.2492 95.7841 51.4527 95.772 51.6559C95.7558 52.0355 95.6869 52.7675 95.6714 53.3249C95.6644 53.574 95.6604 53.8562 95.6589 54.1439C95.6567 54.575 95.6604 55.0196 95.6688 55.3892C95.6806 55.8871 95.7322 56.4916 95.7532 56.9082C95.755 56.9479 95.7569 56.9865 95.7583 57.0225C95.7694 57.3066 95.7812 57.6321 95.7646 57.875C95.7477 58.0793 95.7119 58.2814 95.6578 58.4791C95.6118 58.6525 95.5558 58.8234 95.4906 58.9909C95.4755 59.0299 95.4604 59.0688 95.4446 59.1071C95.3819 59.2559 95.3112 59.401 95.2324 59.5421C95.2107 59.5811 95.189 59.6196 95.1661 59.6582C95.0755 59.7993 94.9757 59.9342 94.8678 60.0624C94.8012 60.1462 94.7242 60.2425 94.6395 60.3487C94.202 60.8973 93.538 61.7281 92.7834 62.6731C91.7831 63.925 90.6234 65.3757 89.6191 66.6324C88.7319 67.7421 87.9663 68.7004 87.5391 69.2354C87.5262 69.2519 87.5125 69.2685 87.4993 69.2854C87.2555 69.5904 86.9594 69.9593 86.7878 70.1768C86.6773 70.3194 86.5513 70.4572 86.4563 70.6133C86.4037 70.699 86.355 70.7868 86.3097 70.8764C86.253 70.9885 86.2015 71.1028 86.1565 71.2204C86.1138 71.3435 86.0796 71.4695 86.0534 71.597C86.0368 71.6789 86.0232 71.7616 86.0136 71.845C85.9978 72.0159 85.996 72.1879 86.007 72.3591C86.0081 72.3771 86.0089 72.3951 86.01 72.4127C86.0125 72.5615 86.0328 72.7096 86.07 72.8537C86.1392 73.0833 86.2939 73.4838 86.4265 73.7907C86.5797 74.1449 86.8423 74.7365 87.0953 75.2895C87.2257 75.5746 87.3538 75.8498 87.4628 76.0769C87.7416 76.6579 88.041 77.2289 88.3485 77.7951C88.5533 78.1717 88.8372 78.6799 89.102 79.1473C89.3068 79.5089 89.5005 79.8458 89.6375 80.0799C89.8246 80.3988 90.0408 80.756 90.236 81.0132C90.4072 81.237 90.5995 81.4439 90.8105 81.6309C90.9107 81.7154 91.0182 81.7907 91.1313 81.8569C91.1953 81.8944 91.2609 81.9285 91.3283 81.9598C91.5198 82.0487 91.7201 82.1178 91.9256 82.1655C92.1035 82.2049 92.2851 82.2247 92.4674 82.2254C92.7219 82.2309 93.1273 82.2394 93.4518 82.1887C94.0267 82.099 95.0951 81.8587 95.916 81.6893C96.7136 81.5247 98.0439 81.2499 99.2165 81.0059C99.872 80.8696 100.479 80.7424 100.914 80.6502C101.68 80.4878 102.59 80.278 103.208 80.1424C103.628 80.0501 104.098 79.9351 104.486 79.862C104.534 79.8532 104.58 79.8447 104.625 79.837C104.974 79.7826 105.325 79.7459 105.678 79.7268C105.855 79.7147 106.033 79.7128 106.21 79.7205C106.279 79.7235 106.348 79.7279 106.417 79.7338C106.581 79.7525 106.739 79.8028 106.896 79.8543C106.913 79.8598 106.93 79.8653 106.947 79.8708C107.136 79.9274 107.32 79.9998 107.497 80.0872C107.729 80.2184 107.953 80.3628 108.169 80.5197C108.457 80.7233 108.892 81.0709 109.23 81.3087C109.249 81.3219 109.268 81.3344 109.287 81.3476C109.588 81.5563 109.902 81.7566 110.203 81.9473C110.478 82.1214 110.799 82.3188 111.053 82.4691C111.095 82.4937 111.135 82.5168 111.172 82.5385C111.38 82.6583 111.599 82.7586 111.809 82.874C112.032 82.9967 112.296 83.1213 112.511 83.2727C112.511 83.2727 112.511 83.2727 112.511 83.273C112.721 83.4263 112.918 83.5968 113.1 83.7823C113.223 83.9032 113.337 84.0329 113.442 84.1696C113.47 84.2056 113.497 84.2416 113.523 84.2784C113.642 84.4448 113.744 84.623 113.826 84.8104C113.933 85.0533 114.056 85.4197 114.154 85.7291C114.366 86.3945 114.785 87.7486 115.173 89.0016C115.328 89.5057 115.479 89.9933 115.61 90.4129C115.948 91.502 116.313 92.6735 116.64 93.7302C116.723 93.9981 116.804 94.259 116.881 94.5089C117.221 95.613 117.674 97.1001 117.895 97.824C117.908 97.8659 117.921 97.9092 117.934 97.953C118.027 98.2668 118.124 98.6144 118.217 98.8528C118.3 99.0656 118.407 99.2681 118.536 99.4562C118.546 99.4694 118.555 99.4826 118.564 99.4959C118.698 99.6866 118.852 99.8626 119.024 100.02C119.211 100.184 119.418 100.324 119.642 100.435C119.866 100.541 120.101 100.619 120.344 100.668C120.611 100.725 120.938 100.745 121.237 100.773C121.609 100.808 122.132 100.853 122.581 100.877C123.033 100.902 123.734 100.938 124.396 100.965C124.739 100.979 125.071 100.99 125.352 100.995C126.074 101.009 126.886 100.992 127.518 100.97C128.062 100.95 128.821 100.888 129.147 100.86C129.258 100.85 129.375 100.844 129.479 100.801C129.508 100.788 129.536 100.773 129.565 100.759C129.688 100.696 129.808 100.623 129.921 100.542C130.002 100.485 130.097 100.421 130.192 100.351C130.291 100.277 130.391 100.197 130.476 100.112C130.651 99.9394 130.865 99.7395 130.968 99.4984C131.192 98.9778 131.557 97.8335 131.815 96.9884C132.264 95.5186 133.227 92.1484 133.903 89.8893C134.075 89.3109 134.229 88.805 134.35 88.4232C134.64 87.5108 135.104 86.3897 135.386 85.7438C135.568 85.3274 135.856 84.8453 136.04 84.5481C136.148 84.3761 136.29 84.1997 136.414 84.0524C136.441 84.0204 136.467 83.9892 136.492 83.9602C136.546 83.8911 136.604 83.8246 136.665 83.7614C136.727 83.6963 136.792 83.6346 136.86 83.5754C136.93 83.5196 137.003 83.4678 137.079 83.4185C137.17 83.3594 137.263 83.305 137.36 83.2565C137.672 83.0963 138.294 82.8571 138.74 82.6157C138.788 82.5899 138.837 82.5628 138.887 82.5345C139.236 82.3375 139.646 82.0832 140.031 81.8455C140.207 81.7367 140.378 81.6313 140.535 81.5368C140.885 81.3259 141.302 81.0577 141.646 80.8508C141.795 80.7612 141.931 80.6825 142.041 80.6259C142.252 80.5175 142.488 80.4643 142.718 80.411C142.77 80.4003 142.822 80.3908 142.873 80.3816C143.006 80.3577 143.14 80.3379 143.275 80.3224C143.327 80.3165 143.379 80.311 143.432 80.3063C143.629 80.2813 143.827 80.271 144.025 80.275C144.303 80.2897 144.58 80.3213 144.854 80.3691C145.187 80.4282 145.634 80.5436 146.024 80.63C146.071 80.6403 146.12 80.6513 146.173 80.6627C147.257 80.9023 149.544 81.409 151.45 81.8304C152.409 82.0424 153.271 82.2332 153.835 82.3574C154.376 82.4764 155.013 82.6175 155.567 82.7384C155.903 82.8115 156.209 82.8777 156.444 82.9269C156.821 83.0059 157.314 83.1062 157.578 83.143C157.726 83.1621 157.876 83.1654 158.026 83.1529C158.028 83.1529 158.031 83.1525 158.033 83.1521C158.242 83.1378 158.45 83.1084 158.655 83.0643C158.809 83.0305 158.958 82.9805 159.101 82.9159C159.128 82.9037 159.155 82.8909 159.182 82.8777C159.368 82.7814 159.542 82.6631 159.7 82.5253C159.893 82.3566 160.066 82.1659 160.215 81.9576C160.351 81.7602 160.541 81.4637 160.749 81.1337C161.002 80.7296 161.28 80.275 161.51 79.8907C161.889 79.2579 162.49 78.2665 163.015 77.3645C163.313 76.8522 163.586 76.3683 163.781 75.9957C164.029 75.521 164.28 74.9121 164.475 74.4069C164.579 74.1372 164.667 73.8969 164.729 73.7216C164.813 73.4824 164.857 73.231 164.86 72.9775C164.862 72.8584 164.855 72.7398 164.84 72.6222L164.84 72.6214ZM138.737 57.0813C138.643 57.6832 138.517 58.2729 138.361 58.8491C138.153 59.6127 137.892 60.352 137.582 61.0619C137.551 61.1332 137.519 61.2037 137.487 61.2743C137.444 61.3705 137.399 61.4664 137.353 61.562C137.291 61.6924 137.227 61.8214 137.161 61.9496C137.027 62.212 136.885 62.4699 136.737 62.7227C136.665 62.8451 136.592 62.9664 136.517 63.0865C136.427 63.2313 136.335 63.3742 136.24 63.5153C136.133 63.6759 136.023 63.8339 135.91 63.9901C135.784 64.1635 135.655 64.3344 135.523 64.5019C135.37 64.6952 135.213 64.8844 135.052 65.0693C134.906 65.2368 134.756 65.4011 134.603 65.5617C134.532 65.637 134.459 65.7119 134.386 65.7854C134.26 65.9118 134.133 66.036 134.003 66.158C133.853 66.2988 133.701 66.4362 133.546 66.5703C133.389 66.7055 133.23 66.8374 133.068 66.966C132.462 67.4467 131.82 67.878 131.147 68.2547C130.684 68.5137 130.207 68.7467 129.716 68.9521C129.227 69.1571 128.724 69.3346 128.21 69.4827C127.935 69.5621 127.657 69.6326 127.375 69.6951C127.022 69.773 126.665 69.8373 126.303 69.8873C125.801 69.9567 125.291 69.9986 124.774 70.0118C124.658 70.0148 124.541 70.0162 124.424 70.0162C124.078 70.0162 123.734 70.003 123.394 69.9773C123.155 69.9593 122.918 69.9354 122.682 69.9053C122.409 69.8704 122.137 69.8274 121.868 69.7763C121.52 69.7101 121.176 69.6304 120.836 69.5382C120.517 69.4515 120.203 69.3534 119.892 69.2446C119.683 69.1707 119.474 69.0925 119.269 69.0087C119.153 68.9617 119.037 68.9128 118.923 68.8628C118.663 68.7489 118.406 68.6273 118.154 68.4979C117.875 68.3546 117.6 68.2021 117.331 68.0405C117.032 67.8611 116.739 67.6708 116.454 67.4702C116.15 67.2563 115.854 67.0303 115.566 66.7933C115.348 66.6137 115.135 66.4277 114.927 66.2356C114.776 66.0963 114.629 65.9537 114.484 65.8078C114.297 65.6201 114.114 65.4268 113.937 65.2287C113.679 64.941 113.431 64.6423 113.195 64.334C113.065 64.1657 112.939 63.9945 112.817 63.8207C112.494 63.3614 112.194 62.8822 111.919 62.3851C111.788 62.1477 111.662 61.9063 111.543 61.6612C111.483 61.5381 111.424 61.4139 111.367 61.2886C111.312 61.1673 111.258 61.045 111.205 60.9219C111.117 60.7132 111.032 60.5019 110.952 60.2888C110.886 60.1128 110.823 59.9353 110.762 59.756C110.726 59.6465 110.69 59.5366 110.656 59.4264C110.631 59.3477 110.607 59.2687 110.584 59.1897C110.548 59.067 110.513 58.9435 110.479 58.8193C110.409 58.5581 110.344 58.2943 110.287 58.0275C110.265 57.9298 110.245 57.8313 110.226 57.7328C110.061 56.8965 109.96 56.0356 109.927 55.1555C109.919 54.9505 109.916 54.7443 109.916 54.5371C109.916 54.0925 109.934 53.6523 109.968 53.2172C110.063 52.0149 110.288 50.8516 110.626 49.743C110.705 49.4865 110.789 49.2334 110.88 48.9828C110.931 48.8405 110.984 48.6994 111.039 48.5595C111.08 48.4569 111.121 48.3548 111.163 48.2534C111.211 48.1387 111.26 48.0252 111.31 47.912C111.388 47.7371 111.469 47.564 111.553 47.3928C111.617 47.2616 111.683 47.1312 111.75 47.0022C111.833 46.8442 111.918 46.6877 112.006 46.533C112.045 46.4646 112.084 46.3963 112.124 46.3287C112.162 46.2647 112.2 46.2015 112.238 46.1383C112.34 45.9704 112.445 45.8051 112.552 45.6419C112.62 45.5387 112.69 45.4365 112.76 45.3351C112.853 45.2013 112.948 45.0691 113.045 44.9386C113.205 44.7226 113.371 44.5113 113.541 44.3048C113.669 44.1497 113.8 43.9976 113.934 43.848C114.021 43.7518 114.108 43.6566 114.197 43.5625C114.288 43.4655 114.381 43.37 114.474 43.2759C114.646 43.1032 114.822 42.9349 115.001 42.7714C115.097 42.6832 115.195 42.5961 115.294 42.5109C115.53 42.3066 115.772 42.1104 116.02 41.9219C116.133 41.8355 116.248 41.751 116.364 41.6683C116.999 41.2153 117.668 40.814 118.367 40.4704C118.556 40.3775 118.748 40.2886 118.941 40.204C119.132 40.121 119.324 40.0424 119.518 39.9678C119.708 39.895 119.9 39.8259 120.093 39.7616C120.29 39.6962 120.488 39.6349 120.688 39.5783C120.894 39.5199 121.102 39.4658 121.312 39.4166C121.445 39.3854 121.58 39.3563 121.715 39.3291C121.928 39.2862 122.143 39.2479 122.359 39.2152C122.502 39.1936 122.645 39.1741 122.789 39.1568C122.906 39.1429 123.023 39.1304 123.141 39.1193C123.308 39.1039 123.475 39.0914 123.643 39.0819C123.839 39.0708 124.035 39.0635 124.233 39.0609C124.296 39.0602 124.359 39.0594 124.423 39.0594C124.515 39.0594 124.606 39.0605 124.698 39.0624C125.055 39.069 125.409 39.0885 125.761 39.1204C126.009 39.1432 126.256 39.1719 126.501 39.2072C126.764 39.2446 127.025 39.2891 127.283 39.3405C127.486 39.381 127.688 39.4258 127.889 39.475C128.143 39.5371 128.394 39.6058 128.643 39.6812C128.931 39.7682 129.215 39.8638 129.495 39.9685C130.124 40.2029 130.733 40.4811 131.319 40.8C131.964 41.151 132.58 41.5511 133.162 41.9979C133.632 42.3591 134.08 42.7505 134.503 43.1708C134.736 43.403 134.962 43.6441 135.179 43.8932C135.26 43.9862 135.34 44.0803 135.419 44.1754C135.501 44.2746 135.582 44.3757 135.661 44.4775C135.77 44.6186 135.878 44.7619 135.982 44.9074C136.094 45.0632 136.203 45.2219 136.309 45.3829C136.407 45.5317 136.503 45.6823 136.596 45.8356C136.708 46.0208 136.817 46.2089 136.921 46.4C137.02 46.5804 137.115 46.7637 137.207 46.9493C137.328 47.1936 137.443 47.4424 137.552 47.6948C137.619 47.8499 137.684 48.0061 137.746 48.1641C137.802 48.3067 137.857 48.45 137.909 48.5947C137.94 48.68 137.97 48.766 137.999 48.8519C138.032 48.9486 138.064 49.046 138.096 49.1437C138.204 49.4773 138.301 49.8161 138.389 50.1593C138.744 51.5597 138.93 53.0335 138.93 54.5378C138.93 55.4043 138.863 56.2542 138.735 57.0821L138.737 57.0813Z" fill="black" stroke="black" stroke-width="0.25"/>
</mask>
<g mask="url(#mask0_5294_8989)">
<g filter="url(#filter0_f_5294_8989)">
<path d="M117.837 375.959C136.462 371.239 155.071 366.285 173.703 361.681C191.429 357.194 193.503 343.521 190.306 301.874C182.861 206.075 177.118 109.715 170.88 13.4839C169.786 -3.15177 163.682 -15.2912 157.251 -13.6204C111.518 -1.73793 65.7395 10.1563 19.9908 21.8061L117.837 375.959Z" fill="#FFB9F8"/>
</g>
<g filter="url(#filter1_f_5294_8989)">
<path d="M51.6301 -9.85439C51.2327 -12.3033 49.8819 -13.5467 48.8451 -16.5088C44.7975 -19.4515 49.1068 -21.3455 52.9093 -20.2208C58.2642 -18.6369 57.4092 -16.1235 59.5133 -13.1973C63.2027 -8.06634 65.0253 -4.4957 70.1813 0.558643C73.97 4.27265 86.1377 9.79145 91.4944 11.8315C99.4742 14.8706 99.347 24.3045 101.298 29.107C104.109 36.0273 103.605 41.5992 109.828 48.4943C115.996 55.3265 124.67 60.7465 132.422 66.5498C140.997 72.9699 147.306 77.8207 150.805 86.4332C153.774 93.7428 145.502 95.3327 140.782 97.6649C136.133 99.9617 146.794 121.531 140.782 119.506C133.004 116.886 109.684 106.866 103.498 102.004C96.6124 96.5923 98.1282 69.2146 91.4944 64.0008C86.2249 59.8593 65.9961 61.5006 61.4959 46.9992C58.8188 35.684 65.9988 27.2426 54.3635 15.8367C49.9265 11.4872 51.5627 3.33385 52.1123 -0.80003C52.5437 -4.04452 52.1724 -6.51269 51.6301 -9.85439Z" fill="#71BBFF"/>
</g>
<g filter="url(#filter2_f_5294_8989)">
<path d="M152.349 106.906C139.614 86.147 116.367 53.9015 96.8454 43.0453C92.2818 51.807 102.674 60.7171 108.891 69.5858C113.807 76.5998 116.394 89.3743 121.897 95.4718L149 125.507C159.599 131.732 146.141 118.824 152.349 106.906Z" fill="#0A9F68"/>
</g>
<g filter="url(#filter3_f_5294_8989)">
<path d="M188.388 114.547C188.373 115.603 187.658 116.625 187.633 117.732C187.609 118.838 187.677 121.768 187.153 122.303C186.397 123.076 185.937 124.695 184.211 124.716C182.543 124.737 180.9 123.529 179.593 122.772C174.798 119.992 170.779 116.25 166.437 113.052C164.241 111.435 161.523 110.371 159.19 108.84C158.053 108.094 157.824 107.26 156.369 106.717C154.971 106.196 153.877 105.353 152.704 104.584C149.867 102.722 146.62 101.941 143.213 100.799C139.452 99.5378 135.457 96.3261 132.681 94.0383C123.811 86.7274 121.546 76.7391 116.557 67.7121C114.622 64.2104 113.661 60.4181 111.278 57.0685C108.767 53.5402 105.015 51.0281 101.131 48.4793C94.5071 44.1328 87.0283 39.547 81.9438 34.0183C79.5876 31.4563 77.8143 28.7947 77.6377 25.4614C77.4472 21.8686 83.0011 17.3027 87.2573 16.149C89.6206 15.5085 93.7713 16.4043 96.0464 16.9093C98.4593 17.4449 100.74 18.2023 103 18.9987C111.435 21.9721 118.251 27.4726 123.268 33.4151C129.566 40.8751 139.005 43.7192 147.88 48.7821C152.138 51.211 155.857 54.1169 159.571 56.9665C162.033 58.8553 162.501 62.435 163.723 64.8791C167.157 71.7469 166.765 79.3483 172.021 85.5271C174.461 88.3956 177.162 91.2351 180.49 93.4976C182.3 94.7282 185.067 96.5066 185.886 98.3963C187.41 101.909 189.694 105.931 188.84 109.836C188.529 111.261 188.408 113.136 188.388 114.547Z" fill="#FFE665"/>
</g>
</g>
<mask id="mask1_5294_8989" style="mask-type:alpha" maskUnits="userSpaceOnUse" x="0" y="0" width="255" height="120">
<rect width="255" height="120" rx="4" fill="#F5F5F5"/>
</mask>
<g mask="url(#mask1_5294_8989)">
<g filter="url(#filter4_f_5294_8989)">
<path fill-rule="evenodd" clip-rule="evenodd" d="M164.752 165.21C164.793 165.344 164.822 165.482 164.84 165.621C164.855 165.739 164.862 165.858 164.86 165.977C164.857 166.231 164.813 166.482 164.729 166.722C164.667 166.897 164.579 167.137 164.475 167.407C164.28 167.912 164.029 168.521 163.781 168.996C163.586 169.368 163.313 169.852 163.015 170.364C162.604 171.071 162.146 171.832 161.785 172.433C161.685 172.599 161.593 172.753 161.51 172.891C161.28 173.275 161.002 173.73 160.749 174.134C160.541 174.464 160.351 174.76 160.215 174.958C160.066 175.166 159.893 175.357 159.7 175.525C159.542 175.663 159.368 175.781 159.182 175.878C159.155 175.891 159.128 175.904 159.101 175.916C158.958 175.981 158.809 176.031 158.655 176.064C158.45 176.108 158.242 176.138 158.033 176.152C158.031 176.153 158.028 176.153 158.026 176.153C157.876 176.165 157.726 176.162 157.578 176.143C157.314 176.106 156.821 176.006 156.444 175.927C156.209 175.878 155.903 175.812 155.567 175.738C155.183 175.655 154.759 175.561 154.354 175.472C154.176 175.432 154.001 175.394 153.835 175.357C153.271 175.233 152.409 175.042 151.45 174.83C150.509 174.622 149.474 174.393 148.538 174.186C147.578 173.974 146.721 173.784 146.173 173.663C146.133 173.654 146.095 173.646 146.058 173.637L146.024 173.63C145.889 173.6 145.748 173.567 145.606 173.533C145.338 173.47 145.072 173.408 144.854 173.369C144.58 173.321 144.303 173.29 144.025 173.275C143.827 173.271 143.629 173.281 143.432 173.306C143.379 173.311 143.327 173.317 143.275 173.322C143.14 173.338 143.006 173.358 142.873 173.382C142.822 173.391 142.77 173.4 142.718 173.411L142.706 173.414C142.479 173.466 142.248 173.519 142.041 173.626C141.931 173.683 141.795 173.761 141.646 173.851C141.473 173.955 141.282 174.074 141.091 174.194C140.9 174.313 140.71 174.432 140.535 174.537C140.378 174.631 140.207 174.737 140.031 174.845L139.962 174.888C139.597 175.113 139.215 175.349 138.887 175.534C138.837 175.563 138.788 175.59 138.74 175.616C138.48 175.757 138.16 175.897 137.876 176.021C137.674 176.109 137.49 176.19 137.36 176.256C137.263 176.305 137.17 176.359 137.079 176.419C137.003 176.468 136.93 176.52 136.86 176.575C136.792 176.635 136.727 176.696 136.665 176.761C136.604 176.825 136.546 176.891 136.492 176.96L136.414 177.052C136.29 177.2 136.148 177.376 136.04 177.548C135.856 177.845 135.568 178.327 135.386 178.744C135.104 179.39 134.64 180.511 134.35 181.423C134.229 181.805 134.075 182.311 133.903 182.889C133.581 183.965 133.194 185.292 132.829 186.546C132.427 187.927 132.05 189.218 131.815 189.988C131.557 190.834 131.192 191.978 130.968 192.498C130.873 192.722 130.682 192.91 130.515 193.074C130.502 193.087 130.489 193.099 130.476 193.112C130.391 193.197 130.291 193.277 130.192 193.351C130.116 193.407 130.04 193.459 129.971 193.507C129.954 193.519 129.937 193.53 129.921 193.542C129.808 193.623 129.688 193.696 129.565 193.759C129.536 193.773 129.508 193.788 129.479 193.801C129.385 193.84 129.28 193.849 129.179 193.857C129.168 193.858 129.158 193.859 129.147 193.86C128.821 193.888 128.062 193.95 127.518 193.97C126.886 193.992 126.074 194.009 125.352 193.995C125.071 193.99 124.739 193.979 124.396 193.965C123.734 193.938 123.033 193.902 122.581 193.877C122.132 193.853 121.609 193.808 121.237 193.773C121.178 193.767 121.118 193.762 121.057 193.757C120.811 193.735 120.558 193.713 120.344 193.668C120.101 193.619 119.866 193.541 119.642 193.435C119.418 193.324 119.211 193.184 119.024 193.02C118.852 192.863 118.698 192.687 118.564 192.496L118.536 192.456C118.407 192.268 118.3 192.066 118.217 191.853C118.142 191.662 118.066 191.401 117.99 191.144C117.971 191.08 117.953 191.016 117.934 190.953C117.921 190.909 117.908 190.866 117.895 190.824C117.859 190.705 117.816 190.565 117.769 190.41C117.528 189.621 117.165 188.431 116.881 187.509C116.804 187.259 116.723 186.998 116.64 186.73C116.444 186.098 116.235 185.425 116.026 184.753C115.886 184.301 115.746 183.851 115.61 183.413C115.479 182.993 115.328 182.506 115.173 182.002L115.115 181.815C114.744 180.616 114.356 179.362 114.154 178.729C114.056 178.42 113.933 178.053 113.826 177.81C113.744 177.623 113.642 177.445 113.523 177.278C113.497 177.242 113.47 177.206 113.442 177.17C113.337 177.033 113.223 176.903 113.1 176.782C112.918 176.597 112.721 176.426 112.511 176.273C112.354 176.162 112.171 176.066 111.997 175.974C111.933 175.94 111.869 175.907 111.809 175.874C111.717 175.824 111.624 175.776 111.531 175.729C111.41 175.668 111.29 175.606 111.172 175.539C111.162 175.532 111.151 175.526 111.14 175.52C111.112 175.503 111.083 175.487 111.053 175.469C110.799 175.319 110.478 175.121 110.203 174.947C109.902 174.757 109.588 174.556 109.287 174.348C109.268 174.334 109.249 174.322 109.23 174.309C109.051 174.183 108.845 174.026 108.647 173.876C108.472 173.743 108.304 173.615 108.169 173.52C107.953 173.363 107.729 173.218 107.497 173.087C107.32 173 107.136 172.927 106.947 172.871L106.896 172.854C106.739 172.803 106.581 172.753 106.417 172.734C106.348 172.728 106.279 172.723 106.21 172.721C106.033 172.713 105.855 172.715 105.678 172.727C105.325 172.746 104.974 172.783 104.625 172.837C104.58 172.845 104.534 172.853 104.486 172.862C104.226 172.911 103.93 172.979 103.636 173.046C103.491 173.079 103.347 173.112 103.208 173.142C102.979 173.193 102.709 173.253 102.422 173.318C101.935 173.427 101.396 173.548 100.914 173.65C100.479 173.742 99.872 173.87 99.2165 174.006C98.0439 174.25 96.7136 174.525 95.916 174.689C95.6814 174.738 95.4267 174.792 95.1691 174.847C94.5249 174.984 93.8624 175.125 93.4518 175.189C93.1273 175.239 92.7219 175.231 92.4674 175.225C92.2851 175.225 92.1035 175.205 91.9256 175.166C91.7201 175.118 91.5198 175.049 91.3283 174.96C91.2609 174.929 91.1953 174.894 91.1313 174.857C91.0182 174.791 90.9107 174.715 90.8105 174.631C90.5995 174.444 90.4072 174.237 90.236 174.013C90.0408 173.756 89.8246 173.399 89.6375 173.08C89.5005 172.846 89.3068 172.509 89.102 172.147C88.8372 171.68 88.5533 171.172 88.3485 170.795C88.041 170.229 87.7416 169.658 87.4628 169.077C87.3538 168.85 87.2257 168.575 87.0953 168.289C86.8423 167.736 86.5797 167.145 86.4265 166.791C86.2939 166.484 86.1392 166.083 86.07 165.854C86.0328 165.71 86.0125 165.562 86.01 165.413C86.0094 165.404 86.0089 165.395 86.0085 165.385C86.008 165.377 86.0076 165.368 86.007 165.359C85.996 165.188 85.9978 165.016 86.0136 164.845C86.0232 164.762 86.0368 164.679 86.0534 164.597C86.0796 164.469 86.1138 164.343 86.1565 164.22C86.2015 164.103 86.253 163.988 86.3097 163.876C86.355 163.787 86.4037 163.699 86.4563 163.613C86.5232 163.503 86.6053 163.403 86.6866 163.303C86.7209 163.261 86.755 163.219 86.7878 163.177C86.9159 163.014 87.1135 162.768 87.3068 162.526C87.3724 162.444 87.4375 162.363 87.4993 162.285C87.5056 162.277 87.512 162.269 87.5183 162.262C87.5253 162.253 87.5323 162.244 87.5391 162.235C87.9663 161.7 88.7319 160.742 89.6191 159.632C89.9963 159.16 90.3954 158.661 90.7998 158.155C91.472 157.314 92.1588 156.455 92.7834 155.673C93.0743 155.309 93.3518 154.961 93.608 154.641C94.0163 154.129 94.3707 153.686 94.6395 153.349C94.6696 153.311 94.6987 153.275 94.7267 153.239C94.7776 153.176 94.8248 153.116 94.8678 153.062C94.9757 152.934 95.0755 152.799 95.1661 152.658C95.189 152.62 95.2107 152.581 95.2324 152.542C95.3112 152.401 95.3819 152.256 95.4446 152.107C95.4604 152.069 95.4754 152.03 95.4905 151.991L95.4906 151.991C95.5558 151.823 95.6118 151.653 95.6578 151.479C95.7119 151.281 95.7477 151.079 95.7646 150.875C95.7812 150.632 95.7694 150.307 95.7583 150.023C95.7571 149.993 95.7556 149.961 95.7541 149.928L95.7532 149.908C95.7457 149.759 95.7343 149.587 95.7222 149.404C95.7004 149.074 95.6764 148.709 95.6688 148.389C95.6604 148.02 95.6567 147.575 95.6589 147.144C95.6604 146.856 95.6644 146.574 95.6714 146.325C95.6807 145.991 95.7091 145.595 95.7339 145.249C95.7505 145.017 95.7655 144.808 95.772 144.656C95.7841 144.453 95.783 144.249 95.7686 144.046C95.751 143.844 95.7186 143.643 95.6725 143.445C95.6707 143.437 95.6691 143.428 95.6673 143.42C95.6665 143.417 95.6657 143.413 95.6648 143.41C95.6118 143.2 95.5436 142.994 95.4604 142.795C95.3849 142.608 95.2928 142.428 95.186 142.257C95.0834 142.097 94.937 141.909 94.797 141.73C94.7647 141.689 94.7327 141.648 94.7017 141.608C94.5644 141.431 94.3957 141.222 94.229 141.016C94.162 140.933 94.0953 140.85 94.0311 140.77C93.9439 140.662 93.852 140.548 93.7581 140.432C93.5924 140.227 93.4206 140.015 93.2577 139.809C93.1065 139.619 92.9181 139.379 92.7147 139.119C92.4159 138.738 92.0845 138.315 91.7909 137.949C91.5577 137.658 91.2907 137.328 91.0108 136.984C90.9441 136.901 90.8767 136.819 90.8088 136.735C90.4372 136.278 90.0527 135.805 89.7027 135.368C89.5153 135.134 89.3153 134.883 89.1135 134.629C88.8822 134.338 88.6486 134.042 88.4289 133.764C88.1531 133.416 87.8991 133.095 87.6989 132.844C87.5701 132.682 87.4242 132.504 87.2809 132.329C87.0588 132.058 86.8431 131.795 86.7079 131.615C86.5808 131.441 86.4655 131.26 86.3631 131.07C86.2957 130.947 86.2379 130.819 86.1886 130.687C86.1867 130.682 86.1849 130.677 86.183 130.672C86.177 130.656 86.171 130.64 86.1654 130.624C86.1098 130.473 86.0685 130.317 86.042 130.158C86.0184 129.997 86.0107 129.835 86.0192 129.672L86.02 129.656C86.0264 129.519 86.0345 129.35 86.0571 129.186C86.067 129.114 86.0796 129.042 86.0965 128.974C86.165 128.699 86.3005 128.335 86.428 128.026C86.5893 127.638 86.8404 127.099 87.064 126.643C87.1218 126.525 87.1896 126.388 87.2636 126.239C87.6028 125.559 88.076 124.627 88.3677 124.071C88.4992 123.819 88.6472 123.549 88.7912 123.291C88.9371 123.029 89.0788 122.78 89.1963 122.574C89.3422 122.317 89.4957 122.063 89.65 121.81C89.6755 121.769 89.7008 121.727 89.726 121.686C89.7413 121.661 89.7566 121.636 89.7719 121.611C89.8229 121.528 89.8756 121.439 89.9287 121.35C90.003 121.226 90.0783 121.099 90.1513 120.982C90.2249 120.864 90.2967 120.755 90.363 120.667C90.4835 120.506 90.6503 120.351 90.7899 120.23C90.8094 120.213 90.8285 120.196 90.847 120.181C90.9747 120.08 91.1114 119.99 91.2554 119.913C91.353 119.861 91.4546 119.818 91.5596 119.784C91.6944 119.734 91.8328 119.693 91.9732 119.661C91.9765 119.66 91.9798 119.659 91.9831 119.658C91.9864 119.657 91.9897 119.657 91.993 119.656C92.1326 119.632 92.274 119.619 92.4158 119.619C92.5941 119.614 92.7723 119.62 92.9498 119.637C93.1623 119.66 93.4452 119.711 93.6915 119.759C93.8823 119.795 94.1445 119.845 94.4439 119.902C95.0807 120.025 95.8854 120.182 96.5273 120.314C96.8337 120.377 97.185 120.45 97.5614 120.529C98.3393 120.692 99.2247 120.879 100.045 121.053L100.196 121.085C100.539 121.157 100.87 121.227 101.173 121.291C101.683 121.399 102.28 121.528 102.86 121.652L102.98 121.678C103.575 121.806 104.144 121.928 104.572 122.017C104.737 122.052 104.881 122.081 104.998 122.105C105.187 122.136 105.377 122.155 105.569 122.162C105.573 122.162 105.578 122.163 105.582 122.163C105.587 122.163 105.592 122.164 105.597 122.164C105.744 122.172 105.906 122.173 106.03 122.171C106.145 122.171 106.26 122.165 106.374 122.15C106.432 122.142 106.5 122.131 106.571 122.117C106.674 122.099 106.784 122.076 106.879 122.052C107.038 122.013 107.195 121.964 107.348 121.905C107.378 121.892 107.407 121.879 107.436 121.865C107.518 121.825 107.596 121.78 107.672 121.73C107.776 121.666 107.892 121.582 108.001 121.503C108.011 121.496 108.021 121.489 108.031 121.481C108.094 121.436 108.156 121.389 108.218 121.342C108.27 121.303 108.323 121.263 108.376 121.224C108.401 121.206 108.428 121.186 108.454 121.167C108.549 121.098 108.65 121.024 108.747 120.954C108.766 120.941 108.787 120.926 108.808 120.911C108.925 120.828 109.072 120.723 109.217 120.622C109.286 120.574 109.354 120.527 109.418 120.483C109.612 120.352 109.826 120.213 110.034 120.08C110.08 120.05 110.126 120.021 110.172 119.992C110.211 119.967 110.249 119.943 110.287 119.919C110.494 119.787 110.696 119.658 110.909 119.538C111.05 119.458 111.208 119.377 111.367 119.295C111.51 119.222 111.654 119.149 111.785 119.076C111.837 119.047 111.89 119.018 111.943 118.989C111.983 118.967 112.024 118.945 112.064 118.923C112.237 118.828 112.408 118.73 112.566 118.617C112.689 118.528 112.809 118.434 112.923 118.335C113.035 118.238 113.143 118.136 113.245 118.029C113.432 117.832 113.597 117.616 113.736 117.383C113.808 117.253 113.876 117.12 113.937 116.985C113.993 116.861 114.045 116.735 114.09 116.606C114.161 116.419 114.22 116.212 114.279 116.008C114.307 115.91 114.335 115.812 114.363 115.718C114.407 115.575 114.452 115.434 114.496 115.294C114.503 115.273 114.509 115.253 114.515 115.233C114.555 115.109 114.594 114.986 114.632 114.86C114.681 114.701 114.73 114.533 114.78 114.364C114.824 114.213 114.869 114.06 114.914 113.912C115.019 113.564 115.145 113.155 115.262 112.778C115.344 112.513 115.429 112.243 115.514 111.974C115.552 111.851 115.591 111.728 115.63 111.606C115.713 111.34 115.807 111.045 115.9 110.748C115.958 110.565 116.016 110.382 116.072 110.204C116.101 110.111 116.131 110.016 116.161 109.919C116.296 109.485 116.443 109.016 116.578 108.57C116.66 108.296 116.741 108.015 116.822 107.732L116.834 107.692C116.915 107.41 116.996 107.127 117.082 106.848C117.195 106.481 117.328 106.077 117.454 105.693C117.531 105.459 117.605 105.232 117.671 105.026C117.742 104.803 117.819 104.549 117.892 104.307C117.961 104.082 118.026 103.868 118.079 103.698C118.092 103.659 118.104 103.621 118.115 103.586L118.119 103.575C118.18 103.382 118.252 103.192 118.335 103.008C118.429 102.815 118.535 102.628 118.651 102.448C118.73 102.327 118.82 102.213 118.918 102.108C118.92 102.106 118.921 102.104 118.923 102.102C118.925 102.101 118.926 102.099 118.928 102.097C119.009 102.009 119.099 101.929 119.196 101.86C119.262 101.815 119.328 101.773 119.395 101.731C119.501 101.667 119.609 101.607 119.72 101.552C119.922 101.457 120.131 101.376 120.346 101.311C120.411 101.294 120.477 101.279 120.543 101.265C120.651 101.243 120.76 101.226 120.869 101.215C121.027 101.196 121.221 101.185 121.41 101.173C121.466 101.17 121.521 101.167 121.574 101.163C121.625 101.16 121.679 101.156 121.737 101.152C122.049 101.131 122.455 101.103 122.8 101.085C122.895 101.081 122.994 101.075 123.097 101.07C123.492 101.049 123.933 101.027 124.342 101.019C124.861 101.009 125.616 100.999 126.292 101C126.507 101.001 126.714 101.002 126.902 101.005C127.479 101.015 128.211 101.049 128.72 101.078C128.792 101.082 128.859 101.086 128.921 101.09C128.973 101.086 129.025 101.081 129.077 101.077C129.653 101.14 130.23 101.203 130.806 101.267C130.809 101.267 130.811 101.267 130.814 101.268C130.816 101.268 130.819 101.268 130.821 101.269L132.015 101.406C132.186 101.426 132.357 101.446 132.528 101.465C132.699 101.485 132.87 101.505 133.042 101.525L133.394 101.565C133.394 101.565 133.549 101.594 133.681 101.626C133.727 101.637 133.77 101.648 133.803 101.659C133.848 101.673 133.893 101.69 133.938 101.709C133.99 101.731 134.041 101.755 134.092 101.779C134.114 101.789 134.135 101.799 134.156 101.809C134.171 101.816 134.187 101.823 134.202 101.83C134.214 101.835 134.225 101.84 134.237 101.846C134.33 101.889 134.426 101.934 134.515 101.987C134.638 102.059 134.776 102.143 134.892 102.241C134.989 102.323 135.103 102.434 135.201 102.54C135.235 102.576 135.267 102.611 135.296 102.644C135.398 102.761 135.491 102.888 135.572 103.022C135.65 103.151 135.72 103.298 135.783 103.441C135.787 103.449 135.79 103.457 135.794 103.466C135.863 103.622 135.927 103.796 135.983 103.964C136.038 104.129 136.113 104.372 136.19 104.623C136.244 104.798 136.3 104.978 136.35 105.138L136.427 105.381C136.573 105.839 136.772 106.465 136.982 107.125C137.179 107.745 137.385 108.394 137.567 108.967L137.598 109.066C137.835 109.816 138.182 110.913 138.532 112.025L139.495 115.077C139.589 115.378 139.67 115.634 139.731 115.827C139.754 115.901 139.778 115.977 139.801 116.053C139.844 116.191 139.887 116.329 139.929 116.457C139.943 116.499 139.956 116.541 139.97 116.584C140.018 116.733 140.067 116.885 140.124 117.013C140.124 117.015 140.125 117.017 140.126 117.019C140.128 117.022 140.129 117.026 140.131 117.029C140.196 117.173 140.283 117.314 140.361 117.441L140.367 117.45C140.42 117.535 140.474 117.62 140.532 117.702C140.561 117.741 140.59 117.78 140.621 117.818C140.69 117.901 140.778 117.999 140.869 118.092C140.923 118.149 140.978 118.203 141.031 118.252C141.144 118.357 141.268 118.455 141.39 118.546L141.451 118.591C141.589 118.691 141.732 118.786 141.881 118.87C141.996 118.935 142.143 119.009 142.294 119.083C142.387 119.129 142.481 119.176 142.569 119.221C142.643 119.26 142.718 119.298 142.794 119.337C142.949 119.417 143.104 119.497 143.257 119.582C143.465 119.697 143.683 119.828 143.889 119.951C143.912 119.965 143.935 119.978 143.957 119.992C143.99 120.012 144.024 120.031 144.057 120.051C144.154 120.109 144.251 120.167 144.347 120.226C144.438 120.281 144.529 120.337 144.614 120.392C144.744 120.476 144.872 120.566 144.998 120.655C145.05 120.691 145.101 120.727 145.152 120.762C145.17 120.775 145.188 120.787 145.206 120.8C145.261 120.837 145.318 120.877 145.375 120.916C145.518 121.015 145.663 121.115 145.778 121.191C145.789 121.198 145.801 121.206 145.812 121.213C145.881 121.257 145.961 121.306 146.032 121.349C146.288 121.299 146.552 121.246 146.806 121.193C147.183 121.113 147.578 121.024 147.968 120.936L148.037 120.92C148.074 120.912 148.111 120.904 148.148 120.896C148.168 120.891 148.188 120.887 148.208 120.882C148.781 120.753 149.698 120.545 150.243 120.421C150.4 120.385 150.557 120.349 150.714 120.313C150.97 120.254 151.227 120.195 151.483 120.138C151.674 120.096 151.868 120.054 152.063 120.013C152.289 119.964 152.516 119.916 152.74 119.865C152.963 119.815 153.192 119.761 153.422 119.707C153.483 119.693 153.544 119.679 153.604 119.664C153.76 119.628 153.917 119.591 154.072 119.555C154.532 119.449 155.046 119.333 155.506 119.229L155.511 119.228C155.646 119.197 155.791 119.164 155.937 119.131C156.268 119.055 156.603 118.978 156.837 118.931C157.067 118.883 157.336 118.835 157.533 118.815C157.695 118.795 157.858 118.793 158.02 118.81C158.028 118.811 158.035 118.813 158.043 118.814C158.047 118.815 158.051 118.815 158.055 118.816C158.248 118.843 158.438 118.889 158.623 118.954C158.834 119.038 159.04 119.135 159.24 119.244C159.245 119.247 159.25 119.249 159.255 119.252C159.265 119.258 159.276 119.263 159.286 119.269C159.425 119.344 159.559 119.431 159.685 119.528L159.686 119.529C159.8 119.616 159.929 119.714 160.039 119.826C160.05 119.837 160.062 119.849 160.073 119.861C160.08 119.869 160.086 119.876 160.093 119.884C160.262 120.089 160.418 120.305 160.56 120.53C160.624 120.627 160.701 120.745 160.788 120.878C161.161 121.445 161.713 122.285 162.097 122.96C162.121 123.001 162.144 123.043 162.169 123.086C162.178 123.103 162.188 123.119 162.197 123.136C162.634 123.913 163.204 124.982 163.626 125.823C163.744 126.059 163.85 126.277 163.939 126.465C164.162 126.938 164.385 127.544 164.543 128.013C164.597 128.173 164.644 128.317 164.68 128.434C164.752 128.684 164.789 128.944 164.79 129.205V129.22C164.789 129.451 164.755 129.679 164.688 129.9C164.625 130.092 164.535 130.275 164.42 130.443C164.324 130.591 164.179 130.773 164.035 130.954C163.968 131.038 163.902 131.122 163.84 131.202C163.819 131.23 163.796 131.259 163.773 131.29C163.761 131.305 163.749 131.321 163.737 131.337C163.645 131.457 163.541 131.596 163.427 131.747C163.062 132.232 162.605 132.838 162.212 133.318C161.691 133.955 160.786 135.04 159.794 136.227C159.595 136.464 159.393 136.706 159.19 136.949C157.694 138.739 156.138 140.599 155.476 141.418C155.473 141.422 155.47 141.426 155.467 141.43C155.465 141.433 155.463 141.436 155.461 141.439C155.271 141.68 155.121 141.985 155.004 142.234C154.983 142.278 154.964 142.322 154.945 142.366C154.864 142.556 154.799 142.752 154.752 142.953C154.687 143.259 154.641 143.568 154.616 143.879C154.596 144.105 154.591 144.332 154.586 144.558C154.584 144.641 154.582 144.723 154.58 144.805C154.567 145.264 154.551 146.024 154.538 146.631C154.531 146.924 154.526 147.221 154.521 147.516C154.516 147.834 154.511 148.149 154.504 148.452C154.499 148.678 154.491 148.923 154.483 149.165C154.471 149.517 154.46 149.861 154.459 150.126C154.459 150.162 154.459 150.199 154.459 150.236C154.458 150.542 154.458 150.882 154.492 151.123C154.493 151.123 154.493 151.124 154.493 151.126V151.126C154.514 151.268 154.566 151.403 154.619 151.539C154.646 151.607 154.673 151.675 154.695 151.744L154.71 151.789C154.781 152.009 154.866 152.273 154.943 152.496C154.965 152.56 154.986 152.625 155.006 152.69C155.026 152.753 155.046 152.816 155.067 152.879C155.102 152.98 155.141 153.079 155.191 153.17C155.276 153.327 155.392 153.463 155.507 153.599C155.543 153.642 155.579 153.685 155.614 153.728C155.865 154.035 156.279 154.537 156.751 155.109C157.066 155.49 157.406 155.902 157.741 156.309C158.08 156.721 158.413 157.127 158.708 157.489C159.119 157.993 159.565 158.545 160.011 159.099C160.14 159.259 160.269 159.419 160.397 159.578C160.98 160.301 161.547 161.004 162.023 161.586C162.341 161.975 162.716 162.419 163.08 162.85C163.604 163.469 164.103 164.059 164.372 164.415C164.476 164.554 164.561 164.715 164.63 164.877C164.678 164.99 164.719 165.103 164.752 165.21ZM138.361 151.849C138.517 151.273 138.643 150.683 138.737 150.081L138.735 150.082C138.863 149.254 138.93 148.404 138.93 147.538C138.93 146.034 138.744 144.56 138.389 143.159C138.301 142.816 138.204 142.477 138.096 142.144C138.064 142.046 138.032 141.949 137.999 141.852C137.97 141.766 137.94 141.68 137.909 141.595C137.857 141.45 137.802 141.307 137.746 141.164C137.684 141.006 137.619 140.85 137.552 140.695C137.443 140.442 137.328 140.194 137.207 139.949C137.115 139.764 137.02 139.58 136.921 139.4C136.817 139.209 136.708 139.021 136.596 138.836C136.503 138.682 136.407 138.532 136.309 138.383C136.203 138.222 136.094 138.063 135.982 137.907C135.878 137.762 135.77 137.619 135.661 137.477C135.582 137.376 135.501 137.275 135.419 137.175C135.34 137.08 135.26 136.986 135.179 136.893C134.962 136.644 134.736 136.403 134.503 136.171C134.08 135.75 133.632 135.359 133.162 134.998C132.58 134.551 131.964 134.151 131.319 133.8C130.733 133.481 130.124 133.203 129.495 132.969C129.215 132.864 128.931 132.768 128.643 132.681C128.394 132.606 128.143 132.537 127.889 132.475C127.688 132.426 127.486 132.381 127.283 132.341C127.025 132.289 126.764 132.245 126.501 132.207C126.256 132.172 126.009 132.143 125.761 132.12C125.409 132.088 125.055 132.069 124.698 132.062C124.606 132.061 124.515 132.059 124.423 132.059C124.359 132.059 124.296 132.06 124.233 132.061C124.035 132.063 123.839 132.071 123.643 132.082C123.475 132.091 123.308 132.104 123.141 132.119C123.023 132.13 122.906 132.143 122.789 132.157C122.645 132.174 122.502 132.194 122.359 132.215C122.143 132.248 121.928 132.286 121.715 132.329C121.58 132.356 121.445 132.385 121.312 132.417C121.102 132.466 120.894 132.52 120.688 132.578C120.488 132.635 120.29 132.696 120.093 132.762C119.9 132.826 119.708 132.895 119.518 132.968C119.324 133.042 119.132 133.121 118.941 133.204C118.748 133.289 118.556 133.377 118.367 133.47C117.668 133.814 116.999 134.215 116.364 134.668C116.248 134.751 116.133 134.836 116.02 134.922C115.772 135.11 115.53 135.307 115.294 135.511C115.195 135.596 115.097 135.683 115.001 135.771C114.822 135.935 114.646 136.103 114.474 136.276C114.381 136.37 114.288 136.466 114.197 136.563C114.108 136.657 114.021 136.752 113.934 136.848C113.8 136.998 113.669 137.15 113.541 137.305C113.371 137.511 113.205 137.723 113.045 137.939C112.948 138.069 112.853 138.201 112.76 138.335C112.69 138.437 112.62 138.539 112.552 138.642C112.445 138.805 112.34 138.97 112.238 139.138C112.2 139.202 112.162 139.265 112.124 139.329C112.084 139.396 112.045 139.465 112.006 139.533C111.918 139.688 111.833 139.844 111.75 140.002C111.683 140.131 111.617 140.262 111.553 140.393C111.469 140.564 111.388 140.737 111.31 140.912C111.26 141.025 111.211 141.139 111.163 141.253C111.121 141.355 111.08 141.457 111.039 141.559C110.984 141.699 110.931 141.841 110.88 141.983C110.789 142.233 110.705 142.487 110.626 142.743C110.288 143.852 110.063 145.015 109.968 146.217C109.934 146.652 109.916 147.092 109.916 147.537C109.916 147.744 109.919 147.95 109.927 148.156C109.96 149.036 110.061 149.896 110.226 150.733C110.245 150.831 110.265 150.93 110.287 151.027C110.344 151.294 110.409 151.558 110.479 151.819C110.513 151.944 110.548 152.067 110.584 152.19C110.607 152.269 110.631 152.348 110.656 152.426C110.69 152.537 110.726 152.646 110.762 152.756C110.823 152.935 110.886 153.113 110.952 153.289C111.032 153.502 111.117 153.713 111.205 153.922C111.258 154.045 111.312 154.167 111.367 154.289C111.424 154.414 111.483 154.538 111.543 154.661C111.662 154.906 111.788 155.148 111.919 155.385C112.194 155.882 112.494 156.361 112.817 156.821C112.939 156.994 113.065 157.166 113.195 157.334C113.431 157.642 113.679 157.941 113.937 158.229C114.114 158.427 114.297 158.62 114.484 158.808C114.629 158.954 114.776 159.096 114.927 159.236C115.135 159.428 115.348 159.614 115.566 159.793C115.854 160.03 116.15 160.256 116.454 160.47C116.739 160.671 117.032 160.861 117.331 161.04C117.6 161.202 117.875 161.355 118.154 161.498C118.406 161.627 118.663 161.749 118.923 161.863C119.037 161.913 119.153 161.962 119.269 162.009C119.474 162.092 119.683 162.171 119.892 162.245C120.203 162.353 120.517 162.451 120.836 162.538C121.176 162.63 121.52 162.71 121.868 162.776C122.137 162.827 122.409 162.87 122.682 162.905C122.918 162.935 123.155 162.959 123.394 162.977C123.734 163.003 124.078 163.016 124.424 163.016C124.541 163.016 124.658 163.015 124.774 163.012C125.291 162.999 125.801 162.957 126.303 162.887C126.665 162.837 127.022 162.773 127.375 162.695C127.657 162.633 127.935 162.562 128.21 162.483C128.724 162.335 129.227 162.157 129.716 161.952C130.207 161.747 130.684 161.514 131.147 161.255C131.82 160.878 132.462 160.447 133.068 159.966C133.23 159.837 133.389 159.706 133.546 159.57C133.701 159.436 133.853 159.299 134.003 159.158C134.133 159.036 134.26 158.912 134.386 158.785C134.459 158.712 134.532 158.637 134.603 158.562C134.756 158.401 134.906 158.237 135.052 158.069C135.213 157.884 135.37 157.695 135.523 157.502C135.655 157.334 135.784 157.164 135.91 156.99C136.023 156.834 136.133 156.676 136.24 156.515C136.335 156.374 136.427 156.231 136.517 156.087C136.592 155.966 136.665 155.845 136.737 155.723C136.885 155.47 137.027 155.212 137.161 154.95C137.227 154.821 137.291 154.692 137.353 154.562C137.399 154.466 137.444 154.371 137.487 154.274C137.519 154.204 137.551 154.133 137.582 154.062C137.892 153.352 138.153 152.613 138.361 151.849Z" fill="url(#paint0_linear_5294_8989)"/>
</g>
</g>
<defs>
<filter id="filter0_f_5294_8989" x="13.9902" y="-19.7742" width="183.562" height="401.734" filterUnits="userSpaceOnUse" color-interpolation-filters="sRGB">
<feFlood flood-opacity="0" result="BackgroundImageFix"/>
<feBlend mode="normal" in="SourceGraphic" in2="BackgroundImageFix" result="shape"/>
<feGaussianBlur stdDeviation="3" result="effect1_foregroundBlur_5294_8989"/>
</filter>
<filter id="filter1_f_5294_8989" x="41.2148" y="-26.5491" width="116.217" height="152.189" filterUnits="userSpaceOnUse" color-interpolation-filters="sRGB">
<feFlood flood-opacity="0" result="BackgroundImageFix"/>
<feBlend mode="normal" in="SourceGraphic" in2="BackgroundImageFix" result="shape"/>
<feGaussianBlur stdDeviation="3" result="effect1_foregroundBlur_5294_8989"/>
</filter>
<filter id="filter2_f_5294_8989" x="89.7207" y="37.0453" width="69.5039" height="96.0806" filterUnits="userSpaceOnUse" color-interpolation-filters="sRGB">
<feFlood flood-opacity="0" result="BackgroundImageFix"/>
<feBlend mode="normal" in="SourceGraphic" in2="BackgroundImageFix" result="shape"/>
<feGaussianBlur stdDeviation="3" result="effect1_foregroundBlur_5294_8989"/>
</filter>
<filter id="filter3_f_5294_8989" x="71.6328" y="9.92651" width="123.393" height="120.79" filterUnits="userSpaceOnUse" color-interpolation-filters="sRGB">
<feFlood flood-opacity="0" result="BackgroundImageFix"/>
<feBlend mode="normal" in="SourceGraphic" in2="BackgroundImageFix" result="shape"/>
<feGaussianBlur stdDeviation="3" result="effect1_foregroundBlur_5294_8989"/>
</filter>
<filter id="filter4_f_5294_8989" x="85" y="100" width="80.8613" height="95" filterUnits="userSpaceOnUse" color-interpolation-filters="sRGB">
<feFlood flood-opacity="0" result="BackgroundImageFix"/>
<feBlend mode="normal" in="SourceGraphic" in2="BackgroundImageFix" result="shape"/>
<feGaussianBlur stdDeviation="0.5" result="effect1_foregroundBlur_5294_8989"/>
</filter>
<linearGradient id="paint0_linear_5294_8989" x1="125.43" y1="101" x2="125.5" y2="119.5" gradientUnits="userSpaceOnUse">
<stop stop-color="#ABABAB" stop-opacity="0.64"/>
<stop offset="1" stop-color="#E9E8E8" stop-opacity="0"/>
</linearGradient>
</defs>
</svg>
