<svg width="20" height="20" viewBox="0 0 20 20" fill="none" xmlns="http://www.w3.org/2000/svg">
<path fill-rule="evenodd" clip-rule="evenodd" d="M11.8676 6.69919L10 2.95767L8.13012 6.70371L6.96697 6.12312L9.31368 1.42182C9.59442 0.859394 10.4056 0.859394 10.6863 1.42182L13.0308 6.11859C13.0445 6.14601 13.0709 6.16501 13.1015 6.1694L18.3439 6.92257C18.9716 7.01276 19.2223 7.7755 18.768 8.21329L14.9724 11.8714L14.0702 10.9354L17.0622 8.05179L12.9166 7.45619C12.4684 7.39179 12.0738 7.11229 11.8676 6.69919ZM14.9471 11.9483C14.9422 11.9201 14.9516 11.8914 14.9724 11.8714L14.0702 10.9354C13.741 11.2527 13.5871 11.7145 13.6662 12.1705C13.6662 12.1705 13.6662 12.1705 13.6662 12.1705L14.3757 16.2608L10.6388 14.3183C10.2384 14.1102 9.76161 14.1102 9.36124 14.3183L5.62426 16.2608L6.33319 12.174C6.41268 11.7158 6.25804 11.2517 5.9272 10.9329L2.93775 8.05179L7.08841 7.45547C7.53354 7.39152 7.92532 7.11398 8.13012 6.70371L6.96697 6.12312C6.9547 6.1477 6.93098 6.16474 6.90354 6.16868L1.65613 6.92257C1.02838 7.01276 0.777715 7.7755 1.23196 8.21329L5.02507 11.8689C5.0474 11.8904 5.05759 11.9215 5.05232 11.9518L4.15689 17.1137C4.04965 17.7319 4.70589 18.2033 5.26737 17.9114L9.96081 15.4718C9.98534 15.459 10.0147 15.459 10.0392 15.4718L14.7326 17.9114C15.2941 18.2033 15.9503 17.7319 15.8431 17.1137L14.9471 11.9483ZM14.5622 17.3359C14.5623 17.3361 14.5622 17.3357 14.5622 17.3359Z" fill="#FF6400"/>
</svg>
