<svg width="303" height="67" viewBox="0 0 303 67" fill="none" xmlns="http://www.w3.org/2000/svg">
<mask id="mask0_11470_5943" style="mask-type:alpha" maskUnits="userSpaceOnUse" x="0" y="0" width="303" height="67">
<rect width="303" height="67" rx="8" fill="#FAFAFA"/>
</mask>
<g mask="url(#mask0_11470_5943)">
<g filter="url(#filter0_f_11470_5943)">
<path d="M-258.191 91.3951C-261.198 92.2308 -262.795 95.0297 -262.169 98.3712C-252.082 152.23 -241.648 206.116 -231.78 259.957C-221.882 312.982 -197.787 323.493 -125.501 327.845C40.7643 337.588 208.206 352.462 375.366 365.856C404.262 368.125 424.728 354.35 421.062 335.1C395.694 201.873 370.301 68.5186 345.303 -64.6857C344.289 -70.0883 338.155 -74.3186 333.293 -72.9675L-258.191 91.3951Z" fill="#F5F5F5"/>
</g>
<g filter="url(#filter1_f_11470_5943)">
<path d="M-221.293 242.964C-221.311 242.976 -221.328 242.951 -221.313 242.934C-148.552 162.04 -47.833 71.1293 70.005 -18.813C90.3342 -34.3144 111.085 -49.7245 132.122 -65.0883C135.543 -67.5868 136.931 -72.5087 135.297 -76.3722C117.607 -118.202 99.7197 -159.911 81.5417 -201.47C79.505 -206.126 74.0351 -207.053 70.2729 -203.382L-264.659 123.369C-267.417 126.06 -268.343 130.408 -266.893 133.849C-251.589 170.158 -236.498 206.567 -221.285 242.937C-221.281 242.947 -221.285 242.959 -221.293 242.964Z" fill="#71BBFF"/>
</g>
<g filter="url(#filter2_f_11470_5943)">
<path d="M-247.181 152.827C-247.191 152.832 -247.194 152.817 -247.184 152.81C-196.075 113.893 -144.264 90.8324 -68.9136 49.1131C-56.5932 42.2977 -32.7675 20.6526 -17.0856 9.90579C-13.3718 7.36078 -10.5912 2.47826 -10.8349 -1.73795C-11.9706 -21.3862 -13.2006 -40.9923 -14.56 -60.5487C-14.9043 -65.5009 -19.2648 -67.288 -23.6504 -64.2841L-244.657 87.0906C-248.016 89.3918 -250.282 93.801 -250.071 97.6197C-249.058 115.999 -248.146 134.413 -247.173 152.814C-247.173 152.819 -247.176 152.825 -247.181 152.827Z" fill="#FFE665"/>
</g>
<g filter="url(#filter3_f_11470_5943)">
<path d="M6.91512 19.917L-64.4641 85.1043C-67.4486 87.83 -68.3843 92.2692 -66.6845 95.6387L-64.5879 99.7947C-62.7557 103.427 -58.466 104.648 -54.7413 102.598L76.7128 30.2473C78.0064 29.5353 79.1293 28.4775 79.9612 27.1872L100.995 -5.43985C104.714 -11.2083 101.199 -18.435 94.9366 -17.8984L69.5308 -15.7216C68.4014 -15.6249 67.2809 -15.2648 66.248 -14.667L8.44858 18.7904C7.90433 19.1055 7.38976 19.4835 6.91512 19.917Z" fill="#FFB9F8"/>
</g>
<g filter="url(#filter4_f_11470_5943)">
<path d="M-1.04807 40.6526L-30.3054 69.0599C-32.0798 70.7827 -32.6285 73.4746 -31.6295 75.5558C-30.4802 77.9502 -27.6744 78.7577 -25.2618 77.3883L28.6901 46.764C30.0511 45.9915 31.214 44.8361 32.0399 43.4359L36.2665 36.2703C39.6222 30.5812 36.2127 23.7592 30.1945 24.1208L27.5 24.2827C26.2681 24.3567 25.0409 24.7453 23.9213 25.416L0.57867 39.3992C-0.0035233 39.7479 -0.549977 40.169 -1.04807 40.6526Z" fill="#FFE665"/>
</g>
</g>
<defs>
<filter id="filter0_f_11470_5943" x="-274.304" y="-85.2213" width="707.792" height="463.322" filterUnits="userSpaceOnUse" color-interpolation-filters="sRGB">
<feFlood flood-opacity="0" result="BackgroundImageFix"/>
<feBlend mode="normal" in="SourceGraphic" in2="BackgroundImageFix" result="shape"/>
<feGaussianBlur stdDeviation="6" result="effect1_foregroundBlur_11470_5943"/>
</filter>
<filter id="filter1_f_11470_5943" x="-279.573" y="-217.639" width="427.554" height="472.606" filterUnits="userSpaceOnUse" color-interpolation-filters="sRGB">
<feFlood flood-opacity="0" result="BackgroundImageFix"/>
<feBlend mode="normal" in="SourceGraphic" in2="BackgroundImageFix" result="shape"/>
<feGaussianBlur stdDeviation="6" result="effect1_foregroundBlur_11470_5943"/>
</filter>
<filter id="filter2_f_11470_5943" x="-262.085" y="-77.7512" width="263.265" height="242.579" filterUnits="userSpaceOnUse" color-interpolation-filters="sRGB">
<feFlood flood-opacity="0" result="BackgroundImageFix"/>
<feBlend mode="normal" in="SourceGraphic" in2="BackgroundImageFix" result="shape"/>
<feGaussianBlur stdDeviation="6" result="effect1_foregroundBlur_11470_5943"/>
</filter>
<filter id="filter3_f_11470_5943" x="-79.5273" y="-29.9266" width="194.043" height="145.516" filterUnits="userSpaceOnUse" color-interpolation-filters="sRGB">
<feFlood flood-opacity="0" result="BackgroundImageFix"/>
<feBlend mode="normal" in="SourceGraphic" in2="BackgroundImageFix" result="shape"/>
<feGaussianBlur stdDeviation="6" result="effect1_foregroundBlur_11470_5943"/>
</filter>
<filter id="filter4_f_11470_5943" x="-44.1245" y="12.107" width="93.7114" height="77.947" filterUnits="userSpaceOnUse" color-interpolation-filters="sRGB">
<feFlood flood-opacity="0" result="BackgroundImageFix"/>
<feBlend mode="normal" in="SourceGraphic" in2="BackgroundImageFix" result="shape"/>
<feGaussianBlur stdDeviation="6" result="effect1_foregroundBlur_11470_5943"/>
</filter>
</defs>
</svg>
