<svg width="19" height="10" viewBox="0 0 19 10" fill="none" xmlns="http://www.w3.org/2000/svg">
<path d="M5.14385 9.09591C7.69985 9.09591 9.59585 7.27191 9.59585 4.79991C9.59585 2.32791 7.69985 0.503906 5.14385 0.503906C2.56385 0.503906 0.667847 2.33991 0.667847 4.79991C0.667847 7.25991 2.56385 9.09591 5.14385 9.09591ZM5.14385 8.02791C3.25985 8.02791 1.86785 6.65991 1.86785 4.79991C1.86785 2.93991 3.25985 1.57191 5.14385 1.57191C7.00385 1.57191 8.39585 2.93991 8.39585 4.79991C8.39585 6.65991 7.00385 8.02791 5.14385 8.02791Z" fill="currentColor"/>
<path d="M17.454 0.599906V6.86391L12.414 0.599906H11.43V8.99991H12.63V2.73591L17.67 8.99991H18.654V0.599906H17.454Z" fill="currentColor"/>
</svg>
