<svg width="26" height="26" viewBox="0 0 26 26" fill="none" xmlns="http://www.w3.org/2000/svg">
<path d="M5.5445 2.3491L7.0356 4.4798C5.22364 5.7483 3.86329 7.56146 3.15216 9.65588C2.44104 11.7503 2.41618 14.0169 3.0812 16.1264C3.74622 18.2359 5.06648 20.0785 6.85019 21.3864C8.63389 22.6944 10.7881 23.3995 13 23.3995C15.2119 23.3995 17.3661 22.6944 19.1498 21.3864C20.9335 20.0785 22.2538 18.2359 22.9188 16.1264C23.5838 14.0169 23.559 11.7503 22.8478 9.65588C22.1367 7.56146 20.7764 5.7483 18.9644 4.4798L20.4555 2.3491C22.1688 3.54695 23.5676 5.14079 24.5329 6.99513C25.4982 8.84946 26.0015 10.9095 26 13C26 20.1799 20.1799 26 13 26C5.8201 26 3.3673e-06 20.1799 3.3673e-06 13C-0.00150206 10.9095 0.501789 8.84946 1.46709 6.99513C2.4324 5.14079 3.83117 3.54695 5.5445 2.3491ZM11.7 13V0H14.3V13H11.7Z" fill="currentColor"/>
</svg>
