<svg width="335" height="88" viewBox="0 0 335 88" fill="none" xmlns="http://www.w3.org/2000/svg">
<mask id="mask0_13586_9262" style="mask-type:alpha" maskUnits="userSpaceOnUse" x="0" y="0" width="335" height="88">
<rect x="335" y="88" width="335" height="88" rx="8" transform="rotate(-180 335 88)" fill="#D9D9D9"/>
</mask>
<g mask="url(#mask0_13586_9262)">
<g filter="url(#filter0_f_13586_9262)">
<g filter="url(#filter1_f_13586_9262)">
<path d="M565.374 176.252C570.955 176.531 575.161 172.554 575.359 166.784C575.862 152.09 576.279 137.375 576.936 122.717C577.594 105.592 564.317 99.6343 521.077 89.9542C421.585 67.7685 322.025 43.9003 222.449 20.511C205.231 16.4817 191.105 18.2633 190.91 24.4891C189.674 63.9623 188.436 103.47 187.028 142.911C186.761 150.399 193.192 157.64 200.436 158.003L565.374 176.252Z" fill="#FFB9F8"/>
</g>
<g filter="url(#filter2_f_13586_9262)">
<path d="M362.677 261.06C368.152 262.947 374.251 260.735 377.184 255.778C385.389 241.918 393.505 228.007 401.854 214.228C411.33 198.364 400.283 188.653 359.318 166.149C265.019 114.452 206.017 91.0135 112.246 38.1609C104.94 34.0511 69.1346 43.6309 35.7131 51.2128C26.428 53.3192 -21.4435 104.883 -24.7371 113.677C-26.4453 118.238 -26.2519 126.987 -21.6072 128.588L362.677 261.06Z" fill="#FFB9F8"/>
</g>
<g filter="url(#filter3_f_13586_9262)">
<path d="M266.051 54.9037C266.061 54.9046 266.057 54.9172 266.046 54.9184C205.626 61.8255 130.358 64.8221 48.82 63.2108C37.2057 62.9772 25.5043 62.6519 13.7354 62.2619C7.23532 62.0465 -0.249585 66.1929 -3.33023 71.7446C-10.1497 84.034 -16.9045 96.3301 -23.5779 108.638C-27.0973 115.129 -23.0623 120.557 -15.1462 120.022L228.419 103.554C234.589 103.137 241.108 99.1687 243.941 94.1176C251.275 81.0447 258.68 67.9846 266.039 54.9103C266.041 54.9063 266.047 54.9033 266.051 54.9037Z" fill="#FFE665"/>
</g>
<g filter="url(#filter4_f_13586_9262)">
<path d="M111.381 24.8653C106.444 22.9539 100.919 21.8548 94.902 22.2663C55.93 24.9318 63.0116 45.2451 29.3087 51.123C17.4908 53.175 6.21113 62.5127 2.92503 73.4725C2.54362 74.7446 2.16252 76.0166 1.78171 77.2887C-3.72799 95.6942 11.9183 107.78 31.7964 100.55L74.7979 84.9073C96.7512 76.9215 125.297 57.6826 124.646 38.4652C124.589 36.7773 124.238 35.1125 123.512 33.4684C121.692 29.3407 117.312 27.1613 112.863 25.4391L111.381 24.8653Z" fill="#71BBFF"/>
</g>
<g filter="url(#filter5_f_13586_9262)">
<path d="M58.0701 63.8295L45.5154 83.077C43.074 86.8201 45.3444 91.2569 49.7011 91.2567C50.0611 91.2566 50.4243 91.2245 50.786 91.1606L82.8349 85.5033L102.828 68.5204L88.923 60.5338L58.0701 63.8295Z" fill="#0A9F68"/>
</g>
<g filter="url(#filter6_f_13586_9262)">
<path d="M187.271 39.9252L134.18 29.6681C124.638 27.8246 114.323 30.0104 107.883 35.2402C96.0641 44.8381 102.602 59.4154 120.177 62.6502L172.844 72.3444L225.214 54.0281L224.391 35.9254L187.271 39.9252Z" fill="#FFB9F8"/>
</g>
</g>
</g>
<defs>
<filter id="filter0_f_13586_9262" x="-49.7246" y="-5.6452" width="650.684" height="291.374" filterUnits="userSpaceOnUse" color-interpolation-filters="sRGB">
<feFlood flood-opacity="0" result="BackgroundImageFix"/>
<feBlend mode="normal" in="SourceGraphic" in2="BackgroundImageFix" result="shape"/>
<feGaussianBlur stdDeviation="12" result="effect1_foregroundBlur_13586_9262"/>
</filter>
<filter id="filter1_f_13586_9262" x="147.02" y="-21.6452" width="469.939" height="237.911" filterUnits="userSpaceOnUse" color-interpolation-filters="sRGB">
<feFlood flood-opacity="0" result="BackgroundImageFix"/>
<feBlend mode="normal" in="SourceGraphic" in2="BackgroundImageFix" result="shape"/>
<feGaussianBlur stdDeviation="20" result="effect1_foregroundBlur_13586_9262"/>
</filter>
<filter id="filter2_f_13586_9262" x="-29.7246" y="33.1742" width="438.754" height="232.555" filterUnits="userSpaceOnUse" color-interpolation-filters="sRGB">
<feFlood flood-opacity="0" result="BackgroundImageFix"/>
<feBlend mode="normal" in="SourceGraphic" in2="BackgroundImageFix" result="shape"/>
<feGaussianBlur stdDeviation="2" result="effect1_foregroundBlur_13586_9262"/>
</filter>
<filter id="filter3_f_13586_9262" x="-28.8594" y="50.9037" width="298.916" height="73.1546" filterUnits="userSpaceOnUse" color-interpolation-filters="sRGB">
<feFlood flood-opacity="0" result="BackgroundImageFix"/>
<feBlend mode="normal" in="SourceGraphic" in2="BackgroundImageFix" result="shape"/>
<feGaussianBlur stdDeviation="2" result="effect1_foregroundBlur_13586_9262"/>
</filter>
<filter id="filter4_f_13586_9262" x="-3.33594" y="18.1804" width="131.994" height="88.4936" filterUnits="userSpaceOnUse" color-interpolation-filters="sRGB">
<feFlood flood-opacity="0" result="BackgroundImageFix"/>
<feBlend mode="normal" in="SourceGraphic" in2="BackgroundImageFix" result="shape"/>
<feGaussianBlur stdDeviation="2" result="effect1_foregroundBlur_13586_9262"/>
</filter>
<filter id="filter5_f_13586_9262" x="40.5156" y="56.5338" width="66.3125" height="38.7228" filterUnits="userSpaceOnUse" color-interpolation-filters="sRGB">
<feFlood flood-opacity="0" result="BackgroundImageFix"/>
<feBlend mode="normal" in="SourceGraphic" in2="BackgroundImageFix" result="shape"/>
<feGaussianBlur stdDeviation="2" result="effect1_foregroundBlur_13586_9262"/>
</filter>
<filter id="filter6_f_13586_9262" x="97.9043" y="25.0232" width="131.311" height="51.3212" filterUnits="userSpaceOnUse" color-interpolation-filters="sRGB">
<feFlood flood-opacity="0" result="BackgroundImageFix"/>
<feBlend mode="normal" in="SourceGraphic" in2="BackgroundImageFix" result="shape"/>
<feGaussianBlur stdDeviation="2" result="effect1_foregroundBlur_13586_9262"/>
</filter>
</defs>
</svg>
