<svg width="287" height="120" viewBox="0 0 287 120" fill="none" xmlns="http://www.w3.org/2000/svg">
<mask id="mask0_3948_1917" style="mask-type:alpha" maskUnits="userSpaceOnUse" x="0" y="0" width="287" height="120">
<rect width="287" height="120" transform="matrix(1 0 0 -1 0 120)" fill="white"/>
</mask>
<g mask="url(#mask0_3948_1917)">
<mask id="mask1_3948_1917" style="mask-type:alpha" maskUnits="userSpaceOnUse" x="46" y="8" width="126" height="54">
<path d="M46 8H171.889V61.7778H46V8Z" fill="#D9D9D9"/>
</mask>
<g mask="url(#mask1_3948_1917)">
<mask id="mask2_3948_1917" style="mask-type:alpha" maskUnits="userSpaceOnUse" x="73" y="32" width="72" height="72">
<ellipse cx="108.967" cy="67.9739" rx="35.365" ry="35.3596" fill="#D9D9D9"/>
</mask>
<g mask="url(#mask2_3948_1917)">
<g filter="url(#filter0_f_3948_1917)">
<path d="M34.7879 10.2564C33.9324 19.4091 33.1531 28.5962 32.2596 37.7316C31.4437 46.4413 35.5412 49.7932 49.2284 55.7561C80.7244 69.4317 112.183 83.9662 143.664 98.257C149.108 100.72 153.754 100.149 154.036 96.9821C156.044 74.456 158.054 51.9078 160.138 29.4162L34.7879 10.2564Z" fill="#FFB9F8"/>
</g>
<g filter="url(#filter1_f_3948_1917)">
<path d="M77.1895 103.959C77.1853 103.961 77.1836 103.955 77.1874 103.952C92.8186 91.4051 113.398 78.6849 136.651 67.4256C144.224 63.7642 149.626 55.0127 149.051 46.895C148.302 36.3158 138.043 32.148 128.662 38.5702L86.1717 67.6588C79.7187 72.0764 75.6566 80.0501 76.1265 87.3429C76.4831 92.8788 76.8342 98.4162 77.1931 103.954C77.1932 103.956 77.1916 103.958 77.1895 103.959Z" fill="#FFE665"/>
</g>
<g filter="url(#filter2_f_3948_1917)">
<path d="M13.2429 135.341C12.0857 148.874 10.9177 162.402 9.75393 175.945C13.8083 166.105 17.4293 154.958 20.6635 143.709C23.5646 133.606 26.3607 123.039 30.2975 115.207C33.6223 108.588 37.5038 104.366 41.6109 101.145C46.1335 90.5952 51.5127 82.7762 57.8077 77.9701C62.5153 74.3796 63.3337 78.9059 68.0293 79.4563C64.5093 88.2136 73.1417 85.9084 76.8686 77.4186C78.395 73.9416 77.1156 74.5425 78.872 71.7585C80.1038 69.8216 80.0258 65.2185 81.4077 64.0608C87.7248 58.8066 91.3856 35.7745 97.8918 32.1378C91.2753 23.3016 81.0379 50.4762 73.6435 48.3257C65.0015 68.2431 59.8688 65.0084 48.6752 74.8424C47.7527 75.6496 46.8229 76.4132 45.8888 77.1614L14.5571 123.735C14.0202 127.565 13.58 131.437 13.2429 135.341Z" fill="#71BBFF"/>
</g>
<g filter="url(#filter3_f_3948_1917)">
<path d="M81.5821 67.4538C72.6353 78.0579 63.6823 88.6523 54.7237 99.2617C63.8925 93.2545 73.4735 85.934 82.7943 78.3235C91.1623 71.4868 99.7169 64.2104 107.603 59.8052C114.266 56.0808 119.975 54.6389 125.281 54.1463C135.257 47.7986 144.331 44.1689 152.386 43.5221C158.407 43.0415 156.414 47.2273 159.981 50.1727C151.895 55.5657 160.411 58.231 168.511 53.1694C171.829 51.0964 170.413 50.9163 173.512 49.5397C175.677 48.5871 178.329 44.7302 180.158 44.5031C188.495 43.4966 205.125 26.3455 212.664 26.7801C212.395 15.948 187.87 33.0466 183.01 27.3441C164.09 39.2727 161.745 33.8706 146.662 36.0882C145.421 36.2683 144.199 36.4084 142.983 36.5334L89.522 58.5298C86.8164 61.4199 84.1659 64.3963 81.5821 67.4538Z" fill="#71BBFF"/>
</g>
<path d="M84.5274 106.173C99.3375 101.965 121.281 91.6335 125.09 75.3464C110.561 61.1049 114.663 91.8344 100.134 77.5929L79.0168 87.2494C76.6502 95.9363 71.8867 93.7822 84.5274 106.173Z" fill="#0A9F68"/>
<g filter="url(#filter5_f_3948_1917)">
<path d="M116.104 45.2558C124.339 43.2538 137.569 38.5971 143.506 31.8081C140.042 26.1922 134.311 38.7987 130.847 33.1827L118.187 37.5461C114.857 41.173 113.09 40.3696 116.104 45.2558Z" fill="#0A9F68"/>
</g>
<g filter="url(#filter6_f_3948_1917)">
<path d="M90.5801 131.898C90.5759 131.9 90.5743 131.894 90.578 131.891C106.209 119.344 126.789 106.624 150.042 95.3645C157.615 91.7032 163.017 82.9516 162.442 74.834C161.693 64.2547 151.434 60.087 142.053 66.5091L99.5623 95.5977C93.1093 100.015 89.0473 107.989 89.5171 115.282C89.8737 120.818 90.2248 126.355 90.5837 131.893C90.5839 131.895 90.5823 131.897 90.5801 131.898Z" fill="#FFE665"/>
</g>
</g>
</g>
<path d="M-88.7218 69.9649C-45.5244 86.6712 -4.05658 63.3963 49.0626 72.017C72.7287 75.8578 84.9295 85.1935 108.899 85.7591C126.703 86.1793 139.718 75.9741 157.5 75C188.127 73.3223 194.296 79.5694 218 80.0238C259.963 80.8281 285.5 69.9649 325 69.9649V60.0376L-88.599 60.0376L-88.7218 69.9649Z" fill="url(#paint0_linear_3948_1917)"/>
<path d="M178.262 86.8237C176.173 87.069 177.082 87.7507 178.107 88.5198C178.666 88.9383 179.586 89.3568 180.03 89.7697C180.191 90.181 185.143 93.5115 185.706 93.8127C186.431 94.2013 187.158 94.5907 187.842 95.0602C190.828 97.1084 193.85 98.6692 197.669 100.573C201.65 102.557 205.333 103.823 207.094 104.297C207.423 104.534 207.77 104.758 208.163 104.911C208.284 104.958 208.4 105.005 208.516 105.05C209.008 105.246 209.468 105.429 210.039 105.567C210.13 105.589 210.223 105.61 210.315 105.632C210.533 105.682 210.751 105.733 210.955 105.794C211.094 105.836 211.258 105.841 211.421 105.845C211.58 105.85 211.738 105.854 211.87 105.894C212.111 105.967 212.365 105.999 212.622 105.999C213.913 105.999 215.321 105.188 215.995 104.6C216.13 104.482 216.39 104.309 216.687 104.109C217.378 103.648 218.268 103.052 218.268 102.703C218.268 102.423 218.07 102.286 217.848 102.132C217.715 102.04 217.574 101.942 217.461 101.805C217.146 101.418 216.749 101.107 216.349 100.791C216.165 100.647 215.98 100.501 215.801 100.347L215.85 100.198C215.904 99.8892 211.922 98.2369 209.499 97.2323C208.562 96.8437 207.859 96.5506 207.712 96.4713C207.427 96.3158 207.109 96.1653 206.785 96.0122C206.128 95.7022 205.446 95.3808 204.967 94.9792C204.308 94.4279 203.039 93.7997 202.144 93.4063C201.879 93.2897 201.602 93.1577 201.32 93.0225C200.455 92.6105 199.521 92.1644 198.592 91.9976C198.067 91.9045 197.016 91.5378 196.566 91.3362C196.262 91.1994 195.956 91.0909 195.651 90.9816C195.23 90.8311 194.811 90.6821 194.403 90.4619C193.883 90.1818 193.322 89.9324 192.763 89.6847C192.074 89.3795 188.446 88.0041 185.189 87.0836C185.612 87.4657 183.217 88.2728 183.399 88.5886C185.272 89.3455 192.072 92.0163 192.636 92.3498C193.033 92.5838 193.45 92.8299 193.981 93.1156C194.782 93.5471 195.64 94.028 196.537 94.5299C198.372 95.5581 200.369 96.6769 202.359 97.6427C202.238 97.6791 202.057 97.7407 201.839 97.8232C201.66 97.7552 201.47 97.6832 201.267 97.6087C200.838 97.45 200.379 97.2873 199.921 97.1246C198.652 96.6737 197.385 96.2244 196.751 95.8617C196.495 95.7151 196.231 95.554 195.961 95.3873C195.133 94.8797 194.239 94.3308 193.297 94.0588C192.765 93.9058 191.733 93.4217 191.301 93.1699C191.008 92.9999 190.708 92.8558 190.41 92.7133C189.997 92.5158 189.587 92.319 189.201 92.0551C188.665 91.6876 187.91 91.4722 187.16 91.2577C186.376 91.0334 185.597 90.8116 185.076 90.4182C184.053 89.6467 180.522 87.8826 180.522 87.8826C180.522 87.8826 179.22 87.0205 178.262 86.8237Z" fill="url(#paint1_linear_3948_1917)"/>
<path d="M184.132 50.0743C184.396 50.1509 184.598 50.2817 184.825 50.4241C184.865 50.4488 184.892 50.4674 184.892 50.4674C185.349 50.8056 185.735 51.3566 185.85 51.9191C185.877 52.0538 185.877 52.1915 185.877 52.3285C185.875 53.1457 185.874 53.9629 185.874 54.78C185.874 54.8946 185.874 55.0099 185.894 55.1228C185.929 55.3016 186.018 55.4881 185.947 55.6545C185.888 55.7938 185.736 55.8657 185.597 55.9269C185.497 55.9702 185.398 56.0128 185.299 56.0553C185.244 56.0801 185.186 56.1056 185.145 56.1505C184.947 56.368 185.326 56.3471 185.428 56.3687C185.535 56.3912 185.641 56.4299 185.745 56.4647C186.138 56.5978 186.527 56.7781 186.813 57.0884C187.031 57.3267 187.188 57.6138 187.335 57.9017C187.855 58.9224 187.852 60.2333 187.987 61.3538C188.146 62.674 188.218 64.0174 188.001 65.336C187.922 65.8189 187.516 66.1331 187.26 66.5239C186.868 67.1228 186.963 67.6916 187.071 68.3741C187.434 70.681 186.753 72.8191 186.418 75.0748C186.336 75.6289 186.329 76.1907 186.324 76.7502C186.312 78.0092 186.201 79.3031 186.245 80.5498C186.291 81.8398 186.313 83.1352 186.196 84.4221C186.139 85.0466 186.095 85.7399 185.893 86.3366C185.809 86.5873 185.77 86.6709 185.781 86.9471C185.791 87.2033 185.805 87.3039 185.664 87.5291C185.552 87.7063 185.539 87.926 185.539 88.135C185.539 88.2781 185.544 88.4205 185.554 88.5637C185.56 88.6449 185.568 88.7277 185.55 88.8082C185.535 88.8717 185.504 88.9328 185.464 88.9839C185.359 89.1216 185.189 89.1982 185.018 89.2261C184.846 89.254 184.671 89.2385 184.498 89.223C184.393 89.2129 184.284 89.2029 184.194 89.1495C184.067 89.0744 184 88.932 183.928 88.802C183.744 88.4693 183.486 88.1845 183.231 87.9021C183.129 87.7891 183.026 87.6738 182.962 87.5353C182.886 87.3666 182.873 87.1746 182.869 86.9889C182.864 86.8233 182.873 86.6368 182.994 86.5254C183.051 86.4751 183.122 86.4503 183.196 86.4387C183.222 86.4348 183.256 86.4387 183.29 86.441C183.333 86.4457 183.378 86.4503 183.407 86.4387C183.523 86.3946 183.481 86.2004 183.483 86.0936C183.491 85.7105 183.499 85.3275 183.504 84.9444C183.49 84.7866 183.475 84.631 183.462 84.4763C183.305 82.6306 183.29 80.8438 183.303 78.9967C183.307 78.4883 183.277 77.9767 183.288 77.4691C183.297 77.083 183.171 76.6875 182.709 76.6473C182.666 76.6426 182.62 76.6442 182.581 76.6628C182.449 76.7262 182.462 77.0172 182.441 77.1464C182.39 77.4536 182.332 77.7585 182.295 78.0688C182.261 78.3544 182.24 78.643 182.162 78.9201C182.077 79.225 181.923 79.5159 181.902 79.8316C181.852 80.573 182.117 81.2617 182.138 81.9953C182.165 82.9177 182.113 83.6219 182.066 84.2472C182.003 85.1015 181.95 85.8057 182.125 86.7127C182.193 87.0617 182.046 87.3016 181.98 87.6235C181.894 88.0282 181.922 88.4786 181.862 88.8926C181.851 88.963 181.839 89.0381 181.792 89.0915C181.746 89.1441 181.676 89.1673 181.61 89.1859C181.308 89.2702 180.995 89.3081 180.682 89.2965C180.586 89.2934 180.484 89.2826 180.409 89.2215C180.369 89.189 180.341 89.1441 180.303 89.11C180.202 89.0218 180.057 89.0226 179.919 89.0226C179.902 89.0226 179.884 89.0226 179.868 89.0218C179.387 89.0164 178.925 88.7982 178.558 88.4879C178.191 88.1768 177.908 87.7782 177.662 87.3642C177.614 87.2822 177.566 87.1948 177.562 87.0996C177.556 86.9224 177.718 86.7746 177.891 86.7351C178.064 86.6964 178.244 86.7397 178.415 86.7893C178.622 86.8504 179.447 87.2977 179.638 87.1096C179.742 87.0075 179.616 86.5827 179.609 86.4426C179.595 86.147 179.605 85.8491 179.617 85.5534C179.637 85.0009 179.657 84.4492 179.524 83.9106C179.318 83.0771 179.153 82.2213 179.17 81.3654C179.188 80.5498 178.731 79.7844 178.625 78.9711C178.562 78.4906 178.583 78.0038 178.604 77.5194C178.68 75.7829 178.755 74.0456 178.83 72.3091C178.856 71.6962 179.071 70.8767 178.922 70.2886C178.77 69.6912 178.308 69.223 178.168 68.6179C178.11 68.3718 178.141 68.142 178.118 67.8982C178.094 67.6297 177.984 67.3542 177.903 67.0996C177.668 66.3552 177.432 65.6123 177.196 64.8686C177.123 64.6403 177.05 64.409 177.024 64.1706C176.994 63.8982 177.025 63.6235 177.065 63.3527C177.198 62.4643 177.503 61.6494 177.768 60.8145C177.844 60.5792 177.915 60.3416 177.98 60.1002C178.122 59.5655 178.264 59.03 178.405 58.4953C178.477 58.226 178.55 57.9528 178.693 57.7137C178.866 57.4243 179.14 57.1967 179.455 57.0783C179.662 57.001 179.883 56.97 180.093 56.9027C180.461 56.7835 180.783 56.5537 181.145 56.419C181.281 56.368 181.426 56.3293 181.535 56.2341C181.737 56.0576 181.658 55.5709 181.634 55.3256C181.623 55.2629 181.618 55.2041 181.6 55.1352C181.597 55.1283 181.595 55.1205 181.592 55.1136C181.384 55.0277 181.189 54.9255 180.991 54.8071C180.675 54.6167 180.907 53.5071 181.135 53.0753C181.345 52.6759 181.241 52.5792 181.237 52.4121C181.232 52.1505 181.349 51.8882 181.462 51.6576C181.552 51.4718 181.689 51.3124 181.772 51.1228C181.809 51.0408 181.819 50.9526 181.864 50.8729C181.912 50.7893 181.98 50.7181 182.049 50.65C182.182 50.52 182.32 50.3947 182.457 50.2701C182.564 50.1741 182.651 50.1169 182.791 50.0967C182.941 50.0751 183.088 50.0356 183.239 50.0186C183.346 50.007 183.456 50 183.565 50C183.756 50 183.948 50.0209 184.132 50.0743Z" fill="url(#paint2_linear_3948_1917)"/>
<path d="M177.766 60.8139C177.841 60.5779 177.913 60.3411 177.976 60.0997C178.119 59.565 178.261 59.0295 178.404 58.4947C178.475 58.2254 178.547 57.9523 178.69 57.7131C178.862 57.4237 179.136 57.1954 179.452 57.0778C179.659 57.0004 179.88 56.9695 180.09 56.9014C180.457 56.783 180.782 56.5532 181.144 56.4185C181.279 56.3682 181.424 56.3287 181.532 56.2336C181.556 56.2127 181.564 56.1771 181.58 56.1484C181.72 56.3465 181.795 56.5671 182.061 56.6948C182.431 56.8728 182.838 56.9153 183.18 57.1637C183.073 57.2775 182.909 57.3131 182.756 57.3448C181.476 57.611 180.129 58.0645 179.367 59.127C178.417 60.4526 178.621 62.3964 177.546 63.6238C177.525 63.6485 177.503 63.6733 177.473 63.6849C177.394 63.7166 177.312 63.6485 177.263 63.5804C176.985 63.1981 177.171 62.7834 177.282 62.3694C177.425 61.8447 177.601 61.3309 177.766 60.8139Z" fill="#605B58"/>
<path d="M185.154 56.3909C185.164 56.3785 185.18 56.3723 185.195 56.3684C185.459 56.2973 185.824 56.4822 186.062 56.5836C186.341 56.7035 186.607 56.8622 186.814 57.0873C187.033 57.3257 187.114 57.5207 187.089 57.8449C187.087 57.872 187.085 57.9007 187.069 57.9216C187.051 57.9463 187.02 57.9571 186.99 57.9633C186.732 58.0198 186.471 57.872 186.284 57.6848C186.097 57.4983 185.953 57.2692 185.751 57.0974C185.586 56.9542 185.418 56.8227 185.263 56.6656C185.2 56.6006 185.134 56.5217 185.154 56.3909Z" fill="#605B58"/>
<path d="M177.657 87.3638C177.608 87.2818 177.559 87.1943 177.556 87.0991C177.55 86.9219 177.712 86.7741 177.885 86.7354C178.058 86.696 178.238 86.7401 178.409 86.7904C178.616 86.8507 179.442 87.298 179.632 87.1107C179.644 87.0991 179.643 87.0736 179.65 87.0558C179.652 87.0597 179.656 87.0612 179.659 87.0659C179.749 87.2562 179.754 87.4799 179.855 87.6764C179.971 87.9016 180.113 88.1175 180.177 88.3636C180.193 88.4278 180.203 88.5006 180.168 88.5571C180.147 88.5919 180.112 88.6143 180.077 88.6352C179.862 88.7621 179.605 88.8147 179.357 88.7822C179.174 88.7575 178.984 88.6963 178.801 88.6708C178.715 88.6143 178.63 88.5547 178.552 88.4882C178.185 88.1771 177.903 87.777 177.657 87.3638Z" fill="#605B58"/>
<path d="M182.964 87.536C182.887 87.3665 182.877 87.1754 182.872 86.9889C182.867 86.8241 182.874 86.6376 182.996 86.5261C183.053 86.4751 183.124 86.4503 183.198 86.4387C183.258 86.4294 183.356 86.4596 183.409 86.4387C183.461 86.4193 183.481 86.3667 183.487 86.3071C183.514 86.4472 183.488 86.6082 183.511 86.7567C183.541 86.9455 183.612 87.1328 183.745 87.2698C183.821 87.3479 183.916 87.4099 183.977 87.5012C184.028 87.5793 184.049 87.6722 184.069 87.7635L184.257 88.6155C184.281 88.7246 184.305 88.8384 184.275 88.9452C184.256 89.0133 184.213 89.0682 184.162 89.1162C184.06 89.0372 183.994 88.9181 183.93 88.8028C183.746 88.47 183.488 88.1845 183.233 87.902C183.131 87.789 183.027 87.6745 182.964 87.536Z" fill="#605B58"/>
<path d="M179.809 82.0546C179.999 82.7418 180.088 83.4894 179.842 84.1587C179.818 84.223 179.79 84.2887 179.738 84.3321C179.698 84.3653 179.65 84.38 179.599 84.3893C179.582 84.2291 179.559 84.069 179.52 83.9111C179.314 83.0777 179.148 82.2218 179.166 81.3659C179.183 80.5511 178.726 79.785 178.62 78.9709C178.559 78.4903 178.579 78.0044 178.6 77.5199C178.675 75.7834 178.75 74.0461 178.825 72.3096C178.851 71.7122 179.051 70.9221 178.923 70.3379C179.307 70.5058 179.595 71.0034 179.842 71.2936C179.965 71.4383 180.092 71.59 180.139 71.7741C180.23 72.1309 180.003 72.4799 179.846 72.8119C179.568 73.3984 179.49 74.0578 179.415 74.7024C179.346 75.3091 179.275 75.9142 179.205 76.5209C179.071 77.6817 178.938 78.8687 179.183 80.0117C179.332 80.7082 179.619 81.3675 179.809 82.0546Z" fill="#605B58"/>
<path d="M185.213 50.7582C185.263 50.824 185.304 50.8921 185.314 50.9625C185.341 51.1397 185.277 51.4083 185.127 51.5174C184.866 51.707 184.338 51.6257 184.037 51.6056C183.665 51.5808 183.504 51.5646 183.197 51.8192C183.12 51.8826 183.041 51.9484 182.994 52.0351C182.942 52.1287 182.929 52.2371 182.919 52.3431C182.85 53.0782 182.867 53.8211 182.97 54.5524C183.002 54.7892 183.101 55.3077 182.797 55.4222C182.607 55.4934 182.18 55.3115 182.005 55.2496C181.943 55.228 181.879 55.2016 181.842 55.1482C181.803 55.0918 181.803 55.0167 181.804 54.9478C181.811 54.6344 181.817 54.3512 181.753 54.0432C181.741 53.9859 181.728 53.9279 181.699 53.8776C181.669 53.8273 181.618 53.7863 181.56 53.7816C181.5 53.7778 181.442 53.8141 181.406 53.8629C181.369 53.9109 181.35 53.9697 181.331 54.0277C181.279 54.1864 181.227 54.3442 181.175 54.5029C181.091 54.759 180.926 54.8627 180.859 54.5439C180.802 54.2715 180.862 53.9589 180.923 53.6927C180.94 53.6207 180.958 53.5495 180.978 53.4822C180.988 53.4442 181.001 53.411 181.013 53.3754C181.026 53.3367 181.039 53.2957 181.052 53.2601C181.079 53.1904 181.106 53.1277 181.134 53.0751C181.344 52.6758 181.241 52.5791 181.237 52.4127C181.235 52.3276 181.25 52.2332 181.276 52.1334C181.319 51.9685 181.397 51.7913 181.485 51.618C181.519 51.5553 181.555 51.4942 181.594 51.4346C181.656 51.3355 181.72 51.2349 181.772 51.1235C181.785 51.0949 181.793 51.0655 181.802 51.036C181.806 51.0213 181.814 51.0066 181.818 50.9881C181.83 50.9494 181.843 50.9099 181.864 50.8735C181.912 50.7892 181.981 50.718 182.049 50.6507C182.182 50.5199 182.319 50.3953 182.457 50.2699C182.532 50.2018 182.604 50.1601 182.686 50.1307C182.811 50.102 182.897 50.0811 182.893 50.0788C182.983 50.0618 183.074 50.0455 183.165 50.0316C183.23 50.0231 183.294 50.0192 183.358 50.0146C183.431 50.0092 183.503 50.0068 183.576 50.0068C183.636 50.0076 183.695 50.0092 183.753 50.0138C183.87 50.0231 183.986 50.0386 184.099 50.0695C184.126 50.0765 184.15 50.085 184.175 50.0927C184.417 50.1709 184.612 50.2908 184.824 50.4239C184.865 50.4495 184.893 50.4673 184.893 50.4673C185.005 50.5547 185.112 50.6538 185.213 50.7582Z" fill="#605B58"/>
<path d="M183.629 86.3161C183.571 86.2959 183.525 86.2542 183.486 86.2023C183.483 86.1628 183.481 86.1234 183.482 86.0924C183.489 85.7094 183.497 85.3263 183.503 84.9433C183.489 84.7854 183.474 84.6299 183.461 84.4751C183.333 82.9769 183.301 81.5151 183.299 80.0301C183.304 79.9922 183.312 79.9551 183.316 79.9171C183.343 79.6053 183.299 79.3066 183.301 78.9963C183.306 78.3207 183.285 77.6459 183.287 76.9711C183.452 76.9332 183.626 77.0168 183.742 77.1398C184.167 77.5925 183.937 78.6658 183.939 79.2462C183.94 79.6169 183.941 79.9914 184.022 80.3536C184.114 80.7684 184.058 81.2071 184.192 81.6142C184.324 82.0158 184.367 82.2526 184.353 82.6937C184.323 83.6664 184.273 84.6399 184.222 85.6119C184.212 85.8092 184.202 86.0073 184.172 86.2023C184.165 86.2433 184.157 86.2867 184.13 86.3176C184.03 86.4352 183.749 86.3578 183.629 86.3161Z" fill="#605B58"/>
</g>
<defs>
<filter id="filter0_f_3948_1917" x="24.8268" y="2.92301" width="142.643" height="104.198" filterUnits="userSpaceOnUse" color-interpolation-filters="sRGB">
<feFlood flood-opacity="0" result="BackgroundImageFix"/>
<feBlend mode="normal" in="SourceGraphic" in2="BackgroundImageFix" result="shape"/>
<feGaussianBlur stdDeviation="3.66667" result="effect1_foregroundBlur_3948_1917"/>
</filter>
<filter id="filter1_f_3948_1917" x="68.7565" y="28.1877" width="87.6706" height="83.1051" filterUnits="userSpaceOnUse" color-interpolation-filters="sRGB">
<feFlood flood-opacity="0" result="BackgroundImageFix"/>
<feBlend mode="normal" in="SourceGraphic" in2="BackgroundImageFix" result="shape"/>
<feGaussianBlur stdDeviation="3.66667" result="effect1_foregroundBlur_3948_1917"/>
</filter>
<filter id="filter2_f_3948_1917" x="2.42057" y="23.0314" width="102.803" height="160.247" filterUnits="userSpaceOnUse" color-interpolation-filters="sRGB">
<feFlood flood-opacity="0" result="BackgroundImageFix"/>
<feBlend mode="normal" in="SourceGraphic" in2="BackgroundImageFix" result="shape"/>
<feGaussianBlur stdDeviation="3.66667" result="effect1_foregroundBlur_3948_1917"/>
</filter>
<filter id="filter3_f_3948_1917" x="47.3893" y="15.7668" width="172.608" height="90.8283" filterUnits="userSpaceOnUse" color-interpolation-filters="sRGB">
<feFlood flood-opacity="0" result="BackgroundImageFix"/>
<feBlend mode="normal" in="SourceGraphic" in2="BackgroundImageFix" result="shape"/>
<feGaussianBlur stdDeviation="3.66667" result="effect1_foregroundBlur_3948_1917"/>
</filter>
<filter id="filter5_f_3948_1917" x="107.225" y="22.9972" width="43.6159" height="29.592" filterUnits="userSpaceOnUse" color-interpolation-filters="sRGB">
<feFlood flood-opacity="0" result="BackgroundImageFix"/>
<feBlend mode="normal" in="SourceGraphic" in2="BackgroundImageFix" result="shape"/>
<feGaussianBlur stdDeviation="3.66667" result="effect1_foregroundBlur_3948_1917"/>
</filter>
<filter id="filter6_f_3948_1917" x="82.1471" y="56.1266" width="87.6706" height="83.1051" filterUnits="userSpaceOnUse" color-interpolation-filters="sRGB">
<feFlood flood-opacity="0" result="BackgroundImageFix"/>
<feBlend mode="normal" in="SourceGraphic" in2="BackgroundImageFix" result="shape"/>
<feGaussianBlur stdDeviation="3.66667" result="effect1_foregroundBlur_3948_1917"/>
</filter>
<linearGradient id="paint0_linear_3948_1917" x1="285.5" y1="60.0001" x2="-0.499981" y2="60.0425" gradientUnits="userSpaceOnUse">
<stop stop-color="#FFFDFB"/>
<stop offset="0.4695" stop-color="#E2E2E2"/>
<stop offset="1" stop-color="#FFFDFB"/>
</linearGradient>
<linearGradient id="paint1_linear_3948_1917" x1="180.803" y1="86.5185" x2="213.23" y2="111.245" gradientUnits="userSpaceOnUse">
<stop stop-color="#32302F" stop-opacity="0.7"/>
<stop offset="0.5" stop-color="#7D8185" stop-opacity="0.35"/>
<stop offset="1" stop-color="#C9D1DB" stop-opacity="0"/>
</linearGradient>
<linearGradient id="paint2_linear_3948_1917" x1="184.833" y1="51.6359" x2="183.172" y2="88.6341" gradientUnits="userSpaceOnUse">
<stop stop-color="#32302F"/>
<stop offset="0.09" stop-color="#3B3937"/>
<stop offset="0.17" stop-color="#44413F"/>
<stop offset="0.28" stop-color="#3B3937"/>
<stop offset="0.39" stop-color="#32302F"/>
<stop offset="0.44" stop-color="#2E2E2E"/>
<stop offset="0.5" stop-color="#2B2C2D"/>
<stop offset="0.75" stop-color="#2E2E2E"/>
<stop offset="1" stop-color="#32302F"/>
</linearGradient>
</defs>
</svg>
