<svg width="20" height="20" viewBox="0 0 20 20" fill="none" xmlns="http://www.w3.org/2000/svg">
<g id="16/sad">
<path id="Union" fill-rule="evenodd" clip-rule="evenodd" d="M10 1.68747C5.40913 1.68747 1.6875 5.4091 1.6875 9.99997C1.6875 14.5908 5.40913 18.3125 10 18.3125C14.5909 18.3125 18.3125 14.5908 18.3125 9.99997C18.3125 5.4091 14.5909 1.68747 10 1.68747ZM3.3125 9.99997C3.3125 6.30657 6.3066 3.31247 10 3.31247C13.6934 3.31247 16.6875 6.30657 16.6875 9.99997C16.6875 13.6934 13.6934 16.6875 10 16.6875C6.3066 16.6875 3.3125 13.6934 3.3125 9.99997ZM7.32578 13.1761C8.92786 12.108 11.0723 12.108 12.6744 13.1761C13.0478 13.425 13.5522 13.3241 13.8011 12.9507C14.05 12.5774 13.9491 12.0729 13.5758 11.824C11.4279 10.3921 8.57231 10.3921 6.42439 11.824C6.05102 12.0729 5.95013 12.5774 6.19905 12.9507C6.44796 13.3241 6.95241 13.425 7.32578 13.1761ZM13.751 7.99997C13.751 8.55225 13.3033 8.99997 12.751 8.99997C12.1987 8.99997 11.751 8.55225 11.751 7.99997C11.751 7.44768 12.1987 6.99997 12.751 6.99997C13.3033 6.99997 13.751 7.44768 13.751 7.99997ZM7.25049 8.99997C7.80277 8.99997 8.25049 8.55225 8.25049 7.99997C8.25049 7.44768 7.80277 6.99997 7.25049 6.99997C6.6982 6.99997 6.25049 7.44768 6.25049 7.99997C6.25049 8.55225 6.6982 8.99997 7.25049 8.99997Z" fill="currentColor"/>
</g>
</svg>
