<svg width="20" height="20" viewBox="0 0 20 20" fill="none" xmlns="http://www.w3.org/2000/svg">
<g id="16/Smile">
<g id="Union">
<path d="M6.92516 11.3414C6.7455 10.9302 6.26652 10.7425 5.85532 10.9221C5.44413 11.1018 5.25643 11.5808 5.43609 11.992C6.20369 13.7488 7.95755 14.9792 10.0006 14.9792C12.0436 14.9792 13.7975 13.7488 14.5651 11.992C14.7447 11.5808 14.557 11.1018 14.1459 10.9221C13.7347 10.7425 13.2557 10.9302 13.076 11.3414C12.5577 12.5277 11.3747 13.3542 10.0006 13.3542C8.62643 13.3542 7.44349 12.5277 6.92516 11.3414Z" fill="currentColor"/>
<path d="M13.751 7.99997C13.751 8.55226 13.3033 8.99997 12.751 8.99997C12.1987 8.99997 11.751 8.55226 11.751 7.99997C11.751 7.44769 12.1987 6.99997 12.751 6.99997C13.3033 6.99997 13.751 7.44769 13.751 7.99997Z" fill="currentColor"/>
<path d="M7.25049 8.99997C7.80277 8.99997 8.25049 8.55226 8.25049 7.99997C8.25049 7.44769 7.80277 6.99997 7.25049 6.99997C6.6982 6.99997 6.25049 7.44769 6.25049 7.99997C6.25049 8.55226 6.6982 8.99997 7.25049 8.99997Z" fill="currentColor"/>
<path fill-rule="evenodd" clip-rule="evenodd" d="M1.6875 9.99997C1.6875 5.4091 5.40913 1.68747 10 1.68747C14.5909 1.68747 18.3125 5.4091 18.3125 9.99997C18.3125 14.5908 14.5909 18.3125 10 18.3125C5.40913 18.3125 1.6875 14.5908 1.6875 9.99997ZM10 3.31247C6.3066 3.31247 3.3125 6.30657 3.3125 9.99997C3.3125 13.6934 6.3066 16.6875 10 16.6875C13.6934 16.6875 16.6875 13.6934 16.6875 9.99997C16.6875 6.30657 13.6934 3.31247 10 3.31247Z" fill="currentColor"/>
</g>
</g>
</svg>
