<svg xmlns="http://www.w3.org/2000/svg" width="19" height="18" viewBox="0 0 19 18">
    <path fill="#40474F" fill-rule="evenodd" d="M4.229 0l.146.005c.727.054 1.388.5 1.588 1.081l.012.045.153-.095C6.716.698 7.615.463 8.283.463h7.444c1.436 0 2.252 1.633 2.774 4.372l.053.287c.309 1.732.489 4.126.437 4.687l-.02.145c-.152.857-.947 1.492-1.864 1.492h-4.828l.01.068c.09.712.223 2.49.223 3.452 0 1.44-1.249 3.034-2.201 3.034h-.036c-.305 0-.423-.008-.608-.062-.18-.054-.344-.144-.521-.28-.25-.192-.32-.433-.332-.815l-.002-.15c.001-.207.012-.384.046-.787l.022-.257c.055-.636.063-.97.024-1.11l-.033-.1c-.126-.358-.526-1.253-1.184-2.654l-1.18-2.477c-.028-.057-.051-.109-.074-.172l-.04-.123-.388-.004-.016.032c-.274.469-.782.767-1.342.767h-2.85C.802 9.808 0 8.996 0 8.003V1.449C0 .445.735 0 1.796 0H4.23zm11.498 1.616H8.283c-.524 0-1.356.246-1.666.471l-.066.056c-.102.102-.222.179-.352.228l-.003 5.483c.199.002.44.012.74.026l.551.026v.55c0 .107.008.182.022.238l.021.067 1.24 2.603c.71 1.511 1.116 2.436 1.235 2.812l.016.055c.076.272.084.573.046 1.116l-.086 1.076c-.005.081-.007.148-.009.211v.134l.003.056.025.01c.03.008.07.012.19.013h.12c.24 0 1.043-1.024 1.043-1.881l-.008-.438c-.037-1.128-.183-2.874-.195-2.91-.11-.29-.07-.627.11-.893.186-.27.49-.431.815-.431h5.032c.384 0 .7-.27.73-.59l.006-.156c.003-.65-.148-2.536-.393-4.007l-.038-.217C17 3.008 16.344 1.616 15.727 1.616zM4.229 1.153H1.796c-.503 0-.637.08-.637.296v6.554c0 .361.289.652.637.652h2.851c.166 0 .313-.103.37-.257l.022-.055V2.008c-.11-.161-.174-.355-.174-.559 0-.077-.29-.296-.636-.296z"/>
</svg>
