<svg width="16" height="16" viewBox="0 0 16 16" fill="none" xmlns="http://www.w3.org/2000/svg">
<circle cx="8" cy="8" r="8" fill="#D6D6D6"/>
<path fill-rule="evenodd" clip-rule="evenodd" d="M4.16379 4.16377C4.38214 3.94541 4.73617 3.94541 4.95453 4.16377L8.00001 7.20925L11.0455 4.16377C11.2638 3.94541 11.6179 3.94541 11.8362 4.16377C12.0546 4.38212 12.0546 4.73615 11.8362 4.95451L8.79075 7.99999L11.8362 11.0455C12.0546 11.2638 12.0546 11.6178 11.8362 11.8362C11.6179 12.0546 11.2638 12.0546 11.0455 11.8362L8.00001 8.79073L4.95451 11.8362C4.73615 12.0546 4.38212 12.0546 4.16377 11.8362C3.94541 11.6179 3.94541 11.2638 4.16377 11.0455L7.20927 7.99999L4.16379 4.95451C3.94543 4.73615 3.94543 4.38212 4.16379 4.16377Z" fill="#FFFDFB"/>
</svg>
