<svg width="219" height="104" viewBox="0 0 219 104" fill="none" xmlns="http://www.w3.org/2000/svg">
<path d="M0 8C0 3.58172 3.58172 0 8 0H219V96C219 100.418 215.418 104 211 104H0V8Z" fill="url(#paint0_linear_14270_8706)"/>
<path d="M127.103 74.3448C127.103 66.4224 133.526 60 141.448 60H191.655C199.578 60 206 66.4224 206 74.3448C206 82.2673 199.578 88.6897 191.655 88.6897H141.448C133.526 88.6897 127.103 82.2673 127.103 74.3448Z" fill="#FFFDFB"/>
<path opacity="0.9" fill-rule="evenodd" clip-rule="evenodd" d="M118.729 70.9196C119.244 69.619 120.039 68.3093 120.943 67.3315L120.961 67.3405C121.349 66.9099 122.054 67.2149 122.054 67.789C121.882 69.7497 122.281 71.2548 122.705 72.8559C123.106 74.368 123.53 75.9658 123.517 78.1138C123.481 83.9713 118.657 88.6897 112.759 88.6897C106.86 88.6897 102.027 83.9713 102 78.1138C101.988 76.0538 102.393 74.6595 102.788 73.2989C103.241 71.7386 103.681 70.2227 103.464 67.798C103.455 67.2149 104.168 66.9189 104.557 67.3495C105.559 68.4349 106.417 69.9329 106.932 71.3592C107.131 71.8884 107.872 71.9333 108.107 71.422C109.002 70.1694 109.221 68.4787 109.45 66.7159C109.752 64.3885 110.07 61.9357 111.982 60.2002C112.388 59.7696 113.093 60.0836 113.075 60.6667C113.023 62.4189 113.847 63.7185 114.859 65.3136C115.774 66.7562 116.843 68.4404 117.555 70.9196C117.772 71.4399 118.513 71.4579 118.729 70.9196ZM110.575 76.0114C110.575 76.9352 109.983 77.6858 109.251 77.6858C108.518 77.6858 107.926 76.9352 107.926 76.0114C107.926 75.0876 108.518 74.3369 109.251 74.3369C109.983 74.3369 110.575 75.0876 110.575 76.0114ZM117.557 76.0114C117.557 76.9352 116.964 77.6858 116.232 77.6858C115.5 77.6858 114.907 76.9352 114.907 76.0114C114.907 75.0876 115.5 74.3369 116.232 74.3369C116.964 74.3369 117.557 75.0876 117.557 76.0114ZM106.664 78.3927C108.672 84.2071 116.869 84.2134 118.871 78.3927C118.987 78.016 119.546 78.1478 119.511 78.5434C118.778 86.6371 106.781 86.6308 106.024 78.5434C105.99 78.1478 106.542 78.016 106.664 78.3927Z" fill="#E9E8E8"/>
<circle cx="189.862" cy="74.3448" r="7.17241" fill="#D9D9D9"/>
<path fill-rule="evenodd" clip-rule="evenodd" d="M133.379 75.2414C133.379 73.756 134.583 72.5518 136.069 72.5518H177.31C178.796 72.5518 180 73.756 180 75.2414C180 76.7269 178.796 77.9311 177.31 77.9311H136.069C134.583 77.9311 133.379 76.7269 133.379 75.2414Z" fill="#E9E8E8"/>
<path fill-rule="evenodd" clip-rule="evenodd" d="M133.379 75.2414C133.379 73.756 134.583 72.5518 136.069 72.5518H150.414C151.899 72.5518 153.103 73.756 153.103 75.2414C153.103 76.7269 151.899 77.9311 150.414 77.9311H136.069C134.583 77.9311 133.379 76.7269 133.379 75.2414Z" fill="#D6D6D6"/>
<mask id="mask0_14270_8706" style="mask-type:alpha" maskUnits="userSpaceOnUse" x="152" y="8" width="15" height="47">
<path fill-rule="evenodd" clip-rule="evenodd" d="M155.36 27.1612L155.36 27.1613C155.173 27.7972 154.551 28.2872 153.798 28.1768C153.155 28.0379 152.639 27.3022 152.826 26.6663C154.543 20.7943 156.21 14.9115 157.878 9.02878L157.878 9.02858C158.189 8.05523 159.645 7.53718 160.196 8.59264C161.226 10.5579 162.242 12.5328 163.257 14.5078C164.272 16.4828 165.287 18.4578 166.318 20.423C166.657 21.0165 166.548 21.7732 165.947 22.1637C165.406 22.5152 164.555 22.3834 164.215 21.7899C163.185 19.8247 162.17 17.8497 161.154 15.8747C161.007 15.5876 160.859 15.3004 160.711 15.0133C160.773 16.4608 160.838 17.9093 160.904 19.3578C161.024 22.193 161.142 25.0407 161.26 27.8884C161.377 30.7361 161.495 33.5838 161.616 36.419C161.828 41.9794 161.931 47.5681 160.914 53.0711C160.624 54.6733 158.15 54.1392 158.49 52.5477C159.037 49.4924 159.228 46.4122 159.259 43.3496C159.284 39.3671 159.091 35.3919 158.898 31.4121C158.824 29.8887 158.75 28.3646 158.689 26.8391C158.576 23.4927 158.441 20.1599 158.301 16.8224C157.314 20.2672 156.337 23.7142 155.36 27.1612Z" fill="black"/>
</mask>
<g mask="url(#mask0_14270_8706)">
<g filter="url(#filter0_f_14270_8706)">
<path d="M154.893 84.4944C160.849 83.9121 166.811 83.2668 172.764 82.7161C178.433 82.1636 179.66 78.5674 180.46 67.2632C182.271 41.257 184.631 15.163 186.833 -10.9148C187.209 -15.4235 185.844 -18.9089 183.786 -18.6969C169.148 -17.1892 154.496 -15.68 139.863 -14.2353L154.893 84.4944Z" fill="#FFB9F8"/>
</g>
<g filter="url(#filter1_f_14270_8706)">
<path d="M185.59 75.9412C193.395 77.6293 201.199 79.3291 209.011 81.0247C203.17 76.2202 196.604 71.8596 189.998 67.9266C184.066 64.3984 177.875 60.9733 173.189 56.359C169.23 52.4618 166.614 48.0157 164.559 43.348C158.288 38.0012 153.536 31.7814 150.462 24.6309C148.165 19.2837 150.714 18.5061 150.788 13.2945C155.982 17.4722 154.219 7.79324 149.168 3.39317C147.1 1.59108 147.509 3.03325 145.826 0.995581C144.654 -0.43303 142.023 -0.482176 141.289 -2.05489C137.957 -9.24312 124.586 -13.999 122.17 -21.3501C117.452 -14.2446 133.532 -2.04431 132.681 6.12473C144.525 16.3345 142.937 21.9535 149.141 34.7063C149.65 35.7571 148.634 41.1677 149.111 42.2298L171.252 73.4616C173.472 74.1725 183.338 75.4507 185.59 75.9412Z" fill="#71BBFF"/>
</g>
<g filter="url(#filter2_f_14270_8706)">
<path d="M164.775 38.5712C158.396 32.2875 147.292 23.3736 139.521 23.23C138.372 31.173 149.466 26.3444 148.317 34.2873L158.887 42.8931C163.138 43.1212 163.776 45.4819 164.775 38.5712Z" fill="#0A9F68"/>
</g>
<g filter="url(#filter3_f_14270_8706)">
<path d="M192.319 59.5896C192.663 59.7304 192.972 59.6051 193.333 59.7494C193.693 59.8937 194.651 60.3252 194.808 60.2038C195.034 60.0284 195.547 60.0811 195.494 59.4393C195.444 58.819 194.994 58.0378 194.702 57.4448C193.631 55.2682 192.272 53.2482 191.08 51.1829C190.477 50.1385 190.037 48.9759 189.457 47.8923C189.175 47.3642 188.895 47.1629 188.668 46.5441C188.45 45.9499 188.137 45.4241 187.846 44.8794C187.141 43.5614 186.775 42.2404 186.286 40.8095C185.746 39.2299 184.561 37.2923 183.72 35.9384C181.03 31.6117 177.693 29.3811 174.577 26.2662C173.368 25.0579 172.098 24.1733 170.923 22.8186C169.686 21.3917 168.738 19.6418 167.773 17.8377C166.128 14.761 164.375 11.3317 162.397 8.66606C161.48 7.43078 160.551 6.39942 159.458 5.87135C158.279 5.30218 156.979 6.74383 156.748 8.17374C156.62 8.9677 157.055 10.6423 157.297 11.5622C157.555 12.5377 157.88 13.4948 158.217 14.4491C159.476 18.012 161.504 21.3207 163.615 24.0184C166.265 27.405 167.517 31.3253 169.472 35.3423C170.411 37.2694 171.486 39.0612 172.543 40.8437C173.244 42.0253 174.428 42.6961 175.268 43.4914C177.626 45.726 180.093 46.6334 182.289 49.4533C183.309 50.7624 184.328 52.1651 185.18 53.7216C185.644 54.5682 186.319 55.8484 186.963 56.4165C188.162 57.4725 189.552 58.8834 190.798 59.1058C191.252 59.1869 191.86 59.4016 192.319 59.5896Z" fill="#FFE665"/>
</g>
</g>
<mask id="mask1_14270_8706" style="mask-type:alpha" maskUnits="userSpaceOnUse" x="45" y="69" width="46" height="13">
<path fill-rule="evenodd" clip-rule="evenodd" d="M53.7903 76.6658C57.2185 77.6437 60.649 78.6123 64.0794 79.5809C64.7121 79.7661 65.1926 80.3585 65.0713 81.0657C64.9232 81.6692 64.1806 82.1447 63.5479 81.9594C57.7057 80.2603 51.852 78.6075 45.9984 76.9547L45.9983 76.9547C45.0303 76.6483 44.5339 75.2703 45.5965 74.766C47.5751 73.8237 49.5632 72.8957 51.5514 71.9677C53.5395 71.0396 55.5277 70.1116 57.5063 69.1693C58.1042 68.8582 58.8587 68.9719 59.2402 69.543C59.5835 70.057 59.4394 70.8569 58.8414 71.168C56.8628 72.1103 54.8747 73.0384 52.8865 73.9664C52.5978 74.1012 52.3091 74.2359 52.0205 74.3707C53.4674 74.3337 54.9155 74.2923 56.3635 74.2509C59.1982 74.1775 62.0452 74.1068 64.8923 74.036C67.7394 73.9653 70.5864 73.8946 73.4211 73.8212C78.98 73.6994 84.5656 73.6812 90.0492 74.7165C91.6459 75.0117 91.0762 77.3332 89.4909 76.9915C86.4462 76.433 83.3713 76.2102 80.3117 76.1374C76.3328 76.0575 72.3581 76.1831 68.3787 76.3088C66.8554 76.357 65.3315 76.4051 63.8064 76.4418C60.4604 76.5011 57.1278 76.5805 53.7903 76.6658Z" fill="black"/>
</mask>
<g mask="url(#mask1_14270_8706)">
<g filter="url(#filter4_f_14270_8706)">
<path d="M49.3586 124.121C60.2728 123.858 71.2023 123.536 82.1088 123.303C92.4953 123.054 95.0647 119.748 97.5649 109.213C103.265 84.9743 109.975 60.6794 116.395 36.3923C117.496 32.193 115.329 28.8684 111.556 28.9693C84.7263 29.6872 57.8702 30.4058 31.0558 31.065L49.3586 124.121Z" fill="#FFB9F8"/>
</g>
<g filter="url(#filter5_f_14270_8706)">
<path d="M109.897 110.551C123.974 112.499 138.046 114.458 152.135 116.414C141.928 111.644 130.356 107.254 118.675 103.263C108.184 99.6827 97.2092 96.1862 89.0917 91.6488C82.2309 87.8163 77.8713 83.5341 74.5555 79.071C63.6137 73.7734 55.5228 67.7311 50.5767 60.8976C46.8817 55.7877 51.6011 55.1809 52.2166 50.3099C61.3011 54.463 58.9797 45.3266 50.1756 40.9722C46.5698 39.1889 47.1837 40.5571 44.3015 38.5716C42.2963 37.18 37.5037 37.0096 36.311 35.5039C30.8987 28.6229 6.95514 23.5422 3.22834 16.5522C-6.03037 22.9751 22.166 35.1469 19.8602 42.7473C40.516 52.857 37.1022 58.0375 47.2379 70.2589C48.0698 71.2659 45.7188 76.2786 46.4893 77.2945L83.9828 107.554C87.965 108.324 105.836 109.986 109.897 110.551Z" fill="#71BBFF"/>
</g>
<g filter="url(#filter6_f_14270_8706)">
<path d="M51.7044 73.7944C40.6522 67.6154 21.2275 58.7528 7.07089 58.251C4.24372 65.6259 24.9169 61.6343 22.0897 69.0092L40.5698 77.5583C48.2998 77.9728 49.2446 80.2109 51.7044 73.7944Z" fill="#0A9F68"/>
</g>
<g filter="url(#filter7_f_14270_8706)">
<path d="M121.294 103.384C121.908 103.532 122.484 103.429 123.127 103.581C123.771 103.733 125.479 104.182 125.776 104.076C126.204 103.923 127.134 103.996 127.098 103.393C127.063 102.811 126.314 102.059 125.837 101.49C124.084 99.4039 121.793 97.4503 119.81 95.4622C118.806 94.4568 118.111 93.3485 117.154 92.3076C116.688 91.8004 116.196 91.5988 115.839 91.0093C115.497 90.4432 114.975 89.9366 114.495 89.4134C113.331 88.1473 112.786 86.8944 112.025 85.5329C111.186 84.0299 109.204 82.1616 107.795 80.8554C103.29 76.6814 97.4111 74.4372 92.0158 71.3763C89.9229 70.189 87.6882 69.3015 85.6712 67.9789C83.5468 66.5858 81.9791 64.9042 80.3865 63.1711C77.6705 60.2156 74.7912 56.9252 71.4301 54.3384C69.8725 53.1396 68.2732 52.131 66.3276 51.5854C64.2305 50.9973 61.7277 52.2842 61.1752 53.6107C60.8684 54.3473 61.5062 55.9342 61.8639 56.806C62.2433 57.7306 62.7481 58.6412 63.275 59.5497C65.2423 62.9418 68.6356 66.1324 72.2357 68.7555C76.7553 72.0484 78.6754 75.7743 81.8716 79.624C83.4049 81.4709 85.2008 83.1977 86.9639 84.915C88.1325 86.0532 90.2297 86.7367 91.6869 87.5202C95.7815 89.7219 100.196 90.6873 103.941 93.4286C105.679 94.7014 107.408 96.0615 108.818 97.5576C109.585 98.3714 110.698 99.6007 111.821 100.163C113.909 101.207 116.315 102.592 118.565 102.859C119.385 102.957 120.474 103.186 121.294 103.384Z" fill="#FFE665"/>
</g>
</g>
<defs>
<filter id="filter0_f_14270_8706" x="137.863" y="-20.7061" width="51.0325" height="107.2" filterUnits="userSpaceOnUse" color-interpolation-filters="sRGB">
<feFlood flood-opacity="0" result="BackgroundImageFix"/>
<feBlend mode="normal" in="SourceGraphic" in2="BackgroundImageFix" result="shape"/>
<feGaussianBlur stdDeviation="1" result="effect1_foregroundBlur_14270_8706"/>
</filter>
<filter id="filter1_f_14270_8706" x="119.301" y="-23.3501" width="91.7098" height="106.375" filterUnits="userSpaceOnUse" color-interpolation-filters="sRGB">
<feFlood flood-opacity="0" result="BackgroundImageFix"/>
<feBlend mode="normal" in="SourceGraphic" in2="BackgroundImageFix" result="shape"/>
<feGaussianBlur stdDeviation="1" result="effect1_foregroundBlur_14270_8706"/>
</filter>
<filter id="filter2_f_14270_8706" x="137.438" y="21.23" width="29.3375" height="24.2344" filterUnits="userSpaceOnUse" color-interpolation-filters="sRGB">
<feFlood flood-opacity="0" result="BackgroundImageFix"/>
<feBlend mode="normal" in="SourceGraphic" in2="BackgroundImageFix" result="shape"/>
<feGaussianBlur stdDeviation="1" result="effect1_foregroundBlur_14270_8706"/>
</filter>
<filter id="filter3_f_14270_8706" x="154.725" y="3.74414" width="42.7731" height="58.481" filterUnits="userSpaceOnUse" color-interpolation-filters="sRGB">
<feFlood flood-opacity="0" result="BackgroundImageFix"/>
<feBlend mode="normal" in="SourceGraphic" in2="BackgroundImageFix" result="shape"/>
<feGaussianBlur stdDeviation="1" result="effect1_foregroundBlur_14270_8706"/>
</filter>
<filter id="filter4_f_14270_8706" x="29.0558" y="26.9673" width="89.6257" height="99.1533" filterUnits="userSpaceOnUse" color-interpolation-filters="sRGB">
<feFlood flood-opacity="0" result="BackgroundImageFix"/>
<feBlend mode="normal" in="SourceGraphic" in2="BackgroundImageFix" result="shape"/>
<feGaussianBlur stdDeviation="1" result="effect1_foregroundBlur_14270_8706"/>
</filter>
<filter id="filter5_f_14270_8706" x="-0.644775" y="14.5522" width="154.779" height="103.861" filterUnits="userSpaceOnUse" color-interpolation-filters="sRGB">
<feFlood flood-opacity="0" result="BackgroundImageFix"/>
<feBlend mode="normal" in="SourceGraphic" in2="BackgroundImageFix" result="shape"/>
<feGaussianBlur stdDeviation="1" result="effect1_foregroundBlur_14270_8706"/>
</filter>
<filter id="filter6_f_14270_8706" x="4.80457" y="56.251" width="48.8998" height="24.021" filterUnits="userSpaceOnUse" color-interpolation-filters="sRGB">
<feFlood flood-opacity="0" result="BackgroundImageFix"/>
<feBlend mode="normal" in="SourceGraphic" in2="BackgroundImageFix" result="shape"/>
<feGaussianBlur stdDeviation="1" result="effect1_foregroundBlur_14270_8706"/>
</filter>
<filter id="filter7_f_14270_8706" x="59.0941" y="49.439" width="70.0049" height="56.6528" filterUnits="userSpaceOnUse" color-interpolation-filters="sRGB">
<feFlood flood-opacity="0" result="BackgroundImageFix"/>
<feBlend mode="normal" in="SourceGraphic" in2="BackgroundImageFix" result="shape"/>
<feGaussianBlur stdDeviation="1" result="effect1_foregroundBlur_14270_8706"/>
</filter>
<linearGradient id="paint0_linear_14270_8706" x1="57" y1="-37.5" x2="103" y2="68.5" gradientUnits="userSpaceOnUse">
<stop stop-color="#7D7D7D"/>
<stop offset="1" stop-color="#23201F"/>
</linearGradient>
</defs>
</svg>
