<svg width="600" height="104" viewBox="0 0 600 104" fill="none" xmlns="http://www.w3.org/2000/svg">
<rect width="120" height="104" rx="4" fill="#FAFAFA"/>
<rect x="160" width="120" height="104" rx="4" fill="#FAFAFA"/>
<rect x="320" width="120" height="104" rx="4" fill="#FAFAFA"/>
<rect x="480" width="120" height="104" rx="4" fill="#FAFAFA"/>
<path d="M36.7628 66L36.1268 63.768H33.4628L32.8268 66H31.4588L33.9068 57.624H35.7428L38.1908 66H36.7628ZM34.8428 58.98H34.7467L33.7148 62.652H35.8748L34.8428 58.98ZM39.3621 59.808H40.6701V60.864H40.7421C40.9261 60.488 41.1701 60.196 41.4741 59.988C41.7781 59.772 42.1581 59.664 42.6141 59.664C43.3421 59.664 43.9221 59.936 44.3541 60.48C44.7861 61.024 45.0021 61.832 45.0021 62.904C45.0021 63.976 44.7861 64.784 44.3541 65.328C43.9221 65.872 43.3421 66.144 42.6141 66.144C42.1581 66.144 41.7781 66.04 41.4741 65.832C41.1701 65.616 40.9261 65.32 40.7421 64.944H40.6701V68.4H39.3621V59.808ZM42.0741 65.076C42.5701 65.076 42.9501 64.924 43.2141 64.62C43.4861 64.316 43.6221 63.912 43.6221 63.408V62.4C43.6221 61.896 43.4861 61.492 43.2141 61.188C42.9501 60.884 42.5701 60.732 42.0741 60.732C41.8821 60.732 41.7021 60.756 41.5341 60.804C41.3661 60.852 41.2181 60.924 41.0901 61.02C40.9621 61.116 40.8581 61.236 40.7781 61.38C40.7061 61.516 40.6701 61.68 40.6701 61.872V63.936C40.6701 64.128 40.7061 64.296 40.7781 64.44C40.8581 64.576 40.9621 64.692 41.0901 64.788C41.2181 64.884 41.3661 64.956 41.5341 65.004C41.7021 65.052 41.8821 65.076 42.0741 65.076ZM46.5574 59.808H47.8654V60.864H47.9374C48.1214 60.488 48.3654 60.196 48.6694 59.988C48.9734 59.772 49.3534 59.664 49.8094 59.664C50.5374 59.664 51.1174 59.936 51.5494 60.48C51.9814 61.024 52.1974 61.832 52.1974 62.904C52.1974 63.976 51.9814 64.784 51.5494 65.328C51.1174 65.872 50.5374 66.144 49.8094 66.144C49.3534 66.144 48.9734 66.04 48.6694 65.832C48.3654 65.616 48.1214 65.32 47.9374 64.944H47.8654V68.4H46.5574V59.808ZM49.2694 65.076C49.7654 65.076 50.1454 64.924 50.4094 64.62C50.6814 64.316 50.8174 63.912 50.8174 63.408V62.4C50.8174 61.896 50.6814 61.492 50.4094 61.188C50.1454 60.884 49.7654 60.732 49.2694 60.732C49.0774 60.732 48.8974 60.756 48.7294 60.804C48.5614 60.852 48.4134 60.924 48.2854 61.02C48.1574 61.116 48.0534 61.236 47.9734 61.38C47.9014 61.516 47.8654 61.68 47.8654 61.872V63.936C47.8654 64.128 47.9014 64.296 47.9734 64.44C48.0534 64.576 48.1574 64.692 48.2854 64.788C48.4134 64.884 48.5614 64.956 48.7294 65.004C48.8974 65.052 49.0774 65.076 49.2694 65.076ZM53.7167 64.944H55.3607V60.864H53.7167V59.808H56.6687V61.452H56.7407C56.7967 61.236 56.8767 61.028 56.9807 60.828C57.0847 60.628 57.2167 60.456 57.3767 60.312C57.5367 60.16 57.7327 60.04 57.9647 59.952C58.1967 59.856 58.4687 59.808 58.7807 59.808H59.5247V61.056H58.3007C57.8207 61.056 57.4287 61.2 57.1247 61.488C56.8207 61.768 56.6687 62.148 56.6687 62.628V64.944H58.9127V66H53.7167V64.944ZM63.6 66.144C63.144 66.144 62.732 66.068 62.364 65.916C62.004 65.764 61.696 65.548 61.44 65.268C61.192 64.988 61 64.648 60.864 64.248C60.728 63.848 60.66 63.4 60.66 62.904C60.66 62.408 60.728 61.96 60.864 61.56C61 61.16 61.192 60.82 61.44 60.54C61.696 60.26 62.004 60.044 62.364 59.892C62.732 59.74 63.144 59.664 63.6 59.664C64.056 59.664 64.464 59.74 64.824 59.892C65.192 60.044 65.5 60.26 65.748 60.54C66.004 60.82 66.2 61.16 66.336 61.56C66.472 61.96 66.54 62.408 66.54 62.904C66.54 63.4 66.472 63.848 66.336 64.248C66.2 64.648 66.004 64.988 65.748 65.268C65.5 65.548 65.192 65.764 64.824 65.916C64.464 66.068 64.056 66.144 63.6 66.144ZM63.6 65.112C64.08 65.112 64.46 64.968 64.74 64.68C65.028 64.384 65.172 63.948 65.172 63.372V62.436C65.172 61.86 65.028 61.428 64.74 61.14C64.46 60.844 64.08 60.696 63.6 60.696C63.12 60.696 62.736 60.844 62.448 61.14C62.168 61.428 62.028 61.86 62.028 62.436V63.372C62.028 63.948 62.168 64.384 62.448 64.68C62.736 64.968 63.12 65.112 63.6 65.112ZM69.9913 66L67.7713 59.808H69.1273L69.9793 62.424L70.7833 64.908H70.8553L71.6593 62.424L72.5113 59.808H73.8193L71.5993 66H69.9913ZM78.1226 66.144C77.6506 66.144 77.2266 66.068 76.8506 65.916C76.4746 65.764 76.1586 65.548 75.9026 65.268C75.6466 64.988 75.4506 64.652 75.3146 64.26C75.1786 63.86 75.1106 63.412 75.1106 62.916C75.1106 62.42 75.1786 61.972 75.3146 61.572C75.4586 61.172 75.6546 60.832 75.9026 60.552C76.1586 60.264 76.4666 60.044 76.8266 59.892C77.1866 59.74 77.5866 59.664 78.0266 59.664C78.4586 59.664 78.8506 59.74 79.2026 59.892C79.5546 60.036 79.8546 60.244 80.1026 60.516C80.3506 60.788 80.5386 61.112 80.6666 61.488C80.8026 61.864 80.8706 62.28 80.8706 62.736V63.228H76.4306V63.432C76.4306 63.92 76.5826 64.32 76.8866 64.632C77.1906 64.936 77.6106 65.088 78.1466 65.088C78.5466 65.088 78.8866 65.004 79.1666 64.836C79.4546 64.66 79.6866 64.428 79.8626 64.14L80.6786 64.86C80.4706 65.22 80.1506 65.524 79.7186 65.772C79.2946 66.02 78.7626 66.144 78.1226 66.144ZM78.0266 60.66C77.7946 60.66 77.5786 60.7 77.3786 60.78C77.1866 60.86 77.0186 60.976 76.8746 61.128C76.7386 61.272 76.6306 61.444 76.5506 61.644C76.4706 61.844 76.4306 62.064 76.4306 62.304V62.388H79.5386V62.268C79.5386 61.78 79.3986 61.392 79.1186 61.104C78.8466 60.808 78.4826 60.66 78.0266 60.66ZM86.5299 64.944H86.4579C86.2739 65.32 86.0299 65.616 85.7259 65.832C85.4219 66.04 85.0419 66.144 84.5859 66.144C83.8579 66.144 83.2779 65.872 82.8459 65.328C82.4139 64.784 82.1979 63.976 82.1979 62.904C82.1979 61.832 82.4139 61.024 82.8459 60.48C83.2779 59.936 83.8579 59.664 84.5859 59.664C85.0419 59.664 85.4219 59.772 85.7259 59.988C86.0299 60.196 86.2739 60.488 86.4579 60.864H86.5299V57.12H87.8379V66H86.5299V64.944ZM85.1259 65.076C85.3179 65.076 85.4979 65.052 85.6659 65.004C85.8339 64.956 85.9819 64.884 86.1099 64.788C86.2379 64.692 86.3379 64.576 86.4099 64.44C86.4899 64.296 86.5299 64.128 86.5299 63.936V61.872C86.5299 61.68 86.4899 61.516 86.4099 61.38C86.3379 61.236 86.2379 61.116 86.1099 61.02C85.9819 60.924 85.8339 60.852 85.6659 60.804C85.4979 60.756 85.3179 60.732 85.1259 60.732C84.6299 60.732 84.2459 60.884 83.9739 61.188C83.7099 61.492 83.5779 61.896 83.5779 62.4V63.408C83.5779 63.912 83.7099 64.316 83.9739 64.62C84.2459 64.924 84.6299 65.076 85.1259 65.076ZM32.1668 75.12H33.4748V78.864H33.5468C33.7308 78.488 33.9748 78.196 34.2788 77.988C34.5828 77.772 34.9628 77.664 35.4188 77.664C36.1468 77.664 36.7268 77.936 37.1588 78.48C37.5908 79.024 37.8068 79.832 37.8068 80.904C37.8068 81.976 37.5908 82.784 37.1588 83.328C36.7268 83.872 36.1468 84.144 35.4188 84.144C34.9628 84.144 34.5828 84.04 34.2788 83.832C33.9748 83.616 33.7308 83.32 33.5468 82.944H33.4748V84H32.1668V75.12ZM34.8788 83.076C35.3748 83.076 35.7548 82.924 36.0188 82.62C36.2908 82.316 36.4268 81.912 36.4268 81.408V80.4C36.4268 79.896 36.2908 79.492 36.0188 79.188C35.7548 78.884 35.3748 78.732 34.8788 78.732C34.6868 78.732 34.5068 78.756 34.3388 78.804C34.1708 78.852 34.0228 78.924 33.8948 79.02C33.7668 79.116 33.6628 79.236 33.5828 79.38C33.5108 79.516 33.4748 79.68 33.4748 79.872V81.936C33.4748 82.128 33.5108 82.296 33.5828 82.44C33.6628 82.576 33.7668 82.692 33.8948 82.788C34.0228 82.884 34.1708 82.956 34.3388 83.004C34.5068 83.052 34.6868 83.076 34.8788 83.076ZM43.2981 82.944H43.2381C43.1741 83.104 43.0901 83.26 42.9861 83.412C42.8901 83.556 42.7701 83.684 42.6261 83.796C42.4821 83.9 42.3141 83.984 42.1221 84.048C41.9301 84.112 41.7061 84.144 41.4501 84.144C40.8261 84.144 40.3221 83.94 39.9381 83.532C39.5541 83.124 39.3621 82.544 39.3621 81.792V77.808H40.6701V81.6C40.6701 82.584 41.0981 83.076 41.9541 83.076C42.1221 83.076 42.2861 83.056 42.4461 83.016C42.6061 82.968 42.7501 82.9 42.8781 82.812C43.0061 82.724 43.1061 82.616 43.1781 82.488C43.2581 82.352 43.2981 82.192 43.2981 82.008V77.808H44.6061V84H43.2981V82.944ZM49.2214 84.144C48.5494 84.144 47.9694 84.036 47.4814 83.82C47.0014 83.604 46.6134 83.316 46.3174 82.956L47.1214 82.236C47.3934 82.532 47.6974 82.76 48.0334 82.92C48.3774 83.072 48.7814 83.148 49.2454 83.148C49.6694 83.148 50.0094 83.076 50.2654 82.932C50.5294 82.788 50.6614 82.564 50.6614 82.26C50.6614 82.132 50.6374 82.024 50.5894 81.936C50.5414 81.848 50.4734 81.776 50.3854 81.72C50.2974 81.664 50.1934 81.62 50.0734 81.588C49.9614 81.556 49.8414 81.532 49.7134 81.516L48.7294 81.36C48.4894 81.328 48.2454 81.276 47.9974 81.204C47.7494 81.132 47.5254 81.032 47.3254 80.904C47.1334 80.768 46.9734 80.596 46.8454 80.388C46.7254 80.18 46.6654 79.916 46.6654 79.596C46.6654 78.964 46.9054 78.484 47.3854 78.156C47.8734 77.828 48.5134 77.664 49.3054 77.664C49.8814 77.664 50.3774 77.752 50.7934 77.928C51.2174 78.096 51.5694 78.332 51.8494 78.636L51.1174 79.404C50.9574 79.22 50.7294 79.052 50.4334 78.9C50.1374 78.74 49.7454 78.66 49.2574 78.66C48.3854 78.66 47.9494 78.936 47.9494 79.488C47.9494 79.752 48.0414 79.936 48.2254 80.04C48.4174 80.136 48.6414 80.2 48.8974 80.232L49.8814 80.388C50.1294 80.428 50.3734 80.48 50.6134 80.544C50.8614 80.608 51.0814 80.708 51.2734 80.844C51.4734 80.972 51.6334 81.14 51.7534 81.348C51.8814 81.556 51.9454 81.82 51.9454 82.14C51.9454 82.764 51.7014 83.256 51.2134 83.616C50.7334 83.968 50.0694 84.144 49.2214 84.144ZM56.7887 76.68C56.4527 76.68 56.2167 76.612 56.0807 76.476C55.9527 76.34 55.8887 76.172 55.8887 75.972V75.72C55.8887 75.52 55.9527 75.352 56.0807 75.216C56.2167 75.08 56.4487 75.012 56.7767 75.012C57.1127 75.012 57.3447 75.08 57.4727 75.216C57.6087 75.352 57.6767 75.52 57.6767 75.72V75.972C57.6767 76.172 57.6087 76.34 57.4727 76.476C57.3447 76.612 57.1167 76.68 56.7887 76.68ZM54.0167 82.944H56.1287V78.864H54.0167V77.808H57.4367V82.944H59.4167V84H54.0167V82.944ZM61.008 84V77.808H62.316V78.864H62.376C62.44 78.704 62.52 78.552 62.616 78.408C62.72 78.256 62.844 78.128 62.988 78.024C63.132 77.912 63.3 77.824 63.492 77.76C63.684 77.696 63.908 77.664 64.164 77.664C64.788 77.664 65.292 77.868 65.676 78.276C66.06 78.684 66.252 79.264 66.252 80.016V84H64.944V80.208C64.944 79.224 64.516 78.732 63.66 78.732C63.492 78.732 63.328 78.756 63.168 78.804C63.008 78.844 62.864 78.908 62.736 78.996C62.608 79.084 62.504 79.196 62.424 79.332C62.352 79.468 62.316 79.624 62.316 79.8V84H61.008ZM70.9273 84.144C70.4553 84.144 70.0313 84.068 69.6553 83.916C69.2793 83.764 68.9633 83.548 68.7073 83.268C68.4513 82.988 68.2553 82.652 68.1193 82.26C67.9833 81.86 67.9153 81.412 67.9153 80.916C67.9153 80.42 67.9833 79.972 68.1193 79.572C68.2633 79.172 68.4593 78.832 68.7073 78.552C68.9633 78.264 69.2713 78.044 69.6313 77.892C69.9913 77.74 70.3913 77.664 70.8313 77.664C71.2633 77.664 71.6553 77.74 72.0073 77.892C72.3593 78.036 72.6593 78.244 72.9073 78.516C73.1553 78.788 73.3433 79.112 73.4713 79.488C73.6073 79.864 73.6753 80.28 73.6753 80.736V81.228H69.2353V81.432C69.2353 81.92 69.3873 82.32 69.6913 82.632C69.9953 82.936 70.4153 83.088 70.9513 83.088C71.3513 83.088 71.6913 83.004 71.9713 82.836C72.2593 82.66 72.4913 82.428 72.6673 82.14L73.4833 82.86C73.2753 83.22 72.9553 83.524 72.5233 83.772C72.0993 84.02 71.5673 84.144 70.9273 84.144ZM70.8313 78.66C70.5993 78.66 70.3833 78.7 70.1833 78.78C69.9913 78.86 69.8233 78.976 69.6793 79.128C69.5433 79.272 69.4353 79.444 69.3553 79.644C69.2753 79.844 69.2353 80.064 69.2353 80.304V80.388H72.3433V80.268C72.3433 79.78 72.2033 79.392 71.9233 79.104C71.6513 78.808 71.2873 78.66 70.8313 78.66ZM78.0026 84.144C77.3306 84.144 76.7506 84.036 76.2626 83.82C75.7826 83.604 75.3946 83.316 75.0986 82.956L75.9026 82.236C76.1746 82.532 76.4786 82.76 76.8146 82.92C77.1586 83.072 77.5626 83.148 78.0266 83.148C78.4506 83.148 78.7906 83.076 79.0466 82.932C79.3106 82.788 79.4426 82.564 79.4426 82.26C79.4426 82.132 79.4186 82.024 79.3706 81.936C79.3226 81.848 79.2546 81.776 79.1666 81.72C79.0786 81.664 78.9746 81.62 78.8546 81.588C78.7426 81.556 78.6226 81.532 78.4946 81.516L77.5106 81.36C77.2706 81.328 77.0266 81.276 76.7786 81.204C76.5306 81.132 76.3066 81.032 76.1066 80.904C75.9146 80.768 75.7546 80.596 75.6266 80.388C75.5066 80.18 75.4466 79.916 75.4466 79.596C75.4466 78.964 75.6866 78.484 76.1666 78.156C76.6546 77.828 77.2946 77.664 78.0866 77.664C78.6626 77.664 79.1586 77.752 79.5746 77.928C79.9986 78.096 80.3506 78.332 80.6306 78.636L79.8986 79.404C79.7386 79.22 79.5106 79.052 79.2146 78.9C78.9186 78.74 78.5266 78.66 78.0386 78.66C77.1666 78.66 76.7306 78.936 76.7306 79.488C76.7306 79.752 76.8226 79.936 77.0066 80.04C77.1986 80.136 77.4226 80.2 77.6786 80.232L78.6626 80.388C78.9106 80.428 79.1546 80.48 79.3946 80.544C79.6426 80.608 79.8626 80.708 80.0546 80.844C80.2546 80.972 80.4146 81.14 80.5346 81.348C80.6626 81.556 80.7266 81.82 80.7266 82.14C80.7266 82.764 80.4826 83.256 79.9946 83.616C79.5146 83.968 78.8506 84.144 78.0026 84.144ZM85.1979 84.144C84.5259 84.144 83.9459 84.036 83.4579 83.82C82.9779 83.604 82.5899 83.316 82.2939 82.956L83.0979 82.236C83.3699 82.532 83.6739 82.76 84.0099 82.92C84.3539 83.072 84.7579 83.148 85.2219 83.148C85.6459 83.148 85.9859 83.076 86.2419 82.932C86.5059 82.788 86.6379 82.564 86.6379 82.26C86.6379 82.132 86.6139 82.024 86.5659 81.936C86.5179 81.848 86.4499 81.776 86.3619 81.72C86.2739 81.664 86.1699 81.62 86.0499 81.588C85.9379 81.556 85.8179 81.532 85.6899 81.516L84.7059 81.36C84.4659 81.328 84.2219 81.276 83.9739 81.204C83.7259 81.132 83.5019 81.032 83.3019 80.904C83.1099 80.768 82.9499 80.596 82.8219 80.388C82.7019 80.18 82.6419 79.916 82.6419 79.596C82.6419 78.964 82.8819 78.484 83.3619 78.156C83.8499 77.828 84.4899 77.664 85.2819 77.664C85.8579 77.664 86.3539 77.752 86.7699 77.928C87.1939 78.096 87.5459 78.332 87.8259 78.636L87.0939 79.404C86.9339 79.22 86.7059 79.052 86.4099 78.9C86.1139 78.74 85.7219 78.66 85.2339 78.66C84.3619 78.66 83.9259 78.936 83.9259 79.488C83.9259 79.752 84.0179 79.936 84.2019 80.04C84.3939 80.136 84.6179 80.2 84.8739 80.232L85.8579 80.388C86.1059 80.428 86.3499 80.48 86.5899 80.544C86.8379 80.608 87.0579 80.708 87.2499 80.844C87.4499 80.972 87.6099 81.14 87.7299 81.348C87.8579 81.556 87.9219 81.82 87.9219 82.14C87.9219 82.764 87.6779 83.256 87.1899 83.616C86.7099 83.968 86.0459 84.144 85.1979 84.144Z" fill="#787878"/>
<path d="M57 43H60V36.942L56 33.454L52 36.942V43H55V39H57V43ZM69 45H51C50.7348 45 50.4804 44.8946 50.2929 44.7071C50.1054 44.5196 50 44.2652 50 44V36.487C50 36.3441 50.0306 36.2029 50.0898 36.0728C50.1489 35.9428 50.2353 35.8269 50.343 35.733L54 32.544V28C54 27.7348 54.1054 27.4804 54.2929 27.2929C54.4804 27.1054 54.7348 27 55 27H69C69.2652 27 69.5196 27.1054 69.7071 27.2929C69.8946 27.4804 70 27.7348 70 28V44C70 44.2652 69.8946 44.5196 69.7071 44.7071C69.5196 44.8946 69.2652 45 69 45ZM64 35V37H66V35H64ZM64 39V41H66V39H64ZM64 31V33H66V31H64ZM60 31V33H62V31H60Z" fill="#787878"/>
<path d="M185.019 57.624H187.911C188.671 57.624 189.259 57.82 189.675 58.212C190.099 58.604 190.311 59.14 190.311 59.82C190.311 60.308 190.191 60.696 189.951 60.984C189.711 61.272 189.387 61.476 188.979 61.596V61.656C189.467 61.768 189.859 61.984 190.155 62.304C190.451 62.616 190.599 63.06 190.599 63.636C190.599 63.98 190.543 64.296 190.431 64.584C190.319 64.872 190.159 65.124 189.951 65.34C189.743 65.548 189.491 65.712 189.195 65.832C188.907 65.944 188.587 66 188.235 66H185.019V57.624ZM187.827 64.968C188.275 64.968 188.619 64.876 188.859 64.692C189.099 64.508 189.219 64.212 189.219 63.804V63.372C189.219 62.964 189.099 62.668 188.859 62.484C188.619 62.3 188.275 62.208 187.827 62.208H186.339V64.968H187.827ZM187.635 61.224C188.059 61.224 188.379 61.144 188.595 60.984C188.819 60.816 188.931 60.54 188.931 60.156V59.724C188.931 59.34 188.819 59.068 188.595 58.908C188.379 58.74 188.059 58.656 187.635 58.656H186.339V61.224H187.635ZM192.131 64.944H193.775V60.864H192.131V59.808H195.083V61.452H195.155C195.211 61.236 195.291 61.028 195.395 60.828C195.499 60.628 195.631 60.456 195.791 60.312C195.951 60.16 196.147 60.04 196.379 59.952C196.611 59.856 196.883 59.808 197.195 59.808H197.939V61.056H196.715C196.235 61.056 195.843 61.2 195.539 61.488C195.235 61.768 195.083 62.148 195.083 62.628V64.944H197.327V66H192.131V64.944ZM202.398 58.68C202.062 58.68 201.826 58.612 201.69 58.476C201.562 58.34 201.498 58.172 201.498 57.972V57.72C201.498 57.52 201.562 57.352 201.69 57.216C201.826 57.08 202.058 57.012 202.386 57.012C202.722 57.012 202.954 57.08 203.082 57.216C203.218 57.352 203.286 57.52 203.286 57.72V57.972C203.286 58.172 203.218 58.34 203.082 58.476C202.954 58.612 202.726 58.68 202.398 58.68ZM199.626 64.944H201.738V60.864H199.626V59.808H203.046V64.944H205.026V66H199.626V64.944ZM212.449 66.672C212.449 67.312 212.181 67.784 211.645 68.088C211.109 68.392 210.293 68.544 209.197 68.544C208.661 68.544 208.209 68.508 207.841 68.436C207.481 68.372 207.185 68.276 206.953 68.148C206.729 68.02 206.565 67.864 206.461 67.68C206.365 67.496 206.317 67.288 206.317 67.056C206.317 66.72 206.409 66.456 206.593 66.264C206.785 66.08 207.053 65.944 207.397 65.856V65.736C207.189 65.656 207.021 65.544 206.893 65.4C206.773 65.256 206.713 65.068 206.713 64.836C206.713 64.532 206.817 64.304 207.025 64.152C207.233 63.992 207.501 63.872 207.829 63.792V63.732C207.453 63.556 207.161 63.308 206.953 62.988C206.745 62.668 206.641 62.284 206.641 61.836C206.641 61.508 206.701 61.212 206.821 60.948C206.941 60.676 207.109 60.448 207.325 60.264C207.549 60.072 207.813 59.924 208.117 59.82C208.429 59.716 208.777 59.664 209.161 59.664C209.593 59.664 209.981 59.732 210.325 59.868V59.664C210.325 59.424 210.393 59.224 210.529 59.064C210.665 58.904 210.873 58.824 211.153 58.824H212.281V59.856H210.841V60.144C211.113 60.328 211.321 60.564 211.465 60.852C211.609 61.132 211.681 61.46 211.681 61.836C211.681 62.164 211.621 62.464 211.501 62.736C211.381 63 211.209 63.228 210.985 63.42C210.769 63.604 210.505 63.748 210.193 63.852C209.889 63.948 209.545 63.996 209.161 63.996C208.889 63.996 208.633 63.972 208.393 63.924C208.249 63.964 208.105 64.032 207.961 64.128C207.817 64.224 207.745 64.356 207.745 64.524C207.745 64.716 207.837 64.836 208.021 64.884C208.205 64.932 208.433 64.956 208.705 64.956H210.097C210.929 64.956 211.529 65.116 211.897 65.436C212.265 65.748 212.449 66.16 212.449 66.672ZM211.225 66.756C211.225 66.548 211.141 66.38 210.973 66.252C210.805 66.132 210.501 66.072 210.061 66.072H207.913C207.609 66.216 207.457 66.448 207.457 66.768C207.457 67 207.553 67.2 207.745 67.368C207.945 67.536 208.273 67.62 208.729 67.62H209.701C210.197 67.62 210.573 67.544 210.829 67.392C211.093 67.248 211.225 67.036 211.225 66.756ZM209.161 63.096C209.585 63.096 209.897 62.996 210.097 62.796C210.297 62.596 210.397 62.328 210.397 61.992V61.668C210.397 61.332 210.297 61.064 210.097 60.864C209.897 60.664 209.585 60.564 209.161 60.564C208.737 60.564 208.425 60.664 208.225 60.864C208.025 61.064 207.925 61.332 207.925 61.668V61.992C207.925 62.328 208.025 62.596 208.225 62.796C208.425 62.996 208.737 63.096 209.161 63.096ZM213.813 57.12H215.121V60.864H215.181C215.245 60.704 215.325 60.552 215.421 60.408C215.525 60.256 215.649 60.128 215.793 60.024C215.937 59.912 216.105 59.824 216.297 59.76C216.489 59.696 216.713 59.664 216.969 59.664C217.593 59.664 218.097 59.868 218.481 60.276C218.865 60.684 219.057 61.264 219.057 62.016V66H217.749V62.208C217.749 61.224 217.321 60.732 216.465 60.732C216.297 60.732 216.133 60.756 215.973 60.804C215.813 60.844 215.669 60.908 215.541 60.996C215.413 61.084 215.309 61.196 215.229 61.332C215.157 61.468 215.121 61.624 215.121 61.8V66H213.813V57.12ZM223.972 66C223.428 66 223.028 65.856 222.772 65.568C222.516 65.272 222.388 64.892 222.388 64.428V60.864H220.48V59.808H221.836C222.068 59.808 222.232 59.764 222.328 59.676C222.424 59.58 222.472 59.412 222.472 59.172V57.624H223.696V59.808H226.336V60.864H223.696V64.944H226.336V66H223.972ZM228.179 57.624H230.675C231.747 57.624 232.539 57.98 233.051 58.692C233.571 59.404 233.831 60.444 233.831 61.812C233.831 63.18 233.571 64.22 233.051 64.932C232.539 65.644 231.747 66 230.675 66H228.179V57.624ZM230.591 64.896C231.207 64.896 231.663 64.692 231.959 64.284C232.263 63.868 232.415 63.276 232.415 62.508V61.116C232.415 60.348 232.263 59.76 231.959 59.352C231.663 58.936 231.207 58.728 230.591 58.728H229.511V64.896H230.591ZM240.295 66C239.919 66 239.635 65.904 239.443 65.712C239.259 65.52 239.147 65.268 239.107 64.956H239.047C238.927 65.332 238.707 65.624 238.387 65.832C238.075 66.04 237.675 66.144 237.187 66.144C236.555 66.144 236.051 65.98 235.675 65.652C235.299 65.316 235.111 64.856 235.111 64.272C235.111 63.672 235.331 63.216 235.771 62.904C236.219 62.584 236.903 62.424 237.823 62.424H239.011V61.944C239.011 61.104 238.567 60.684 237.679 60.684C237.279 60.684 236.955 60.764 236.707 60.924C236.459 61.076 236.251 61.28 236.083 61.536L235.303 60.9C235.479 60.564 235.775 60.276 236.191 60.036C236.607 59.788 237.143 59.664 237.799 59.664C238.583 59.664 239.199 59.852 239.647 60.228C240.095 60.604 240.319 61.148 240.319 61.86V64.968H241.099V66H240.295ZM237.559 65.184C237.983 65.184 238.331 65.088 238.603 64.896C238.875 64.704 239.011 64.456 239.011 64.152V63.252H237.847C236.903 63.252 236.431 63.536 236.431 64.104V64.344C236.431 64.624 236.531 64.836 236.731 64.98C236.931 65.116 237.207 65.184 237.559 65.184ZM245.558 66C245.014 66 244.614 65.856 244.358 65.568C244.102 65.272 243.974 64.892 243.974 64.428V60.864H242.066V59.808H243.422C243.654 59.808 243.818 59.764 243.914 59.676C244.01 59.58 244.058 59.412 244.058 59.172V57.624H245.282V59.808H247.922V60.864H245.282V64.944H247.922V66H245.558ZM254.685 66C254.309 66 254.025 65.904 253.833 65.712C253.649 65.52 253.537 65.268 253.497 64.956H253.437C253.317 65.332 253.097 65.624 252.777 65.832C252.465 66.04 252.065 66.144 251.577 66.144C250.945 66.144 250.441 65.98 250.065 65.652C249.689 65.316 249.501 64.856 249.501 64.272C249.501 63.672 249.721 63.216 250.161 62.904C250.609 62.584 251.293 62.424 252.213 62.424H253.401V61.944C253.401 61.104 252.957 60.684 252.069 60.684C251.669 60.684 251.345 60.764 251.097 60.924C250.849 61.076 250.641 61.28 250.473 61.536L249.693 60.9C249.869 60.564 250.165 60.276 250.581 60.036C250.997 59.788 251.533 59.664 252.189 59.664C252.973 59.664 253.589 59.852 254.037 60.228C254.485 60.604 254.709 61.148 254.709 61.86V64.968H255.489V66H254.685ZM251.949 65.184C252.373 65.184 252.721 65.088 252.993 64.896C253.265 64.704 253.401 64.456 253.401 64.152V63.252H252.237C251.293 63.252 250.821 63.536 250.821 64.104V64.344C250.821 64.624 250.921 64.836 251.121 64.98C251.321 65.116 251.597 65.184 251.949 65.184ZM173.161 84.144C172.433 84.144 171.821 84.016 171.325 83.76C170.829 83.504 170.421 83.164 170.101 82.74L170.965 81.912C171.285 82.296 171.625 82.58 171.985 82.764C172.345 82.94 172.753 83.028 173.209 83.028C173.737 83.028 174.141 82.908 174.421 82.668C174.709 82.428 174.853 82.084 174.853 81.636C174.853 81.276 174.749 81 174.541 80.808C174.333 80.608 173.977 80.464 173.473 80.376L172.561 80.232C172.161 80.168 171.825 80.064 171.553 79.92C171.281 79.768 171.061 79.592 170.893 79.392C170.725 79.184 170.601 78.956 170.521 78.708C170.449 78.452 170.413 78.184 170.413 77.904C170.413 77.112 170.669 76.512 171.181 76.104C171.693 75.688 172.397 75.48 173.293 75.48C173.957 75.48 174.521 75.588 174.985 75.804C175.457 76.012 175.837 76.308 176.125 76.692L175.285 77.532C175.053 77.252 174.777 77.028 174.457 76.86C174.145 76.684 173.757 76.596 173.293 76.596C172.797 76.596 172.417 76.704 172.153 76.92C171.897 77.128 171.769 77.436 171.769 77.844C171.769 78.188 171.869 78.46 172.069 78.66C172.277 78.852 172.641 78.992 173.161 79.08L174.049 79.236C174.801 79.372 175.349 79.648 175.693 80.064C176.037 80.472 176.209 80.972 176.209 81.564C176.209 81.948 176.141 82.3 176.005 82.62C175.877 82.94 175.681 83.212 175.417 83.436C175.161 83.66 174.841 83.836 174.457 83.964C174.081 84.084 173.649 84.144 173.161 84.144ZM180.56 84.144C180.088 84.144 179.664 84.068 179.288 83.916C178.912 83.764 178.596 83.548 178.34 83.268C178.084 82.988 177.888 82.652 177.752 82.26C177.616 81.86 177.548 81.412 177.548 80.916C177.548 80.42 177.616 79.972 177.752 79.572C177.896 79.172 178.092 78.832 178.34 78.552C178.596 78.264 178.904 78.044 179.264 77.892C179.624 77.74 180.024 77.664 180.464 77.664C180.896 77.664 181.288 77.74 181.64 77.892C181.992 78.036 182.292 78.244 182.54 78.516C182.788 78.788 182.976 79.112 183.104 79.488C183.24 79.864 183.308 80.28 183.308 80.736V81.228H178.868V81.432C178.868 81.92 179.02 82.32 179.324 82.632C179.628 82.936 180.048 83.088 180.584 83.088C180.984 83.088 181.324 83.004 181.604 82.836C181.892 82.66 182.124 82.428 182.3 82.14L183.116 82.86C182.908 83.22 182.588 83.524 182.156 83.772C181.732 84.02 181.2 84.144 180.56 84.144ZM180.464 78.66C180.232 78.66 180.016 78.7 179.816 78.78C179.624 78.86 179.456 78.976 179.312 79.128C179.176 79.272 179.068 79.444 178.988 79.644C178.908 79.844 178.868 80.064 178.868 80.304V80.388H181.976V80.268C181.976 79.78 181.836 79.392 181.556 79.104C181.284 78.808 180.92 78.66 180.464 78.66ZM187.851 84.144C187.387 84.144 186.971 84.068 186.603 83.916C186.243 83.764 185.935 83.548 185.679 83.268C185.431 82.988 185.239 82.648 185.103 82.248C184.975 81.848 184.911 81.4 184.911 80.904C184.911 80.408 184.975 79.96 185.103 79.56C185.239 79.16 185.431 78.82 185.679 78.54C185.935 78.26 186.243 78.044 186.603 77.892C186.971 77.74 187.383 77.664 187.839 77.664C188.479 77.664 188.991 77.8 189.375 78.072C189.767 78.344 190.059 78.696 190.251 79.128L189.231 79.68C189.119 79.392 188.947 79.164 188.715 78.996C188.491 78.828 188.199 78.744 187.839 78.744C187.343 78.744 186.959 78.896 186.687 79.2C186.415 79.496 186.279 79.892 186.279 80.388V81.42C186.279 81.908 186.415 82.304 186.687 82.608C186.959 82.912 187.351 83.064 187.863 83.064C188.247 83.064 188.559 82.976 188.799 82.8C189.047 82.624 189.243 82.384 189.387 82.08L190.347 82.668C190.147 83.1 189.843 83.456 189.435 83.736C189.027 84.008 188.499 84.144 187.851 84.144ZM196.103 82.944H196.043C195.979 83.104 195.895 83.26 195.791 83.412C195.695 83.556 195.575 83.684 195.431 83.796C195.287 83.9 195.119 83.984 194.927 84.048C194.735 84.112 194.511 84.144 194.255 84.144C193.631 84.144 193.127 83.94 192.743 83.532C192.359 83.124 192.167 82.544 192.167 81.792V77.808H193.475V81.6C193.475 82.584 193.903 83.076 194.759 83.076C194.927 83.076 195.091 83.056 195.251 83.016C195.411 82.968 195.555 82.9 195.683 82.812C195.811 82.724 195.911 82.616 195.983 82.488C196.063 82.352 196.103 82.192 196.103 82.008V77.808H197.411V84H196.103V82.944ZM199.326 82.944H200.97V78.864H199.326V77.808H202.278V79.452H202.35C202.406 79.236 202.486 79.028 202.59 78.828C202.694 78.628 202.826 78.456 202.986 78.312C203.146 78.16 203.342 78.04 203.574 77.952C203.806 77.856 204.078 77.808 204.39 77.808H205.134V79.056H203.91C203.43 79.056 203.038 79.2 202.734 79.488C202.43 79.768 202.278 80.148 202.278 80.628V82.944H204.522V84H199.326V82.944ZM209.341 84.144C208.869 84.144 208.445 84.068 208.069 83.916C207.693 83.764 207.377 83.548 207.121 83.268C206.865 82.988 206.669 82.652 206.533 82.26C206.397 81.86 206.329 81.412 206.329 80.916C206.329 80.42 206.397 79.972 206.533 79.572C206.677 79.172 206.873 78.832 207.121 78.552C207.377 78.264 207.685 78.044 208.045 77.892C208.405 77.74 208.805 77.664 209.245 77.664C209.677 77.664 210.069 77.74 210.421 77.892C210.773 78.036 211.073 78.244 211.321 78.516C211.569 78.788 211.757 79.112 211.885 79.488C212.021 79.864 212.089 80.28 212.089 80.736V81.228H207.649V81.432C207.649 81.92 207.801 82.32 208.105 82.632C208.409 82.936 208.829 83.088 209.365 83.088C209.765 83.088 210.105 83.004 210.385 82.836C210.673 82.66 210.905 82.428 211.081 82.14L211.897 82.86C211.689 83.22 211.369 83.524 210.937 83.772C210.513 84.02 209.981 84.144 209.341 84.144ZM209.245 78.66C209.013 78.66 208.797 78.7 208.597 78.78C208.405 78.86 208.237 78.976 208.093 79.128C207.957 79.272 207.849 79.444 207.769 79.644C207.689 79.844 207.649 80.064 207.649 80.304V80.388H210.757V80.268C210.757 79.78 210.617 79.392 210.337 79.104C210.065 78.808 209.701 78.66 209.245 78.66ZM222.148 77.556H222.04V84H220.864V75.624H222.592L225.052 82.068H225.16V75.624H226.336V84H224.608L222.148 77.556ZM230.927 84.144C230.455 84.144 230.031 84.068 229.655 83.916C229.279 83.764 228.963 83.548 228.707 83.268C228.451 82.988 228.255 82.652 228.119 82.26C227.983 81.86 227.915 81.412 227.915 80.916C227.915 80.42 227.983 79.972 228.119 79.572C228.263 79.172 228.459 78.832 228.707 78.552C228.963 78.264 229.271 78.044 229.631 77.892C229.991 77.74 230.391 77.664 230.831 77.664C231.263 77.664 231.655 77.74 232.007 77.892C232.359 78.036 232.659 78.244 232.907 78.516C233.155 78.788 233.343 79.112 233.471 79.488C233.607 79.864 233.675 80.28 233.675 80.736V81.228H229.235V81.432C229.235 81.92 229.387 82.32 229.691 82.632C229.995 82.936 230.415 83.088 230.951 83.088C231.351 83.088 231.691 83.004 231.971 82.836C232.259 82.66 232.491 82.428 232.667 82.14L233.483 82.86C233.275 83.22 232.955 83.524 232.523 83.772C232.099 84.02 231.567 84.144 230.927 84.144ZM230.831 78.66C230.599 78.66 230.383 78.7 230.183 78.78C229.991 78.86 229.823 78.976 229.679 79.128C229.543 79.272 229.435 79.444 229.355 79.644C229.275 79.844 229.235 80.064 229.235 80.304V80.388H232.343V80.268C232.343 79.78 232.203 79.392 231.923 79.104C231.651 78.808 231.287 78.66 230.831 78.66ZM238.363 84C237.819 84 237.419 83.856 237.163 83.568C236.907 83.272 236.779 82.892 236.779 82.428V78.864H234.871V77.808H236.227C236.459 77.808 236.623 77.764 236.719 77.676C236.815 77.58 236.863 77.412 236.863 77.172V75.624H238.087V77.808H240.727V78.864H238.087V82.944H240.727V84H238.363ZM241.826 77.808H242.942L243.542 83.016H243.65L244.574 77.808H245.846L246.758 83.016H246.866L247.478 77.808H248.546L247.682 84H246.074L245.246 79.2H245.138L244.298 84H242.69L241.826 77.808ZM252.381 84.144C251.925 84.144 251.513 84.068 251.145 83.916C250.785 83.764 250.477 83.548 250.221 83.268C249.973 82.988 249.781 82.648 249.645 82.248C249.509 81.848 249.441 81.4 249.441 80.904C249.441 80.408 249.509 79.96 249.645 79.56C249.781 79.16 249.973 78.82 250.221 78.54C250.477 78.26 250.785 78.044 251.145 77.892C251.513 77.74 251.925 77.664 252.381 77.664C252.837 77.664 253.245 77.74 253.605 77.892C253.973 78.044 254.281 78.26 254.529 78.54C254.785 78.82 254.981 79.16 255.117 79.56C255.253 79.96 255.321 80.408 255.321 80.904C255.321 81.4 255.253 81.848 255.117 82.248C254.981 82.648 254.785 82.988 254.529 83.268C254.281 83.548 253.973 83.764 253.605 83.916C253.245 84.068 252.837 84.144 252.381 84.144ZM252.381 83.112C252.861 83.112 253.241 82.968 253.521 82.68C253.809 82.384 253.953 81.948 253.953 81.372V80.436C253.953 79.86 253.809 79.428 253.521 79.14C253.241 78.844 252.861 78.696 252.381 78.696C251.901 78.696 251.517 78.844 251.229 79.14C250.949 79.428 250.809 79.86 250.809 80.436V81.372C250.809 81.948 250.949 82.384 251.229 82.68C251.517 82.968 251.901 83.112 252.381 83.112ZM256.889 82.944H258.533V78.864H256.889V77.808H259.841V79.452H259.913C259.969 79.236 260.049 79.028 260.153 78.828C260.257 78.628 260.389 78.456 260.549 78.312C260.709 78.16 260.905 78.04 261.137 77.952C261.369 77.856 261.641 77.808 261.953 77.808H262.697V79.056H261.473C260.993 79.056 260.601 79.2 260.297 79.488C259.993 79.768 259.841 80.148 259.841 80.628V82.944H262.085V84H256.889V82.944ZM264.228 75.12H265.536V80.484H265.596L266.568 79.488L268.308 77.808H269.856L267.348 80.244L270.132 84H268.56L266.4 80.988L265.536 81.792V84H264.228V75.12Z" fill="#787878"/>
<path d="M225 31C223.371 30.9999 221.781 31.4967 220.442 32.424C219.103 33.3514 218.079 34.6652 217.507 36.19L219.381 36.893C219.876 35.5784 220.816 34.4791 222.038 33.7864C223.26 33.0938 224.687 32.8517 226.069 33.1023C227.451 33.353 228.701 34.0805 229.602 35.1581C230.503 36.2358 230.998 37.5953 231 39C231 40.5913 230.368 42.1174 229.243 43.2426C228.117 44.3679 226.591 45 225 45H215C213.583 45.0009 212.212 44.5004 211.129 43.5872C210.045 42.6739 209.32 41.4069 209.082 40.0103C208.843 38.6138 209.107 37.1779 209.825 35.9569C210.544 34.7358 211.671 33.8085 213.008 33.339C212.922 31.6116 213.479 29.9137 214.571 28.5725C215.663 27.2314 217.213 26.3419 218.922 26.0757C220.631 25.8095 222.378 26.1854 223.826 27.1308C225.274 28.0763 226.321 29.5244 226.765 31.196C226.186 31.0656 225.594 30.9999 225 31Z" fill="#787878"/>
<path d="M368.537 66V62.844L365.753 57.624H367.253L368.321 59.712L369.185 61.5H369.257L370.133 59.712L371.201 57.624H372.665L369.881 62.844V66H368.537ZM376.405 66.144C375.949 66.144 375.537 66.068 375.169 65.916C374.809 65.764 374.501 65.548 374.245 65.268C373.997 64.988 373.805 64.648 373.669 64.248C373.533 63.848 373.465 63.4 373.465 62.904C373.465 62.408 373.533 61.96 373.669 61.56C373.805 61.16 373.997 60.82 374.245 60.54C374.501 60.26 374.809 60.044 375.169 59.892C375.537 59.74 375.949 59.664 376.405 59.664C376.861 59.664 377.269 59.74 377.629 59.892C377.997 60.044 378.305 60.26 378.553 60.54C378.809 60.82 379.005 61.16 379.141 61.56C379.277 61.96 379.345 62.408 379.345 62.904C379.345 63.4 379.277 63.848 379.141 64.248C379.005 64.648 378.809 64.988 378.553 65.268C378.305 65.548 377.997 65.764 377.629 65.916C377.269 66.068 376.861 66.144 376.405 66.144ZM376.405 65.112C376.885 65.112 377.265 64.968 377.545 64.68C377.833 64.384 377.977 63.948 377.977 63.372V62.436C377.977 61.86 377.833 61.428 377.545 61.14C377.265 60.844 376.885 60.696 376.405 60.696C375.925 60.696 375.541 60.844 375.253 61.14C374.973 61.428 374.833 61.86 374.833 62.436V63.372C374.833 63.948 374.973 64.384 375.253 64.68C375.541 64.968 375.925 65.112 376.405 65.112ZM384.884 64.944H384.824C384.76 65.104 384.676 65.26 384.572 65.412C384.476 65.556 384.356 65.684 384.212 65.796C384.068 65.9 383.9 65.984 383.708 66.048C383.516 66.112 383.292 66.144 383.036 66.144C382.412 66.144 381.908 65.94 381.524 65.532C381.14 65.124 380.948 64.544 380.948 63.792V59.808H382.256V63.6C382.256 64.584 382.684 65.076 383.54 65.076C383.708 65.076 383.872 65.056 384.032 65.016C384.192 64.968 384.336 64.9 384.464 64.812C384.592 64.724 384.692 64.616 384.764 64.488C384.844 64.352 384.884 64.192 384.884 64.008V59.808H386.192V66H384.884V64.944ZM388.107 64.944H389.751V60.864H388.107V59.808H391.059V61.452H391.131C391.187 61.236 391.267 61.028 391.371 60.828C391.475 60.628 391.607 60.456 391.767 60.312C391.927 60.16 392.123 60.04 392.355 59.952C392.587 59.856 392.859 59.808 393.171 59.808H393.915V61.056H392.691C392.211 61.056 391.819 61.2 391.515 61.488C391.211 61.768 391.059 62.148 391.059 62.628V64.944H393.303V66H388.107V64.944ZM363.358 82.944H363.286C363.102 83.32 362.858 83.616 362.554 83.832C362.25 84.04 361.87 84.144 361.414 84.144C360.686 84.144 360.106 83.872 359.674 83.328C359.242 82.784 359.026 81.976 359.026 80.904C359.026 79.832 359.242 79.024 359.674 78.48C360.106 77.936 360.686 77.664 361.414 77.664C361.87 77.664 362.25 77.772 362.554 77.988C362.858 78.196 363.102 78.488 363.286 78.864H363.358V75.12H364.666V84H363.358V82.944ZM361.954 83.076C362.146 83.076 362.326 83.052 362.494 83.004C362.662 82.956 362.81 82.884 362.938 82.788C363.066 82.692 363.166 82.576 363.238 82.44C363.318 82.296 363.358 82.128 363.358 81.936V79.872C363.358 79.68 363.318 79.516 363.238 79.38C363.166 79.236 363.066 79.116 362.938 79.02C362.81 78.924 362.662 78.852 362.494 78.804C362.326 78.756 362.146 78.732 361.954 78.732C361.458 78.732 361.074 78.884 360.802 79.188C360.538 79.492 360.406 79.896 360.406 80.4V81.408C360.406 81.912 360.538 82.316 360.802 82.62C361.074 82.924 361.458 83.076 361.954 83.076ZM369.341 84.144C368.869 84.144 368.445 84.068 368.069 83.916C367.693 83.764 367.377 83.548 367.121 83.268C366.865 82.988 366.669 82.652 366.533 82.26C366.397 81.86 366.329 81.412 366.329 80.916C366.329 80.42 366.397 79.972 366.533 79.572C366.677 79.172 366.873 78.832 367.121 78.552C367.377 78.264 367.685 78.044 368.045 77.892C368.405 77.74 368.805 77.664 369.245 77.664C369.677 77.664 370.069 77.74 370.421 77.892C370.773 78.036 371.073 78.244 371.321 78.516C371.569 78.788 371.757 79.112 371.885 79.488C372.021 79.864 372.089 80.28 372.089 80.736V81.228H367.649V81.432C367.649 81.92 367.801 82.32 368.105 82.632C368.409 82.936 368.829 83.088 369.365 83.088C369.765 83.088 370.105 83.004 370.385 82.836C370.673 82.66 370.905 82.428 371.081 82.14L371.897 82.86C371.689 83.22 371.369 83.524 370.937 83.772C370.513 84.02 369.981 84.144 369.341 84.144ZM369.245 78.66C369.013 78.66 368.797 78.7 368.597 78.78C368.405 78.86 368.237 78.976 368.093 79.128C367.957 79.272 367.849 79.444 367.769 79.644C367.689 79.844 367.649 80.064 367.649 80.304V80.388H370.757V80.268C370.757 79.78 370.617 79.392 370.337 79.104C370.065 78.808 369.701 78.66 369.245 78.66ZM375.601 84L373.381 77.808H374.737L375.589 80.424L376.393 82.908H376.465L377.269 80.424L378.121 77.808H379.429L377.209 84H375.601ZM383.984 76.68C383.648 76.68 383.412 76.612 383.276 76.476C383.148 76.34 383.084 76.172 383.084 75.972V75.72C383.084 75.52 383.148 75.352 383.276 75.216C383.412 75.08 383.644 75.012 383.972 75.012C384.308 75.012 384.54 75.08 384.668 75.216C384.804 75.352 384.872 75.52 384.872 75.72V75.972C384.872 76.172 384.804 76.34 384.668 76.476C384.54 76.612 384.312 76.68 383.984 76.68ZM381.212 82.944H383.324V78.864H381.212V77.808H384.632V82.944H386.612V84H381.212V82.944ZM391.023 84.144C390.559 84.144 390.143 84.068 389.775 83.916C389.415 83.764 389.107 83.548 388.851 83.268C388.603 82.988 388.411 82.648 388.275 82.248C388.147 81.848 388.083 81.4 388.083 80.904C388.083 80.408 388.147 79.96 388.275 79.56C388.411 79.16 388.603 78.82 388.851 78.54C389.107 78.26 389.415 78.044 389.775 77.892C390.143 77.74 390.555 77.664 391.011 77.664C391.651 77.664 392.163 77.8 392.547 78.072C392.939 78.344 393.231 78.696 393.423 79.128L392.403 79.68C392.291 79.392 392.119 79.164 391.887 78.996C391.663 78.828 391.371 78.744 391.011 78.744C390.515 78.744 390.131 78.896 389.859 79.2C389.587 79.496 389.451 79.892 389.451 80.388V81.42C389.451 81.908 389.587 82.304 389.859 82.608C390.131 82.912 390.523 83.064 391.035 83.064C391.419 83.064 391.731 82.976 391.971 82.8C392.219 82.624 392.415 82.384 392.559 82.08L393.519 82.668C393.319 83.1 393.015 83.456 392.607 83.736C392.199 84.008 391.671 84.144 391.023 84.144ZM398.123 84.144C397.651 84.144 397.227 84.068 396.851 83.916C396.475 83.764 396.159 83.548 395.903 83.268C395.647 82.988 395.451 82.652 395.315 82.26C395.179 81.86 395.111 81.412 395.111 80.916C395.111 80.42 395.179 79.972 395.315 79.572C395.459 79.172 395.655 78.832 395.903 78.552C396.159 78.264 396.467 78.044 396.827 77.892C397.187 77.74 397.587 77.664 398.027 77.664C398.459 77.664 398.851 77.74 399.203 77.892C399.555 78.036 399.855 78.244 400.103 78.516C400.351 78.788 400.539 79.112 400.667 79.488C400.803 79.864 400.871 80.28 400.871 80.736V81.228H396.431V81.432C396.431 81.92 396.583 82.32 396.887 82.632C397.191 82.936 397.611 83.088 398.147 83.088C398.547 83.088 398.887 83.004 399.167 82.836C399.455 82.66 399.687 82.428 399.863 82.14L400.679 82.86C400.471 83.22 400.151 83.524 399.719 83.772C399.295 84.02 398.763 84.144 398.123 84.144ZM398.027 78.66C397.795 78.66 397.579 78.7 397.379 78.78C397.187 78.86 397.019 78.976 396.875 79.128C396.739 79.272 396.631 79.444 396.551 79.644C396.471 79.844 396.431 80.064 396.431 80.304V80.388H399.539V80.268C399.539 79.78 399.399 79.392 399.119 79.104C398.847 78.808 398.483 78.66 398.027 78.66Z" fill="#787878"/>
<path d="M382 42V44L384 45V46H376L375.996 45.004L378 44V42H370.992C370.861 41.9992 370.731 41.9725 370.61 41.9215C370.489 41.8704 370.379 41.7959 370.287 41.7024C370.195 41.6088 370.122 41.498 370.073 41.3763C370.024 41.2546 369.999 41.1243 370 40.993V28.007C370 27.451 370.455 27 370.992 27H389.008C389.556 27 390 27.449 390 28.007V40.993C390 41.549 389.545 42 389.008 42H382ZM372 38V40H388V38H372Z" fill="#787878"/>
<path d="M519.422 66V57.624H522.554C523.354 57.624 523.962 57.848 524.378 58.296C524.802 58.744 525.014 59.36 525.014 60.144C525.014 60.928 524.802 61.544 524.378 61.992C523.962 62.44 523.354 62.664 522.554 62.664H520.766V66H519.422ZM520.766 61.548H522.35C523.182 61.548 523.598 61.164 523.598 60.396V59.88C523.598 59.12 523.182 58.74 522.35 58.74H520.766V61.548ZM530.493 64.944H530.433C530.369 65.104 530.285 65.26 530.181 65.412C530.085 65.556 529.965 65.684 529.821 65.796C529.677 65.9 529.509 65.984 529.317 66.048C529.125 66.112 528.901 66.144 528.645 66.144C528.021 66.144 527.517 65.94 527.133 65.532C526.749 65.124 526.557 64.544 526.557 63.792V59.808H527.865V63.6C527.865 64.584 528.293 65.076 529.149 65.076C529.317 65.076 529.481 65.056 529.641 65.016C529.801 64.968 529.945 64.9 530.073 64.812C530.201 64.724 530.301 64.616 530.373 64.488C530.453 64.352 530.493 64.192 530.493 64.008V59.808H531.801V66H530.493V64.944ZM533.753 57.12H535.061V60.864H535.133C535.317 60.488 535.561 60.196 535.865 59.988C536.169 59.772 536.549 59.664 537.005 59.664C537.733 59.664 538.313 59.936 538.745 60.48C539.177 61.024 539.393 61.832 539.393 62.904C539.393 63.976 539.177 64.784 538.745 65.328C538.313 65.872 537.733 66.144 537.005 66.144C536.549 66.144 536.169 66.04 535.865 65.832C535.561 65.616 535.317 65.32 535.133 64.944H535.061V66H533.753V57.12ZM536.465 65.076C536.961 65.076 537.341 64.924 537.605 64.62C537.877 64.316 538.013 63.912 538.013 63.408V62.4C538.013 61.896 537.877 61.492 537.605 61.188C537.341 60.884 536.961 60.732 536.465 60.732C536.273 60.732 536.093 60.756 535.925 60.804C535.757 60.852 535.609 60.924 535.481 61.02C535.353 61.116 535.249 61.236 535.169 61.38C535.097 61.516 535.061 61.68 535.061 61.872V63.936C535.061 64.128 535.097 64.296 535.169 64.44C535.249 64.576 535.353 64.692 535.481 64.788C535.609 64.884 535.757 64.956 535.925 65.004C536.093 65.052 536.273 65.076 536.465 65.076ZM540.9 64.944H542.952V58.176H540.9V57.12H544.26V64.944H546.312V66H540.9V64.944ZM551.179 58.68C550.843 58.68 550.607 58.612 550.471 58.476C550.343 58.34 550.279 58.172 550.279 57.972V57.72C550.279 57.52 550.343 57.352 550.471 57.216C550.607 57.08 550.839 57.012 551.167 57.012C551.503 57.012 551.735 57.08 551.863 57.216C551.999 57.352 552.067 57.52 552.067 57.72V57.972C552.067 58.172 551.999 58.34 551.863 58.476C551.735 58.612 551.507 58.68 551.179 58.68ZM548.407 64.944H550.519V60.864H548.407V59.808H551.827V64.944H553.807V66H548.407V64.944ZM558.219 66.144C557.755 66.144 557.339 66.068 556.971 65.916C556.611 65.764 556.303 65.548 556.047 65.268C555.799 64.988 555.607 64.648 555.471 64.248C555.343 63.848 555.279 63.4 555.279 62.904C555.279 62.408 555.343 61.96 555.471 61.56C555.607 61.16 555.799 60.82 556.047 60.54C556.303 60.26 556.611 60.044 556.971 59.892C557.339 59.74 557.751 59.664 558.207 59.664C558.847 59.664 559.359 59.8 559.743 60.072C560.135 60.344 560.427 60.696 560.619 61.128L559.599 61.68C559.487 61.392 559.315 61.164 559.083 60.996C558.859 60.828 558.567 60.744 558.207 60.744C557.711 60.744 557.327 60.896 557.055 61.2C556.783 61.496 556.647 61.892 556.647 62.388V63.42C556.647 63.908 556.783 64.304 557.055 64.608C557.327 64.912 557.719 65.064 558.231 65.064C558.615 65.064 558.927 64.976 559.167 64.8C559.415 64.624 559.611 64.384 559.755 64.08L560.715 64.668C560.515 65.1 560.211 65.456 559.803 65.736C559.395 66.008 558.867 66.144 558.219 66.144ZM515.056 77.808H516.172L516.772 83.016H516.88L517.804 77.808H519.076L519.988 83.016H520.096L520.708 77.808H521.776L520.912 84H519.304L518.476 79.2H518.368L517.528 84H515.92L515.056 77.808ZM525.744 84.144C525.272 84.144 524.848 84.068 524.472 83.916C524.096 83.764 523.78 83.548 523.524 83.268C523.268 82.988 523.072 82.652 522.936 82.26C522.8 81.86 522.732 81.412 522.732 80.916C522.732 80.42 522.8 79.972 522.936 79.572C523.08 79.172 523.276 78.832 523.524 78.552C523.78 78.264 524.088 78.044 524.448 77.892C524.808 77.74 525.208 77.664 525.648 77.664C526.08 77.664 526.472 77.74 526.824 77.892C527.176 78.036 527.476 78.244 527.724 78.516C527.972 78.788 528.16 79.112 528.288 79.488C528.424 79.864 528.492 80.28 528.492 80.736V81.228H524.052V81.432C524.052 81.92 524.204 82.32 524.508 82.632C524.812 82.936 525.232 83.088 525.768 83.088C526.168 83.088 526.508 83.004 526.788 82.836C527.076 82.66 527.308 82.428 527.484 82.14L528.3 82.86C528.092 83.22 527.772 83.524 527.34 83.772C526.916 84.02 526.384 84.144 525.744 84.144ZM525.648 78.66C525.416 78.66 525.2 78.7 525 78.78C524.808 78.86 524.64 78.976 524.496 79.128C524.36 79.272 524.252 79.444 524.172 79.644C524.092 79.844 524.052 80.064 524.052 80.304V80.388H527.16V80.268C527.16 79.78 527.02 79.392 526.74 79.104C526.468 78.808 526.104 78.66 525.648 78.66ZM530.155 75.12H531.463V78.864H531.535C531.719 78.488 531.963 78.196 532.267 77.988C532.571 77.772 532.951 77.664 533.407 77.664C534.135 77.664 534.715 77.936 535.147 78.48C535.579 79.024 535.795 79.832 535.795 80.904C535.795 81.976 535.579 82.784 535.147 83.328C534.715 83.872 534.135 84.144 533.407 84.144C532.951 84.144 532.571 84.04 532.267 83.832C531.963 83.616 531.719 83.32 531.535 82.944H531.463V84H530.155V75.12ZM532.867 83.076C533.363 83.076 533.743 82.924 534.007 82.62C534.279 82.316 534.415 81.912 534.415 81.408V80.4C534.415 79.896 534.279 79.492 534.007 79.188C533.743 78.884 533.363 78.732 532.867 78.732C532.675 78.732 532.495 78.756 532.327 78.804C532.159 78.852 532.011 78.924 531.883 79.02C531.755 79.116 531.651 79.236 531.571 79.38C531.499 79.516 531.463 79.68 531.463 79.872V81.936C531.463 82.128 531.499 82.296 531.571 82.44C531.651 82.576 531.755 82.692 531.883 82.788C532.011 82.884 532.159 82.956 532.327 83.004C532.495 83.052 532.675 83.076 532.867 83.076ZM540.014 84.144C539.342 84.144 538.762 84.036 538.274 83.82C537.794 83.604 537.406 83.316 537.11 82.956L537.914 82.236C538.186 82.532 538.49 82.76 538.826 82.92C539.17 83.072 539.574 83.148 540.038 83.148C540.462 83.148 540.802 83.076 541.058 82.932C541.322 82.788 541.454 82.564 541.454 82.26C541.454 82.132 541.43 82.024 541.382 81.936C541.334 81.848 541.266 81.776 541.178 81.72C541.09 81.664 540.986 81.62 540.866 81.588C540.754 81.556 540.634 81.532 540.506 81.516L539.522 81.36C539.282 81.328 539.038 81.276 538.79 81.204C538.542 81.132 538.318 81.032 538.118 80.904C537.926 80.768 537.766 80.596 537.638 80.388C537.518 80.18 537.458 79.916 537.458 79.596C537.458 78.964 537.698 78.484 538.178 78.156C538.666 77.828 539.306 77.664 540.098 77.664C540.674 77.664 541.17 77.752 541.586 77.928C542.01 78.096 542.362 78.332 542.642 78.636L541.91 79.404C541.75 79.22 541.522 79.052 541.226 78.9C540.93 78.74 540.538 78.66 540.05 78.66C539.178 78.66 538.742 78.936 538.742 79.488C538.742 79.752 538.834 79.936 539.018 80.04C539.21 80.136 539.434 80.2 539.69 80.232L540.674 80.388C540.922 80.428 541.166 80.48 541.406 80.544C541.654 80.608 541.874 80.708 542.066 80.844C542.266 80.972 542.426 81.14 542.546 81.348C542.674 81.556 542.738 81.82 542.738 82.14C542.738 82.764 542.494 83.256 542.006 83.616C541.526 83.968 540.862 84.144 540.014 84.144ZM547.582 76.68C547.246 76.68 547.01 76.612 546.874 76.476C546.746 76.34 546.682 76.172 546.682 75.972V75.72C546.682 75.52 546.746 75.352 546.874 75.216C547.01 75.08 547.242 75.012 547.57 75.012C547.906 75.012 548.138 75.08 548.266 75.216C548.402 75.352 548.47 75.52 548.47 75.72V75.972C548.47 76.172 548.402 76.34 548.266 76.476C548.138 76.612 547.91 76.68 547.582 76.68ZM544.81 82.944H546.922V78.864H544.81V77.808H548.23V82.944H550.21V84H544.81V82.944ZM554.765 84C554.221 84 553.821 83.856 553.565 83.568C553.309 83.272 553.181 82.892 553.181 82.428V78.864H551.273V77.808H552.629C552.861 77.808 553.025 77.764 553.121 77.676C553.217 77.58 553.265 77.412 553.265 77.172V75.624H554.489V77.808H557.129V78.864H554.489V82.944H557.129V84H554.765ZM561.72 84.144C561.248 84.144 560.824 84.068 560.448 83.916C560.072 83.764 559.756 83.548 559.5 83.268C559.244 82.988 559.048 82.652 558.912 82.26C558.776 81.86 558.708 81.412 558.708 80.916C558.708 80.42 558.776 79.972 558.912 79.572C559.056 79.172 559.252 78.832 559.5 78.552C559.756 78.264 560.064 78.044 560.424 77.892C560.784 77.74 561.184 77.664 561.624 77.664C562.056 77.664 562.448 77.74 562.8 77.892C563.152 78.036 563.452 78.244 563.7 78.516C563.948 78.788 564.136 79.112 564.264 79.488C564.4 79.864 564.468 80.28 564.468 80.736V81.228H560.028V81.432C560.028 81.92 560.18 82.32 560.484 82.632C560.788 82.936 561.208 83.088 561.744 83.088C562.144 83.088 562.484 83.004 562.764 82.836C563.052 82.66 563.284 82.428 563.46 82.14L564.276 82.86C564.068 83.22 563.748 83.524 563.316 83.772C562.892 84.02 562.36 84.144 561.72 84.144ZM561.624 78.66C561.392 78.66 561.176 78.7 560.976 78.78C560.784 78.86 560.616 78.976 560.472 79.128C560.336 79.272 560.228 79.444 560.148 79.644C560.068 79.844 560.028 80.064 560.028 80.304V80.388H563.136V80.268C563.136 79.78 562.996 79.392 562.716 79.104C562.444 78.808 562.08 78.66 561.624 78.66Z" fill="#787878"/>
<path d="M540 46C534.477 46 530 41.523 530 36C530 30.477 534.477 26 540 26C545.523 26 550 30.477 550 36C550 41.523 545.523 46 540 46ZM546.355 39.952V39.847C546.355 38.925 546.355 38.504 545.703 38.131C545.493 38.0122 545.278 37.9037 545.058 37.806C544.691 37.639 544.448 37.53 544.12 37.05C544.081 36.993 544.042 36.9357 544.004 36.878C543.659 36.353 543.41 35.975 542.462 36.125C540.597 36.421 540.459 36.749 540.377 37.303L540.364 37.394C540.243 38.204 540.221 38.476 540.559 38.831C541.824 40.158 542.582 41.115 542.812 41.675C542.924 41.948 543.212 42.775 543.014 43.593C544.228 43.1095 545.308 42.3425 546.165 41.356C546.275 40.982 546.355 40.516 546.355 39.952ZM540 27.833C537.683 27.833 535.59 28.799 534.104 30.349C534.281 30.472 534.435 30.645 534.541 30.883C534.745 31.34 534.745 31.811 534.745 32.228C534.745 32.556 534.745 32.868 534.85 33.093C534.994 33.401 535.616 33.533 536.165 33.647C536.362 33.689 536.564 33.731 536.748 33.782C537.254 33.922 537.646 34.377 537.959 34.742C538.089 34.893 538.282 35.116 538.379 35.172C538.429 35.136 538.59 34.961 538.669 34.674C538.731 34.454 538.713 34.26 538.624 34.154C538.064 33.494 538.095 32.224 538.268 31.755C538.54 31.016 539.39 31.071 540.012 31.111C540.244 31.126 540.462 31.141 540.626 31.12C541.248 31.042 541.44 30.095 541.575 29.91C541.867 29.51 542.761 28.907 543.315 28.535C542.271 28.071 541.142 27.8318 540 27.833Z" fill="#787878"/>
<path d="M131 52H149" stroke="#D4D4D4" stroke-width="1.5" stroke-linecap="round" stroke-linejoin="round"/>
<path d="M144 47L149 52L144 57" stroke="#D4D4D4" stroke-width="1.5" stroke-linecap="round" stroke-linejoin="round"/>
<path d="M291 52H309" stroke="#D4D4D4" stroke-width="1.5" stroke-linecap="round" stroke-linejoin="round"/>
<path d="M304 47L309 52L304 57" stroke="#D4D4D4" stroke-width="1.5" stroke-linecap="round" stroke-linejoin="round"/>
<path d="M451 52H469" stroke="#D4D4D4" stroke-width="1.5" stroke-linecap="round" stroke-linejoin="round"/>
<path d="M464 47L469 52L464 57" stroke="#D4D4D4" stroke-width="1.5" stroke-linecap="round" stroke-linejoin="round"/>
</svg>

