<svg width="46" height="51" viewBox="0 0 46 51" fill="none" xmlns="http://www.w3.org/2000/svg">
<path d="M12.487 12.1104C12.4514 12.1087 12.3982 12.1143 12.3556 12.1143C12.3395 12.1143 12.3249 12.1136 12.3135 12.1112C12.1698 12.082 11.9549 12.0377 11.6953 11.9842C11.3144 11.9057 10.8368 11.8071 10.3432 11.705C9.9669 11.6272 9.58156 11.5474 9.22312 11.4734C8.69067 11.3633 8.21792 11.2657 7.92214 11.2049C7.88757 11.1979 7.85517 11.1912 7.82551 11.1851C7.68881 11.1571 7.5093 11.1244 7.39656 11.1038C7.3781 11.1005 7.36141 11.0973 7.34707 11.0948C7.32841 11.0913 7.30975 11.0873 7.29129 11.0838C7.26497 11.0787 7.23846 11.074 7.21175 11.0723C7.18975 11.0707 7.16382 11.0691 7.13515 11.0674C7.01024 11.0599 6.82758 11.0505 6.63393 11.0403C6.4495 11.0305 6.25546 11.0199 6.09264 11.0092C5.83044 10.9919 5.51285 10.9643 5.25183 10.9443C5.13792 10.9355 5.03481 10.9282 4.95193 10.9239C4.78695 10.9153 4.56776 10.9196 4.4564 10.9239C4.40023 10.9261 4.34013 10.9265 4.28906 10.947C4.3362 10.9423 4.38353 10.9408 4.43087 10.9398C4.51552 10.9382 4.6202 10.939 4.71408 10.9492C4.82721 10.9615 4.97765 10.9892 5.10866 11.0139C5.19311 11.0299 5.30408 11.0509 5.43076 11.0754C5.78075 11.1426 6.25153 11.2343 6.62116 11.3101C6.75295 11.3372 6.90025 11.3676 7.05737 11.4005C7.50517 11.494 8.03409 11.6058 8.51881 11.7085C8.72327 11.7518 8.91987 11.7936 9.09899 11.8314C9.32819 11.8798 9.59039 11.9362 9.852 11.9925C10.2379 12.0755 10.6227 12.1584 10.9004 12.2164C10.9931 12.2358 11.074 12.2523 11.1388 12.2652C11.2394 12.2852 11.3527 12.2901 11.4448 12.2962C11.4545 12.2968 11.4641 12.2974 11.4739 12.2978C11.5485 12.3015 11.6293 12.3019 11.6919 12.3007C11.7473 12.2995 11.8029 12.2966 11.8579 12.2891C11.8622 12.2885 11.8665 12.2882 11.871 12.2876C11.9459 12.2766 12.0543 12.2566 12.1413 12.2349C12.1546 12.2315 12.1684 12.228 12.1821 12.2243C12.2413 12.2086 12.3025 12.1902 12.3554 12.1712C12.3685 12.1665 12.3813 12.1616 12.3931 12.1569C12.4255 12.1437 12.4567 12.1279 12.4872 12.1108L12.487 12.1104Z" fill="#E9E8E8"/>
<path d="M40.0288 40.9148C39.9418 40.9597 39.8409 40.9914 39.7366 41.0161C39.625 41.0426 39.472 41.0616 39.3664 41.071C39.3463 41.0728 39.3265 41.0743 39.3065 41.0753C39.3141 41.0769 39.322 41.0777 39.3296 41.0781C39.3974 41.082 39.5563 41.0843 39.6808 41.0777C39.8159 41.0704 40.0186 41.0491 40.2486 41.0248C40.2851 41.0208 40.3233 41.0159 40.3606 41.0114C40.4173 41.0044 40.4823 40.9961 40.5448 40.9918C40.6656 40.9836 40.7989 40.975 40.928 40.9664C41.0372 40.9589 41.1426 40.9513 41.2342 40.9436C41.2393 40.9432 41.2446 40.9428 41.2495 40.9423C41.2994 40.9379 41.3524 40.9334 41.4066 40.9287C41.5093 40.9197 41.6156 40.9097 41.7101 40.8991C41.7851 40.8907 41.8528 40.8821 41.9053 40.8731C41.9762 40.8609 42.0443 40.8362 42.1115 40.8092C42.1304 40.8015 42.149 40.7939 42.1675 40.7863C42.2574 40.7488 42.3619 40.7098 42.445 40.6489C42.4572 40.6399 42.4701 40.6301 42.4837 40.6195C42.5363 40.5785 42.5978 40.5266 42.6587 40.4717C42.7127 40.4231 42.7663 40.3722 42.8133 40.3244C42.8274 40.3099 42.841 40.2957 42.8537 40.282C42.9604 40.1676 43.0503 40.0382 43.136 39.9075C43.1413 39.8995 43.1468 39.8911 43.1525 39.8822C43.2734 39.6955 43.4828 39.3549 43.6454 39.0887C43.7006 38.9984 43.7505 38.9165 43.7898 38.8522C43.8941 38.6809 43.999 38.5098 44.0946 38.3337C44.1514 38.2292 44.2132 38.1091 44.2759 37.9852C44.335 37.8684 44.3945 37.7483 44.4511 37.6346C44.5455 37.4441 44.6626 37.2037 44.7626 36.9954C44.7973 36.9229 44.8301 36.8543 44.8592 36.7931C44.9509 36.6005 45.0658 36.3616 45.1273 36.2121C45.1693 36.1096 45.2055 36.0018 45.2282 35.8954C45.2508 35.7901 45.2595 35.6704 45.264 35.574C45.2654 35.5426 45.2656 35.5101 45.2648 35.4778C45.2634 35.4217 45.2593 35.3661 45.2546 35.3175C45.2481 35.2493 45.2373 35.1811 45.2204 35.1146C45.2025 35.0445 45.1766 34.9676 45.1471 34.8971C45.1169 34.824 45.0809 34.7464 45.0381 34.6762C45.0159 34.6398 44.9876 34.5955 44.9564 34.5481C44.9016 34.465 44.8374 34.3721 44.7787 34.2935C44.6691 34.1469 44.51 33.9507 44.3686 33.7781C44.3611 33.7691 44.3539 33.7601 44.3466 33.7512C44.1618 33.5259 43.8212 33.1239 43.6156 32.8745C43.5947 32.8492 43.5753 32.8255 43.5574 32.8035C43.4308 32.6483 43.3135 32.4858 43.188 32.3297C43.0531 32.1615 42.8855 31.9628 42.7477 31.7952C42.6184 31.6385 42.4888 31.4819 42.3605 31.3243C42.3107 31.263 42.2576 31.1971 42.2046 31.1315C42.1188 31.0249 42.0331 30.9181 41.9617 30.8297C41.8636 30.7088 41.7649 30.5881 41.6665 30.4675C41.563 30.3407 41.4492 30.2026 41.341 30.0697C41.3226 30.0472 41.3035 30.0236 41.2841 29.9995C41.1864 29.879 41.0796 29.7458 41.001 29.6509C40.9276 29.5621 40.8496 29.4771 40.7766 29.3879C40.6892 29.2817 40.5652 29.1247 40.4772 29.013C40.4236 28.9452 40.3633 28.87 40.3109 28.802C40.2877 28.7718 40.2657 28.743 40.2472 28.7171C40.1995 28.6507 40.1551 28.5817 40.1151 28.5102C40.0721 28.4331 40.0251 28.3424 39.989 28.2544C39.9682 28.2038 39.9438 28.1396 39.9214 28.0761C39.8988 28.0122 39.8782 27.9491 39.865 27.9015C39.8456 27.8309 39.8405 27.757 39.8324 27.6843C39.8244 27.6108 39.8171 27.5356 39.8161 27.4611C39.8157 27.4262 39.8157 27.3843 39.8163 27.3386C39.8175 27.2422 39.8205 27.1297 39.8244 27.0329C39.8309 26.8705 39.8482 26.6686 39.8548 26.4862C39.8554 26.4697 39.856 26.4524 39.8566 26.4354C39.8625 26.2524 39.8652 26.0423 39.867 25.8692C39.869 25.6968 39.8703 25.5192 39.867 25.3519C39.867 25.3423 39.8666 25.3327 39.8664 25.3231C39.8627 25.1673 39.8535 24.9907 39.8474 24.8651C39.8423 24.7602 39.833 24.6556 39.8277 24.5509C39.8248 24.4894 39.8216 24.4222 39.8191 24.3575C39.8171 24.3095 39.8157 24.2626 39.8148 24.2209C39.813 24.1353 39.8095 24.0441 39.815 23.9636C39.8203 23.8878 39.8311 23.8121 39.8476 23.738C39.8666 23.6522 39.8971 23.5423 39.9289 23.449C39.9522 23.3808 39.9797 23.3112 40.0086 23.2456C40.0186 23.2226 40.0288 23.2003 40.0389 23.1787C40.076 23.0994 40.1125 23.0182 40.1642 22.9475C40.2091 22.8855 40.2775 22.7991 40.3537 22.7043C40.4513 22.583 40.5621 22.4481 40.6546 22.3337C40.8404 22.1038 41.1189 21.7605 41.3848 21.434C41.4679 21.3321 41.5496 21.2317 41.627 21.1369C41.9611 20.7281 42.3248 20.2905 42.6589 19.8807C42.6836 19.8503 42.7084 19.8198 42.7333 19.789C43.0372 19.4151 43.3557 19.0157 43.6311 18.6784C43.6988 18.5953 43.7723 18.5062 43.8471 18.4154C44.0704 18.1446 44.3069 17.8606 44.4471 17.6897C44.4644 17.6688 44.4817 17.6476 44.4992 17.6264C44.5862 17.5206 44.6746 17.4132 44.7543 17.3095C44.8466 17.1898 44.9572 17.0456 45.022 16.9431C45.0356 16.9215 45.0485 16.8994 45.0607 16.877C45.0929 16.8184 45.1206 16.7575 45.1438 16.695C45.1785 16.6011 45.2133 16.4794 45.2296 16.3799C45.2408 16.3119 45.2424 16.2407 45.2422 16.1721C45.2422 16.1466 45.2418 16.1218 45.2416 16.0975C45.2412 16.0114 45.2388 15.9252 45.2263 15.8401C45.2194 15.7939 45.2102 15.7437 45.199 15.693C45.1878 15.6424 45.1746 15.5913 45.1597 15.5427C45.1322 15.4535 45.0927 15.3483 45.0515 15.2481C45.0419 15.2246 45.032 15.2015 45.0224 15.1789C44.9548 15.0218 44.8476 14.7911 44.7543 14.6C44.716 14.5216 44.6712 14.4321 44.6241 14.339C44.5351 14.1636 44.4379 13.9751 44.3597 13.821C44.2969 13.697 44.2356 13.5722 44.1732 13.4481C44.1286 13.3595 44.0834 13.2711 44.0359 13.1839C43.9691 13.0615 43.8943 12.9288 43.8167 12.7949C43.7495 12.6789 43.6806 12.5621 43.613 12.4496C43.5621 12.3652 43.5011 12.2652 43.4368 12.1612C43.3255 11.9807 43.2049 11.7876 43.1116 11.6403C43.0817 11.593 43.0546 11.5503 43.0317 11.5144C43.003 11.4696 42.9729 11.4223 42.9425 11.3761C42.905 11.3191 42.8669 11.2632 42.8294 11.2144C42.818 11.1997 42.8068 11.1854 42.7958 11.1721C42.7376 11.1027 42.6709 11.0402 42.5998 10.9839C42.588 10.9745 42.5762 10.9649 42.564 10.9559C42.5346 10.934 42.5029 10.911 42.4698 10.8885C42.432 10.8628 42.3922 10.8378 42.3515 10.8144C42.3156 10.7941 42.279 10.775 42.2423 10.759C42.1645 10.7249 42.0767 10.6978 41.9893 10.6757C41.9444 10.6643 41.8996 10.6543 41.8564 10.6455C41.7601 10.6259 41.6619 10.6169 41.5639 10.6092C41.5349 10.6071 41.5058 10.6049 41.4767 10.6026C41.4504 10.6006 41.4206 10.5983 41.3882 10.5961C41.3066 10.5902 41.2081 10.5834 41.1018 10.5763C41.0177 10.5706 40.929 10.565 40.8398 10.5593C40.677 10.5489 40.5136 10.5389 40.3777 10.5313C40.3559 10.5301 40.3346 10.5289 40.3142 10.5277C40.2129 10.5222 40.0964 10.5166 39.9807 10.5115C39.7672 10.5021 39.5563 10.4942 39.4477 10.4915C39.4011 10.4903 39.3528 10.4887 39.3082 10.5022C39.3051 10.5032 39.3018 10.5042 39.298 10.505C39.3365 10.5046 39.3746 10.5064 39.4127 10.5113C39.5086 10.5234 39.6282 10.5499 39.7307 10.5869C39.7751 10.603 39.8248 10.6247 39.8747 10.6481C39.9503 10.6835 40.0257 10.7231 40.0823 10.7537C40.1557 10.7935 40.2262 10.8397 40.2928 10.8905C40.3128 10.9058 40.3337 10.9216 40.3547 10.9381C40.4083 10.9802 40.4631 11.0267 40.5081 11.0782C40.5568 11.1341 40.612 11.2087 40.6654 11.2857C40.6966 11.331 40.7275 11.3771 40.7557 11.4206C40.806 11.4978 40.8732 11.5995 40.9494 11.7157C41.0776 11.9113 41.2312 12.1476 41.3732 12.3777C41.4451 12.4941 41.5139 12.6088 41.5747 12.7158C41.5977 12.7561 41.6217 12.7985 41.6462 12.8422C41.7472 13.0223 41.8603 13.2292 41.974 13.4418C42.1302 13.7338 42.2873 14.036 42.4155 14.2929C42.4684 14.3988 42.5163 14.4971 42.5571 14.5836C42.661 14.8038 42.7651 15.0788 42.8459 15.3112C42.8889 15.4349 42.9252 15.5466 42.9513 15.6314C42.9596 15.6579 42.9665 15.6851 42.9727 15.7128C42.9981 15.8245 43.0089 15.9426 43.0095 16.0461C43.0099 16.1024 43.0051 16.1606 42.9969 16.2176C42.9875 16.2828 42.9733 16.3465 42.956 16.4036C42.9254 16.5051 42.873 16.5997 42.815 16.6885C42.794 16.7208 42.7687 16.7561 42.741 16.7932C42.6693 16.8886 42.5811 16.9956 42.5067 17.0926C42.4104 17.218 42.272 17.4036 42.1203 17.6035C41.963 17.8108 41.7918 18.0337 41.6386 18.2206C41.5887 18.2816 41.5319 18.3504 41.4699 18.4258C41.1747 18.7833 40.7518 19.29 40.2987 19.8323C39.8419 20.3789 39.3548 20.9613 38.9376 21.4622C38.5568 21.9194 38.2343 22.3086 38.0465 22.541C38.0155 22.5792 37.9868 22.621 37.9597 22.6639C37.8937 22.7687 37.8384 22.8822 37.7924 22.9796C37.7533 23.0627 37.7197 23.1487 37.6922 23.2365C37.6789 23.2795 37.6669 23.3228 37.6567 23.3665C37.6221 23.5134 37.5995 23.6973 37.5842 23.8627C37.5714 24.0024 37.5699 24.1427 37.5667 24.283C37.5661 24.3079 37.5655 24.3326 37.565 24.3575C37.5587 24.5821 37.5506 24.9415 37.5443 25.2496C37.5437 25.2774 37.5432 25.3048 37.5426 25.3317C37.5365 25.6268 37.5324 25.9327 37.5263 26.22C37.5257 26.2477 37.5251 26.2753 37.5245 26.3025C37.5178 26.6002 37.5015 26.9579 37.5005 27.1956C37.5001 27.2708 37.4996 27.3522 37.5005 27.4319C37.5019 27.5415 37.5062 27.6479 37.5184 27.7314C37.5353 27.8468 37.5909 27.9532 37.6272 28.0639C37.6423 28.11 37.6586 28.1603 37.6753 28.2121C37.703 28.2975 37.7319 28.3865 37.7594 28.4657C37.8016 28.5872 37.8327 28.7175 37.8928 28.8276C37.9193 28.8766 37.9517 28.9219 37.9862 28.9658C38.0295 29.0207 38.0762 29.0734 38.1202 29.1275C38.2881 29.3336 38.5937 29.7032 38.9254 30.1052C39.2116 30.452 39.5172 30.8228 39.7708 31.1336C39.8234 31.1983 39.8772 31.2644 39.9318 31.3316C40.3641 31.8642 40.8477 32.4678 41.2585 32.9746C41.3565 33.0955 41.4504 33.2109 41.5384 33.3185C41.6743 33.4849 41.8301 33.6701 41.9866 33.8551C42.2125 34.1224 42.4395 34.3895 42.6108 34.5994C42.6817 34.6862 42.7429 34.7634 42.7907 34.8267C42.8838 34.9504 42.9482 35.1082 42.991 35.2451C43.0216 35.3427 43.0393 35.447 43.0454 35.5491C43.0474 35.5826 43.0482 35.6161 43.0478 35.6488C43.0456 35.7813 43.0236 35.9156 42.979 36.0402C42.9028 36.253 42.7565 36.6475 42.598 36.995C42.5572 37.0847 42.5153 37.1715 42.4739 37.2511C42.3574 37.4741 42.1877 37.772 42.006 38.0824C41.7837 38.4624 41.5435 38.8612 41.3609 39.1654C41.3261 39.2232 41.2935 39.2777 41.2634 39.3278C41.1686 39.4864 41.0584 39.6675 40.9508 39.8413C40.806 40.0749 40.6658 40.2952 40.5735 40.4292C40.4971 40.5405 40.3924 40.6479 40.3015 40.7288C40.2873 40.7416 40.2726 40.7537 40.2575 40.7659C40.1854 40.8239 40.1047 40.8754 40.0288 40.9146V40.9148Z" fill="#E9E8E8"/>
<path d="M11.5009 39.2344C11.5747 39.2301 11.6544 39.2278 11.7305 39.2287C11.7904 39.2295 11.8479 39.2323 11.8982 39.2381C11.9194 39.2405 11.9404 39.2442 11.9614 39.2483C12.037 39.2634 12.1109 39.2881 12.1841 39.312C12.1885 39.3134 12.1928 39.315 12.1971 39.3163C12.2537 39.3349 12.3128 39.3547 12.3707 39.3781C12.2992 39.3963 12.2276 39.4143 12.1561 39.4325C12.1561 39.4325 12.1464 39.4345 12.1286 39.4382C12.0677 39.4508 11.909 39.4837 11.6847 39.5303C11.451 39.5787 11.1462 39.642 10.8068 39.7124C10.4153 39.7935 9.97814 39.8842 9.55116 39.9728C9.08981 40.0684 8.64063 40.1617 8.27453 40.2375C7.96461 40.3018 7.71419 40.3537 7.56669 40.3843C7.50365 40.3974 7.4406 40.4121 7.37716 40.4227C7.37068 40.4237 7.36401 40.4248 7.35713 40.426C7.29566 40.4364 7.21965 40.4493 7.14678 40.458C7.12852 40.4601 7.11045 40.4621 7.09277 40.4636C7.05192 40.4672 7.00203 40.4711 6.94586 40.4752C6.80563 40.4854 6.6269 40.4971 6.45505 40.5083C6.36451 40.5142 6.27593 40.5199 6.19599 40.5252C6.00961 40.5373 5.79238 40.5516 5.60423 40.5632C5.50288 40.5695 5.40979 40.5749 5.33496 40.5789C5.19414 40.5861 5.01816 40.593 4.9121 40.5916C4.86968 40.5912 4.78463 40.5908 4.73985 40.5855C4.70941 40.5818 4.71413 40.5726 4.69959 40.5712C4.69822 40.5712 4.69409 40.5696 4.69566 40.5696C4.74221 40.5657 4.89069 40.5624 4.97966 40.5485C5.19257 40.5152 5.53234 40.4433 5.86662 40.3719C6.01353 40.3408 6.15927 40.3096 6.29282 40.2822C6.69486 40.1993 7.35104 40.0637 7.94968 39.9393C8.33836 39.8583 8.70309 39.7821 8.95822 39.728C8.97687 39.7241 8.99573 39.72 9.01478 39.7159C9.36261 39.6414 9.7562 39.5515 10.0602 39.4839C10.1025 39.4745 10.1431 39.4654 10.1816 39.457C10.3254 39.4257 10.4798 39.389 10.6267 39.3567C10.7372 39.3322 10.8437 39.3101 10.9382 39.294C10.9698 39.2887 11.0022 39.2838 11.0352 39.2791C11.1964 39.2566 11.3687 39.2421 11.5013 39.2344H11.5009Z" fill="#E9E8E8"/>
<path d="M33.0179 39.7149C32.9562 39.7011 32.892 39.6862 32.8276 39.671C32.7105 39.6435 32.5929 39.6157 32.4884 39.5941C32.4568 39.5877 32.4263 39.5818 32.3974 39.5765C32.2947 39.5583 32.1808 39.5438 32.0781 39.5348C32.0337 39.5308 31.9913 39.5279 31.953 39.5261C31.8467 39.5212 31.7398 39.5318 31.6342 39.5428C31.5857 39.5479 31.533 39.5536 31.479 39.5604C31.4028 39.5702 31.324 39.5824 31.2514 39.5988C31.127 39.6275 30.9997 39.6563 30.8864 39.7149C30.8495 39.7339 30.8071 39.7576 30.7609 39.7842C30.6055 39.8744 30.407 40.001 30.2231 40.1148C30.1748 40.1448 30.1273 40.174 30.0821 40.2013C29.9462 40.2832 29.7912 40.38 29.636 40.4752C29.4565 40.5856 29.2768 40.6941 29.1255 40.7762C28.8877 40.905 28.5567 41.0324 28.3898 41.1178C28.2947 41.1662 28.1981 41.2266 28.1201 41.2899C28.0757 41.3257 28.0356 41.3663 27.9973 41.4088C27.9712 41.4378 27.9459 41.4676 27.9209 41.4972C27.8475 41.5842 27.7489 41.7004 27.6789 41.8133C27.6473 41.8643 27.61 41.9256 27.5705 41.9924C27.487 42.1343 27.3945 42.3019 27.3285 42.4534C27.2013 42.7454 27.0043 43.219 26.853 43.6531C26.8255 43.7319 26.7996 43.8093 26.7758 43.884C26.6336 44.332 26.4075 45.0982 26.1744 45.896C26.0098 46.4591 25.8419 47.0378 25.6971 47.5314C25.5893 47.8993 25.4944 48.2201 25.4235 48.4521C25.3269 48.769 25.2017 49.165 25.0947 49.4686C25.0497 49.596 25.0081 49.7073 24.9729 49.7892C24.9187 49.9158 24.8058 50.0199 24.7142 50.1112C24.6418 50.1835 24.5485 50.2497 24.4687 50.3048C24.452 50.3164 24.4355 50.3277 24.4204 50.3383C24.3465 50.3893 24.2562 50.4471 24.1884 50.4751C24.1688 50.4831 24.1482 50.4888 24.127 50.4928C24.1323 50.4928 24.1368 50.4933 24.1409 50.4939C24.1761 50.4988 24.2118 50.4918 24.247 50.4881C24.3318 50.4794 24.5159 50.4583 24.65 50.442C24.6759 50.4389 24.7056 50.4353 24.738 50.4312C24.8859 50.4132 25.0929 50.3877 25.2978 50.3622C25.5125 50.3356 25.7248 50.3093 25.8633 50.2917C26.0463 50.2686 26.2763 50.2439 26.4211 50.2196C26.4305 50.218 26.4396 50.2164 26.4482 50.2149C26.5387 50.1982 26.6315 50.1667 26.713 50.1353C26.7621 50.1165 26.8114 50.0945 26.8585 50.0704C26.8856 50.0565 26.9123 50.0422 26.9371 50.0271C27.0031 49.9868 27.0628 49.9368 27.1207 49.8856C27.1245 49.8825 27.128 49.8792 27.1317 49.8758C27.1885 49.8253 27.2478 49.7667 27.2955 49.7116C27.3435 49.6559 27.3896 49.5979 27.4254 49.5339C27.4641 49.4649 27.5006 49.3788 27.5271 49.2971C27.5291 49.2914 27.5308 49.2854 27.5328 49.2795C27.6455 48.9328 27.8614 48.2542 28.0887 47.5383C28.247 47.0395 28.4106 46.5227 28.5489 46.0879C28.5874 45.9668 28.6282 45.8378 28.6708 45.7036C28.8838 45.0324 29.1389 44.2256 29.3516 43.5542C29.4966 43.0969 29.6217 42.7027 29.7003 42.4569C29.7476 42.3089 29.8044 42.1363 29.8521 42.0164C29.8904 41.9203 29.9308 41.8237 29.9872 41.7369C29.9894 41.7336 29.9919 41.73 29.9943 41.7265C30.056 41.6338 30.1469 41.529 30.2221 41.4461C30.2948 41.3659 30.3903 41.2762 30.4551 41.2205C30.4578 41.2182 30.4606 41.216 30.4633 41.2138C30.5091 41.1754 30.5586 41.1411 30.611 41.1123C30.7157 41.0551 30.9269 40.9577 31.0834 40.8778C31.1871 40.8248 31.3183 40.7598 31.4523 40.6914C31.577 40.6277 31.7039 40.5613 31.8135 40.4989C31.9911 40.3978 32.1861 40.2697 32.3464 40.1662C32.3815 40.1434 32.4151 40.1219 32.4463 40.1021C32.5738 40.0214 32.7343 39.9212 32.8345 39.8546C32.8417 39.8497 32.8488 39.845 32.8555 39.8405C32.9113 39.8025 32.969 39.748 33.0179 39.7143V39.7149Z" fill="#E9E8E8"/>
<path d="M20.3864 17.6455C20.5135 17.6259 20.6418 17.61 20.7708 17.5971C20.982 17.5761 21.1955 17.5644 21.4111 17.5618C21.4398 17.5614 21.4683 17.561 21.497 17.561C21.6465 17.561 21.7953 17.5653 21.9432 17.5738C22.0589 17.5802 22.1738 17.5895 22.2883 17.601C22.4863 17.621 22.6827 17.6484 22.8768 17.6833C22.975 17.701 23.0724 17.7204 23.1695 17.7415C23.1506 17.7458 23.1306 17.7433 23.1113 17.7462C23.0569 17.7539 22.9347 17.7701 22.8473 17.7874C22.8049 17.7958 22.7517 17.8054 22.6926 17.8164C22.5305 17.8464 22.3225 17.8862 22.1571 17.934C21.9002 18.0084 21.5606 18.1297 21.3055 18.2336C21.0733 18.3281 20.8356 18.4394 20.6269 18.557C20.4497 18.6567 20.2772 18.779 20.1156 18.8942C20.0944 18.9093 20.0734 18.9242 20.0527 18.9391C19.8809 19.0612 19.7104 19.186 19.5499 19.3226C19.3833 19.4645 19.2113 19.627 19.053 19.7902C18.8939 19.9546 18.7366 20.1357 18.5949 20.3084C18.4574 20.4757 18.3239 20.6523 18.2029 20.8263C18.096 20.9802 17.9945 21.1381 17.8998 21.2996C17.8894 21.3172 17.8788 21.3349 17.8686 21.3527C17.7545 21.5522 17.6162 21.8166 17.5174 22.0231C17.4286 22.2089 17.3485 22.399 17.2766 22.592C17.1961 22.8072 17.1037 23.07 17.0352 23.3144C17.0207 23.3657 17.0067 23.419 16.993 23.4727C16.9399 23.6809 16.8924 23.9011 16.8549 24.0932C16.8113 24.3152 16.7744 24.5388 16.751 24.7638C16.7288 24.9784 16.717 25.2044 16.7119 25.4262C16.7115 25.443 16.7111 25.4601 16.7107 25.477C16.7058 25.7348 16.7099 26.086 16.7213 26.3108C16.73 26.4831 16.7573 26.6538 16.7785 26.825C16.8026 27.0189 16.826 27.2703 16.8655 27.4735C16.882 27.5582 16.9024 27.6421 16.9246 27.7255C16.9531 27.8325 16.9849 27.9388 17.0161 28.045C17.0755 28.247 17.1475 28.4765 17.2218 28.686C17.2954 28.8937 17.3781 29.1118 17.4614 29.3019C17.54 29.4807 17.6296 29.6547 17.7223 29.8266C17.7924 29.9563 17.8709 30.1003 17.9544 30.2406C17.991 30.302 18.0281 30.3627 18.066 30.4211C18.1946 30.6197 18.342 30.8258 18.4944 31.0171C18.6537 31.2172 18.8697 31.4578 19.0219 31.6215C19.0538 31.6558 19.0862 31.6897 19.119 31.723C19.2123 31.8182 19.3087 31.9103 19.4081 31.9991C19.5605 32.1351 19.752 32.3019 19.9363 32.4379C20.1366 32.5858 20.4026 32.7607 20.6108 32.8875C20.6836 32.9319 20.7577 32.9745 20.8323 33.0162C20.948 33.0807 21.0657 33.1422 21.1853 33.1989C21.3972 33.299 21.6726 33.4129 21.8818 33.4885C21.9228 33.5034 21.9643 33.5175 22.0057 33.5308C22.1487 33.5773 22.294 33.6165 22.4398 33.6529C22.5262 33.6747 22.6299 33.699 22.7336 33.7219C22.8485 33.7474 22.9628 33.7709 23.0536 33.7874C23.0762 33.7915 23.0974 33.7952 23.1166 33.7981C23.2156 33.8142 23.3525 33.8062 23.4238 33.8128C23.3792 33.825 23.3345 33.8367 23.2895 33.8481C23.2213 33.8654 23.1526 33.8818 23.0838 33.8971C22.8923 33.9398 22.6981 33.9747 22.5016 34.0019C22.4093 34.0147 22.3166 34.0259 22.2233 34.0351C22.068 34.0505 21.9114 34.0611 21.7537 34.0666C21.6685 34.0696 21.583 34.0711 21.4972 34.0711C21.4506 34.0711 21.4043 34.0707 21.3579 34.0698C21.1175 34.0652 20.8798 34.0488 20.6451 34.0213C20.4458 33.998 20.2486 33.9665 20.0539 33.9273C19.8381 33.8838 19.6253 33.8307 19.4163 33.7683C18.966 33.6343 18.5323 33.4579 18.1188 33.2433C17.4587 32.9006 16.851 32.4606 16.312 31.9409C15.8467 31.4921 15.4326 30.9838 15.0805 30.4274C14.5879 29.649 14.216 28.7763 13.9947 27.8402C13.8413 27.1923 13.7598 26.514 13.7598 25.8158C13.7598 25.6982 13.7623 25.5814 13.767 25.465C13.7945 24.7656 13.9037 24.0887 14.0846 23.4447C14.2887 22.7182 14.5839 22.0335 14.9565 21.4062C15.5385 20.4262 16.3089 19.5858 17.2128 18.9428C17.8959 18.4568 18.6554 18.0839 19.4678 17.8485C19.7673 17.7617 20.0739 17.6933 20.3866 17.6453L20.3864 17.6455Z" fill="#E9E8E8"/>
<path d="M24.3195 1.11803C24.3861 1.13528 24.4505 1.16213 24.5122 1.19348C24.5334 1.20426 24.5544 1.21563 24.575 1.22739C24.6554 1.27324 24.7343 1.33007 24.8013 1.39279C24.8657 1.45315 24.9245 1.52076 24.9712 1.59562C24.973 1.59836 24.9747 1.6011 24.9765 1.60404C25.0323 1.69596 25.0875 1.82726 25.1346 1.94268C25.17 2.0297 25.2085 2.12886 25.2432 2.229C25.2595 2.27584 25.2749 2.32307 25.2886 2.36932C25.3534 2.58665 25.4509 2.91882 25.5675 3.31763C25.651 3.60316 25.7443 3.92299 25.8423 4.25967C25.9268 4.54951 26.015 4.8519 26.1035 5.15565C26.278 5.75376 26.4541 6.35696 26.6081 6.8808C26.7586 7.39268 26.888 7.82852 26.9737 8.10876C27.0076 8.22007 27.0485 8.33746 27.0915 8.45387C27.1762 8.68316 27.2699 8.90911 27.3388 9.07883C27.3779 9.17524 27.4193 9.27617 27.4625 9.37357C27.5058 9.47057 27.5507 9.56405 27.5971 9.64577C27.6578 9.75278 27.7328 9.86036 27.8082 9.95619C27.8377 9.99363 27.8672 10.0293 27.896 10.0622C27.9883 10.1676 28.0985 10.2696 28.2068 10.3462C28.2093 10.3479 28.2121 10.3501 28.2146 10.3519C28.3203 10.4255 28.445 10.4679 28.5601 10.5259C28.6432 10.5678 28.7424 10.6152 28.8414 10.665C28.9013 10.695 28.961 10.726 29.0174 10.7569C29.1721 10.8422 29.3364 10.9429 29.4898 11.0374C29.5251 11.0591 29.5603 11.0811 29.5952 11.1034C29.7101 11.1759 29.8239 11.2504 29.938 11.3243C30.0419 11.3917 30.1564 11.4734 30.2719 11.5498C30.3381 11.5935 30.4047 11.6357 30.4699 11.6719C30.561 11.7229 30.6637 11.7736 30.7629 11.8187C30.8533 11.8599 30.9407 11.8963 31.0135 11.9238C31.0434 11.9349 31.0744 11.9451 31.1061 11.9543C31.2021 11.9822 31.3031 12.0016 31.3875 12.0172C31.4254 12.0243 31.4637 12.0294 31.502 12.0339C31.5637 12.0411 31.6258 12.0457 31.6876 12.0484C31.7914 12.0527 31.9283 12.0617 32.0553 12.0541C32.0785 12.0527 32.1013 12.0509 32.1235 12.0482C32.2376 12.0347 32.3763 12.0029 32.5153 11.9712C32.5878 11.9547 32.6605 11.9381 32.7298 11.9242C32.7465 11.9208 32.7638 11.9173 32.7809 11.9138C32.8618 11.8975 32.9465 11.8808 33.0329 11.8638C32.9918 11.8387 32.9408 11.8077 32.8982 11.7803C32.8921 11.7764 32.886 11.7725 32.8803 11.7685C32.7941 11.7117 32.6766 11.6296 32.5749 11.5598C32.5654 11.5534 32.5558 11.5467 32.5464 11.54C32.4521 11.4748 32.3566 11.4058 32.2594 11.3427C32.2136 11.3131 32.1655 11.2833 32.117 11.2539C32.0481 11.212 31.9778 11.1702 31.909 11.1291C31.7884 11.057 31.6588 10.9788 31.5354 10.9104C31.4539 10.8653 31.3712 10.8224 31.2883 10.7799C31.2483 10.7593 31.2082 10.7387 31.1683 10.7181C31.0463 10.655 30.9008 10.587 30.8014 10.531C30.7221 10.4861 30.6459 10.4355 30.5722 10.3818C30.5616 10.374 30.5508 10.366 30.54 10.3579C30.4748 10.3095 30.4084 10.2574 30.3481 10.2012C30.3202 10.1753 30.2907 10.1461 30.2617 10.1159C30.2135 10.0661 30.1664 10.014 30.1295 9.96952C30.113 9.94953 30.0975 9.92856 30.0823 9.90759C30.0513 9.86409 30.0224 9.81901 29.9943 9.77355C29.9517 9.70457 29.9038 9.62755 29.8682 9.54896C29.8671 9.54622 29.8657 9.54348 29.8643 9.54054C29.8254 9.45235 29.7934 9.34339 29.7606 9.24403C29.7256 9.1386 29.6903 9.02003 29.6549 8.90794C29.6223 8.80466 29.5793 8.66826 29.5288 8.50796C29.3931 8.0776 29.2032 7.47518 29.0156 6.88021C28.8286 6.2872 28.6438 5.70183 28.5175 5.30204C28.512 5.2846 28.5063 5.26677 28.5006 5.24894C28.404 4.94381 28.294 4.59733 28.1889 4.26692C28.0767 3.91456 27.9707 3.58101 27.8931 3.33664C27.8784 3.29 27.8646 3.24649 27.852 3.2069C27.786 2.99858 27.7057 2.72991 27.6562 2.58116C27.6264 2.49121 27.5918 2.39871 27.5553 2.31503C27.5533 2.31072 27.5513 2.30641 27.5496 2.3021C27.5158 2.22547 27.4785 2.14748 27.4366 2.0783C27.3936 2.00716 27.3443 1.93955 27.2897 1.87684C27.2744 1.8592 27.2573 1.84039 27.2392 1.82118C27.1868 1.76513 27.1261 1.70575 27.0744 1.66205C27.0126 1.60992 26.9387 1.56465 26.8733 1.52624C26.8256 1.49822 26.7747 1.47411 26.7248 1.45119C26.7105 1.44452 26.6959 1.43806 26.6818 1.43139C26.6429 1.41356 26.6044 1.39494 26.5651 1.37828C26.5415 1.36829 26.5176 1.35908 26.4932 1.35144C26.4758 1.34595 26.4528 1.33987 26.4282 1.33399C26.3579 1.31714 26.2752 1.30166 26.2752 1.30166C26.2126 1.29441 26.1499 1.28716 26.0872 1.27991C25.9048 1.25894 25.7223 1.23777 25.5398 1.2168C25.3275 1.19231 25.1154 1.16781 24.903 1.14331C24.9003 1.14292 24.8977 1.14273 24.895 1.14233C24.5876 1.10863 24.2802 1.07492 23.9728 1.04102C23.939 1.04396 23.9053 1.04689 23.8715 1.04964C23.8375 1.05121 23.8035 1.05277 23.7695 1.05434C23.8397 1.05826 23.9021 1.06218 23.954 1.06571C24.0767 1.07394 24.2156 1.0902 24.3195 1.11705V1.11803Z" fill="#E9E8E8"/>
<mask id="mask0_13837_15953" style="mask-type:alpha" maskUnits="userSpaceOnUse" x="0" y="0" width="44" height="51">
<path d="M43.0479 35.4648C43.0385 35.3905 43.023 35.317 43.0012 35.2451C42.9833 35.1882 42.9617 35.1279 42.9362 35.0679C42.8993 34.9813 42.8539 34.8955 42.7983 34.8216C42.5555 34.4996 41.9592 33.8188 41.5454 33.3126C41.2356 32.9338 40.8536 32.4585 40.4727 31.9863C40.2345 31.6907 39.9968 31.3964 39.7776 31.1277C39.6201 30.9345 39.4425 30.7177 39.2618 30.4982C38.8152 29.9556 38.3505 29.3947 38.1277 29.1215C38.0492 29.0249 37.9616 28.9336 37.9018 28.8242C37.8753 28.7754 37.8545 28.7227 37.8359 28.6686C37.8127 28.6012 37.7928 28.5317 37.7697 28.4646C37.7257 28.3376 37.6768 28.1852 37.6375 28.0633C37.6015 27.9533 37.5461 27.8481 37.5294 27.7337C37.5294 27.7331 37.5294 27.7325 37.5292 27.7321C37.5084 27.5882 37.5114 27.3776 37.5114 27.2004C37.5126 26.9627 37.5289 26.605 37.5355 26.3076C37.5424 25.9969 37.5465 25.6609 37.5534 25.3367C37.5603 25.0126 37.5689 24.6073 37.5758 24.3627C37.5809 24.1979 37.5803 24.0329 37.5954 23.8689C37.6088 23.7029 37.633 23.5379 37.6675 23.375C37.6931 23.2678 37.7276 23.1632 37.7706 23.0619C37.7807 23.0384 37.7911 23.0148 37.8021 22.9915C37.8647 22.8588 37.9445 22.696 38.0458 22.5672C38.0486 22.5637 38.0513 22.5598 38.0541 22.5565C38.4552 22.0601 39.4708 20.8476 40.3568 19.7876C40.8858 19.1546 41.3684 18.5759 41.6463 18.2362C41.9209 17.9009 42.254 17.4498 42.4595 17.1799C42.4791 17.1543 42.4976 17.13 42.5147 17.1078C42.6182 16.973 42.7486 16.8184 42.824 16.7028C42.8851 16.6136 42.9332 16.516 42.967 16.4133C43.0026 16.2957 43.0208 16.1736 43.0212 16.0508C43.0212 16.048 43.0212 16.0453 43.0212 16.0425C43.0206 15.9034 43.001 15.765 42.9625 15.6314C42.9433 15.5691 42.9185 15.492 42.8896 15.4068C42.8054 15.1569 42.6863 14.8334 42.5673 14.5812C42.5202 14.4808 42.4632 14.3646 42.4004 14.239C42.1757 13.7906 41.8716 13.2205 41.6385 12.806C41.6202 12.7737 41.6025 12.7422 41.5852 12.712C41.3322 12.2679 40.9437 11.6904 40.7656 11.416C40.6898 11.2961 40.6065 11.181 40.5163 11.0715C40.5071 11.0609 40.4973 11.0505 40.4873 11.0403C40.4287 10.9808 40.3596 10.928 40.2985 10.8814C40.2313 10.8299 40.1602 10.7836 40.0858 10.7432C40.0777 10.7387 40.0693 10.7344 40.0612 10.7301C39.9548 10.6721 39.845 10.6202 39.7322 10.5753C39.6338 10.5408 39.5325 10.5165 39.4294 10.5018C39.4231 10.5008 39.417 10.4996 39.4107 10.4989C39.3243 10.4896 39.2371 10.4904 39.1509 10.5012C39.0458 10.512 38.9026 10.5379 38.7796 10.5629C38.5997 10.5996 38.3082 10.6684 38.0725 10.7215C37.8266 10.7771 37.5512 10.8395 37.3049 10.8961C37.1902 10.9225 37.0742 10.95 36.9587 10.977C36.8357 11.006 36.7135 11.0346 36.5949 11.0615C36.3718 11.1117 36.1449 11.1581 35.9243 11.2071C35.7038 11.2561 35.4836 11.3076 35.2632 11.3576C34.9723 11.4238 34.4834 11.535 34.1778 11.6038C34.1476 11.6106 34.1171 11.6175 34.0867 11.6241C33.8665 11.6737 33.6428 11.7243 33.4297 11.7693C33.194 11.8191 32.9412 11.8671 32.7226 11.9116C32.5208 11.9526 32.2906 12.0147 32.1176 12.0355C31.9752 12.0525 31.8073 12.0406 31.6855 12.0355C31.5857 12.0321 31.4861 12.0218 31.3877 12.0045C31.3822 12.0035 31.3763 12.0024 31.3706 12.0014C31.2622 11.9812 31.13 11.9547 31.0167 11.912C30.8507 11.8485 30.6893 11.7748 30.5323 11.6917C30.5133 11.6817 30.4942 11.6716 30.4754 11.6612C30.2974 11.5616 30.1083 11.4197 29.945 11.3139C29.7962 11.2175 29.6502 11.1217 29.4966 11.027C29.343 10.9323 29.1786 10.8316 29.0235 10.7462C28.9423 10.7015 28.8541 10.6572 28.7689 10.6153C28.6968 10.5796 28.6267 10.5457 28.5656 10.5147C28.4513 10.4569 28.3274 10.4152 28.2223 10.3419C28.1062 10.259 28.0003 10.1626 27.9068 10.055C27.885 10.0301 27.8638 10.0046 27.8428 9.97894C27.7603 9.87723 27.6855 9.76964 27.6189 9.65696C27.6159 9.65186 27.6128 9.64677 27.6097 9.64167C27.5173 9.47862 27.4307 9.26835 27.3522 9.07668C27.3339 9.03161 27.3139 8.98262 27.2928 8.93069C27.194 8.68768 27.0709 8.38 26.9878 8.10819C26.8758 7.74172 26.6891 7.10951 26.4781 6.38873C26.1607 5.305 25.7879 4.02177 25.5304 3.14146C25.4365 2.82085 25.3579 2.55335 25.3029 2.36874C25.2595 2.22333 25.2006 2.06871 25.1482 1.94054C25.1008 1.82433 25.0452 1.69225 24.9891 1.59955C24.9398 1.51999 24.8799 1.44748 24.8109 1.38398C24.741 1.31951 24.664 1.26307 24.5813 1.21603C24.5574 1.20173 24.5326 1.1886 24.5077 1.17625C24.4479 1.14686 24.3857 1.12295 24.3215 1.10492C24.2011 1.07689 24.0785 1.05926 23.9551 1.0522C23.9068 1.04887 23.8487 1.04534 23.7841 1.04162C23.5126 1.02594 23.1219 1.00791 22.8146 1.00282C22.714 1.00105 22.6036 1.00027 22.4893 1.00007C22.1285 0.999289 21.7256 1.00497 21.4489 1.01026C21.231 1.01438 20.9959 1.02614 20.785 1.03731C20.7304 1.04025 20.6774 1.04299 20.6269 1.04554C20.4088 1.0569 20.1447 1.07552 19.973 1.08708C19.8477 1.09512 19.7061 1.10159 19.5969 1.11472C19.5385 1.1206 19.4804 1.12981 19.423 1.14156C19.3877 1.14882 19.3525 1.15665 19.3178 1.16606C19.2034 1.20075 19.0919 1.24367 18.9839 1.29442C18.9247 1.32362 18.867 1.35576 18.8108 1.39006C18.7749 1.41201 18.7395 1.43454 18.7047 1.45845C18.6527 1.49569 18.6048 1.53821 18.5616 1.58525C18.5598 1.58721 18.558 1.58877 18.5563 1.59073C18.5038 1.64717 18.4561 1.70793 18.4139 1.7724C18.3518 1.86843 18.2956 1.96798 18.2455 2.07067C18.2009 2.16905 18.1624 2.27017 18.1302 2.37325C18.1237 2.39324 18.1165 2.41558 18.109 2.4391C18.0495 2.62723 17.9637 2.91825 17.8914 3.14715C17.7983 3.43797 17.6742 3.80405 17.5771 4.11917C17.5314 4.26772 17.4878 4.41881 17.4445 4.56912C17.3992 4.72727 17.3542 4.88444 17.308 5.0373C17.2204 5.32832 17.1226 5.63874 17.0384 5.90879C16.9598 6.15826 16.8743 6.42792 16.8027 6.65662C16.782 6.72168 16.7612 6.78714 16.7406 6.85259C16.6952 6.99644 16.65 7.14048 16.6062 7.28138C16.544 7.48284 16.4768 7.70096 16.4208 7.88615C16.3698 8.05469 16.3195 8.23165 16.2704 8.39215C16.2468 8.46976 16.2224 8.54619 16.1981 8.6232C16.1743 8.69807 16.1506 8.77312 16.1272 8.84955C16.0796 9.00476 16.0372 9.17546 15.9814 9.32341C15.9571 9.39181 15.9298 9.45922 15.8997 9.52546C15.8671 9.59758 15.8312 9.66852 15.7923 9.7375C15.7182 9.86175 15.6306 9.97718 15.5309 10.082C15.4761 10.1391 15.4187 10.1933 15.3592 10.2451C15.2979 10.2982 15.2343 10.3483 15.1683 10.3956C15.084 10.4559 14.9929 10.5081 14.9008 10.5588C14.8511 10.5863 14.8012 10.6131 14.7519 10.6405C14.6046 10.7225 14.4278 10.8056 14.2846 10.8869C14.1506 10.9629 14.0242 11.045 13.8918 11.1289C13.8674 11.1444 13.8427 11.1601 13.8179 11.1759C13.7073 11.2467 13.5932 11.3212 13.4897 11.3911C13.4553 11.4144 13.419 11.4395 13.3823 11.465C13.2905 11.5289 13.1978 11.5953 13.1318 11.6424C13.0653 11.6896 12.9955 11.7411 12.9338 11.7862C12.8722 11.8313 12.8125 11.8783 12.75 11.9234C12.6875 11.9685 12.6192 12.0184 12.5585 12.0561C12.518 12.0825 12.476 12.1064 12.4326 12.1278C12.4171 12.1354 12.4016 12.1425 12.3858 12.1493C12.3041 12.1807 12.2205 12.207 12.1354 12.2277C12.0845 12.2405 12.0262 12.2526 11.9714 12.2626C11.9333 12.2697 11.897 12.2757 11.8663 12.2802C11.8054 12.2879 11.7442 12.2914 11.6829 12.291C11.6163 12.2924 11.5299 12.2918 11.4517 12.2873C11.4468 12.2871 11.4417 12.2867 11.4368 12.2865C11.3346 12.2828 11.2329 12.2724 11.1321 12.2557C11.0701 12.2434 10.9931 12.2275 10.9049 12.2093C10.6766 12.1617 10.3734 12.0966 10.056 12.0284C9.72716 11.9577 9.38324 11.8836 9.09235 11.8221C8.9305 11.7878 8.75431 11.7505 8.57126 11.7119C8.11145 11.6147 7.60646 11.5079 7.1661 11.4156C6.96536 11.3735 6.77798 11.3345 6.61456 11.3008C6.27221 11.2306 5.84304 11.1467 5.50343 11.0813C5.34375 11.0505 5.2039 11.0239 5.10216 11.0047C4.97076 10.979 4.81991 10.9521 4.70658 10.9398C4.6119 10.9308 4.51684 10.9276 4.42177 10.9302C4.34615 10.9302 4.27073 10.9369 4.19629 10.9498C4.19275 10.9506 4.18922 10.9516 4.18568 10.9523C4.11085 10.9696 4.03699 10.9915 3.96511 11.0184C3.90913 11.0364 3.85492 11.0593 3.80287 11.087C3.72607 11.1279 3.6532 11.1757 3.58504 11.2298C3.57522 11.2381 3.56501 11.2469 3.5546 11.2559C3.48015 11.3204 3.39118 11.4033 3.32695 11.4891C3.2916 11.5361 3.25329 11.5943 3.21401 11.6572C3.14723 11.7643 3.07691 11.8858 3.0117 11.9926C2.9901 12.0278 2.96849 12.0633 2.94669 12.0988C2.86439 12.2334 2.78249 12.369 2.7047 12.5062C2.64205 12.6161 2.56643 12.749 2.48865 12.8883C2.41185 13.0263 2.33289 13.1704 2.26277 13.3044C2.10721 13.6013 1.85481 14.0979 1.67391 14.4608C1.63443 14.5402 1.59829 14.6131 1.56746 14.6762C1.44823 14.9192 1.31428 15.2067 1.22825 15.4138C1.16029 15.5789 1.08801 15.7731 1.05147 15.9195C1.04244 15.9555 1.03576 15.9939 1.03046 16.0327C1.01788 16.1239 1.01376 16.2177 1.01022 16.2918C1.00571 16.3784 1.00983 16.4652 1.0224 16.5511C1.03654 16.6357 1.05854 16.719 1.0882 16.7996C1.09213 16.8107 1.09645 16.8219 1.10058 16.8329C1.1269 16.9032 1.15773 16.9716 1.19368 17.0375C1.24828 17.1384 1.30976 17.2354 1.37752 17.3279C1.49616 17.4857 1.73087 17.7639 1.90608 17.9832C2.09798 18.2239 2.38239 18.5851 2.66051 18.9355C2.76815 19.0711 2.8748 19.2049 2.97478 19.3298C3.19555 19.6051 3.44205 19.9077 3.67245 20.1913C3.82172 20.3749 3.96412 20.5509 4.08845 20.7059C4.35165 21.0347 4.67161 21.4474 4.87078 21.6983C5.0069 21.8702 5.1548 22.0508 5.28325 22.2108C5.40267 22.3595 5.5382 22.5255 5.64093 22.6576C5.72912 22.7714 5.83184 22.8984 5.89921 23.0039C5.95617 23.095 6.00528 23.191 6.04554 23.2906C6.08993 23.397 6.12627 23.5065 6.15455 23.6184C6.15612 23.6247 6.1573 23.631 6.15868 23.6372C6.18323 23.7427 6.20051 23.8499 6.20994 23.9579C6.2176 24.0662 6.21819 24.1748 6.21171 24.2832C6.20307 24.4856 6.16634 24.876 6.15809 25.1733C6.15436 25.3061 6.1522 25.4567 6.15141 25.6101C6.15023 25.84 6.1522 26.0771 6.15671 26.2742C6.163 26.5398 6.1905 26.8622 6.20169 27.0844C6.20268 27.1056 6.20366 27.1261 6.20444 27.1453C6.21034 27.2968 6.21662 27.4705 6.20778 27.6C6.19875 27.709 6.1797 27.8167 6.15082 27.9222C6.12627 28.0147 6.09641 28.1058 6.06165 28.1952C6.0536 28.2159 6.04554 28.2367 6.0371 28.2571C6.00371 28.3365 5.96599 28.4139 5.92396 28.4891C5.91237 28.5099 5.90078 28.5305 5.88861 28.5511C5.84029 28.6263 5.78706 28.6982 5.72951 28.7666C5.69396 28.8113 5.65291 28.8627 5.60773 28.9193C5.37439 29.2119 5.02025 29.655 4.6178 30.159C4.08433 30.8267 3.46582 31.6004 2.93019 32.2706C2.45702 32.8624 2.04868 33.3735 1.82083 33.6589C1.81396 33.6677 1.80669 33.6765 1.79962 33.6855C1.66959 33.8482 1.51167 34.0449 1.42014 34.161C1.36122 34.237 1.29405 34.3105 1.24337 34.3938C1.21528 34.4394 1.18936 34.4863 1.1652 34.5341C1.13495 34.5939 1.10745 34.6548 1.08349 34.7175C1.0607 34.7832 1.04244 34.8504 1.02849 34.9184C1.01965 34.9621 1.01239 35.0062 1.00728 35.0507C0.998832 35.1418 0.99785 35.2335 1.00374 35.3248C1.00433 35.3344 1.00472 35.344 1.00531 35.3535C1.00669 35.4328 1.01749 35.5118 1.03733 35.5886C1.07426 35.7111 1.15675 35.9247 1.22746 36.0883C1.30917 36.2773 1.44921 36.5928 1.58415 36.8877C1.65368 37.0398 1.72204 37.1866 1.78017 37.3077C1.92886 37.6175 2.08855 37.9221 2.25256 38.2241C2.36176 38.4249 2.5132 38.696 2.65442 38.9452C2.76363 39.1381 2.86694 39.3178 2.94001 39.4426C3.03979 39.6127 3.15509 39.8032 3.25919 39.9404C3.35052 40.0597 3.45305 40.1701 3.5656 40.2698C3.61902 40.3149 3.67637 40.3551 3.73667 40.3903C3.77085 40.4103 3.80581 40.4286 3.84176 40.4452C3.94389 40.4926 4.05074 40.5295 4.16034 40.555C4.25521 40.5759 4.35204 40.5865 4.44927 40.5869C4.58499 40.5898 4.80125 40.5943 4.97429 40.5673C5.2809 40.5195 5.8507 40.3913 6.28851 40.301C6.71395 40.2132 7.4234 40.0666 8.04879 39.9365C8.39841 39.8638 8.72191 39.796 8.95427 39.7468C9.36281 39.6601 9.84776 39.5482 10.1777 39.4759C10.4019 39.4267 10.6521 39.3654 10.8593 39.3264C10.8846 39.3217 10.9094 39.3172 10.9334 39.3131C11.1194 39.2841 11.3067 39.2645 11.4947 39.2543C11.5892 39.2478 11.6841 39.2468 11.7785 39.251C11.8155 39.2525 11.8522 39.2549 11.8891 39.258C11.9763 39.268 12.061 39.2949 12.1447 39.3223C12.1537 39.3252 12.1625 39.3282 12.1716 39.3311C12.2725 39.3613 12.3707 39.3999 12.465 39.4465C12.5887 39.5165 12.7084 39.5935 12.8233 39.6772C12.9771 39.7858 13.2088 39.9712 13.3895 40.0979C13.3996 40.105 13.4098 40.1117 13.4198 40.1187C13.5801 40.23 13.7478 40.3368 13.9083 40.4385C14.0548 40.5314 14.2261 40.6367 14.3618 40.7168C14.384 40.73 14.4054 40.7423 14.4252 40.7539C14.536 40.8178 14.6527 40.8713 14.7648 40.9328C14.8839 40.9982 15.0245 41.0647 15.139 41.1454C15.139 41.1454 15.139 41.1454 15.1392 41.1456C15.2514 41.2273 15.3564 41.3183 15.4535 41.4172C15.5189 41.4817 15.5798 41.5509 15.6357 41.6238C15.6505 41.643 15.665 41.6622 15.6792 41.6818C15.7426 41.7706 15.7966 41.8656 15.8406 41.9656C15.8976 42.0951 15.963 42.2905 16.0154 42.4555C16.1286 42.8104 16.3519 43.5326 16.5587 44.2008C16.6418 44.4697 16.7223 44.7298 16.7919 44.9536C16.9722 45.5344 17.1668 46.1592 17.3414 46.7228C17.3856 46.8657 17.4286 47.0048 17.4697 47.1381C17.6512 47.727 17.8928 48.5201 18.0106 48.9061C18.0175 48.9285 18.0244 48.9516 18.0314 48.9749C18.0813 49.1423 18.1326 49.3277 18.1825 49.4548C18.2267 49.5683 18.2838 49.6763 18.3528 49.7766C18.3577 49.7837 18.3626 49.7907 18.3675 49.7978C18.439 49.8995 18.5213 49.9934 18.613 50.0773C18.7126 50.1651 18.8232 50.2395 18.9422 50.2985C19.0616 50.3551 19.1873 50.3969 19.317 50.423C19.459 50.4531 19.6338 50.4639 19.7929 50.4788C19.9917 50.4974 20.2706 50.5217 20.51 50.5347C20.751 50.5478 21.125 50.5672 21.4777 50.5813C21.6606 50.5885 21.8378 50.5946 21.9876 50.5974C22.3728 50.6046 22.8057 50.5958 23.1432 50.584C23.4331 50.5731 23.8377 50.5401 24.0119 50.5252C24.0708 50.5202 24.1335 50.5168 24.1887 50.4941C24.2042 50.4868 24.2193 50.4792 24.2344 50.4714C24.3004 50.4376 24.3641 50.399 24.4244 50.3555C24.4676 50.3256 24.5183 50.2913 24.5689 50.2536C24.622 50.2142 24.6754 50.1715 24.7206 50.1264C24.8137 50.0343 24.928 49.9277 24.983 49.7992C25.1024 49.5215 25.2973 48.9112 25.4347 48.4605C25.674 47.6766 26.188 45.8791 26.548 44.6743C26.6401 44.3658 26.7222 44.096 26.7869 43.8924C26.9414 43.4058 27.1887 42.8078 27.339 42.4633C27.436 42.2413 27.59 41.9842 27.6882 41.8256C27.7454 41.7339 27.8216 41.6399 27.8876 41.5613C27.9019 41.5442 27.9159 41.5276 27.9288 41.5121C27.9579 41.4752 27.9887 41.4398 28.0211 41.4061C28.0541 41.3714 28.0889 41.3385 28.1252 41.3069C28.1628 41.2771 28.2018 41.2495 28.2421 41.2232C28.2904 41.1917 28.3403 41.1627 28.392 41.1368C28.5585 41.0514 28.8903 40.9238 29.1281 40.795C29.1535 40.7813 29.1796 40.7668 29.2063 40.7517C29.3927 40.6467 29.6111 40.5111 29.8164 40.3843C29.9103 40.3263 30.0014 40.27 30.0855 40.2196C30.2723 40.1072 30.4944 39.9641 30.6779 39.8538C30.7574 39.8059 30.8299 39.764 30.8886 39.7338C31.001 39.676 31.1267 39.6476 31.2498 39.6192C31.2773 39.6135 31.3048 39.6084 31.3323 39.6035C31.4034 39.5908 31.4747 39.5802 31.5464 39.572C31.5743 39.5688 31.6024 39.5659 31.6305 39.5633C31.7354 39.55 31.841 39.5445 31.9467 39.5467C32.095 39.5545 32.2427 39.5714 32.3888 39.5968C32.5666 39.6284 32.8051 39.6899 33.0131 39.736C33.0378 39.7415 33.0641 39.7474 33.092 39.7534C33.6703 39.8812 34.8902 40.1514 35.9067 40.3762C36.4181 40.4893 36.8781 40.591 37.1786 40.6573C37.4672 40.7207 37.807 40.796 38.1026 40.8605C38.2817 40.8995 38.4447 40.9347 38.5703 40.961C38.7712 41.0031 39.0344 41.0566 39.1748 41.0762C39.254 41.0864 39.3341 41.0882 39.4137 41.0815C39.415 41.0815 39.4164 41.0813 39.4176 41.0811C39.5292 41.0735 39.6401 41.0578 39.7495 41.0343C39.8314 41.0163 39.911 40.9896 39.9872 40.9551C40.0017 40.9487 40.0161 40.9418 40.0304 40.9347C40.1298 40.8834 40.2225 40.8203 40.3066 40.7468C40.4097 40.6569 40.5018 40.5551 40.5816 40.444C40.6536 40.3388 40.7554 40.1806 40.866 40.0047C41.0013 39.7891 41.1496 39.5467 41.2721 39.3417C41.4743 39.0042 41.7946 38.4755 42.0745 37.9944C42.2334 37.7212 42.3793 37.4631 42.4831 37.2644C42.6152 37.0112 42.7494 36.6865 42.8533 36.417C42.9087 36.2732 42.9556 36.145 42.989 36.0515C43.0338 35.9239 43.0572 35.7899 43.0587 35.6547C43.0599 35.5912 43.0562 35.5279 43.0481 35.4652L43.0479 35.4648ZM29.1264 27.1767C29.0765 27.4977 29.0093 27.8122 28.9256 28.1195C28.8151 28.5268 28.6758 28.921 28.5104 29.2997C28.4939 29.3377 28.477 29.3753 28.4599 29.4129C28.4366 29.4643 28.4128 29.5154 28.3884 29.5664C28.3552 29.636 28.3211 29.7047 28.2859 29.7731C28.2142 29.9131 28.1388 30.0506 28.0598 30.1855C28.0215 30.2507 27.9825 30.3154 27.9426 30.3795C27.8945 30.4567 27.8454 30.5329 27.7949 30.6082C27.7375 30.6938 27.6788 30.7781 27.6185 30.8614C27.5515 30.9539 27.4826 31.045 27.4121 31.1344C27.3307 31.2374 27.2471 31.3384 27.161 31.4369C27.0831 31.5263 27.0033 31.6139 26.9218 31.6995C26.8835 31.7397 26.8448 31.7797 26.8057 31.8189C26.7387 31.8863 26.6708 31.9525 26.6016 32.0176C26.5217 32.0927 26.4404 32.166 26.3577 32.2375C26.2742 32.3096 26.1892 32.38 26.1029 32.4486C25.7798 32.7049 25.4375 32.935 25.0784 33.1358C24.8315 33.274 24.577 33.3982 24.3154 33.5078C24.0543 33.6171 23.7862 33.7118 23.5122 33.7908C23.3655 33.8331 23.217 33.8707 23.0667 33.904C22.8786 33.9456 22.6879 33.9799 22.4952 34.0065C22.2273 34.0436 21.9552 34.0659 21.6797 34.073C21.6176 34.0745 21.5553 34.0753 21.4929 34.0753C21.308 34.0753 21.125 34.0683 20.9433 34.0545C20.816 34.0449 20.6895 34.0322 20.5638 34.0161C20.4179 33.9975 20.2731 33.9746 20.1297 33.9473C19.9439 33.9121 19.7603 33.8695 19.5792 33.8204C19.4091 33.7741 19.2414 33.7218 19.076 33.6638C18.964 33.6244 18.853 33.5826 18.7432 33.538C18.6814 33.5129 18.6199 33.4868 18.5588 33.4602C18.4201 33.3994 18.2834 33.3345 18.1489 33.2656C17.9998 33.1891 17.8533 33.1078 17.7097 33.0216C17.5502 32.9259 17.3943 32.8244 17.242 32.7174C17.0798 32.6034 16.9219 32.4829 16.7685 32.3564C16.6522 32.2606 16.5387 32.1615 16.4277 32.059C16.3474 31.9847 16.2686 31.9086 16.1914 31.8308C16.0916 31.7307 15.9942 31.6276 15.8995 31.522C15.762 31.3685 15.6301 31.2092 15.5038 31.0448C15.4348 30.955 15.3676 30.8637 15.3024 30.771C15.13 30.5261 14.9699 30.2705 14.8234 30.0054C14.7534 29.8788 14.6867 29.75 14.6228 29.6193C14.5908 29.5536 14.5596 29.4874 14.5291 29.4206C14.4997 29.3559 14.4708 29.2907 14.4429 29.225C14.3956 29.1137 14.3506 29.001 14.3078 28.8873C14.2724 28.7935 14.2388 28.6988 14.2066 28.6032C14.187 28.5448 14.1681 28.4862 14.1497 28.4274C14.1365 28.3855 14.1237 28.3433 14.1114 28.3012C14.0921 28.2357 14.0735 28.1699 14.0556 28.1037C14.0181 27.9643 13.9837 27.8236 13.9529 27.6813C13.9415 27.6292 13.9309 27.5767 13.9204 27.5242C13.8326 27.0781 13.7784 26.619 13.7612 26.1496C13.757 26.0403 13.7551 25.9303 13.7551 25.8198C13.7551 25.5827 13.7647 25.3479 13.783 25.1159C13.8338 24.4746 13.9534 23.8542 14.134 23.2629C14.1758 23.1261 14.2208 22.9911 14.2691 22.8575C14.2964 22.7816 14.3249 22.7064 14.3541 22.6317C14.3757 22.577 14.3977 22.5226 14.4203 22.4685C14.4459 22.4073 14.472 22.3468 14.4989 22.2864C14.5403 22.1931 14.5835 22.1008 14.6281 22.0095C14.6623 21.9395 14.6975 21.87 14.7334 21.8012C14.7776 21.7169 14.8232 21.6334 14.8699 21.5509C14.8907 21.5145 14.9116 21.478 14.933 21.442C14.953 21.4079 14.9732 21.3742 14.9937 21.3404C15.0481 21.2509 15.1039 21.1627 15.1612 21.0757C15.1975 21.0206 15.2345 20.9661 15.272 20.912C15.3215 20.8407 15.3722 20.7702 15.4238 20.7006C15.5093 20.5854 15.5976 20.4727 15.6886 20.3625C15.7569 20.2798 15.8267 20.1987 15.8982 20.1189C15.9443 20.0676 15.9909 20.0168 16.0382 19.9667C16.0869 19.9149 16.1364 19.864 16.1863 19.8138C16.2778 19.7217 16.3715 19.632 16.4672 19.5447C16.5186 19.4977 16.5709 19.4513 16.6235 19.4058C16.7494 19.2968 16.8783 19.1922 17.0105 19.0917C17.071 19.0456 17.1324 19.0005 17.1943 18.9564C17.5325 18.7148 17.8894 18.5008 18.2624 18.3176C18.3634 18.268 18.4655 18.2206 18.5686 18.1755C18.6702 18.1312 18.7727 18.0893 18.8764 18.0495C18.9778 18.0107 19.0799 17.9738 19.183 17.9395C19.2879 17.9047 19.3936 17.8719 19.5002 17.8417C19.6102 17.8106 19.7212 17.7818 19.833 17.7555C19.9043 17.7389 19.9759 17.7234 20.0478 17.7089C20.1616 17.6859 20.2763 17.6656 20.3916 17.6481C20.4676 17.6366 20.544 17.6262 20.6208 17.617C20.6832 17.6095 20.7457 17.6029 20.8086 17.597C20.8973 17.5887 20.9865 17.5821 21.0761 17.577C21.1806 17.5711 21.2855 17.5672 21.3911 17.5658C21.4247 17.5654 21.4583 17.565 21.4921 17.565C21.5412 17.565 21.5901 17.5656 21.639 17.5666C21.8293 17.5701 22.0183 17.5805 22.2057 17.5976C22.3382 17.6097 22.4698 17.625 22.6007 17.6438C22.7407 17.6638 22.8798 17.6875 23.0174 17.715C23.1259 17.7365 23.2337 17.7604 23.3407 17.7867C23.4761 17.8198 23.6102 17.8564 23.743 17.8966C23.8964 17.9431 24.0478 17.994 24.1971 18.0499C24.5326 18.1749 24.8577 18.3233 25.1702 18.4934C25.5141 18.6805 25.8427 18.8939 26.153 19.1322C26.4039 19.3249 26.6429 19.5336 26.8682 19.7578C26.9927 19.8816 27.1131 20.0102 27.229 20.1431C27.2722 20.1926 27.3148 20.2428 27.3569 20.2936C27.4007 20.3465 27.4435 20.4004 27.4857 20.4546C27.5442 20.5299 27.6014 20.6063 27.6572 20.6839C27.7169 20.767 27.7748 20.8517 27.8314 20.9375C27.8837 21.0169 27.9349 21.0972 27.9844 21.179C28.0443 21.2777 28.1023 21.3781 28.158 21.48C28.2107 21.5762 28.2614 21.674 28.3105 21.773C28.3751 21.9033 28.4364 22.036 28.4945 22.1706C28.5303 22.2533 28.5646 22.3366 28.5976 22.4208C28.6277 22.4969 28.6569 22.5733 28.6848 22.6505C28.7013 22.696 28.7172 22.7418 28.733 22.7877C28.7506 22.8392 28.7677 22.8912 28.7846 22.9433C28.842 23.1212 28.894 23.3019 28.9406 23.485C29.1303 24.2318 29.2295 25.0179 29.2295 25.8202C29.2295 26.2823 29.1937 26.7356 29.1252 27.1771L29.1264 27.1767Z" fill="black" stroke="black" stroke-width="0.25"/>
</mask>
<g mask="url(#mask0_13837_15953)">
<g filter="url(#filter0_f_13837_15953)">
<path d="M17.9793 197.245C27.9125 194.727 37.8376 192.086 47.7749 189.63C57.2285 187.237 58.3344 179.945 56.6295 157.733C52.6591 106.64 49.596 55.2482 46.2691 3.92495C45.6855 -4.94742 42.4301 -11.4218 39.0004 -10.5307C14.6093 -4.19339 -9.80586 2.15021 -34.2052 8.36344L17.9793 197.245Z" fill="#FFB9F8"/>
</g>
<g filter="url(#filter1_f_13837_15953)">
<path d="M-17.3309 -8.52214C-17.5428 -9.82822 -18.2633 -10.4914 -18.8162 -12.0712C-20.9749 -13.6406 -18.6766 -14.6507 -16.6486 -14.0509C-13.7927 -13.2061 -14.2487 -11.8657 -13.1265 -10.305C-11.1588 -7.56852 -10.1868 -5.66417 -7.43691 -2.96853C-5.41626 -0.987721 1.07317 1.95564 3.9301 3.04369C8.186 4.66452 8.11812 9.69595 9.15853 12.2573C10.6578 15.9481 10.3888 18.9198 13.7082 22.5972C16.9974 26.241 21.6237 29.1317 25.758 32.2268C30.3317 35.6508 33.6964 38.2379 35.5623 42.8313C37.1458 46.7297 32.7339 47.5777 30.2166 48.8215C27.7374 50.0464 33.423 61.5502 30.2167 60.4701C26.0683 59.0727 13.6314 53.7288 10.3322 51.1358C6.65967 48.2494 7.46813 33.648 3.93011 30.8673C1.1197 28.6585 -9.66899 29.5338 -12.0691 21.7998C-13.4969 15.765 -9.66758 11.2629 -15.8731 5.17979C-18.2395 2.86006 -17.3668 -1.48841 -17.0737 -3.69315C-16.8436 -5.42354 -17.0416 -6.7399 -17.3309 -8.52214Z" fill="#71BBFF"/>
</g>
<g filter="url(#filter2_f_13837_15953)">
<path d="M36.3861 53.7499C29.5941 42.6784 17.1957 25.4808 6.78422 19.6908C5.31006 22.5211 6.76207 25.3804 8.87302 28.2462C13.9131 35.0887 19.2619 46.6731 24.7643 52.7706L34.6002 63.6701C40.2527 66.9906 33.0755 60.1062 36.3861 53.7499Z" fill="#0A9F68"/>
</g>
<g filter="url(#filter3_f_13837_15953)">
<path d="M55.6061 57.8251C55.5981 58.3882 55.2168 58.9338 55.2038 59.5238C55.1908 60.1138 55.2269 61.6767 54.9478 61.9619C54.5443 62.3741 54.2992 63.2375 53.3786 63.2488C52.4888 63.2598 51.6125 62.6156 50.9157 62.2118C48.358 60.7295 46.2147 58.7336 43.8988 57.028C42.7277 56.1655 41.2783 55.5979 40.0341 54.7815C39.4278 54.3837 39.3055 53.9386 38.5294 53.6493C37.7841 53.3714 37.2002 52.9218 36.5748 52.5115C35.0615 51.5184 33.3299 51.1019 31.5129 50.4928C29.5071 49.8204 27.3763 48.1075 25.896 46.8873C21.1654 42.9882 19.9575 37.6611 17.2967 32.8467C16.2645 30.9791 15.7521 28.9566 14.4809 27.1701C13.1419 25.2884 11.1406 23.9485 9.0691 22.5892C5.53648 20.271 1.54778 17.8253 -1.16394 14.8767C-2.42057 13.5103 -3.36635 12.0907 -3.46057 10.313C-3.56213 8.39681 -0.600043 5.96164 1.66992 5.34637C2.93032 5.00474 5.14404 5.48252 6.35742 5.75187C7.64432 6.03753 8.86089 6.44146 10.0658 6.8662C14.5645 8.45203 18.1999 11.3856 20.8755 14.5549C24.2343 18.5336 29.2689 20.0504 34.0022 22.7507C36.2731 24.0461 38.2562 25.5959 40.2373 27.1157C41.5505 28.1231 41.7998 30.0322 42.4515 31.3357C44.2828 34.9986 44.0739 39.0527 46.8771 42.348C48.1786 43.8779 49.6192 45.3923 51.3939 46.5989C52.3591 47.2553 53.8349 48.2037 54.272 49.2116C55.0845 51.085 56.303 53.23 55.8475 55.313C55.6814 56.0726 55.6167 57.073 55.6061 57.8251Z" fill="#FFE665"/>
</g>
</g>
<defs>
<filter id="filter0_f_13837_15953" x="-40.2051" y="-16.6128" width="103.5" height="219.858" filterUnits="userSpaceOnUse" color-interpolation-filters="sRGB">
<feFlood flood-opacity="0" result="BackgroundImageFix"/>
<feBlend mode="normal" in="SourceGraphic" in2="BackgroundImageFix" result="shape"/>
<feGaussianBlur stdDeviation="3" result="effect1_foregroundBlur_13837_15953"/>
</filter>
<filter id="filter1_f_13837_15953" x="-25.6855" y="-20.2261" width="67.582" height="86.7676" filterUnits="userSpaceOnUse" color-interpolation-filters="sRGB">
<feFlood flood-opacity="0" result="BackgroundImageFix"/>
<feBlend mode="normal" in="SourceGraphic" in2="BackgroundImageFix" result="shape"/>
<feGaussianBlur stdDeviation="3" result="effect1_foregroundBlur_13837_15953"/>
</filter>
<filter id="filter2_f_13837_15953" x="0.183594" y="13.6909" width="42.6699" height="56.8428" filterUnits="userSpaceOnUse" color-interpolation-filters="sRGB">
<feFlood flood-opacity="0" result="BackgroundImageFix"/>
<feBlend mode="normal" in="SourceGraphic" in2="BackgroundImageFix" result="shape"/>
<feGaussianBlur stdDeviation="3" result="effect1_foregroundBlur_13837_15953"/>
</filter>
<filter id="filter3_f_13837_15953" x="-9.46289" y="-0.772461" width="71.4102" height="70.0215" filterUnits="userSpaceOnUse" color-interpolation-filters="sRGB">
<feFlood flood-opacity="0" result="BackgroundImageFix"/>
<feBlend mode="normal" in="SourceGraphic" in2="BackgroundImageFix" result="shape"/>
<feGaussianBlur stdDeviation="3" result="effect1_foregroundBlur_13837_15953"/>
</filter>
</defs>
</svg>
