<svg width="260" height="160" viewBox="0 0 260 160" fill="none" xmlns="http://www.w3.org/2000/svg">
<g filter="url(#filter0_f_13488_17986)">
<circle cx="162.137" cy="45.022" r="18.3553" fill="url(#paint0_linear_13488_17986)"/>
</g>
<path d="M138.975 44.9445C138.975 57.7791 149.346 68.1837 162.138 68.1837C162.138 48.6064 149.766 35.2614 143.58 31.0361C140.688 34.9141 138.975 39.7286 138.975 44.9445Z" fill="url(#paint1_linear_13488_17986)"/>
<path d="M106.994 117.538C106.708 117.927 106.72 118.433 106.733 118.901C106.747 119.454 106.749 120.009 106.739 120.562C107.207 120.25 107.51 119.774 107.758 119.292C107.871 119.069 107.976 118.84 108.041 118.601C108.104 118.362 108.126 118.115 108.141 117.87C108.155 117.647 108.163 117.424 108.167 117.199C108.169 117.035 108.167 116.845 107.934 116.914C107.585 117.017 107.201 117.256 106.996 117.538H106.994Z" fill="#252525"/>
<path d="M106.254 126.971C106.919 126.574 107.545 127.125 108.233 127.064C109.139 126.985 109.957 126.57 110.857 126.568C111.061 126.91 111.266 127.255 111.469 127.597L111.274 127.788C110.314 127.435 110.237 128.171 110.057 128.78C108.726 128.784 107.393 128.79 106.062 128.794C106.06 128.592 106.058 128.389 106.054 128.187C106.185 128.166 106.337 128.146 106.333 127.98C106.329 127.814 106.175 127.8 106.045 127.78C106.153 127.293 106.293 127.269 106.252 126.971H106.254Z" fill="#32302F"/>
<path d="M108.432 118.492C107.907 118.122 107.378 118.316 106.852 118.486C106.702 117.966 107.046 117.708 107.401 117.457C108.014 117.731 108.63 118.002 109.244 118.276C109.366 118.213 109.489 118.148 109.611 118.085C109.611 118.286 109.611 118.486 109.611 118.687C109.22 118.6 108.847 118.405 108.43 118.492H108.432Z" fill="#44413F"/>
<path fill-rule="evenodd" clip-rule="evenodd" d="M108.508 117.286C109.043 117.385 109.264 117.75 109.246 118.278L109.248 118.276C109.309 118.245 109.37 118.213 109.431 118.181C109.493 118.149 109.554 118.117 109.615 118.086C109.519 117.342 109.248 116.85 108.03 116.899C108.061 117.191 108.261 117.239 108.508 117.286ZM108.255 140.123C108.253 140.152 108.252 140.183 108.251 140.213C108.237 140.523 108.222 140.871 107.833 140.893C107.773 140.896 107.715 140.9 107.66 140.903H107.66C107.226 140.929 106.967 140.945 106.796 140.816C106.702 140.745 106.719 140.567 106.733 140.417C106.739 140.347 106.745 140.283 106.739 140.238C106.71 140.01 106.739 139.867 106.772 139.706C106.796 139.593 106.821 139.47 106.829 139.302C106.92 139.355 107.011 139.408 107.102 139.462C106.933 140.38 107.345 140.276 107.757 140.171C107.941 140.124 108.124 140.077 108.257 140.121L108.255 140.123ZM109.115 139.851C109.213 139.848 109.351 139.907 109.488 139.966L109.488 139.966C109.625 140.024 109.762 140.083 109.861 140.08C110.094 140.117 110.379 139.869 110.519 139.6C110.537 139.601 110.553 139.601 110.568 139.602C110.616 139.604 110.651 139.605 110.686 139.604C110.775 139.6 110.864 139.579 111.183 139.503L111.208 139.497C111.208 139.504 111.245 139.501 111.282 139.498C111.316 139.495 111.35 139.492 111.358 139.497C111.769 139.718 111.779 140.295 111.36 140.495C111.29 140.529 111.218 140.563 111.146 140.597L111.146 140.597C111.006 140.664 110.861 140.733 110.71 140.807C110.385 140.931 109.83 140.935 109.687 140.931C109.131 140.955 108.927 140.293 109.113 139.853L109.115 139.851Z" fill="#555250"/>
<path fill-rule="evenodd" clip-rule="evenodd" d="M109.241 118.278L109.243 118.279H109.241L109.241 118.278ZM108.504 117.286C109.04 117.385 109.259 117.752 109.241 118.278C108.935 118.141 108.628 118.006 108.322 117.87L108.321 117.87L108.321 117.87C108.014 117.733 107.706 117.597 107.4 117.46C107.558 117.215 107.724 116.98 108.026 116.899C108.056 117.191 108.256 117.24 108.504 117.286ZM111.012 134.256C109.986 134.587 109.926 135.498 109.873 136.317L109.87 136.371C109.812 137.244 109.829 138.121 109.846 138.998C109.853 139.359 109.86 139.72 109.861 140.081L109.272 140.099C109.108 139.886 108.996 139.667 109.053 139.378C109.161 138.82 109.129 138.386 109.09 137.86C109.061 137.476 109.029 137.042 109.045 136.475C109.057 136.099 109.141 135.785 109.228 135.458C109.246 135.39 109.264 135.321 109.282 135.251C109.616 135.191 109.728 134.942 109.84 134.692C109.917 134.519 109.995 134.346 110.145 134.234C110.233 134.169 110.311 134.089 110.389 134.009C110.563 133.83 110.737 133.652 111.024 133.636L111.012 134.256ZM108.145 140.74C108.252 140.595 108.28 140.526 108.318 140.436C108.35 140.362 108.387 140.272 108.479 140.112C108.51 140.058 108.623 139.555 108.609 139.499L108.603 139.479C108.59 139.428 108.565 139.336 108.53 139.308C108.413 139.218 108.335 139.209 108.171 139.191L108.167 139.191C108.143 139.189 108.117 139.187 108.096 139.197C108.082 139.204 108.074 139.216 108.066 139.228L108.064 139.231C107.986 139.362 107.937 139.499 107.905 139.639L107.099 139.464V139.466C106.929 140.384 107.341 140.279 107.754 140.174C107.788 140.166 107.823 140.157 107.857 140.149C107.856 140.229 107.859 140.309 107.861 140.388C107.865 140.507 107.876 140.637 107.973 140.732C108.011 140.771 108.09 140.763 108.145 140.74ZM110.111 128.591L110.111 128.591C110.261 128.032 110.412 127.473 111.275 127.789C110.935 128.176 111.044 128.587 111.212 129L110.058 128.782C110.076 128.719 110.093 128.655 110.111 128.591L110.111 128.591L110.111 128.591ZM109.293 118.601C109.014 118.517 108.734 118.432 108.43 118.495L108.428 118.493C108.594 120.059 109.004 120.326 109.307 120.097C109.544 119.919 109.579 119.765 109.611 119.403V118.689C109.504 118.666 109.398 118.633 109.293 118.601ZM107.717 134.284L107.717 134.284C107.267 133.972 106.773 133.63 106.248 133.648C106.248 133.511 106.25 133.371 106.252 133.233C106.686 133.158 107.04 133.345 107.393 133.532C107.653 133.67 107.913 133.807 108.205 133.841C108.207 133.906 108.21 133.973 108.214 134.043C108.222 134.21 108.231 134.395 108.231 134.617C108.067 134.527 107.895 134.408 107.717 134.284Z" fill="#484543"/>
<path d="M106.045 127.779C106.175 127.799 106.331 127.816 106.333 127.98C106.337 128.146 106.185 128.168 106.054 128.186C106.051 128.051 106.047 127.913 106.045 127.777V127.779Z" fill="#1E1E1E"/>
<path fill-rule="evenodd" clip-rule="evenodd" d="M106.767 120.344C106.843 120.24 106.834 120.095 106.825 119.955V119.955V119.955V119.955V119.955V119.955C106.821 119.903 106.818 119.853 106.819 119.805L106.85 118.486L106.923 118.463C107.426 118.301 107.93 118.139 108.43 118.492C108.668 118.66 108.701 118.958 108.733 119.248C108.774 119.621 108.814 119.981 109.287 120.032C109.307 120.774 109.868 120.803 110.282 120.825C110.444 120.833 110.583 120.84 110.658 120.889L110.658 120.906C110.652 121.386 110.65 121.576 109.923 121.647L109.713 121.667C108.888 121.746 108.078 121.824 107.258 121.762C108.08 121.824 108.891 121.746 109.717 121.667C109.787 121.66 109.857 121.653 109.927 121.647C110.654 121.577 110.656 121.386 110.662 120.906C110.662 120.9 110.662 120.895 110.662 120.889C111.412 121.086 111.764 121.661 112.026 122.323L112.028 122.319C112.099 122.623 112.198 122.924 112.296 123.225C112.591 124.125 112.885 125.026 112.463 126C112.409 126.125 112.362 126.255 112.314 126.385C112.143 126.855 111.97 127.33 111.471 127.595C111.268 127.252 111.063 126.908 110.859 126.565C110.861 126.429 110.862 126.292 110.864 126.155C110.865 126.019 110.867 125.882 110.869 125.745C111.257 125.471 111.204 125.089 111.151 124.707C111.121 124.491 111.091 124.275 111.14 124.078C110.572 124.343 110.639 124.763 110.706 125.182C110.743 125.409 110.779 125.636 110.715 125.838C110.772 125.81 110.822 125.779 110.867 125.747C110.865 125.884 110.863 126.021 110.862 126.157C110.86 126.294 110.859 126.431 110.857 126.568C110.364 126.569 109.896 126.694 109.425 126.819C109.035 126.923 108.643 127.028 108.233 127.064C107.96 127.088 107.697 127.016 107.438 126.945C107.042 126.837 106.655 126.731 106.254 126.971C106.226 126.899 106.208 126.833 106.191 126.771C106.139 126.58 106.093 126.415 105.79 126.172C107.51 125.646 107.861 124.116 106.532 122.893C106.501 122.864 106.469 122.836 106.437 122.808C106.189 122.588 105.946 122.372 106.06 121.991C106.145 121.7 106.365 121.71 106.584 121.72C106.666 121.724 106.748 121.728 106.822 121.716C106.821 121.716 106.82 121.716 106.819 121.715L106.819 121.714C106.745 121.726 106.663 121.722 106.581 121.718C106.362 121.708 106.142 121.697 106.057 121.989C105.943 122.37 106.186 122.585 106.434 122.806L106.435 122.806L106.435 122.806L106.435 122.806C106.466 122.834 106.498 122.862 106.529 122.891C107.858 124.114 107.507 125.644 105.787 126.17C105.688 126.041 105.655 125.781 105.619 125.506C105.596 125.325 105.572 125.137 105.528 124.975C105.281 124.063 105.267 123.561 105.299 122.613C105.337 121.45 105.726 121.005 106.61 120.48L106.61 120.481L106.767 120.344ZM109.282 135.252C109.239 134.637 109.19 134.424 109.127 134.15C109.099 134.033 109.07 133.905 109.037 133.729C109.033 133.711 109.03 133.691 109.027 133.672L109.027 133.672C108.993 133.476 108.952 133.239 108.615 133.259C108.312 133.277 108.216 133.553 108.204 133.838C107.912 133.805 107.653 133.668 107.393 133.53C107.039 133.343 106.686 133.156 106.251 133.231C106.053 131.758 105.929 130.281 106.061 128.792C106.725 128.79 107.39 128.788 108.054 128.785H108.055H108.055H108.055H108.055L108.058 128.785C108.724 128.783 109.39 128.78 110.056 128.778L111.21 128.997C111.321 129.866 111.231 130.728 111.14 131.589C111.068 132.27 110.996 132.95 111.024 133.634C110.736 133.649 110.561 133.829 110.386 134.008C110.309 134.087 110.232 134.166 110.145 134.231C109.995 134.344 109.917 134.517 109.84 134.689C109.727 134.939 109.616 135.188 109.282 135.248V135.252ZM108.217 138.999C108.213 138.763 108.208 138.527 108.203 138.292H108.205C108.213 138.194 108.222 138.098 108.23 138.004C108.334 136.849 108.422 135.875 108.233 134.617C108.069 134.527 107.897 134.408 107.719 134.284C107.268 133.972 106.774 133.63 106.25 133.649L106.256 133.69C106.472 135.217 106.689 136.743 106.657 138.291H106.655L106.74 138.797L106.826 139.303C106.917 139.358 107.008 139.411 107.099 139.463V139.461C107.419 139.532 107.74 139.601 108.061 139.67L108.231 139.707C108.226 139.471 108.222 139.235 108.217 138.999ZM111.013 134.258L111.013 134.256V134.258L111.013 134.258ZM111.013 134.258C110.987 134.566 110.969 134.875 110.951 135.183C110.903 136.012 110.855 136.841 110.654 137.655C110.572 137.987 110.585 138.326 110.597 138.666C110.613 139.08 110.628 139.493 110.472 139.894C110.336 140.156 110.11 140.121 109.881 140.085L109.862 140.082C109.861 139.708 109.854 139.335 109.847 138.961V138.961V138.961C109.83 138.096 109.814 137.233 109.87 136.373L109.874 136.318C109.927 135.499 109.987 134.589 111.013 134.258Z" fill="url(#paint2_linear_13488_17986)"/>
<g filter="url(#filter1_f_13488_17986)">
<path d="M50 144.867L83.4328 127.604H94.697C95.71 127.604 96.0809 128.937 95.2134 129.461L54.8073 153.826L50 144.867Z" fill="url(#paint3_linear_13488_17986)"/>
</g>
<g filter="url(#filter2_f_13488_17986)">
<path d="M116.211 154.918L162.973 127.604L174.68 127.265C175.675 127.236 176.096 128.52 175.278 129.086L135.44 156.667L116.211 154.918Z" fill="url(#paint4_linear_13488_17986)"/>
</g>
<path d="M83.0008 126.307C83.0008 128.03 83.4817 128.311 85.0484 128.268C88.6579 128.159 92.2722 128.216 95.8865 128.226C96.5103 128.226 97.0198 127.721 97.0198 127.092C97.0198 112.668 97.0532 98.2446 97.0198 83.8208L83.3484 96.3113C83.2532 96.4208 83.1484 96.5256 83.0532 96.6398C83.0532 106.53 83.0294 116.426 83.0008 126.316V126.307Z" fill="#0A9F68"/>
<path d="M176.462 85.2865C176.462 72.958 176.867 61.1818 171.253 49.8294C167.753 42.7532 162.524 36.6056 156.076 32.1484C154.191 33.5627 152.157 34.8008 150.053 35.8532C149.667 36.0437 149.281 36.2342 148.891 36.4151L142.815 41.9675C145.638 43.1675 148.272 44.7865 150.715 46.8342C158.805 53.6294 162.405 62.6151 162.457 73.0104C162.553 91.0342 162.486 109.063 162.486 127.087C162.486 127.71 162.996 128.225 163.624 128.22C167.396 128.21 171.167 128.163 174.934 128.258C176.238 128.291 176.5 127.991 176.5 126.691C176.467 112.887 176.462 99.0818 176.462 85.277V85.2865Z" fill="#0A9F68"/>
<path d="M147.405 27.4868C142.353 25.5058 137.067 24.463 131.781 24.2915C131.791 24.282 131.8 24.2725 131.81 24.263C114.991 23.6963 98.2337 31.9487 89.3575 46.963C86.4385 51.8963 84.1623 57.6344 83.3432 63.4296C83.3527 63.4201 83.3623 63.4106 83.3718 63.4011C83.1527 64.9487 83.0242 66.4963 83.0289 68.0392C83.048 77.5487 83.0575 87.0582 83.0527 96.5677L83.348 96.2963C87.148 91.8963 89.7147 86.3249 91.9051 80.8582C93.5718 76.6963 95.1527 72.4201 97.167 68.4154C97.4623 65.4963 98.1051 62.6677 99.2147 59.8915C102.162 52.5011 107.067 46.8011 114.086 43.0677C120.005 39.9106 126.329 38.8534 133.067 39.5106C134.71 39.6725 136.305 39.9392 137.853 40.3106C141.648 39.2868 145.372 38.0677 148.924 36.4106L154.658 31.1773C152.377 29.7296 149.953 28.4915 147.41 27.4868H147.4H147.405Z" fill="#71BBFF"/>
<path d="M83.0347 68.8155C83.0585 79.1965 83.0632 89.5727 83.0537 99.9536C83.8013 99.3727 84.5585 98.8108 85.3204 98.2536C89.1061 95.5012 93.0347 92.9727 97.0347 90.5584C97.0251 84.4965 97.0156 78.4393 96.9823 72.3774C96.9585 68.0393 97.6204 63.9298 99.2204 59.9203C102.168 52.5298 107.073 46.8298 114.092 43.0965C120.011 39.9393 126.335 38.8822 133.073 39.5393C139.773 40.1917 145.673 42.5917 150.749 46.8536C151.325 47.3393 151.878 47.8346 152.406 48.3393L164.116 39.2393C159.544 34.1298 153.873 30.0393 147.416 27.5108C143.03 25.787 138.458 24.7822 133.873 24.4346L83.0347 68.8155Z" fill="#FFB9F8"/>
<path d="M83.0249 117.472C87.4392 114.058 92.1344 111.01 97.0392 108.358V91.196L83.0535 102.063C83.0535 107.196 83.0344 112.339 83.0249 117.472Z" fill="#FFB9F8"/>
<path d="M176.373 73.2638L165.292 78.8924C164.359 79.4781 163.425 80.0733 162.497 80.6733C162.545 96.0876 162.497 111.507 162.497 126.921C162.497 127.545 163.006 128.059 163.635 128.054C167.406 128.045 171.178 127.997 174.945 128.092C176.249 128.126 176.511 127.826 176.511 126.526C176.478 112.721 176.473 98.9162 176.473 85.1114C176.473 81.1019 176.516 77.1543 176.383 73.259L176.373 73.2638Z" fill="#FFB9F8"/>
<path d="M83.0103 120.881C83.0103 122.691 83.0103 124.5 83.0008 126.31C83.0008 128.034 83.4817 128.315 85.0484 128.272C88.6579 128.162 92.2722 128.219 95.8865 128.229C96.5103 128.229 97.0198 127.719 97.0198 127.096C97.0198 122.653 97.0198 118.2 97.0294 113.758L83.0103 120.881Z" fill="#FFB9F8"/>
<path d="M140.163 40.953C143.868 36.9196 147.554 32.8768 151.711 29.4768C150.797 28.9911 149.873 28.5434 148.921 28.1196L134.878 39.7244C136.702 40.0006 138.468 40.4006 140.163 40.953Z" fill="#71BBFF"/>
<path d="M90.6189 81.7868C92.6761 79.9201 94.8237 78.1535 97.0046 76.4344C97.0046 75.0535 96.9951 73.6678 96.9903 72.2868C96.9903 71.863 96.9999 71.4439 97.0094 71.0249L83.0522 82.5582C83.0522 84.8678 83.0522 87.1678 83.0522 89.4773C85.4475 86.7963 87.9475 84.2106 90.6142 81.7916L90.6189 81.7868Z" fill="#71BBFF"/>
<path d="M176.463 85.2767C176.463 77.4957 176.625 69.9338 175.33 62.5576L162.302 69.4767C162.402 70.6338 162.459 71.81 162.463 73.0052C162.497 79.7957 162.511 86.5814 162.511 93.3767L176.463 86.8433V85.2767Z" fill="#FFE665"/>
<path d="M174.943 60.672C174.634 59.2053 174.262 57.7434 173.81 56.291L166.634 60.991C169.405 60.9053 172.191 60.9053 174.943 60.6767V60.672Z" fill="#71BBFF"/>
<path d="M88.21 128.214C90.7719 128.191 93.3385 128.214 95.8957 128.229C96.5195 128.229 97.029 127.724 97.029 127.095V124.081L88.2052 128.214H88.21Z" fill="#71BBFF"/>
<path d="M163.973 99.5723C163.477 99.8961 162.987 100.22 162.487 100.539C162.487 109.391 162.463 118.239 162.463 127.091C162.463 127.715 162.973 128.229 163.601 128.225C167.373 128.215 171.144 128.168 174.911 128.263C176.215 128.296 176.477 127.996 176.477 126.696C176.449 114.782 176.444 102.872 176.444 90.958C172.358 93.9199 168.201 96.7961 163.982 99.5675L163.973 99.5723Z" fill="#71BBFF"/>
<path d="M83.0379 107.597C86.0855 103.959 90.0474 101.088 94.4903 99.4162C95.3284 99.1019 96.1808 98.8305 97.0427 98.5876C97.0427 92.4733 97.0331 86.359 97.0093 80.24L83.057 92.7209C83.057 97.6828 83.0474 102.635 83.0427 107.597H83.0379Z" fill="#FFE665"/>
<path d="M83.0379 68.0243C83.0474 72.5815 83.0474 77.1434 83.0522 81.7053C85.5665 77.9339 87.6474 73.8005 89.4236 69.6862C91.0141 65.9958 92.4903 62.1672 95.0474 59.0624C97.2046 56.4386 99.9617 54.5196 102.966 52.8862C105.8 48.8196 109.486 45.5148 114.1 43.0577C117.547 41.2243 121.138 40.1005 124.857 39.61C124.909 39.5386 124.962 39.4767 125.014 39.4053C125.976 38.0577 126.752 36.5624 127.943 35.4053C128.776 34.6005 129.781 33.9958 130.79 33.4243C135.386 30.8196 140.257 28.7481 145.109 26.6434C139.324 24.7148 133.286 23.9815 127.338 24.3338C121.909 32.0291 114.838 38.5529 106.728 43.3386C106.062 43.7339 105.381 44.11 104.7 44.4862L83.2855 64.0672C83.1236 65.3862 83.0427 66.7053 83.0427 68.0243H83.0379Z" fill="#71BBFF"/>
<path d="M162.405 112.916V116.845L176.381 106.683V106.049C174.605 106.806 172.695 107.406 170.724 107.692C166.757 108.273 164.119 110.559 162.409 112.916H162.4H162.405Z" fill="#FFE665"/>
<path d="M176.477 110.616C175.953 111.183 175.377 111.692 174.691 112.035C173.401 112.683 171.843 112.692 170.624 113.454C169.02 114.445 168.31 116.516 166.667 117.445C165.601 118.049 164.296 118.078 163.186 118.602C162.991 118.692 162.758 118.84 162.505 119.025V123.073C163.31 122.906 164.153 122.864 165.005 122.897C166.872 122.973 168.796 123.268 170.563 122.668C171.91 122.211 173.043 121.264 174.367 120.74C175.043 120.473 175.767 120.33 176.491 120.292C176.491 117.064 176.482 113.835 176.477 110.606V110.616Z" fill="#FFB9F8"/>
<path d="M125.954 24.4301C111.182 25.7015 97.1631 33.692 89.3155 46.9729C86.5917 51.5681 84.4346 56.8682 83.4917 62.2539C86.7155 62.6967 89.1631 58.3681 90.6869 56.0348C92.0488 53.9396 93.3679 51.7872 95.1631 50.0205C96.7346 48.4682 98.6441 47.2586 100.72 46.4967C102.354 45.8967 104.087 45.5681 105.663 44.8348C108.744 43.3967 110.916 40.5491 112.701 37.6539C114.482 34.7586 116.044 31.6681 118.444 29.2539C120.563 27.1253 123.201 25.6634 125.958 24.4253L125.954 24.4301Z" fill="#0A9F68"/>
<g filter="url(#filter3_f_13488_17986)">
<path fill-rule="evenodd" clip-rule="evenodd" d="M106.26 139.393C106.362 139.29 106.469 139.15 106.583 139.001C106.863 138.635 107.183 138.215 107.572 138.165C108.814 138.578 108.129 139.414 107.502 140.18L107.502 140.18C107.253 140.484 107.013 140.777 106.906 141.028C106.727 141.447 106.597 141.614 106.26 141.905C106.049 142.087 105.476 142.411 104.979 142.691C104.681 142.86 104.41 143.013 104.261 143.11C103.815 143.403 103.506 143.65 103.174 143.915L103.174 143.915C102.94 144.102 102.695 144.297 102.382 144.524C101.911 144.867 101.407 145.249 100.879 145.648L100.879 145.648L100.879 145.648C99.7992 146.465 98.6247 147.354 97.4539 148.122C97.5253 148.151 97.6315 148.2 97.7591 148.265C97.8644 148.211 97.9763 148.155 98.0957 148.095C98.3482 147.969 98.6179 147.839 98.8874 147.71L98.8875 147.71L98.8875 147.71C99.6343 147.352 100.379 146.994 100.752 146.706C100.903 146.59 101.058 146.461 101.217 146.329C101.704 145.926 102.23 145.489 102.784 145.273C103.096 145.151 103.704 144.767 103.958 144.567C104.13 144.432 104.307 144.318 104.482 144.204L104.482 144.204C104.725 144.047 104.966 143.891 105.193 143.681C105.508 143.389 105.952 143.218 106.394 143.048C106.855 142.87 107.313 142.693 107.62 142.381C108.221 141.767 108.481 141.436 108.977 140.804L109.048 140.714C109.368 140.307 110.626 139.68 111.189 139.524C112.418 139.72 111.884 140.261 111.28 140.872C110.952 141.205 110.603 141.558 110.507 141.888C110.412 142.215 110.007 142.605 109.676 142.924L109.676 142.924C109.559 143.037 109.451 143.141 109.369 143.23C109.038 143.592 108.605 144.014 108.228 144.332C107.911 144.6 107.58 144.839 107.249 145.078C106.822 145.387 106.395 145.696 105.992 146.069C104.236 147.697 102.458 148.938 100.212 150.45C97.8698 152.027 95.7031 153.033 94.6679 153.41C94.4741 153.599 94.2704 153.776 94.039 153.898C93.9681 153.935 93.8993 153.972 93.8315 154.008C93.5423 154.164 93.2711 154.309 92.9355 154.419C92.8819 154.437 92.8275 154.454 92.773 154.471C92.6449 154.511 92.5164 154.551 92.3971 154.599C92.315 154.633 92.2185 154.636 92.1228 154.64C92.029 154.644 91.9361 154.647 91.8587 154.679C91.0054 155.027 89.9074 154.211 89.4325 153.651C89.3526 153.556 89.1998 153.418 89.025 153.261C88.619 152.894 88.095 152.42 88.095 152.143C88.095 151.921 88.2117 151.812 88.3424 151.689C88.4205 151.616 88.5036 151.538 88.5698 151.429C88.7553 151.123 88.9883 150.875 89.2241 150.624C89.3326 150.508 89.4416 150.392 89.547 150.27C89.5336 150.232 89.524 150.193 89.5188 150.153C89.4871 149.907 91.8296 148.594 93.2545 147.795C93.8057 147.486 94.2195 147.254 94.3057 147.19C94.4732 147.067 94.6603 146.948 94.851 146.826C95.2374 146.579 95.6383 146.324 95.9203 146.005C96.3078 145.567 97.0547 145.068 97.581 144.755C97.7371 144.662 97.8992 144.557 98.0657 144.45L98.0657 144.45C98.5742 144.122 99.1238 143.768 99.6704 143.636C99.9788 143.561 100.598 143.27 100.862 143.11C101.041 143.001 101.221 142.915 101.4 142.828L101.4 142.828C101.648 142.709 101.894 142.59 102.134 142.415C102.44 142.193 102.77 141.995 103.099 141.797C103.504 141.555 103.907 141.313 104.261 141.028C104.467 140.862 104.677 140.702 104.887 140.541L104.888 140.541C105.366 140.177 105.843 139.813 106.26 139.393Z" fill="url(#paint5_linear_13488_17986)"/>
</g>
<defs>
<filter id="filter0_f_13488_17986" x="119.782" y="2.66675" width="84.7105" height="84.7104" filterUnits="userSpaceOnUse" color-interpolation-filters="sRGB">
<feFlood flood-opacity="0" result="BackgroundImageFix"/>
<feBlend mode="normal" in="SourceGraphic" in2="BackgroundImageFix" result="shape"/>
<feGaussianBlur stdDeviation="12" result="effect1_foregroundBlur_13488_17986"/>
</filter>
<filter id="filter1_f_13488_17986" x="48" y="125.604" width="49.6987" height="30.2219" filterUnits="userSpaceOnUse" color-interpolation-filters="sRGB">
<feFlood flood-opacity="0" result="BackgroundImageFix"/>
<feBlend mode="normal" in="SourceGraphic" in2="BackgroundImageFix" result="shape"/>
<feGaussianBlur stdDeviation="1" result="effect1_foregroundBlur_13488_17986"/>
</filter>
<filter id="filter2_f_13488_17986" x="114.211" y="125.264" width="63.5001" height="33.4023" filterUnits="userSpaceOnUse" color-interpolation-filters="sRGB">
<feFlood flood-opacity="0" result="BackgroundImageFix"/>
<feBlend mode="normal" in="SourceGraphic" in2="BackgroundImageFix" result="shape"/>
<feGaussianBlur stdDeviation="1" result="effect1_foregroundBlur_13488_17986"/>
</filter>
<filter id="filter3_f_13488_17986" x="86.095" y="136.165" width="27.8367" height="20.5977" filterUnits="userSpaceOnUse" color-interpolation-filters="sRGB">
<feFlood flood-opacity="0" result="BackgroundImageFix"/>
<feBlend mode="normal" in="SourceGraphic" in2="BackgroundImageFix" result="shape"/>
<feGaussianBlur stdDeviation="1" result="effect1_foregroundBlur_13488_17986"/>
</filter>
<linearGradient id="paint0_linear_13488_17986" x1="165.953" y1="69.762" x2="175.238" y2="30.0001" gradientUnits="userSpaceOnUse">
<stop stop-color="#FF6400"/>
<stop offset="1" stop-color="#FFB9F8"/>
</linearGradient>
<linearGradient id="paint1_linear_13488_17986" x1="139.048" y1="34.2858" x2="150.476" y2="65.2381" gradientUnits="userSpaceOnUse">
<stop stop-color="#FFB9F8"/>
<stop offset="1" stop-color="#FF6400"/>
</linearGradient>
<linearGradient id="paint2_linear_13488_17986" x1="110.968" y1="121.047" x2="107.253" y2="139.402" gradientUnits="userSpaceOnUse">
<stop stop-color="#32302F"/>
<stop offset="0.0623553" stop-color="#454342"/>
<stop offset="1" stop-color="#32302F"/>
</linearGradient>
<linearGradient id="paint3_linear_13488_17986" x1="89.5512" y1="127.823" x2="61.009" y2="151.609" gradientUnits="userSpaceOnUse">
<stop stop-color="#32302F" stop-opacity="0.7"/>
<stop offset="1" stop-color="#C9D1DB" stop-opacity="0"/>
</linearGradient>
<linearGradient id="paint4_linear_13488_17986" x1="171.714" y1="125.2" x2="142.264" y2="161.015" gradientUnits="userSpaceOnUse">
<stop stop-color="#32302F" stop-opacity="0.7"/>
<stop offset="1" stop-color="#C9D1DB" stop-opacity="0"/>
</linearGradient>
<linearGradient id="paint5_linear_13488_17986" x1="111.119" y1="139.048" x2="88.6044" y2="150.485" gradientUnits="userSpaceOnUse">
<stop stop-color="#32302F" stop-opacity="0.7"/>
<stop offset="1" stop-color="#C9D1DB" stop-opacity="0"/>
</linearGradient>
</defs>
</svg>
