<svg width="48" height="57" viewBox="0 0 48 57" fill="none" xmlns="http://www.w3.org/2000/svg">
<g clip-path="url(#clip0_3698_2215)">
<mask id="mask0_3698_2215" style="mask-type:luminance" maskUnits="userSpaceOnUse" x="0" y="0" width="48" height="57">
<path d="M48 0.566895H0V56.5669H48V0.566895Z" fill="white"/>
</mask>
<g mask="url(#mask0_3698_2215)">
<mask id="mask1_3698_2215" style="mask-type:luminance" maskUnits="userSpaceOnUse" x="6" y="3" width="36" height="49">
<path d="M6.78906 3.76562L41.2254 3.82428L41.1448 51.1743L6.70841 51.1157L6.78906 3.76562Z" fill="white"/>
</mask>
<g mask="url(#mask1_3698_2215)">
<path d="M29.8844 13.8741C29.862 13.9415 29.7944 14.054 29.6241 14.2044C29.4567 14.3519 29.2218 14.5086 28.921 14.6667C27.9947 15.1544 26.6545 15.5596 25.4287 15.8387C25.7651 15.0322 26.2322 14.1872 26.7942 13.5855C27.1989 13.1521 27.6039 12.8974 27.995 12.8192C28.3611 12.7466 28.8151 12.8084 29.3833 13.2147C29.6792 13.4261 29.8103 13.5913 29.8624 13.6962C29.9053 13.7809 29.8995 13.8282 29.8844 13.8741ZM31.0816 13.1178C30.9014 12.7595 30.592 12.4462 30.1994 12.165C29.3897 11.5861 28.5642 11.3889 27.7655 11.5482C26.9926 11.7018 26.3489 12.1699 25.8358 12.7193C25.3794 13.2078 24.9924 13.8019 24.6707 14.409L24.6818 7.86829C24.6826 7.40196 24.3618 7.02405 23.9658 7.02337C23.5698 7.0227 23.2477 7.39952 23.2469 7.86584L23.2347 15.043C22.6697 14.4551 21.9903 14.0228 21.2719 13.7196C19.4718 12.9596 17.359 12.9266 15.9662 13.1143L16.1574 14.5366C17.396 14.3701 19.229 14.4148 20.7144 15.0415C21.4471 15.3506 22.0691 15.7907 22.5078 16.3898C22.9416 16.9824 23.2293 17.7763 23.2275 18.8597L23.2254 20.527C23.2246 20.9933 23.5453 21.3712 23.9414 21.3719C24.3374 21.3725 24.6594 20.9957 24.6602 20.5294L24.6657 17.3397C26.1455 17.0696 28.1845 16.5515 29.5632 15.825C29.9223 15.6362 30.2577 15.4222 30.5322 15.1795C30.8037 14.9396 31.0496 14.6416 31.1715 14.2795C31.3005 13.8959 31.2711 13.4962 31.0816 13.1178Z" fill="#A3B5CA"/>
<path d="M26.7869 20.4778L26.7893 19.0451C26.7904 18.4252 26.2883 17.9214 25.6685 17.9204L22.2994 17.9146C21.6789 17.9136 21.1758 18.4156 21.1748 19.0355L21.1723 20.4682C15.3884 21.7404 11.055 26.887 11.0445 33.0547C11.0323 40.1866 16.8042 45.9782 23.9361 45.9903C31.0681 46.0025 36.8596 40.2306 36.8718 33.0987C36.8823 26.931 32.5664 21.7696 26.7869 20.4778Z" fill="#FF6400"/>
<path d="M16.1117 26.5939C15.9139 26.7824 15.9054 27.0946 16.0938 27.2929L17.0947 28.3461L15.6857 28.6852C15.4199 28.749 15.257 29.0167 15.3208 29.2826C15.3846 29.5484 15.6518 29.7113 15.9177 29.6475L17.3267 29.3078L16.9157 30.6995C16.8383 30.9617 16.9876 31.2368 17.2498 31.3142C17.512 31.3915 17.7871 31.2422 17.8645 30.9801L18.2755 29.5878L19.2752 30.6398C19.4637 30.8376 19.7771 30.8456 19.9748 30.6571C20.1732 30.4686 20.18 30.1558 19.9921 29.958L18.9924 28.906L20.4066 28.5652C20.6724 28.5014 20.8353 28.2342 20.7715 27.9684C20.7076 27.7025 20.4405 27.5396 20.1746 27.6035L18.7604 27.9443L19.172 26.5515C19.2494 26.2893 19.0995 26.0141 18.8373 25.9368C18.5751 25.8594 18.3 26.0093 18.2226 26.2715L17.8116 27.6643L16.8107 26.6111C16.6222 26.4134 16.3094 26.4054 16.1117 26.5939ZM26.6261 30.0813C26.111 30.2055 25.7939 30.7244 25.9182 31.2394L26.5781 33.9777L23.8756 33.1799C23.3674 33.0298 22.8337 33.3204 22.6836 33.8287C22.5335 34.337 22.8236 34.8706 23.3319 35.0207L26.0349 35.8185L23.9941 37.759C23.6101 38.1239 23.5947 38.7317 23.9597 39.1157C24.3246 39.4997 24.9324 39.5151 25.3164 39.1502L27.3572 37.2097L28.0172 39.9474C28.1414 40.4624 28.6603 40.7796 29.1753 40.6553C29.6909 40.5311 30.0075 40.0128 29.8832 39.4972L29.2233 36.7601L31.9229 37.5567C32.4311 37.7068 32.9648 37.4161 33.1149 36.9079C33.265 36.3996 32.9749 35.8659 32.4667 35.7158L29.7671 34.9192L31.8084 32.9782C32.1925 32.6132 32.2078 32.0054 31.8429 31.6214C31.4779 31.2374 30.8696 31.2226 30.4856 31.5875L28.4442 33.528L27.7842 30.7892C27.66 30.2736 27.1417 29.957 26.6261 30.0813Z" fill="white"/>
</g>
<mask id="mask2_3698_2215" style="mask-type:luminance" maskUnits="userSpaceOnUse" x="4" y="-5" width="40" height="67">
<path d="M4 -4.43311H44V61.5669H4V-4.43311Z" fill="white"/>
</mask>
<g mask="url(#mask2_3698_2215)">
<g opacity="0.0280389">
<path d="M29.2578 55.2178C30.3616 55.2178 31.2578 56.114 31.2578 57.2178C31.2578 58.3216 30.3616 59.2178 29.2578 59.2178C28.154 59.2178 27.2578 58.3216 27.2578 57.2178C27.2578 56.114 28.154 55.2178 29.2578 55.2178Z" fill="#E9E8E8"/>
</g>
<path d="M9.76562 15.2061C10.8694 15.2061 11.7656 16.1023 11.7656 17.2061C11.7656 18.3099 10.8694 19.2061 9.76562 19.2061C8.66182 19.2061 7.76562 18.3099 7.76562 17.2061C7.76562 16.1023 8.66182 15.2061 9.76562 15.2061Z" fill="#E9E8E8"/>
<path d="M38.457 33.7368C39.5608 33.7368 40.457 34.633 40.457 35.7368C40.457 36.8406 39.5608 37.7368 38.457 37.7368C37.3532 37.7368 36.457 36.8406 36.457 35.7368C36.457 34.633 37.3532 33.7368 38.457 33.7368Z" fill="#E9E8E8"/>
<path d="M7.31641 34.6826C7.86831 34.6826 8.31641 35.1307 8.31641 35.6826C8.31641 36.2345 7.86831 36.6826 7.31641 36.6826C6.76451 36.6826 6.31641 36.2345 6.31641 35.6826C6.31641 35.1307 6.76451 34.6826 7.31641 34.6826Z" fill="#E9E8E8"/>
<g opacity="0.647931">
<path d="M33.7148 1.96191C34.2667 1.96191 34.7148 2.41001 34.7148 2.96191C34.7148 3.51381 34.2667 3.96191 33.7148 3.96191C33.1629 3.96191 32.7148 3.51381 32.7148 2.96191C32.7148 2.41001 33.1629 1.96191 33.7148 1.96191Z" fill="#E9E8E8"/>
</g>
<path d="M26.7773 24.584C27.3292 24.584 27.7773 25.0321 27.7773 25.584C27.7773 26.1359 27.3292 26.584 26.7773 26.584C26.2254 26.584 25.7773 26.1359 25.7773 25.584C25.7773 25.0321 26.2254 24.584 26.7773 24.584Z" fill="#E9E8E8"/>
<path d="M22.7656 45.7334C23.5935 45.7334 24.2656 46.4055 24.2656 47.2334C24.2656 48.0612 23.5935 48.7334 22.7656 48.7334C21.9378 48.7334 21.2656 48.0612 21.2656 47.2334C21.2656 46.4055 21.9378 45.7334 22.7656 45.7334Z" fill="#E9E8E8"/>
<path d="M24.582 11.165C25.1339 11.165 25.582 11.6131 25.582 12.165C25.582 12.7169 25.1339 13.165 24.582 13.165C24.0301 13.165 23.582 12.7169 23.582 12.165C23.582 11.6131 24.0301 11.165 24.582 11.165Z" fill="#E9E8E8"/>
<path d="M12.0273 4.46777C12.5792 4.46777 13.0273 4.91587 13.0273 5.46777C13.0273 6.01967 12.5792 6.46777 12.0273 6.46777C11.4754 6.46777 11.0273 6.01967 11.0273 5.46777C11.0273 4.91587 11.4754 4.46777 12.0273 4.46777Z" fill="#E9E8E8"/>
<g opacity="0.895908">
<path d="M35.6758 49.9165C36.5036 49.9165 37.1758 50.5887 37.1758 51.4165C37.1758 52.2444 36.5036 52.9165 35.6758 52.9165C34.8479 52.9165 34.1758 52.2444 34.1758 51.4165C34.1758 50.5887 34.8479 49.9165 35.6758 49.9165Z" fill="#E9E8E8"/>
</g>
<path d="M40.375 14.2837C40.9269 14.2837 41.375 14.7318 41.375 15.2837C41.375 15.8356 40.9269 16.2837 40.375 16.2837C39.8231 16.2837 39.375 15.8356 39.375 15.2837C39.375 14.7318 39.8231 14.2837 40.375 14.2837Z" fill="#E9E8E8"/>
<path d="M12.5391 45.8633C13.091 45.8633 13.5391 46.3114 13.5391 46.8633C13.5391 47.4152 13.091 47.8633 12.5391 47.8633C11.9872 47.8633 11.5391 47.4152 11.5391 46.8633C11.5391 46.3114 11.9872 45.8633 12.5391 45.8633Z" fill="#E9E8E8"/>
</g>
</g>
</g>
<defs>
<clipPath id="clip0_3698_2215">
<rect width="48" height="56" fill="white" transform="translate(0 0.566895)"/>
</clipPath>
</defs>
</svg>
