<svg width="199" height="152" viewBox="0 0 199 152" fill="none" xmlns="http://www.w3.org/2000/svg">
<g filter="url(#filter0_d_1677_17294)">
<mask id="path-1-inside-1_1677_17294" fill="white">
<path fill-rule="evenodd" clip-rule="evenodd" d="M139.496 118.667C158.952 118.667 174.725 102.947 174.725 83.5556C174.725 64.1642 158.952 48.4445 139.496 48.4445C120.04 48.4445 104.268 64.1642 104.268 83.5556C104.268 96.3235 111.106 107.5 121.331 113.645C120.637 117.809 118.25 121.977 116.754 124C121.784 122.568 125.219 119.319 127.248 116.487C131.063 117.896 135.189 118.667 139.496 118.667Z"/>
</mask>
<path fill-rule="evenodd" clip-rule="evenodd" d="M139.496 118.667C158.952 118.667 174.725 102.947 174.725 83.5556C174.725 64.1642 158.952 48.4445 139.496 48.4445C120.04 48.4445 104.268 64.1642 104.268 83.5556C104.268 96.3235 111.106 107.5 121.331 113.645C120.637 117.809 118.25 121.977 116.754 124C121.784 122.568 125.219 119.319 127.248 116.487C131.063 117.896 135.189 118.667 139.496 118.667Z" fill="url(#paint0_linear_1677_17294)"/>
<path d="M121.331 113.645L123.303 113.974L123.527 112.632L122.361 111.931L121.331 113.645ZM116.754 124L115.146 122.811L111.656 127.531L117.302 125.924L116.754 124ZM127.248 116.487L127.942 114.611L126.511 114.082L125.623 115.322L127.248 116.487ZM172.725 83.5556C172.725 101.836 157.854 116.667 139.496 116.667V120.667C160.051 120.667 176.725 104.058 176.725 83.5556H172.725ZM139.496 50.4445C157.854 50.4445 172.725 65.2751 172.725 83.5556H176.725C176.725 63.0534 160.051 46.4445 139.496 46.4445V50.4445ZM106.268 83.5556C106.268 65.2751 121.138 50.4445 139.496 50.4445V46.4445C118.942 46.4445 102.268 63.0534 102.268 83.5556H106.268ZM122.361 111.931C112.711 106.131 106.268 95.5907 106.268 83.5556H102.268C102.268 97.0564 109.501 108.869 120.3 115.359L122.361 111.931ZM119.358 113.316C118.735 117.056 116.537 120.93 115.146 122.811L118.362 125.189C119.963 123.023 122.539 118.563 123.303 113.974L119.358 113.316ZM117.302 125.924C122.88 124.335 126.659 120.742 128.874 117.651L125.623 115.322C123.778 117.895 120.688 120.8 116.206 122.076L117.302 125.924ZM139.496 116.667C135.429 116.667 131.538 115.94 127.942 114.611L126.555 118.363C130.588 119.853 134.949 120.667 139.496 120.667V116.667Z" fill="#FFFDFB" mask="url(#path-1-inside-1_1677_17294)"/>
<mask id="path-3-inside-2_1677_17294" fill="white">
<path fill-rule="evenodd" clip-rule="evenodd" d="M75.0554 86.4879C86.5631 80.7106 94.4571 68.8296 94.4571 55.1111C94.4571 35.7198 78.6847 20 59.2285 20C39.7724 20 24 35.7198 24 55.1111C24 74.5024 39.7724 90.2222 59.2285 90.2222C62.0258 90.2222 64.747 89.8973 67.3561 89.2832L67.2555 89.3333C68.296 92.1481 72.2499 98.3111 79.7415 100.444C77.8078 97.8288 74.3851 91.6313 75.0554 86.4879Z"/>
</mask>
<path fill-rule="evenodd" clip-rule="evenodd" d="M75.0554 86.4879C86.5631 80.7106 94.4571 68.8296 94.4571 55.1111C94.4571 35.7198 78.6847 20 59.2285 20C39.7724 20 24 35.7198 24 55.1111C24 74.5024 39.7724 90.2222 59.2285 90.2222C62.0258 90.2222 64.747 89.8973 67.3561 89.2832L67.2555 89.3333C68.296 92.1481 72.2499 98.3111 79.7415 100.444C77.8078 97.8288 74.3851 91.6313 75.0554 86.4879Z" fill="url(#paint1_linear_1677_17294)"/>
<path d="M75.0554 86.4879L74.1581 84.7005L73.2094 85.1768L73.0722 86.2294L75.0554 86.4879ZM67.3561 89.2832L68.2481 91.0732L66.8979 87.3364L67.3561 89.2832ZM67.2555 89.3333L66.3634 87.5433L64.7574 88.3436L65.3795 90.0268L67.2555 89.3333ZM79.7415 100.444L79.1938 102.368L84.8394 103.976L81.3498 99.2555L79.7415 100.444ZM92.4571 55.1111C92.4571 68.0417 85.0184 79.2481 74.1581 84.7005L75.9528 88.2753C88.1078 82.173 96.4571 69.6175 96.4571 55.1111H92.4571ZM59.2285 22C77.5865 22 92.4571 36.8306 92.4571 55.1111H96.4571C96.4571 34.6089 79.783 18 59.2285 18V22ZM26 55.1111C26 36.8306 40.8706 22 59.2285 22V18C38.6741 18 22 34.6089 22 55.1111H26ZM59.2285 88.2222C40.8706 88.2222 26 73.3916 26 55.1111H22C22 75.6133 38.6741 92.2222 59.2285 92.2222V88.2222ZM66.8979 87.3364C64.4379 87.9154 61.8705 88.2222 59.2285 88.2222V92.2222C62.1812 92.2222 65.0561 91.8792 67.8143 91.23L66.8979 87.3364ZM68.1475 91.1234L68.2481 91.0732L66.464 87.4931L66.3634 87.5433L68.1475 91.1234ZM80.2893 98.5209C73.5812 96.6107 70.0201 91.0441 69.1314 88.6399L65.3795 90.0268C66.5718 93.2522 70.9186 100.012 79.1938 102.368L80.2893 98.5209ZM73.0722 86.2294C72.6732 89.2912 73.4963 92.5007 74.5665 95.1606C75.6486 97.8502 77.0743 100.201 78.1333 101.633L81.3498 99.2555C80.475 98.0723 79.2225 96.0164 78.2774 93.6675C77.3204 91.2889 76.7674 88.8279 77.0387 86.7464L73.0722 86.2294Z" fill="#FFFDFB" mask="url(#path-3-inside-2_1677_17294)"/>
<mask id="mask0_1677_17294" style="mask-type:alpha" maskUnits="userSpaceOnUse" x="64" y="48" width="71" height="46">
<path fill-rule="evenodd" clip-rule="evenodd" d="M67.5114 56.6318C68.4814 56.8028 69.5808 55.178 69.9669 53.0026C70.3531 50.8273 69.8797 48.9251 68.9096 48.7541C67.9395 48.5831 66.8401 50.2079 66.454 52.3833C66.0679 54.5586 66.5413 56.4608 67.5114 56.6318ZM116.619 75.7536C117.564 76.0317 118.838 74.5395 119.466 72.4208C120.094 70.3021 119.837 68.3591 118.892 68.0811C117.947 67.8031 116.672 69.2952 116.045 71.4139C115.417 73.5327 115.674 75.4756 116.619 75.7536ZM84.897 55.635C84.5109 57.8104 83.4115 59.4352 82.4415 59.2642C81.4714 59.0931 80.998 57.191 81.3841 55.0156C81.7703 52.8403 82.8697 51.2154 83.8397 51.3865C84.8098 51.5575 85.2832 53.4596 84.897 55.635ZM131.161 80.0327C132.105 80.3107 133.38 78.8186 134.008 76.6999C134.635 74.5811 134.378 72.6382 133.433 72.3602C132.489 72.0821 131.214 73.5743 130.586 75.693C129.959 77.8117 130.216 79.7547 131.161 80.0327ZM66.5017 62.3211C67.2293 62.4494 67.7147 63.1412 67.586 63.8663C67.0414 66.9347 69.2521 70.0276 72.7237 70.6397C76.1953 71.2518 79.3366 69.1025 79.8812 66.0341C80.0099 65.309 80.704 64.8252 81.4315 64.9535C82.1591 65.0817 82.6446 65.7736 82.5158 66.4987C81.6876 71.165 77.0316 74.1073 72.2577 73.2656C67.4837 72.4239 64.1231 68.0681 64.9513 63.4018C65.08 62.6767 65.7742 62.1929 66.5017 62.3211ZM115.882 82.9512C116.091 82.2449 115.686 81.5034 114.978 81.2949C114.269 81.0863 113.525 81.4898 113.316 82.196C111.969 86.7408 114.82 91.4437 119.47 92.812C124.12 94.1802 129.076 91.7751 130.423 87.2303C130.632 86.5241 130.227 85.7825 129.519 85.574C128.81 85.3654 128.066 85.7689 127.857 86.4752C126.971 89.4636 123.609 91.2495 120.228 90.2545C116.847 89.2594 114.997 85.9396 115.882 82.9512Z" fill="#ABABAB"/>
</mask>
<g mask="url(#mask0_1677_17294)">
<g filter="url(#filter1_f_1677_17294)">
<path d="M-29.1444 29.6039C-30.3529 38.79 -31.4538 48.0108 -32.716 57.1796C-33.8687 65.9212 -28.0802 69.2854 -8.7446 75.2701C35.749 88.9957 80.1904 103.583 124.662 117.927C132.353 120.399 138.916 119.826 139.314 116.647C142.151 94.0384 144.99 71.4077 147.934 48.8338L-29.1444 29.6039Z" fill="#FFB9F8"/>
</g>
<g filter="url(#filter2_f_1677_17294)">
<path d="M-50.7891 151.508C-47.8854 153.396 -44.8844 155.252 -42.0295 157.157C-39.2685 158.955 -33.3979 157.471 -15.9818 151.678C24.0758 138.341 64.453 125.159 104.752 111.927C111.718 109.637 116.541 107.256 115.521 106.609C108.269 102.009 101.009 97.4056 93.8541 92.7741L-50.7891 151.508Z" fill="#FFB9F8"/>
</g>
<path d="M-13.103 205.819C-14.7379 219.402 -16.3879 232.979 -18.0319 246.572C-12.3043 236.696 -7.18901 225.508 -2.62022 214.218C1.47805 204.077 5.42812 193.472 10.9895 185.612C15.6864 178.968 21.1696 174.731 26.9717 171.498C33.3606 160.909 40.9596 153.062 49.8525 148.238C56.5027 144.635 57.6589 149.177 64.2923 149.73C59.3196 158.519 71.5144 156.205 76.7793 147.685C78.9356 144.195 77.1282 144.798 79.6094 142.004C81.3495 140.06 81.2394 135.44 83.1916 134.278C92.1155 129.005 97.287 105.888 106.478 102.238C97.1312 93.3696 84.3635 113.835 73.9176 111.677C61.7092 131.667 52.7641 135.229 36.9511 145.099C35.648 145.909 34.3345 146.676 33.0149 147.427L-11.2465 194.171C-12.005 198.015 -12.6269 201.901 -13.103 205.819Z" fill="#71BBFF"/>
<g filter="url(#filter4_f_1677_17294)">
<path d="M58.4047 52.7173C44.2725 61.2942 30.1331 69.8599 15.9837 78.4394C29.7684 74.5544 44.3227 69.442 58.5519 63.9752C71.3272 59.0629 84.4285 53.7512 96.1753 51.1784C106.101 49.0022 114.354 48.9031 121.902 49.6661C136.873 45.6292 150.183 44.1212 161.628 45.3816C170.183 46.3267 166.773 50.0776 171.378 53.8975C159.206 57.4196 170.825 62.1322 182.968 58.9478C187.942 57.6436 185.973 57.1257 190.539 56.4725C193.726 56.0252 198.018 52.7627 200.628 52.9679C212.523 53.9323 238.422 40.5727 248.985 42.802C250.162 31.8062 213.141 43.2373 207.111 36.328C178.734 43.8729 176.204 37.8639 154.629 36.5196C152.854 36.4066 151.112 36.2578 149.38 36.0953L70.8765 45.5968C66.6482 47.871 62.4852 50.2453 58.4047 52.7173Z" fill="#71BBFF"/>
</g>
<g filter="url(#filter5_f_1677_17294)">
<path d="M124.718 65.9369C124.207 66.5473 123.612 66.6718 122.831 67.3204C121.174 67.478 122.128 68.6948 123.421 68.9985C125.241 69.4261 125.396 68.5959 126.483 68.1294C128.388 67.3113 129.496 66.6219 131.817 66.0616C133.523 65.6498 137.968 66.0927 139.862 66.395C142.684 66.8452 144.168 64.2263 145.512 63.2183C147.449 61.7657 148.2 60.1497 151.13 59.2547C154.034 58.3678 157.442 58.2743 160.643 57.9265C164.184 57.5417 166.809 57.2234 169.22 55.4156C171.266 53.8813 169.105 52.1089 168.102 50.7052C167.114 49.3227 163.156 48.7509 161.073 48.3389C158.378 47.8058 156.523 48.1468 153.932 48.4879C151.047 48.8677 149.153 50.9214 146.374 51.2872C144.167 51.5778 139.828 51.32 138.507 52.6806C135.901 55.3652 134.897 58.0373 129.659 59.3018C127.661 59.784 126.825 62.2936 126.319 63.5209C125.922 64.4841 125.415 65.104 124.718 65.9369Z" fill="#71BBFF"/>
</g>
<g filter="url(#filter6_f_1677_17294)">
<path d="M109.482 52.7467C121.115 50.7374 139.806 46.0636 148.193 39.2499C143.299 33.6133 135.203 46.266 130.309 40.6294L112.424 45.0088C107.721 48.649 105.224 47.8427 109.482 52.7467Z" fill="#0A9F68"/>
</g>
<g filter="url(#filter7_f_1677_17294)">
<path d="M-17.1119 111.965C-17.5772 112.625 -17.4645 113.342 -17.9449 114.035C-18.4254 114.728 -19.8044 116.55 -19.6251 116.941C-19.366 117.507 -19.728 118.567 -18.3492 118.77C-17.0166 118.966 -15.1491 118.392 -13.7559 118.063C-8.6424 116.854 -3.71836 114.959 1.21976 113.44C3.717 112.671 6.38393 112.305 8.95221 111.605C10.2037 111.264 10.7654 110.769 12.1812 110.59C13.5407 110.418 14.8022 110.012 16.0932 109.66C19.2171 108.809 22.1816 108.678 25.4381 108.339C29.033 107.965 33.6982 106.398 36.9648 105.275C47.4038 101.685 53.7402 95.6988 61.8332 90.6119C64.9726 88.6386 67.4596 86.377 70.8907 84.5478C74.5048 82.621 78.6586 81.4646 82.9347 80.2999C90.2271 78.3135 98.3154 76.2716 104.904 73.3787C107.957 72.038 110.587 70.5713 112.235 68.5102C114.012 66.2886 111.609 62.8296 108.707 61.6427C107.096 60.9837 103.352 61.0876 101.294 61.1532C99.111 61.2228 96.9339 61.4454 94.7567 61.6946C86.6281 62.6252 78.6591 65.3107 71.938 68.4694C63.5005 72.4348 54.6221 73.1744 45.1952 75.3609C40.6726 76.4099 36.3682 77.8158 32.0924 79.1869C29.2583 80.0958 27.2642 82.2787 25.1766 83.6702C19.3105 87.58 16.1898 92.3674 9.16932 95.6474C5.90995 97.1701 2.45381 98.646 -1.24524 99.6932C-3.25718 100.263 -6.28672 101.069 -7.80006 102.159C-10.6132 104.184 -14.2687 106.444 -15.3471 108.975C-15.7403 109.898 -16.4906 111.082 -17.1119 111.965Z" fill="#FFE665"/>
</g>
<g filter="url(#filter8_f_1677_17294)">
<path d="M96.9645 107.289C96.9155 107.796 97.2055 108.324 97.1582 108.855C97.111 109.387 96.9222 110.787 97.146 111.071C97.4693 111.482 97.6045 112.282 98.4352 112.384C99.2381 112.482 100.094 111.99 100.764 111.697C103.223 110.619 105.359 109.038 107.622 107.736C108.767 107.077 110.133 106.711 111.339 106.101C111.926 105.804 112.081 105.416 112.811 105.234C113.513 105.058 114.085 104.712 114.691 104.405C116.158 103.663 117.764 103.461 119.467 103.094C121.346 102.69 123.442 101.362 124.902 100.413C129.566 97.3793 131.19 92.7125 134.075 88.6508C135.194 87.0752 135.859 85.3088 137.186 83.8298C138.584 82.272 140.526 81.2669 142.534 80.2513C145.957 78.5193 149.806 76.718 152.55 74.3379C153.822 73.235 154.819 72.0534 155.081 70.4653C155.365 68.7536 152.932 66.2711 150.942 65.4926C149.837 65.0604 147.789 65.2697 146.666 65.3912C145.475 65.52 144.335 65.762 143.204 66.0239C138.981 67.0019 135.403 69.2767 132.669 71.8586C129.236 75.1 124.536 75.9627 119.989 77.9186C117.808 78.857 115.861 80.0526 113.919 81.2213C112.632 81.996 112.216 83.6868 111.497 84.7933C109.476 87.9027 109.26 91.5664 106.398 94.2489C105.069 95.4943 103.616 96.7119 101.892 97.6198C100.954 98.1137 99.5262 98.8193 99.0306 99.6815C98.1092 101.284 96.794 103.09 96.9974 105.007C97.0716 105.707 97.0301 106.612 96.9645 107.289Z" fill="#FFE665"/>
</g>
<g filter="url(#filter9_f_1677_17294)">
<path d="M103.4 119.636C103.693 124.664 103.98 129.693 104.27 134.726C105.89 130.405 107.17 125.711 108.222 121.061C109.165 116.886 110.016 112.568 111.71 108.982C113.14 105.952 115.057 103.654 117.173 101.665C119.009 96.9956 121.974 97.2257 125.226 94.2222C127.659 91.9775 128.306 93.0696 131.023 92.2926C129.632 96.1199 134.086 89.7477 135.614 85.9723C136.24 84.426 135.552 84.9034 136.358 83.5548C136.924 82.6145 136.555 81.0018 137.262 80.3062C140.496 77.1396 140.961 68.232 144.416 65.5987C140.019 63.8412 138.961 69.8974 134.591 70.6667C131.064 79.503 125.042 85.099 119.349 90.8954C118.88 91.3719 118.403 91.8345 117.923 92.2926L103.332 115.257C103.295 116.723 103.317 118.185 103.4 119.636Z" fill="#71BBFF"/>
</g>
<g filter="url(#filter10_f_1677_17294)">
<ellipse cx="132.145" cy="76.5217" rx="6.4058" ry="5.27536" fill="#71BBFF"/>
</g>
</g>
</g>
<defs>
<filter id="filter0_d_1677_17294" x="0" y="0" width="198.725" height="152" filterUnits="userSpaceOnUse" color-interpolation-filters="sRGB">
<feFlood flood-opacity="0" result="BackgroundImageFix"/>
<feColorMatrix in="SourceAlpha" type="matrix" values="0 0 0 0 0 0 0 0 0 0 0 0 0 0 0 0 0 0 127 0" result="hardAlpha"/>
<feOffset dy="4"/>
<feGaussianBlur stdDeviation="12"/>
<feComposite in2="hardAlpha" operator="out"/>
<feColorMatrix type="matrix" values="0 0 0 0 0.9375 0 0 0 0 0.9375 0 0 0 0 0.9375 0 0 0 1 0"/>
<feBlend mode="normal" in2="BackgroundImageFix" result="effect1_dropShadow_1677_17294"/>
<feBlend mode="normal" in="SourceGraphic" in2="effect1_dropShadow_1677_17294" result="shape"/>
</filter>
<filter id="filter1_f_1677_17294" x="-36.856" y="25.6039" width="188.79" height="97.8588" filterUnits="userSpaceOnUse" color-interpolation-filters="sRGB">
<feFlood flood-opacity="0" result="BackgroundImageFix"/>
<feBlend mode="normal" in="SourceGraphic" in2="BackgroundImageFix" result="shape"/>
<feGaussianBlur stdDeviation="2" result="effect1_foregroundBlur_1677_17294"/>
</filter>
<filter id="filter2_f_1677_17294" x="-54.7891" y="88.7741" width="174.446" height="73.1016" filterUnits="userSpaceOnUse" color-interpolation-filters="sRGB">
<feFlood flood-opacity="0" result="BackgroundImageFix"/>
<feBlend mode="normal" in="SourceGraphic" in2="BackgroundImageFix" result="shape"/>
<feGaussianBlur stdDeviation="2" result="effect1_foregroundBlur_1677_17294"/>
</filter>
<filter id="filter4_f_1677_17294" x="11.9839" y="32.0953" width="241.029" height="50.3441" filterUnits="userSpaceOnUse" color-interpolation-filters="sRGB">
<feFlood flood-opacity="0" result="BackgroundImageFix"/>
<feBlend mode="normal" in="SourceGraphic" in2="BackgroundImageFix" result="shape"/>
<feGaussianBlur stdDeviation="2" result="effect1_foregroundBlur_1677_17294"/>
</filter>
<filter id="filter5_f_1677_17294" x="117.949" y="44.0618" width="56.1221" height="29.0553" filterUnits="userSpaceOnUse" color-interpolation-filters="sRGB">
<feFlood flood-opacity="0" result="BackgroundImageFix"/>
<feBlend mode="normal" in="SourceGraphic" in2="BackgroundImageFix" result="shape"/>
<feGaussianBlur stdDeviation="2" result="effect1_foregroundBlur_1677_17294"/>
</filter>
<filter id="filter6_f_1677_17294" x="103.297" y="33.7669" width="48.895" height="22.9798" filterUnits="userSpaceOnUse" color-interpolation-filters="sRGB">
<feFlood flood-opacity="0" result="BackgroundImageFix"/>
<feBlend mode="normal" in="SourceGraphic" in2="BackgroundImageFix" result="shape"/>
<feGaussianBlur stdDeviation="2" result="effect1_foregroundBlur_1677_17294"/>
</filter>
<filter id="filter7_f_1677_17294" x="-23.6411" y="57.1045" width="140.484" height="65.7053" filterUnits="userSpaceOnUse" color-interpolation-filters="sRGB">
<feFlood flood-opacity="0" result="BackgroundImageFix"/>
<feBlend mode="normal" in="SourceGraphic" in2="BackgroundImageFix" result="shape"/>
<feGaussianBlur stdDeviation="2" result="effect1_foregroundBlur_1677_17294"/>
</filter>
<filter id="filter8_f_1677_17294" x="92.959" y="61.2324" width="66.145" height="55.1642" filterUnits="userSpaceOnUse" color-interpolation-filters="sRGB">
<feFlood flood-opacity="0" result="BackgroundImageFix"/>
<feBlend mode="normal" in="SourceGraphic" in2="BackgroundImageFix" result="shape"/>
<feGaussianBlur stdDeviation="2" result="effect1_foregroundBlur_1677_17294"/>
</filter>
<filter id="filter9_f_1677_17294" x="100.314" y="62.2803" width="47.1021" height="75.4458" filterUnits="userSpaceOnUse" color-interpolation-filters="sRGB">
<feFlood flood-opacity="0" result="BackgroundImageFix"/>
<feBlend mode="normal" in="SourceGraphic" in2="BackgroundImageFix" result="shape"/>
<feGaussianBlur stdDeviation="1.5" result="effect1_foregroundBlur_1677_17294"/>
</filter>
<filter id="filter10_f_1677_17294" x="121.739" y="67.2464" width="20.8115" height="18.5507" filterUnits="userSpaceOnUse" color-interpolation-filters="sRGB">
<feFlood flood-opacity="0" result="BackgroundImageFix"/>
<feBlend mode="normal" in="SourceGraphic" in2="BackgroundImageFix" result="shape"/>
<feGaussianBlur stdDeviation="2" result="effect1_foregroundBlur_1677_17294"/>
</filter>
<linearGradient id="paint0_linear_1677_17294" x1="126.564" y1="124" x2="166.72" y2="39.9178" gradientUnits="userSpaceOnUse">
<stop stop-color="white"/>
<stop offset="1" stop-color="#FFFDFB" stop-opacity="0.53"/>
</linearGradient>
<linearGradient id="paint1_linear_1677_17294" x1="71.3903" y1="98.1254" x2="90.7511" y2="33.9923" gradientUnits="userSpaceOnUse">
<stop stop-color="white"/>
<stop offset="1" stop-color="#FFFDFB" stop-opacity="0.78"/>
</linearGradient>
</defs>
</svg>
