<svg width="26" height="10" viewBox="0 0 26 10" fill="none" xmlns="http://www.w3.org/2000/svg">
<path d="M5.3958 9.09591C7.9518 9.09591 9.8478 7.27191 9.8478 4.79991C9.8478 2.32791 7.9518 0.503906 5.3958 0.503906C2.8158 0.503906 0.9198 2.33991 0.9198 4.79991C0.9198 7.25991 2.8158 9.09591 5.3958 9.09591ZM5.3958 8.02791C3.5118 8.02791 2.1198 6.65991 2.1198 4.79991C2.1198 2.93991 3.5118 1.57191 5.3958 1.57191C7.2558 1.57191 8.6478 2.93991 8.6478 4.79991C8.6478 6.65991 7.2558 8.02791 5.3958 8.02791Z" fill="currentColor"/>
<path d="M17.6099 1.64391V0.599906H11.6819V8.99991H12.8819V5.60391H17.0939V4.57191H12.8819V1.64391H17.6099Z" fill="currentColor"/>
<path d="M25.2271 1.64391V0.599906H19.2991V8.99991H20.4991V5.60391H24.7111V4.57191H20.4991V1.64391H25.2271Z" fill="currentColor"/>
</svg>
