<svg width="225" height="64" viewBox="0 0 225 64" fill="none" xmlns="http://www.w3.org/2000/svg">
<g opacity="0.2" filter="url(#filter0_f_5070_14362)">
<ellipse cx="135.872" cy="47.2752" rx="13.3333" ry="1.11111" fill="url(#paint0_linear_5070_14362)"/>
</g>
<g opacity="0.2" filter="url(#filter1_f_5070_14362)">
<ellipse cx="101.208" cy="45.4939" rx="13.3333" ry="1.11111" fill="url(#paint1_linear_5070_14362)"/>
</g>
<g opacity="0.2" filter="url(#filter2_f_5070_14362)">
<ellipse cx="66.0981" cy="48.1658" rx="13.7778" ry="1.11111" fill="url(#paint2_linear_5070_14362)"/>
</g>
<g opacity="0.2" filter="url(#filter3_f_5070_14362)">
<ellipse cx="31.8724" cy="46.3845" rx="13.3333" ry="1.11111" fill="url(#paint3_linear_5070_14362)"/>
</g>
<mask id="mask0_5070_14362" style="mask-type:alpha" maskUnits="userSpaceOnUse" x="20" y="16" width="135" height="33">
<path d="M138.252 19.0563C138.594 18.2131 139.8 18.2131 140.142 19.0563L143.613 27.6093C143.759 27.9684 144.099 28.2133 144.489 28.2394L153.781 28.863C154.697 28.9244 155.07 30.0597 154.365 30.6423L147.218 36.5519C146.918 36.8 146.788 37.1962 146.884 37.5715L149.156 46.5099C149.38 47.3911 148.404 48.0928 147.626 47.6096L139.739 42.7089C139.408 42.5031 138.987 42.5031 138.656 42.7089L130.768 47.6096C129.991 48.0928 129.015 47.3911 129.239 46.5099L131.511 37.5715C131.606 37.1962 131.476 36.8 131.176 36.5519L124.03 30.6423C123.325 30.0597 123.698 28.9244 124.614 28.863L133.905 28.2394C134.295 28.2133 134.636 27.9684 134.782 27.6093L138.252 19.0563Z" fill="#D9D9D9"/>
<path d="M103.73 17.4645C104.073 16.6212 105.279 16.6212 105.621 17.4645L109.091 26.0175C109.237 26.3766 109.578 26.6214 109.968 26.6476L119.259 27.2711C120.175 27.3326 120.548 28.4679 119.843 29.0505L112.697 34.9601C112.397 35.2082 112.267 35.6044 112.362 35.9797L114.634 44.9181C114.858 45.7993 113.882 46.5009 113.105 46.0178L105.217 41.1171C104.886 40.9113 104.465 40.9113 104.134 41.1171L96.2467 46.0178C95.4691 46.5009 94.4933 45.7993 94.7173 44.9181L96.9894 35.9797C97.0847 35.6044 96.9547 35.2082 96.6546 34.9601L89.5079 29.0505C88.8033 28.4679 89.176 27.3326 90.0921 27.2711L99.3837 26.6476C99.7738 26.6214 100.114 26.3766 100.26 26.0175L103.73 17.4645Z" fill="#D9D9D9"/>
<path d="M71.0992 19.8522C70.7571 19.009 69.5509 19.009 69.2088 19.8522L65.7383 28.4052C65.5926 28.7643 65.2521 29.0092 64.862 29.0354L55.5705 29.6589C54.6544 29.7204 54.2817 30.8556 54.9863 31.4383L62.133 37.3479C62.4331 37.596 62.5631 37.9921 62.4677 38.3674L60.1957 47.3058C59.9717 48.187 60.9475 48.8887 61.7251 48.4055L69.6124 43.5048C69.9436 43.2991 70.3645 43.2991 70.6956 43.5048L78.583 48.4055C79.3606 48.8887 80.3363 48.187 80.1124 47.3058L77.8403 38.3674C77.7449 37.9921 77.875 37.596 78.175 37.3479L85.3217 31.4383C86.0263 30.8556 85.6536 29.7204 84.7375 29.6589L75.446 29.0354C75.0559 29.0092 74.7154 28.7643 74.5697 28.4052L71.0992 19.8522Z" fill="#D9D9D9"/>
<path d="M34.6872 18.2604C35.0293 17.4171 36.2355 17.4171 36.5776 18.2604L40.048 26.8134C40.1937 27.1725 40.5343 27.4174 40.9243 27.4435L50.2159 28.0671C51.132 28.1285 51.5047 29.2638 50.8001 29.8464L43.6534 35.756C43.3533 36.0041 43.2233 36.4003 43.3187 36.7756L45.5907 45.714C45.8147 46.5952 44.8389 47.2969 44.0613 46.8137L36.174 41.913C35.8428 41.7072 35.4219 41.7072 35.0908 41.913L27.2034 46.8137C26.4258 47.2969 25.45 46.5952 25.674 45.714L27.9461 36.7756C28.0415 36.4003 27.9114 36.0041 27.6114 35.756L20.4647 29.8464C19.7601 29.2638 20.1328 28.1285 21.0488 28.0671L30.3404 27.4435C30.7305 27.4174 31.071 27.1725 31.2167 26.8134L34.6872 18.2604Z" fill="#D9D9D9"/>
</mask>
<g mask="url(#mask0_5070_14362)">
<g filter="url(#filter4_f_5070_14362)">
<path d="M-25.3716 45.5821C-25.3759 45.5849 -25.3719 45.5903 -25.3665 45.5891C-3.0052 40.2673 22.9097 30.5897 49.3016 17.4659C57.896 13.1856 69.6758 14.4174 76.6633 20.5121C85.9769 28.6358 82.6558 41.1216 69.9965 45.1801L14.7153 62.9032C6.03759 65.6853 -4.20748 63.8036 -10.6368 58.2647C-15.5441 54.037 -20.4568 49.8134 -25.3641 45.5826C-25.3661 45.5809 -25.3695 45.5807 -25.3716 45.5821Z" fill="#FFE665"/>
</g>
<g filter="url(#filter5_f_5070_14362)">
<path d="M120.268 156.78C108.17 149.237 96.0985 141.57 83.987 134.089C72.4727 126.913 72.071 118.833 77.2002 96.7467C89.0599 45.9653 99.8238 -5.57611 110.909 -56.9155C112.836 -65.7864 117.785 -70.8516 121.959 -68.2247C151.645 -49.5425 181.36 -30.842 211.073 -12.2839L120.268 156.78Z" fill="#FFB9F8"/>
</g>
<g filter="url(#filter6_f_5070_14362)">
<path d="M-22.9262 84.9784C-23.2631 81.7955 -23.5231 78.5726 -23.8985 75.4097C-24.221 72.3815 -20.0004 69.6603 -6.19106 62.5631C25.5833 46.2489 57.3687 29.6208 89.162 13.0778C94.6598 10.22 99.2032 8.79914 99.3063 9.90545C100.039 17.7734 100.773 25.6492 101.584 33.4772L-22.9262 84.9784Z" fill="#FFB9F8"/>
</g>
<g filter="url(#filter7_f_5070_14362)">
<path d="M-54.8687 22.7873C-68.2216 14.3186 -81.5774 5.86285 -94.9446 -2.60749C-83.0326 0.643019 -70.2046 5.20485 -57.5469 10.1887C-46.1814 14.6679 -34.4578 19.5677 -24.4901 21.5127C-16.0672 23.1587 -9.48797 22.6151 -3.68285 21.1635C9.2092 24.4897 20.1538 25.1203 28.9302 22.8035C35.4899 21.0685 31.8503 17.1451 34.5589 12.5091C24.0181 9.53643 32.0759 3.34603 42.5103 5.94338C46.7837 7.00715 45.3489 7.74235 49.1368 8.11064C51.779 8.35804 55.9975 11.6653 58.0194 11.229C67.2267 9.20739 91.1122 22.0905 98.948 18.7603C102.612 30.961 77.4912 24.8006 74.4174 33.0039C50.0075 26.8185 42.3727 30.0529 25.5716 33.2668C24.19 33.5339 22.8438 33.8384 21.509 34.1574L-43.1961 29.7595C-47.1187 27.5522 -51.0143 25.2276 -54.8687 22.7873Z" fill="#71BBFF"/>
</g>
<g filter="url(#filter8_f_5070_14362)">
<path d="M146.106 59.5776C130.13 60.2166 114.16 60.8683 98.1713 61.5142C109.996 57.3456 123.328 53.7436 136.755 50.593C148.814 47.7674 161.411 45.0866 170.868 40.9504C178.862 37.4573 184.074 33.1995 188.124 28.63C200.814 23.958 210.349 18.1582 216.405 11.1478C220.928 5.9051 215.663 4.72906 215.321 -0.712556C204.803 2.89575 208.071 -6.93778 218.288 -10.7983C222.473 -12.3794 221.684 -10.9353 225.068 -12.8172C227.424 -14.1377 232.828 -13.8114 234.277 -15.3451C240.86 -22.3578 268.16 -25.3951 272.855 -32.7091C282.808 -24.6273 250.215 -14.221 252.262 -5.58582C228.3 3.35411 231.768 9.43752 219.487 21.837C218.479 22.859 217.522 23.8917 216.582 24.9302L159.828 58.6587C155.293 59.081 150.715 59.3896 146.106 59.5776Z" fill="#71BBFF"/>
</g>
<g filter="url(#filter9_f_5070_14362)">
<path d="M141.377 32.512C140.565 32.4117 140.161 32.7056 139.182 32.7512C138.232 33.7023 137.57 32.2388 137.916 31.1982C138.404 29.7328 139.247 30.2149 140.206 29.8457C141.887 29.1985 143.063 28.9716 144.707 27.8772C145.916 27.073 147.664 23.9154 148.304 22.4904C149.257 20.3676 152.398 21.252 153.983 21.0971C156.266 20.874 158.125 21.5252 160.375 20.2753C162.604 19.0368 164.345 16.9191 166.22 15.1126C168.294 13.1141 169.862 11.6554 172.704 11.3777C175.116 11.1421 175.706 13.7679 176.517 15.394C177.316 16.9954 175.924 19.9314 175.294 21.5544C174.479 23.6543 173.263 24.6032 171.69 26.0241C169.939 27.6058 167.121 27.3801 165.434 28.9039C164.094 30.1142 162.226 33.0742 160.327 32.9671C156.58 32.7558 153.622 31.5262 149.91 33.9959C148.495 34.9377 145.768 33.7152 144.388 33.1794C143.305 32.7589 142.486 32.649 141.377 32.512Z" fill="#71BBFF"/>
</g>
<g filter="url(#filter10_f_5070_14362)">
<path d="M146.172 51.5166C153.676 45.4727 167.069 36.775 177.44 36.1766C180.277 43.2603 164.648 39.5815 167.485 46.6652L154.755 55.0532C149.107 55.5153 148.641 57.6797 146.172 51.5166Z" fill="#0A9F68"/>
</g>
<g filter="url(#filter11_f_5070_14362)">
<path d="M58.2277 60.6106C57.4046 60.5307 56.8447 60.0573 55.9854 59.9687C55.126 59.8801 52.8046 59.7199 52.5627 59.3879C52.213 58.908 51.0992 58.5386 51.6678 57.5616C52.2173 56.6173 53.7216 55.7704 54.7584 55.0832C58.5641 52.5608 62.8618 50.5427 66.8421 48.3049C68.855 47.1733 70.611 45.7093 72.6026 44.4944C73.573 43.9024 74.3052 43.8292 75.2242 43.0435C76.1066 42.2889 77.1388 41.7272 78.1399 41.1166C80.5623 39.6389 82.2755 37.8566 84.3263 36.0084C86.5902 33.968 90.4637 31.9274 93.1991 30.5135C101.94 25.9951 110.542 25.3912 119.313 23.1825C122.716 22.3258 126.016 22.0394 129.451 20.919C133.069 19.7389 136.312 17.7881 139.628 15.7653C145.283 12.3159 151.415 8.39925 157.475 5.89977C160.283 4.74149 162.972 3.91938 165.646 4.04519C168.528 4.18079 170.226 7.629 169.688 10.1127C169.389 11.4918 167.279 13.7772 166.112 15.0288C164.874 16.3564 163.506 17.5944 162.116 18.8174C156.924 23.3836 150.299 26.8639 143.937 29.2971C135.951 32.3516 130.52 37.4945 123.54 42.1679C120.192 44.41 116.652 46.315 113.158 48.2215C110.842 49.4853 107.876 49.5072 105.544 50.0324C98.9937 51.5082 93.1647 50.7722 86.5367 53.3246C83.4596 54.5097 80.3168 55.8442 77.4141 57.5717C75.8354 58.5113 73.5024 59.9549 71.7425 60.2902C68.471 60.9135 64.542 61.9325 61.7684 61.1853C60.757 60.9129 59.3269 60.7174 58.2277 60.6106Z" fill="#FFE665"/>
</g>
<g filter="url(#filter12_f_5070_14362)">
<path d="M103.494 33.2503C102.682 33.15 102.278 33.4439 101.299 33.4894C100.349 34.4406 99.6871 32.977 100.034 31.9365C100.521 30.4711 101.365 30.9532 102.323 30.584C104.004 29.9368 105.18 29.7099 106.825 28.6155C108.033 27.8113 109.781 24.6537 110.421 23.2287C111.374 21.1058 114.516 21.9902 116.1 21.8354C118.383 21.6123 120.242 22.2634 122.492 21.0136C124.721 19.7751 126.462 17.6573 128.337 15.8509C130.411 13.8524 131.98 12.3937 134.821 12.116C137.233 11.8803 137.823 14.5062 138.634 16.1323C139.433 17.7337 138.041 20.6696 137.411 22.2927C136.596 24.3925 135.381 25.3415 133.808 26.7624C132.056 28.3441 129.238 28.1184 127.551 29.6421C126.211 30.8525 124.344 33.8125 122.444 33.7054C118.697 33.494 115.739 32.2645 112.028 34.7342C110.612 35.676 107.886 34.4535 106.505 33.9177C105.422 33.4972 104.603 33.3873 103.494 33.2503Z" fill="#0A9F68"/>
</g>
<g filter="url(#filter13_f_5070_14362)">
<path d="M92.0853 55.76C91.247 55.6458 90.8364 55.9294 89.8298 55.9565C88.8691 56.8804 88.1605 55.42 88.4982 54.3966C88.9737 52.9553 89.8505 53.4478 90.8309 53.1001C92.5499 52.4902 93.7559 52.2872 95.4293 51.2343C96.659 50.4605 98.4008 47.3677 99.0335 45.9692C99.9759 43.8859 103.227 44.8185 104.855 44.6942C107.202 44.5152 109.128 45.1935 111.421 43.9977C113.694 42.8129 115.447 40.749 117.345 38.9956C119.444 37.0558 121.032 35.6409 123.953 35.418C126.432 35.2289 127.087 37.8382 127.952 39.4622C128.804 41.0616 127.424 43.9415 126.805 45.5361C126.004 47.5993 124.77 48.5162 123.177 49.8935C121.403 51.4267 118.497 51.1519 116.788 52.629C115.43 53.8023 113.562 56.6973 111.604 56.5566C107.742 56.279 104.674 55.0082 100.898 57.3844C99.458 58.2905 96.6285 57.0309 95.1975 56.4755C94.0744 56.0395 93.2291 55.9158 92.0853 55.76Z" fill="#71BBFF"/>
</g>
</g>
<g opacity="0.3" filter="url(#filter14_f_5070_14362)">
<ellipse cx="180.936" cy="53.3342" rx="12.8889" ry="0.888889" fill="url(#paint4_linear_5070_14362)"/>
</g>
<g opacity="0.3" filter="url(#filter15_f_5070_14362)">
<path d="M203.152 55.1094C203.152 55.6003 196.937 56.8855 189.819 56.8855C182.7 56.8855 176.93 56.4876 176.93 55.9966C176.93 55.5057 182.7 55.1078 189.819 55.1078C196.937 55.1078 203.152 54.6185 203.152 55.1094Z" fill="url(#paint5_linear_5070_14362)"/>
</g>
<path d="M189.608 51.0993C190.043 50.2159 189.268 42.4629 189.349 41.428C189.386 40.9665 189.587 40.4376 189.712 39.988C189.72 39.9582 189.732 39.9304 189.745 39.9036C189.773 39.7342 189.806 39.5796 189.847 39.4317C190.282 37.8566 193.004 32.7142 193.864 28.979C194.003 29.0308 194.173 29.0785 194.383 29.1026C194.502 29.1171 194.635 29.1244 194.782 29.1209C195.267 29.1087 195.706 29.2651 196.072 29.5269C196.15 29.581 196.223 29.6407 196.294 29.7044C196.519 29.9092 196.71 30.155 196.856 30.4224C196.932 30.5611 196.996 30.7054 197.047 30.8528C197.384 31.8249 197.23 34.6648 197.21 34.7317C196.873 35.8757 192.841 41.3182 192.791 41.4027C192.838 43.2562 192.955 45.3415 192.569 47.0831C192.346 48.0889 192.008 49.0787 191.927 50.1095C191.888 50.6131 191.984 51.1301 192.07 51.631C192.143 52.0555 192.726 53.2535 191.796 53.3704C191.07 53.4618 190.866 53.2952 190.11 53.4144C189.646 53.558 189.25 53.76 188.96 53.779C188.182 53.8311 185.848 53.6685 185.929 52.6039C185.972 52.0515 189.273 51.7796 189.607 51.0992L189.608 51.0993Z" fill="#3C3C41"/>
<path d="M195.702 32.6329C195.732 32.1951 195.399 32.3815 195.432 31.9444C195.21 31.6194 195.528 31.5955 195.702 30.9706C195.789 30.6602 195.928 30.4978 196.099 30.4039C196.175 29.5488 196.258 28.6933 196.358 27.8404C196.369 27.7479 196.38 27.6554 196.391 27.5628C196.398 27.5093 196.484 27.5282 196.477 27.5817C196.373 28.4306 196.287 29.282 196.21 30.133C196.203 30.2093 196.198 30.2847 196.191 30.361C196.461 30.2517 196.795 30.2627 197.134 30.1393C197.333 30.0679 197.533 29.9491 197.722 29.732C198.47 28.8709 199.578 28.1362 200.8 28.3434C201.118 28.3974 200.491 28.6427 200.746 28.822C200.927 28.9489 201.155 29.1707 201.279 29.355C201.588 29.8129 202.047 31.5758 201.889 32.5402L201.89 32.5419C201.859 32.7298 201.827 32.9204 201.793 33.1161C201.752 33.3517 201.709 33.5943 201.664 33.8462C201.495 34.7934 201.303 35.8724 201.127 37.2184C201.049 37.8069 200.193 41.3522 200.065 42.7449C200.494 44.7076 201.265 45.2416 202.139 47.6594C202.355 48.2557 202.657 51.1645 204.047 53.5699C204.147 53.7418 204.921 54.9021 204.393 55.1379C204.017 55.306 203.372 55.3546 202.85 55.5386C202.328 55.7226 201.51 56.2289 200.868 56.3264C199.431 56.5458 198.404 56.4184 198.073 56.3042C198.061 56.3005 198.05 56.296 198.039 56.2923C197.847 56.2241 197.715 56.0545 197.702 55.8584C197.659 55.1808 201.096 54.28 201.175 53.1858C201.233 52.393 196.275 44.2906 196.079 43.6917C195.909 43.1727 195.78 34.5986 195.852 33.5461L195.702 32.6329Z" fill="#2C2A26"/>
<path d="M193.078 26.5703C192.893 25.2253 192.981 23.8259 192.821 22.3579C192.579 20.1327 191.949 17.0712 193.078 14.9683C193.528 14.1308 194.342 13.4118 195.124 13.0381C195.276 12.9656 195.436 12.9074 195.602 12.8627C196.347 12.6603 197.198 12.7092 197.842 12.7817C197.933 12.7918 198.015 12.8062 198.089 12.8247C198.681 12.9723 198.8 13.8872 199.89 14.647C201.26 15.6016 202.039 16.6743 202.126 18.3102C202.24 20.448 200.899 25.2632 200.822 25.7413C200.419 28.2045 202.159 28.7611 201.247 33.465C201.149 33.9692 200.488 34.0612 199.986 34.0949C199.956 34.0966 199.925 34.0991 199.895 34.1008C198.974 34.159 198.053 34.1826 197.132 34.1371C196.67 34.1143 196.783 33.7829 196.32 33.7222C196.896 33.4305 195.994 35.5186 195.876 35.5C195.876 29.9311 193.532 29.8723 193.078 26.5703Z" fill="#2C2A26"/>
<path d="M198.093 8.47518C197.998 8.15348 197.887 7.81977 197.636 7.60015C197.462 7.4406 197.227 7.3578 196.994 7.28867C195.887 6.95006 194.543 6.84832 193.754 7.73475C193.336 8.2155 193.166 8.88851 193.092 9.53618C192.997 10.4778 193.087 11.4389 193.353 12.3509C193.429 12.6332 193.549 12.9242 193.778 13.0771C193.976 13.2059 194.244 13.2153 194.453 13.3152C195.006 13.5956 195.06 14.3804 195.125 15.0251C195.145 15.1893 195.165 15.3535 195.265 15.4803C195.366 15.6208 195.542 15.6829 195.715 15.7177C196.927 16.0019 199.307 15.3958 198.786 13.7786C198.54 13.0308 198.164 12.8261 198.181 11.9355C198.186 10.7132 198.412 9.70022 198.08 8.47684L198.093 8.47518Z" fill="#3C3C41"/>
<path d="M198.633 7.81556C198.425 7.66331 198.152 7.37278 197.134 7.09538C196.81 7.08008 196.572 7.12729 196.31 7.25243C196.156 7.32627 196.103 7.51436 196.063 7.64282C195.996 7.85488 195.872 8.03976 195.919 8.27008C195.955 8.44686 196.021 8.65427 196.019 8.83153C196.017 9.08828 196.234 9.35251 196.285 9.60696C196.368 10.018 196.594 10.5717 196.791 10.9556C196.86 11.09 196.869 11.3787 196.867 11.5185C196.864 11.809 196.963 12.0712 197.022 12.3531C197.117 12.8004 197.555 13.0535 198.056 13.0771C199.157 13.129 200.524 12.907 200.536 11.8022C200.54 11.4264 200.598 11.0668 200.602 10.692C200.605 10.4529 200.594 9.99592 200.307 9.84296C200.026 9.69299 199.83 9.49197 199.551 9.34341C199.176 9.14303 199.242 8.83949 199.064 8.55494C198.906 8.30371 198.919 8.02367 198.633 7.81556Z" fill="#2C2A26"/>
<path d="M195.632 8.20522C195.647 8.65355 195.524 9.10282 195.599 9.54457C195.692 10.111 196.078 10.5892 196.391 11.0894C196.843 11.8276 197.121 12.6409 197.189 13.4772C197.224 13.853 196.839 15.5808 196.993 15.9296C197.148 16.2783 197.864 15.5972 198.278 15.6083C198.8 15.6217 199.175 14.8074 199.232 14.3232C199.288 13.8389 199.102 13.3671 199.023 12.8976C198.857 12.0157 199.011 11.1132 198.996 10.2149C198.981 9.31659 198.804 8.35159 198.122 7.72288C197.668 7.30835 196.749 6.84615 196.074 6.94783C194.901 7.10375 195.576 7.33955 195.617 8.20686L195.632 8.20522Z" fill="#2C2A26"/>
<mask id="mask1_5070_14362" style="mask-type:alpha" maskUnits="userSpaceOnUse" x="166" y="6" width="34" height="36">
<path d="M178.657 7.32658C177.947 6.59936 176.7 7.10889 176.702 8.12518L176.728 18.4337C176.729 18.8665 176.48 19.2634 176.088 19.4553L166.745 24.0251C165.824 24.4756 165.919 25.8068 166.893 26.1114L176.778 29.2019C177.193 29.3317 177.495 29.6863 177.555 30.1145L178.982 40.3152C179.123 41.3209 180.428 41.634 181.028 40.806L187.111 32.4076C187.367 32.055 187.802 31.8772 188.231 31.95L198.456 33.6846C199.464 33.8556 200.176 32.718 199.572 31.9016L193.448 23.6205C193.19 23.2729 193.157 22.8083 193.363 22.4251L198.255 13.2965C198.737 12.3965 197.872 11.3802 196.899 11.7037L187.03 14.9842C186.616 15.1219 186.16 15.0126 185.858 14.703L178.657 7.32658Z" fill="#D9D9D9"/>
</mask>
<g mask="url(#mask1_5070_14362)">
<g filter="url(#filter16_f_5070_14362)">
<path d="M133.082 175.799C119.571 167.375 106.09 158.812 92.5633 150.457C79.7039 142.443 79.2553 133.42 84.9837 108.753C98.2288 52.0396 110.25 -5.52249 122.63 -62.859C124.782 -72.7662 130.309 -78.423 134.971 -75.4892C168.125 -54.6248 201.311 -33.7397 234.495 -13.0138L133.082 175.799Z" fill="#FFB9F8"/>
</g>
<g filter="url(#filter17_f_5070_14362)">
<path d="M156.682 37.0131C155.774 36.901 155.323 37.2293 154.23 37.2802C153.169 38.3424 152.43 36.7079 152.817 35.5458C153.362 33.9092 154.303 34.4477 155.374 34.0354C157.251 33.3125 158.564 33.0591 160.401 31.8369C161.751 30.9388 163.703 27.4123 164.417 25.8208C165.481 23.45 168.99 24.4377 170.76 24.2648C173.31 24.0156 175.386 24.7428 177.898 23.347C180.388 21.9639 182.332 19.5987 184.426 17.5812C186.743 15.3493 188.494 13.7201 191.668 13.41C194.361 13.1469 195.021 16.0794 195.927 17.8955C196.819 19.684 195.264 22.9629 194.56 24.7755C193.65 27.1207 192.293 28.1805 190.536 29.7673C188.58 31.5338 185.433 31.2818 183.549 32.9835C182.052 34.3352 179.966 37.6409 177.845 37.5213C173.66 37.2853 170.357 35.9122 166.212 38.6704C164.631 39.7222 161.586 38.3569 160.044 37.7585C158.834 37.2888 157.92 37.1661 156.682 37.0131Z" fill="#71BBFF"/>
</g>
<g filter="url(#filter18_f_5070_14362)">
<path d="M63.807 68.3945C62.8878 68.3052 62.2625 67.7766 61.3027 67.6776C60.343 67.5786 57.7505 67.3997 57.4802 67.0289C57.0897 66.493 55.8458 66.0805 56.4808 64.9893C57.0945 63.9347 58.7746 62.9888 59.9325 62.2213C64.1827 59.4043 68.9824 57.1505 73.4277 54.6513C75.6757 53.3875 77.6369 51.7525 79.861 50.3957C80.9449 49.7346 81.7626 49.6528 82.7889 48.7753C83.7744 47.9326 84.9272 47.3053 86.0452 46.6233C88.7506 44.9729 90.6639 42.9825 92.9543 40.9184C95.4827 38.6397 99.8086 36.3607 102.863 34.7816C112.626 29.7355 122.232 29.061 132.028 26.5943C135.828 25.6374 139.514 25.3177 143.35 24.0664C147.391 22.7484 151.013 20.5697 154.716 18.3107C161.031 14.4583 167.88 10.0841 174.647 7.29269C177.784 5.9991 180.787 5.08096 183.773 5.22147C186.992 5.37291 188.889 9.22391 188.288 11.9978C187.954 13.5379 185.597 16.0903 184.294 17.4882C182.911 18.9708 181.384 20.3534 179.831 21.7193C174.032 26.8189 166.633 30.7058 159.529 33.4231C150.61 36.8344 144.544 42.5781 136.749 47.7975C133.009 50.3015 129.056 52.4289 125.154 54.5582C122.567 55.9696 119.254 55.994 116.651 56.5806C109.335 58.2288 102.825 57.4068 95.4229 60.2574C91.9863 61.5809 88.4764 63.0713 85.2347 65.0006C83.4715 66.0499 80.866 67.6622 78.9005 68.0366C75.2468 68.7327 70.859 69.8707 67.7613 69.0363C66.6318 68.7321 65.0346 68.5137 63.807 68.3945Z" fill="#FFE665"/>
</g>
</g>
<path d="M187.733 32.2816C187.771 32.2175 187.838 32.2107 187.907 32.2064C187.947 32.2038 188.354 32.248 188.506 32.2722C188.829 32.3224 189.282 32.2847 189.513 32.0356C189.73 31.8018 189.805 31.6727 189.896 31.5216C189.741 31.5884 189.563 31.6595 189.35 31.7382C188.638 32.0022 188.462 31.5403 189.09 31.2949C189.284 31.2196 189.772 30.8564 190.204 30.6729C190.205 30.6729 190.206 30.6712 190.208 30.6703C190.224 30.6577 190.242 30.6467 190.261 30.6382C190.312 30.612 190.368 30.5959 190.427 30.5849C190.459 30.5789 190.492 30.5755 190.526 30.5729C190.528 30.5729 190.53 30.5729 190.532 30.5721C190.538 30.5721 190.545 30.5721 190.552 30.5721C190.6 30.5661 190.645 30.5644 190.686 30.5702C190.688 30.5702 190.69 30.5702 190.692 30.5702C190.718 30.571 190.744 30.5718 190.77 30.5743C190.804 30.576 190.838 30.5784 190.871 30.5818C190.889 30.5699 190.907 30.5581 190.925 30.548C191.249 30.3654 193.792 26.6306 193.917 26.4095C194.331 25.677 195.722 23.9988 195.905 23.711C196.028 23.4047 197.564 18.8988 197.624 18.6803C197.787 18.0957 198.576 16.0835 200.246 16.6885C201.917 17.2935 201.121 19.272 200.967 19.6424C200.503 20.7545 199.963 21.8565 199.402 22.908C199.32 23.0624 199.235 23.2202 199.146 23.3771C199.03 23.5839 198.908 23.7898 198.785 23.9839C198.624 24.238 198.458 24.4735 198.291 24.6676C198.291 24.6735 198.291 24.6769 198.289 24.6803C197.403 25.9792 196.368 27.1738 195.301 28.3397C195.168 28.4849 195.035 28.6302 194.902 28.7745C194.886 28.7914 194.871 28.8083 194.855 28.8243C194.243 29.4837 193.768 29.9473 193.111 30.5831C193.047 30.6439 192.978 30.7123 192.902 30.7866C192.856 30.8331 192.795 30.8922 192.727 30.9572C192.713 30.9724 192.697 30.9868 192.681 31.002C192.406 31.2713 192.106 31.5626 191.888 31.7636C191.888 31.7645 191.887 31.7653 191.885 31.7661C191.732 32.0219 191.637 32.2244 191.531 32.41C191.417 32.6142 191.291 32.7974 191.067 33.006C190.73 33.3209 190.052 33.5444 189.657 33.34C189.354 33.3278 189.057 33.2463 188.791 33.1075C188.58 33.0707 188.375 33.0018 188.187 32.9034C188.185 32.9 188.182 32.8975 188.181 32.8967C188.17 32.8823 188.158 32.868 188.148 32.8528C188.144 32.8453 188.14 32.8385 188.135 32.8309C188.133 32.8276 188.124 32.8107 188.126 32.8149C188.108 32.7787 188.101 32.7433 188.102 32.707C188.073 32.6978 188.046 32.6885 188.019 32.6785C187.954 32.6541 187.887 32.6339 187.829 32.5961C187.816 32.5876 187.804 32.5784 187.793 32.5683C187.715 32.4967 187.678 32.3787 187.733 32.2842L187.733 32.2816Z" fill="#3C3C41"/>
<defs>
<filter id="filter0_f_5070_14362" x="121.65" y="45.2752" width="28.4438" height="4.00001" filterUnits="userSpaceOnUse" color-interpolation-filters="sRGB">
<feFlood flood-opacity="0" result="BackgroundImageFix"/>
<feBlend mode="normal" in="SourceGraphic" in2="BackgroundImageFix" result="shape"/>
<feGaussianBlur stdDeviation="0.444444" result="effect1_foregroundBlur_5070_14362"/>
</filter>
<filter id="filter1_f_5070_14362" x="86.9861" y="43.4939" width="28.4438" height="4.00001" filterUnits="userSpaceOnUse" color-interpolation-filters="sRGB">
<feFlood flood-opacity="0" result="BackgroundImageFix"/>
<feBlend mode="normal" in="SourceGraphic" in2="BackgroundImageFix" result="shape"/>
<feGaussianBlur stdDeviation="0.444444" result="effect1_foregroundBlur_5070_14362"/>
</filter>
<filter id="filter2_f_5070_14362" x="51.4314" y="46.1658" width="29.3325" height="4.00001" filterUnits="userSpaceOnUse" color-interpolation-filters="sRGB">
<feFlood flood-opacity="0" result="BackgroundImageFix"/>
<feBlend mode="normal" in="SourceGraphic" in2="BackgroundImageFix" result="shape"/>
<feGaussianBlur stdDeviation="0.444444" result="effect1_foregroundBlur_5070_14362"/>
</filter>
<filter id="filter3_f_5070_14362" x="17.6502" y="44.3845" width="28.4438" height="4.00001" filterUnits="userSpaceOnUse" color-interpolation-filters="sRGB">
<feFlood flood-opacity="0" result="BackgroundImageFix"/>
<feBlend mode="normal" in="SourceGraphic" in2="BackgroundImageFix" result="shape"/>
<feGaussianBlur stdDeviation="0.444444" result="effect1_foregroundBlur_5070_14362"/>
</filter>
<filter id="filter4_f_5070_14362" x="-30.7205" y="9.58624" width="118.058" height="59.9372" filterUnits="userSpaceOnUse" color-interpolation-filters="sRGB">
<feFlood flood-opacity="0" result="BackgroundImageFix"/>
<feBlend mode="normal" in="SourceGraphic" in2="BackgroundImageFix" result="shape"/>
<feGaussianBlur stdDeviation="2.67374" result="effect1_foregroundBlur_5070_14362"/>
</filter>
<filter id="filter5_f_5070_14362" x="66.9304" y="-76.0425" width="151.268" height="239.947" filterUnits="userSpaceOnUse" color-interpolation-filters="sRGB">
<feFlood flood-opacity="0" result="BackgroundImageFix"/>
<feBlend mode="normal" in="SourceGraphic" in2="BackgroundImageFix" result="shape"/>
<feGaussianBlur stdDeviation="3.56212" result="effect1_foregroundBlur_5070_14362"/>
</filter>
<filter id="filter6_f_5070_14362" x="-29.2635" y="4.18243" width="136.195" height="86.1434" filterUnits="userSpaceOnUse" color-interpolation-filters="sRGB">
<feFlood flood-opacity="0" result="BackgroundImageFix"/>
<feBlend mode="normal" in="SourceGraphic" in2="BackgroundImageFix" result="shape"/>
<feGaussianBlur stdDeviation="2.67374" result="effect1_foregroundBlur_5070_14362"/>
</filter>
<filter id="filter7_f_5070_14362" x="-100.293" y="-7.95496" width="204.953" height="47.4599" filterUnits="userSpaceOnUse" color-interpolation-filters="sRGB">
<feFlood flood-opacity="0" result="BackgroundImageFix"/>
<feBlend mode="normal" in="SourceGraphic" in2="BackgroundImageFix" result="shape"/>
<feGaussianBlur stdDeviation="2.67374" result="effect1_foregroundBlur_5070_14362"/>
</filter>
<filter id="filter8_f_5070_14362" x="92.8244" y="-38.0566" width="187.273" height="104.918" filterUnits="userSpaceOnUse" color-interpolation-filters="sRGB">
<feFlood flood-opacity="0" result="BackgroundImageFix"/>
<feBlend mode="normal" in="SourceGraphic" in2="BackgroundImageFix" result="shape"/>
<feGaussianBlur stdDeviation="2.67374" result="effect1_foregroundBlur_5070_14362"/>
</filter>
<filter id="filter9_f_5070_14362" x="132.475" y="6.0154" width="49.6305" height="33.6738" filterUnits="userSpaceOnUse" color-interpolation-filters="sRGB">
<feFlood flood-opacity="0" result="BackgroundImageFix"/>
<feBlend mode="normal" in="SourceGraphic" in2="BackgroundImageFix" result="shape"/>
<feGaussianBlur stdDeviation="2.67374" result="effect1_foregroundBlur_5070_14362"/>
</filter>
<filter id="filter10_f_5070_14362" x="140.824" y="30.8291" width="42.3082" height="30.316" filterUnits="userSpaceOnUse" color-interpolation-filters="sRGB">
<feFlood flood-opacity="0" result="BackgroundImageFix"/>
<feBlend mode="normal" in="SourceGraphic" in2="BackgroundImageFix" result="shape"/>
<feGaussianBlur stdDeviation="2.67374" result="effect1_foregroundBlur_5070_14362"/>
</filter>
<filter id="filter11_f_5070_14362" x="45.885" y="-1.5923" width="129.527" height="68.6654" filterUnits="userSpaceOnUse" color-interpolation-filters="sRGB">
<feFlood flood-opacity="0" result="BackgroundImageFix"/>
<feBlend mode="normal" in="SourceGraphic" in2="BackgroundImageFix" result="shape"/>
<feGaussianBlur stdDeviation="2.81239" result="effect1_foregroundBlur_5070_14362"/>
</filter>
<filter id="filter12_f_5070_14362" x="94.592" y="6.75368" width="49.6305" height="33.6738" filterUnits="userSpaceOnUse" color-interpolation-filters="sRGB">
<feFlood flood-opacity="0" result="BackgroundImageFix"/>
<feBlend mode="normal" in="SourceGraphic" in2="BackgroundImageFix" result="shape"/>
<feGaussianBlur stdDeviation="2.67374" result="effect1_foregroundBlur_5070_14362"/>
</filter>
<filter id="filter13_f_5070_14362" x="83.0646" y="30.0608" width="50.5055" height="32.9894" filterUnits="userSpaceOnUse" color-interpolation-filters="sRGB">
<feFlood flood-opacity="0" result="BackgroundImageFix"/>
<feBlend mode="normal" in="SourceGraphic" in2="BackgroundImageFix" result="shape"/>
<feGaussianBlur stdDeviation="2.67374" result="effect1_foregroundBlur_5070_14362"/>
</filter>
<filter id="filter14_f_5070_14362" x="167.158" y="51.5564" width="27.5551" height="3.55555" filterUnits="userSpaceOnUse" color-interpolation-filters="sRGB">
<feFlood flood-opacity="0" result="BackgroundImageFix"/>
<feBlend mode="normal" in="SourceGraphic" in2="BackgroundImageFix" result="shape"/>
<feGaussianBlur stdDeviation="0.444444" result="effect1_foregroundBlur_5070_14362"/>
</filter>
<filter id="filter15_f_5070_14362" x="176.041" y="54.0019" width="28.0004" height="3.77253" filterUnits="userSpaceOnUse" color-interpolation-filters="sRGB">
<feFlood flood-opacity="0" result="BackgroundImageFix"/>
<feBlend mode="normal" in="SourceGraphic" in2="BackgroundImageFix" result="shape"/>
<feGaussianBlur stdDeviation="0.444444" result="effect1_foregroundBlur_5070_14362"/>
</filter>
<filter id="filter16_f_5070_14362" x="74.3445" y="-83.3881" width="167.276" height="266.312" filterUnits="userSpaceOnUse" color-interpolation-filters="sRGB">
<feFlood flood-opacity="0" result="BackgroundImageFix"/>
<feBlend mode="normal" in="SourceGraphic" in2="BackgroundImageFix" result="shape"/>
<feGaussianBlur stdDeviation="3.56212" result="effect1_foregroundBlur_5070_14362"/>
</filter>
<filter id="filter17_f_5070_14362" x="147.365" y="8.04598" width="54.1774" height="36.3581" filterUnits="userSpaceOnUse" color-interpolation-filters="sRGB">
<feFlood flood-opacity="0" result="BackgroundImageFix"/>
<feBlend mode="normal" in="SourceGraphic" in2="BackgroundImageFix" result="shape"/>
<feGaussianBlur stdDeviation="2.67374" result="effect1_foregroundBlur_5070_14362"/>
</filter>
<filter id="filter18_f_5070_14362" x="50.678" y="-0.417497" width="143.345" height="75.3723" filterUnits="userSpaceOnUse" color-interpolation-filters="sRGB">
<feFlood flood-opacity="0" result="BackgroundImageFix"/>
<feBlend mode="normal" in="SourceGraphic" in2="BackgroundImageFix" result="shape"/>
<feGaussianBlur stdDeviation="2.81239" result="effect1_foregroundBlur_5070_14362"/>
</filter>
<linearGradient id="paint0_linear_5070_14362" x1="145.757" y1="46.6085" x2="122.542" y2="47.5597" gradientUnits="userSpaceOnUse">
<stop stop-color="#322F2F" stop-opacity="0.7"/>
<stop offset="1" stop-color="#C9D1DB" stop-opacity="0"/>
</linearGradient>
<linearGradient id="paint1_linear_5070_14362" x1="111.093" y1="44.8273" x2="87.8776" y2="45.7784" gradientUnits="userSpaceOnUse">
<stop stop-color="#322F2F" stop-opacity="0.7"/>
<stop offset="1" stop-color="#C9D1DB" stop-opacity="0"/>
</linearGradient>
<linearGradient id="paint2_linear_5070_14362" x1="76.3127" y1="47.4991" x2="52.3257" y2="48.5146" gradientUnits="userSpaceOnUse">
<stop stop-color="#322F2F" stop-opacity="0.7"/>
<stop offset="1" stop-color="#C9D1DB" stop-opacity="0"/>
</linearGradient>
<linearGradient id="paint3_linear_5070_14362" x1="41.7575" y1="45.7179" x2="18.5416" y2="46.669" gradientUnits="userSpaceOnUse">
<stop stop-color="#322F2F" stop-opacity="0.7"/>
<stop offset="1" stop-color="#C9D1DB" stop-opacity="0"/>
</linearGradient>
<linearGradient id="paint4_linear_5070_14362" x1="190.491" y1="52.8009" x2="168.067" y2="53.911" gradientUnits="userSpaceOnUse">
<stop stop-color="#322F2F" stop-opacity="0.7"/>
<stop offset="1" stop-color="#C9D1DB" stop-opacity="0"/>
</linearGradient>
<linearGradient id="paint5_linear_5070_14362" x1="199.374" y1="55.4649" x2="176.949" y2="56.5751" gradientUnits="userSpaceOnUse">
<stop stop-color="#322F2F" stop-opacity="0.7"/>
<stop offset="1" stop-color="#C9D1DB" stop-opacity="0"/>
</linearGradient>
</defs>
</svg>
