<svg width="24" height="24" viewBox="0 0 24 24" fill="none" xmlns="http://www.w3.org/2000/svg">
<g clip-path="url(#clip0_23429_117766)">
<path d="M22.0571 22.0408C22.0571 22.5306 21.3713 24 18.6285 24C16.8393 24 12.7082 21.9907 10.302 20.5714C9.5 20 9 19.5 8.34277 18.1224L22.0571 22.0408Z" fill="#451E24"/>
<path d="M8.34051 18.4158C6.93051 14.6558 4.94605 11.4964 4.13008 10.3866C3.73841 11.8554 3.50034 14 3.50034 15.5C2.42325 15.0104 1.98958 14.8738 1.5 14C2.28333 11.7479 1.48633 6.66579 1.48633 5.29496C1.48633 3.92412 3.15091 0.105388 4.13008 0.00747098C5.10924 -0.0904457 6.08843 0.790804 6.96968 1.67205C7.67468 2.37705 10.3968 5.55608 11.6697 7.05747L20.678 17.1429C21.4613 18.2852 22.8713 20.8637 22.2447 22.0387C21.4613 23.5075 19.6009 23.4096 18.9155 23.5075C18.2301 23.6054 9.4176 21.0596 8.34051 18.4158Z" fill="#C51523"/>
<path d="M4.12932 10.2812C3.7072 11.5541 3.50098 14.5 3.52091 15.5C4.10841 15.6958 4.5005 15.5 4.5005 15.5C4.54947 15.0594 5.2064 12.6312 5.2064 12.0437C4.91265 11.4562 4.58845 10.8687 4.12932 10.2812Z" fill="#451E24"/>
<path d="M14.9002 14.0095C8.0852 4.45283 5.01061 2.45533 4.3252 2.65116C4.52103 4.3157 6.96895 8.62412 8.4377 11.072C9.90644 13.52 14.1169 14.597 14.9002 14.0095Z" fill="#451E24"/>
<path d="M4.22716 0.301149C3.52216 0.379482 3.93341 1.90045 4.22716 2.65115C5.20632 2.25944 8.63342 5.98036 9.7105 7.25327C10.5722 8.27161 13.5293 12.1817 14.9001 14.0095L16.173 13.7158C16.532 13.9442 16.1534 13.0499 11.7667 7.6449C6.28342 0.888649 5.10841 0.203233 4.22716 0.301149Z" fill="#7B3A44"/>
<path d="M11.4727 14.8908C12.5693 14.3425 14.4102 14.2707 15.1935 14.3033C15.5199 14.3033 16.2314 14.2641 16.4664 14.1074C16.5643 13.9115 17.4456 13.6104 17.9352 13.6104C18.3268 13.5125 18.8164 14.695 19.306 15.2825C19.7956 15.87 20.481 16.3595 20.2852 16.6458C18.6206 16.1562 17.9352 16.1637 17.0539 16.3595C16.1727 16.5554 15.1935 17.5345 13.8227 18.6116C12.4518 17.6325 11.4727 16.4575 11.4727 14.8908Z" fill="#D80313" stroke="#F4CDD0" stroke-width="0.489796"/>
<path d="M15.2963 14.5861C15.5576 14.3807 16.2217 14.2695 16.5212 14.2396C16.8868 14.4806 17.7194 15.7636 17.6845 16.0553C17.6496 16.347 16.5452 16.5107 16.2652 16.3785C15.9852 16.2464 15.627 15.1188 15.2963 14.5861Z" fill="#C51523" stroke="#F4CDD0" stroke-width="0.489796"/>
<path d="M21.8921 3.9663L23.7308 5.08977C23.8658 5.1891 23.9689 5.32494 24.0281 5.48075C24.0872 5.63656 24.0995 5.80556 24.0639 5.96784C24.0403 6.13467 23.9635 6.28974 23.8446 6.40987C23.7258 6.53 23.5713 6.60883 23.4035 6.63551L21.2671 6.91754L19.8462 9.77373C19.7746 9.94644 19.6434 10.088 19.4759 10.1735C19.3084 10.259 19.1156 10.2832 18.9315 10.241C18.7368 10.2061 18.5596 10.1062 18.4291 9.95849C18.2986 9.81075 18.2225 9.62371 18.2135 9.42795L18.1438 6.25607L16.3051 5.13218C16.1546 5.04093 16.0353 4.90689 15.9631 4.7474C15.891 4.58792 15.8692 4.41057 15.9008 4.23902C15.9498 4.07365 16.0441 3.92524 16.1732 3.81003C16.3023 3.69482 16.4613 3.61744 16.6325 3.58644L18.7688 3.30483L20.0589 0.714478C20.1555 0.547271 20.3023 0.413806 20.4788 0.332862C20.6553 0.251917 20.8531 0.227317 21.0449 0.262294C21.2302 0.298364 21.3968 0.398234 21.5152 0.544302C21.6337 0.690369 21.6961 0.873342 21.6916 1.06026L21.8921 3.9663Z" fill="#FCCB4F"/>
</g>
<defs>
<clipPath id="clip0_23429_117766">
<rect width="24" height="24" fill="white"/>
</clipPath>
</defs>
</svg>
