<svg width="24" height="24" viewBox="0 0 24 24" fill="none" xmlns="http://www.w3.org/2000/svg">
<g clip-path="url(#clip0_24442_134403)">
<path d="M18.7828 5.06202C24.1844 10.2432 25.5959 17.2705 22.0358 20.7246C18.4757 24.1787 11.2331 22.809 5.89295 17.5683L5.34035 17.0321L8.59336 13.9354C12.7673 17.985 18.0464 19.3548 20.4402 17.0917C22.8341 14.8287 21.3608 9.58805 17.1869 5.59798C12.4605 0.95282 5.95415 -0.357369 2.63957 2.97762C1.91859 3.78491 1.39503 4.73991 1.10804 5.77118C0.821054 6.80245 0.777949 7.8833 0.982162 8.93295C0.601938 7.67521 0.55464 6.34481 0.844295 5.06457C1.13395 3.78432 1.75134 2.59542 2.63957 1.60783C6.19967 -1.5485 13.4427 -0.119119 18.7828 5.06202Z" fill="#CDEDFF"/>
<path d="M11.8468 24C11.6889 24.0598 11.5135 24.0598 11.3556 24L7.67291 21.4392L3.98982 24C3.83045 24.116 3.63682 24.1786 3.4376 24.1786C3.23839 24.1786 3.04438 24.116 2.88501 24C2.78467 23.8602 2.73103 23.694 2.73103 23.5236C2.73103 23.3533 2.78467 23.1869 2.88501 23.0471L4.29703 18.7593L0.613938 16.2581C0.513604 16.1183 0.459961 15.952 0.459961 15.7816C0.459961 15.6112 0.513604 15.4451 0.613938 15.3053C0.666288 15.1213 0.778121 14.9584 0.932757 14.8405C1.08739 14.7227 1.2768 14.6559 1.47336 14.6501H5.893L7.42752 10.4814C7.48201 10.3035 7.59593 10.1482 7.75159 10.0404C7.90724 9.93249 8.09545 9.87819 8.28657 9.88588C8.47548 9.88762 8.65922 9.94564 8.81294 10.0522C8.96667 10.1587 9.08303 10.3086 9.146 10.4814L10.4966 14.6501H15.1002C15.2942 14.6644 15.4792 14.7343 15.6321 14.8509C15.7851 14.9675 15.899 15.1258 15.9592 15.3053C16.0268 15.4804 16.0269 15.6735 15.9592 15.8487C15.8915 16.0238 15.7606 16.1693 15.5909 16.2581L11.9697 18.7593L13.3199 23.0471C13.4202 23.1869 13.4742 23.3533 13.4742 23.5236C13.4742 23.694 13.4202 23.8602 13.3199 24H11.8468Z" fill="#92D8FF"/>
</g>
<defs>
<clipPath id="clip0_24442_134403">
<rect width="24" height="24" fill="white"/>
</clipPath>
</defs>
</svg>
