<svg width="168" height="24" viewBox="0 0 168 24" fill="none" xmlns="http://www.w3.org/2000/svg">
<path d="M11.1764 1.70638C11.5133 1.03147 12.4866 1.03147 12.8235 1.70638L15.6369 7.34251C15.6533 7.3754 15.685 7.39821 15.7218 7.40348L22.0126 8.30728C22.7659 8.4155 23.0667 9.3308 22.5216 9.85614L17.9668 14.2459C17.9419 14.2698 17.9306 14.3044 17.9364 14.3382L19.0117 20.5366C19.1404 21.2784 18.3529 21.8441 17.6791 21.4939L12.047 18.5663C12.0175 18.551 11.9824 18.551 11.9529 18.5663L6.3208 21.4939C5.64702 21.8441 4.85954 21.2784 4.98822 20.5366L6.06273 14.3424C6.06906 14.3059 6.05683 14.2687 6.03004 14.2429L1.47831 9.85614C0.933209 9.3308 1.234 8.4155 1.98731 8.30728L8.2842 7.40261C8.31713 7.39788 8.34559 7.37743 8.36032 7.34793L11.1764 1.70638Z" fill="url(#paint0_linear_34647_35627)"/>
<path d="M47.1764 1.70638C47.5133 1.03147 48.4866 1.03147 48.8235 1.70638L51.6369 7.34251C51.6533 7.3754 51.685 7.39821 51.7218 7.40348L58.0126 8.30728C58.7659 8.4155 59.0667 9.3308 58.5216 9.85614L53.9668 14.2459C53.9419 14.2698 53.9306 14.3044 53.9364 14.3382L55.0117 20.5366C55.1404 21.2784 54.3529 21.8441 53.6791 21.4939L48.047 18.5663C48.0175 18.551 47.9824 18.551 47.9529 18.5663L42.3208 21.4939C41.647 21.8441 40.8595 21.2784 40.9882 20.5366L42.0627 14.3424C42.0691 14.3059 42.0568 14.2687 42.03 14.2429L37.4783 9.85614C36.9332 9.3308 37.234 8.4155 37.9873 8.30728L44.2842 7.40261C44.3171 7.39788 44.3456 7.37743 44.3603 7.34793L47.1764 1.70638Z" fill="url(#paint1_linear_34647_35627)"/>
<path d="M83.1764 1.70638C83.5133 1.03147 84.4866 1.03147 84.8235 1.70638L87.6369 7.34251C87.6533 7.3754 87.685 7.39821 87.7218 7.40348L94.0126 8.30728C94.7659 8.4155 95.0667 9.3308 94.5216 9.85614L89.9668 14.2459C89.9419 14.2698 89.9306 14.3044 89.9364 14.3382L91.0117 20.5366C91.1404 21.2784 90.3529 21.8441 89.6791 21.4939L84.047 18.5663C84.0175 18.551 83.9824 18.551 83.9529 18.5663L78.3208 21.4939C77.647 21.8441 76.8595 21.2784 76.9882 20.5366L78.0627 14.3424C78.0691 14.3059 78.0568 14.2687 78.03 14.2429L73.4783 9.85614C72.9332 9.3308 73.234 8.4155 73.9873 8.30728L80.2842 7.40261C80.3171 7.39788 80.3456 7.37743 80.3603 7.34793L83.1764 1.70638Z" fill="url(#paint2_linear_34647_35627)"/>
<path d="M119.176 1.70638C119.513 1.03147 120.487 1.03147 120.824 1.70638L123.637 7.34251C123.653 7.3754 123.685 7.39821 123.722 7.40348L130.013 8.30728C130.766 8.4155 131.067 9.3308 130.522 9.85614L125.967 14.2459C125.942 14.2698 125.931 14.3044 125.936 14.3382L127.012 20.5366C127.14 21.2784 126.353 21.8441 125.679 21.4939L120.047 18.5663C120.018 18.551 119.982 18.551 119.953 18.5663L114.321 21.4939C113.647 21.8441 112.86 21.2784 112.988 20.5366L114.063 14.3424C114.069 14.3059 114.057 14.2687 114.03 14.2429L109.478 9.85614C108.933 9.3308 109.234 8.4155 109.987 8.30728L116.284 7.40261C116.317 7.39788 116.346 7.37743 116.36 7.34793L119.176 1.70638Z" fill="url(#paint3_linear_34647_35627)"/>
<path d="M155.176 1.70638C155.513 1.03147 156.487 1.03147 156.824 1.70638L159.637 7.34251C159.653 7.3754 159.685 7.39821 159.722 7.40348L166.013 8.30728C166.766 8.4155 167.067 9.3308 166.522 9.85614L161.967 14.2459C161.942 14.2698 161.931 14.3044 161.936 14.3382L163.012 20.5366C163.14 21.2784 162.353 21.8441 161.679 21.4939L156.047 18.5663C156.018 18.551 155.982 18.551 155.953 18.5663L150.321 21.4939C149.647 21.8441 148.86 21.2784 148.988 20.5366L150.063 14.3424C150.069 14.3059 150.057 14.2687 150.03 14.2429L145.478 9.85614C144.933 9.3308 145.234 8.4155 145.987 8.30728L152.284 7.40261C152.317 7.39788 152.346 7.37743 152.36 7.34793L155.176 1.70638Z" fill="url(#paint4_linear_34647_35627)"/>
<defs>
<linearGradient id="paint0_linear_34647_35627" x1="12" y1="1.2002" x2="12" y2="21.6002" gradientUnits="userSpaceOnUse">
<stop stop-color="#FFC39C"/>
<stop offset="1" stop-color="#FF6400"/>
</linearGradient>
<linearGradient id="paint1_linear_34647_35627" x1="48" y1="1.2002" x2="48" y2="21.6002" gradientUnits="userSpaceOnUse">
<stop stop-color="#FFC39C"/>
<stop offset="1" stop-color="#FF6400"/>
</linearGradient>
<linearGradient id="paint2_linear_34647_35627" x1="84" y1="1.2002" x2="84" y2="21.6002" gradientUnits="userSpaceOnUse">
<stop stop-color="#FFC39C"/>
<stop offset="1" stop-color="#FF6400"/>
</linearGradient>
<linearGradient id="paint3_linear_34647_35627" x1="120" y1="1.2002" x2="120" y2="21.6002" gradientUnits="userSpaceOnUse">
<stop stop-color="#FFC39C"/>
<stop offset="1" stop-color="#FF6400"/>
</linearGradient>
<linearGradient id="paint4_linear_34647_35627" x1="156" y1="1.2002" x2="156" y2="21.6002" gradientUnits="userSpaceOnUse">
<stop stop-color="#FFC39C"/>
<stop offset="1" stop-color="#FF6400"/>
</linearGradient>
</defs>
</svg>
