<svg width="170" height="136" viewBox="0 0 170 136" fill="none" xmlns="http://www.w3.org/2000/svg">
<path d="M47.1353 3.18977L125.85 88.1553C126.518 88.8764 125.853 90.0276 124.895 89.8101L15.0417 64.8856C14.4031 64.7407 14.0738 64.0313 14.3753 63.4499L45.514 3.40899C45.8328 2.79431 46.6647 2.68182 47.1353 3.18977Z" fill="#F6F6F6"/>
<mask id="mask0_2597_23423" style="mask-type:alpha" maskUnits="userSpaceOnUse" x="5" y="0" width="47" height="66">
<path d="M44.6944 41.0238C35.6204 58.3603 20.9976 68.6108 12.0335 63.9189C3.06931 59.227 3.15834 41.3695 12.2323 24.0331C21.3063 6.6966 35.9291 -3.55387 44.8932 1.138C53.8574 5.82987 53.7684 23.6874 44.6944 41.0238Z" fill="#D9D9D9"/>
</mask>
<g mask="url(#mask0_2597_23423)">
<g filter="url(#filter0_f_2597_23423)">
<path d="M-87.8439 -9.76237C-89.5561 -2.55821 -91.1158 4.67306 -92.9042 11.8637C-94.5373 18.7191 -86.3362 21.3574 -58.9414 26.0509C4.09718 36.8151 67.0618 48.2553 130.07 59.5038C140.966 61.4428 150.264 60.9933 150.829 58.5003C154.848 40.7698 158.87 23.0219 163.042 5.31852L-87.8439 -9.76237Z" fill="#FFB9F8"/>
</g>
<g filter="url(#filter1_f_2597_23423)">
<path d="M-2.97198 63.992C-2.97646 63.9926 -2.97848 63.9864 -2.97419 63.985C28.3105 54.1099 69.4978 44.0984 116.035 35.2366C120.613 34.3661 125.232 33.5087 129.884 32.6613C137.114 31.3446 141.861 24.6154 140.546 17.3699C139.09 9.35129 130.899 4.21776 123.069 6.32593L3.67625 38.4692C-2.26623 40.0691 -5.93488 45.8273 -4.93784 51.9272C-4.28083 55.9468 -3.63155 59.9673 -2.96893 63.9879C-2.9686 63.9899 -2.96996 63.9918 -2.97198 63.992Z" fill="#FFE665"/>
</g>
<g filter="url(#filter2_f_2597_23423)">
<path d="M54.4881 120.449C54.4832 120.45 54.4809 120.443 54.4853 120.441C77.279 110.511 107.522 101.025 141.885 93.2473C143.61 92.8576 145.343 92.4727 147.084 92.092C155.286 90.2984 160.591 82.5735 159.122 74.2804C157.366 64.3628 146.892 58.2773 137.479 61.6415L61.5899 88.7641C54.7716 91.2009 50.773 98.0885 51.9706 105.282C52.8119 110.335 53.6463 115.389 54.4916 120.444C54.492 120.446 54.4904 120.449 54.4881 120.449Z" fill="#FFE665"/>
</g>
<g filter="url(#filter3_f_2597_23423)">
<path d="M-152.318 89.8958C-149.955 90.7619 -147.455 91.6029 -145.162 92.4815C-142.917 93.3064 -134.874 92.0467 -110.157 87.5184C-53.2973 77.0955 3.85429 66.7383 60.9413 56.3585C70.8104 54.563 78.1349 52.8673 77.2951 52.5725C71.3222 50.4758 65.3435 48.3771 59.5087 46.2553L-152.318 89.8958Z" fill="#FFB9F8"/>
</g>
<g filter="url(#filter4_f_2597_23423)">
<path d="M-72.9117 95.609C-67.874 97.4142 -62.6983 99.1943 -57.7297 101.012C-52.9387 102.731 -44.4763 101.618 -19.8233 97.0674C36.8745 86.5878 94.1101 76.2602 151.21 65.8849C161.079 64.0894 167.654 62.1306 165.89 61.5114C153.345 57.1077 140.788 52.6997 128.382 48.2709L-72.9117 95.609Z" fill="#FFB9F8"/>
</g>
<g filter="url(#filter5_f_2597_23423)">
<path d="M-59.2086 103.529C-54.1709 105.334 -48.9952 107.114 -44.0265 108.932C-39.2356 110.651 -30.7731 109.538 -6.12019 104.987C50.5777 94.5077 107.813 84.1801 164.913 73.8048C174.782 72.0093 181.357 70.0505 179.593 69.4313C167.049 65.0276 154.491 60.6196 142.085 56.1908L-59.2086 103.529Z" fill="#FFB9F8"/>
</g>
<g filter="url(#filter6_f_2597_23423)">
<path d="M-130.961 88.6905C-133.277 99.3422 -135.615 109.99 -137.944 120.65C-129.83 112.905 -122.582 104.131 -116.109 95.2766C-110.303 87.3244 -104.706 79.0074 -96.8269 72.8428C-90.1722 67.6326 -82.4036 64.3096 -74.1833 61.7744C-65.1314 53.4703 -54.3651 47.3159 -41.7656 43.533C-32.3435 40.7069 -30.7055 44.2696 -21.3073 44.7028C-28.3527 51.5957 -11.075 49.7813 -3.61565 43.0989C-0.560607 40.3621 -3.12131 40.8351 0.394041 38.6438C2.85944 37.1192 2.70345 33.4961 5.46925 32.5848C18.1127 28.4492 25.4397 10.3204 38.4618 7.45795C25.219 0.502826 4.72909 21.8923 -10.0706 20.1996C-27.3675 35.8767 -37.6405 33.3307 -60.0443 41.0711C-61.8906 41.7065 -63.7516 42.3075 -65.6212 42.8965L-128.331 79.555C-129.405 82.5696 -130.287 85.6175 -130.961 88.6905Z" fill="#71BBFF"/>
</g>
<g filter="url(#filter7_f_2597_23423)">
<path d="M5.82216 35.2576C-12.0848 43.6041 -30.0041 51.9431 -47.9344 60.2939C-29.5834 55.5655 -10.407 49.8035 8.24824 43.8133C24.9968 38.432 42.1185 32.7046 57.9022 29.2373C71.2382 26.3058 82.6651 25.1709 93.2842 24.7831C113.251 19.7868 131.412 16.9298 147.534 16.4207C159.586 16.0424 155.596 19.3371 162.736 21.6554C146.551 25.9003 163.596 27.9982 179.809 24.0142C186.449 22.3825 183.616 22.2407 189.819 21.1572C194.151 20.4074 199.459 17.3716 203.12 17.1929C219.807 16.4006 253.09 2.90082 268.18 3.24284C267.642 -5.28317 218.554 8.17531 208.827 3.68685C170.96 13.076 166.266 8.82387 136.077 10.5694C133.593 10.7112 131.149 10.8214 128.715 10.9198L21.7137 28.2334C16.2984 30.5082 10.9935 32.851 5.82216 35.2576Z" fill="#71BBFF"/>
</g>
<g filter="url(#filter8_f_2597_23423)">
<path d="M59.1425 85.5623C41.2355 93.9088 23.3162 102.248 5.38595 110.599C23.737 105.87 42.9133 100.108 61.5685 94.1179C78.3171 88.7366 95.4388 83.0093 111.222 79.542C124.559 76.6105 135.985 75.4756 146.604 75.0878C166.571 70.0915 184.733 67.2345 200.854 66.7254C212.906 66.3471 208.917 69.6417 216.057 71.9601C199.871 76.205 216.916 78.3029 233.129 74.3189C239.769 72.6872 236.936 72.5454 243.139 71.4619C247.471 70.7121 252.78 67.6763 256.44 67.4975C273.127 66.7053 306.41 53.2055 321.501 53.5475C320.962 45.0215 271.875 58.48 262.147 53.9915C224.28 63.3807 219.586 59.1286 189.398 60.8741C186.914 61.0158 184.469 61.1261 182.035 61.2245L75.034 78.5381C69.6188 80.8129 64.3138 83.1557 59.1425 85.5623Z" fill="#71BBFF"/>
</g>
<g filter="url(#filter9_f_2597_23423)">
<path d="M-2.83875 60.1256C11.6433 58.0392 33.5135 53.4288 38.7668 47.2545C26.4076 42.4901 27.2104 53.7384 14.8512 48.9741L-6.16628 53.3049C-9.28659 56.6099 -13.5918 55.9805 -2.83875 60.1256Z" fill="#0A9F68"/>
</g>
<g filter="url(#filter10_f_2597_23423)">
<path d="M1.61701 89.2204C1.61215 89.221 1.60981 89.2144 1.61426 89.2124C24.4079 79.282 54.6507 69.7961 89.0135 62.0188C90.7388 61.6291 92.4723 61.2442 94.2133 60.8635C102.415 59.0699 107.72 51.345 106.251 43.0518C104.495 33.1343 94.0213 27.0488 84.6082 30.413L8.71878 57.5356C1.90052 59.9724 -2.09813 66.86 -0.900496 74.0536C-0.0592092 79.1068 0.775207 84.1607 1.62048 89.2157C1.62086 89.2179 1.61931 89.22 1.61701 89.2204Z" fill="#FFE665"/>
</g>
</g>
<path d="M139.431 85.9604C139.78 86.4348 139.765 87.0526 139.75 87.6234C139.733 88.298 139.73 88.975 139.742 89.6496C139.172 89.2691 138.801 88.6884 138.5 88.1003C138.361 87.8285 138.233 87.5493 138.154 87.2577C138.077 86.9661 138.05 86.6646 138.032 86.3656C138.015 86.0938 138.005 85.822 138 85.5477C137.998 85.3476 138 85.1153 138.285 85.1993C138.71 85.3253 139.179 85.6169 139.429 85.9604H139.431Z" fill="#252525"/>
<path d="M140.333 97.4683C139.523 96.984 138.759 97.6561 137.919 97.582C136.815 97.4856 135.816 96.979 134.719 96.9766C134.47 97.3942 134.22 97.8142 133.973 98.2318L134.21 98.4641C135.381 98.0342 135.475 98.9312 135.695 99.6749C137.319 99.6799 138.945 99.6873 140.568 99.6922C140.571 99.4451 140.573 99.198 140.578 98.9509C140.417 98.9262 140.232 98.9015 140.237 98.6989C140.242 98.4963 140.43 98.479 140.588 98.4542C140.457 97.8612 140.286 97.8315 140.336 97.4683H140.333Z" fill="#32302F"/>
<path d="M137.677 87.1279C138.317 86.6757 138.962 86.913 139.605 87.1205C139.787 86.4855 139.367 86.1716 138.935 85.8652C138.186 86.1988 137.435 86.5299 136.686 86.8635C136.538 86.7869 136.387 86.7079 136.239 86.6313C136.239 86.8759 136.239 87.1205 136.239 87.3652C136.716 87.2589 137.171 87.0217 137.68 87.1279H137.677Z" fill="#44413F"/>
<path fill-rule="evenodd" clip-rule="evenodd" d="M137.583 85.6537C136.93 85.7748 136.661 86.2196 136.683 86.8645L136.681 86.8621C136.607 86.8238 136.532 86.7848 136.457 86.7459C136.383 86.707 136.308 86.6681 136.234 86.6298C136.35 85.7229 136.681 85.1225 138.166 85.1818C138.129 85.5376 137.884 85.5969 137.583 85.6537ZM137.897 113.619L137.897 113.619C137.913 113.997 137.931 114.421 138.406 114.448C138.48 114.452 138.551 114.456 138.618 114.46C139.147 114.492 139.463 114.512 139.671 114.354C139.786 114.267 139.766 114.051 139.748 113.867C139.74 113.782 139.733 113.704 139.74 113.649C139.776 113.371 139.74 113.197 139.7 113.001C139.671 112.862 139.641 112.712 139.631 112.508C139.52 112.572 139.409 112.636 139.298 112.703C139.505 113.823 139.002 113.695 138.499 113.567C138.275 113.51 138.051 113.453 137.889 113.506L137.892 113.509C137.894 113.545 137.895 113.582 137.897 113.619ZM136.843 113.178C136.723 113.174 136.556 113.246 136.389 113.317C136.221 113.389 136.054 113.461 135.934 113.457C135.65 113.501 135.301 113.2 135.131 112.871C135.109 112.872 135.089 112.873 135.071 112.874C135.012 112.876 134.97 112.878 134.928 112.876C134.818 112.872 134.71 112.846 134.321 112.752L134.291 112.745C134.291 112.754 134.246 112.751 134.2 112.747C134.159 112.743 134.117 112.739 134.108 112.745C133.606 113.015 133.594 113.719 134.105 113.964C134.191 114.005 134.278 114.046 134.366 114.088C134.538 114.169 134.714 114.253 134.899 114.344C135.294 114.495 135.971 114.5 136.146 114.495C136.824 114.524 137.073 113.716 136.846 113.18L136.843 113.178Z" fill="#555250"/>
<path fill-rule="evenodd" clip-rule="evenodd" d="M136.691 86.8633L136.689 86.8644H136.691L136.691 86.8633ZM137.591 85.6536C136.936 85.7746 136.669 86.2214 136.691 86.8633C137.065 86.6969 137.439 86.5311 137.813 86.3653L137.813 86.3653L137.813 86.3653L137.813 86.3653L137.813 86.3653L137.813 86.3652C138.188 86.1991 138.563 86.0329 138.937 85.8661C138.745 85.5671 138.542 85.2805 138.174 85.1816C138.137 85.5375 137.892 85.5968 137.591 85.6536ZM134.531 106.354C135.783 106.757 135.855 107.868 135.92 108.867L135.924 108.933C135.994 109.998 135.974 111.068 135.953 112.138V112.138C135.945 112.578 135.936 113.018 135.934 113.458L136.653 113.48C136.854 113.221 136.989 112.954 136.92 112.6C136.789 111.92 136.828 111.391 136.876 110.75C136.911 110.281 136.95 109.752 136.93 109.059C136.916 108.602 136.814 108.218 136.707 107.82L136.707 107.82C136.685 107.736 136.663 107.652 136.641 107.567C136.234 107.494 136.098 107.19 135.961 106.884C135.866 106.674 135.772 106.463 135.588 106.326C135.481 106.246 135.386 106.149 135.291 106.052C135.078 105.834 134.866 105.616 134.516 105.598L134.531 106.354ZM138.027 114.263C137.897 114.085 137.862 114.002 137.816 113.892C137.778 113.801 137.732 113.692 137.619 113.497C137.582 113.431 137.444 112.818 137.461 112.749L137.468 112.724C137.485 112.662 137.515 112.551 137.558 112.516C137.7 112.406 137.796 112.395 137.996 112.373L138 112.373C138.03 112.371 138.062 112.368 138.086 112.38C138.104 112.389 138.114 112.404 138.123 112.418L138.126 112.422C138.221 112.582 138.281 112.749 138.32 112.92L139.305 112.707V112.709C139.512 113.829 139.009 113.701 138.506 113.573C138.464 113.562 138.421 113.552 138.379 113.542C138.379 113.639 138.377 113.737 138.373 113.833C138.368 113.979 138.356 114.137 138.237 114.253C138.19 114.3 138.094 114.291 138.027 114.263ZM135.695 99.6741C135.673 99.5976 135.652 99.5194 135.631 99.4413C135.447 98.7598 135.263 98.0775 134.21 98.4633C134.625 98.9352 134.492 99.4369 134.287 99.9409L135.695 99.6741ZM136.628 87.2578C136.969 87.1546 137.309 87.0512 137.68 87.1282L137.683 87.1257C137.48 89.0358 136.981 89.362 136.61 89.0828C136.321 88.8653 136.279 88.6775 136.24 88.2352V87.3654C136.37 87.3362 136.499 87.297 136.628 87.2578ZM137.923 106.792C138.123 106.682 138.332 106.537 138.55 106.386C139.099 106.005 139.701 105.588 140.342 105.611C140.342 105.443 140.339 105.272 140.337 105.104C139.807 105.013 139.376 105.241 138.944 105.47C138.628 105.637 138.311 105.805 137.955 105.846C137.952 105.925 137.948 106.007 137.944 106.092L137.944 106.093C137.934 106.297 137.923 106.522 137.923 106.792Z" fill="#484543"/>
<path d="M140.588 98.4536C140.43 98.4784 140.239 98.4981 140.237 98.6983C140.232 98.9009 140.417 98.9281 140.578 98.9503C140.58 98.7848 140.585 98.6167 140.588 98.4512V98.4536Z" fill="#1E1E1E"/>
<path fill-rule="evenodd" clip-rule="evenodd" d="M139.708 89.3851C139.614 89.2587 139.626 89.0809 139.637 88.9105C139.641 88.8476 139.645 88.7857 139.644 88.7278L139.606 87.1192L139.517 87.0903C138.904 86.8932 138.289 86.6955 137.679 87.1266C137.388 87.3309 137.348 87.6947 137.309 88.0486C137.259 88.5035 137.211 88.942 136.634 89.0046C136.609 89.9101 135.925 89.9455 135.42 89.9717C135.223 89.9819 135.053 89.9907 134.961 90.0498L134.961 90.0701C134.968 90.6557 134.971 90.8885 135.858 90.974L136.114 90.9985C137.299 91.1125 138.459 91.224 139.644 91.058L139.644 91.054C139.735 91.0685 139.834 91.0638 139.934 91.0592H139.934C140.201 91.0467 140.47 91.0341 140.574 91.3898C140.66 91.678 140.578 91.8885 140.432 92.0709C140.576 91.8897 140.655 91.6805 140.57 91.395C140.466 91.0394 140.197 91.0519 139.93 91.0644C139.829 91.0691 139.729 91.0738 139.638 91.059C138.453 91.225 137.294 91.1135 136.108 90.9995C136.023 90.9913 135.938 90.9831 135.853 90.9749C134.966 90.8894 134.963 90.6566 134.956 90.0711C134.956 90.0644 134.956 90.0576 134.956 90.0508C134.041 90.2905 133.611 90.9922 133.293 91.8003L133.29 91.7953C132.886 93.5362 131.853 92.6845 131.013 91.9913C130.818 91.8305 130.633 91.6781 130.469 91.5687C130.178 91.5687 129.619 92.082 130.398 92.4946C130.469 93.0208 134.123 96.5051 134.372 96.0875C134.37 95.9215 134.453 95.9752 134.537 96.0299C134.546 96.1836 134.583 96.3569 134.619 96.5303C134.66 96.7251 134.701 96.9199 134.704 97.0867C135.321 97.0881 135.912 97.2145 136.508 97.342C136.97 97.4409 137.436 97.5404 137.918 97.5825C138.251 97.6119 138.572 97.5241 138.889 97.4375C139.371 97.3056 139.843 97.1764 140.333 97.4688C140.367 97.3813 140.389 97.3015 140.41 97.225C140.473 96.9927 140.528 96.7908 140.898 96.4952C138.998 95.9133 138.468 94.3276 139.59 92.9248C138.474 94.3263 139.005 95.9087 140.903 96.49C141.023 96.3319 141.064 96.0152 141.107 95.6793C141.136 95.4588 141.165 95.2299 141.219 95.0321C141.52 93.9201 141.538 93.3073 141.498 92.1508C141.451 90.7325 140.977 90.1888 139.899 89.5488L139.899 89.5517L139.708 89.3851ZM134.7 96.0306C134.703 96.0155 134.704 95.9968 134.704 95.9739C134.743 95.0538 134.667 94.6175 134.372 93.9402C134.696 94.4533 134.731 94.8875 134.766 95.3123C134.787 95.569 134.808 95.8223 134.891 96.0875C134.86 96.072 134.797 96.0556 134.731 96.0386C134.72 96.0359 134.71 96.0332 134.7 96.0306ZM136.639 107.569C136.691 106.819 136.751 106.558 136.829 106.225C136.862 106.082 136.898 105.925 136.938 105.711C136.943 105.689 136.947 105.665 136.951 105.641C136.992 105.403 137.041 105.113 137.452 105.138C137.823 105.16 137.939 105.496 137.954 105.845C138.31 105.804 138.627 105.636 138.944 105.468C139.375 105.24 139.806 105.012 140.336 105.103C140.578 103.307 140.729 101.505 140.568 99.6892C139.756 99.6867 138.944 99.6836 138.132 99.6805L138.128 99.6805H138.128H138.128H138.128H138.128C137.317 99.6774 136.506 99.6743 135.695 99.6719L134.287 99.9387C134.152 100.999 134.262 102.05 134.373 103.101C134.461 103.931 134.548 104.761 134.514 105.595C134.866 105.614 135.079 105.833 135.293 106.052L135.293 106.052C135.387 106.148 135.481 106.245 135.587 106.324C135.77 106.461 135.865 106.672 135.959 106.882C136.096 107.187 136.232 107.491 136.639 107.564V107.569ZM137.939 112.139C137.944 111.852 137.95 111.565 137.956 111.278H137.954C137.944 111.159 137.933 111.042 137.923 110.926C137.796 109.519 137.689 108.33 137.92 106.795C138.12 106.686 138.329 106.541 138.547 106.39C139.097 106.009 139.7 105.591 140.339 105.614L140.332 105.665C140.067 107.528 139.803 109.388 139.842 111.275H139.844L139.74 111.893L139.636 112.511C139.525 112.578 139.414 112.642 139.303 112.706V112.704C138.912 112.79 138.52 112.874 138.13 112.958L138.129 112.958L137.921 113.003C137.927 112.715 137.933 112.427 137.939 112.139ZM134.529 106.358L134.529 106.355V106.358L134.529 106.358ZM134.529 106.358C134.561 106.733 134.583 107.11 134.605 107.487L134.605 107.487C134.663 108.497 134.722 109.509 134.967 110.502C135.067 110.906 135.052 111.32 135.036 111.735C135.018 112.239 134.999 112.744 135.189 113.232C135.355 113.552 135.631 113.509 135.91 113.466L135.933 113.462C135.934 113.006 135.943 112.55 135.952 112.094V112.094V112.094V112.094C135.972 111.04 135.992 109.986 135.923 108.938L135.918 108.871C135.853 107.872 135.781 106.762 134.529 106.358Z" fill="url(#paint0_linear_2597_23423)"/>
<g filter="url(#filter11_f_2597_23423)">
<path fill-rule="evenodd" clip-rule="evenodd" d="M139.934 112.147L139.934 112.147C139.593 111.7 139.201 111.188 138.727 111.126C137.212 111.63 138.048 112.65 138.813 113.585L138.813 113.585C139.117 113.955 139.409 114.312 139.54 114.618C139.758 115.129 139.917 115.334 140.328 115.689C140.585 115.911 141.284 116.305 141.89 116.647L141.89 116.647C142.254 116.853 142.585 117.04 142.766 117.158C143.31 117.516 143.688 117.817 144.093 118.14C144.378 118.368 144.677 118.606 145.058 118.883C145.632 119.301 146.248 119.767 146.892 120.254C148.208 121.25 149.639 122.333 151.066 123.269C150.979 123.305 150.849 123.365 150.695 123.443C150.567 123.378 150.431 123.309 150.286 123.237C149.978 123.083 149.649 122.925 149.32 122.767L149.32 122.767C148.409 122.33 147.5 121.894 147.045 121.543C146.862 121.401 146.673 121.244 146.478 121.083C145.885 120.591 145.243 120.059 144.567 119.795C144.186 119.646 143.445 119.178 143.135 118.934C142.925 118.769 142.71 118.63 142.496 118.491L142.496 118.491L142.496 118.491C142.2 118.3 141.905 118.11 141.629 117.853C141.244 117.497 140.703 117.288 140.164 117.08C139.602 116.863 139.043 116.648 138.669 116.267C137.935 115.518 137.618 115.115 137.013 114.344L136.926 114.234C136.536 113.737 135.001 112.973 134.315 112.783C132.816 113.021 133.467 113.681 134.203 114.427C134.604 114.833 135.03 115.264 135.147 115.666C135.262 116.065 135.757 116.541 136.161 116.93L136.161 116.93C136.304 117.068 136.436 117.195 136.535 117.303C136.939 117.745 137.467 118.259 137.927 118.647C138.314 118.974 138.717 119.265 139.121 119.557L139.121 119.557C139.641 119.934 140.163 120.311 140.654 120.766C142.796 122.751 144.965 124.265 147.704 126.109C150.563 128.034 153.208 129.262 154.47 129.721C154.705 129.95 154.953 130.166 155.234 130.314C155.321 130.359 155.404 130.404 155.487 130.448C155.84 130.638 156.171 130.816 156.58 130.95C156.645 130.971 156.712 130.992 156.778 131.013C156.935 131.061 157.091 131.11 157.237 131.169C157.337 131.21 157.455 131.215 157.571 131.219C157.686 131.223 157.799 131.228 157.894 131.266C158.934 131.691 160.274 130.696 160.853 130.012C160.95 129.897 161.137 129.729 161.35 129.536C161.845 129.089 162.484 128.511 162.484 128.173C162.484 127.902 162.342 127.769 162.183 127.62C162.087 127.53 161.986 127.436 161.905 127.302C161.679 126.928 161.395 126.626 161.107 126.32C160.975 126.18 160.843 126.039 160.715 125.89C160.731 125.845 160.742 125.798 160.748 125.749C160.787 125.449 157.93 123.847 156.192 122.873L156.192 122.873L156.192 122.873C155.519 122.496 155.015 122.213 154.909 122.135C154.705 121.985 154.477 121.839 154.244 121.691L154.244 121.691C153.773 121.39 153.284 121.078 152.94 120.689C152.467 120.155 151.556 119.546 150.914 119.164C150.724 119.051 150.526 118.924 150.323 118.793L150.323 118.793C149.703 118.393 149.032 117.961 148.366 117.8C147.99 117.709 147.235 117.354 146.913 117.158C146.694 117.026 146.474 116.92 146.256 116.815L146.256 116.815C145.954 116.669 145.653 116.524 145.361 116.311C144.988 116.04 144.585 115.798 144.183 115.557L144.183 115.557C143.69 115.261 143.198 114.966 142.766 114.618C142.515 114.416 142.258 114.221 142.002 114.025C141.418 113.58 140.837 113.136 140.328 112.624C140.204 112.499 140.073 112.328 139.934 112.147Z" fill="url(#paint1_linear_2597_23423)"/>
</g>
<path d="M127.462 89.7555C127.196 90.1749 126.973 90.1395 126.883 90.6861C126.922 90.9009 127.399 91.2989 127.5 91.3467C127.624 91.4054 127.843 91.5953 127.946 91.3774C128.02 91.2216 128.061 91.0671 128.201 91.2227C128.475 91.5262 128.913 91.7145 129.253 91.9839C129.459 92.1469 129.619 92.3153 129.906 92.3624C130.097 92.3937 130.245 91.9755 130.308 91.8419C130.545 91.3404 129.974 91.192 129.728 90.8845C129.593 90.7159 129.194 90.6033 129.079 90.4213C128.947 90.2127 128.807 90.1199 128.655 89.9505C128.547 89.8314 128.666 89.8848 128.685 89.7673C128.715 89.582 128.33 89.5563 128.197 89.455C127.954 89.2707 127.61 89.5916 127.462 89.7555Z" fill="url(#paint2_linear_2597_23423)"/>
<path d="M136.876 85.9654C136.876 85.6214 137.352 85.2637 137.685 85.2637C137.955 85.2708 138.057 85.3685 138.428 85.5741C138.686 85.7176 138.865 85.8761 139.075 86.0869C139.374 86.3852 139.675 86.5745 139.764 87.0196C139.8 87.2026 139.835 87.3984 139.873 87.5714C139.919 87.7778 139.898 88.0055 139.898 88.2206C139.898 88.6056 139.872 88.981 139.872 89.3662C139.872 89.4811 139.888 89.562 139.818 89.6496C139.747 89.7378 139.617 89.7116 139.534 89.7576C139.389 89.8384 139.025 89.7711 138.859 89.7711C138.754 89.7711 138.655 89.7647 138.576 89.6901C138.501 89.6194 138.338 89.5289 138.306 89.4322C138.223 89.1846 138.152 88.9449 138.096 88.6915C138.076 88.5988 138.096 88.5079 138.069 88.4156C138.054 88.3631 138.039 88.2868 138.036 88.2326C138.029 88.081 137.961 87.9491 137.955 87.7948C137.947 87.5846 137.821 87.4091 137.733 87.234C137.66 87.0884 137.485 86.9831 137.367 86.8771C137.217 86.7418 137.015 86.7314 136.984 86.4782C136.975 86.4121 136.895 86.3344 136.855 86.2833C136.803 86.2185 136.876 86.04 136.876 85.9654Z" fill="#413F3E"/>
<defs>
<filter id="filter0_f_2597_23423" x="-99.1025" y="-15.7623" width="268.145" height="82.4708" filterUnits="userSpaceOnUse" color-interpolation-filters="sRGB">
<feFlood flood-opacity="0" result="BackgroundImageFix"/>
<feBlend mode="normal" in="SourceGraphic" in2="BackgroundImageFix" result="shape"/>
<feGaussianBlur stdDeviation="3" result="effect1_foregroundBlur_2597_23423"/>
</filter>
<filter id="filter1_f_2597_23423" x="-11.1006" y="-0.148804" width="157.865" height="70.1409" filterUnits="userSpaceOnUse" color-interpolation-filters="sRGB">
<feFlood flood-opacity="0" result="BackgroundImageFix"/>
<feBlend mode="normal" in="SourceGraphic" in2="BackgroundImageFix" result="shape"/>
<feGaussianBlur stdDeviation="3" result="effect1_foregroundBlur_2597_23423"/>
</filter>
<filter id="filter2_f_2597_23423" x="45.7598" y="54.7087" width="119.606" height="71.7402" filterUnits="userSpaceOnUse" color-interpolation-filters="sRGB">
<feFlood flood-opacity="0" result="BackgroundImageFix"/>
<feBlend mode="normal" in="SourceGraphic" in2="BackgroundImageFix" result="shape"/>
<feGaussianBlur stdDeviation="3" result="effect1_foregroundBlur_2597_23423"/>
</filter>
<filter id="filter3_f_2597_23423" x="-158.317" y="40.2552" width="241.678" height="58.4626" filterUnits="userSpaceOnUse" color-interpolation-filters="sRGB">
<feFlood flood-opacity="0" result="BackgroundImageFix"/>
<feBlend mode="normal" in="SourceGraphic" in2="BackgroundImageFix" result="shape"/>
<feGaussianBlur stdDeviation="3" result="effect1_foregroundBlur_2597_23423"/>
</filter>
<filter id="filter4_f_2597_23423" x="-78.9121" y="42.2709" width="251.088" height="65.5074" filterUnits="userSpaceOnUse" color-interpolation-filters="sRGB">
<feFlood flood-opacity="0" result="BackgroundImageFix"/>
<feBlend mode="normal" in="SourceGraphic" in2="BackgroundImageFix" result="shape"/>
<feGaussianBlur stdDeviation="3" result="effect1_foregroundBlur_2597_23423"/>
</filter>
<filter id="filter5_f_2597_23423" x="-65.209" y="50.1908" width="251.088" height="65.5074" filterUnits="userSpaceOnUse" color-interpolation-filters="sRGB">
<feFlood flood-opacity="0" result="BackgroundImageFix"/>
<feBlend mode="normal" in="SourceGraphic" in2="BackgroundImageFix" result="shape"/>
<feGaussianBlur stdDeviation="3" result="effect1_foregroundBlur_2597_23423"/>
</filter>
<filter id="filter6_f_2597_23423" x="-143.944" y="0.0622559" width="188.406" height="126.588" filterUnits="userSpaceOnUse" color-interpolation-filters="sRGB">
<feFlood flood-opacity="0" result="BackgroundImageFix"/>
<feBlend mode="normal" in="SourceGraphic" in2="BackgroundImageFix" result="shape"/>
<feGaussianBlur stdDeviation="3" result="effect1_foregroundBlur_2597_23423"/>
</filter>
<filter id="filter7_f_2597_23423" x="-53.9346" y="-5.65356" width="328.115" height="71.9475" filterUnits="userSpaceOnUse" color-interpolation-filters="sRGB">
<feFlood flood-opacity="0" result="BackgroundImageFix"/>
<feBlend mode="normal" in="SourceGraphic" in2="BackgroundImageFix" result="shape"/>
<feGaussianBlur stdDeviation="3" result="effect1_foregroundBlur_2597_23423"/>
</filter>
<filter id="filter8_f_2597_23423" x="-0.614258" y="44.6511" width="328.115" height="71.9475" filterUnits="userSpaceOnUse" color-interpolation-filters="sRGB">
<feFlood flood-opacity="0" result="BackgroundImageFix"/>
<feBlend mode="normal" in="SourceGraphic" in2="BackgroundImageFix" result="shape"/>
<feGaussianBlur stdDeviation="3" result="effect1_foregroundBlur_2597_23423"/>
</filter>
<filter id="filter9_f_2597_23423" x="-15.7109" y="40.0513" width="60.4775" height="26.0743" filterUnits="userSpaceOnUse" color-interpolation-filters="sRGB">
<feFlood flood-opacity="0" result="BackgroundImageFix"/>
<feBlend mode="normal" in="SourceGraphic" in2="BackgroundImageFix" result="shape"/>
<feGaussianBlur stdDeviation="3" result="effect1_foregroundBlur_2597_23423"/>
</filter>
<filter id="filter10_f_2597_23423" x="-7.11133" y="23.4802" width="119.606" height="71.7402" filterUnits="userSpaceOnUse" color-interpolation-filters="sRGB">
<feFlood flood-opacity="0" result="BackgroundImageFix"/>
<feBlend mode="normal" in="SourceGraphic" in2="BackgroundImageFix" result="shape"/>
<feGaussianBlur stdDeviation="3" result="effect1_foregroundBlur_2597_23423"/>
</filter>
<filter id="filter11_f_2597_23423" x="131.409" y="109.126" width="33.0752" height="24.2422" filterUnits="userSpaceOnUse" color-interpolation-filters="sRGB">
<feFlood flood-opacity="0" result="BackgroundImageFix"/>
<feBlend mode="normal" in="SourceGraphic" in2="BackgroundImageFix" result="shape"/>
<feGaussianBlur stdDeviation="1" result="effect1_foregroundBlur_2597_23423"/>
</filter>
<linearGradient id="paint0_linear_2597_23423" x1="129.378" y1="91.2629" x2="138.449" y2="112.633" gradientUnits="userSpaceOnUse">
<stop stop-color="#7B7877"/>
<stop offset="0.196694" stop-color="#454342"/>
<stop offset="1" stop-color="#32302F"/>
</linearGradient>
<linearGradient id="paint1_linear_2597_23423" x1="134.401" y1="112.203" x2="161.861" y2="126.155" gradientUnits="userSpaceOnUse">
<stop stop-color="#32302F" stop-opacity="0.7"/>
<stop offset="1" stop-color="#C9D1DB" stop-opacity="0"/>
</linearGradient>
<linearGradient id="paint2_linear_2597_23423" x1="130.094" y1="91.9799" x2="126.872" y2="92.6743" gradientUnits="userSpaceOnUse">
<stop stop-color="#0D0C0C"/>
<stop offset="1" stop-color="#32302F"/>
</linearGradient>
</defs>
</svg>
