<svg xmlns="http://www.w3.org/2000/svg" width="41" height="13" viewBox="0 0 41 13">
    <defs>
        <filter id="534oij0dba">
            <feColorMatrix in="SourceGraphic" values="0 0 0 0 0.637700 0 0 0 0 0.710822 0 0 0 0 0.790591 0 0 0 0.800000 0"/>
        </filter>
    </defs>
    <g fill="none" fill-rule="evenodd" filter="url(#534oij0dba)" transform="translate(-463 -832)">
        <path fill="#40474F" d="M468.428 845c.808 0 1.544-.122 2.207-.367.664-.244 1.23-.584 1.701-1.019.47-.435.836-.954 1.095-1.556.26-.602.389-1.26.389-1.975v-7.1c0-.655-.332-.983-.995-.983h-1.176c-.664 0-.995.328-.995.983v7.1c0 .679-.202 1.192-.607 1.537-.404.346-.95.519-1.637.519-.688 0-1.233-.173-1.637-.519-.405-.345-.607-.858-.607-1.537v-7.1c0-.655-.331-.983-.995-.983h-1.176c-.663 0-.995.328-.995.983v7.1c0 .715.13 1.373.389 1.975.26.602.624 1.121 1.095 1.556.47.435 1.04.775 1.71 1.02.669.244 1.414.366 2.234.366zm10.766-.125c.362 0 .62-.09.778-.268.157-.18.235-.424.235-.734v-.876c0-.274-.066-.477-.2-.608-.132-.13-.307-.208-.524-.232-.145-.024-.268-.096-.37-.215-.103-.119-.154-.351-.154-.697v-8.262c0-.655-.332-.983-.996-.983h-1.14c-.663 0-.995.328-.995.983v8.405c0 .775.1 1.392.299 1.85.199.46.458.811.778 1.056.32.244.681.402 1.086.474.404.071.805.107 1.203.107zm6.785 0c.422 0 .742-.072.959-.215.217-.143.325-.4.325-.769v-.804c0-.346-.075-.584-.226-.716-.15-.13-.407-.22-.769-.268-.277-.036-.527-.14-.75-.313-.224-.173-.335-.456-.335-.85v-2.789h.977c.651 0 .977-.328.977-.983v-.447c0-.656-.332-.984-.995-.984h-.96v-1.663c0-.655-.331-.983-.994-.983h-1.05c-.663 0-.995.328-.995.983v1.663h-.344c-.663 0-.995.328-.995.984v.447c0 .655.326.983.977.983h.272v3.362c0 .68.138 1.237.416 1.672.277.435.62.778 1.031 1.028.41.25.838.423 1.285.519.446.095.844.143 1.194.143zm4.795-.09c.663 0 .995-.327.995-.983v-2.593c0-.37.045-.721.135-1.055.09-.334.227-.626.408-.876.18-.25.41-.45.687-.6.278-.148.603-.223.977-.223.664 0 .995-.328.995-.983v-1.002c0-.321-.063-.566-.19-.733-.126-.167-.346-.25-.66-.25-.29 0-.57.071-.841.215-.272.143-.516.321-.733.536-.217.215-.404.453-.561.715-.157.262-.272.513-.344.751h-.036c0-.06.006-.119.018-.179 0-.06.003-.119.01-.178.005-.06.008-.132.008-.215v-.572c0-.656-.332-.984-.995-.984h-1.013c-.664 0-.995.328-.995.984v7.242c0 .656.331.983.995.983h1.14zm7.599.215c.458 0 .862-.075 1.212-.224.35-.149.64-.318.869-.51.265-.214.488-.458.67-.732h.035c-.012.012-.018.03-.018.053v.197c0 .668.332 1.001.995 1.001h.869c.663 0 .995-.327.995-.983v-4.685c0-1.18-.37-2.101-1.113-2.763-.742-.661-1.758-.992-3.049-.992-.675 0-1.278.077-1.809.232-.53.155-.97.316-1.32.483-.278.143-.447.33-.507.563-.06.233-.024.486.108.76l.217.447c.278.549.724.692 1.34.43.24-.108.506-.203.795-.287.29-.083.585-.125.887-.125.35 0 .657.075.923.224.265.149.398.414.398.795v.161h-.272c-.579 0-1.176.048-1.79.143-.616.096-1.183.263-1.702.501-.518.239-.944.56-1.275.966-.332.405-.498.918-.498 1.538 0 .393.076.763.226 1.108.151.346.36.644.625.894s.585.447.959.59c.373.143.784.215 1.23.215zm.94-2.307c-.289 0-.509-.077-.66-.232-.15-.155-.226-.34-.226-.555 0-.214.07-.39.208-.527.139-.137.314-.247.525-.33.211-.084.446-.144.706-.18.259-.035.51-.053.75-.053h.29v.25c0 .19-.04.382-.118.572-.078.191-.19.364-.334.519-.145.155-.314.283-.507.384-.193.102-.404.152-.633.152z"/>
    </g>
</svg>
