<svg width="148" height="102" viewBox="0 0 148 102" fill="none" xmlns="http://www.w3.org/2000/svg">
<mask id="path-1-inside-1_14280_16193" fill="white">
<path fill-rule="evenodd" clip-rule="evenodd" d="M113.006 96.5395C132.043 96.5395 147.475 81.1586 147.475 62.1853C147.475 43.212 132.043 27.8311 113.006 27.8311C93.9693 27.8311 78.537 43.212 78.537 62.1853C78.537 74.678 85.2275 85.6132 95.2321 91.6259C94.5534 95.7006 92.2177 99.7781 90.754 101.758C95.6755 100.356 99.0366 97.1777 101.022 94.4063C104.755 95.7858 108.792 96.5395 113.006 96.5395Z"/>
</mask>
<path fill-rule="evenodd" clip-rule="evenodd" d="M113.006 96.5395C132.043 96.5395 147.475 81.1586 147.475 62.1853C147.475 43.212 132.043 27.8311 113.006 27.8311C93.9693 27.8311 78.537 43.212 78.537 62.1853C78.537 74.678 85.2275 85.6132 95.2321 91.6259C94.5534 95.7006 92.2177 99.7781 90.754 101.758C95.6755 100.356 99.0366 97.1777 101.022 94.4063C104.755 95.7858 108.792 96.5395 113.006 96.5395Z" fill="url(#paint0_linear_14280_16193)"/>
<path d="M95.2321 91.6259L97.2049 91.9546L97.4285 90.6125L96.2624 89.9117L95.2321 91.6259ZM90.754 101.758L89.1457 100.569L85.6561 105.289L91.3017 103.681L90.754 101.758ZM101.022 94.4063L101.716 92.5303L100.285 92.0015L99.3965 93.2415L101.022 94.4063ZM145.475 62.1853C145.475 80.0477 130.945 94.5395 113.006 94.5395V98.5395C133.141 98.5395 149.475 82.2694 149.475 62.1853H145.475ZM113.006 29.8311C130.945 29.8311 145.475 44.3228 145.475 62.1853H149.475C149.475 42.1011 133.141 25.8311 113.006 25.8311V29.8311ZM80.537 62.1853C80.537 44.3228 95.0676 29.8311 113.006 29.8311V25.8311C92.8711 25.8311 76.537 42.1011 76.537 62.1853H80.537ZM96.2624 89.9117C86.8325 84.2444 80.537 73.9451 80.537 62.1853H76.537C76.537 75.4108 83.6225 86.982 94.2019 93.3402L96.2624 89.9117ZM93.2593 91.2973C92.6513 94.9473 90.5045 98.7312 89.1457 100.569L92.3622 102.947C93.931 100.825 96.4554 96.4539 97.2049 91.9546L93.2593 91.2973ZM91.3017 103.681C96.7713 102.124 100.477 98.6011 102.648 95.5712L99.3965 93.2415C97.5962 95.7542 94.5797 98.589 90.2062 99.8344L91.3017 103.681ZM113.006 94.5395C109.032 94.5395 105.229 93.829 101.716 92.5303L100.329 96.2823C104.28 97.7426 108.552 98.5395 113.006 98.5395V94.5395Z" fill="#FFFDFB" mask="url(#path-1-inside-1_14280_16193)"/>
<mask id="path-3-inside-2_14280_16193" fill="white">
<path fill-rule="evenodd" clip-rule="evenodd" d="M49.9549 65.0545C61.2144 59.4017 68.9382 47.777 68.9382 34.3542C68.9382 15.3809 53.5059 0 34.4691 0C15.4323 0 0 15.3809 0 34.3542C0 53.3275 15.4323 68.7084 34.4691 68.7084C37.2062 68.7084 39.8687 68.3904 42.4216 67.7896L42.3231 67.8387C43.3411 70.5928 47.2098 76.6229 54.54 78.7103C52.6479 76.151 49.299 70.087 49.9549 65.0545Z"/>
</mask>
<path fill-rule="evenodd" clip-rule="evenodd" d="M49.9549 65.0545C61.2144 59.4017 68.9382 47.777 68.9382 34.3542C68.9382 15.3809 53.5059 0 34.4691 0C15.4323 0 0 15.3809 0 34.3542C0 53.3275 15.4323 68.7084 34.4691 68.7084C37.2062 68.7084 39.8687 68.3904 42.4216 67.7896L42.3231 67.8387C43.3411 70.5928 47.2098 76.6229 54.54 78.7103C52.6479 76.151 49.299 70.087 49.9549 65.0545Z" fill="url(#paint1_linear_14280_16193)"/>
<path d="M49.9549 65.0545L49.0575 63.2671L48.1089 63.7434L47.9717 64.7961L49.9549 65.0545ZM42.4216 67.7896L43.3136 69.5796L41.9634 65.8428L42.4216 67.7896ZM42.3231 67.8387L41.431 66.0486L39.8249 66.849L40.4471 68.5321L42.3231 67.8387ZM54.54 78.7103L53.9922 80.6338L59.6378 82.2415L56.1482 77.5213L54.54 78.7103ZM66.9382 34.3542C66.9382 46.9891 59.6698 57.9393 49.0575 63.2671L50.8522 66.8419C62.7591 60.8641 70.9382 48.5648 70.9382 34.3542H66.9382ZM34.4691 2C52.4076 2 66.9382 16.4918 66.9382 34.3542H70.9382C70.9382 14.27 54.6041 -2 34.4691 -2V2ZM2 34.3542C2 16.4918 16.5306 2 34.4691 2V-2C14.3341 -2 -2 14.27 -2 34.3542H2ZM34.4691 66.7084C16.5306 66.7084 2 52.2166 2 34.3542H-2C-2 54.4384 14.3341 70.7084 34.4691 70.7084V66.7084ZM41.9634 65.8428C39.5596 66.4086 37.0508 66.7084 34.4691 66.7084V70.7084C37.3615 70.7084 40.1778 70.3723 42.8798 69.7364L41.9634 65.8428ZM43.2151 69.6287L43.3136 69.5796L41.5295 65.9995L41.431 66.0486L43.2151 69.6287ZM55.0877 76.7867C48.5411 74.9225 45.0653 69.4887 44.199 67.1452L40.4471 68.5321C41.617 71.6969 45.8785 78.3233 53.9922 80.6338L55.0877 76.7867ZM47.9717 64.7961C47.5798 67.8024 48.3881 70.9508 49.4365 73.5564C50.4968 76.1917 51.8935 78.495 52.9317 79.8992L56.1482 77.5213C55.2943 76.3663 54.0706 74.3579 53.1474 72.0633C52.2122 69.739 51.674 67.3391 51.9381 65.313L47.9717 64.7961Z" fill="#FFFDFB" mask="url(#path-3-inside-2_14280_16193)"/>
<mask id="mask0_14280_16193" style="mask-type:alpha" maskUnits="userSpaceOnUse" x="39" y="28" width="69" height="44">
<path fill-rule="evenodd" clip-rule="evenodd" d="M42.5721 35.8415C43.5213 36.0089 44.597 34.4191 44.9747 32.2906C45.3525 30.1621 44.8894 28.301 43.9402 28.1337C42.9911 27.9663 41.9154 29.5561 41.5376 31.6846C41.1598 33.8131 41.623 35.6742 42.5721 35.8415ZM90.6207 54.5514C91.5452 54.8235 92.7924 53.3635 93.4066 51.2904C94.0207 49.2174 93.7692 47.3163 92.8447 47.0443C91.9203 46.7722 90.673 48.2322 90.0589 50.3053C89.4448 52.3783 89.6963 54.2794 90.6207 54.5514ZM59.5832 34.8664C59.2054 36.9949 58.1297 38.5847 57.1805 38.4173C56.2314 38.25 55.7682 36.3888 56.146 34.2604C56.5238 32.1319 57.5995 30.5421 58.5486 30.7095C59.4978 30.8768 59.961 32.7379 59.5832 34.8664ZM104.849 58.7381C105.774 59.0101 107.021 57.5501 107.635 55.4771C108.249 53.404 107.998 51.503 107.073 51.2309C106.149 50.9589 104.901 52.4189 104.287 54.4919C103.673 56.565 103.925 58.466 104.849 58.7381ZM41.584 41.4084C42.2958 41.5339 42.7708 42.2108 42.6449 42.9203C42.112 45.9225 44.2751 48.9488 47.6719 49.5477C51.0686 50.1465 54.1421 48.0436 54.675 45.0414C54.8009 44.3319 55.4801 43.8585 56.192 43.984C56.9038 44.1095 57.3788 44.7864 57.2529 45.4959C56.4425 50.0616 51.8869 52.9405 47.2159 52.1169C42.5448 51.2934 39.2566 47.0315 40.067 42.4658C40.193 41.7563 40.8721 41.2829 41.584 41.4084ZM89.9 61.5937C90.1048 60.9027 89.7087 60.1771 89.0153 59.9731C88.322 59.7691 87.594 60.1639 87.3893 60.8549C86.0719 65.3017 88.8615 69.9032 93.4109 71.2419C97.9603 72.5807 102.81 70.2274 104.128 65.7806C104.332 65.0896 103.936 64.364 103.243 64.16C102.55 63.9559 101.822 64.3507 101.617 65.0417C100.751 67.9658 97.4606 69.7131 94.1523 68.7396C90.844 67.766 89.0338 64.5177 89.9 61.5937Z" fill="#ABABAB"/>
</mask>
<g mask="url(#mask0_14280_16193)">
<g filter="url(#filter0_f_14280_16193)">
<path d="M-51.9991 9.39632C-53.1816 18.3844 -54.2587 27.4064 -55.4938 36.3776C-56.6216 44.9307 -50.9579 48.2224 -32.0391 54.0781C11.4953 67.5078 54.9786 81.781 98.492 95.815C106.017 98.2341 112.438 97.6734 112.828 94.5629C115.603 72.4418 118.382 50.299 121.262 28.2117L-51.9991 9.39632Z" fill="#FFB9F8"/>
</g>
<g filter="url(#filter1_f_14280_16193)">
<path d="M-73.1771 128.673C-70.3361 130.52 -67.3997 132.337 -64.6064 134.2C-61.9049 135.959 -56.1609 134.508 -39.1202 128.84C0.073837 115.789 39.5806 102.891 79.0107 89.945C85.8263 87.7049 90.5457 85.3744 89.5479 84.7416C82.4518 80.2413 75.3487 75.7367 68.3478 71.2051L-73.1771 128.673Z" fill="#FFB9F8"/>
</g>
<path d="M-36.3033 181.813C-37.9029 195.103 -39.5173 208.387 -41.1259 221.687C-35.5219 212.024 -30.5168 201.077 -26.0465 190.03C-22.0366 180.109 -18.1717 169.732 -12.7302 162.041C-8.1345 155.541 -2.76951 151.395 2.90746 148.232C9.15864 137.871 16.5939 130.193 25.295 125.473C31.8019 121.947 32.9332 126.392 39.4235 126.933C34.558 135.533 46.4899 133.269 51.6414 124.932C53.7512 121.517 51.9828 122.107 54.4105 119.373C56.1131 117.471 56.0053 112.951 57.9154 111.814C66.6469 106.654 71.707 84.0362 80.7 80.4649C71.5546 71.7875 59.062 91.8122 48.8414 89.7003C36.8962 109.26 28.1438 112.745 12.6718 122.402C11.3968 123.194 10.1115 123.944 8.82043 124.679L-34.4868 170.415C-35.2289 174.177 -35.8374 177.979 -36.3033 181.813Z" fill="#71BBFF"/>
<g filter="url(#filter3_f_14280_16193)">
<path d="M33.6618 32.0115C19.8343 40.4034 5.99963 48.7845 -7.8447 57.179C5.64276 53.3778 19.8834 48.3756 33.8058 43.0267C46.3057 38.2203 59.1246 33.0231 70.6181 30.5058C80.3296 28.3765 88.405 28.2795 95.7904 29.026C110.439 25.0762 123.462 23.6007 134.66 24.8339C143.031 25.7586 139.694 29.4287 144.199 33.1662C132.29 36.6124 143.659 41.2234 155.54 38.1077C160.406 36.8316 158.48 36.3249 162.947 35.6857C166.065 35.248 170.265 32.0559 172.819 32.2566C184.457 33.2003 209.798 20.1287 220.134 22.3099C221.285 11.5511 185.063 22.7358 179.162 15.9755C151.397 23.3578 148.922 17.4783 127.811 16.163C126.075 16.0524 124.371 15.9068 122.676 15.7478L45.8647 25.0445C41.7276 27.2696 37.6543 29.5928 33.6618 32.0115Z" fill="#71BBFF"/>
</g>
<g filter="url(#filter4_f_14280_16193)">
<path d="M98.5461 44.9464C98.0462 45.5436 97.4638 45.6655 96.7002 46.3001C95.0788 46.4543 96.012 47.6449 97.2765 47.942C99.0573 48.3603 99.2094 47.5481 100.273 47.0916C102.137 46.2912 103.221 45.6166 105.492 45.0684C107.161 44.6655 111.511 45.0988 113.364 45.3946C116.125 45.8351 117.577 43.2727 118.892 42.2864C120.787 40.8652 121.522 39.284 124.389 38.4082C127.23 37.5405 130.565 37.449 133.697 37.1087C137.161 36.7321 139.73 36.4207 142.089 34.6519C144.091 33.1507 141.977 31.4165 140.995 30.043C140.028 28.6903 136.156 28.1309 134.117 27.7278C131.48 27.2061 129.666 27.5398 127.13 27.8736C124.308 28.2452 122.455 30.2546 119.736 30.6125C117.576 30.8969 113.33 30.6446 112.038 31.9759C109.488 34.6026 108.506 37.2171 103.38 38.4544C101.426 38.9262 100.607 41.3817 100.112 42.5825C99.7238 43.5249 99.2283 44.1315 98.5461 44.9464Z" fill="#71BBFF"/>
</g>
<g filter="url(#filter5_f_14280_16193)">
<path d="M83.6393 32.0405C95.0218 30.0745 113.309 25.5015 121.516 18.8346C116.727 13.3196 108.806 25.6995 104.018 20.1845L86.5181 24.4694C81.9166 28.0311 79.4734 27.2422 83.6393 32.0405Z" fill="#0A9F68"/>
</g>
<g filter="url(#filter6_f_14280_16193)">
<path d="M-40.2259 89.9818C-40.6811 90.6283 -40.5708 91.3297 -41.0409 92.0079C-41.511 92.686 -42.8603 94.4684 -42.6849 94.8512C-42.4313 95.4043 -42.7855 96.4422 -41.4364 96.6405C-40.1326 96.8321 -38.3053 96.2708 -36.9422 95.9486C-31.9389 94.7661 -27.121 92.9119 -22.2894 91.425C-19.846 90.6731 -17.2365 90.3148 -14.7236 89.6303C-13.499 89.2968 -12.9495 88.8118 -11.5643 88.6367C-10.234 88.4685 -8.99972 88.0712 -7.7366 87.7272C-4.67996 86.8946 -1.77944 86.7662 1.40687 86.4343C4.92434 86.068 9.48895 84.5354 12.6851 83.4362C22.899 79.9234 29.0989 74.0666 37.0174 69.0894C40.0891 67.1586 42.5225 64.9458 45.8797 63.156C49.4159 61.2708 53.4801 60.1393 57.6641 58.9997C64.7992 57.0561 72.7131 55.0583 79.1597 52.2277C82.1471 50.9159 84.7198 49.4808 86.333 47.4642C88.0718 45.2905 85.7201 41.9061 82.8807 40.7447C81.3041 40.0999 77.6413 40.2015 75.6274 40.2658C73.4916 40.3339 71.3614 40.5516 69.2312 40.7955C61.2778 41.7061 53.4806 44.3336 46.9044 47.4242C38.6488 51.3041 29.9618 52.0279 20.738 54.1672C16.3129 55.1936 12.1014 56.5691 7.91775 57.9107C5.14471 58.8 3.19367 60.9359 1.15103 62.2973C-4.58859 66.1229 -7.64205 70.8071 -14.5112 74.0163C-17.7003 75.5062 -21.0819 76.9503 -24.7012 77.975C-26.6698 78.5323 -29.634 79.3213 -31.1147 80.3874C-33.8672 82.369 -37.4439 84.58 -38.499 87.0568C-38.8838 87.9599 -39.6179 89.1185 -40.2259 89.9818Z" fill="#FFE665"/>
</g>
<g filter="url(#filter7_f_14280_16193)">
<path d="M71.3917 85.4066C71.3437 85.9025 71.6275 86.4192 71.5813 86.9392C71.5351 87.4592 71.3504 88.8298 71.5693 89.1077C71.8857 89.5093 72.018 90.2922 72.8307 90.3917C73.6163 90.4879 74.454 90.0067 75.1095 89.7194C77.5155 88.6649 79.6056 87.1185 81.8197 85.8441C82.9394 85.1997 84.2763 84.8416 85.456 84.2448C86.0309 83.9539 86.1826 83.5746 86.897 83.3956C87.5831 83.2238 88.1432 82.8853 88.7362 82.5853C90.1712 81.8593 91.7427 81.6615 93.4086 81.3027C95.2477 80.9065 97.2989 79.6077 98.7269 78.6789C103.29 75.7107 104.879 71.1445 107.702 67.1704C108.797 65.6288 109.448 63.9004 110.746 62.4533C112.114 60.929 114.014 59.9457 115.979 58.9519C119.328 57.2573 123.094 55.4948 125.779 53.1661C127.024 52.0869 127.999 50.9308 128.256 49.3769C128.533 47.7021 126.152 45.2731 124.206 44.5114C123.125 44.0885 121.121 44.2933 120.022 44.4121C118.856 44.5382 117.741 44.775 116.635 45.0313C112.502 45.9881 109.002 48.2139 106.326 50.7402C102.968 53.9117 98.3687 54.7558 93.9201 56.6695C91.7859 57.5877 89.8811 58.7575 87.9811 59.9011C86.7217 60.6591 86.3146 62.3133 85.611 63.3961C83.6339 66.4383 83.4223 70.0231 80.6219 72.6478C79.3217 73.8663 77.9 75.0577 76.2132 75.946C75.2957 76.4292 73.8982 77.1196 73.4133 77.9632C72.5118 79.5314 71.2249 81.2988 71.4239 83.1744C71.4965 83.8584 71.4559 84.7443 71.3917 85.4066Z" fill="#FFE665"/>
</g>
<g filter="url(#filter8_f_14280_16193)">
<path d="M77.6879 97.4876C77.975 102.407 78.2557 107.328 78.5399 112.252C80.1245 108.024 81.377 103.432 82.4066 98.8821C83.3294 94.7966 84.1616 90.5721 85.819 87.0633C87.2184 84.0982 89.0938 81.8506 91.1642 79.9037C92.9611 75.3352 95.8614 75.5604 99.0437 72.6217C101.424 70.4253 102.057 71.4939 104.716 70.7337C103.355 74.4784 107.713 68.2436 109.208 64.5496C109.82 63.0367 109.147 63.5038 109.936 62.1842C110.49 61.2642 110.129 59.6863 110.82 59.0056C113.984 55.9073 114.44 47.1917 117.82 44.6152C113.518 42.8956 112.482 48.8212 108.207 49.5739C104.756 58.2198 98.8636 63.6951 93.2938 69.3665C92.8345 69.8328 92.3682 70.2854 91.8984 70.7337L77.6213 93.203C77.5857 94.6378 77.6069 96.0676 77.6879 97.4876Z" fill="#71BBFF"/>
</g>
<g filter="url(#filter9_f_14280_16193)">
<ellipse cx="105.814" cy="55.3027" rx="6.2677" ry="5.16164" fill="#71BBFF"/>
</g>
</g>
<defs>
<filter id="filter0_f_14280_16193" x="-59.6307" y="5.39648" width="184.893" height="95.9214" filterUnits="userSpaceOnUse" color-interpolation-filters="sRGB">
<feFlood flood-opacity="0" result="BackgroundImageFix"/>
<feBlend mode="normal" in="SourceGraphic" in2="BackgroundImageFix" result="shape"/>
<feGaussianBlur stdDeviation="2" result="effect1_foregroundBlur_14280_16193"/>
</filter>
<filter id="filter1_f_14280_16193" x="-77.1771" y="67.2051" width="170.858" height="71.6982" filterUnits="userSpaceOnUse" color-interpolation-filters="sRGB">
<feFlood flood-opacity="0" result="BackgroundImageFix"/>
<feBlend mode="normal" in="SourceGraphic" in2="BackgroundImageFix" result="shape"/>
<feGaussianBlur stdDeviation="2" result="effect1_foregroundBlur_14280_16193"/>
</filter>
<filter id="filter3_f_14280_16193" x="-11.8447" y="11.7476" width="236.005" height="49.4316" filterUnits="userSpaceOnUse" color-interpolation-filters="sRGB">
<feFlood flood-opacity="0" result="BackgroundImageFix"/>
<feBlend mode="normal" in="SourceGraphic" in2="BackgroundImageFix" result="shape"/>
<feGaussianBlur stdDeviation="2" result="effect1_foregroundBlur_14280_16193"/>
</filter>
<filter id="filter4_f_14280_16193" x="91.8364" y="23.4565" width="55.0845" height="28.6016" filterUnits="userSpaceOnUse" color-interpolation-filters="sRGB">
<feFlood flood-opacity="0" result="BackgroundImageFix"/>
<feBlend mode="normal" in="SourceGraphic" in2="BackgroundImageFix" result="shape"/>
<feGaussianBlur stdDeviation="2" result="effect1_foregroundBlur_14280_16193"/>
</filter>
<filter id="filter5_f_14280_16193" x="77.5021" y="13.3838" width="48.0135" height="22.6567" filterUnits="userSpaceOnUse" color-interpolation-filters="sRGB">
<feFlood flood-opacity="0" result="BackgroundImageFix"/>
<feBlend mode="normal" in="SourceGraphic" in2="BackgroundImageFix" result="shape"/>
<feGaussianBlur stdDeviation="2" result="effect1_foregroundBlur_14280_16193"/>
</filter>
<filter id="filter6_f_14280_16193" x="-46.7004" y="36.2183" width="137.628" height="64.4609" filterUnits="userSpaceOnUse" color-interpolation-filters="sRGB">
<feFlood flood-opacity="0" result="BackgroundImageFix"/>
<feBlend mode="normal" in="SourceGraphic" in2="BackgroundImageFix" result="shape"/>
<feGaussianBlur stdDeviation="2" result="effect1_foregroundBlur_14280_16193"/>
</filter>
<filter id="filter7_f_14280_16193" x="67.3862" y="40.2568" width="64.8917" height="54.1475" filterUnits="userSpaceOnUse" color-interpolation-filters="sRGB">
<feFlood flood-opacity="0" result="BackgroundImageFix"/>
<feBlend mode="normal" in="SourceGraphic" in2="BackgroundImageFix" result="shape"/>
<feGaussianBlur stdDeviation="2" result="effect1_foregroundBlur_14280_16193"/>
</filter>
<filter id="filter8_f_14280_16193" x="74.6046" y="41.3037" width="46.2157" height="73.9487" filterUnits="userSpaceOnUse" color-interpolation-filters="sRGB">
<feFlood flood-opacity="0" result="BackgroundImageFix"/>
<feBlend mode="normal" in="SourceGraphic" in2="BackgroundImageFix" result="shape"/>
<feGaussianBlur stdDeviation="1.5" result="effect1_foregroundBlur_14280_16193"/>
</filter>
<filter id="filter9_f_14280_16193" x="95.5461" y="46.1411" width="20.5354" height="18.3232" filterUnits="userSpaceOnUse" color-interpolation-filters="sRGB">
<feFlood flood-opacity="0" result="BackgroundImageFix"/>
<feBlend mode="normal" in="SourceGraphic" in2="BackgroundImageFix" result="shape"/>
<feGaussianBlur stdDeviation="2" result="effect1_foregroundBlur_14280_16193"/>
</filter>
<linearGradient id="paint0_linear_14280_16193" x1="113" y1="75.5" x2="140.793" y2="32.4812" gradientUnits="userSpaceOnUse">
<stop stop-color="white"/>
<stop offset="1" stop-color="#FFFDFB" stop-opacity="0.53"/>
</linearGradient>
<linearGradient id="paint1_linear_14280_16193" x1="28" y1="58" x2="17.6828" y2="0.596192" gradientUnits="userSpaceOnUse">
<stop stop-color="white"/>
<stop offset="1" stop-color="#FFFDFB" stop-opacity="0.54"/>
</linearGradient>
</defs>
</svg>
