<svg width="48" height="48" viewBox="0 0 48 48" fill="none" xmlns="http://www.w3.org/2000/svg">
<g clip-path="url(#clip0_154_195)">
<path d="M13.5655 45.6186C16.7207 47.1442 20.2605 48 24.0002 48C27.74 48 31.2797 47.1442 34.435 45.6186L36.522 24L34.435 2.38144C31.2797 0.85575 27.74 0 24.0002 0C20.2605 0 16.7207 0.85575 13.5655 2.38144L11.4785 24L13.5655 45.6186Z" fill="#FFDA44"/>
<path d="M34.4355 45.6178C42.4635 41.7359 48.0008 33.515 48.0008 24C48.0008 14.4851 42.4635 6.26414 34.4355 2.38232V45.6178Z" fill="#D80027"/>
<path d="M13.5652 45.6177V2.38228C5.53734 6.26409 0 14.4849 0 24C0 33.5151 5.53734 41.7359 13.5652 45.6177Z" fill="#0052B4"/>
<path d="M24 32.3478C24 28.518 24 24 24 24H30.2609V27.1304C30.2609 27.6742 29.2175 29.667 26.6419 31.3043C25.6664 31.9246 24.6566 32.1241 24 32.3478Z" fill="#D80027"/>
<path d="M17.7383 17.7391H23.9992V24H17.7383V17.7391Z" fill="#D80027"/>
<path d="M27.1305 15.6522C27.1305 14.4996 26.1961 13.5653 25.0436 13.5653C24.6629 13.5653 24.3072 13.6688 24.0001 13.8467C23.6929 13.6688 23.3373 13.5653 22.9567 13.5653C21.8041 13.5653 20.8697 14.4996 20.8697 15.6522H15.6523V26.0869C15.6523 29.9715 18.7373 32.218 21.1565 33.3826C20.9755 33.6918 20.8697 34.0506 20.8697 34.4348C20.8697 35.5875 21.8041 36.5218 22.9567 36.5218C23.3373 36.5218 23.693 36.4183 24.0001 36.2404C24.3073 36.4183 24.6629 36.5218 25.0436 36.5218C26.1961 36.5218 27.1305 35.5875 27.1305 34.4348C27.1305 34.0506 27.0248 33.6918 26.8437 33.3826C29.2629 32.218 32.3479 29.9716 32.3479 26.0869V15.6522H27.1305ZM29.2175 26.0869C29.2175 26.6307 29.2175 28.2855 26.642 29.9229C25.6664 30.5432 24.6567 30.9454 24.0001 31.169C23.3435 30.9454 22.3338 30.5432 21.3583 29.9229C18.7828 28.2855 18.7828 26.6307 18.7828 26.0869V18.7826H29.2175V26.0869Z" fill="#FF9811"/>
</g>
<defs>
<clipPath id="clip0_154_195">
<rect width="48" height="48" fill="white"/>
</clipPath>
</defs>
</svg>
