<svg width="48" height="48" viewBox="0 0 48 48" fill="none" xmlns="http://www.w3.org/2000/svg">
<g clip-path="url(#clip0_154_2372)">
<path d="M24 48C37.2548 48 48 37.2548 48 24C48 10.7452 37.2548 0 24 0C10.7452 0 0 10.7452 0 24C0 37.2548 10.7452 48 24 48Z" fill="#F0F0F0"/>
<path d="M13.5645 32.3479L15.6514 46.5075C18.2513 47.4723 21.0635 48.0001 23.9992 48.0001C34.3183 48.0001 43.1154 41.4871 46.5063 32.3479H13.5645Z" fill="black"/>
<path d="M13.5645 15.6522L15.6514 1.49259C18.2513 0.527812 21.0635 0 23.9992 0C34.3183 0 43.1154 6.513 46.5063 15.6522H13.5645Z" fill="#6DA544"/>
<path d="M0 24C0 34.3192 6.51309 43.1162 15.6522 46.5072V1.4928C6.51309 4.88383 0 13.6809 0 24Z" fill="#A2001D"/>
</g>
<defs>
<clipPath id="clip0_154_2372">
<rect width="48" height="48" fill="white"/>
</clipPath>
</defs>
</svg>
