<svg width="48" height="48" viewBox="0 0 48 48" fill="none" xmlns="http://www.w3.org/2000/svg">
<g clip-path="url(#clip0_154_175)">
<path d="M24 48C37.2548 48 48 37.2548 48 24C48 10.7452 37.2548 0 24 0C10.7452 0 0 10.7452 0 24C0 37.2548 10.7452 48 24 48Z" fill="#D80027"/>
<path d="M37.565 17.8134H28.8719C29.4085 17.2514 29.7388 16.4907 29.7388 15.6523C29.7388 13.9234 28.3373 12.5219 26.6084 12.5219C25.5192 12.5219 24.5604 13.0784 23.9997 13.9222C23.439 13.0784 22.4801 12.5219 21.391 12.5219C19.6622 12.5219 18.2606 13.9234 18.2606 15.6523C18.2606 16.4907 18.5909 17.2515 19.1275 17.8134H10.4346C10.4346 20.1186 12.4424 21.9872 14.7474 21.9872H14.6083C14.6083 24.2925 16.477 26.1613 18.7824 26.1613C18.7824 26.9079 18.9791 27.6078 19.3226 28.2138L15.8604 31.6761L18.5168 34.3322L22.2848 30.5643C22.4323 30.6184 22.585 30.6618 22.7427 30.6914L20.4658 35.8321L23.9997 39.6523L27.5336 35.8319L25.2567 30.6912C25.4145 30.6616 25.5671 30.6183 25.7147 30.5641L29.4827 34.332L32.139 31.6758L28.6767 28.2135C29.0203 27.6076 29.2171 26.9076 29.2171 26.161C31.5223 26.161 33.391 24.2924 33.391 21.9869H33.252C35.557 21.9871 37.565 20.1186 37.565 17.8134V17.8134Z" fill="black"/>
</g>
<defs>
<clipPath id="clip0_154_175">
<rect width="48" height="48" fill="white"/>
</clipPath>
</defs>
</svg>
