<svg width="48" height="48" viewBox="0 0 48 48" fill="none" xmlns="http://www.w3.org/2000/svg">
<g clip-path="url(#clip0_154_186)">
<path d="M24 48C37.2548 48 48 37.2548 48 24C48 10.7452 37.2548 0 24 0C10.7452 0 0 10.7452 0 24C0 37.2548 10.7452 48 24 48Z" fill="#F0F0F0"/>
<path d="M35.6434 3.0105C32.1949 1.0935 28.2253 0 24 0C10.7462 0 0.0016875 10.7436 0 23.9972L16.6957 15.6522L35.6434 3.0105Z" fill="#0052B4"/>
<path d="M0 24.0028C0.0016875 37.2564 10.7462 48 24 48C28.2253 48 32.1949 46.9067 35.6434 44.9895L16.6957 32.3478L0 24.0028Z" fill="#0052B4"/>
<path d="M37.6434 4.25456C36.9988 3.80841 36.3308 3.39347 35.6425 3.01088L0 23.9972V24C0 24 0 24.002 0 24.0028L35.6426 44.989C36.3309 44.6063 36.9988 44.1915 37.6435 43.7453L4.10831 24L37.6434 4.25456Z" fill="#D80027"/>
<path d="M41.7394 23.105H38.8806C39.6239 22.2125 39.5781 20.8847 38.7406 20.0474C39.6277 19.1605 39.6277 17.7222 38.7406 16.8351L38.6872 16.8887C39.5741 16.0017 39.6277 14.5099 38.7406 13.6229L25.8916 26.4719C26.7787 27.3591 28.1917 27.3485 29.0786 26.4614L29.3259 26.2354L35.4786 25.6761V28.3223H37.5655V25.4863L40.6959 25.2018L41.7394 23.105Z" fill="#A2001D"/>
<path d="M26.0877 29.2174L24 28.1739L26.0877 27.1304H39.6529V29.2174H26.0877Z" fill="#FFDA44"/>
</g>
<defs>
<clipPath id="clip0_154_186">
<rect width="48" height="48" fill="white"/>
</clipPath>
</defs>
</svg>
