<svg width="48" height="48" viewBox="0 0 48 48" fill="none" xmlns="http://www.w3.org/2000/svg">
<g clip-path="url(#clip0_154_275)">
<path d="M46.5072 32.3478C47.472 29.7479 48 26.9357 48 24C48 21.0643 47.472 18.2523 46.5072 15.6522L24 13.5652L1.49278 15.6522C0.528094 18.2523 0 21.0643 0 24C0 26.9357 0.528094 29.7479 1.49278 32.3478L24 34.4347L46.5072 32.3478Z" fill="#F0F0F0"/>
<path d="M24.0005 48C34.3195 48 43.1167 41.487 46.5076 32.3478H1.49316C4.88429 41.487 13.6812 48 24.0005 48Z" fill="#D80027"/>
<path d="M24.0005 0C13.6812 0 4.88429 6.513 1.49316 15.6522H46.5077C43.1167 6.513 34.3195 0 24.0005 0Z" fill="#D80027"/>
</g>
<defs>
<clipPath id="clip0_154_275">
<rect width="48" height="48" fill="white"/>
</clipPath>
</defs>
</svg>
