<svg width="48" height="48" viewBox="0 0 48 48" fill="none" xmlns="http://www.w3.org/2000/svg">
<g clip-path="url(#clip0_154_258)">
<path d="M48 24C48 37.2548 37.2548 48 24 48C10.7452 48 0 37.2548 0 24C0 24.0056 24 0.00271875 24 0C37.2548 0 48 10.7452 48 24Z" fill="#0052B4"/>
<path d="M24.0001 0C23.9988 0 23.9974 9.375e-05 23.9961 9.375e-05L24.0001 0Z" fill="#F0F0F0"/>
<path d="M23.9355 24H23.9998C23.9998 23.9782 23.9998 23.9574 23.9998 23.9358C23.9784 23.9572 23.957 23.9786 23.9355 24Z" fill="#F0F0F0"/>
<path d="M24 12.5218C24 8.29884 24 5.53162 24 9.15527e-05H23.996C10.743 0.0022478 0 10.7465 0 24H12.5217V16.9489L19.5728 24H23.9359C23.9573 23.9786 23.9787 23.9572 24.0001 23.9358C24.0001 22.3189 24.0001 20.8762 24.0001 19.573L16.9489 12.5218H24Z" fill="#F0F0F0"/>
<path d="M12.1425 3.13037C8.38883 5.26778 5.26827 8.38834 3.13086 12.142V24H9.39177V9.39137V9.39128H24.0005C24.0005 7.41662 24.0005 5.53543 24.0005 3.13037H12.1425Z" fill="#D80027"/>
<path d="M24.0006 21.0486L15.4738 12.5219H12.5225C12.5225 12.5218 12.5225 12.5219 12.5225 12.5219L24.0006 24H24.0006C24.0006 24 24.0006 21.9651 24.0006 21.0486Z" fill="#D80027"/>
<path d="M14.4746 28.174L15.7918 30.9281L18.7662 30.2407L17.4342 32.9877L19.8261 34.8846L16.848 35.5558L16.8563 38.6087L14.4746 36.6987L12.093 38.6087L12.1013 35.5558L9.12305 34.8846L11.5151 32.9877L10.1829 30.2407L13.1575 30.9281L14.4746 28.174Z" fill="#F0F0F0"/>
<path d="M35.9326 33.3913L36.5911 34.7684L38.0784 34.4246L37.4123 35.7981L38.6084 36.7466L37.1192 37.0822L37.1234 38.6087L35.9326 37.6536L34.7417 38.6087L34.7459 37.0822L33.2568 36.7466L34.4528 35.7981L33.7868 34.4246L35.274 34.7684L35.9326 33.3913Z" fill="#F0F0F0"/>
<path d="M29.8067 18.7827L30.4652 20.1598L31.9524 19.816L31.2864 21.1895L32.4824 22.138L30.9934 22.4736L30.9974 24L29.8067 23.045L28.6159 24L28.6199 22.4736L27.1309 22.138L28.3268 21.1895L27.6608 19.816L29.1481 20.1598L29.8067 18.7827Z" fill="#F0F0F0"/>
<path d="M35.9326 10.4348L36.5911 11.8119L38.0784 11.4682L37.4124 12.8417L38.6083 13.7901L37.1192 14.1258L37.1234 15.6522L35.9326 14.6972L34.7417 15.6522L34.7459 14.1258L33.2568 13.7901L34.4527 12.8417L33.7868 11.4682L35.274 11.8119L35.9326 10.4348Z" fill="#F0F0F0"/>
<path d="M41.2842 16.6956L41.9427 18.0728L43.43 17.7289L42.764 19.1025L43.9599 20.0509L42.4708 20.3866L42.4749 21.913L41.2842 20.9581L40.0934 21.913L40.0974 20.3866L38.6084 20.0509L39.8044 19.1025L39.1384 17.7289L40.6255 18.0728L41.2842 16.6956Z" fill="#F0F0F0"/>
<path d="M37.4581 24L37.976 25.5943H39.6525L38.2962 26.5797L38.8144 28.1739L37.4581 27.1886L36.1019 28.1739L36.6199 26.5797L35.2637 25.5943H36.94L37.4581 24Z" fill="#F0F0F0"/>
</g>
<defs>
<clipPath id="clip0_154_258">
<rect width="48" height="48" fill="white"/>
</clipPath>
</defs>
</svg>
