<svg width="48" height="48" viewBox="0 0 48 48" fill="none" xmlns="http://www.w3.org/2000/svg">
<g clip-path="url(#clip0_154_281)">
<path d="M48 24C48 21.0643 47.472 18.2521 46.5072 15.6522L24 14.6087L1.49278 15.6521C0.528094 18.2521 0 21.0643 0 24C0 26.9357 0.528094 29.7479 1.49278 32.3478L24 33.3913L46.5072 32.3479C47.472 29.7479 48 26.9357 48 24Z" fill="#D80027"/>
<path d="M24.0004 48C34.3195 48 43.1166 41.487 46.5076 32.3478H1.49316C4.8842 41.487 13.6812 48 24.0004 48Z" fill="#6DA544"/>
<path d="M1.49316 15.6522H46.5077C43.1166 6.513 34.3195 0 24.0004 0C13.6812 0 4.8842 6.513 1.49316 15.6522V15.6522Z" fill="#338AF3"/>
<path d="M24.5219 30.7826C20.776 30.7826 17.7393 27.7459 17.7393 24C17.7393 20.2541 20.776 17.2174 24.5219 17.2174C25.6898 17.2174 26.7889 17.5127 27.7483 18.0326C26.2431 16.5607 24.1847 15.6521 21.9132 15.6521C17.3028 15.6521 13.5654 19.3896 13.5654 23.9999C13.5654 28.6103 17.3029 32.3477 21.9132 32.3477C24.1848 32.3477 26.2431 31.4392 27.7483 29.9672C26.7889 30.4873 25.6898 30.7826 24.5219 30.7826Z" fill="#F0F0F0"/>
<path d="M29.7396 19.3044L30.638 21.831L33.0599 20.6796L31.9086 23.1015L34.4353 24L31.9086 24.8985L33.0599 27.3204L30.638 26.169L29.7396 28.6957L28.8413 26.169L26.4193 27.3204L27.5707 24.8985L25.0439 24L27.5707 23.1015L26.4193 20.6796L28.8413 21.831L29.7396 19.3044Z" fill="#F0F0F0"/>
</g>
<defs>
<clipPath id="clip0_154_281">
<rect width="48" height="48" fill="white"/>
</clipPath>
</defs>
</svg>
