<svg width="48" height="48" viewBox="0 0 48 48" fill="none" xmlns="http://www.w3.org/2000/svg">
<g clip-path="url(#clip0_154_329)">
<path d="M34.435 2.38144C31.2797 0.85575 27.7399 0 24.0002 0C20.2605 0 16.7207 0.85575 13.5655 2.38144L11.4785 24L13.5655 45.6186C16.7207 47.1442 20.2605 48 24.0002 48C27.7399 48 31.2797 47.1442 34.435 45.6186L36.522 24L34.435 2.38144Z" fill="#FFDA44"/>
<path d="M13.5652 2.38228C5.53744 6.26409 0 14.4849 0 24C0 33.5151 5.53744 41.7359 13.5652 45.6177V2.38228Z" fill="#0052B4"/>
<path d="M34.4346 2.38228V45.6177C42.4624 41.7359 47.9998 33.515 47.9998 24C47.9998 14.485 42.4624 6.26409 34.4346 2.38228Z" fill="#0052B4"/>
<path d="M31.3046 14.6087L32.7045 15.3086L31.3046 14.6087L29.9045 13.9087C29.8201 14.0776 27.9921 17.7969 27.6935 23.4783H25.5655V14.6087L24.0002 12.5217L22.435 14.6087V23.4783H20.3069C20.0082 17.7969 18.1803 14.0776 18.0958 13.9087L15.2959 15.3087C15.3152 15.3472 17.2177 19.2195 17.2177 25.0435V26.6088H22.4351V35.4784H25.5655V26.6088H30.7828V25.0434C30.7828 22.0324 31.3038 19.5495 31.741 17.9968C32.2175 16.3037 32.7015 15.3149 32.7063 15.3051L31.3046 14.6087Z" fill="black"/>
</g>
<defs>
<clipPath id="clip0_154_329">
<rect width="48" height="48" fill="white"/>
</clipPath>
</defs>
</svg>
