<svg width="48" height="48" viewBox="0 0 48 48" fill="none" xmlns="http://www.w3.org/2000/svg">
<g clip-path="url(#clip0_154_547)">
<path d="M24 48C37.2548 48 48 37.2548 48 24C48 10.7452 37.2548 0 24 0C10.7452 0 0 10.7452 0 24C0 37.2548 10.7452 48 24 48Z" fill="#F0F0F0"/>
<path d="M38.6135 4.95957C30.0211 -1.65224 17.9791 -1.65224 9.38672 4.95948L24.0001 19.5729L38.6135 4.95957Z" fill="#D80027"/>
<path d="M23.9999 28.4273L9.38672 43.0404C17.9791 49.6523 30.0211 49.6523 38.6135 43.0404L24.0001 28.4271L23.9999 28.4273Z" fill="#D80027"/>
<path d="M19.5731 24.0001L4.95984 9.38672C-1.65198 17.9791 -1.65198 30.0211 4.95984 38.6135L19.5731 24.0001Z" fill="#6DA544"/>
<path d="M28.4277 24.0001L43.0409 38.6135C49.6527 30.0211 49.6527 17.9791 43.0409 9.38672L28.4277 24.0001Z" fill="#6DA544"/>
<path d="M24.0002 34.4347C29.7631 34.4347 34.4349 29.7629 34.4349 24C34.4349 18.237 29.7631 13.5652 24.0002 13.5652C18.2372 13.5652 13.5654 18.237 13.5654 24C13.5654 29.7629 18.2372 34.4347 24.0002 34.4347Z" fill="#F0F0F0"/>
<path d="M24 16.6956L24.9037 18.2608H26.7111L25.8073 19.826L26.7111 21.3912H24.9037L24 22.9565L23.0964 21.3912H21.2891L22.1927 19.826L21.2891 18.2608H23.0964L24 16.6956Z" fill="#D80027"/>
<path d="M19.4064 23.9999L20.31 25.5652H22.1173L21.2137 27.1303L22.1173 28.6956H20.31L19.4064 30.2608L18.5026 28.6956H16.6953L17.599 27.1303L16.6953 25.5652H18.5026L19.4064 23.9999Z" fill="#D80027"/>
<path d="M28.5929 23.9999L29.4966 25.5652H31.3039L30.4002 27.1303L31.3039 28.6956H29.4966L28.5929 30.2608L27.6891 28.6956H25.8818L26.7855 27.1303L25.8818 25.5652H27.6891L28.5929 23.9999Z" fill="#D80027"/>
</g>
<defs>
<clipPath id="clip0_154_547">
<rect width="48" height="48" fill="white"/>
</clipPath>
</defs>
</svg>
