<svg width="48" height="48" viewBox="0 0 48 48" fill="none" xmlns="http://www.w3.org/2000/svg">
<g clip-path="url(#clip0_154_523)">
<path d="M24.0004 47.9966C37.2533 47.9966 47.9969 37.253 47.9969 24.0001C47.9969 10.7473 37.2533 0.00366211 24.0004 0.00366211C10.7475 0.00366211 0.00390625 10.7473 0.00390625 24.0001C0.00390625 37.253 10.7475 47.9966 24.0004 47.9966Z" fill="#F0F0F0"/>
<path d="M3.2188 12.0017C2.13568 13.8775 1.33673 15.8386 0.804688 17.8362L40.936 41.0061C42.3999 39.5465 43.699 37.8739 44.7818 35.9982L3.2188 12.0017Z" fill="black"/>
<path d="M35.9985 3.21841C26.3968 -2.32505 14.5578 -0.477484 7.06445 6.9938L47.1958 30.1636C49.9195 19.9388 45.6 8.76196 35.9985 3.21841V3.21841Z" fill="#FFDA44"/>
<path d="M12.0026 44.7816C21.6041 50.325 33.4434 48.4775 40.9365 41.0063L0.8051 17.8362C-1.91849 28.0613 2.40085 39.2381 12.0026 44.7816Z" fill="#FFDA44"/>
<path d="M30.7806 21.3917C30.7806 25.137 27.7444 28.1734 23.999 28.1734C20.2536 28.1734 17.2173 25.1371 17.2173 21.3917C17.2173 20.2239 17.5126 19.1251 18.0325 18.1657C16.5609 19.6707 15.6523 21.7288 15.6523 24C15.6523 28.6097 19.3892 32.3466 23.999 32.3466C28.6088 32.3466 32.3456 28.6098 32.3456 24C32.3456 21.7288 31.4372 19.6707 29.9655 18.1657C30.4854 19.1253 30.7806 20.2239 30.7806 21.3917V21.3917Z" fill="#D80027"/>
<path d="M22.4336 13.5669H25.5636V29.2168H22.4336V13.5669Z" fill="#D80027"/>
<path d="M29.2164 16.6968H18.7832C18.7832 17.4171 19.4107 18.001 20.1309 18.001H20.0874C20.0874 18.7213 20.6714 19.3051 21.3916 19.3051C21.3916 20.0254 21.9756 20.6093 22.6958 20.6093H25.304C26.0243 20.6093 26.6082 20.0254 26.6082 19.3051C27.3285 19.3051 27.9124 18.7213 27.9124 18.001H27.869C28.589 18.0009 29.2164 17.4172 29.2164 16.6968Z" fill="#D80027"/>
<path d="M16.6953 30.26H31.3019V33.39H16.6953V30.26Z" fill="#D80027"/>
<path d="M27.1289 31.3035H33.3888V34.4335H27.1289V31.3035Z" fill="#D80027"/>
<path d="M14.6094 31.3035H20.8693V34.4335H14.6094V31.3035Z" fill="#D80027"/>
</g>
<defs>
<clipPath id="clip0_154_523">
<rect width="48" height="48" fill="white"/>
</clipPath>
</defs>
</svg>
