<svg width="48" height="48" viewBox="0 0 48 48" fill="none" xmlns="http://www.w3.org/2000/svg">
<g clip-path="url(#clip0_154_432)">
<path d="M24 48C37.2548 48 48 37.2548 48 24C48 10.7452 37.2548 0 24 0C10.7452 0 0 10.7452 0 24C0 37.2548 10.7452 48 24 48Z" fill="#6DA544"/>
<path d="M23.9999 9.39133L43.8259 24L23.9999 38.6087L4.17383 24L23.9999 9.39133Z" fill="#FFDA44"/>
<path d="M24.0001 32.3478C28.6105 32.3478 32.3479 28.6104 32.3479 24C32.3479 19.3897 28.6105 15.6522 24.0001 15.6522C19.3898 15.6522 15.6523 19.3897 15.6523 24C15.6523 28.6104 19.3898 32.3478 24.0001 32.3478Z" fill="#F0F0F0"/>
<path d="M19.8265 23.4781C18.3749 23.4781 16.974 23.6989 15.6553 24.1086C15.7137 28.6686 19.4266 32.3477 24.0004 32.3477C26.8287 32.3477 29.3266 30.9399 30.8366 28.7882C28.2531 25.5541 24.278 23.4781 19.8265 23.4781V23.4781Z" fill="#0052B4"/>
<path d="M32.1933 25.5993C32.2938 25.0814 32.3481 24.5471 32.3481 23.9999C32.3481 19.3894 28.6106 15.6521 24.0003 15.6521C20.5602 15.6521 17.6071 17.7334 16.3291 20.7051C17.4588 20.471 18.6284 20.3478 19.8264 20.3478C24.6749 20.3477 29.0611 22.3631 32.1933 25.5993V25.5993Z" fill="#0052B4"/>
</g>
<defs>
<clipPath id="clip0_154_432">
<rect width="48" height="48" fill="white"/>
</clipPath>
</defs>
</svg>
