<svg width="48" height="48" viewBox="0 0 48 48" fill="none" xmlns="http://www.w3.org/2000/svg">
<g clip-path="url(#clip0_154_425)">
<path d="M1.13325 16.6956C0.398063 18.9989 -9.37335e-05 21.4526 1.6552e-08 23.9999C-9.37335e-05 26.547 0.398063 29.0008 1.13334 31.3043L24 32.3479L46.8666 31.3043C47.6017 29.0008 47.9999 26.5469 47.9999 24C47.9999 21.4528 47.6018 18.9989 46.8666 16.6956L23.9999 15.6521L1.13325 16.6956Z" fill="#F0F0F0"/>
<path d="M48 24C48 22.5762 47.8753 21.1816 47.6375 19.826H0.362625C0.124687 21.1816 0 22.576 0 23.9999C0 25.4238 0.124781 26.8182 0.362625 28.1738H47.6375C47.8752 26.8181 48 25.4237 48 24Z" fill="black"/>
<path d="M24.0004 47.9998C34.7082 47.9998 43.7766 40.987 46.867 31.3041H1.13379C4.22426 40.987 13.2928 47.9996 24.0004 47.9998V47.9998Z" fill="#338AF3"/>
<path d="M24.0005 3.75969e-09C13.2929 3.75969e-09 4.22444 7.01278 1.13379 16.6955L46.8669 16.6956C43.7766 7.01278 34.7081 -0.000187496 24.0005 3.75969e-09V3.75969e-09Z" fill="#338AF3"/>
</g>
<defs>
<clipPath id="clip0_154_425">
<rect width="48" height="48" fill="white"/>
</clipPath>
</defs>
</svg>
