<svg width="48" height="48" viewBox="0 0 48 48" fill="none" xmlns="http://www.w3.org/2000/svg">
<g clip-path="url(#clip0_154_574)">
<path d="M24 48C37.2548 48 48 37.2548 48 24C48 10.7452 37.2548 0 24 0C10.7452 0 0 10.7452 0 24C0 37.2548 10.7452 48 24 48Z" fill="#F0F0F0"/>
<path d="M47.9998 24C47.9998 14.4849 42.4625 6.26344 34.4346 2.38144V45.6185C42.4625 41.7366 47.9998 33.5151 47.9998 24V24Z" fill="#D80027"/>
<path d="M0 24C0 33.5151 5.53734 41.7366 13.5652 45.6186V2.38144C5.53734 6.26344 0 14.4849 0 24Z" fill="#D80027"/>
<path d="M28.1741 27.1304L32.3479 25.0434L30.261 24V21.913L26.0871 24L28.1741 19.8261H26.0871L24.0001 16.6956L21.9132 19.8261H19.8262L21.9132 24L17.7392 21.913V24L15.6523 25.0434L19.8262 27.1304L18.7828 29.2174H22.9567V32.3478H25.0436V29.2174H29.2175L28.1741 27.1304Z" fill="#D80027"/>
</g>
<defs>
<clipPath id="clip0_154_574">
<rect width="48" height="48" fill="white"/>
</clipPath>
</defs>
</svg>
