<svg width="48" height="48" viewBox="0 0 48 48" fill="none" xmlns="http://www.w3.org/2000/svg">
<g clip-path="url(#clip0_154_684)">
<path d="M24 48C37.2548 48 48 37.2548 48 24C48 10.7452 37.2548 0 24 0C10.7452 0 0 10.7452 0 24C0 37.2548 10.7452 48 24 48Z" fill="#6DA544"/>
<path d="M36.8427 34.4349L37.5013 35.812L38.9886 35.4683L38.3226 36.8418L39.5185 37.7902L38.0294 38.1258L38.0336 39.6523L36.8427 38.6973L35.6519 39.6523L35.656 38.1258L34.167 37.7902L35.363 36.8418L34.697 35.4683L36.1841 35.812L36.8427 34.4349Z" fill="#FFDA44"/>
<path d="M30.7158 19.8262L31.3744 21.2033L32.8617 20.8595L32.1956 22.2331L33.3916 23.1815L31.9025 23.5171L31.9067 25.0435L30.7158 24.0886L29.5249 25.0435L29.529 23.5171L28.04 23.1815L29.236 22.2331L28.5699 20.8595L30.0573 21.2033L30.7158 19.8262Z" fill="#FFDA44"/>
<path d="M36.8426 11.4784L37.5012 12.8555L38.9885 12.5116L38.3226 13.8852L39.5184 14.8337L38.0293 15.1692L38.0333 16.6958L36.8426 15.7407L35.6518 16.6958L35.6559 15.1692L34.167 14.8337L35.3629 13.8852L34.6969 12.5116L36.184 12.8555L36.8426 11.4784Z" fill="#FFDA44"/>
<path d="M42.1943 17.7393L42.8529 19.1164L44.3402 18.7726L43.6741 20.1462L44.8701 21.0946L43.3811 21.4302L43.3852 22.9567L42.1943 22.0017L41.0035 22.9567L41.0075 21.4302L39.5186 21.0946L40.7145 20.1462L40.0484 18.7726L41.5357 19.1164L42.1943 17.7393Z" fill="#FFDA44"/>
<path d="M38.3672 25.0435L38.8853 26.6379H40.5617L39.2054 27.6232L39.7235 29.2175L38.3672 28.2322L37.0111 29.2175L37.529 27.6232L36.1729 26.6379H37.8492L38.3672 25.0435Z" fill="#FFDA44"/>
<path d="M26.6089 30.7827C22.8629 30.7827 19.8262 27.746 19.8262 24.0001C19.8262 20.2542 22.8628 17.2175 26.6089 17.2175C27.7768 17.2175 28.8759 17.5129 29.8353 18.0327C28.3302 16.5607 26.2719 15.6522 24 15.6522C19.3898 15.6522 15.6523 19.3897 15.6523 24C15.6523 28.6103 19.3898 32.3478 24 32.3478C26.2718 32.3478 28.3302 31.4393 29.8352 29.9673C28.8759 30.4873 27.7768 30.7827 26.6089 30.7827V30.7827Z" fill="#FFDA44"/>
<path d="M15.0926 9.39141C14.3707 8.14416 13.023 7.30444 11.4784 7.30444C9.93379 7.30444 8.58613 8.14416 7.86426 9.39141H15.0926Z" fill="#FFDA44"/>
<path d="M15.1066 9.41553L11.4785 13.0436L7.8505 9.41553C7.50372 10.0241 7.30469 10.7278 7.30469 11.4784C7.30469 13.7836 9.17341 15.6523 11.4786 15.6523C13.7838 15.6523 15.6526 13.7837 15.6526 11.4784C15.6525 10.7278 15.4533 10.0241 15.1066 9.41553V9.41553Z" fill="#FFDA44"/>
<path d="M10.4346 12V15.5207C10.768 15.6065 11.1177 15.6521 11.478 15.6521C11.8383 15.6521 12.188 15.6064 12.5214 15.5207V12H10.4346Z" fill="#A2001D"/>
</g>
<defs>
<clipPath id="clip0_154_684">
<rect width="48" height="48" fill="white"/>
</clipPath>
</defs>
</svg>
