<svg width="48" height="49" viewBox="0 0 48 49" fill="none" xmlns="http://www.w3.org/2000/svg">
<g clip-path="url(#clip0_154_801)">
<path d="M45.335 13.006C44.226 10.8573 42.7724 8.84059 40.9713 7.03947C39.1701 5.23825 37.1532 3.78466 35.0047 2.67578L18.0969 18.1076L2.66504 35.0153C3.77401 37.164 5.2276 39.1808 7.02873 40.9819C8.82985 42.7831 10.8467 44.2367 12.9953 45.3456L29.903 29.9137L45.335 13.006Z" fill="#FFDA44"/>
<path d="M7.02911 40.9821C8.03589 41.9889 9.11017 42.8868 10.237 43.6774L43.6667 10.2475C42.8763 9.12067 41.9784 8.04639 40.9716 7.03961C39.9647 6.03283 38.8905 5.13498 37.7637 4.34448L4.33398 37.7742C5.12439 38.9008 6.02223 39.9753 7.02911 40.9821V40.9821Z" fill="#D80027"/>
<path d="M7.02882 7.03942C-0.543083 14.6113 -1.99668 25.983 2.66514 35.0154L35.0048 2.67583C25.9723 -1.98589 14.6006 -0.53211 7.02882 7.03942V7.03942Z" fill="#338AF3"/>
<path d="M40.971 40.982C48.5428 33.4102 49.9963 22.0385 45.3347 13.0062L12.9951 45.3457C22.0275 50.0074 33.3992 48.5539 40.971 40.982V40.982Z" fill="#338AF3"/>
<path d="M12.79 7.31433L14.085 11.3003H18.276L14.8855 13.7637L16.1805 17.7495L12.79 15.2861L9.39921 17.7495L10.6945 13.7637L7.30371 11.3003H11.4947L12.79 7.31433Z" fill="#FFDA44"/>
</g>
<defs>
<clipPath id="clip0_154_801">
<rect width="48" height="48" fill="white" transform="translate(0 0.0107422)"/>
</clipPath>
</defs>
</svg>
