<svg width="48" height="48" viewBox="0 0 48 48" fill="none" xmlns="http://www.w3.org/2000/svg">
<g clip-path="url(#clip0_154_624)">
<path d="M24 48C37.2548 48 48 37.2548 48 24C48 10.7452 37.2548 0 24 0C10.7452 0 0 10.7452 0 24C0 37.2548 10.7452 48 24 48Z" fill="#F0F0F0"/>
<path d="M45.0812 12.5217C41.9799 6.83775 36.6471 2.54691 30.2602 0.82547L29.2168 12.5217H45.0812Z" fill="#0052B4"/>
<path d="M2.91797 12.5217H18.7823L17.7389 0.82547C11.352 2.54691 6.01931 6.83785 2.91797 12.5217V12.5217Z" fill="#0052B4"/>
<path d="M29.2168 24V35.4783H45.0812C46.9416 32.0685 47.9994 28.1578 47.9994 24H29.2168Z" fill="#6DA544"/>
<path d="M18.7826 24H0C0 28.1578 1.05778 32.0685 2.91816 35.4783H18.7825V24H18.7826Z" fill="#6DA544"/>
<path d="M2.91797 35.4783C6.01931 41.1622 11.352 45.4531 17.7389 47.1745L18.7823 36.9456L2.91797 35.4783Z" fill="#FFDA44"/>
<path d="M30.2602 47.1745C36.6471 45.4531 41.9799 41.1622 45.0812 35.4783L29.2168 36.9454L30.2602 47.1745Z" fill="#FFDA44"/>
<path d="M29.2168 36.9454L45.0813 35.4783H29.2168V36.9454Z" fill="#FFDA44"/>
<path d="M18.7824 35.4783H2.91797L18.7824 36.9454V35.4783Z" fill="#FFDA44"/>
<path d="M23.9992 0C21.8329 0 19.7346 0.28875 17.7383 0.826781V47.1733C19.7346 47.7113 21.8329 48 23.9992 48C26.1655 48 28.2638 47.7112 30.2601 47.1732V0.826781C28.2638 0.28875 26.1655 0 23.9992 0V0Z" fill="#D80027"/>
<path d="M12.9088 5.21729L13.5562 7.21013H15.6518L13.9566 8.44182L14.6041 10.4347L12.9088 9.20307L11.2135 10.4347L11.8612 8.44182L10.166 7.21013H12.2614L12.9088 5.21729Z" fill="#FFDA44"/>
</g>
<defs>
<clipPath id="clip0_154_624">
<rect width="48" height="48" fill="white"/>
</clipPath>
</defs>
</svg>
