<svg width="48" height="48" viewBox="0 0 48 48" fill="none" xmlns="http://www.w3.org/2000/svg">
<g clip-path="url(#clip0_154_1223)">
<path d="M23.9997 48C26.9354 48 29.7476 47.472 32.3475 46.5072L33.391 24L32.3476 1.49278C29.7476 0.528094 26.9354 0 23.9997 0C21.064 0 18.2518 0.528094 15.6519 1.49278L14.6084 24L15.6518 46.5072C18.2518 47.472 21.064 48 23.9997 48Z" fill="#F0F0F0"/>
<path d="M0 24C0 34.3192 6.513 43.1162 15.6522 46.5072V1.4928C6.513 4.88383 0 13.6809 0 24Z" fill="#FF9811"/>
<path d="M32.3477 1.4928V46.5073C41.4869 43.1162 47.9999 34.3192 47.9999 24C47.9999 13.6809 41.4869 4.88383 32.3477 1.4928V1.4928Z" fill="#6DA544"/>
</g>
<defs>
<clipPath id="clip0_154_1223">
<rect width="48" height="48" fill="white"/>
</clipPath>
</defs>
</svg>
