<svg width="48" height="48" viewBox="0 0 48 48" fill="none" xmlns="http://www.w3.org/2000/svg">
<g clip-path="url(#clip0_154_568)">
<path d="M34.435 2.38144C31.2797 0.85575 27.7399 0 24.0002 0C20.2605 0 16.7207 0.85575 13.5655 2.38144L11.4785 24L13.5655 45.6186C16.7207 47.1442 20.2605 48 24.0002 48C27.7399 48 31.2797 47.1442 34.435 45.6186L36.522 24L34.435 2.38144Z" fill="#D80027"/>
<path d="M23.9999 15.6522L26.0718 22.029H32.7775L27.3528 25.9706L29.4248 32.3478L23.9999 28.4064L18.5751 32.3478L20.6474 25.9706L15.2227 22.029H21.9279L23.9999 15.6522Z" fill="#FFDA44"/>
<path d="M13.5652 2.38229C5.53744 6.26411 0 14.485 0 24C0 33.5151 5.53744 41.7359 13.5652 45.6177V2.38229Z" fill="#496E2D"/>
<path d="M34.4346 2.38229V45.6177C42.4624 41.7359 47.9998 33.515 47.9998 24C47.9998 14.485 42.4624 6.26411 34.4346 2.38229Z" fill="#FFDA44"/>
</g>
<defs>
<clipPath id="clip0_154_568">
<rect width="48" height="48" fill="white"/>
</clipPath>
</defs>
</svg>
