<svg width="48" height="48" viewBox="0 0 48 48" fill="none" xmlns="http://www.w3.org/2000/svg">
<g clip-path="url(#clip0_154_586)">
<path d="M24 48C37.2548 48 48 37.2548 48 24C48 10.7452 37.2548 0 24 0C10.7452 0 0 10.7452 0 24C0 37.2548 10.7452 48 24 48Z" fill="#F0F0F0"/>
<path d="M23.9999 48C31.274 48 37.7918 44.7634 42.1931 39.6522H5.80664C10.2079 44.7634 16.7257 48 23.9999 48Z" fill="#0052B4"/>
<path d="M48 24C48 10.7452 37.2548 0 24 0C10.7452 0 0 10.7452 0 24C0 26.1663 0.28875 28.2646 0.826781 30.2609H47.1733C47.7113 28.2646 48 26.1663 48 24Z" fill="#0052B4"/>
<path d="M1.90723 33.3914C2.36988 34.4785 2.91073 35.524 3.52226 36.5218H44.4771C45.0885 35.5239 45.6293 34.4784 46.0922 33.3914H1.90723Z" fill="#D80027"/>
<path d="M17.1555 25.5652L17.544 26.7609H18.8012L17.7841 27.5L18.1726 28.6957L17.1555 27.9566L16.1383 28.6957L16.5269 27.5L15.5098 26.7609H16.767L17.1555 25.5652Z" fill="#FFDA44"/>
<path d="M17.1555 41.2173L17.544 42.4131H18.8012L17.7841 43.1521L18.1726 44.3478L17.1555 43.6088L16.1383 44.3478L16.5269 43.1521L15.5098 42.4131H16.767L17.1555 41.2173Z" fill="#FFDA44"/>
<path d="M9.86932 35.924L10.2578 37.1195H11.5151L10.498 37.8585L10.8865 39.0544L9.86932 38.3153L8.85213 39.0544L9.24082 37.8585L8.22363 37.1195H9.48082L9.86932 35.924Z" fill="#FFDA44"/>
<path d="M12.6526 27.1304L13.0411 28.3262H14.2983L13.2813 29.0652L13.6698 30.2609L12.6526 29.5219L11.6354 30.2609L12.0241 29.0652L11.0068 28.3262H12.2641L12.6526 27.1304Z" fill="#FFDA44"/>
<path d="M8.22363 32.0545L9.48063 32.0546L9.86923 30.8586L10.2578 32.0545L11.5151 32.0544L10.4979 32.7935L10.8865 33.9892L9.86923 33.2502L8.85213 33.989L9.24063 32.7934L8.22363 32.0545Z" fill="#FFDA44"/>
<path d="M11.6356 42.5541L12.0241 41.3586L11.0068 40.6197H12.2641L12.6527 39.4239L13.0413 40.6196H14.2985L13.2813 41.3585L13.6698 42.5544L12.6526 41.8153L11.6356 42.5541Z" fill="#FFDA44"/>
<path d="M24.4387 35.9239L24.0502 37.1195H22.793L23.81 37.8584L23.4215 39.0543L24.4387 38.3153L25.4558 39.0543L25.0672 37.8584L26.0844 37.1195H24.8272L24.4387 35.9239Z" fill="#FFDA44"/>
<path d="M21.6555 27.1304L21.267 28.3262H20.0098L21.0268 29.0651L20.6383 30.2609L21.6555 29.5219L22.6726 30.2609L22.284 29.0651L23.3012 28.3262H22.044L21.6555 27.1304Z" fill="#FFDA44"/>
<path d="M26.0844 32.0546L24.8273 32.0547L24.4388 30.8587L24.0502 32.0546L22.793 32.0545L23.8101 32.7935L23.4215 33.9893L24.4388 33.2503L25.4558 33.989L25.0673 32.7934L26.0844 32.0546Z" fill="#FFDA44"/>
<path d="M22.6726 42.5541L22.2842 41.3586L23.3014 40.6197H22.0441L21.6555 39.4239L21.267 40.6196H20.0098L21.027 41.3585L20.6385 42.5544L21.6556 41.8153L22.6726 42.5541Z" fill="#FFDA44"/>
</g>
<defs>
<clipPath id="clip0_154_586">
<rect width="48" height="48" fill="white"/>
</clipPath>
</defs>
</svg>
