<svg width="48" height="49" viewBox="0 0 48 49" fill="none" xmlns="http://www.w3.org/2000/svg">
<g clip-path="url(#clip0_154_791)">
<path d="M24 48.0107C37.2548 48.0107 48 37.2656 48 24.0107C48 10.7559 37.2548 0.0107422 24 0.0107422C10.7452 0.0107422 0 10.7559 0 24.0107C0 37.2656 10.7452 48.0107 24 48.0107Z" fill="#FCFCFC"/>
<path d="M37.5649 20.8804C36.8345 20.8804 35.9301 20.8804 34.4345 20.8804C34.4345 26.6434 29.7625 31.3151 23.9997 31.3151C18.2366 31.3151 13.565 26.6434 13.565 20.8804C12.5562 20.8804 11.4431 20.8804 10.4346 20.8804C10.4346 27.088 14.6042 32.3218 20.2958 33.9337C19.6718 35.119 19.7668 36.6114 20.6582 37.7238C21.8289 36.7854 23.041 35.8141 24.0693 34.9902C25.0975 35.8142 26.3097 36.7855 27.4804 37.7238C28.3806 36.6004 28.4692 35.089 27.8244 33.8979C33.4537 32.2465 37.5649 27.0439 37.5649 20.8804V20.8804Z" fill="#6DA544"/>
<path d="M15.6523 19.8368C15.6523 19.8368 15.6523 25.0542 20.8697 25.0542L21.9132 26.0976H24.0001C24.0001 26.0976 25.0436 22.9672 27.1305 22.9672C27.1305 22.9672 27.1305 20.8803 29.2175 20.8803C31.3045 20.8803 32.3479 20.8803 32.3479 20.8803C32.3479 20.8803 31.3045 16.7063 36.5218 13.5759L34.4349 12.5325C34.4349 12.5325 27.1305 17.7498 21.9132 16.7064V18.7934H19.8262L18.7828 17.7499L15.6523 19.8368Z" fill="#FFDA44"/>
</g>
<defs>
<clipPath id="clip0_154_791">
<rect width="48" height="48" fill="white" transform="translate(0 0.0107422)"/>
</clipPath>
</defs>
</svg>
