<svg width="48" height="49" viewBox="0 0 48 49" fill="none" xmlns="http://www.w3.org/2000/svg">
<g clip-path="url(#clip0_154_1019)">
<path d="M1.49219 32.3596C4.88322 41.4987 13.6802 48.0118 23.9994 48.0118C34.3186 48.0118 43.1156 41.4987 46.5066 32.3596L23.9994 30.2727L1.49219 32.3596Z" fill="#FFDA44"/>
<path d="M23.9994 0.0117188C13.6802 0.0117188 4.88322 6.52472 1.49219 15.6639L23.9994 17.7508L46.5066 15.6638C43.1156 6.52472 34.3186 0.0117188 23.9994 0.0117188Z" fill="black"/>
<path d="M1.49278 15.6639C0.528094 18.2639 0 21.076 0 24.0117C0 26.9474 0.528094 29.7595 1.49278 32.3595H46.5073C47.472 29.7595 48 26.9474 48 24.0117C48 21.076 47.472 18.2639 46.5072 15.6639H1.49278Z" fill="#D80027"/>
</g>
<defs>
<clipPath id="clip0_154_1019">
<rect width="48" height="48" fill="white" transform="translate(0 0.0117188)"/>
</clipPath>
</defs>
</svg>
