<svg width="48" height="49" viewBox="0 0 48 49" fill="none" xmlns="http://www.w3.org/2000/svg">
<g clip-path="url(#clip0_154_817)">
<path d="M21.913 26.0977C21.913 26.0977 7.04336 7.03684 7.0293 7.04021C11.3724 2.69705 17.3725 0.0107422 23.9999 0.0107422C37.2547 0.0107422 47.9999 10.756 47.9999 24.0107L21.913 26.0977Z" fill="#338AF3"/>
<path d="M21.913 24.0107C21.913 24.0107 7.04336 40.9846 7.0293 40.9813C11.3724 45.3244 17.3725 48.0107 23.9999 48.0107C37.2547 48.0107 47.9999 37.2655 47.9999 24.0107H21.913Z" fill="#6DA544"/>
<path d="M7.02942 7.0401C-2.34314 16.4127 -2.34314 31.6087 7.02942 40.9813C10.9025 37.1083 14.6275 33.3833 24 24.0107L7.02942 7.0401Z" fill="#F0F0F0"/>
<path d="M9.71389 17.7498L11.2678 22.5325H16.2971L12.2285 25.4886L13.7824 30.2716L9.71389 27.3155L5.64523 30.2716L7.19942 25.4886L3.13086 22.5325H8.1598L9.71389 17.7498Z" fill="#D80027"/>
</g>
<defs>
<clipPath id="clip0_154_817">
<rect width="48" height="48" fill="white" transform="translate(0 0.0107422)"/>
</clipPath>
</defs>
</svg>
