<svg width="48" height="48" viewBox="0 0 48 48" fill="none" xmlns="http://www.w3.org/2000/svg">
<g clip-path="url(#clip0_154_823)">
<path d="M24 48C37.2548 48 48 37.2548 48 24C48 10.7452 37.2548 0 24 0C10.7452 0 0 10.7452 0 24C0 37.2548 10.7452 48 24 48Z" fill="#F0F0F0"/>
<path d="M28.6953 47.5396C38.1831 45.6574 45.6569 38.1835 47.5391 28.6958H28.6953V47.5396Z" fill="#496E2D"/>
<path d="M0.460938 28.6957C2.34297 38.1834 9.81691 45.6574 19.3047 47.5395V28.6957H0.460938Z" fill="#496E2D"/>
<path d="M47.5391 19.3044C45.6569 9.81676 38.1831 2.34282 28.6953 0.460693V19.3044H47.5391Z" fill="#496E2D"/>
<path d="M19.3047 0.460693C9.81691 2.34282 2.34297 9.81676 0.460938 19.3044H19.3047V0.460693Z" fill="#496E2D"/>
<path d="M22.4351 28.6957H19.3047V47.5394C20.3263 47.742 21.3713 47.8793 22.4351 47.9478V28.6957Z" fill="#FFDA44"/>
<path d="M22.4351 19.3044V0.0522461C21.3713 0.120684 20.3262 0.258027 19.3047 0.460621V19.3044H22.4351Z" fill="#FFDA44"/>
<path d="M25.566 0.0522187C25.0484 0.01875 24.5268 0 24.0008 0C23.4748 0 22.9532 0.01875 22.4355 0.0522187V19.3044H25.566V0.0522187H25.566Z" fill="black"/>
<path d="M22.4355 47.9477C22.9532 47.9812 23.4748 47.9999 24.0008 47.9999C24.5268 47.9999 25.0484 47.9812 25.566 47.9477V28.6956H22.4356V47.9477H22.4355Z" fill="black"/>
<path d="M19.3049 22.4349V19.3044H0.461109C0.258422 20.3261 0.121172 21.3711 0.0527344 22.4349H19.3049Z" fill="#FFDA44"/>
<path d="M28.6953 22.4349H47.9475C47.8791 21.3711 47.7418 20.3261 47.5392 19.3044H28.6954V22.4349H28.6953Z" fill="#FFDA44"/>
<path d="M28.6953 25.5653H47.9475C47.9809 25.0477 47.9997 24.5261 47.9997 24.0001C47.9997 23.474 47.9809 22.9524 47.9474 22.4348H28.6953V25.5653Z" fill="black"/>
<path d="M0.0522187 22.4348C0.0188437 22.9523 0 23.474 0 24C0 24.526 0.0188437 25.0477 0.0522187 25.5653H19.3044V22.4348H0.0522187V22.4348Z" fill="black"/>
<path d="M23.9998 35.4783C30.339 35.4783 35.478 30.3393 35.478 24C35.478 17.6607 30.339 12.5217 23.9998 12.5217C17.6605 12.5217 12.5215 17.6607 12.5215 24C12.5215 30.3393 17.6605 35.4783 23.9998 35.4783Z" fill="#D80027"/>
<path d="M26.615 25.2806C25.7613 23.5732 24.6515 21.8425 24.6515 21.8425C24.6515 21.8425 24.6791 21.0546 24.6791 20.5851C24.6791 19.8778 24.1057 19.3044 23.3985 19.3044C22.7284 19.3044 22.1794 19.8192 22.1235 20.4746C21.5966 20.509 21.1797 20.9461 21.1797 21.4816C21.1797 21.8709 21.4003 22.2083 21.7232 22.377C21.8837 22.0016 22.1979 21.7086 22.5866 21.575C22.65 21.6268 22.718 21.6731 22.7907 21.7124L22.9547 21.791C22.9547 21.791 22.3464 23.5058 22.3464 24.4269C22.3464 27.0167 24.054 27.8153 24.054 27.8153V27.8421L23.2002 28.6958H24.9077V26.9882L25.7614 27.842C25.7689 27.8259 27.3786 26.8079 26.615 25.2806V25.2806Z" fill="#496E2D"/>
<path d="M23.9992 14.6087L24.3877 15.8044H25.6449L24.6278 16.5434L25.0164 17.7391L23.9992 17.0002L22.982 17.7391L23.3706 16.5434L22.3535 15.8044H23.6107L23.9992 14.6087Z" fill="#496E2D"/>
<path d="M18.4802 16.4023L19.4973 17.1413L20.5144 16.4022L20.1259 17.5981L21.1431 18.3369L19.8858 18.337L19.4973 19.5327L19.1088 18.337L17.8516 18.3369L18.8687 17.5979L18.4802 16.4023Z" fill="#496E2D"/>
<path d="M15.0684 21.098H16.3255L16.714 19.9023L17.1025 21.098L18.3598 21.0979L17.3427 21.837L17.7313 23.0327L16.714 22.2937L15.697 23.0326L16.0854 21.8369L15.0684 21.098Z" fill="#496E2D"/>
<path d="M15.0684 26.902L16.0854 26.1632L15.6969 24.9674L16.714 25.7064L17.7312 24.9674L17.3427 26.1631L18.3599 26.9021L17.1025 26.9022L16.714 28.0978L16.3255 26.902H15.0684Z" fill="#496E2D"/>
<path d="M18.4803 31.5977L18.8688 30.4022L17.8516 29.6631H19.1088L19.4974 28.4673L19.8859 29.663H21.1432L20.126 30.4022L20.5145 31.5978L19.4973 30.8587L18.4803 31.5977Z" fill="#496E2D"/>
<path d="M23.9992 33.3912L23.6107 32.1957H22.3535L23.3706 31.4566L22.982 30.2609L23.9992 30.9997L25.0163 30.2608L24.6278 31.4566L25.6449 32.1956L24.3877 32.1957L23.9992 33.3912Z" fill="#496E2D"/>
<path d="M29.5203 31.5977L28.5033 30.8587L27.4862 31.5978L27.8746 30.4022L26.8574 29.6631L28.1147 29.663L28.5031 28.4673L28.8918 29.6631H30.149L29.1319 30.4022L29.5203 31.5977Z" fill="#496E2D"/>
<path d="M32.9322 26.9021H31.6751L31.2865 28.0979L30.898 26.9023H29.6406L30.6578 26.1632L30.2692 24.9676L31.2865 25.7065L32.3035 24.9676L31.9152 26.1633L32.9322 26.9021Z" fill="#496E2D"/>
<path d="M32.9322 21.098L31.9152 21.8369L32.3036 23.0326L31.2865 22.2937L30.2693 23.0328L30.6578 21.837L29.6406 21.0981L30.898 21.0979L31.2864 19.9024L31.6751 21.098H32.9322Z" fill="#496E2D"/>
<path d="M29.5203 16.4024L29.1319 17.598L30.149 18.337H28.8918L28.5033 19.5328L28.1147 18.3371L26.8574 18.3372L27.8746 17.598L27.4861 16.4025L28.5033 17.1413L29.5203 16.4024Z" fill="#496E2D"/>
</g>
<defs>
<clipPath id="clip0_154_823">
<rect width="48" height="48" fill="white"/>
</clipPath>
</defs>
</svg>
