<svg width="48" height="49" viewBox="0 0 48 49" fill="none" xmlns="http://www.w3.org/2000/svg">
<g clip-path="url(#clip0_154_854)">
<path d="M24 48.0107C37.2548 48.0107 48 37.2656 48 24.0107C48 10.7559 37.2548 0.0107422 24 0.0107422C10.7452 0.0107422 0 10.7559 0 24.0107C0 37.2656 10.7452 48.0107 24 48.0107Z" fill="#F0F0F0"/>
<path d="M0.826172 30.2717C3.04223 38.4939 9.51633 44.9681 17.7386 47.1841V30.2717H0.826172Z" fill="#D80027"/>
<path d="M17.7385 0.837402C9.51633 3.05337 3.04214 9.52756 0.826172 17.7497H17.7386V0.837402H17.7385Z" fill="#0052B4"/>
<path d="M47.174 17.7497C44.9581 9.52756 38.4839 3.05337 30.2617 0.837402V17.7498H47.174V17.7497Z" fill="#D80027"/>
<path d="M30.2617 47.1839C38.4839 44.9678 44.9581 38.4937 47.1741 30.2715H30.2617V47.1839Z" fill="#0052B4"/>
<path d="M30.2601 24.0107C30.2601 27.4685 27.4571 30.2716 23.9992 30.2716C20.5414 30.2716 17.7383 27.4685 17.7383 24.0107C17.7383 20.5528 23.9992 17.7498 23.9992 17.7498C23.9992 17.7498 30.2601 20.5528 30.2601 24.0107Z" fill="#496E2D"/>
<path d="M17.7383 24.0107C17.7383 20.5528 20.5414 17.7498 23.9992 17.7498C27.4571 17.7498 30.2601 20.5528 30.2601 24.0107" fill="#0052B4"/>
<path d="M20.4785 20.8803V24.7933C20.4785 26.7384 22.0552 28.3151 24.0002 28.3151C25.9453 28.3151 27.522 26.7384 27.522 24.7933V20.8803H20.4785Z" fill="#D80027"/>
</g>
<defs>
<clipPath id="clip0_154_854">
<rect width="48" height="48" fill="white" transform="translate(0 0.0107422)"/>
</clipPath>
</defs>
</svg>
