<svg width="48" height="48" viewBox="0 0 48 48" fill="none" xmlns="http://www.w3.org/2000/svg">
<g clip-path="url(#clip0_154_179)">
<path d="M23.9995 0C37.2543 0 47.9995 10.7452 47.9995 24C47.9995 37.2548 37.2543 48 23.9995 48C23.9995 46.9566 20.8691 24 20.8691 24L23.9995 0Z" fill="#F0F0F0"/>
<path d="M24 48C10.7452 48 0 37.2548 0 24C0 10.7452 10.7452 0 24 0" fill="#496E2D"/>
<path d="M29.1563 19.3965L27.1871 22.1101L23.998 21.0758L25.9704 23.7871L24.0014 26.5007L27.1893 25.4628L29.1616 28.1739L29.1595 24.8213L32.3475 23.7833L29.1585 22.7493L29.1563 19.3965Z" fill="#D80027"/>
<path d="M25.9906 30.7826C22.2448 30.7826 19.208 27.7459 19.208 24C19.208 20.2541 22.2448 17.2173 25.9906 17.2173C27.1586 17.2173 28.2576 17.5127 29.2171 18.0326C27.7118 16.5606 25.6534 15.6521 23.382 15.6521C18.7715 15.6521 15.0342 19.3895 15.0342 23.9999C15.0342 28.6102 18.7716 32.3477 23.382 32.3477C25.6535 32.3477 27.7119 31.4391 29.2171 29.9672C28.2576 30.4873 27.1586 30.7826 25.9906 30.7826Z" fill="#D80027"/>
</g>
<defs>
<clipPath id="clip0_154_179">
<rect width="48" height="48" fill="white"/>
</clipPath>
</defs>
</svg>
