<svg width="48" height="49" viewBox="0 0 48 49" fill="none" xmlns="http://www.w3.org/2000/svg">
<g clip-path="url(#clip0_154_870)">
<path d="M0 24.0107C0 10.756 10.7452 0.0107422 24 0.0107422C37.2548 0.0107422 48 10.756 48 24.0107L24 26.0977L0 24.0107Z" fill="#FFDA44"/>
<path d="M3.21191 36.0108C7.36176 43.1842 15.1171 48.0108 24.0004 48.0108C32.8837 48.0108 40.6391 43.1842 44.7889 36.0108L24.0004 34.4456L3.21191 36.0108Z" fill="#D80027"/>
<path d="M44.7885 36.0107C46.8306 32.4807 48 28.3824 48 24.0107H0C0 28.3824 1.16944 32.4807 3.2115 36.0107H44.7885Z" fill="#0052B4"/>
<path d="M24.0001 32.3585C28.6105 32.3585 32.3479 28.6211 32.3479 24.0107C32.3479 19.4004 28.6105 15.663 24.0001 15.663C19.3898 15.663 15.6523 19.4004 15.6523 24.0107C15.6523 28.6211 19.3898 32.3585 24.0001 32.3585Z" fill="#FFDA44"/>
<path d="M23.9996 29.228C21.1227 29.228 18.7822 26.8874 18.7822 24.0106V20.8802C18.7822 18.0033 21.1228 15.6628 23.9996 15.6628C26.8764 15.6628 29.217 18.0034 29.217 20.8802V24.0106C29.217 26.8875 26.8765 29.228 23.9996 29.228Z" fill="#338AF3"/>
<path d="M32.3481 11.4891H26.0872C26.0872 10.3365 25.1528 9.4021 24.0002 9.4021C22.8477 9.4021 21.9133 10.3365 21.9133 11.4891H15.6523C15.6523 12.6417 16.6563 13.576 17.8088 13.576H17.7393C17.7393 14.7287 18.6736 15.663 19.8263 15.663C19.8263 16.8157 20.7606 17.75 21.9133 17.75H26.0872C27.2398 17.75 28.1742 16.8157 28.1742 15.663C29.3268 15.663 30.2611 14.7287 30.2611 13.576H30.1917C31.3442 13.576 32.3481 12.6416 32.3481 11.4891V11.4891Z" fill="black"/>
</g>
<defs>
<clipPath id="clip0_154_870">
<rect width="48" height="48" fill="white" transform="translate(0 0.0107422)"/>
</clipPath>
</defs>
</svg>
