<svg width="48" height="49" viewBox="0 0 48 49" fill="none" xmlns="http://www.w3.org/2000/svg">
<g clip-path="url(#clip0_154_912)">
<path d="M0 24.0108C0 26.9464 0.528094 29.7586 1.49278 32.3585L24 33.4021L46.5072 32.3586C47.472 29.7586 48 26.9464 48 24.0108C48 21.0751 47.472 18.2629 46.5072 15.663L24 14.6194L1.49278 15.6629C0.528094 18.2629 0 21.0751 0 24.0108H0Z" fill="black"/>
<path d="M23.9994 0.0107422C13.6802 0.0107422 4.88322 6.52374 1.49219 15.663H46.5067C43.1156 6.52374 34.3186 0.0107422 23.9994 0.0107422V0.0107422Z" fill="#0052B4"/>
<path d="M46.5066 32.3586H1.49219C4.88322 41.4978 13.6802 48.0109 23.9994 48.0109C34.3186 48.0109 43.1156 41.4978 46.5066 32.3586Z" fill="#F0F0F0"/>
</g>
<defs>
<clipPath id="clip0_154_912">
<rect width="48" height="48" fill="white" transform="translate(0 0.0107422)"/>
</clipPath>
</defs>
</svg>
