<svg width="48" height="48" viewBox="0 0 48 48" fill="none" xmlns="http://www.w3.org/2000/svg">
<g clip-path="url(#clip0_154_917)">
<path d="M0 24C0 26.9359 0.528094 29.748 1.49287 32.3481L24 34.4347L46.5071 32.348C47.472 29.748 48 26.9358 48 24C48 21.1045 47.4871 18.3289 46.5474 15.7589L24 13.5652L1.45256 15.759C0.512906 18.3289 0 21.1045 0 24H0Z" fill="#FFDA44"/>
<path d="M23.9994 48.0001C34.3186 48.0001 43.1156 41.4871 46.5066 32.3479H1.49219C4.88322 41.4871 13.6802 48.0001 23.9994 48.0001Z" fill="#D80027"/>
<path d="M23.9994 0C13.6802 0 4.88322 6.513 1.49219 15.6522H46.5067C43.1156 6.513 34.3186 0 23.9994 0V0Z" fill="#6DA544"/>
<path d="M23.9998 35.4783C30.339 35.4783 35.478 30.3393 35.478 24C35.478 17.6607 30.339 12.5217 23.9998 12.5217C17.6605 12.5217 12.5215 17.6607 12.5215 24C12.5215 30.3393 17.6605 35.4783 23.9998 35.4783Z" fill="#0052B4"/>
<path d="M23.998 15.1116L26.0701 21.4886H32.786L27.3506 25.43L29.439 31.826L23.998 27.8659L18.5654 31.8187L20.6453 25.43L15.2148 21.4886H21.9259L23.998 15.1116Z" fill="#FFDA44"/>
<path d="M32.2615 25.5871L25.6882 23.4511L29.7506 17.8599L28.0624 16.6331L23.9997 22.2247L19.9374 16.6332L18.249 17.8598L22.3114 23.4515L15.7383 25.587L16.3831 27.572L22.9565 25.4363V32.3477H25.0433V25.4362L31.6164 27.572L32.2615 25.5871Z" fill="#FFDA44"/>
</g>
<defs>
<clipPath id="clip0_154_917">
<rect width="48" height="48" fill="white"/>
</clipPath>
</defs>
</svg>
