<svg width="48" height="49" viewBox="0 0 48 49" fill="none" xmlns="http://www.w3.org/2000/svg">
<g clip-path="url(#clip0_154_973)">
<path d="M24 48.0107C37.2548 48.0107 48 37.2656 48 24.0107C48 10.7559 37.2548 0.0107422 24 0.0107422C10.7452 0.0107422 0 10.7559 0 24.0107C0 37.2656 10.7452 48.0107 24 48.0107Z" fill="#F0F0F0"/>
<path d="M47.7968 20.8804H18.7827H18.7826V0.581238C16.5647 1.07305 14.462 1.87021 12.5217 2.92893V20.8802V20.8803H0.203156C0.0695625 21.905 0 22.9498 0 24.0108C0 25.0717 0.0695625 26.1165 0.203156 27.1412H12.5216H12.5217V45.0925C14.462 46.1511 16.5647 46.9485 18.7826 47.4402V27.1415V27.1413H47.7968C47.9303 26.1165 48 25.0717 48 24.0108C48 22.9498 47.9303 21.905 47.7968 20.8804V20.8804Z" fill="#0052B4"/>
</g>
<defs>
<clipPath id="clip0_154_973">
<rect width="48" height="48" fill="white" transform="translate(0 0.0107422)"/>
</clipPath>
</defs>
</svg>
