<svg width="48" height="49" viewBox="0 0 48 49" fill="none" xmlns="http://www.w3.org/2000/svg">
<g clip-path="url(#clip0_154_958)">
<path d="M48 24.0107C48 37.2655 37.2548 48.0107 24 48.0107C10.7452 48.0107 0 37.2655 0 24.0107C0 24.0165 24 0.0133672 24 0.0107422C37.2548 0.0107422 48 10.756 48 24.0107Z" fill="#338AF3"/>
<path d="M24.0001 11.489V19.5837L15.6523 11.489H24.0001Z" fill="#0052B4"/>
<path d="M12.522 24.0108H19.5731L12.522 14.6194L11.4785 21.9238L12.522 24.0108Z" fill="#0052B4"/>
<path d="M23.9355 24.0108H23.9998C23.9998 23.9892 23.9998 23.9682 23.9998 23.9465C23.9784 23.968 23.957 23.9894 23.9355 24.0108Z" fill="#F0F0F0"/>
<path d="M24 12.5325C24 8.30949 24 5.54246 24 0.0107422H23.996C10.743 0.0129922 0 10.7572 0 24.0107H12.5217V16.9597L19.5728 24.0107H23.936C23.9573 23.9894 23.9787 23.968 24.0002 23.9465C24.0002 22.3296 24.0002 20.8869 24.0002 19.5837L16.9489 12.5325H24Z" fill="#F0F0F0"/>
<path d="M12.1425 3.14111C8.38883 5.27852 5.26827 8.39908 3.13086 12.1527V24.0107H9.39177V9.40221V9.40202H24.0005C24.0005 7.42736 24.0005 5.54618 24.0005 3.14111H12.1425Z" fill="#D80027"/>
<path d="M24.0006 21.0594L15.4738 12.5325H12.5225V12.5327L24.0005 24.0107H24.0006C24.0006 24.0107 24.0006 21.9757 24.0006 21.0594Z" fill="#D80027"/>
<path d="M27.1309 15.6629V24.0106C27.1309 29.6018 34.4352 31.315 34.4352 31.315C34.4352 31.315 41.7395 29.6018 41.7395 24.0106V15.6629L34.4352 13.5759L27.1309 15.6629Z" fill="#F3F3F3"/>
<path d="M41.7395 15.6629V12.5325H27.1309V15.6629H33.3916V21.9239H27.1309V24.0107V24.0108L33.3916 24.0109V30.995C34.0214 31.2178 34.4352 31.3151 34.4352 31.3151C34.4352 31.3151 34.8488 31.218 35.4785 30.995V24.0108H41.7395V24.0107V21.9238H35.4785V15.6628H41.7395V15.6629Z" fill="#D80027"/>
</g>
<defs>
<clipPath id="clip0_154_958">
<rect width="48" height="48" fill="white" transform="translate(0 0.0107422)"/>
</clipPath>
</defs>
</svg>
