<svg width="48" height="49" viewBox="0 0 48 49" fill="none" xmlns="http://www.w3.org/2000/svg">
<g clip-path="url(#clip0_154_994)">
<path d="M46.5072 32.3585C47.472 29.7586 48 26.9464 48 24.0107C48 21.0751 47.472 18.263 46.5072 15.663L24 13.576L1.49278 15.663C0.528094 18.263 0 21.0751 0 24.0107C0 26.9464 0.528094 29.7586 1.49278 32.3585L24 34.4455L46.5072 32.3585Z" fill="#FFDA44"/>
<path d="M24.0005 48.0109C34.3195 48.0109 43.1167 41.4979 46.5076 32.3586H1.49316C4.88429 41.4979 13.6812 48.0109 24.0005 48.0109Z" fill="#0052B4"/>
<path d="M24.0005 0.0107422C13.6812 0.0107422 4.88429 6.52374 1.49316 15.663H46.5077C43.1167 6.52374 34.3195 0.0107422 24.0005 0.0107422Z" fill="#6DA544"/>
</g>
<defs>
<clipPath id="clip0_154_994">
<rect width="48" height="48" fill="white" transform="translate(0 0.0107422)"/>
</clipPath>
</defs>
</svg>
