<svg width="48" height="48" viewBox="0 0 48 48" fill="none" xmlns="http://www.w3.org/2000/svg">
<g clip-path="url(#clip0_154_1052)">
<path d="M24 48C37.2548 48 48 37.2548 48 24C48 10.7452 37.2548 0 24 0C10.7452 0 0 10.7452 0 24C0 37.2548 10.7452 48 24 48Z" fill="#FFDA44"/>
<path d="M10.4727 4.17394C14.3244 1.54087 18.9817 0 23.9996 0C29.0174 0 33.6747 1.54087 37.5265 4.17394L23.9996 5.21737L10.4727 4.17394Z" fill="#A2001D"/>
<path d="M23.9999 24L22.4682 22.4683L22.0615 23.1969L23.9999 24Z" fill="#0052B4"/>
<path d="M7.02942 7.02936C-2.34314 16.4019 -2.34314 31.5979 7.02942 40.9706C10.9025 37.0975 14.6275 33.3725 24 24L7.02942 7.02936Z" fill="#496E2D"/>
<path d="M40.9706 7.02936C50.3432 16.4019 50.3432 31.5979 40.9706 40.9706C37.0975 37.0975 33.3726 33.3725 24 24L40.9706 7.02936Z" fill="#496E2D"/>
<path d="M24.0001 32.3478C28.6105 32.3478 32.3479 28.6104 32.3479 24C32.3479 19.3897 28.6105 15.6522 24.0001 15.6522C19.3898 15.6522 15.6523 19.3897 15.6523 24C15.6523 28.6104 19.3898 32.3478 24.0001 32.3478Z" fill="#A2001D"/>
<path d="M24.0003 15.6522L25.8714 21.4112H31.9275L27.0283 24.9712L28.8995 30.7304L24.0003 27.1711L19.1009 30.7304L20.9724 24.9712L16.0732 21.4112H22.1289L24.0003 15.6522Z" fill="#FFDA44"/>
<path d="M24.0002 0C23.9975 0 23.9949 0.0001875 23.9922 0.0001875H24.0082C24.0056 0.0001875 24.003 0 24.0002 0V0Z" fill="#FFDA44"/>
<path d="M24.0076 0H23.9916C17.3679 0.00215625 11.3716 2.68744 7.03027 7.02825H40.969C36.6276 2.68744 30.6313 0.00215625 24.0076 0Z" fill="#A2001D"/>
<path d="M7.03027 40.9719C11.3733 45.3143 17.3728 48 23.9995 48C30.6262 48 36.6256 45.3143 40.9687 40.9719H7.03027Z" fill="#A2001D"/>
<path d="M23.9993 2.60864L24.3879 3.80433H25.6451L24.628 4.54336L25.0166 5.73905L23.9993 5.00011L22.9822 5.73905L23.3708 4.54336L22.3535 3.80433H23.6107L23.9993 2.60864Z" fill="#FFDA44"/>
<path d="M18.18 2.60864L18.5686 3.80433H19.8257L18.8086 4.54336L19.1972 5.73905L18.18 5.00011L17.163 5.73905L17.5515 4.54336L16.5342 3.80433H17.7914L18.18 2.60864Z" fill="#FFDA44"/>
<path d="M29.8196 2.60864L30.2082 3.80433H31.4654L30.4483 4.54336L30.8369 5.73905L29.8196 5.00011L28.8025 5.73905L29.1911 4.54336L28.1738 3.80433H29.431L29.8196 2.60864Z" fill="#FFDA44"/>
<path d="M23.9993 42.2609L24.3879 43.4566H25.6451L24.628 44.1956L25.0166 45.3913L23.9993 44.6522L22.9822 45.3913L23.3708 44.1956L22.3535 43.4566H23.6107L23.9993 42.2609Z" fill="#FFDA44"/>
<path d="M18.18 42.2609L18.5686 43.4566H19.8257L18.8086 44.1956L19.1972 45.3913L18.18 44.6522L17.163 45.3913L17.5515 44.1956L16.5342 43.4566H17.7914L18.18 42.2609Z" fill="#FFDA44"/>
<path d="M29.8196 42.2607L30.2082 43.4564H31.4654L30.4483 44.1955L30.8369 45.3912L29.8196 44.6521L28.8025 45.3912L29.1911 44.1955L28.1738 43.4564H29.431L29.8196 42.2607Z" fill="#FFDA44"/>
<path d="M7.31229 23.6036C7.9287 24.5775 7.63901 25.8667 6.66504 26.4832C5.69117 27.0997 4.40192 26.81 3.78542 25.836C2.66932 24.0728 3.31648 21.1931 3.31648 21.1931C3.31648 21.1931 6.19611 21.8402 7.31229 23.6036V23.6036Z" fill="#FFDA44"/>
<path d="M6.10789 26.6452C6.68417 26.6452 7.15133 26.1781 7.15133 25.6018C7.15133 25.0255 6.68417 24.5583 6.10789 24.5583C5.53162 24.5583 5.06445 25.0255 5.06445 25.6018C5.06445 26.1781 5.53162 26.6452 6.10789 26.6452Z" fill="#A2001D"/>
</g>
<defs>
<clipPath id="clip0_154_1052">
<rect width="48" height="48" fill="white"/>
</clipPath>
</defs>
</svg>
