<svg width="48" height="49" viewBox="0 0 48 49" fill="none" xmlns="http://www.w3.org/2000/svg">
<g clip-path="url(#clip0_154_1010)">
<path d="M24 48.0107C37.2548 48.0107 48 37.2656 48 24.0107C48 10.7559 37.2548 0.0107422 24 0.0107422C10.7452 0.0107422 0 10.7559 0 24.0107C0 37.2656 10.7452 48.0107 24 48.0107Z" fill="#F0F0F0"/>
<path d="M47.7968 20.8803H27.1306H27.1305V0.213898C26.1057 0.0804922 25.061 0.0107422 24 0.0107422C22.939 0.0107422 21.8943 0.0804922 20.8696 0.213898V20.8801V20.8802H0.203156C0.06975 21.905 0 22.9498 0 24.0107C0 25.0719 0.06975 26.1165 0.203156 27.1411H20.8694H20.8695V47.8076C21.8943 47.941 22.939 48.0107 24 48.0107C25.061 48.0107 26.1057 47.9411 27.1304 47.8076V27.1413V27.1412H47.7968C47.9303 26.1165 48 25.0719 48 24.0107C48 22.9498 47.9303 21.905 47.7968 20.8803V20.8803Z" fill="#D80027"/>
<path d="M14.6086 11.489V8.35852H11.4782V11.489H8.34766V14.6194H11.4782V17.7498H14.6086V14.6194H17.739V11.489H14.6086Z" fill="#D80027"/>
<path d="M36.5225 11.4891V8.35864H33.3921V11.4891H30.2617V14.6195H33.3921V17.75H36.5225V14.6195H39.653V11.4891H36.5225Z" fill="#D80027"/>
<path d="M14.6086 33.4021V30.2717H11.4782V33.4021H8.34766V36.5325H11.4782V39.663H14.6086V36.5325H17.739V33.4021H14.6086Z" fill="#D80027"/>
<path d="M36.5225 33.4021V30.2717H33.3921V33.4021H30.2617V36.5325H33.3921V39.663H36.5225V36.5325H39.653V33.4021H36.5225Z" fill="#D80027"/>
</g>
<defs>
<clipPath id="clip0_154_1010">
<rect width="48" height="48" fill="white" transform="translate(0 0.0107422)"/>
</clipPath>
</defs>
</svg>
