<svg width="48" height="48" viewBox="0 0 48 48" fill="none" xmlns="http://www.w3.org/2000/svg">
<g clip-path="url(#clip0_154_1096)">
<path d="M24 48C37.2548 48 48 37.2548 48 24C48 10.7452 37.2548 0 24 0C10.7452 0 0 10.7452 0 24C0 37.2548 10.7452 48 24 48Z" fill="#F0F0F0"/>
<path d="M47.7968 20.8696H27.1306H27.1305V0.203156C26.1057 0.06975 25.061 0 24 0C22.939 0 21.8943 0.06975 20.8696 0.203156V20.8696H0.203156C0.06975 21.8943 0 22.939 0 24C0 25.061 0.06975 26.1057 0.203156 27.1304H20.8694H20.8695V47.7968C21.8943 47.9303 22.939 48 24 48C25.061 48 26.1057 47.9303 27.1304 47.7968V27.1307V27.1305H47.7968C47.9303 26.1057 48 25.061 48 24C48 22.939 47.9303 21.8943 47.7968 20.8696V20.8696Z" fill="#D80027"/>
<path d="M30.7827 25.0434L32.3479 26.087V21.913L30.7827 22.9566H25.0436V17.2174L26.0871 15.6522H21.9132L22.9567 17.2174V22.9566H17.2175L15.6523 21.913V26.087L17.2175 25.0434H22.9567V30.7826L21.9132 32.3478H26.0871L25.0436 30.7826V25.0434H30.7827Z" fill="#FFDA44"/>
</g>
<defs>
<clipPath id="clip0_154_1096">
<rect width="48" height="48" fill="white"/>
</clipPath>
</defs>
</svg>
