<svg width="48" height="48" viewBox="0 0 48 48" fill="none" xmlns="http://www.w3.org/2000/svg">
<g clip-path="url(#clip0_154_1030)">
<path d="M24 48C37.2548 48 48 37.2548 48 24C48 10.7452 37.2548 0 24 0C10.7452 0 0 10.7452 0 24C0 37.2548 10.7452 48 24 48Z" fill="#F9F9F9"/>
<path d="M24.0005 48C34.3195 48 43.1167 41.487 46.5076 32.3478H1.49316C4.88429 41.487 13.6812 48 24.0005 48Z" fill="#D80027"/>
<path d="M33.3921 19.8261V16.6957H34.4355V14.6087H32.3485V15.6522H30.2616V14.6087H28.1747V16.6957H29.2181V19.8261H27.1311V12.5219H28.1747V10.4351H26.0877V11.4783H25.0442V10.4351H22.9573V11.4783H21.9138V10.4351H19.8268V12.5219H20.8703V19.8261H18.7834V16.6957H19.8268V14.6087H17.7398V15.6522H15.653V14.6087H13.566V16.6957H14.6094V19.8261H12.5225V28.174H35.479V19.8261H33.3921Z" fill="#D80027"/>
<path d="M24 27.1304C22.2712 27.1304 20.8696 28.532 20.8696 30.2608C20.8696 31.6236 21.7409 32.7827 22.9566 33.2125V37.5653H19.8262V41.7392H25.0435V33.2126C26.2592 32.7828 27.1305 31.6238 27.1305 30.2609C27.1304 28.5321 25.7289 27.1304 24 27.1304V27.1304ZM24 31.3044C23.4237 31.3044 22.9566 30.8371 22.9566 30.2609C22.9566 29.6847 23.4237 29.2175 24 29.2175C24.5763 29.2175 25.0435 29.6847 25.0435 30.2609C25.0435 30.8371 24.5763 31.3044 24 31.3044Z" fill="#FFDA44"/>
</g>
<defs>
<clipPath id="clip0_154_1030">
<rect width="48" height="48" fill="white"/>
</clipPath>
</defs>
</svg>
