<svg width="48" height="48" viewBox="0 0 48 48" fill="none" xmlns="http://www.w3.org/2000/svg">
<g clip-path="url(#clip0_154_1046)">
<path d="M0 24C0 10.7452 10.7452 0 24 0C37.2548 0 48 10.7452 48 24C46.9566 24 24 27.1304 24 27.1304L0 24Z" fill="#F0F0F0"/>
<path d="M48 24C48 37.2548 37.2548 48 24 48C10.7452 48 0 37.2548 0 24" fill="#D80027"/>
<path d="M16.6961 35.4783C23.0353 35.4783 28.1743 30.3393 28.1743 24C28.1743 17.6607 23.0353 12.5217 16.6961 12.5217C10.3568 12.5217 5.21777 17.6607 5.21777 24C5.21777 30.3393 10.3568 35.4783 16.6961 35.4783Z" fill="#F0F0F0"/>
<path d="M5.21777 24C5.21777 17.6609 10.3568 12.5217 16.6961 12.5217C23.0354 12.5217 28.1743 17.6608 28.1743 24" fill="#D80027"/>
</g>
<defs>
<clipPath id="clip0_154_1046">
<rect width="48" height="48" fill="white"/>
</clipPath>
</defs>
</svg>
