<svg width="48" height="48" viewBox="0 0 48 48" fill="none" xmlns="http://www.w3.org/2000/svg">
<g clip-path="url(#clip0_154_1088)">
<path d="M24 48C37.2548 48 48 37.2548 48 24C48 10.7452 37.2548 0 24 0C10.7452 0 0 10.7452 0 24C0 37.2548 10.7452 48 24 48Z" fill="#F0F0F0"/>
<path d="M48.0008 24C48.0008 14.4849 42.4635 6.26341 34.4355 2.38141V45.6184C42.4635 41.7365 48.0008 33.5149 48.0008 24V24Z" fill="#338AF3"/>
<path d="M0 24C0 33.5149 5.53734 41.7365 13.5652 45.6185V2.38141C5.53734 6.26341 0 14.4849 0 24Z" fill="#338AF3"/>
<path d="M30.272 28.0582L26.2139 24.0002L30.0767 20.1372L29.9017 18.097L28.7958 16.991L24.0003 21.7865L19.2048 16.991L18.0989 18.097L17.9239 20.1372L21.7867 24.0002L17.7285 28.0582L19.9421 30.2717L24.0003 26.2137L28.0585 30.2717L30.272 28.0582Z" fill="#ACABB1"/>
<path d="M29.9029 18.0972L27.6894 20.3108C28.6335 21.2549 29.2176 22.5593 29.2176 24C29.2176 26.8815 26.8816 29.2174 24.0002 29.2174C21.1188 29.2174 18.7828 26.8815 18.7828 24C18.7828 22.5593 19.3668 21.2549 20.311 20.3108L18.0974 18.0972C16.5867 19.6077 15.6523 21.6947 15.6523 24C15.6523 28.6104 19.3898 32.3478 24.0001 32.3478C28.6105 32.3478 32.3479 28.6104 32.3479 24C32.3479 21.6948 31.4136 19.6078 29.9029 18.0972V18.0972Z" fill="#6DA544"/>
</g>
<defs>
<clipPath id="clip0_154_1088">
<rect width="48" height="48" fill="white"/>
</clipPath>
</defs>
</svg>
