<svg width="48" height="48" viewBox="0 0 48 48" fill="none" xmlns="http://www.w3.org/2000/svg">
<g clip-path="url(#clip0_154_1101)">
<path d="M24.0001 0C21.8339 0 19.7354 0.28875 17.7392 0.826781L15.6523 24L17.7393 47.1732C19.7354 47.7112 21.8339 48 24.0001 48C37.2549 48 48.0001 37.2548 48.0001 24C48.0001 10.7452 37.2549 0 24.0001 0Z" fill="#FFDA44"/>
<path d="M15.6523 24L17.7393 47.1732C19.7354 47.7112 21.8339 48 24.0001 48C37.2549 48 48.0001 37.2548 48.0001 24H15.6523Z" fill="#6DA544"/>
<path d="M0 24C0 33.097 5.06156 41.0114 12.5217 45.0818V2.91815C5.06156 6.98859 0 14.903 0 24Z" fill="#D80027"/>
<path d="M0 24C0 35.0887 7.52072 44.4192 17.7391 47.1732V0.826782C7.52072 3.58078 0 12.9113 0 24Z" fill="#D80027"/>
<path d="M9.06936 17.739L10.6233 22.5218H15.6526L11.584 25.4779L13.1378 30.2608L9.06936 27.3048L5.0007 30.2608L6.55489 25.4779L2.48633 22.5218H7.51536L9.06936 17.739Z" fill="black"/>
</g>
<defs>
<clipPath id="clip0_154_1101">
<rect width="48" height="48" fill="white"/>
</clipPath>
</defs>
</svg>
