<svg width="48" height="48" viewBox="0 0 48 48" fill="none" xmlns="http://www.w3.org/2000/svg">
<g clip-path="url(#clip0_154_1152)">
<path d="M24 48C37.2548 48 48 37.2548 48 24C48 10.7452 37.2548 0 24 0C10.7452 0 0 10.7452 0 24C0 37.2548 10.7452 48 24 48Z" fill="#D80027"/>
<path d="M26.4775 18.1563C25.932 20.4249 24.9629 19.9923 24.4873 21.9708C21.6858 21.2972 19.9604 18.48 20.634 15.6783C21.3073 12.8767 24.1248 11.1513 26.9264 11.8249C25.9751 15.7818 26.9654 16.1272 26.4775 18.1563Z" fill="#F0F0F0"/>
<path d="M19.2079 19.8374C21.197 21.057 20.486 21.8452 22.2206 22.909C20.7142 25.3653 17.5018 26.1355 15.0454 24.6292C12.5891 23.1229 11.8187 19.9104 13.3251 17.454C16.7944 19.5814 17.4286 18.7464 19.2079 19.8374V19.8374Z" fill="#F0F0F0"/>
<path d="M18.5599 27.271C20.3347 25.7562 20.8643 26.6759 22.412 25.355C24.2828 27.5466 24.0225 30.8398 21.831 32.7106C19.6393 34.5814 16.3461 34.3209 14.4756 32.1294C17.5706 29.4873 16.9724 28.6258 18.5599 27.271Z" fill="#F0F0F0"/>
<path d="M25.43 30.1841C24.5375 28.0281 25.5759 27.8084 24.7979 25.9284C27.4603 24.8266 30.512 26.0916 31.6139 28.754C32.7158 31.4164 31.4505 34.4681 28.7881 35.57C27.2322 31.8098 26.2282 32.1125 25.43 30.1841Z" fill="#F0F0F0"/>
<path d="M30.3235 24.5508C27.9973 24.7333 28.109 23.6777 26.0807 23.8369C25.8554 20.9645 28.0017 18.4528 30.8743 18.2274C33.7468 18.0025 36.2584 20.1486 36.4836 23.0213C32.4263 23.3394 32.4039 24.3878 30.3235 24.5508Z" fill="#F0F0F0"/>
</g>
<defs>
<clipPath id="clip0_154_1152">
<rect width="48" height="48" fill="white"/>
</clipPath>
</defs>
</svg>
