<svg width="48" height="48" viewBox="0 0 48 48" fill="none" xmlns="http://www.w3.org/2000/svg">
<g clip-path="url(#clip0_154_746)">
<path d="M48 24C48 21.0643 47.4719 18.2521 46.5072 15.6522L24 14.6087L1.49278 15.6521C0.528094 18.2521 0 21.0643 0 24C0 26.9357 0.528094 29.7479 1.49278 32.3478L24 33.3913L46.5072 32.3479C47.4719 29.7479 48 26.9357 48 24Z" fill="#F0F0F0"/>
<path d="M23.9994 48.0001C34.3186 48.0001 43.1156 41.4871 46.5066 32.3479H1.49219C4.88322 41.4871 13.6802 48.0001 23.9994 48.0001Z" fill="#0052B4"/>
<path d="M1.49219 15.6522H46.5067C43.1156 6.513 34.3186 0 23.9994 0C13.6802 0 4.88322 6.513 1.49219 15.6522V15.6522Z" fill="#D80027"/>
<path d="M30.2618 16.6957H26.0879L26.7836 11.4783L29.5661 9.3913L32.3487 11.4783V15.6522L30.2618 16.6957Z" fill="#338AF3"/>
<path d="M17.7392 16.6957H21.9132L21.2174 11.4783L18.4348 9.3913L15.6523 11.4783V15.6522L17.7392 16.6957Z" fill="#338AF3"/>
<path d="M26.7822 16.6958H21.2168V11.4783L23.9995 9.39136L26.7822 11.4783V16.6958Z" fill="#0052B4"/>
<path d="M15.6523 15.6523V27.1305C15.6523 29.8636 16.9725 32.2941 19.0088 33.8178L20.4697 33.4523L22.3132 35.3069C22.8583 35.4192 23.4224 35.4783 24.0002 35.4783C24.5749 35.4783 25.1362 35.4199 25.6784 35.3088L27.7828 33.5566L28.9915 33.8145C31.0269 32.2908 32.348 29.8628 32.348 27.1305V15.6523H15.6523Z" fill="#F0F0F0"/>
<path d="M15.6523 15.6522H18.9914V18.9913H15.6523V15.6522Z" fill="#D80027"/>
<path d="M22.3301 15.6522H25.6692V18.9913H22.3301V15.6522Z" fill="#D80027"/>
<path d="M29.0098 15.6522H32.3489V18.9913H29.0098V15.6522Z" fill="#D80027"/>
<path d="M18.9922 18.9913H22.3313V22.3304H18.9922V18.9913Z" fill="#D80027"/>
<path d="M25.6699 18.9913H29.009V22.3304H25.6699V18.9913Z" fill="#D80027"/>
<path d="M15.6523 22.3294H18.9914V25.6685H15.6523V22.3294Z" fill="#D80027"/>
<path d="M18.9922 25.6686H22.3313V29.0077H18.9922V25.6686Z" fill="#D80027"/>
<path d="M22.3301 22.3295H25.6692V25.6686H22.3301V22.3295Z" fill="#D80027"/>
<path d="M29.0098 22.3295H32.3489V25.6686H29.0098V22.3295Z" fill="#D80027"/>
<path d="M25.6699 25.6686H29.009V29.0077H25.6699V25.6686Z" fill="#D80027"/>
<path d="M22.3301 29.0077H25.6692V32.3468H22.3301V29.0077Z" fill="#D80027"/>
<path d="M18.9908 29.0079H15.8672C16.1537 30.2492 16.7169 31.385 17.4893 32.347H18.9908V29.0079Z" fill="#D80027"/>
<path d="M29.0098 32.347H30.5113C31.2838 31.385 31.8468 30.2491 32.1333 29.0079H29.0098V32.347Z" fill="#D80027"/>
<path d="M18.9922 32.347V33.804C19.9633 34.5348 21.0983 35.0588 22.3313 35.3102V32.347H18.9922Z" fill="#D80027"/>
<path d="M25.6699 32.3471V35.3103C26.903 35.059 28.0379 34.5349 29.009 33.8041V32.3471H25.6699Z" fill="#D80027"/>
</g>
<defs>
<clipPath id="clip0_154_746">
<rect width="48" height="48" fill="white"/>
</clipPath>
</defs>
</svg>
