<svg width="48" height="48" viewBox="0 0 48 48" fill="none" xmlns="http://www.w3.org/2000/svg">
<g clip-path="url(#clip0_154_1161)">
<path d="M1.49278 15.6522C0.528094 18.2523 0 21.0643 0 24C0 26.9357 0.528094 29.7479 1.49278 32.3478L24 34.4347L46.5072 32.3478C47.4719 29.7479 48 26.9357 48 24C48 21.0643 47.4719 18.2523 46.5072 15.6522L24 13.5652L1.49278 15.6522Z" fill="#F0F0F0"/>
<path d="M24.0003 0C13.6812 0 4.8841 6.513 1.49316 15.6522H46.5077C43.1165 6.513 34.3195 0 24.0003 0V0Z" fill="#D80027"/>
<path d="M24.0003 48.0001C34.3195 48.0001 43.1165 41.4871 46.5076 32.3479H1.49316C4.8841 41.4871 13.6812 48.0001 24.0003 48.0001V48.0001Z" fill="#6DA544"/>
</g>
<defs>
<clipPath id="clip0_154_1161">
<rect width="48" height="48" fill="white"/>
</clipPath>
</defs>
</svg>
