<svg width="48" height="48" viewBox="0 0 48 48" fill="none" xmlns="http://www.w3.org/2000/svg">
<g clip-path="url(#clip0_154_1211)">
<path d="M24 48C37.2548 48 48 37.2548 48 24C48 10.7452 37.2548 0 24 0C10.7452 0 0 10.7452 0 24C0 37.2548 10.7452 48 24 48Z" fill="#F0F0F0"/>
<path d="M33.0366 18.7827H27.0119L23.9997 13.5653L20.9876 18.7827H14.9629L17.9755 24.0001L14.9629 29.2174H20.9876L23.9997 34.4348L27.0119 29.2174H33.0366L30.024 24.0001L33.0366 18.7827ZM27.7005 24.0001L25.8503 27.2052H22.1495L20.299 24.0001L22.1494 20.7949H25.8502L27.7005 24.0001ZM23.9997 17.5897L24.6884 18.7826H23.3112L23.9997 17.5897ZM18.4484 20.7949H19.8258L19.1371 21.9878L18.4484 20.7949ZM18.4484 27.2052L19.1372 26.0123L19.8259 27.2052H18.4484ZM23.9997 30.4103L23.3111 29.2174H24.6884L23.9997 30.4103ZM29.551 27.2052H28.1737L28.8625 26.0123L29.551 27.2052ZM28.1737 20.7949H29.551L28.8624 21.9878L28.1737 20.7949Z" fill="#0052B4"/>
<path d="M38.9396 5.21741H9.06018C6.8699 6.96191 4.99152 9.08084 3.52246 11.4783H44.4773C43.0082 9.08094 41.1298 6.96191 38.9396 5.21741V5.21741Z" fill="#0052B4"/>
<path d="M9.06018 42.7826H38.9395C41.1298 41.0381 43.0082 38.9192 44.4772 36.5217H3.52246C4.99162 38.9191 6.86999 41.0381 9.06018 42.7826V42.7826Z" fill="#0052B4"/>
</g>
<defs>
<clipPath id="clip0_154_1211">
<rect width="48" height="48" fill="white"/>
</clipPath>
</defs>
</svg>
