<svg width="48" height="48" viewBox="0 0 48 48" fill="none" xmlns="http://www.w3.org/2000/svg">
<g clip-path="url(#clip0_154_1207)">
<path d="M24 48C37.2548 48 48 37.2548 48 24C48 10.7452 37.2548 0 24 0C10.7452 0 0 10.7452 0 24C0 37.2548 10.7452 48 24 48Z" fill="#D80027"/>
<path d="M32.8864 16.0886L31.1901 22.1421L26.1004 21.2023L22.8242 14.449L13.9736 17.5897L13.2756 15.6228L10.96 15.3375L12.7047 20.2546L18.7956 18.697L20.5265 23.5747L16.316 29.7886L23.4613 35.8829L22.107 37.4708L23.0177 39.619L26.4038 35.6492L22.0093 31.1533L25.3681 27.2155L32.8548 27.7549L34.56 18.5196L36.6123 18.8986L38.0175 17.0358L32.8864 16.0886Z" fill="#F0F0F0"/>
</g>
<defs>
<clipPath id="clip0_154_1207">
<rect width="48" height="48" fill="white"/>
</clipPath>
</defs>
</svg>
