<svg width="48" height="48" viewBox="0 0 48 48" fill="none" xmlns="http://www.w3.org/2000/svg">
<g clip-path="url(#clip0_154_1187)">
<path d="M24 48C37.2548 48 48 37.2548 48 24C48 10.7452 37.2548 0 24 0C10.7452 0 0 10.7452 0 24C0 37.2548 10.7452 48 24 48Z" fill="#F0F0F0"/>
<path d="M31.7951 17.7391H28.655C28.681 18.0842 28.6957 18.4324 28.6957 18.7825C28.6957 21.1042 28.1154 23.3545 27.1038 24.9563C26.7917 25.4503 26.2672 26.148 25.5652 26.6186V17.739H22.4348V26.6186C21.7329 26.148 21.2084 25.4504 20.8963 24.9563C19.8845 23.3545 19.3043 21.1042 19.3043 18.7825C19.3043 18.4324 19.3191 18.0841 19.345 17.7391H16.205C16.1848 18.0825 16.1738 18.4303 16.1738 18.7825C16.1738 25.219 19.6115 30.2608 23.9999 30.2608C28.3883 30.2608 31.826 25.219 31.826 18.7825C31.8261 18.4303 31.8152 18.0825 31.7951 17.7391V17.7391Z" fill="#D80027"/>
<path d="M9.91245 11.4783H13.0429V13.5652H16.1733V11.4783H19.3037V13.5652H22.4341V11.4783H25.5645V13.5652H28.6949V11.4783H31.8253V13.5652H34.9557V11.4783H38.0861V13.5652H45.6177C41.736 5.53734 33.5144 0 23.9994 0C14.4845 0 6.26286 5.53734 2.38086 13.5652H9.91245V11.4783Z" fill="#6DA544"/>
<path d="M38.0864 34.4348V36.5218H34.956V34.4348H31.8256V36.5218H28.6952V34.4348H25.5648V36.5218H22.4344V34.4348H19.304V36.5218H16.1735V34.4348H13.0429V36.5218H9.91245V34.4348H2.38086C6.26286 42.4627 14.4844 48.0001 23.9994 48.0001C33.5145 48.0001 41.736 42.4627 45.618 34.4348H38.0864Z" fill="#D80027"/>
</g>
<defs>
<clipPath id="clip0_154_1187">
<rect width="48" height="48" fill="white"/>
</clipPath>
</defs>
</svg>
