<svg width="48" height="48" viewBox="0 0 48 48" fill="none" xmlns="http://www.w3.org/2000/svg">
<g clip-path="url(#clip0_154_1228)">
<path d="M24 48C37.2548 48 48 37.2548 48 24C48 10.7452 37.2548 0 24 0C10.7452 0 0 10.7452 0 24C0 37.2548 10.7452 48 24 48Z" fill="#FFDA44"/>
<path d="M38.6118 4.96125C34.5649 1.85053 29.4991 0 24.0003 0C18.5015 0 13.4356 1.85062 9.38867 4.96125L24.0003 19.5728L38.6118 4.96125Z" fill="#6DA544"/>
<path d="M4.96116 9.38855C1.85062 13.4355 0 18.5012 0 24.0001C0 29.4989 1.85062 34.5647 4.96125 38.6117L19.5728 24.0001L4.96116 9.38855Z" fill="black"/>
<path d="M9.38867 43.0387C13.4357 46.1495 18.5015 48 24.0003 48C29.4991 48 34.5649 46.1494 38.6119 43.0387L24.0003 28.4272L9.38867 43.0387Z" fill="#6DA544"/>
<path d="M43.0392 38.6114C46.15 34.5645 48.0005 29.4987 48.0005 23.9999C48.0005 18.5011 46.15 13.4353 43.0392 9.38843L28.4277 23.9999L43.0392 38.6114Z" fill="black"/>
</g>
<defs>
<clipPath id="clip0_154_1228">
<rect width="48" height="48" fill="white"/>
</clipPath>
</defs>
</svg>
