<svg width="48" height="48" viewBox="0 0 48 48" fill="none" xmlns="http://www.w3.org/2000/svg">
<g clip-path="url(#clip0_154_1258)">
<path d="M24 48C37.2548 48 48 37.2548 48 24C48 10.7452 37.2548 0 24 0C10.7452 0 0 10.7452 0 24C0 37.2548 10.7452 48 24 48Z" fill="#F0F0F0"/>
<path d="M24.0004 0C14.4853 0 6.26384 5.53734 2.38184 13.5652H45.6189C41.737 5.53734 33.5154 0 24.0004 0V0Z" fill="black"/>
<path d="M24.0004 48.0001C14.4853 48.0001 6.26384 42.4627 2.38184 34.4348H45.6189C41.737 42.4627 33.5154 48.0001 24.0004 48.0001V48.0001Z" fill="#496E2D"/>
<path d="M46.8667 16.6957H1.13334C0.398156 18.999 0 21.4529 0 24C0 26.5471 0.398156 29.001 1.13334 31.3044H46.8666C47.6018 29.001 48 26.5471 48 24C48 21.4529 47.6018 18.999 46.8667 16.6957Z" fill="#A2001D"/>
<path d="M31.4729 11.0907L28.6307 9.77881L23.9996 20.2648L19.3686 9.77881L16.5264 11.0907L22.2759 23.9999L16.5264 36.9092L19.3686 38.2211L23.9996 27.735L28.6307 38.2211L31.4729 36.9092L25.7234 23.9999L31.4729 11.0907Z" fill="#F0F0F0"/>
<path d="M25.9301 12.327C24.8299 11.1254 23.9997 10.4347 23.9997 10.4347C23.9997 10.4347 23.1696 11.1253 22.0693 12.327V35.6727C23.1696 36.8744 23.9997 37.5652 23.9997 37.5652C23.9997 37.5652 24.8299 36.8745 25.9301 35.6728V12.327Z" fill="#F0F0F0"/>
<path d="M18.7822 16.804V31.1958C19.9449 33.2559 21.3679 34.9446 22.4344 36.0641V11.9358C21.3679 13.0553 19.9448 14.744 18.7822 16.804V16.804Z" fill="#A2001D"/>
<path d="M29.2167 16.804C28.0539 14.7439 26.631 13.0553 25.5645 11.9358V36.0641C26.6309 34.9446 28.0539 33.2559 29.2167 31.1958V16.804Z" fill="#A2001D"/>
<path d="M29.2178 16.804V31.1957C30.3948 29.1099 31.3047 26.6434 31.3047 23.9999C31.3047 21.3565 30.3948 18.8899 29.2178 16.804Z" fill="black"/>
<path d="M18.7823 16.804V31.1957C17.6053 29.1099 16.6953 26.6434 16.6953 23.9999C16.6953 21.3565 17.6053 18.8899 18.7823 16.804Z" fill="black"/>
</g>
<defs>
<clipPath id="clip0_154_1258">
<rect width="48" height="48" fill="white"/>
</clipPath>
</defs>
</svg>
