<svg width="48" height="48" viewBox="0 0 48 48" fill="none" xmlns="http://www.w3.org/2000/svg">
<g clip-path="url(#clip0_154_1301)">
<path d="M24 48C37.2548 48 48 37.2548 48 24C48 10.7452 37.2548 0 24 0C10.7452 0 0 10.7452 0 24C0 37.2548 10.7452 48 24 48Z" fill="#D80027"/>
<path d="M35.7371 24L30.9414 26.2558L33.4952 30.9008L28.2871 29.9043L27.6275 35.1652L23.9998 31.2962L20.3724 35.1652L19.7125 29.9043L14.5049 30.9006L17.0587 26.2556L12.2627 24L17.0587 21.7442L14.5049 17.0991L19.7124 18.0957L20.3726 12.8347L23.9998 16.7039L27.6277 12.8347L28.2871 18.0957L33.4954 17.0991L30.9414 21.7445L35.7371 24Z" fill="#FFDA44"/>
<path d="M23.9997 31.3042C28.0337 31.3042 31.304 28.034 31.304 23.9999C31.304 19.9658 28.0337 16.6956 23.9997 16.6956C19.9656 16.6956 16.6953 19.9658 16.6953 23.9999C16.6953 28.034 19.9656 31.3042 23.9997 31.3042Z" fill="#D80027"/>
<path d="M20.3473 24.0001C20.1714 24.0001 19.9976 24.0091 19.8262 24.0262C19.8325 25.0378 20.1985 25.9638 20.803 26.6832C21.1255 25.8153 21.607 25.024 22.2142 24.3467C21.6342 24.1237 21.0051 24.0001 20.3473 24.0001Z" fill="#FFDA44"/>
<path d="M22.5957 27.9313C23.0345 28.088 23.5069 28.174 23.9996 28.174C24.4924 28.174 24.9648 28.088 25.4035 27.9313C25.1644 26.9927 24.6706 26.1547 23.9996 25.4962C23.3286 26.1546 22.8349 26.9927 22.5957 27.9313Z" fill="#FFDA44"/>
<path d="M27.6138 21.9138C26.8921 20.6664 25.5443 19.8262 23.9993 19.8262C22.4543 19.8262 21.1065 20.6663 20.3848 21.9138C21.7005 21.9205 22.9342 22.2782 23.9993 22.8959C25.0644 22.2782 26.298 21.9205 27.6138 21.9138Z" fill="#FFDA44"/>
<path d="M25.7852 24.3468C26.3924 25.024 26.8739 25.8153 27.1964 26.6833C27.8009 25.9639 28.1669 25.038 28.1732 24.0263C28.0016 24.0091 27.8279 24.0002 27.652 24.0002C26.9944 24.0002 26.3653 24.1237 25.7852 24.3468V24.3468Z" fill="#FFDA44"/>
</g>
<defs>
<clipPath id="clip0_154_1301">
<rect width="48" height="48" fill="white"/>
</clipPath>
</defs>
</svg>
