<svg width="48" height="48" viewBox="0 0 48 48" fill="none" xmlns="http://www.w3.org/2000/svg">
<g clip-path="url(#clip0_154_561)">
<path d="M0 24C0 28.1578 1.05778 32.0685 2.91816 35.4783L24 37.5653L45.0818 35.4783C46.9422 32.0685 48 28.1578 48 24C48 19.8422 46.9422 15.9315 45.0818 12.5217L24 10.4348L2.91816 12.5217C1.05778 15.9315 0 19.8422 0 24H0Z" fill="#D80027"/>
<path d="M2.91797 12.5217H45.0816C41.0111 5.06147 33.0968 0 23.9998 0C14.9028 0 6.9885 5.06147 2.91797 12.5217V12.5217Z" fill="#0052B4"/>
<path d="M23.9998 48C33.0968 48 41.0111 42.9385 45.0817 35.4783H2.91797C6.9885 42.9385 14.9028 48 23.9998 48Z" fill="#0052B4"/>
<path d="M32.348 28.6957V25.5652H30.2611V21.3913L28.1741 19.3043L26.0871 21.3913V17.2174L24.0002 15.1304L21.9132 17.2174V21.3913L19.8262 19.3043L17.7393 21.3913V25.5652H15.6524V28.6957H13.5654V31.8261H34.4349V28.6957H32.348Z" fill="#F0F0F0"/>
</g>
<defs>
<clipPath id="clip0_154_561">
<rect width="48" height="48" fill="white"/>
</clipPath>
</defs>
</svg>
