<svg width="48" height="48" viewBox="0 0 48 48" fill="none" xmlns="http://www.w3.org/2000/svg">
<g clip-path="url(#clip0_154_702)">
<path d="M24 48C37.2548 48 48 37.2548 48 24C48 10.7452 37.2548 0 24 0C10.7452 0 0 10.7452 0 24C0 37.2548 10.7452 48 24 48Z" fill="#F0F0F0"/>
<path d="M47.9988 23.9304H21.9822C16.8168 29.0959 13.6933 33.0837 10.5039 36.2731L24.0692 37.4956L45.1192 35.4086C46.9563 32.0153 47.9996 28.1295 47.9996 23.9999C47.9996 23.9766 47.9988 23.9537 47.9988 23.9304V23.9304Z" fill="#D80027"/>
<path d="M10.5045 12.4523H45.0431C40.9614 5.03025 33.0686 0 24.0001 0C17.3902 0 11.4056 2.67291 7.06543 6.996L10.5045 12.4523Z" fill="#FFDA44"/>
<path d="M11.5475 35.4087C9.38996 37.5663 8.55615 39.3739 6.99512 40.9349C11.3409 45.2987 17.3545 48 23.9997 48C33.1249 48 41.0603 42.907 45.1194 35.4087H11.5475Z" fill="#0052B4"/>
<path d="M7.02942 6.9599C-2.34314 16.3325 -2.34314 31.5285 7.02942 40.9011C10.9025 37.0281 14.6275 33.3031 24 23.9305L7.02942 6.9599Z" fill="#6DA544"/>
<path d="M6.3307 23.9305C6.3307 20.4338 8.78816 17.5127 12.0698 16.796C11.5654 16.6859 11.0421 16.6262 10.5045 16.6262C6.47038 16.6262 3.2002 19.8963 3.2002 23.9305C3.2002 27.9647 6.47038 31.2348 10.5045 31.2348C11.042 31.2348 11.5653 31.1751 12.0698 31.065C8.78816 30.3483 6.3307 27.4272 6.3307 23.9305V23.9305Z" fill="#F0F0F0"/>
<path d="M11.9895 17.6696L12.3781 18.8653H13.6353L12.6181 19.6043L13.0067 20.8L11.9895 20.0611L10.9723 20.8L11.3609 19.6043L10.3438 18.8653H11.6009L11.9895 17.6696Z" fill="#F0F0F0"/>
<path d="M11.9895 20.8L12.3781 21.9958H13.6353L12.6181 22.7347L13.0067 23.9305L11.9895 23.1915L10.9723 23.9305L11.3609 22.7347L10.3438 21.9958H11.6009L11.9895 20.8Z" fill="#F0F0F0"/>
<path d="M11.9895 23.9306L12.3781 25.1263H13.6353L12.6181 25.8653L13.0067 27.061L11.9895 26.322L10.9723 27.061L11.3609 25.8653L10.3438 25.1263H11.6009L11.9895 23.9306Z" fill="#F0F0F0"/>
<path d="M11.9895 27.061L12.3781 28.2567H13.6353L12.6181 28.9957L13.0067 30.1914L11.9895 29.4524L10.9723 30.1914L11.3609 28.9957L10.3438 28.2567H11.6009L11.9895 27.061Z" fill="#F0F0F0"/>
</g>
<defs>
<clipPath id="clip0_154_702">
<rect width="48" height="48" fill="white"/>
</clipPath>
</defs>
</svg>
