<svg width="48" height="48" viewBox="0 0 48 48" fill="none" xmlns="http://www.w3.org/2000/svg">
<g clip-path="url(#clip0_154_1311)">
<path d="M45.618 13.5652C41.736 5.53734 33.5145 0 23.9994 0C14.4844 0 6.26286 5.53734 2.38086 13.5652L23.9994 15.6522L45.618 13.5652Z" fill="#D80027"/>
<path d="M2.38086 34.4347C6.26286 42.4627 14.4844 48 23.9994 48C33.5145 48 41.736 42.4627 45.618 34.4347L23.9994 32.3478L2.38086 34.4347Z" fill="#D80027"/>
<path d="M45.6186 13.5653H2.38144C0.85575 16.7205 0 20.2603 0 24.0001C0 27.7398 0.85575 31.2797 2.38144 34.4348H45.6185C47.1443 31.2797 48 27.7398 48 24.0001C48 20.2603 47.1443 16.7205 45.6186 13.5653V13.5653Z" fill="#0052B4"/>
<path d="M24.0001 32.3478C28.6105 32.3478 32.3479 28.6104 32.3479 24C32.3479 19.3897 28.6105 15.6522 24.0001 15.6522C19.3898 15.6522 15.6523 19.3897 15.6523 24C15.6523 28.6104 19.3898 32.3478 24.0001 32.3478Z" fill="#F0F0F0"/>
</g>
<defs>
<clipPath id="clip0_154_1311">
<rect width="48" height="48" fill="white"/>
</clipPath>
</defs>
</svg>
