<svg width="48" height="48" viewBox="0 0 48 48" fill="none" xmlns="http://www.w3.org/2000/svg">
<g clip-path="url(#clip0_154_1337)">
<path d="M24 48C37.2548 48 48 37.2548 48 24C48 10.7452 37.2548 0 24 0C10.7452 0 0 10.7452 0 24C0 37.2548 10.7452 48 24 48Z" fill="#F0F0F0"/>
<path d="M5.48633 8.72736H42.5146C41.147 7.07127 39.5607 5.60268 37.8011 4.36377H10.1998C8.4402 5.60249 6.85405 7.07118 5.48633 8.72736V8.72736Z" fill="#F0F0F0"/>
<path d="M0 24C0 24.7357 0.0349688 25.463 0.09975 26.1818H47.9003C47.965 25.463 48 24.7357 48 24C48 23.2643 47.965 22.537 47.9003 21.8183H0.09975C0.0349688 22.537 0 23.2643 0 24H0Z" fill="#F0F0F0"/>
<path d="M2.61767 34.909H45.3834C46.0901 33.5266 46.6665 32.0668 47.0968 30.5455H0.904297C1.33452 32.0668 1.91108 33.5267 2.61767 34.909V34.909Z" fill="#F0F0F0"/>
<path d="M10.1998 43.6364H37.801C39.5606 42.3975 41.1469 40.9289 42.5145 39.2728H5.48633C6.85405 40.9287 8.4402 42.3975 10.1998 43.6364V43.6364Z" fill="#F0F0F0"/>
<path d="M0.904297 17.4545H47.097C46.6667 15.9332 46.0902 14.4733 45.3835 13.0909H2.61777C1.91117 14.4733 1.33461 15.9332 0.904297 17.4545V17.4545Z" fill="#F0F0F0"/>
<path d="M11.4785 4.36359H37.8009C33.8971 1.61503 29.1375 0 24.0002 0C20.8698 0 15.3823 1.61503 11.4785 4.36359Z" fill="#D80027"/>
<path d="M22.957 13.091H45.3833C44.5853 11.5298 43.6213 10.0674 42.5146 8.72742H22.957V13.091Z" fill="#D80027"/>
<path d="M22.957 21.8183H47.9007C47.7657 20.32 47.4944 18.8609 47.0968 17.4547H22.957V21.8183Z" fill="#D80027"/>
<path d="M0.903609 30.5455H47.0961C47.4938 29.1395 47.7651 27.6803 47.9001 26.1819H0.0996094C0.234609 27.6803 0.505922 29.1394 0.903609 30.5455V30.5455Z" fill="#D80027"/>
<path d="M5.48594 39.2726H42.5142C43.6209 37.9325 44.5848 36.4702 45.3829 34.909H2.61719C3.41528 36.4702 4.37922 37.9327 5.48594 39.2726V39.2726Z" fill="#D80027"/>
<path d="M23.9999 48C29.1371 48 33.8968 46.385 37.8005 43.6364H10.1992C14.103 46.385 18.8627 48 23.9999 48Z" fill="#D80027"/>
<path d="M0.903516 17.4546C0.505828 18.8608 0.234609 20.3198 0.0996094 21.8182H23.9999V0C13.0142 0 3.75277 7.38113 0.903516 17.4546V17.4546Z" fill="#0052B4"/>
<path d="M14.2862 6.26091L15.8401 11.0436H20.8694L16.8008 13.9997L18.3546 18.7826L14.2862 15.8267L10.2175 18.7826L11.7717 13.9997L7.70312 11.0436H12.7322L14.2862 6.26091Z" fill="#F0F0F0"/>
</g>
<defs>
<clipPath id="clip0_154_1337">
<rect width="48" height="48" fill="white"/>
</clipPath>
</defs>
</svg>
