<svg width="48" height="48" viewBox="0 0 48 48" fill="none" xmlns="http://www.w3.org/2000/svg">
<g clip-path="url(#clip0_154_1318)">
<path d="M24 48C37.2548 48 48 37.2548 48 24C48 10.7452 37.2548 0 24 0C10.7452 0 0 10.7452 0 24C0 37.2548 10.7452 48 24 48Z" fill="#F0F0F0"/>
<path d="M23.9994 0C12.9107 0 3.58017 7.52072 0.826172 17.7391H47.1727C44.4186 7.52072 35.088 0 23.9994 0Z" fill="#A2001D"/>
<path d="M23.9994 48C35.088 48 44.4186 40.4792 47.1726 30.2609H0.826172C3.58017 40.4791 12.9107 48 23.9994 48Z" fill="#A2001D"/>
</g>
<defs>
<clipPath id="clip0_154_1318">
<rect width="48" height="48" fill="white"/>
</clipPath>
</defs>
</svg>
