<svg width="48" height="48" viewBox="0 0 48 48" fill="none" xmlns="http://www.w3.org/2000/svg">
<g clip-path="url(#clip0_154_1552)">
<path d="M24 48C37.2548 48 48 37.2548 48 24C48 10.7452 37.2548 0 24 0C10.7452 0 0 10.7452 0 24C0 37.2548 10.7452 48 24 48Z" fill="#D80027"/>
<path d="M38.1829 19.696H27.3478L23.9997 9.39136L20.6515 19.696H9.81641L18.5821 26.0646L15.2338 36.3695L23.9997 30.0008L32.7655 36.3696L29.4172 26.0647L38.1829 19.696ZM21.0355 25.2675L22.1677 21.7829H25.8315L26.9638 25.2675V25.2675L23.9997 27.4211L21.0356 25.2675L21.0355 25.2675ZM25.1535 19.696H22.8459L23.9997 16.1447L25.1535 19.696ZM28.739 23.9777L28.0258 21.783H31.7598L28.739 23.9777ZM19.9734 21.783L19.2602 23.9777L16.2393 21.783H19.9734ZM19.2035 30.9058L20.3574 27.3546L22.2244 28.711L19.2035 30.9058ZM25.7749 28.7111L27.6419 27.3547L28.7958 30.9059L25.7749 28.7111Z" fill="#FFDA44"/>
</g>
<defs>
<clipPath id="clip0_154_1552">
<rect width="48" height="48" fill="white"/>
</clipPath>
</defs>
</svg>
