<svg width="48" height="48" viewBox="0 0 48 48" fill="none" xmlns="http://www.w3.org/2000/svg">
<g clip-path="url(#clip0_154_1504)">
<path d="M34.435 2.38144C31.2797 0.85575 27.7399 0 24.0002 0C20.2605 0 16.7207 0.85575 13.5655 2.38144L11.4785 24L13.5655 45.6186C16.7207 47.1442 20.2605 48 24.0002 48C27.7399 48 31.2797 47.1442 34.435 45.6186L36.522 24L34.435 2.38144Z" fill="#FFDA44"/>
<path d="M13.5652 2.38228C5.53744 6.26418 0 14.485 0 24C0 33.515 5.53744 41.7358 13.5652 45.6177V2.38228Z" fill="#0052B4"/>
<path d="M34.4355 2.38232V45.6178C42.4634 41.7359 48.0008 33.515 48.0008 24C48.0008 14.4851 42.4634 6.26423 34.4355 2.38232Z" fill="#D80027"/>
<path d="M32.3479 18.883H26.6088C26.6088 17.4423 25.4409 16.2743 24.0001 16.2743C22.5594 16.2743 21.3914 17.4423 21.3914 18.883H15.6523C15.6523 20.3016 16.8881 21.4514 18.3064 21.4514H18.2209C18.2209 22.87 19.3708 24.0201 20.7895 24.0201C20.7895 25.276 21.6915 26.3196 22.8829 26.5428L20.8588 31.1123C21.8287 31.5066 22.8886 31.7257 24.0001 31.7257C25.1115 31.7257 26.1716 31.5066 27.1413 31.1123L25.1173 26.5428C26.3087 26.3196 27.2108 25.276 27.2108 24.0201C28.6294 24.0201 29.7793 22.87 29.7793 21.4514H29.6937C31.1123 21.4514 32.3479 20.3015 32.3479 18.883V18.883Z" fill="#FF9811"/>
<path d="M24.0007 22.4347L20.6094 23.9999V27.1303L24.0007 29.2173L27.392 27.1303V23.9999L24.0007 22.4347Z" fill="#0052B4"/>
<path d="M20.6094 20.8696H27.392V24H20.6094V20.8696Z" fill="#D80027"/>
</g>
<defs>
<clipPath id="clip0_154_1504">
<rect width="48" height="48" fill="white"/>
</clipPath>
</defs>
</svg>
