<svg width="48" height="48" viewBox="0 0 48 48" fill="none" xmlns="http://www.w3.org/2000/svg">
<g clip-path="url(#clip0_154_1530)">
<path d="M24 48C37.2548 48 48 37.2548 48 24C48 10.7452 37.2548 0 24 0C10.7452 0 0 10.7452 0 24C0 37.2548 10.7452 48 24 48Z" fill="#FFDA44"/>
<path d="M48 24C48 15.763 43.8498 8.49609 37.5269 4.17393H10.4731C4.15031 8.49609 0 15.763 0 24C0 32.2372 4.15031 39.5039 10.4731 43.8261H37.5269C43.8498 39.5039 48 32.2372 48 24Z" fill="#A2001D"/>
<path d="M18.7832 17.7391H29.218V13.5652L27.131 14.6087L24.0006 11.4783L20.8702 14.6087L18.7832 13.5652V17.7391Z" fill="#FFDA44"/>
<path d="M33.3922 24H28.1768C28.3813 23.6462 28.5002 23.2368 28.5002 22.7988C28.5002 21.4687 27.422 20.3907 26.0922 20.3907C25.1733 20.3907 24.3753 20.9056 23.9693 21.6622C23.5632 20.9055 22.7652 20.3907 21.8464 20.3907C20.5166 20.3907 19.4383 21.4687 19.4383 22.7988C19.4383 23.2369 19.5574 23.6463 19.7618 24H14.6094C14.6094 25.5959 15.9994 26.8896 17.5952 26.8896H17.499C17.499 28.1986 18.3697 29.3039 19.5634 29.6589L17.2181 32.0045L19.4316 34.218L22.5716 31.078C22.6946 31.1231 22.8218 31.1591 22.9533 31.1839L21.056 35.4678C21.9652 35.8375 22.9588 36.0427 24.0009 36.0427C25.0428 36.0427 26.0365 35.8375 26.9457 35.4678L25.0484 31.1839C25.1799 31.1592 25.3071 31.1231 25.43 31.078L28.57 34.218L30.7834 32.0045L28.438 29.659C29.6316 29.3038 30.5023 28.1987 30.5023 26.8897H30.4061C32.0021 26.8896 33.3922 25.5959 33.3922 24V24Z" fill="#FFDA44"/>
<path d="M24.0007 25.5653L20.6094 27.1305V30.261L24.0007 32.3478L27.392 30.261V27.1305L24.0007 25.5653Z" fill="#6DA544"/>
<path d="M20.6094 24H27.392V28.1739H20.6094V24Z" fill="#0052B4"/>
</g>
<defs>
<clipPath id="clip0_154_1530">
<rect width="48" height="48" fill="white"/>
</clipPath>
</defs>
</svg>
