<svg width="48" height="48" viewBox="0 0 48 48" fill="none" xmlns="http://www.w3.org/2000/svg">
<g clip-path="url(#clip0_154_1391)">
<path d="M24 48C37.2548 48 48 37.2548 48 24C48 10.7452 37.2548 0 24 0C10.7452 0 0 10.7452 0 24C0 37.2548 10.7452 48 24 48Z" fill="#F0F0F0"/>
<path d="M15.6523 24V46.5072C18.2522 47.472 21.0644 48 24.0001 48C37.2549 48 48.0001 37.2548 48.0001 24C48.0001 10.7453 15.6523 24 15.6523 24Z" fill="#6DA544"/>
<path d="M24.0001 0C21.0644 0 18.2522 0.528094 15.6523 1.49278V24H48.0001C48.0001 10.7452 37.2549 0 24.0001 0Z" fill="#D80027"/>
</g>
<defs>
<clipPath id="clip0_154_1391">
<rect width="48" height="48" fill="white"/>
</clipPath>
</defs>
</svg>
