<svg width="48" height="48" viewBox="0 0 48 48" fill="none" xmlns="http://www.w3.org/2000/svg">
<g clip-path="url(#clip0_154_1437)">
<path d="M24 48C37.2548 48 48 37.2548 48 24C48 19.9722 47.0062 16.1769 45.2529 12.8438L23.9718 24.0281L35.1562 2.74706C31.8231 0.99375 28.0278 0 24 0C10.7452 0 0 10.7452 0 24C0 30.6275 2.68631 36.6275 7.02938 40.9706C11.3725 45.3138 17.3725 48 24 48Z" fill="#0052B4"/>
<path d="M45.2282 12.8699C44.1297 10.7789 42.7014 8.81571 40.9432 7.05752C39.1849 5.29933 37.222 3.87105 35.1308 2.77258L7.00195 40.9987L45.2282 12.8699Z" fill="#F0F0F0"/>
<path d="M7.00195 40.9986L45.2282 12.8699C44.1297 10.7789 42.7014 8.81568 40.9432 7.0575L7.00195 40.9986Z" fill="#FF9811"/>
<path d="M20.8407 14.074L17.9097 15.4527L19.4705 18.2914L16.2877 17.6825L15.8844 20.8978L13.6674 18.5329L11.4504 20.8978L11.0473 17.6825L7.86448 18.2912L9.42514 15.4526L6.49414 14.074L9.42523 12.6952L7.86448 9.85665L11.0471 10.4654L11.4505 7.25012L13.6674 9.61497L15.8844 7.25012L16.2877 10.4654L19.4706 9.85665L17.9098 12.6953L20.8407 14.074Z" fill="#F0F0F0"/>
</g>
<defs>
<clipPath id="clip0_154_1437">
<rect width="48" height="48" fill="white"/>
</clipPath>
</defs>
</svg>
