<svg width="48" height="49" viewBox="0 0 48 49" fill="none" xmlns="http://www.w3.org/2000/svg">
<g clip-path="url(#clip0_154_1837)">
<path d="M24 48.0107C37.2548 48.0107 48 37.2656 48 24.0107C48 10.7559 37.2548 0.0107422 24 0.0107422C10.7452 0.0107422 0 10.7559 0 24.0107C0 37.2656 10.7452 48.0107 24 48.0107Z" fill="#FFDA44"/>
<path d="M27.6499 47.7348C31.5533 47.1393 35.1463 45.6022 38.1926 43.3644L24 24.0107L27.6499 47.7348Z" fill="#D80027"/>
<path d="M20.3495 0.286621C16.4462 0.882121 12.8531 2.41925 9.80664 4.65696L23.9995 24.0107L20.3495 0.286621Z" fill="#D80027"/>
<path d="M9.80664 43.3644C12.853 45.6021 16.446 47.1392 20.3493 47.7349L23.9995 24.0107L9.80664 43.3644Z" fill="#D80027"/>
<path d="M4.64573 9.81793C2.40792 12.8644 0.870984 16.4574 0.275391 20.3608L23.9995 24.0107L4.64573 9.81793Z" fill="#D80027"/>
<path d="M0.275391 27.6606C0.870891 31.564 2.40802 35.1571 4.64583 38.2034L23.9995 24.0107L0.275391 27.6606Z" fill="#D80027"/>
<path d="M47.7241 20.3609C47.1285 16.4576 45.5915 12.8645 43.3537 9.81812L24 24.0108L47.7241 20.3609Z" fill="#D80027"/>
<path d="M38.1926 4.65687C35.1462 2.41915 31.5533 0.882121 27.6499 0.286621L24 24.0107L38.1926 4.65687Z" fill="#D80027"/>
<path d="M43.3538 38.2035C45.5916 35.1571 47.1286 31.5639 47.7243 27.6607L24 24.0107L43.3538 38.2035Z" fill="#D80027"/>
<path d="M24.0001 32.3584C28.6105 32.3584 32.3479 28.621 32.3479 24.0106C32.3479 19.4003 28.6105 15.6628 24.0001 15.6628C19.3898 15.6628 15.6523 19.4003 15.6523 24.0106C15.6523 28.621 19.3898 32.3584 24.0001 32.3584Z" fill="#D80027"/>
<path d="M23.9992 30.2716C27.457 30.2716 30.2601 27.4685 30.2601 24.0107C30.2601 20.5529 27.457 17.7498 23.9992 17.7498C20.5414 17.7498 17.7383 20.5529 17.7383 24.0107C17.7383 27.4685 20.5414 30.2716 23.9992 30.2716Z" fill="#FFDA44"/>
</g>
<defs>
<clipPath id="clip0_154_1837">
<rect width="48" height="48" fill="white" transform="translate(0 0.0107422)"/>
</clipPath>
</defs>
</svg>
