<svg width="48" height="48" viewBox="0 0 48 48" fill="none" xmlns="http://www.w3.org/2000/svg">
<g clip-path="url(#clip0_154_1566)">
<path d="M46.5072 32.3478C47.472 29.7479 48 26.9357 48 24C48 21.0643 47.472 18.2521 46.5072 15.6522L24 13.5652L1.49278 15.6522C0.528094 18.2521 0 21.0643 0 24C0 26.9357 0.528094 29.7479 1.49278 32.3478L24 34.4347L46.5072 32.3478Z" fill="#6DA544"/>
<path d="M46.5066 15.6522C43.1156 6.513 34.3186 0 23.9994 0C13.6802 0 4.88322 6.513 1.49219 15.6522H46.5066Z" fill="#FFDA44"/>
<path d="M23.9994 48C34.3186 48 43.1156 41.487 46.5066 32.3478H1.49219C4.88322 41.487 13.6802 48 23.9994 48Z" fill="#D80027"/>
<path d="M40.4584 20.3049H27.8859L24.0007 8.34778L20.1155 20.3049H7.54297L17.7144 27.6949L13.8292 39.6522L24.0007 32.3478L34.1722 39.6521L30.2871 27.6948L40.4584 20.3049Z" fill="#F0F0F0"/>
</g>
<defs>
<clipPath id="clip0_154_1566">
<rect width="48" height="48" fill="white"/>
</clipPath>
</defs>
</svg>
