<svg width="48" height="48" viewBox="0 0 48 48" fill="none" xmlns="http://www.w3.org/2000/svg">
<g clip-path="url(#clip0_154_1516)">
<path d="M24.0007 48C26.9364 48 29.7486 47.472 32.3485 46.5072L33.392 24L32.3486 1.49278C29.7486 0.528094 26.9364 0 24.0007 0C21.065 0 18.2528 0.528094 15.6529 1.49278L14.6094 24L15.6528 46.5072C18.2528 47.472 21.065 48 24.0007 48Z" fill="#0052B4"/>
<path d="M0 24C0 34.3192 6.513 43.1162 15.6522 46.5072V1.49278C6.513 4.88381 0 13.6808 0 24Z" fill="#A2001D"/>
<path d="M32.3477 1.49278V46.5073C41.4869 43.1162 47.9999 34.3192 47.9999 24C47.9999 13.6808 41.4869 4.88381 32.3477 1.49278V1.49278Z" fill="#A2001D"/>
<path d="M11.4785 24H13.5655V32.3478H11.4785V24Z" fill="#FFDA44"/>
<path d="M3.13086 24H5.21783V32.3478H3.13086V24Z" fill="#FFDA44"/>
<path d="M8.34869 29.2174C9.50129 29.2174 10.4357 28.283 10.4357 27.1304C10.4357 25.9778 9.50129 25.0435 8.34869 25.0435C7.19609 25.0435 6.26172 25.9778 6.26172 27.1304C6.26172 28.283 7.19609 29.2174 8.34869 29.2174Z" fill="#FFDA44"/>
<path d="M8.34812 20.8695C8.9244 20.8695 9.39156 20.4023 9.39156 19.8261C9.39156 19.2498 8.9244 18.7826 8.34812 18.7826C7.77185 18.7826 7.30469 19.2498 7.30469 19.8261C7.30469 20.4023 7.77185 20.8695 8.34812 20.8695Z" fill="#FFDA44"/>
<path d="M6.26172 30.2609H10.4357V32.3478H6.26172V30.2609Z" fill="#FFDA44"/>
<path d="M6.26172 21.9131H10.4357V24.0001H6.26172V21.9131Z" fill="#FFDA44"/>
<path d="M8.34916 12.5217L9.08828 14.7961H11.4797L9.54513 16.2018L10.2837 18.4762L8.34916 17.0705L6.41472 18.4762L7.15328 16.2018L5.21875 14.7961H7.61013L8.34916 12.5217Z" fill="#FFDA44"/>
</g>
<defs>
<clipPath id="clip0_154_1516">
<rect width="48" height="48" fill="white"/>
</clipPath>
</defs>
</svg>
