<svg width="48" height="48" viewBox="0 0 48 48" fill="none" xmlns="http://www.w3.org/2000/svg">
<g clip-path="url(#clip0_154_1539)">
<path d="M48 24C48 37.2548 37.2548 48 24 48C10.7452 48 0 37.2548 0 24C0 24.0057 24 0.002625 24 0C37.2548 0 48 10.7452 48 24Z" fill="#0052B4"/>
<path d="M23.9355 24H23.9998C23.9998 23.9784 23.9998 23.9574 23.9998 23.9358C23.9784 23.9573 23.957 23.9786 23.9355 24Z" fill="#F0F0F0"/>
<path d="M24 12.5217C24 8.29875 24 5.53172 24 0H23.996C10.7429 0.00225 0 10.7465 0 24H12.5217V16.949L19.5728 24H23.9359C23.9572 23.9786 23.9786 23.9573 24.0001 23.9358C24.0001 22.3189 24.0001 20.8762 24.0001 19.5729L16.9489 12.5217H24Z" fill="#F0F0F0"/>
<path d="M12.1425 3.13037C8.38883 5.26778 5.26817 8.38834 3.13086 12.142V24H9.39177V9.39147V9.39128H24.0005C24.0005 7.41662 24.0005 5.53543 24.0005 3.13037H12.1425Z" fill="#D80027"/>
<path d="M23.9998 21.0486L15.4727 12.5217H12.5215V12.5219L23.9996 23.9999H23.9998C23.9998 23.9999 23.9998 21.9649 23.9998 21.0486V21.0486Z" fill="#D80027"/>
<path d="M27.1309 12.5217V23.9999C27.1309 29.5912 34.4352 31.3044 34.4352 31.3044C34.4352 31.3044 41.7395 29.5912 41.7395 23.9999V12.5217H27.1309Z" fill="#338AF3"/>
<path d="M27.1309 23.9999C27.1309 29.5911 34.4352 31.3043 34.4352 31.3043C34.4352 31.3043 41.7395 29.5911 41.7395 23.9999H27.1309Z" fill="#A2001D"/>
<path d="M37.5656 17.7393H35.4785V15.6522H33.3916V17.7393H31.3047V19.8262H33.3916V26.087H35.4785V19.8262H37.5656V17.7393Z" fill="black"/>
</g>
<defs>
<clipPath id="clip0_154_1539">
<rect width="48" height="48" fill="white"/>
</clipPath>
</defs>
</svg>
