<svg width="48" height="48" viewBox="0 0 48 48" fill="none" xmlns="http://www.w3.org/2000/svg">
<g clip-path="url(#clip0_154_1462)">
<path d="M2.91797 12.5217L23.9998 14.6087L45.0817 12.5217C41.0111 5.06147 33.0968 0 23.9998 0C14.9028 0 6.9885 5.06147 2.91797 12.5217V12.5217Z" fill="#D80027"/>
<path d="M2.91816 35.4783L24 37.5652L45.0818 35.4783C46.9422 32.0685 48 28.1578 48 24L24 21.913L0 24C0 28.1578 1.05778 32.0685 2.91816 35.4783Z" fill="#FFDA44"/>
<path d="M2.91816 12.5217C1.05778 15.9315 0 19.8422 0 24H48C48 19.8422 46.9422 15.9315 45.0818 12.5217H24H2.91816Z" fill="#0052B4"/>
<path d="M23.9998 48C33.0968 48 41.0111 42.9385 45.0817 35.4783H2.91797C6.9885 42.9385 14.9028 48 23.9998 48Z" fill="#6DA544"/>
</g>
<defs>
<clipPath id="clip0_154_1462">
<rect width="48" height="48" fill="white"/>
</clipPath>
</defs>
</svg>
