<svg width="48" height="48" viewBox="0 0 48 48" fill="none" xmlns="http://www.w3.org/2000/svg">
<g clip-path="url(#clip0_154_1410)">
<path d="M24 48C37.2548 48 48 37.2548 48 24C48 10.7452 37.2548 0 24 0C10.7452 0 0 10.7452 0 24C0 37.2548 10.7452 48 24 48Z" fill="#F0F0F0"/>
<path d="M22.9551 24H47.9985C47.9985 21.8338 47.7098 19.7354 47.1717 17.7391H22.9551V24Z" fill="#D80027"/>
<path d="M22.9551 11.4783H44.476C43.0068 9.08094 41.1285 6.96191 38.9382 5.21741H22.9551V11.4783Z" fill="#D80027"/>
<path d="M24.0003 48.0001C29.6486 48.0001 34.8402 46.0478 38.94 42.7827H9.06055C13.1603 46.0478 18.3519 48.0001 24.0003 48.0001V48.0001Z" fill="#D80027"/>
<path d="M3.52195 36.5218H44.4768C45.6563 34.5973 46.5709 32.4934 47.1726 30.2608H0.826172C1.42777 32.4934 2.34248 34.5973 3.52195 36.5218V36.5218Z" fill="#D80027"/>
<path d="M24 24C24 10.7452 24 9.18262 24 0C10.7452 0 0 10.7452 0 24H24Z" fill="#0052B4"/>
<path d="M15.96 20.5434C12.6823 20.5434 10.0253 17.8863 10.0253 14.6087C10.0253 11.3311 12.6824 8.67394 15.96 8.67394C16.982 8.67394 17.9436 8.93241 18.7831 9.38729C17.4661 8.09944 15.665 7.30444 13.6774 7.30444C9.64342 7.30444 6.37305 10.5747 6.37305 14.6088C6.37305 18.6428 9.64342 21.9131 13.6774 21.9131C15.665 21.9131 17.4661 21.1181 18.7831 19.8303C17.9436 20.285 16.9821 20.5434 15.96 20.5434V20.5434Z" fill="#FFDA44"/>
<path d="M17.6329 10.4348L18.6866 12.6381L21.0661 12.0884L20.0005 14.2858L21.9141 15.8033L19.5316 16.3404L19.5382 18.7827L17.6329 17.2548L15.7276 18.7827L15.7341 16.3404L13.3516 15.8033L15.2652 14.2858L14.1995 12.0884L16.5792 12.6381L17.6329 10.4348Z" fill="#FFDA44"/>
</g>
<defs>
<clipPath id="clip0_154_1410">
<rect width="48" height="48" fill="white"/>
</clipPath>
</defs>
</svg>
