<svg width="48" height="48" viewBox="0 0 48 48" fill="none" xmlns="http://www.w3.org/2000/svg">
<g clip-path="url(#clip0_154_1556)">
<path d="M24 48C37.2548 48 48 37.2548 48 24C48 10.7452 37.2548 0 24 0C10.7452 0 0 10.7452 0 24C0 37.2548 10.7452 48 24 48Z" fill="#F0F0F0"/>
<path d="M12.9714 33.3914L7.0293 40.9698C11.3722 45.3133 17.3715 48 23.9991 48C33.9206 48 42.4345 41.9786 46.0895 33.3914H12.9714Z" fill="#FFDA44"/>
<path d="M46.1268 14.6956C42.4922 6.06206 33.9542 0 23.9991 0C17.3715 0 11.3722 2.68678 7.0293 7.03022L13.0396 14.6956H46.1268Z" fill="#496E2D"/>
<path d="M5.2168 17.6522V30.2608H47.1727C47.711 28.2648 47.9994 26.1663 47.9994 24C47.9994 21.8023 47.7034 19.6742 47.15 17.6522H5.2168Z" fill="black"/>
<path d="M7.02942 7.02937C-2.34314 16.4019 -2.34314 31.598 7.02942 40.9706C10.9025 37.0975 14.6275 33.3726 24 24L7.02942 7.02937Z" fill="#A2001D"/>
<path d="M9.71389 17.7391L11.2678 22.5219H16.2971L12.2285 25.478L13.7824 30.2609L9.71389 27.3049L5.64523 30.2609L7.19942 25.478L3.13086 22.5219H8.1598L9.71389 17.7391Z" fill="#FFDA44"/>
<path d="M5.16602 24H14.262V28.1739H5.16602V24Z" fill="#F0F0F0"/>
<path d="M15.985 19.2149L14.5093 17.7391L9.7142 22.5343L4.91908 17.7391L3.44336 19.2149L8.2427 24.0058L3.44336 28.8052L4.91908 30.2609L9.7142 25.4744L14.5093 30.2609L15.985 28.8052L11.1857 24.0058L15.985 19.2149Z" fill="black"/>
</g>
<defs>
<clipPath id="clip0_154_1556">
<rect width="48" height="48" fill="white"/>
</clipPath>
</defs>
</svg>
