<svg width="48" height="48" viewBox="0 0 48 48" fill="none" xmlns="http://www.w3.org/2000/svg">
<g clip-path="url(#clip0_154_1572)">
<path d="M24 48C37.2548 48 48 37.2548 48 24C48 10.7452 37.2548 0 24 0C10.7452 0 0 10.7452 0 24C0 37.2548 10.7452 48 24 48Z" fill="#F0F0F0"/>
<path d="M7.02902 40.9706C8.0358 41.9773 9.10998 42.8752 10.2368 43.6657L43.6651 10.2373C42.8747 9.11047 41.9769 8.03629 40.97 7.0295C39.9632 6.02272 38.889 5.12497 37.7622 4.33447L4.33398 37.7629C5.12439 38.8895 6.02223 39.9638 7.02902 40.9706V40.9706Z" fill="#A2001D"/>
<path d="M7.02856 7.02943C-0.543064 14.6011 -1.99656 25.9722 2.66497 35.0042L35.0033 2.66603C25.9712 -1.99551 14.6 -0.541818 7.02856 7.02943V7.02943Z" fill="#0052B4"/>
<path d="M40.9708 40.9707C48.5423 33.3992 49.9958 22.028 45.3344 12.9958L12.9961 45.3342C22.0281 49.9957 33.3993 48.5422 40.9708 40.9707Z" fill="#496E2D"/>
<path d="M19.8252 13.5652L17.1359 14.8302L18.568 17.4348L15.6478 16.8762L15.2776 19.826L13.2436 17.6564L11.2095 19.826L10.8396 16.8762L7.9193 17.4347L9.35133 14.8301L6.66211 13.5652L9.35142 12.3002L7.9193 9.69579L10.8395 10.2544L11.2096 7.30432L13.2436 9.47407L15.2777 7.30432L15.6478 10.2544L18.568 9.69579L17.136 12.3003L19.8252 13.5652Z" fill="#FFDA44"/>
</g>
<defs>
<clipPath id="clip0_154_1572">
<rect width="48" height="48" fill="white"/>
</clipPath>
</defs>
</svg>
