<svg width="48" height="49" viewBox="0 0 48 49" fill="none" xmlns="http://www.w3.org/2000/svg">
<g clip-path="url(#clip0_154_977)">
<path d="M24 48.0107C37.2548 48.0107 48 37.2656 48 24.0107C48 10.7559 37.2548 0.0107422 24 0.0107422C10.7452 0.0107422 0 10.7559 0 24.0107C0 37.2656 10.7452 48.0107 24 48.0107Z" fill="#F0F0F0"/>
<path d="M47.9999 24.0108C47.9999 13.6916 41.4869 4.89457 32.3477 1.50354V46.5181C41.4869 43.1269 47.9999 34.3299 47.9999 24.0108V24.0108Z" fill="#D80027"/>
<path d="M0 24.0108C0 34.3299 6.51309 43.1269 15.6522 46.518V1.50354C6.51309 4.89457 0 13.6916 0 24.0108Z" fill="#0052B4"/>
</g>
<defs>
<clipPath id="clip0_154_977">
<rect width="48" height="48" fill="white" transform="translate(0 0.0107422)"/>
</clipPath>
</defs>
</svg>
