<svg width="48" height="48" viewBox="0 0 48 48" fill="none" xmlns="http://www.w3.org/2000/svg">
<g clip-path="url(#clip0_154_1641)">
<path d="M2.38144 13.5652C0.85575 16.7205 0 20.2602 0 24C0 27.7398 0.85575 31.2795 2.38144 34.4347L24 36.5217L45.6186 34.4347C47.1442 31.2795 48 27.7398 48 24C48 20.2602 47.1442 16.7205 45.6186 13.5652L24 11.4783L2.38144 13.5652Z" fill="#F0F0F0"/>
<path d="M2.38281 34.4348C6.26462 42.4627 14.4855 48.0001 24.0005 48.0001C33.5156 48.0001 41.7364 42.4627 45.6182 34.4348H2.38281Z" fill="#6DA544"/>
<path d="M2.38281 13.5652H45.6182C41.7364 5.53734 33.5155 0 24.0005 0C14.4856 0 6.26462 5.53734 2.38281 13.5652Z" fill="#FF9811"/>
<path d="M24.0001 32.3477C28.6105 32.3477 32.3479 28.6102 32.3479 23.9999C32.3479 19.3895 28.6105 15.6521 24.0001 15.6521C19.3898 15.6521 15.6523 19.3895 15.6523 23.9999C15.6523 28.6102 19.3898 32.3477 24.0001 32.3477Z" fill="#FF9811"/>
</g>
<defs>
<clipPath id="clip0_154_1641">
<rect width="48" height="48" fill="white"/>
</clipPath>
</defs>
</svg>
