<svg width="48" height="48" viewBox="0 0 48 48" fill="none" xmlns="http://www.w3.org/2000/svg">
<g clip-path="url(#clip0_154_1672)">
<path d="M34.435 2.38144C31.2797 0.85575 27.74 0 24.0002 0C20.2605 0 16.7207 0.85575 13.5655 2.38144L11.4785 24L13.5655 45.6186C16.7207 47.1442 20.2605 48 24.0002 48C27.74 48 31.2797 47.1442 34.435 45.6186L36.522 24L34.435 2.38144Z" fill="#F0F0F0"/>
<path d="M13.5652 2.38229C5.53734 6.26411 0 14.485 0 24C0 33.5151 5.53734 41.7359 13.5652 45.6177V2.38229Z" fill="#6DA544"/>
<path d="M34.4355 2.38229V45.6177C42.4635 41.7359 48.0008 33.515 48.0008 24C48.0008 14.485 42.4635 6.26411 34.4355 2.38229Z" fill="#6DA544"/>
<path d="M30.2601 31.3043L23.9992 11.4782L17.7383 31.3043H22.4339V36.5217H25.5644V31.3043H30.2601Z" fill="#6DA544"/>
</g>
<defs>
<clipPath id="clip0_154_1672">
<rect width="48" height="48" fill="white"/>
</clipPath>
</defs>
</svg>
