<svg width="48" height="48" viewBox="0 0 48 48" fill="none" xmlns="http://www.w3.org/2000/svg">
<g clip-path="url(#clip0_154_1648)">
<path d="M24 48C37.2548 48 48 37.2548 48 24C48 10.7452 37.2548 0 24 0C10.7452 0 0 10.7452 0 24C0 37.2548 10.7452 48 24 48Z" fill="#F0F0F0"/>
<path d="M0 24C0 34.3193 6.513 43.1162 15.6522 46.5073V1.49289C6.513 4.88383 0 13.681 0 24V24Z" fill="#6DA544"/>
<path d="M47.9999 24C47.9999 13.681 41.4869 4.88383 32.3477 1.49289V46.5074C41.4869 43.1162 47.9999 34.3193 47.9999 24V24Z" fill="#6DA544"/>
</g>
<defs>
<clipPath id="clip0_154_1648">
<rect width="48" height="48" fill="white"/>
</clipPath>
</defs>
</svg>
