<svg width="48" height="48" viewBox="0 0 48 48" fill="none" xmlns="http://www.w3.org/2000/svg">
<g clip-path="url(#clip0_154_1631)">
<path d="M24 48C37.2548 48 48 37.2548 48 24C48 10.7452 37.2548 0 24 0C10.7452 0 0 10.7452 0 24C0 37.2548 10.7452 48 24 48Z" fill="#F0F0F0"/>
<path d="M23.9994 0C14.4844 0 6.26286 5.53734 2.38086 13.5652H45.6179C41.736 5.53734 33.5144 0 23.9994 0V0Z" fill="#338AF3"/>
<path d="M23.9994 48C33.5144 48 41.736 42.4627 45.618 34.4348H2.38086C6.26286 42.4627 14.4844 48 23.9994 48Z" fill="#338AF3"/>
<path d="M23.9997 16.6956C19.9656 16.6956 16.6953 19.9658 16.6953 23.9999C16.6953 28.034 19.9656 31.3042 23.9997 31.3042C28.0337 31.3042 31.304 28.034 31.304 23.9999C31.304 19.9658 28.0337 16.6956 23.9997 16.6956ZM23.9997 28.1738C21.6945 28.1738 19.8257 26.3052 19.8257 23.9999C19.8257 21.6946 21.6944 19.826 23.9997 19.826C26.3049 19.826 28.1736 21.6946 28.1736 23.9999C28.1736 26.3052 26.3048 28.1738 23.9997 28.1738Z" fill="#FFDA44"/>
<path d="M27.6142 25.0434L23.9994 24L20.3846 25.0434L19.1797 27.1304H28.819L27.6142 25.0434Z" fill="#0052B4"/>
<path d="M23.9997 18.7827L21.5898 22.9567L23.9997 24.0001L26.4095 22.9567L23.9997 18.7827Z" fill="#338AF3"/>
<path d="M20.3848 25.0434H27.6144L26.4094 22.9565H21.5897L20.3848 25.0434Z" fill="#6DA544"/>
</g>
<defs>
<clipPath id="clip0_154_1631">
<rect width="48" height="48" fill="white"/>
</clipPath>
</defs>
</svg>
