<svg width="48" height="48" viewBox="0 0 48 48" fill="none" xmlns="http://www.w3.org/2000/svg">
<g clip-path="url(#clip0_154_1654)">
<path d="M48 24C48 37.2548 37.2548 48 24 48C10.7452 48 0 37.2548 0 24C0 24.0057 24 0.002625 24 0C37.2548 0 48 10.7452 48 24Z" fill="#FFDA44"/>
<path d="M24.0001 11.4783V19.5729L15.6523 11.4783H24.0001Z" fill="#0052B4"/>
<path d="M12.522 24H19.573L12.522 14.6087L11.4785 21.913L12.522 24Z" fill="#0052B4"/>
<path d="M23.9355 24H23.9998C23.9998 23.9784 23.9998 23.9574 23.9998 23.9358C23.9784 23.9573 23.957 23.9786 23.9355 24Z" fill="#F0F0F0"/>
<path d="M24 12.5217C24 8.29875 24 5.53172 24 0H23.996C10.7429 0.00225 0 10.7465 0 24H12.5217V16.949L19.5728 24H23.9359C23.9572 23.9786 23.9786 23.9573 24.0001 23.9358C24.0001 22.3189 24.0001 20.8762 24.0001 19.5729L16.9489 12.5217H24Z" fill="#F0F0F0"/>
<path d="M23.9998 21.0486L15.4727 12.5217H12.5215V12.5219L23.9996 23.9999H23.9998C23.9998 23.9999 23.9998 21.9649 23.9998 21.0486V21.0486Z" fill="#D80027"/>
<path d="M12.1425 3.13037C11.2173 3.65725 10.3309 4.2444 9.48786 4.88537H10.4726L7.86992 6.77668L8.86386 9.8364L6.26117 7.94546L5.98423 8.14675C4.90358 9.37393 3.94545 10.7116 3.13086 12.142V24H9.39177V9.39147V9.39128H24.0005C24.0005 7.41662 24.0005 5.53543 24.0005 3.13037H12.1425Z" fill="#D80027"/>
<path d="M10.252 4.32666C9.99317 4.50788 9.73798 4.69416 9.48664 4.88532L7.86898 6.77663L6.26023 7.94532L5.98095 8.14819C5.39164 8.81757 4.83898 9.51994 4.32617 10.2524C4.9107 10.5361 5.56686 10.6956 6.26023 10.6956C8.70955 10.6956 10.695 8.71013 10.695 6.26082C10.6952 5.56725 10.5358 4.91129 10.252 4.32666V4.32666Z" fill="#0052B4"/>
<path d="M5.98047 8.14825L6.25975 7.94538L8.86244 9.83641L7.86841 6.77669L10.4709 4.88538H9.48597C8.21153 5.85466 7.03712 6.94816 5.98047 8.14825V8.14825Z" fill="#FFDA44"/>
<path d="M16.589 4.17395L17.1071 5.76817H18.7833L17.4272 6.75358L17.945 8.34779L16.589 7.36248L15.2329 8.34779L15.7506 6.75358L14.3945 5.76817H16.0709L16.589 4.17395Z" fill="#FFDA44"/>
<path d="M6.26081 14.6087L6.77887 16.2029H8.45513L7.09912 17.1884L7.61691 18.7826L6.26081 17.7972L4.90463 18.7826L5.42241 17.1884L4.06641 16.2029H5.74266L6.26081 14.6087Z" fill="#FFDA44"/>
</g>
<defs>
<clipPath id="clip0_154_1654">
<rect width="48" height="48" fill="white"/>
</clipPath>
</defs>
</svg>
