<svg width="48" height="49" viewBox="0 0 48 49" fill="none" xmlns="http://www.w3.org/2000/svg">
<g clip-path="url(#clip0_154_982)">
<path d="M24 48.0107C37.2548 48.0107 48 37.2656 48 24.0107C48 10.7559 37.2548 0.0107422 24 0.0107422C10.7452 0.0107422 0 10.7559 0 24.0107C0 37.2656 10.7452 48.0107 24 48.0107Z" fill="#F0F0F0"/>
<path d="M2.91797 12.5325H45.0816C41.0111 5.07221 33.0968 0.0107422 23.9998 0.0107422C14.9028 0.0107422 6.9885 5.07221 2.91797 12.5325V12.5325Z" fill="#D80027"/>
<path d="M23.9998 48.0107C33.0968 48.0107 41.0111 42.9493 45.0817 35.489H2.91797C6.9885 42.9493 14.9028 48.0107 23.9998 48.0107Z" fill="#D80027"/>
<path d="M32.3479 24.0107C32.3479 28.6212 28.6105 31.3151 24.0001 31.3151C19.3898 31.3151 15.6523 28.6212 15.6523 24.0107C15.6523 19.4003 19.3898 15.663 24.0001 15.663C28.6105 15.663 32.3479 19.4003 32.3479 24.0107Z" fill="#FFDA44"/>
<path d="M32.3479 24.0107C32.3479 28.6212 28.6105 32.3585 24.0001 32.3585C19.3898 32.3585 15.6523 28.6212 15.6523 24.0107" fill="#0052B4"/>
<path d="M18.7822 21.9239H20.8692V26.0978H18.7822V21.9239Z" fill="#D80027"/>
<path d="M27.1299 21.9239H29.2169V26.0978H27.1299V21.9239Z" fill="#D80027"/>
<path d="M22.9561 18.7935H25.043V26.0978H22.9561V18.7935Z" fill="#D80027"/>
</g>
<defs>
<clipPath id="clip0_154_982">
<rect width="48" height="48" fill="white" transform="translate(0 0.0107422)"/>
</clipPath>
</defs>
</svg>
