<svg width="48" height="48" viewBox="0 0 48 48" fill="none" xmlns="http://www.w3.org/2000/svg">
<g clip-path="url(#clip0_154_1785)">
<path d="M24 48C37.2548 48 48 37.2548 48 24C48 10.7452 37.2548 0 24 0C10.7452 0 0 10.7452 0 24C0 37.2548 10.7452 48 24 48Z" fill="#F0F0F0"/>
<path d="M23.9999 0V24L7.0293 40.9706C11.3725 45.3137 17.3725 48 23.9999 48C37.2547 48 47.9999 37.2548 47.9999 24C47.9999 10.7452 23.9999 0 23.9999 0Z" fill="#D80027"/>
<path d="M23.9999 0C17.3725 0 11.3725 2.68631 7.0293 7.02938C12.9177 12.9178 15.0081 15.0082 23.9999 24H47.9999C47.9999 10.7452 37.2547 0 23.9999 0Z" fill="#0052B4"/>
<path d="M16.4345 24.0001L13.5035 22.6214L15.0643 19.7827L11.8815 20.3916L11.4782 17.1763L9.26117 19.541L7.04427 17.1763L6.64086 20.3916L3.45814 19.7826L5.01898 22.6214L2.08789 24.0001L5.01898 25.3787L3.45814 28.2174L6.64114 27.6086L7.04417 30.8238L9.26117 28.4591L11.4782 30.8238L11.8815 27.6086L15.0641 28.2175L13.5034 25.3788L16.4345 24.0001Z" fill="#FFDA44"/>
<path d="M6.40164 9.39136L7.37702 10.7548L8.97498 10.2486L7.97955 11.5975L8.95492 12.9609L7.36436 12.4311L6.36902 13.7799L6.38148 12.1036L4.79102 11.5738L6.38927 11.0676L6.40164 9.39136Z" fill="#FFDA44"/>
<path d="M6.40164 34.2202L7.37702 35.5836L8.97498 35.0774L7.97955 36.4263L8.95492 37.7897L7.36436 37.26L6.36902 38.6087L6.38148 36.9325L4.79102 36.4026L6.38927 35.8965L6.40164 34.2202Z" fill="#FFDA44"/>
<path d="M20.3136 21.8058L19.3383 23.1693L17.7402 22.6629L18.7357 24.0119L17.7603 25.3754L19.3509 24.8455L20.3463 26.1943L20.3337 24.5181L21.9242 23.9883L20.326 23.4821L20.3136 21.8058Z" fill="#FFDA44"/>
</g>
<defs>
<clipPath id="clip0_154_1785">
<rect width="48" height="48" fill="white"/>
</clipPath>
</defs>
</svg>
