<svg width="48" height="48" viewBox="0 0 48 48" fill="none" xmlns="http://www.w3.org/2000/svg">
<g clip-path="url(#clip0_154_1820)">
<path d="M24 48C37.2548 48 48 37.2548 48 24C48 10.7452 37.2548 0 24 0C10.7452 0 0 10.7452 0 24C0 37.2548 10.7452 48 24 48Z" fill="#F0F0F0"/>
<path d="M23.9999 0C16.1481 0 9.17733 3.77091 4.79883 9.6H43.2009C38.8224 3.77091 31.8516 0 23.9999 0Z" fill="#D80027"/>
<path d="M23.9999 48C31.8516 48 38.8224 44.2291 43.2009 38.4H4.79883C9.17733 44.2291 16.1481 48 23.9999 48Z" fill="#D80027"/>
<path d="M0 24C0 25.6439 0.16575 27.2491 0.480656 28.8H47.5195C47.8344 27.2491 48 25.6439 48 24C48 22.3561 47.8342 20.7509 47.5194 19.2H0.480656C0.16575 20.7509 0 22.3561 0 24H0Z" fill="#D80027"/>
<path d="M7.02942 7.02936C-2.34314 16.4019 -2.34314 31.5979 7.02942 40.9706C10.9025 37.0975 14.6275 33.3725 24 24L7.02942 7.02936Z" fill="#0052B4"/>
<path d="M9.71389 17.739L11.2678 22.5218H16.2971L12.2285 25.4779L13.7824 30.2608L9.71389 27.3048L5.64523 30.2608L7.19942 25.4779L3.13086 22.5218H8.1598L9.71389 17.739Z" fill="#F0F0F0"/>
</g>
<defs>
<clipPath id="clip0_154_1820">
<rect width="48" height="48" fill="white"/>
</clipPath>
</defs>
</svg>
