<svg width="48" height="48" viewBox="0 0 48 48" fill="none" xmlns="http://www.w3.org/2000/svg">
<g clip-path="url(#clip0_154_1772)">
<path d="M24 48C37.2548 48 48 37.2548 48 24C48 10.7452 37.2548 0 24 0C10.7452 0 0 10.7452 0 24C0 37.2548 10.7452 48 24 48Z" fill="#F0F0F0"/>
<path d="M23.9994 0C14.4844 0 6.26286 5.53734 2.38086 13.5652H45.6179C41.736 5.53734 33.5144 0 23.9994 0V0Z" fill="#D80027"/>
<path d="M23.9994 48.0001C33.5144 48.0001 41.736 42.4627 45.618 34.4348H2.38086C6.26286 42.4627 14.4844 48.0001 23.9994 48.0001Z" fill="#0052B4"/>
<path d="M29.9028 17.0538L27.6893 19.2673C28.6334 20.2115 29.2175 21.5158 29.2175 22.9566C29.2175 25.8381 26.8815 28.1739 24.0001 28.1739C21.1187 28.1739 18.7828 25.838 18.7828 22.9566C18.7828 21.5158 19.3668 20.2115 20.311 19.2673L18.0974 17.0538C16.5867 18.5643 15.6523 20.6512 15.6523 22.9566C15.6523 27.567 19.3898 31.3043 24.0001 31.3043C28.6105 31.3043 32.3479 27.5669 32.3479 22.9566C32.3478 20.6512 31.4135 18.5643 29.9028 17.0538V17.0538Z" fill="#6DA544"/>
<path d="M24.0005 19.8262L24.7776 22.2177H27.2921L25.2578 23.6956L26.0349 26.0871L24.0005 24.6091L21.9662 26.0871L22.7433 23.6956L20.709 22.2177H23.2235L24.0005 19.8262Z" fill="#FFDA44"/>
</g>
<defs>
<clipPath id="clip0_154_1772">
<rect width="48" height="48" fill="white"/>
</clipPath>
</defs>
</svg>
