<svg width="48" height="48" viewBox="0 0 48 48" fill="none" xmlns="http://www.w3.org/2000/svg">
<g clip-path="url(#clip0_154_1829)">
<path d="M24 48C37.2548 48 48 37.2548 48 24C48 10.7452 37.2548 0 24 0C10.7452 0 0 10.7452 0 24C0 37.2548 10.7452 48 24 48Z" fill="#F0F0F0"/>
<path d="M47.9993 24C47.9993 10.7452 37.2541 0 23.9993 0C19.3043 0 14.9249 1.34953 11.2257 3.67978L16.4863 5.91487L9.39062 8.92969L16.4863 11.9444L9.39062 14.959L16.4863 17.9736L9.39062 20.9877L16.4863 24.0017L9.39062 27.0163L16.4863 30.0308L9.39062 33.0449L16.4863 36.0593L9.39062 39.074L16.4863 42.0881L11.228 44.322C14.9268 46.6511 19.3052 48 23.9993 48C37.2541 48 47.9993 37.2548 47.9993 24Z" fill="#751A46"/>
</g>
<defs>
<clipPath id="clip0_154_1829">
<rect width="48" height="48" fill="white"/>
</clipPath>
</defs>
</svg>
