<svg width="48" height="49" viewBox="0 0 48 49" fill="none" xmlns="http://www.w3.org/2000/svg">
<g clip-path="url(#clip0_154_1856)">
<path d="M32.347 1.50343C29.7469 0.538836 26.9349 0.0107422 23.9992 0.0107422C21.0635 0.0106484 18.2514 0.538836 15.6514 1.50343L13.5645 24.0106L15.6514 46.5179C18.2513 47.4827 21.0634 48.0107 23.9992 48.0107C26.9348 48.0107 29.747 47.4827 32.347 46.5179L34.4339 24.0107L32.347 1.50343Z" fill="#FFDA44"/>
<path d="M47.9999 24.0108C47.9999 13.6917 41.4869 4.89448 32.3477 1.50354V46.5182C41.4869 43.1269 47.9998 34.33 47.9999 24.0108Z" fill="#D80027"/>
<path d="M0 24.0106C0 34.33 6.513 43.1268 15.652 46.518L15.6521 1.5036C6.513 4.89454 0 13.6915 0 24.0106H0Z" fill="#0052B4"/>
</g>
<defs>
<clipPath id="clip0_154_1856">
<rect width="48" height="48" fill="white" transform="translate(0 0.0107422)"/>
</clipPath>
</defs>
</svg>
