<svg width="48" height="49" viewBox="0 0 48 49" fill="none" xmlns="http://www.w3.org/2000/svg">
<g clip-path="url(#clip0_154_1866)">
<path d="M0 24.0107C0 28.1685 1.05778 32.0792 2.91816 35.489L24 37.576L45.0818 35.489C46.9422 32.0792 48 28.1685 48 24.0107L24 21.9238L0 24.0107Z" fill="#FFDA44"/>
<path d="M45.0818 12.5325C41.0113 5.07221 33.097 0.0107422 24 0.0107422C14.903 0.0107422 6.98869 5.07221 2.91816 12.5325C1.05778 15.9422 0 19.8529 0 24.0107H48C48 19.8529 46.9422 15.9422 45.0818 12.5325Z" fill="#338AF3"/>
<path d="M23.9998 48.0107C33.0968 48.0107 41.0111 42.9493 45.0817 35.489H2.91797C6.9885 42.9493 14.9028 48.0107 23.9998 48.0107Z" fill="#496E2D"/>
<path d="M27.1309 14.0564L30.062 15.4351L28.5012 18.2739L31.684 17.6651L32.0873 20.8802L34.3041 18.5155L36.5211 20.8802L36.9244 17.6651L40.1072 18.2737L38.5464 15.435L41.4774 14.0564L38.5463 12.6778L40.1072 9.83901L36.9245 10.4478L36.521 7.23267L34.3041 9.59742L32.0872 7.23267L31.684 10.4478L28.5011 9.83901L30.062 12.6779L27.1309 14.0564Z" fill="#FFDA44"/>
</g>
<defs>
<clipPath id="clip0_154_1866">
<rect width="48" height="48" fill="white" transform="translate(0 0.0107422)"/>
</clipPath>
</defs>
</svg>
