<svg width="48" height="49" viewBox="0 0 48 49" fill="none" xmlns="http://www.w3.org/2000/svg">
<g clip-path="url(#clip0_154_2036)">
<path d="M40.9707 40.982C49.9717 31.9809 50.3271 17.6105 42.0407 8.18311L23.9995 24.0106L8.17188 42.0519C17.5993 50.3384 31.9696 49.983 40.9707 40.982V40.982Z" fill="#496E2D"/>
<path d="M7.02875 7.03954C16.0298 -1.96147 30.4002 -2.31688 39.8276 5.96958L23.9999 24.011L5.95888 39.8384C-2.32767 30.411 -1.97217 16.0406 7.02875 7.03954V7.03954Z" fill="#0052B4"/>
<path d="M39.8277 5.96948L5.95898 39.8383C6.30136 40.2278 6.65686 40.6099 7.02895 40.9819C7.40095 41.3539 7.78317 41.7094 8.17279 42.0519L42.0413 8.1831C41.6989 7.79348 41.3434 7.41135 40.9713 7.03926C40.5994 6.66745 40.2172 6.31186 39.8277 5.96948V5.96948Z" fill="#FFDA44"/>
<path d="M10.1124 8.35791L10.6305 9.95231H12.3069L10.9507 10.9375L11.4686 12.5319L10.1124 11.5465L8.75609 12.5319L9.27425 10.9375L7.91797 9.95231H9.5944L10.1124 8.35791Z" fill="#F0F0F0"/>
<path d="M18.6749 8.35791L19.193 9.95231H20.8693L19.5131 10.9375L20.0311 12.5319L18.6749 11.5465L17.3186 12.5319L17.8367 10.9375L16.4805 9.95231H18.1568L18.6749 8.35791Z" fill="#F0F0F0"/>
<path d="M10.1124 16.7061L10.6305 18.3005H12.3069L10.9507 19.2858L11.4686 20.8802L10.1124 19.8948L8.75609 20.8802L9.27425 19.2858L7.91797 18.3005H9.5944L10.1124 16.7061Z" fill="#F0F0F0"/>
<path d="M18.6749 16.7061L19.193 18.3005H20.8693L19.5131 19.2858L20.0311 20.8802L18.6749 19.8948L17.3186 20.8802L17.8367 19.2858L16.4805 18.3005H18.1568L18.6749 16.7061Z" fill="#F0F0F0"/>
<path d="M14.3937 12.5319L14.9119 14.1263H16.5881L15.2319 15.1116L15.75 16.706L14.3937 15.7206L13.0374 16.706L13.5555 15.1116L12.1992 14.1263H13.8757L14.3937 12.5319Z" fill="#F0F0F0"/>
</g>
<defs>
<clipPath id="clip0_154_2036">
<rect width="48" height="48" fill="white" transform="translate(0 0.0107422)"/>
</clipPath>
</defs>
</svg>
