<svg width="48" height="49" viewBox="0 0 48 49" fill="none" xmlns="http://www.w3.org/2000/svg">
<g clip-path="url(#clip0_154_1983)">
<path d="M24 48.0107C37.2548 48.0107 48 37.2656 48 24.0107C48 10.7559 37.2548 0.0107422 24 0.0107422C10.7452 0.0107422 0 10.7559 0 24.0107C0 37.2656 10.7452 48.0107 24 48.0107Z" fill="#F0F0F0"/>
<path d="M0 24.0108C0 10.756 10.7452 0.0107422 24 0.0107422C37.2548 0.0107422 48 10.756 48 24.0108" fill="#D80027"/>
<path d="M14.609 12.5323C14.609 9.03559 17.0665 6.11453 20.3481 5.39781C19.8437 5.28775 19.3205 5.22803 18.7829 5.22803C14.7487 5.22803 11.4785 8.49822 11.4785 12.5324C11.4785 16.5665 14.7487 19.8367 18.7829 19.8367C19.3203 19.8367 19.8436 19.777 20.3481 19.6668C17.0665 18.9501 14.609 16.0291 14.609 12.5323V12.5323Z" fill="#F0F0F0"/>
<path d="M24.001 5.74976L24.519 7.34397H26.1954L24.8391 8.32938L25.3571 9.9236L24.001 8.93838L22.6448 9.9236L23.1628 8.32938L21.8066 7.34397H23.4829L24.001 5.74976Z" fill="#F0F0F0"/>
<path d="M19.9347 8.88013L20.4527 10.4744H22.129L20.7729 11.4598L21.2909 13.054L19.9347 12.0688L18.5784 13.054L19.0965 11.4598L17.7402 10.4744H19.4166L19.9347 8.88013Z" fill="#F0F0F0"/>
<path d="M28.0674 8.88013L28.5855 10.4744H30.2618L28.9055 11.4598L29.4236 13.054L28.0674 12.0688L26.7112 13.054L27.2292 11.4598L25.873 10.4744H27.5493L28.0674 8.88013Z" fill="#F0F0F0"/>
<path d="M26.501 13.5759L27.019 15.1702H28.6953L27.3391 16.1556L27.8571 17.7498L26.501 16.7646L25.1448 17.7498L25.6628 16.1556L24.3066 15.1702H25.9828L26.501 13.5759Z" fill="#F0F0F0"/>
<path d="M21.4991 13.5758L22.0171 15.1701H23.6935L22.3372 16.1554L22.8554 17.7496L21.4991 16.7644L20.1428 17.7496L20.6609 16.1554L19.3047 15.1701H20.981L21.4991 13.5758Z" fill="#F0F0F0"/>
</g>
<defs>
<clipPath id="clip0_154_1983">
<rect width="48" height="48" fill="white" transform="translate(0 0.0107422)"/>
</clipPath>
</defs>
</svg>
