<svg width="48" height="49" viewBox="0 0 48 49" fill="none" xmlns="http://www.w3.org/2000/svg">
<g clip-path="url(#clip0_154_1978)">
<path d="M46.5072 32.3575C47.472 29.7576 48 26.9454 48 24.0098C48 21.0741 47.472 18.2619 46.5072 15.662L24 13.575L1.49278 15.662C0.528 18.2619 0 21.0741 0 24.0098C0 26.9454 0.528 29.7576 1.49278 32.3575L24 34.4445L46.5072 32.3575Z" fill="#F0F0F0"/>
<path d="M23.9995 48.0099C34.3186 48.0099 43.1157 41.4969 46.5066 32.3577H1.49219C4.88331 41.4969 13.6802 48.0099 23.9995 48.0099Z" fill="#338AF3"/>
<path d="M23.9995 0.00976562C13.6803 0.00976562 4.88331 6.52277 1.49219 15.662H46.5067C43.1157 6.52277 34.3186 0.00976562 23.9995 0.00976562Z" fill="#6DA544"/>
</g>
<defs>
<clipPath id="clip0_154_1978">
<rect width="48" height="48" fill="white" transform="translate(0 0.00976562)"/>
</clipPath>
</defs>
</svg>
