<svg width="48" height="49" viewBox="0 0 48 49" fill="none" xmlns="http://www.w3.org/2000/svg">
<g clip-path="url(#clip0_154_2094)">
<path d="M24 48.0107C37.2548 48.0107 48 37.2656 48 24.0107C48 10.7559 37.2548 0.0107422 24 0.0107422C10.7452 0.0107422 0 10.7559 0 24.0107C0 37.2656 10.7452 48.0107 24 48.0107Z" fill="#F0F0F0"/>
<path d="M46.1268 14.7063C42.4922 6.0728 33.9542 0.0107422 23.9991 0.0107422C17.3715 0.0107422 11.3722 2.69752 7.0293 7.04096L13.0396 14.7063H46.1268Z" fill="black"/>
<path d="M13.1078 33.2283L7.0293 40.9806C11.3722 45.324 17.3715 48.0108 23.9991 48.0108C33.9878 48.0108 42.5501 41.9082 46.1638 33.2283H13.1078Z" fill="#496E2D"/>
<path d="M5.2168 17.6628V30.2715H47.1727C47.711 28.2754 47.9994 26.1769 47.9994 24.0107C47.9994 21.813 47.7034 19.6848 47.15 17.6628H5.2168Z" fill="#A2001D"/>
<path d="M7.02942 7.0401C-2.34314 16.4127 -2.34314 31.6087 7.02942 40.9813C10.9025 37.1083 14.6275 33.3833 24 24.0107L7.02942 7.0401Z" fill="#0052B4"/>
<path d="M7.81778 18.0437L10.747 22.1313L15.5403 20.6083L12.558 24.6577L15.4872 28.7455L10.7146 27.1604L7.73219 31.2097L7.765 26.1806L2.99219 24.5954L7.78506 23.0725L7.81778 18.0437Z" fill="#FFDA44"/>
</g>
<defs>
<clipPath id="clip0_154_2094">
<rect width="48" height="48" fill="white" transform="translate(0 0.0107422)"/>
</clipPath>
</defs>
</svg>
