<svg width="48" height="49" viewBox="0 0 48 49" fill="none" xmlns="http://www.w3.org/2000/svg">
<g clip-path="url(#clip0_154_2010)">
<path d="M21.913 26.0977C21.913 26.0977 7.04336 7.03684 7.0293 7.04021C11.3724 2.69705 17.3725 0.0107422 23.9999 0.0107422C37.2547 0.0107422 47.9999 10.756 47.9999 24.0107L21.913 26.0977Z" fill="#D80027"/>
<path d="M21.913 24.0107C21.913 24.0107 7.04336 40.9846 7.0293 40.9813C11.3724 45.3244 17.3725 48.0107 23.9999 48.0107C37.2547 48.0107 47.9999 37.2655 47.9999 24.0107H21.913Z" fill="#0052B4"/>
<path d="M7.02942 7.0401C-2.34314 16.4127 -2.34314 31.6087 7.02942 40.9813C10.9025 37.1083 14.6275 33.3833 24 24.0107L7.02942 7.0401Z" fill="#F0F0F0"/>
<path d="M2.63141 24.0107C2.61828 24.1831 2.60938 24.3567 2.60938 24.5324C2.60938 28.2782 5.64613 31.315 9.392 31.315C13.1379 31.315 16.1746 28.2782 16.1746 24.5324C16.1746 24.3567 16.1657 24.183 16.1526 24.0107H2.63141Z" fill="#FFDA44"/>
<path d="M9.39166 20.8802C10.5443 20.8802 11.4786 19.9459 11.4786 18.7933C11.4786 17.6407 10.5443 16.7063 9.39166 16.7063C8.23906 16.7063 7.30469 17.6407 7.30469 18.7933C7.30469 19.9459 8.23906 20.8802 9.39166 20.8802Z" fill="#FFDA44"/>
<path d="M4.69531 18.2717V25.0544C4.69531 28.6487 9.39097 29.75 9.39097 29.75C9.39097 29.75 14.0866 28.6487 14.0866 25.0544V18.2717H4.69531Z" fill="#D80027"/>
<path d="M9.39423 27.5659C8.52311 27.2524 6.7832 26.4512 6.7832 25.0543V20.3586H12.0007V25.0543C12.0007 26.4558 10.261 27.255 9.39423 27.5659V27.5659Z" fill="#338AF3"/>
<path d="M10.4349 22.9673V21.9238L9.39142 21.402L8.34789 21.9238V22.9673L7.82617 23.489V25.576H10.9567V23.489L10.4349 22.9673Z" fill="#F3F3F3"/>
</g>
<defs>
<clipPath id="clip0_154_2010">
<rect width="48" height="48" fill="white" transform="translate(0 0.0107422)"/>
</clipPath>
</defs>
</svg>
