<svg width="48" height="48" viewBox="0 0 48 48" fill="none" xmlns="http://www.w3.org/2000/svg">
<g clip-path="url(#clip0_154_2321)">
<path d="M48 24C48 37.2548 37.2548 48 24 48C10.7452 48 0 37.2548 0 24C0 24.0057 24 0.002625 24 0C37.2548 0 48 10.7452 48 24Z" fill="#0052B4"/>
<path d="M23.9355 24H23.9998C23.9998 23.9784 23.9998 23.9574 23.9998 23.9358C23.9784 23.9573 23.957 23.9786 23.9355 24Z" fill="#F0F0F0"/>
<path d="M24 12.5217C24 8.29875 24 5.53172 24 0H23.996C10.7429 0.00225 0 10.7465 0 24H12.5217V16.949L19.5728 24H23.9359C23.9572 23.9786 23.9786 23.9573 24.0001 23.9358C24.0001 22.3189 24.0001 20.8762 24.0001 19.5729L16.9489 12.5217H24Z" fill="#F0F0F0"/>
<path d="M12.1425 3.13037C8.38883 5.26778 5.26817 8.38834 3.13086 12.142V24H9.39177V9.39147V9.39128H24.0005C24.0005 7.41662 24.0005 5.53543 24.0005 3.13037H12.1425Z" fill="#D80027"/>
<path d="M23.9998 21.0486L15.4727 12.5217H12.5215V12.5219L23.9996 23.9999H23.9998C23.9998 23.9999 23.9998 21.9649 23.9998 21.0486V21.0486Z" fill="#D80027"/>
<path d="M27.1309 12.5217V23.9999C27.1309 29.5912 34.4352 31.3044 34.4352 31.3044C34.4352 31.3044 41.7395 29.5912 41.7395 23.9999V12.5217H27.1309Z" fill="#FFDA44"/>
<path d="M33.3907 16.6956C33.3907 17.8483 32.4564 20.8695 31.3038 20.8695C30.1511 20.8695 29.2168 17.8483 29.2168 16.6956C29.2168 15.543 31.3038 14.6086 31.3038 14.6086C31.3038 14.6086 33.3907 15.543 33.3907 16.6956Z" fill="#FF9811"/>
<path d="M38.9284 18.9686C39.2652 18.1469 39.5271 16.9457 39.5271 16.3478C39.5271 15.3872 38.2749 14.6086 38.2749 14.6086C38.2749 14.6086 37.0227 15.3873 37.0227 16.3478C37.0227 16.9457 37.2846 18.1469 37.6213 18.9686L36.8984 20.6008C37.3233 20.7735 37.7877 20.8695 38.2748 20.8695C38.7618 20.8695 39.2262 20.7735 39.6511 20.6008L38.9284 18.9686Z" fill="#A2001D"/>
<path d="M32.8696 24C32.8696 24 31.8262 26.087 31.8262 28.1739H37.0435C37.0435 26.087 36 24 36 24L34.4348 22.9565L32.8696 24Z" fill="#6DA544"/>
<path d="M35.9996 24.0001V23.4783C35.9996 22.614 35.2989 21.9131 34.4344 21.9131C33.57 21.9131 32.8691 22.6139 32.8691 23.4783V24.0001H35.9996Z" fill="#D80027"/>
</g>
<defs>
<clipPath id="clip0_154_2321">
<rect width="48" height="48" fill="white"/>
</clipPath>
</defs>
</svg>
