<svg width="48" height="48" viewBox="0 0 48 48" fill="none" xmlns="http://www.w3.org/2000/svg">
<g clip-path="url(#clip0_154_2218)">
<path d="M24 48C37.2548 48 48 37.2548 48 24C48 10.7452 37.2548 0 24 0C10.7452 0 0 10.7452 0 24C0 37.2548 10.7452 48 24 48Z" fill="#F0F0F0"/>
<path d="M46.5072 15.6522H1.49278C0.528 18.2522 0 21.0643 0 24C0 26.9357 0.528 29.7478 1.49278 32.3478H46.5073C47.472 29.7478 48 26.9357 48 24C48 21.0643 47.472 18.2522 46.5072 15.6522Z" fill="#0052B4"/>
<path d="M23.9999 0C16.7257 0 10.2079 3.23662 5.80664 8.34778H42.193C37.7918 3.23662 31.274 0 23.9999 0V0Z" fill="#D80027"/>
<path d="M42.1931 39.6522H5.80664C10.2079 44.7634 16.7257 48 23.9999 48C31.274 48 37.7918 44.7634 42.1931 39.6522Z" fill="#D80027"/>
</g>
<defs>
<clipPath id="clip0_154_2218">
<rect width="48" height="48" fill="white"/>
</clipPath>
</defs>
</svg>
