<svg width="48" height="48" viewBox="0 0 48 48" fill="none" xmlns="http://www.w3.org/2000/svg">
<g clip-path="url(#clip0_154_2198)">
<path d="M2.38144 13.5652C0.85575 16.7205 0 20.2603 0 24C0 27.7397 0.85575 31.2795 2.38144 34.4347L24 36.5217L45.6186 34.4347C47.1442 31.2795 48 27.7397 48 24C48 20.2603 47.1442 16.7205 45.6186 13.5652L24 11.4783L2.38144 13.5652Z" fill="#F0F0F0"/>
<path d="M2.38281 34.4348C6.26472 42.4626 14.4856 48.0001 24.0005 48.0001C33.5155 48.0001 41.7364 42.4626 45.6182 34.4348H2.38281Z" fill="#6DA544"/>
<path d="M2.38281 13.5652H45.6182C41.7364 5.53744 33.5155 0 24.0005 0C14.4856 0 6.26472 5.53744 2.38281 13.5652Z" fill="#D80027"/>
<path d="M19.8262 30.2609H28.174V26.713L26.5045 27.5478L24.0001 25.0435L21.4958 27.5478L19.8262 26.713V30.2609Z" fill="#FFDA44"/>
<path d="M15.0501 26.0869L15.4387 27.2826H16.6959L15.6787 28.0216L16.0673 29.2173L15.0501 28.4784L14.0329 29.2173L14.4215 28.0216L13.4043 27.2826H14.6615L15.0501 26.0869Z" fill="#FFDA44"/>
<path d="M16.2552 21.9131L16.6437 23.1088H17.9009L16.8837 23.8478L17.2722 25.0435L16.2552 24.3046L15.238 25.0435L15.6266 23.8478L14.6094 23.1088H15.8666L16.2552 21.9131Z" fill="#FFDA44"/>
<path d="M19.6985 18.7827L20.0871 19.9783H21.3442L20.3272 20.7174L20.7156 21.9131L19.6985 21.1741L18.6814 21.9131L19.0699 20.7174L18.0527 19.9783H19.31L19.6985 18.7827Z" fill="#FFDA44"/>
<path d="M32.9505 26.0869L32.5619 27.2826H31.3047L32.3219 28.0216L31.9333 29.2173L32.9505 28.4784L33.9676 29.2173L33.5791 28.0216L34.5963 27.2826H33.3391L32.9505 26.0869Z" fill="#FFDA44"/>
<path d="M31.7454 21.9131L31.3568 23.1088H30.0996L31.1168 23.8478L30.7282 25.0435L31.7454 24.3046L32.7626 25.0435L32.374 23.8478L33.3912 23.1088H32.134L31.7454 21.9131Z" fill="#FFDA44"/>
<path d="M28.3019 18.7827L27.9133 19.9783H26.6562L27.6732 20.7174L27.2847 21.9131L28.3019 21.1741L29.319 21.9131L28.9305 20.7174L29.9476 19.9783H28.6904L28.3019 18.7827Z" fill="#FFDA44"/>
<path d="M23.9993 17.2173L24.3879 18.413H25.6451L24.6279 19.152L25.0165 20.3477L23.9993 19.6088L22.9821 20.3477L23.3707 19.152L22.3535 18.413H23.6107L23.9993 17.2173Z" fill="#FFDA44"/>
</g>
<defs>
<clipPath id="clip0_154_2198">
<rect width="48" height="48" fill="white"/>
</clipPath>
</defs>
</svg>
