<svg width="48" height="48" viewBox="0 0 48 48" fill="none" xmlns="http://www.w3.org/2000/svg">
<g clip-path="url(#clip0_154_2251)">
<path d="M24 48C37.2548 48 48 37.2548 48 24C48 10.7452 37.2548 0 24 0C10.7452 0 0 10.7452 0 24C0 37.2548 10.7452 48 24 48Z" fill="#FFDA44"/>
<path d="M38.6087 11.4783C38.3934 12.5128 38.2957 13.6147 38.2957 14.713C38.2957 21.0443 42.0699 26.5241 47.4788 28.991C47.8194 27.3807 48 25.7115 48 24C48 10.7452 37.2548 0 24 0C10.7452 0 0 10.7452 0 24C0 37.2548 10.7452 48 24 48C32.2202 48 39.4742 43.8664 43.7996 37.5653H13.5652V34.4348H45.6186C45.9466 33.7565 46.2429 33.06 46.5073 32.3479H13.5652L38.6087 11.4783Z" fill="#0052B4"/>
<path d="M17.6319 12.5217L18.15 14.116H19.8262L18.4701 15.1014L18.9882 16.6957L17.6319 15.7104L16.2758 16.6957L16.7938 15.1014L15.4375 14.116H17.1138L17.6319 12.5217Z" fill="#F0F0F0"/>
<path d="M10.821 24L11.4686 25.993H13.5639L11.8686 27.2244L12.5162 29.2174L10.821 27.9857L9.12578 29.2174L9.77331 27.2244L8.07812 25.993H10.1734L10.821 24Z" fill="#F0F0F0"/>
<path d="M10.821 7.30444L11.4686 9.29747H13.5639L11.8686 10.5289L12.5162 12.5218L10.821 11.2901L9.12578 12.5218L9.77331 10.5289L8.07812 9.29747H10.1734L10.821 7.30444Z" fill="#F0F0F0"/>
<path d="M5.60417 16.6957L6.2518 18.6888H8.34702L6.65183 19.9202L7.29945 21.9131L5.60417 20.6814L3.90898 21.9131L4.55652 19.9202L2.86133 18.6888H4.95655L5.60417 16.6957Z" fill="#F0F0F0"/>
</g>
<defs>
<clipPath id="clip0_154_2251">
<rect width="48" height="48" fill="white"/>
</clipPath>
</defs>
</svg>
