<svg width="48" height="49" viewBox="0 0 48 49" fill="none" xmlns="http://www.w3.org/2000/svg">
<g clip-path="url(#clip0_154_864)">
<path d="M24 48.0117C37.2548 48.0117 48 37.2666 48 24.0117C48 10.7569 37.2548 0.0117188 24 0.0117188C10.7452 0.0117188 0 10.7569 0 24.0117C0 37.2666 10.7452 48.0117 24 48.0117Z" fill="#FFDA44"/>
<path d="M24.0002 0.0117188C18.1242 0.0117188 12.7424 2.12456 8.57031 5.63053L34.4349 24.0117L8.57031 42.3929C12.7424 45.8989 18.1242 48.0117 24.0002 48.0117C37.2549 48.0117 48.0002 37.2665 48.0002 24.0117C48.0002 10.757 37.2549 0.0117188 24.0002 0.0117188Z" fill="#D80027"/>
<path d="M7.02942 7.04108C-2.34314 16.4136 -2.34314 31.6097 7.02942 40.9823C10.9025 37.1092 14.6275 33.3843 24 24.0117L7.02942 7.04108Z" fill="black"/>
<path d="M6.65514 18.5137L10.3076 21.9704L14.724 19.5644L12.5654 24.1066L16.218 27.5635L11.2311 26.914L9.0722 31.456L8.14905 26.5124L3.16211 25.8627L7.5783 23.457L6.65514 18.5137Z" fill="#F0F0F0"/>
</g>
<defs>
<clipPath id="clip0_154_864">
<rect width="48" height="48" fill="white" transform="translate(0 0.0117188)"/>
</clipPath>
</defs>
</svg>
