<svg width="48" height="48" viewBox="0 0 48 48" fill="none" xmlns="http://www.w3.org/2000/svg">
<g clip-path="url(#clip0_154_2292)">
<path d="M23.999 0C22.2071 0 20.4615 0.198094 18.7817 0.570469L17.7383 23.9999L18.7817 47.4294C20.4616 47.8018 22.2072 48 23.999 48C37.2538 48 47.999 37.2547 47.999 23.9999C47.9989 10.7452 37.2538 0 23.999 0V0Z" fill="#496E2D"/>
<path d="M6.26081 7.83484C2.37169 12.1001 0 17.7729 0 24C0 30.227 2.37178 35.8998 6.26091 40.1653L7.30434 24L6.26081 7.83484Z" fill="#496E2D"/>
<path d="M35.1024 18.1029C36.2831 14.8117 34.9566 11.2322 32.1097 9.44946C32.6217 9.51612 33.1344 9.63668 33.6402 9.81809C37.4374 11.1805 39.4112 15.3628 38.0488 19.1599C36.6865 22.9572 32.5041 24.9309 28.7069 23.5685C28.201 23.387 27.7285 23.154 27.291 22.88C30.622 23.3138 33.9216 21.3941 35.1024 18.1029V18.1029Z" fill="#F0F0F0"/>
<path d="M28.5532 8.54736L27.5271 9.87318L25.9494 9.30702L26.8931 10.6925L25.8672 12.0181L27.4764 11.5488L28.4203 12.934L28.4709 11.2585L30.0802 10.7891L28.5025 10.2231L28.5532 8.54736Z" fill="#F0F0F0"/>
<path d="M31.3228 12.8673L30.2968 14.193L28.7189 13.6269L29.6627 15.0123L28.6367 16.3379L30.2459 15.8684L31.1898 17.254L31.2406 15.5784L32.8498 15.1089L31.272 14.5428L31.3228 12.8673Z" fill="#F0F0F0"/>
<path d="M23.6685 10.1206L22.6424 11.4462L21.0646 10.8803L22.0084 12.2656L20.9824 13.5913L22.5915 13.1219L23.5354 14.5073L23.5862 12.8318L25.1955 12.3624L23.6177 11.7962L23.6685 10.1206Z" fill="#F0F0F0"/>
<path d="M23.5553 15.069L22.5293 16.3947L20.9515 15.8286L21.8953 17.2141L20.8691 18.5397L22.4785 18.0704L23.4223 19.4556L23.473 17.7801L25.0824 17.3107L23.5045 16.7446L23.5553 15.069Z" fill="#F0F0F0"/>
<path d="M28.2642 16.7585L27.2382 18.0842L25.6604 17.5181L26.6043 18.9035L25.5781 20.2291L27.1875 19.7598L28.1313 21.1452L28.182 19.4695L29.7913 19.0002L28.2134 18.4341L28.2642 16.7585Z" fill="#F0F0F0"/>
<path d="M6.26172 7.83487V40.1652C9.53172 43.7515 13.8752 46.3414 18.7834 47.4294V0.570557C13.8751 1.65862 9.53181 4.24846 6.26172 7.83487V7.83487Z" fill="#D80027"/>
<path d="M11.0397 12.6362L8.94336 11.0745V8.86604L11.0397 7.30444H14.0045L16.1009 8.86604V11.0745L14.0045 12.6362H11.0397Z" fill="#F0F0F0"/>
<path d="M12.5222 7.30444H11.0397L8.94336 8.86604V9.94576H12.5222V7.30444Z" fill="#FF9811"/>
<path d="M12.5215 12.6363H14.0039L16.1002 11.0746V9.948H12.5215V12.6363Z" fill="#FF9811"/>
<path d="M11.0397 40.6955L8.94336 39.1338V36.9255L11.0397 35.3638H14.0045L16.1009 36.9255V39.1338L14.0045 40.6955H11.0397Z" fill="#F0F0F0"/>
<path d="M12.5222 35.3638H11.0397L8.94336 36.9255V38.0052H12.5222V35.3638Z" fill="#FF9811"/>
<path d="M12.5215 40.6955H14.0039L16.1002 39.1338V38.0073H12.5215V40.6955Z" fill="#FF9811"/>
<path d="M11.0397 26.6657L8.94336 25.104V22.8957L11.0397 21.334H14.0045L16.1009 22.8957V25.104L14.0045 26.6657H11.0397Z" fill="#496E2D"/>
<path d="M16.1734 30.1017H15.2603V29.1886H13.6557L12.5212 28.0541L11.3867 29.1886H9.78217V30.1017H8.86914V31.9277H9.78217V32.8408H11.3866L12.5213 33.9754L13.6557 32.8408H15.2603V31.9277H16.1734V30.1017Z" fill="#496E2D"/>
<path d="M16.1734 16.0719H15.2603V15.1587H13.6557L12.5212 14.0242L11.3867 15.1587H9.78217V16.0719H8.86914V17.8979H9.78217V18.811H11.3866L12.5213 19.9457L13.6557 18.811H15.2603V17.8979H16.1734V16.0719Z" fill="#496E2D"/>
<path d="M11.4785 22.9564H13.5655V25.0434H11.4785V22.9564Z" fill="#D80027"/>
<path d="M12.522 18.028C13.0982 18.028 13.5654 17.5609 13.5654 16.9846C13.5654 16.4083 13.0982 15.9412 12.522 15.9412C11.9457 15.9412 11.4785 16.4083 11.4785 16.9846C11.4785 17.5609 11.9457 18.028 12.522 18.028Z" fill="#D80027"/>
<path d="M12.522 32.0586C13.0982 32.0586 13.5654 31.5914 13.5654 31.0151C13.5654 30.4388 13.0982 29.9717 12.522 29.9717C11.9457 29.9717 11.4785 30.4388 11.4785 31.0151C11.4785 31.5914 11.9457 32.0586 12.522 32.0586Z" fill="#D80027"/>
</g>
<defs>
<clipPath id="clip0_154_2292">
<rect width="48" height="48" fill="white"/>
</clipPath>
</defs>
</svg>
