<svg width="48" height="48" viewBox="0 0 48 48" fill="none" xmlns="http://www.w3.org/2000/svg">
<g clip-path="url(#clip0_154_2260)">
<path d="M24 48C37.2548 48 48 37.2548 48 24C48 10.7452 37.2548 0 24 0C10.7452 0 0 10.7452 0 24C0 37.2548 10.7452 48 24 48Z" fill="#F0F0F0"/>
<path d="M15.6515 12.5218V9.39136H12.521V12.5218H9.39062V15.6523H12.521V18.7827H15.6515V15.6523H18.7819V12.5218H15.6515Z" fill="#D80027"/>
<path d="M24 0V24C10.7452 24.0001 5.47734 24 0 24.0001C0 37.2548 10.7452 48 24 48C37.2548 48 48 37.2548 48 24C48 10.7452 37.2548 0 24 0Z" fill="#D80027"/>
</g>
<defs>
<clipPath id="clip0_154_2260">
<rect width="48" height="48" fill="white"/>
</clipPath>
</defs>
</svg>
