<svg width="48" height="48" viewBox="0 0 48 48" fill="none" xmlns="http://www.w3.org/2000/svg">
<g clip-path="url(#clip0_154_2286)">
<path d="M24 48C37.2548 48 48 37.2548 48 24C48 10.7452 37.2548 0 24 0C10.7452 0 0 10.7452 0 24C0 37.2548 10.7452 48 24 48Z" fill="#D80027"/>
<path d="M23.0174 19.6111L24.9866 22.3247L28.1757 21.2906L26.2034 24.0019L28.1724 26.7154L24.9844 25.6774L23.0122 28.3886L23.0142 25.036L19.8262 23.998L23.0154 22.964L23.0174 19.6111Z" fill="#F0F0F0"/>
<path d="M17.644 30.7826C13.8981 30.7826 10.8613 27.7459 10.8613 24C10.8613 20.2541 13.8981 17.2173 17.644 17.2173C18.8119 17.2173 19.9108 17.5128 20.8703 18.0326C19.3651 16.5605 17.3067 15.6521 15.0353 15.6521C10.4248 15.6521 6.6875 19.3895 6.6875 23.9999C6.6875 28.6102 10.4249 32.3477 15.0353 32.3477C17.3068 32.3477 19.3652 31.4391 20.8703 29.9672C19.9108 30.4872 18.8119 30.7826 17.644 30.7826V30.7826Z" fill="#F0F0F0"/>
</g>
<defs>
<clipPath id="clip0_154_2286">
<rect width="48" height="48" fill="white"/>
</clipPath>
</defs>
</svg>
