<svg width="48" height="48" viewBox="0 0 48 48" fill="none" xmlns="http://www.w3.org/2000/svg">
<g clip-path="url(#clip0_154_2272)">
<path d="M12.9943 2.66504C10.8457 3.77401 8.82887 5.2276 7.02775 7.02873C5.22653 8.82995 3.77294 10.8468 2.66406 12.9954L18.096 29.9031L35.0037 45.335C37.1523 44.226 39.1692 42.7724 40.9703 40.9714C42.7715 39.1702 44.225 37.1533 45.334 35.0048L29.9021 18.0969L12.9943 2.66504Z" fill="#F0F0F0"/>
<path d="M40.9717 40.9713C41.9785 39.9645 42.8764 38.8902 43.6669 37.7634L10.237 4.3335C9.11027 5.1239 8.03598 6.02184 7.0292 7.02862C6.02242 8.0354 5.12448 9.10968 4.33398 10.2366L37.7638 43.6663C38.8905 42.8759 39.9649 41.9781 40.9717 40.9713Z" fill="black"/>
<path d="M7.02862 40.9711C14.6005 48.5431 25.9721 49.9966 35.0046 45.3347L2.66502 12.9951C-1.99669 22.0276 -0.542913 33.3992 7.02862 40.9711V40.9711Z" fill="#D80027"/>
<path d="M40.972 7.02874C33.4001 -0.543074 22.0285 -1.99657 12.9961 2.66496L45.3356 35.0048C49.9974 25.9723 48.5439 14.6005 40.972 7.02874V7.02874Z" fill="#D80027"/>
</g>
<defs>
<clipPath id="clip0_154_2272">
<rect width="48" height="48" fill="white"/>
</clipPath>
</defs>
</svg>
