<svg width="48" height="48" viewBox="0 0 48 48" fill="none" xmlns="http://www.w3.org/2000/svg">
<g clip-path="url(#clip0_154_2191)">
<path d="M48 24C48 37.2548 37.2548 48 24 48C10.7452 48 0 37.2548 0 24C8.24344 15.7566 15.2347 8.76525 24 0C37.2548 0 48 10.7452 48 24Z" fill="#D80027"/>
<path d="M24 24C24 10.7452 24 9.18262 24 0C10.7452 0 0 10.7452 0 24H24Z" fill="#0052B4"/>
<path d="M20.87 14.0456L17.9389 15.4245L19.4997 18.2631L16.3169 17.6541L15.9135 20.8695L13.6967 18.5047L11.4797 20.8695L11.0765 17.6541L7.89369 18.263L9.45444 15.4243L6.52344 14.0456L9.45453 12.667L7.89369 9.82827L11.0764 10.4372L11.4798 7.22192L13.6967 9.58667L15.9136 7.22192L16.3169 10.4372L19.4998 9.82827L17.9389 12.6671L20.87 14.0456Z" fill="#F0F0F0"/>
<path d="M13.696 18.5128C16.1633 18.5128 18.1635 16.5127 18.1635 14.0453C18.1635 11.578 16.1633 9.57788 13.696 9.57788C11.2287 9.57788 9.22852 11.578 9.22852 14.0453C9.22852 16.5127 11.2287 18.5128 13.696 18.5128Z" fill="#0052B4"/>
<path d="M13.6968 16.4263C12.3842 16.4263 11.3164 15.3584 11.3164 14.0458C11.3164 12.7332 12.3843 11.6653 13.6968 11.6653C15.0094 11.6653 16.0773 12.7332 16.0773 14.0458C16.0772 15.3584 15.0092 16.4263 13.6968 16.4263Z" fill="#F0F0F0"/>
</g>
<defs>
<clipPath id="clip0_154_2191">
<rect width="48" height="48" fill="white"/>
</clipPath>
</defs>
</svg>
