<svg width="48" height="48" viewBox="0 0 48 48" fill="none" xmlns="http://www.w3.org/2000/svg">
<g clip-path="url(#clip0_154_2411)">
<path d="M24 48C37.2548 48 48 37.2548 48 24C48 10.7452 37.2548 0 24 0C10.7452 0 0 10.7452 0 24C0 37.2548 10.7452 48 24 48Z" fill="#F0F0F0"/>
<path d="M24 17.7391H47.1732C46.5714 15.5065 45.6568 13.4026 44.4774 11.4781H24V17.7391Z" fill="#338AF3"/>
<path d="M9.06116 42.7826H38.9405C41.1308 41.0381 43.0092 38.9192 44.4782 36.5217H3.52344C4.99259 38.9191 6.87097 41.0381 9.06116 42.7826V42.7826Z" fill="#338AF3"/>
<path d="M24 0V5.21737H38.9397C34.84 1.95225 29.6483 0 24 0V0Z" fill="#338AF3"/>
<path d="M24 17.7391H47.1732C46.5714 15.5065 45.6568 13.4026 44.4774 11.4781H24V17.7391Z" fill="#338AF3"/>
<path d="M0 24C0 26.1663 0.28875 28.2646 0.826781 30.2609H47.1733C47.7113 28.2646 48 26.1663 48 24H0Z" fill="#338AF3"/>
<path d="M20.87 14.0456L17.9388 15.4244L19.4997 18.2631L16.3168 17.6543L15.9135 20.8695L13.6967 18.5047L11.4797 20.8695L11.0765 17.6543L7.89369 18.263L9.45444 15.4243L6.52344 14.0456L9.45453 12.667L7.89369 9.82827L11.0764 10.4371L11.4798 7.22192L13.6967 9.58667L15.9136 7.22192L16.3168 10.4371L19.4998 9.82827L17.9389 12.6671L20.87 14.0456Z" fill="#FFDA44"/>
</g>
<defs>
<clipPath id="clip0_154_2411">
<rect width="48" height="48" fill="white"/>
</clipPath>
</defs>
</svg>
