<svg width="48" height="48" viewBox="0 0 48 48" fill="none" xmlns="http://www.w3.org/2000/svg">
<g clip-path="url(#clip0_154_2132)">
<path d="M35.4791 2.91816C32.0693 1.05778 28.1586 0 24.0008 0C19.843 0 15.9323 1.05778 12.5225 2.91816L10.4355 24L12.5225 45.0818C15.9323 46.9422 19.843 48 24.0008 48C28.1586 48 32.0693 46.9422 35.4791 45.0818L37.566 24L35.4791 2.91816Z" fill="#FFDA44"/>
<path d="M12.5217 45.0817V2.91809C5.06147 6.98872 0 14.903 0 24C0 33.0971 5.06147 41.0113 12.5217 45.0817Z" fill="#338AF3"/>
<path d="M48.0002 23.9999C48.0002 14.9029 42.9388 6.98859 35.4785 2.91797V45.0816C42.9388 41.0112 48.0002 33.0969 48.0002 23.9999V23.9999Z" fill="#6DA544"/>
<path d="M18.7834 30.2608L14.6094 23.9999L18.7833 17.739L22.9574 23.9999L18.7834 30.2608Z" fill="#6DA544"/>
<path d="M29.2189 30.2608L25.0449 23.9999L29.2189 17.739L33.3928 23.9999L29.2189 30.2608Z" fill="#6DA544"/>
<path d="M24.0001 38.6086L19.8262 32.3477L24.0001 26.0869L28.174 32.3477L24.0001 38.6086Z" fill="#6DA544"/>
</g>
<defs>
<clipPath id="clip0_154_2132">
<rect width="48" height="48" fill="white"/>
</clipPath>
</defs>
</svg>
