<svg width="48" height="48" viewBox="0 0 48 48" fill="none" xmlns="http://www.w3.org/2000/svg">
<g clip-path="url(#clip0_154_2477)">
<path d="M45.6186 34.4347C47.1443 31.2795 48 27.7398 48 24C48 20.2602 47.1443 16.7205 45.6186 13.5652L24 11.4783L2.38144 13.5652C0.855656 16.7205 0 20.2602 0 24C0 27.7398 0.855656 31.2795 2.38144 34.4347L24 36.5217L45.6186 34.4347Z" fill="#0052B4"/>
<path d="M23.9994 48.0001C33.5144 48.0001 41.736 42.4627 45.618 34.4348H2.38086C6.26286 42.4627 14.4844 48.0001 23.9994 48.0001Z" fill="#D80027"/>
<path d="M41.5648 28.7111L40.2972 29.7016L40.8473 31.213L39.5135 30.3136L38.2458 31.304L38.6891 29.7576L37.3555 28.858L38.9632 28.8019L39.4068 27.2555L39.9571 28.7671L41.5648 28.7111Z" fill="#F0F0F0"/>
<path d="M38.319 23.0889L37.4667 24.4532L38.5009 25.6853L36.9399 25.2966L36.0873 26.6606L35.9749 25.0559L34.4141 24.6665L35.9058 24.0638L35.7937 22.459L36.8277 23.6915L38.319 23.0889Z" fill="#F0F0F0"/>
<path d="M33.3448 18.9158L33.0105 20.4894L34.4036 21.2937L32.8037 21.4624L32.4692 23.0355L31.8149 21.5661L30.2148 21.734L31.4105 20.6576L30.7562 19.1881L32.1494 19.9923L33.3448 18.9158Z" fill="#F0F0F0"/>
<path d="M27.2457 16.6956L27.4698 18.2887L29.0539 18.5678L27.6081 19.2734L27.8321 20.8664L26.7146 19.7091L25.2684 20.4143L26.0238 18.9937L24.9062 17.8367L26.4906 18.116L27.2457 16.6956Z" fill="#F0F0F0"/>
<path d="M20.7535 16.6956L21.5088 18.116L23.0928 17.8365L21.9756 18.994L22.7306 20.4145L21.2848 19.7091L20.1671 20.8661L20.3912 19.2734L18.9453 18.5682L20.5296 18.2887L20.7535 16.6956Z" fill="#F0F0F0"/>
<path d="M14.6523 18.9158L15.848 19.9923L17.2408 19.1881L16.5867 20.6581L17.7821 21.7344L16.1823 21.5661L15.5277 23.0355L15.1937 21.4621L13.5938 21.2941L14.9869 20.4896L14.6523 18.9158Z" fill="#F0F0F0"/>
<path d="M9.67945 23.0889L11.1713 23.6915L12.205 22.4592L12.0931 24.0643L13.5845 24.667L12.0237 25.056L11.9113 26.6605L11.0591 25.2966L9.49805 25.6855L10.5321 24.4532L9.67945 23.0889Z" fill="#F0F0F0"/>
<path d="M6.43359 28.711L8.04159 28.7671L8.59153 27.2556L9.03544 28.8021L10.643 28.8583L9.30928 29.7579L9.75253 31.3042L8.48503 30.3138L7.15125 31.2132L7.70147 29.7016L6.43359 28.711Z" fill="#F0F0F0"/>
<path d="M45.618 13.5652C41.736 5.53734 33.5144 0 23.9994 0C14.4844 0 6.26286 5.53734 2.38086 13.5652H45.618Z" fill="#FFDA44"/>
</g>
<defs>
<clipPath id="clip0_154_2477">
<rect width="48" height="48" fill="white"/>
</clipPath>
</defs>
</svg>
