<svg width="48" height="48" viewBox="0 0 48 48" fill="none" xmlns="http://www.w3.org/2000/svg">
<g clip-path="url(#clip0_154_500)">
<path d="M48 24C48 37.2548 37.2548 48 24 48C10.7452 48 0 37.2548 0 24C0 24.0057 24 0.002625 24 0C37.2548 0 48 10.7452 48 24Z" fill="#0052B4"/>
<path d="M23.9355 24H23.9998C23.9998 23.9784 23.9998 23.9574 23.9998 23.9358C23.9784 23.9573 23.957 23.9786 23.9355 24Z" fill="#F0F0F0"/>
<path d="M24 12.5217C24 8.29875 24 5.53172 24 0H23.996C10.7429 0.00225 0 10.7465 0 24H12.5217V16.949L19.5728 24H23.9359C23.9572 23.9786 23.9786 23.9573 24.0001 23.9358C24.0001 22.3189 24.0001 20.8762 24.0001 19.5729L16.9489 12.5217H24Z" fill="#F0F0F0"/>
<path d="M12.1425 3.13037C8.38883 5.26778 5.26817 8.38834 3.13086 12.142V24H9.39177V9.39147V9.39128H24.0005C24.0005 7.41662 24.0005 5.53543 24.0005 3.13037H12.1425Z" fill="#D80027"/>
<path d="M34.4341 24L27.9473 30.4868C29.163 32.8316 31.6106 34.4347 34.4341 34.4347C37.2576 34.4347 39.7052 32.8316 40.921 30.4868L34.4341 24Z" fill="#FFDA44"/>
<path d="M23.9998 21.0487L15.4727 12.5218H12.5215V12.522L23.9996 24H23.9998C23.9998 24 23.9998 21.965 23.9998 21.0487V21.0487Z" fill="#D80027"/>
<path d="M27.1309 12.5217V23.9999V24C27.131 29.5912 34.4352 31.3044 34.4352 31.3044C34.4352 31.3044 41.7395 29.5912 41.7395 24V23.9999V12.5217H27.1309Z" fill="#6DA544"/>
<path d="M32.8691 17.739H35.9995V26.0868H32.8691V17.739Z" fill="#F0F0F0"/>
<path d="M34.4344 19.3043C35.2989 19.3043 35.9996 18.6035 35.9996 17.7391C35.9996 16.8746 35.2989 16.1738 34.4344 16.1738C33.5699 16.1738 32.8691 16.8746 32.8691 17.7391C32.8691 18.6035 33.5699 19.3043 34.4344 19.3043Z" fill="#A2001D"/>
<path d="M29.2168 14.6086H31.3038V16.6956H29.2168V14.6086Z" fill="#FFDA44"/>
<path d="M29.2168 19.3043H31.3038V21.3913H29.2168V19.3043Z" fill="#FFDA44"/>
<path d="M29.2168 23.9999H31.3038V26.0869H29.2168V23.9999Z" fill="#FFDA44"/>
<path d="M37.5645 14.6086H39.6514V16.6956H37.5645V14.6086Z" fill="#FFDA44"/>
<path d="M37.5645 19.3043H39.6514V21.3913H37.5645V19.3043Z" fill="#FFDA44"/>
<path d="M37.5645 23.9999H39.6514V26.0869H37.5645V23.9999Z" fill="#FFDA44"/>
</g>
<defs>
<clipPath id="clip0_154_500">
<rect width="48" height="48" fill="white"/>
</clipPath>
</defs>
</svg>
