<svg width="48" height="48" viewBox="0 0 48 48" fill="none" xmlns="http://www.w3.org/2000/svg">
<g clip-path="url(#clip0_154_2495)">
<path d="M24 48C37.2548 48 48 37.2548 48 24C48 10.7452 37.2548 0 24 0C10.7452 0 0 10.7452 0 24C0 37.2548 10.7452 48 24 48Z" fill="#FCFCFC"/>
<path d="M28.0766 16.7667C28.0766 14.5156 26.2517 12.6907 24.0005 12.6907C21.7493 12.6907 19.9243 14.5156 19.9243 16.7667H10.957C10.957 18.9831 12.8877 20.78 15.1041 20.78H14.9706C14.9706 22.9965 16.7672 24.7935 18.9839 24.7935C18.9839 26.756 20.3933 28.3867 22.2547 28.7352L22.2443 28.7587H25.7567L25.7463 28.7352C27.6078 28.3865 29.0171 26.7559 29.0171 24.7935C31.2337 24.7935 33.0305 22.9965 33.0305 20.78H32.8968C35.1131 20.78 37.0439 18.9831 37.0439 16.7667H28.0766Z" fill="#FFDA44"/>
<path d="M22.209 28.3428L19.6816 34.0487C21.0151 34.5907 22.4727 34.8921 24.0009 34.8921C25.5291 34.8921 26.9866 34.5908 28.32 34.0487L25.7928 28.3428H22.209Z" fill="#FFDA44"/>
<path d="M18.7832 18.7712V25.7923C18.7832 29.7858 24.0006 31.0096 24.0006 31.0096C24.0006 31.0096 29.218 29.7858 29.218 25.7923V18.7712H18.7832Z" fill="#F0F0F0"/>
<path d="M5.82048 24.1689L8.64227 32.0612L11.4347 24.1689H13.5658L9.49464 34.6037H7.7898L3.68945 24.1689H5.82048Z" fill="#338AF3"/>
<path d="M38.6094 34.6037V24.1689H40.6375V34.6037H38.6094Z" fill="#338AF3"/>
<path d="M20.8691 21.0386V29.5468C21.5864 30.0747 22.3582 30.4378 22.9561 30.6703V21.0386H20.8691Z" fill="#D80027"/>
<path d="M27.1299 21.0386V29.5468C26.4127 30.0747 25.6409 30.4378 25.043 30.6703V21.0386H27.1299Z" fill="#D80027"/>
<path d="M18.7832 18.771H29.218V22.0819H18.7832V18.771Z" fill="#0052B4"/>
</g>
<defs>
<clipPath id="clip0_154_2495">
<rect width="48" height="48" fill="white"/>
</clipPath>
</defs>
</svg>
