<svg width="48" height="49" viewBox="0 0 48 49" fill="none" xmlns="http://www.w3.org/2000/svg">
<g clip-path="url(#clip0_154_1891)">
<path d="M48 24.0107C48 37.2655 37.2548 48.0107 24 48.0107C10.7452 48.0107 0 37.2655 0 24.0107C8.24344 15.7673 15.2347 8.77599 24 0.0107422C37.2548 0.0107422 48 10.756 48 24.0107Z" fill="#D80027"/>
<path d="M24 24.0107C24 10.756 24 9.19337 24 0.0107422C10.7452 0.0107422 0 10.756 0 24.0107H24Z" fill="#0052B4"/>
<path d="M19.2239 15.663L19.6125 16.8588H20.8697L19.8525 17.5977L20.2411 18.7934L19.2239 18.0544L18.2067 18.7934L18.5953 17.5977L17.5781 16.8588H18.8353L19.2239 15.663Z" fill="#F0F0F0"/>
<path d="M12.909 6.27167L13.5565 8.2647H15.652L13.9566 9.49611L14.6043 11.489L12.909 10.2573L11.2137 11.489L11.8613 9.49611L10.166 8.2647H12.2613L12.909 6.27167Z" fill="#F0F0F0"/>
<path d="M19.1707 8.35858L19.8182 10.3517H21.9136L20.2183 11.5831L20.8659 13.5761L19.1707 12.3443L17.4754 13.5761L18.123 11.5831L16.4277 10.3517H18.523L19.1707 8.35858Z" fill="#F0F0F0"/>
<path d="M14.2215 16.7065L14.8691 18.6995H16.9644L15.2691 19.9309L15.9167 21.9239L14.2215 20.6922L12.5262 21.9239L13.1738 19.9309L11.4785 18.6995H13.5739L14.2215 16.7065Z" fill="#F0F0F0"/>
<path d="M8.73503 11.489L9.38266 13.482H11.4781L9.78269 14.7135L10.4303 16.7064L8.73503 15.4747L7.03984 16.7064L7.68738 14.7135L5.99219 13.482H8.0875L8.73503 11.489Z" fill="#F0F0F0"/>
</g>
<defs>
<clipPath id="clip0_154_1891">
<rect width="48" height="48" fill="white" transform="translate(0 0.0107422)"/>
</clipPath>
</defs>
</svg>
