<svg width="48" height="48" viewBox="0 0 48 48" fill="none" xmlns="http://www.w3.org/2000/svg">
<g clip-path="url(#clip0_154_1284)">
<path d="M24 48C37.2548 48 48 37.2548 48 24C48 10.7452 37.2548 0 24 0C10.7452 0 0 10.7452 0 24C0 37.2548 10.7452 48 24 48Z" fill="#0052B4"/>
<path d="M10.542 14.6088L11.06 16.2033H12.7363L11.3802 17.1885L11.8982 18.7827L10.542 17.7975L9.18569 18.7827L9.70384 17.1885L8.34766 16.2033H10.0238L10.542 14.6088Z" fill="#F0F0F0"/>
<path d="M15.7596 13.0436L16.2777 14.638H17.954L16.5979 15.6232L17.1158 17.2174L15.7596 16.2322L14.4035 17.2174L14.9215 15.6232L13.5654 14.638H15.2417L15.7596 13.0436Z" fill="#F0F0F0"/>
<path d="M20.9764 11.4784L21.4945 13.0728H23.1708L21.8147 14.0581L22.3326 15.6523L20.9764 14.667L19.6203 15.6523L20.1383 14.0581L18.7822 13.0728H20.4585L20.9764 11.4784Z" fill="#F0F0F0"/>
<path d="M37.458 14.6088L36.9399 16.2033H35.2637L36.6199 17.1885L36.1018 18.7827L37.458 17.7975L38.8143 18.7827L38.2961 17.1885L39.6523 16.2033H37.976L37.458 14.6088Z" fill="#F0F0F0"/>
<path d="M32.2402 13.0437L31.7221 14.6381H30.0459L31.4021 15.6233L30.884 17.2175L32.2402 16.2323L33.5964 17.2175L33.0783 15.6233L34.4344 14.6381H32.7582L32.2402 13.0437Z" fill="#F0F0F0"/>
<path d="M27.0234 11.4784L26.5054 13.0728H24.8291L26.1852 14.0581L25.6672 15.6523L27.0234 14.667L28.3796 15.6523L27.8615 14.0581L29.2176 13.0728H27.5414L27.0234 11.4784Z" fill="#F0F0F0"/>
<path d="M28.1736 25.0435L23.9997 19.8262L21.9127 20.8696V22.9566L18.7823 25.0435H16.6953V27.7397C19.7542 28.9783 21.9127 31.9754 21.9127 35.4784H23.9997V33.3914L26.0866 31.3045L28.1736 33.3914L30.2606 31.3045V29.2175L32.3475 26.0871L28.1736 25.0435Z" fill="#FFDA44"/>
</g>
<defs>
<clipPath id="clip0_154_1284">
<rect width="48" height="48" fill="white"/>
</clipPath>
</defs>
</svg>
