<svg width="48" height="49" viewBox="0 0 48 49" fill="none" xmlns="http://www.w3.org/2000/svg">
<g clip-path="url(#clip0_154_2519)">
<path d="M24 48.0107C37.2548 48.0107 48 37.2656 48 24.0107C48 10.7559 37.2548 0.0107422 24 0.0107422C10.7452 0.0107422 0 10.7559 0 24.0107C0 37.2656 10.7452 48.0107 24 48.0107Z" fill="#496E2D"/>
<path d="M33.3913 24.0107H24V48.0107C26.8054 48.0107 29.4976 47.5278 32 46.6433L33.3913 24.0107Z" fill="#D80027"/>
<path d="M40.0006 41.8976C44.9101 37.5031 48.0007 31.1182 48.0007 24.0107H38.6094L40.0006 41.8976Z" fill="#FF9811"/>
<path d="M32 24.0107V46.6433C34.981 45.5895 37.6917 43.9639 40.0001 41.8977V24.0107H32Z" fill="black"/>
<path d="M44.3481 15.6629H38.0872C38.0872 14.5103 37.1528 13.5759 36.0002 13.5759C34.8477 13.5759 33.9133 14.5103 33.9133 15.6629H27.6523C27.6523 16.8156 28.6563 17.7499 29.8088 17.7499H29.7393C29.7393 18.9025 30.6735 19.8368 31.8263 19.8368C31.8263 20.9895 32.7605 21.9238 33.9133 21.9238H38.0872C39.2398 21.9238 40.1742 20.9895 40.1742 19.8368C41.3267 19.8368 42.2611 18.9025 42.2611 17.7499H42.1917C43.3442 17.7498 44.3481 16.8155 44.3481 15.6629V15.6629Z" fill="#FF9811"/>
</g>
<defs>
<clipPath id="clip0_154_2519">
<rect width="48" height="48" fill="white" transform="translate(0 0.0107422)"/>
</clipPath>
</defs>
</svg>
