<svg width="48" height="48" viewBox="0 0 48 48" fill="none" xmlns="http://www.w3.org/2000/svg">
<g clip-path="url(#clip0_154_2526)">
<path d="M24 48C37.2548 48 48 37.2548 48 24C48 10.7452 37.2548 0 24 0C10.7452 0 0 10.7452 0 24C0 37.2548 10.7452 48 24 48Z" fill="#F0F0F0"/>
<path d="M45.7025 13.744C44.4832 11.1683 42.819 8.84491 40.809 6.87194L23.9996 5.21735L7.19025 6.87203C7.13662 6.92463 7.08431 6.97844 7.03125 7.0316L13.7438 13.7441L23.9996 14.0573L45.7025 13.744Z" fill="#FFDA44"/>
<path d="M7.03125 40.9686C7.11956 41.057 7.20769 41.1454 7.29731 41.2324L23.9999 42.7826L40.7023 41.2324C42.733 39.2636 44.4175 36.94 45.654 34.3603L14.6085 33.3913C11.9373 36.0626 8.85628 39.1434 7.03125 40.9686V40.9686Z" fill="#FFDA44"/>
<path d="M47.7614 20.6161L19.8262 19.826L24.0001 24C22.7638 25.2363 20.9183 27.0818 19.8262 28.1739L47.7468 27.4882C47.9127 26.3493 48.0001 25.1849 48.0001 24C48.0001 22.8512 47.9176 21.7219 47.7614 20.6161V20.6161Z" fill="black"/>
<path d="M23.9998 0C17.4534 0 11.5204 2.62219 7.19043 6.87206H40.8092C36.4792 2.62219 30.5462 0 23.9998 0Z" fill="#6DA544"/>
<path d="M20.6162 20.6161H47.7614C47.419 18.1899 46.7143 15.8805 45.703 13.744H13.7441L20.6162 20.6161Z" fill="#D80027"/>
<path d="M13.6396 34.3603H45.6541C46.6773 32.2254 47.3932 29.9157 47.7467 27.4882H20.5117C17.8504 30.1495 15.595 32.4049 13.6396 34.3603Z" fill="#D80027"/>
<path d="M24.0003 47.9999C30.4929 47.9999 36.3823 45.4206 40.7027 41.2322H7.29785C11.6182 45.4206 17.5076 47.9999 24.0003 47.9999Z" fill="#6DA544"/>
<path d="M8.57008 5.61884C8.03655 6.06715 7.52177 6.53712 7.0293 7.0294L23.9999 24L7.0293 40.9706C7.52167 41.463 8.03655 41.9329 8.57008 42.3812L26.9513 24L8.57008 5.61884Z" fill="black"/>
<path d="M9.64934 17.7391L11.2032 22.5218H16.2325L12.1639 25.478L13.7179 30.2609L9.64934 27.3049L5.58069 30.2609L7.13487 25.478L3.06641 22.5218H8.09534L9.64934 17.7391Z" fill="#D80027"/>
<path d="M13.9237 24.3913L9.87387 22.9566C9.87387 22.9566 9.57462 20.1494 9.55653 20.0543C9.41909 19.3302 8.78281 18.7827 8.01875 18.7827C7.15437 18.7827 6.4535 19.4834 6.4535 20.3479C6.4535 20.4912 6.47441 20.6293 6.5105 20.7613L5.375 21.9044H7.394C7.394 24 5.83025 24 5.83025 26.087L6.69772 28.174H11.9151L12.7847 26.087H12.7843C12.8714 25.8867 12.9243 25.6802 12.9462 25.4739C13.6958 25.1707 13.9237 24.3913 13.9237 24.3913V24.3913Z" fill="#FFDA44"/>
</g>
<defs>
<clipPath id="clip0_154_2526">
<rect width="48" height="48" fill="white"/>
</clipPath>
</defs>
</svg>
