<svg width="48" height="48" viewBox="0 0 48 48" fill="none" xmlns="http://www.w3.org/2000/svg">
<g clip-path="url(#clip0_154_158)">
<path d="M34.435 2.38144C31.2797 0.85575 27.7399 0 24.0002 0C20.2605 0 16.7207 0.85575 13.5655 2.38144L11.4785 24L13.5655 45.6186C16.7207 47.1442 20.2605 48 24.0002 48C27.7399 48 31.2797 47.1442 34.435 45.6186L36.522 24L34.435 2.38144Z" fill="#D80027"/>
<path d="M13.5652 2.38228C5.53744 6.26419 0 14.485 0 24C0 33.515 5.53744 41.7358 13.5652 45.6177V2.38228Z" fill="black"/>
<path d="M34.4346 2.38228V45.6177C42.4624 41.7358 47.9998 33.515 47.9998 24C47.9998 14.485 42.4624 6.26419 34.4346 2.38228Z" fill="#496E2D"/>
<path d="M24.0001 15.6522C19.3897 15.6522 15.6523 19.3897 15.6523 24C15.6523 28.6103 19.3898 32.3478 24.0001 32.3478C28.6105 32.3478 32.3479 28.6103 32.3479 24C32.3479 19.3897 28.6106 15.6522 24.0001 15.6522ZM24.0001 29.2174C21.1186 29.2174 18.7828 26.8814 18.7828 24C18.7828 21.1186 21.1187 18.7826 24.0001 18.7826C26.8815 18.7826 29.2175 21.1186 29.2175 24C29.2175 26.8814 26.8816 29.2174 24.0001 29.2174Z" fill="#FFDA44"/>
<path d="M24.0001 20.8696C22.8474 20.8696 21.9131 21.8039 21.9131 22.9566V26.087H26.087V22.9566C26.087 21.8039 25.1527 20.8696 24.0001 20.8696V20.8696Z" fill="#FFDA44"/>
</g>
<defs>
<clipPath id="clip0_154_158">
<rect width="48" height="48" fill="white"/>
</clipPath>
</defs>
</svg>
