<svg width="48" height="48" viewBox="0 0 48 48" fill="none" xmlns="http://www.w3.org/2000/svg">
<g clip-path="url(#clip0_154_228)">
<path d="M0 24C0 25.6439 0.16575 27.2491 0.480656 28.8L24 30.2609L47.5194 28.8C47.8344 27.2491 48 25.6439 48 24C48 22.3561 47.8342 20.7509 47.5194 19.2L24 17.7391L0.480656 19.2C0.16575 20.7509 0 22.3561 0 24H0Z" fill="#0052B4"/>
<path d="M47.5192 28.8H0.480469C2.70412 39.7547 12.389 48 23.9998 48C35.6107 48 45.2955 39.7547 47.5192 28.8Z" fill="#F0F0F0"/>
<path d="M0.480469 19.2H47.5193C45.2955 8.24531 35.6108 0 23.9998 0C12.3888 0 2.70412 8.24531 0.480469 19.2V19.2Z" fill="black"/>
<path d="M34.434 19.2H13.5645L17.8282 17.1943L15.5577 13.0651L20.1875 13.9505L20.7744 9.27344L23.9992 12.7135L27.2242 9.27344L27.8107 13.9505L32.4407 13.0651L30.1704 17.1945L34.434 19.2Z" fill="#FFDA44"/>
<path d="M0 24C0 37.2548 10.7452 48 24 48L4.79962 9.59916C1.78612 13.6106 0 18.5965 0 24Z" fill="#A2001D"/>
<path d="M24 48C37.2548 48 48 37.2548 48 24C48 18.5965 46.2139 13.6106 43.2004 9.59916L24 48Z" fill="#A2001D"/>
</g>
<defs>
<clipPath id="clip0_154_228">
<rect width="48" height="48" fill="white"/>
</clipPath>
</defs>
</svg>
