<svg width="48" height="48" viewBox="0 0 48 48" fill="none" xmlns="http://www.w3.org/2000/svg">
<g clip-path="url(#clip0_154_212)">
<path d="M48 24C48 37.2548 37.2548 48 24 48C10.7452 48 0 37.2548 0 24C0 24.0057 24 0.002625 24 0C37.2548 0 48 10.7452 48 24Z" fill="#0052B4"/>
<path d="M23.9355 24H23.9998C23.9998 23.9784 23.9998 23.9574 23.9998 23.9358C23.9784 23.9573 23.957 23.9786 23.9355 24Z" fill="#F0F0F0"/>
<path d="M24 12.5217C24 8.29875 24 5.53172 24 0H23.996C10.7429 0.00225 0 10.7465 0 24H12.5217V16.949L19.5728 24H23.9359C23.9572 23.9786 23.9786 23.9573 24.0001 23.9358C24.0001 22.3189 24.0001 20.8762 24.0001 19.5729L16.9489 12.5217H24Z" fill="#F0F0F0"/>
<path d="M12.1425 3.13037C8.38883 5.26778 5.26817 8.38834 3.13086 12.142V24H9.39177V9.39147V9.39128H24.0005C24.0005 7.41662 24.0005 5.53543 24.0005 3.13037H12.1425Z" fill="#D80027"/>
<path d="M23.9998 21.0486L15.4727 12.5217H12.5215V12.5219L23.9996 23.9999H23.9998C23.9998 23.9999 23.9998 21.9649 23.9998 21.0486V21.0486Z" fill="#D80027"/>
<path d="M40.5885 27.5131C41.2786 26.5636 41.7395 25.4041 41.7395 23.9999V13.5652C40.8675 14.2203 39.7837 14.6086 38.6091 14.6086C36.9023 14.6086 35.387 13.789 34.4352 12.5219C33.4833 13.789 31.968 14.6086 30.2613 14.6086C29.0866 14.6086 28.0028 14.2202 27.1309 13.5654V23.9999C27.1309 25.4041 27.5918 26.5636 28.2819 27.5131H40.5885Z" fill="#F3F3F3"/>
<path d="M38.416 22.0642C38.7483 21.2536 39.0066 20.0689 39.0066 19.4793C39.0066 18.5319 37.7716 17.764 37.7716 17.764C37.7716 17.764 36.5365 18.5319 36.5365 19.4793C36.5365 20.069 36.795 21.2537 37.127 22.0642L36.4141 23.6739C36.8331 23.8444 37.2912 23.9391 37.7717 23.9391C38.2521 23.9391 38.7101 23.8443 39.1293 23.6739L38.416 22.0642Z" fill="#FF9811"/>
<path d="M33.5891 16.8517C32.7214 16.9693 31.5661 17.3382 31.0555 17.6329C30.2351 18.1067 30.1875 19.5601 30.1875 19.5601C30.1875 19.5601 31.4702 20.2457 32.2905 19.772C32.8012 19.4772 33.6979 18.6612 34.2335 17.9682L35.9843 17.7807C35.9224 17.3328 35.775 16.8887 35.5351 16.4727C35.2947 16.0567 34.9839 15.7072 34.6267 15.4294L33.5891 16.8517Z" fill="#FF9811"/>
<path d="M31.4891 23.6387C32.0247 24.3313 32.9216 25.1472 33.4323 25.4421C34.2527 25.9158 35.5353 25.2304 35.5353 25.2304C35.5353 25.2304 35.4875 23.7768 34.6673 23.303C34.1564 23.0082 33.0013 22.6397 32.1334 22.5223L31.0959 21.0998C30.7388 21.3775 30.4279 21.7272 30.1876 22.1428C29.9475 22.5589 29.8005 23.0029 29.7383 23.4511L31.4891 23.6387Z" fill="#FF9811"/>
<path d="M28.0234 27.1307C29.9723 30.2577 34.4349 31.3044 34.4349 31.3044C34.4349 31.3044 38.8974 30.2577 40.8464 27.1307H28.0234Z" fill="#338AF3"/>
</g>
<defs>
<clipPath id="clip0_154_212">
<rect width="48" height="48" fill="white"/>
</clipPath>
</defs>
</svg>
