<svg width="48" height="48" viewBox="0 0 48 48" fill="none" xmlns="http://www.w3.org/2000/svg">
<g clip-path="url(#clip0_154_204)">
<path d="M0 24C0 10.7452 10.7452 0 24 0C37.2548 0 48 10.7452 48 24C46.9566 24 24 27.1304 24 27.1304L0 24Z" fill="#D80027"/>
<path d="M48 24C48 37.2548 37.2548 48 24 48C10.7452 48 0 37.2548 0 24" fill="black"/>
<path d="M20.7109 19.0886L22.7455 20.5652L21.9702 22.9566L24.0032 21.4776L26.038 22.9541L25.2597 20.5635L27.2926 19.0847L24.7787 19.0862L24.0002 16.6957L23.2248 19.0871L20.7109 19.0886Z" fill="#FFDA44"/>
<path d="M30.0008 13.6077C28.1096 12.5158 26.0417 12.0005 24.0008 12.004V15.1338C25.5093 15.1311 27.0376 15.5117 28.4355 16.3189C32.671 18.7643 34.1274 24.1995 31.6819 28.435C29.2366 32.6704 23.8015 34.1268 19.5659 31.6814C18.332 30.969 17.3359 30.0017 16.6017 28.8854L13.9883 30.6108C14.9818 32.121 16.3314 33.4285 18.0008 34.3923C23.7312 37.7007 31.0846 35.7304 34.393 30C37.7014 24.2696 35.7312 16.9162 30.0008 13.6077V13.6077Z" fill="#FFDA44"/>
<path d="M17.0819 21.9131C16.2522 23.4299 16.8092 25.3321 18.3259 26.1618L28.493 31.7175C27.8016 32.9813 28.1688 34.5196 29.4327 35.2111L32.1791 36.7134C33.4429 37.4049 35.0283 36.9406 35.7197 35.6767L37.2221 32.9304L17.0819 21.9131Z" fill="#FFDA44"/>
</g>
<defs>
<clipPath id="clip0_154_204">
<rect width="48" height="48" fill="white"/>
</clipPath>
</defs>
</svg>
