<svg width="48" height="48" viewBox="0 0 48 48" fill="none" xmlns="http://www.w3.org/2000/svg">
<g clip-path="url(#clip0_154_237)">
<path d="M24 48C37.2548 48 48 37.2548 48 24C48 10.7452 37.2548 0 24 0C10.7452 0 0 10.7452 0 24C0 37.2548 10.7452 48 24 48Z" fill="#F0F0F0"/>
<path d="M24.0004 0C14.4853 0 6.26384 5.53734 2.38184 13.5652H45.6189C41.737 5.53734 33.5154 0 24.0004 0V0Z" fill="#338AF3"/>
<path d="M24.0004 48C33.5154 48 41.737 42.4627 45.619 34.4348H2.38184C6.26384 42.4627 14.4853 48 24.0004 48Z" fill="#338AF3"/>
<path d="M31.1737 24.0001L28.2426 25.3788L29.8035 28.2175L26.6206 27.6086L26.2173 30.8238L24.0004 28.4591L21.7834 30.8238L21.3802 27.6086L18.1974 28.2174L19.7581 25.3787L16.8271 24.0001L19.7582 22.6213L18.1974 19.7827L21.3801 20.3915L21.7835 17.1763L24.0004 19.541L26.2174 17.1763L26.6206 20.3915L29.8036 19.7827L28.2427 22.6214L31.1737 24.0001Z" fill="#FFDA44"/>
</g>
<defs>
<clipPath id="clip0_154_237">
<rect width="48" height="48" fill="white"/>
</clipPath>
</defs>
</svg>
