<svg width="48" height="48" viewBox="0 0 48 48" fill="none" xmlns="http://www.w3.org/2000/svg">
<g clip-path="url(#clip0_154_249)">
<path d="M24 48C37.2548 48 48 37.2548 48 24C48 10.7452 37.2548 0 24 0C10.7452 0 0 10.7452 0 24C0 37.2548 10.7452 48 24 48Z" fill="#FFDA44"/>
<path d="M23.9999 48C31.274 48 37.7918 44.7634 42.1931 39.6522H5.80664C10.2079 44.7634 16.7257 48 23.9999 48Z" fill="#338AF3"/>
<path d="M48 24C48 10.7452 37.2548 0 24 0C10.7452 0 0 10.7452 0 24C0 26.1663 0.28875 28.2646 0.826781 30.2609H47.1733C47.7113 28.2646 48 26.1663 48 24Z" fill="#338AF3"/>
<path d="M1.9082 33.3914C2.37086 34.4785 2.9117 35.524 3.52305 36.5218H44.4779C45.0893 35.5239 45.6301 34.4784 46.093 33.3914H1.9082Z" fill="#338AF3"/>
<path d="M10.9986 15.1372L6.30957 13.0677L10.9986 10.9983L13.0679 6.30937L15.1373 10.9983L19.8262 13.0677L15.1373 15.1372L13.0679 19.8261L10.9986 15.1372Z" fill="#F0F0F0"/>
<path d="M13.0675 8.8938L14.3454 11.7896L17.2413 13.0677L14.3454 14.3457L13.0675 17.2416L11.7894 14.3457L8.89355 13.0677L11.7894 11.7896L13.0675 8.8938Z" fill="#D80027"/>
</g>
<defs>
<clipPath id="clip0_154_249">
<rect width="48" height="48" fill="white"/>
</clipPath>
</defs>
</svg>
