<svg width="48" height="48" viewBox="0 0 48 48" fill="none" xmlns="http://www.w3.org/2000/svg">
<g clip-path="url(#clip0_154_362)">
<path d="M32.348 1.49278C29.748 0.528094 26.9359 0 24.0002 0C21.0645 0 18.2524 0.528094 15.6524 1.49278L13.5654 24L15.6524 46.5072C18.2524 47.472 21.0645 48 24.0002 48C26.9359 48 29.748 47.472 32.348 46.5072L34.4349 24L32.348 1.49278Z" fill="#FFDA44"/>
<path d="M47.9999 24C47.9999 13.6809 41.4869 4.88381 32.3477 1.49287V46.5074C41.4869 43.1162 47.9999 34.3192 47.9999 24V24Z" fill="#D80027"/>
<path d="M0 24C0 34.3192 6.513 43.1162 15.6522 46.5073V1.49287C6.513 4.88381 0 13.6809 0 24V24Z" fill="black"/>
</g>
<defs>
<clipPath id="clip0_154_362">
<rect width="48" height="48" fill="white"/>
</clipPath>
</defs>
</svg>
