<svg width="48" height="48" viewBox="0 0 48 48" fill="none" xmlns="http://www.w3.org/2000/svg">
<g clip-path="url(#clip0_154_542)">
<path d="M0 24C0 10.7452 10.7452 0 24 0C37.2548 0 48 10.7452 48 24C46.9566 24 24 27.1304 24 27.1304L0 24Z" fill="#D80027"/>
<path d="M48 24C48 37.2548 37.2548 48 24 48C10.7452 48 0 37.2548 0 24" fill="#6DA544"/>
<path d="M24.0006 15.6521L25.8134 21.2319H31.681L26.9342 24.6806L28.7472 30.2608L24.0006 26.8122L19.2539 30.2608L21.0672 24.6806L16.3203 21.2319H22.1876L24.0006 15.6521Z" fill="#FFDA44"/>
</g>
<defs>
<clipPath id="clip0_154_542">
<rect width="48" height="48" fill="white"/>
</clipPath>
</defs>
</svg>
