<svg width="48" height="48" viewBox="0 0 48 48" fill="none" xmlns="http://www.w3.org/2000/svg">
<g clip-path="url(#clip0_154_537)">
<path d="M48 24C48 21.0643 47.472 18.2521 46.5072 15.6522L24 14.6087L1.49278 15.6521C0.528094 18.2521 0 21.0643 0 24C0 26.9357 0.528094 29.7479 1.49278 32.3478L24 33.3913L46.5072 32.3479C47.472 29.7479 48 26.9357 48 24Z" fill="#496E2D"/>
<path d="M23.9994 48.0001C34.3186 48.0001 43.1156 41.4871 46.5066 32.3479H1.49219C4.88322 41.4871 13.6802 48.0001 23.9994 48.0001Z" fill="#D80027"/>
<path d="M1.49219 15.6522H46.5067C43.1156 6.513 34.3186 0 23.9994 0C13.6802 0 4.88322 6.513 1.49219 15.6522V15.6522Z" fill="#F0F0F0"/>
</g>
<defs>
<clipPath id="clip0_154_537">
<rect width="48" height="48" fill="white"/>
</clipPath>
</defs>
</svg>
