<svg width="48" height="48" viewBox="0 0 48 48" fill="none" xmlns="http://www.w3.org/2000/svg">
<g clip-path="url(#clip0_154_311)">
<path d="M24 48C37.2548 48 48 37.2548 48 24C48 10.7452 37.2548 0 24 0C10.7452 0 0 10.7452 0 24C0 37.2548 10.7452 48 24 48Z" fill="#F0F0F0"/>
<path d="M23.9993 0C19.1828 0 14.6986 1.41984 10.9399 3.86231L17.1123 7.99941L9.39062 11.9993L17.1123 15.9993L9.39062 19.9992L17.1123 23.9987L9.39062 27.9985L17.1123 31.9984L9.39062 35.9987L17.1123 39.9986L10.9392 44.137C14.698 46.58 19.1825 48 23.9993 48C37.2541 48 47.9993 37.2548 47.9993 24C47.9993 10.7452 37.2541 0 23.9993 0V0Z" fill="#D80027"/>
</g>
<defs>
<clipPath id="clip0_154_311">
<rect width="48" height="48" fill="white"/>
</clipPath>
</defs>
</svg>
