<svg width="48" height="48" viewBox="0 0 48 48" fill="none" xmlns="http://www.w3.org/2000/svg">
<g clip-path="url(#clip0_154_411)">
<path d="M24 48C37.2548 48 48 37.2548 48 24C48 10.7452 37.2548 0 24 0C10.7452 0 0 10.7452 0 24C0 37.2548 10.7452 48 24 48Z" fill="#F0F0F0"/>
<path d="M7.02969 7.02938C1.8861 12.173 -0.433932 19.0705 0.0679115 25.7967L25.7969 0.0676902C19.0708 -0.434247 12.1733 1.88578 7.02969 7.02938V7.02938Z" fill="#FFDA44"/>
<path d="M8.56934 42.3815C17.9988 50.3149 32.095 49.8456 40.9703 40.9704C49.8456 32.0952 50.3148 17.999 42.3814 8.56958L8.56934 42.3815Z" fill="#0052B4"/>
<path d="M23.9141 23.0334L25.9823 21.913L23.9141 20.7927C23.4312 17.6558 20.9526 15.1771 17.8157 14.6943L16.6953 12.626L15.575 14.6942C12.4381 15.177 9.95952 17.6557 9.47652 20.7926L7.4082 21.913L9.47642 23.0334C9.95933 26.1703 12.4379 28.649 15.5749 29.1318L16.6953 31.2001L17.8156 29.1319C20.9526 28.649 23.4312 26.1703 23.9141 23.0334V23.0334ZM16.6954 26.087C14.3901 26.087 12.5214 24.2184 12.5214 21.913C12.5214 19.6077 14.39 17.7391 16.6954 17.7391C19.0007 17.7391 20.8693 19.6077 20.8693 21.913C20.8693 24.2184 19.0006 26.087 16.6954 26.087Z" fill="black"/>
<path d="M16.6953 18.7827L17.599 20.3479H19.4064L18.5027 21.9131L19.4064 23.4784H17.599L16.6953 25.0435L15.7917 23.4784H13.9844L14.888 21.9131L13.9844 20.3479H15.7917L16.6953 18.7827Z" fill="#D80027"/>
</g>
<defs>
<clipPath id="clip0_154_411">
<rect width="48" height="48" fill="white"/>
</clipPath>
</defs>
</svg>
