<svg width="48" height="48" viewBox="0 0 48 48" fill="none" xmlns="http://www.w3.org/2000/svg">
<g clip-path="url(#clip0_154_400)">
<path d="M40.9706 40.9706C31.598 50.3432 16.4021 50.3432 7.02942 40.9706C-2.34314 31.5981 -2.34314 16.402 7.02942 7.02938C7.0328 7.02938 28.5974 0.657468 37.97 10.03C47.3427 19.4026 40.9771 40.9641 40.9706 40.9706Z" fill="#FFDA44"/>
<path d="M40.9705 40.9706C50.343 31.5981 50.343 16.402 40.9705 7.02938C31.5979 -2.34328 16.402 -2.34318 7.0293 7.02938L40.9705 40.9706Z" fill="#D80027"/>
<path d="M30.2725 30.2758C29.2866 30.6629 28.1411 30.6219 27.1472 30.0642C25.3913 29.0787 24.7645 26.848 25.7503 25.0918L25.451 24.9239C28.4577 24.199 30.6821 21.4699 30.6431 18.2494C30.6189 16.2472 29.7242 14.4559 28.3248 13.2302L26.1336 15.4752C26.962 16.1353 27.4991 17.148 27.5129 18.2874C27.5372 20.3011 25.9189 21.9593 23.9053 21.9836L23.9095 22.3264C21.7783 20.0852 18.3028 19.5234 15.5333 21.1674C13.8115 22.1896 12.7077 23.8599 12.3457 25.6847L15.3855 26.46C15.543 25.4125 16.1514 24.441 17.1312 23.8593C18.8628 22.8313 21.108 23.404 22.1359 25.1355L22.431 24.9605C21.5556 27.9266 22.8067 31.2175 25.6154 32.794C27.3615 33.774 29.3599 33.8949 31.1213 33.2959L30.2725 30.2758ZM23.9305 24.0701L23.9303 24.0702L23.9305 24.0701Z" fill="#FF9811"/>
<path d="M32.8854 16.2545L31.1891 22.308L26.0994 21.3681L22.8232 14.6149L13.9726 17.7556L13.2746 15.7887L10.959 15.5034L12.7038 20.4205L18.7946 18.8628L20.5255 23.7405L16.315 29.9543L23.4604 36.0487L22.106 37.6365L23.0167 39.7848L26.4028 35.815L22.0084 31.3191L25.3671 27.3813L32.8538 27.9207L34.559 18.6854L36.6113 19.0644L38.0165 17.2016L32.8854 16.2545ZM23.9975 24.1633V24.1635V24.1633Z" fill="#FFEACF"/>
</g>
<defs>
<clipPath id="clip0_154_400">
<rect width="48" height="48" fill="white"/>
</clipPath>
</defs>
</svg>
