<svg width="48" height="48" viewBox="0 0 48 48" fill="none" xmlns="http://www.w3.org/2000/svg">
<g clip-path="url(#clip0_154_350)">
<path d="M24 48C37.2548 48 48 37.2548 48 24C48 10.7452 37.2548 0 24 0C10.7452 0 0 10.7452 0 24C0 37.2548 10.7452 48 24 48Z" fill="#FCFCFC"/>
<path d="M9.91337 22.2609L7.30469 17.5281L9.91337 12.8695L12.5221 17.5281L9.91337 22.2609Z" fill="#A2001D"/>
<path d="M4.6956 22.2609L2.08691 17.5281L4.6956 12.8695L7.30429 17.5281L4.6956 22.2609Z" fill="#A2001D"/>
<path d="M9.91337 35.1305L7.30469 30.3977L9.91337 25.7392L12.5221 30.3977L9.91337 35.1305Z" fill="#A2001D"/>
<path d="M4.6956 35.1305L2.08691 30.3977L4.6956 25.7392L7.30429 30.3977L4.6956 35.1305Z" fill="#A2001D"/>
<path d="M12.5218 4.65863L11.7832 3.33975C10.4585 4.12463 9.21607 5.03335 8.07129 6.04997L9.9131 9.39131L12.5218 4.65863Z" fill="#A2001D"/>
<path d="M9.91307 38.6087L8.05176 41.9327C9.19551 42.9506 10.4371 43.8608 11.7613 44.6472L12.5219 43.2673L9.91307 38.6087Z" fill="#A2001D"/>
<path d="M14.6084 30.2609V46.0918C17.493 47.3196 20.6667 48 23.9997 48C34.3189 48 43.1159 41.487 46.5069 32.3477L14.6084 30.2609Z" fill="#6DA544"/>
<path d="M46.5069 32.3478C47.4717 29.7478 47.9997 26.9357 47.9997 24C47.9997 10.7453 37.2545 0 23.9997 0C20.667 0 17.493 0.679969 14.6084 1.90763V32.3479H46.5069V32.3478Z" fill="#A2001D"/>
</g>
<defs>
<clipPath id="clip0_154_350">
<rect width="48" height="48" fill="white"/>
</clipPath>
</defs>
</svg>
