<svg width="48" height="48" viewBox="0 0 48 48" fill="none" xmlns="http://www.w3.org/2000/svg">
<g clip-path="url(#clip0_154_367)">
<path d="M48 24C48 15.763 43.8498 8.49618 37.5269 4.17393L24 3.1304L10.4731 4.17384C4.15031 8.49618 0 15.7631 0 24C0 32.2372 4.15031 39.5038 10.4731 43.8261L24 44.8696L37.5269 43.8262C43.8498 39.5038 48 32.2372 48 24Z" fill="#0052B4"/>
<path d="M37.5265 4.17394C33.6747 1.54087 29.0174 0 23.9996 0C18.9818 0 14.3244 1.54087 10.4727 4.17394H37.5265Z" fill="#A2001D"/>
<path d="M10.4727 43.826C14.3243 46.4591 18.9818 48 23.9996 48C29.0174 48 33.6747 46.4591 37.5265 43.826H10.4727Z" fill="#A2001D"/>
<path d="M23.9998 35.4783C30.339 35.4783 35.478 30.3393 35.478 24C35.478 17.6607 30.339 12.5217 23.9998 12.5217C17.6605 12.5217 12.5215 17.6607 12.5215 24C12.5215 30.3393 17.6605 35.4783 23.9998 35.4783Z" fill="#F0F0F0"/>
<path d="M23.9997 33.3913C29.1864 33.3913 33.391 29.1866 33.391 24C33.391 18.8133 29.1864 14.6086 23.9997 14.6086C18.813 14.6086 14.6084 18.8133 14.6084 24C14.6084 29.1866 18.813 33.3913 23.9997 33.3913Z" fill="#6DA544"/>
<path d="M24.0002 30.2609C27.458 30.2609 30.2611 27.4578 30.2611 24C30.2611 20.5422 27.458 17.7391 24.0002 17.7391C20.5424 17.7391 17.7393 20.5422 17.7393 24C17.7393 27.4578 20.5424 30.2609 24.0002 30.2609Z" fill="#F0F0F0"/>
<path d="M23.9997 22.4347L20.6084 23.9999V26.6086L23.9997 28.6956L27.391 26.6086V23.9999L23.9997 22.4347Z" fill="#0052B4"/>
<path d="M20.6084 20.8696H27.391V24H20.6084V20.8696Z" fill="#FFDA44"/>
</g>
<defs>
<clipPath id="clip0_154_367">
<rect width="48" height="48" fill="white"/>
</clipPath>
</defs>
</svg>
