<svg width="48" height="49" viewBox="0 0 48 49" fill="none" xmlns="http://www.w3.org/2000/svg">
<g clip-path="url(#clip0_154_1851)">
<path d="M13.0101 45.3525L30.6412 30.6517L45.3419 13.0207C43.0563 8.59119 39.4321 4.96504 35.0044 2.67651L17.3593 17.37L2.66602 35.0149C4.95436 39.4428 8.5805 43.0668 13.0101 45.3525V45.3525Z" fill="#FFDA44"/>
<path d="M40.972 40.982C48.5438 33.4101 49.9974 22.0385 45.3357 13.0061L12.9961 45.3457C22.0285 50.0073 33.4002 48.5537 40.972 40.982Z" fill="#D80027"/>
<path d="M7.02872 7.03934C-0.543073 14.6111 -1.99657 25.9828 2.66495 35.0152L35.0046 2.67566C25.9722 -1.98605 14.6005 -0.532366 7.02872 7.03934V7.03934Z" fill="#6DA544"/>
</g>
<defs>
<clipPath id="clip0_154_1851">
<rect width="48" height="48" fill="white" transform="translate(0 0.0107422)"/>
</clipPath>
</defs>
</svg>
