<svg width="48" height="48" viewBox="0 0 48 48" fill="none" xmlns="http://www.w3.org/2000/svg">
<g clip-path="url(#clip0_154_715)">
<path d="M48 24C48 37.2548 37.2548 48 24 48C10.7452 48 0 37.2548 0 24C0 24.0057 24 0.002625 24 0C37.2548 0 48 10.7452 48 24Z" fill="#0052B4"/>
<path d="M23.9355 24H23.9998C23.9998 23.9784 23.9998 23.9574 23.9998 23.9358C23.9784 23.9573 23.957 23.9786 23.9355 24Z" fill="#F0F0F0"/>
<path d="M24 12.5217C24 8.29875 24 5.53172 24 0H23.996C10.7429 0.00225 0 10.7465 0 24H12.5217V16.949L19.5728 24H23.9359C23.9572 23.9786 23.9786 23.9573 24.0001 23.9358C24.0001 22.3189 24.0001 20.8762 24.0001 19.5729L16.9489 12.5217H24Z" fill="#F0F0F0"/>
<path d="M12.1425 3.13037C8.38883 5.26778 5.26817 8.38834 3.13086 12.142V24H9.39177V9.39147V9.39128H24.0005C24.0005 7.41662 24.0005 5.53543 24.0005 3.13037H12.1425Z" fill="#D80027"/>
<path d="M23.9998 21.0486L15.4727 12.5217H12.5215V12.5219L23.9996 23.9999H23.9998C23.9998 23.9999 23.9998 21.9649 23.9998 21.0486V21.0486Z" fill="#D80027"/>
<path d="M32.3475 24L32.7917 25.3665H34.2284L33.0661 26.211L33.5101 27.5776L32.3475 26.733L31.1851 27.5776L31.6291 26.211L30.4668 25.3665H31.9035L32.3475 24Z" fill="#F0F0F0"/>
<path d="M26.4458 26.445L27.7259 27.0973L28.742 26.0813L28.5172 27.5005L29.7974 28.1528L28.3783 28.3774L28.1535 29.7968L27.5011 28.5165L26.082 28.7413L27.0982 27.7253L26.4458 26.445Z" fill="#F0F0F0"/>
<path d="M24 32.3478L25.3665 31.9038L25.3667 30.4672L26.211 31.6294L27.5776 31.1853L26.733 32.3478L27.5776 33.5104L26.211 33.0664L25.3667 34.2287V32.792L24 32.3478Z" fill="#F0F0F0"/>
<path d="M26.4458 38.2506L27.098 36.9703L26.082 35.9545L27.5012 36.1792L28.1535 34.8989L28.3783 36.3181L29.7974 36.5427L28.5172 37.1951L28.742 38.6144L27.7259 37.5982L26.4458 38.2506Z" fill="#F0F0F0"/>
<path d="M32.3476 40.6956L31.9036 39.329H30.4668L31.6292 38.4845L31.1852 37.118L32.3476 37.9625L33.5102 37.118L33.0662 38.4845L34.2285 39.329H32.7918L32.3476 40.6956Z" fill="#F0F0F0"/>
<path d="M38.2501 38.2506L36.9698 37.5985L35.954 38.6144L36.1787 37.1951L34.8984 36.5429L36.3176 36.3181L36.5424 34.8989L37.1947 36.1792L38.6138 35.9545L37.5977 36.9704L38.2501 38.2506Z" fill="#F0F0F0"/>
<path d="M40.6948 32.3477L39.3282 32.7919V34.2286L38.4837 33.0662L37.1172 33.5103L37.9618 32.3477L37.1172 31.1852L38.4837 31.6293L39.3282 30.467V31.9037L40.6948 32.3477Z" fill="#F0F0F0"/>
<path d="M38.2501 26.4453L37.598 27.7254L38.6138 28.7414L37.1947 28.5166L36.5424 29.797L36.3176 28.3776L34.8984 28.1529L36.1787 27.5006L35.954 26.0815L36.9699 27.0974L38.2501 26.4453Z" fill="#F0F0F0"/>
</g>
<defs>
<clipPath id="clip0_154_715">
<rect width="48" height="48" fill="white"/>
</clipPath>
</defs>
</svg>
