<svg width="48" height="49" viewBox="0 0 48 49" fill="none" xmlns="http://www.w3.org/2000/svg">
<g clip-path="url(#clip0_154_772)">
<path d="M23.9999 48.0107C37.2547 48.0107 47.9998 37.2655 47.9998 24.0108C47.9998 10.756 37.2547 0.0108643 23.9999 0.0108643C10.7451 0.0108643 0 10.756 0 24.0108C0 37.2655 10.7451 48.0107 23.9999 48.0107Z" fill="#F0F0F0"/>
<path d="M23.9999 0.0109253C16.1481 0.0109253 9.17742 3.78183 4.79883 9.61093H43.2008C38.8223 3.78174 31.8515 0.0109253 23.9999 0.0109253V0.0109253Z" fill="#0052B4"/>
<path d="M23.9999 48.0106C31.8516 48.0106 38.8223 44.2397 43.2009 38.4106H4.79883C9.17733 44.2398 16.1481 48.0106 23.9999 48.0106Z" fill="#0052B4"/>
<path d="M0 24.0108C0 25.6547 0.16575 27.2599 0.480656 28.8108H47.5194C47.8343 27.2599 48 25.6547 48 24.0108C48 22.3669 47.8342 20.7617 47.5194 19.2108H0.480656C0.16575 20.7617 0 22.3669 0 24.0108V24.0108Z" fill="#0052B4"/>
<path d="M7.02935 7.04028C-2.34312 16.4128 -2.34312 31.6088 7.02935 40.9814C10.9024 37.1083 14.6273 33.3834 23.9999 24.0109L7.02935 7.04028Z" fill="#D80027"/>
<path d="M9.71389 17.75L11.2677 22.5327H16.297L12.2285 25.4888L13.7824 30.2715L9.71389 27.3156L5.64523 30.2715L7.19942 25.4888L3.13086 22.5327H8.1598L9.71389 17.75Z" fill="#F0F0F0"/>
</g>
<defs>
<clipPath id="clip0_154_772">
<rect width="48" height="48" fill="white" transform="translate(0 0.0107422)"/>
</clipPath>
</defs>
</svg>
