<svg width="48" height="49" viewBox="0 0 48 49" fill="none" xmlns="http://www.w3.org/2000/svg">
<g clip-path="url(#clip0_154_782)">
<path d="M24 48.0107C37.2548 48.0107 48 37.2656 48 24.0107C48 10.7559 37.2548 0.0107422 24 0.0107422C10.7452 0.0107422 0 10.7559 0 24.0107C0 37.2656 10.7452 48.0107 24 48.0107Z" fill="#FFDA44"/>
<path d="M24 48.0107C31.875 48.0107 38.864 44.2178 43.2402 38.3593H4.75977C9.13602 44.2178 16.125 48.0107 24 48.0107Z" fill="#0052B4"/>
<path d="M48 24.0107C48 10.756 37.2548 0.0107422 24 0.0107422C10.7452 0.0107422 0 10.756 0 24.0107C0 26.8488 0.493969 29.5712 1.39838 32.0985H46.6015C47.506 29.5712 48 26.8488 48 24.0107V24.0107Z" fill="#0052B4"/>
<path d="M16.4272 15.4027L17.7222 19.3882H21.9132L18.5227 21.8518L19.8177 25.8375L16.4272 23.3741L13.0367 25.8375L14.3319 21.8518L10.9414 19.3882H15.1322L16.4272 15.4027Z" fill="#F0F0F0"/>
<path d="M9.22985 11.2289L10.0069 13.6203H12.5215L10.4872 15.0983L11.2642 17.4898L9.22985 16.0117L7.19557 17.4898L7.97266 15.0983L5.93848 13.6203H8.45304L9.22985 11.2289Z" fill="#F0F0F0"/>
</g>
<defs>
<clipPath id="clip0_154_782">
<rect width="48" height="48" fill="white" transform="translate(0 0.0107422)"/>
</clipPath>
</defs>
</svg>
