<svg width="48" height="49" viewBox="0 0 48 49" fill="none" xmlns="http://www.w3.org/2000/svg">
<g clip-path="url(#clip0_154_809)">
<path d="M24 48.0107C37.2548 48.0107 48 37.2656 48 24.0107C48 10.7559 37.2548 0.0107422 24 0.0107422C10.7452 0.0107422 0 10.7559 0 24.0107C0 37.2656 10.7452 48.0107 24 48.0107Z" fill="#F0F0F0"/>
<path d="M18.7823 20.8803H47.7964C46.2624 9.10468 36.1934 0.0107422 23.9996 0.0107422C22.2076 0.0107422 20.4622 0.208836 18.7822 0.581211V20.8803H18.7823Z" fill="#D80027"/>
<path d="M12.5217 20.8802V2.92889C5.93172 6.52458 1.21403 13.12 0.203125 20.8803H12.5217V20.8802Z" fill="#D80027"/>
<path d="M12.5216 27.1412H0.203125C1.21403 34.9015 5.93172 41.4969 12.5217 45.0925L12.5216 27.1412Z" fill="#D80027"/>
<path d="M18.7822 27.1412V47.4402C20.4622 47.8126 22.2076 48.0107 23.9996 48.0107C36.1934 48.0107 46.2624 38.9168 47.7964 27.1411H18.7822V27.1412Z" fill="#D80027"/>
</g>
<defs>
<clipPath id="clip0_154_809">
<rect width="48" height="48" fill="white" transform="translate(0 0.0107422)"/>
</clipPath>
</defs>
</svg>
