<svg width="48" height="49" viewBox="0 0 48 49" fill="none" xmlns="http://www.w3.org/2000/svg">
<g clip-path="url(#clip0_154_878)">
<path d="M24 48.0107C37.2548 48.0107 48 37.2656 48 24.0107C48 10.7559 37.2548 0.0107422 24 0.0107422C10.7452 0.0107422 0 10.7559 0 24.0107C0 37.2656 10.7452 48.0107 24 48.0107Z" fill="#F0F0F0"/>
<path d="M24.0004 0.0107422C13.6812 0.0107422 4.8842 6.52374 1.49316 15.663H46.5077C43.1166 6.52374 34.3195 0.0107422 24.0004 0.0107422V0.0107422Z" fill="#D80027"/>
<path d="M24.0004 48.0109C34.3195 48.0109 43.1166 41.4979 46.5076 32.3586H1.49316C4.8842 41.4979 13.6812 48.0109 24.0004 48.0109Z" fill="black"/>
<path d="M32.3481 21.4022H26.0872C26.0872 20.2496 25.1528 19.3152 24.0002 19.3152C22.8477 19.3152 21.9133 20.2496 21.9133 21.4022H15.6523C15.6523 22.5548 16.6563 23.4891 17.8089 23.4891H17.7393C17.7393 24.6418 18.6736 25.5761 19.8263 25.5761C19.8263 26.7287 20.7606 27.6631 21.9133 27.6631H26.0872C27.2398 27.6631 28.1742 26.7287 28.1742 25.5761C29.3268 25.5761 30.2611 24.6418 30.2611 23.4891H30.1917C31.3442 23.4891 32.3481 22.5548 32.3481 21.4022V21.4022Z" fill="#FF9811"/>
</g>
<defs>
<clipPath id="clip0_154_878">
<rect width="48" height="48" fill="white" transform="translate(0 0.0107422)"/>
</clipPath>
</defs>
</svg>
