<svg width="48" height="48" viewBox="0 0 48 48" fill="none" xmlns="http://www.w3.org/2000/svg">
<path d="M2.38144 13.5652C0.85575 16.7205 0 20.2602 0 24C0 27.7398 0.85575 31.2795 2.38144 34.4347L24 36.5217L45.6186 34.4347C47.1442 31.2795 48 27.7398 48 24C48 20.2602 47.1442 16.7205 45.6186 13.5652L24 11.4783L2.38144 13.5652Z" fill="#F0F0F0"/>
<path d="M2.38281 34.4348C6.26462 42.4627 14.4856 48.0001 24.0005 48.0001C33.5155 48.0001 41.7364 42.4627 45.6182 34.4348H2.38281Z" fill="#496E2D"/>
<path d="M2.38281 13.5653H45.6182C41.7364 5.53734 33.5156 0 24.0005 0C14.4855 0 6.26462 5.53734 2.38281 13.5653Z" fill="black"/>
<path d="M7.02942 7.02942C-2.34314 16.402 -2.34314 31.598 7.02942 40.9707C10.9025 37.0976 14.6275 33.3726 24 24L7.02942 7.02942Z" fill="#D80027"/>
<path d="M30.2614 24C30.2614 20.5033 32.7188 17.5822 36.0005 16.8656C35.4961 16.7554 34.9728 16.6957 34.4352 16.6957C30.401 16.6957 27.1309 19.9659 27.1309 24C27.1309 28.0342 30.401 31.3044 34.4352 31.3044C34.9727 31.3044 35.496 31.2446 36.0005 31.1345C32.7188 30.4179 30.2614 27.4967 30.2614 24Z" fill="#D80027"/>
<path d="M36.3066 19.3043L37.3428 22.4931H40.6954L37.983 24.4636L39.0192 27.6522L36.3066 25.6816L33.5943 27.6522L34.6305 24.4636L31.918 22.4931H35.2706L36.3066 19.3043Z" fill="#D80027"/>
</svg>
