<svg width="48" height="49" viewBox="0 0 48 49" fill="none" xmlns="http://www.w3.org/2000/svg">
<g clip-path="url(#clip0_154_906)">
<path d="M21.913 21.9238C21.913 21.9238 7.04336 40.9847 7.0293 40.9813C11.3724 45.3244 17.3725 48.0107 23.9999 48.0107C37.2547 48.0107 47.9999 37.2655 47.9999 24.0107L21.913 21.9238Z" fill="#338AF3"/>
<path d="M21.913 24.0107C21.913 24.0107 7.04336 7.03684 7.0293 7.04021C11.3724 2.69705 17.3725 0.0107422 23.9999 0.0107422C37.2547 0.0107422 47.9999 10.756 47.9999 24.0107H21.913Z" fill="#6DA544"/>
<path d="M7.02942 7.0401C-2.34314 16.4127 -2.34314 31.6087 7.02942 40.9813C7.02877 40.9852 48 24.0107 48 24.0107L7.02942 7.0401Z" fill="#D80027"/>
<path d="M12.5216 14.0977C7.91858 14.0977 4.17383 17.8426 4.17383 22.4455V25.5759C4.17383 30.1789 7.91867 33.9237 12.5216 33.9237C17.1245 33.9237 20.8694 30.1788 20.8694 25.5759V22.4455C20.8695 17.8426 17.1246 14.0977 12.5216 14.0977ZM17.739 25.576C17.739 27.9077 16.2013 29.8867 14.0868 30.5532V27.1412L16.3015 24.9265L14.088 22.713L14.0868 21.9252V20.8804H10.9565V24.0107L8.7432 26.2239L10.9565 28.4371V30.5533C8.84192 29.8868 7.30423 27.9078 7.30423 25.5761V22.4457C7.30423 19.5688 9.6448 17.2283 12.5216 17.2283C15.3984 17.2283 17.739 19.5689 17.739 22.4457V25.576Z" fill="#FFDA44"/>
</g>
<defs>
<clipPath id="clip0_154_906">
<rect width="48" height="48" fill="white" transform="translate(0 0.0107422)"/>
</clipPath>
</defs>
</svg>
