<svg width="48" height="49" viewBox="0 0 48 49" fill="none" xmlns="http://www.w3.org/2000/svg">
<g clip-path="url(#clip0_154_938)">
<path d="M48 24.0117C48 37.2665 37.2548 48.0117 24 48.0117C10.7452 48.0117 0 37.2665 0 24.0117C0 24.0174 24 0.0143438 24 0.0117188C37.2548 0.0117188 48 10.757 48 24.0117Z" fill="#0052B4"/>
<path d="M23.9355 24.0117H23.9998C23.9998 23.9902 23.9998 23.9692 23.9998 23.9475C23.9784 23.969 23.957 23.9904 23.9355 24.0117Z" fill="#F0F0F0"/>
<path d="M24 12.5334C24 8.31047 24 5.54344 24 0.0117188H23.996C10.743 0.0139688 0 10.7582 0 24.0117H12.5217V16.9607L19.5728 24.0117H23.9359L24.0001 23.9475C24.0001 22.3306 24.0001 20.8879 24.0001 19.5847L16.9489 12.5334H24Z" fill="#F0F0F0"/>
<path d="M12.1425 3.14209C8.38883 5.2795 5.26827 8.40006 3.13086 12.1537V24.0117H9.39177V9.40318V9.403H24.0005C24.0005 7.42834 24.0005 5.54715 24.0005 3.14209H12.1425Z" fill="#D80027"/>
<path d="M23.9997 21.0603L15.4728 12.5334H12.5215V12.5336L23.9995 24.0116H23.9997C23.9997 24.0116 23.9997 21.9766 23.9997 21.0603Z" fill="#D80027"/>
<path d="M38.6091 28.1855V29.229H30.2614V28.1855H27.1309V32.3594H29.2178V33.4029H39.6527V32.3594H41.7395V28.1855H38.6091Z" fill="#FFDA44"/>
<path d="M27.1309 12.5334V24.0117C27.1309 29.6029 34.4352 31.3161 34.4352 31.3161C34.4352 31.3161 41.7395 29.6029 41.7395 24.0117V12.5334H27.1309Z" fill="#338AF3"/>
<path d="M34.4347 21.0952C32.6088 21.0952 32.6088 22.7647 30.7828 22.7647C28.9568 22.7647 28.9568 21.0952 27.1309 21.0952V24.0169C28.9568 24.0169 28.9568 25.6865 30.7828 25.6865C32.6088 25.6865 32.6088 24.0169 34.4347 24.0169C36.2609 24.0169 36.2609 25.6865 38.0871 25.6865C39.9134 25.6865 39.9133 24.0169 41.7395 24.0169V21.0952C39.9134 21.0952 39.9134 22.7647 38.0871 22.7647C36.2609 22.7647 36.2609 21.0952 34.4347 21.0952V21.0952Z" fill="#F3F3F3"/>
<path d="M34.4347 15.2466C32.6088 15.2466 32.6088 16.9162 30.7828 16.9162C28.9568 16.9162 28.9568 15.2466 27.1309 15.2466V18.1683C28.9568 18.1683 28.9568 19.8379 30.7828 19.8379C32.6088 19.8379 32.6088 18.1683 34.4347 18.1683C36.2609 18.1683 36.2609 19.8379 38.0871 19.8379C39.9134 19.8379 39.9133 18.1683 41.7395 18.1683V15.2466C39.9134 15.2466 39.9134 16.9162 38.0871 16.9162C36.2609 16.9162 36.2609 15.2466 34.4347 15.2466Z" fill="#F3F3F3"/>
</g>
<defs>
<clipPath id="clip0_154_938">
<rect width="48" height="48" fill="white" transform="translate(0 0.0117188)"/>
</clipPath>
</defs>
</svg>
