<svg width="48" height="48" viewBox="0 0 48 48" fill="none" xmlns="http://www.w3.org/2000/svg">
<g clip-path="url(#clip0_154_1496)">
<path d="M24 48C37.2548 48 48 37.2548 48 24C48 10.7452 37.2548 0 24 0C10.7452 0 0 10.7452 0 24C0 37.2548 10.7452 48 24 48Z" fill="#338AF3"/>
<path d="M24 10.4347L25.036 13.6233H28.3889L25.6765 15.594L26.7124 18.7826L24 16.8119L21.2876 18.7826L22.3238 15.594L19.6113 13.6233H22.9641L24 10.4347Z" fill="#F0F0F0"/>
<path d="M10.4355 24.0001L13.6242 22.964V19.6111L15.5949 22.3237L18.7834 21.2877L16.8128 24.0001L18.7834 26.7123L15.5949 25.6762L13.6242 28.3887V25.036L10.4355 24.0001Z" fill="#F0F0F0"/>
<path d="M24.0002 37.5652L22.9642 34.3765H19.6113L22.3239 32.4058L21.2879 29.2173L24.0002 31.1879L26.7125 29.2173L25.6764 32.4058L28.3889 34.3765H25.0362L24.0002 37.5652Z" fill="#F0F0F0"/>
<path d="M37.5666 23.9998L34.378 25.0358V28.3886L32.4073 25.6761L29.2188 26.7122L31.1894 23.9998L29.2188 21.2875L32.4073 22.3236L34.378 19.6111V22.9639L37.5666 23.9998Z" fill="#F0F0F0"/>
</g>
<defs>
<clipPath id="clip0_154_1496">
<rect width="48" height="48" fill="white"/>
</clipPath>
</defs>
</svg>
