<svg width="48" height="49" viewBox="0 0 48 49" fill="none" xmlns="http://www.w3.org/2000/svg">
<g clip-path="url(#clip0_154_953)">
<path d="M24 48.0107C37.2548 48.0107 48 37.2656 48 24.0107C48 10.7559 37.2548 0.0107422 24 0.0107422C10.7452 0.0107422 0 10.7559 0 24.0107C0 37.2656 10.7452 48.0107 24 48.0107Z" fill="#F0F0F0"/>
<path d="M46.9562 24.0107L47.7961 20.8803C47.6566 19.8134 47.4473 18.7682 47.1729 17.7499H21.9126V0.102051C20.8476 0.193738 19.8028 0.355832 18.7822 0.582145L14.6083 3.14114L12.5213 2.93049C11.423 3.52974 10.3767 4.21224 9.39091 4.96964V17.7498H0.826375C0.551969 18.7681 0.342719 19.8133 0.203219 20.8802L1.04303 24.0107L0.203125 27.1411C0.342625 28.2081 0.551875 29.2532 0.826281 30.2716H9.39081V43.0517C10.3766 43.8092 11.423 44.4916 12.5212 45.0909L15.6516 44.8802L18.782 47.4392C19.8027 47.6655 20.8475 47.8276 21.9124 47.9193V30.2716H47.1726C47.447 29.2533 47.6563 28.2082 47.7958 27.1412L46.9562 24.0107Z" fill="#0052B4"/>
<path d="M47.7968 20.8804H18.7827H18.7826V0.581238C16.5647 1.07305 14.462 1.87021 12.5217 2.92893V20.8803H0.203156C0.06975 21.905 0 22.9498 0 24.0108C0 25.0717 0.06975 26.1165 0.203156 27.1412H12.5216H12.5217V45.0925C14.462 46.1511 16.5647 46.9485 18.7826 47.4402V27.1415V27.1413H47.7968C47.9303 26.1165 48 25.0717 48 24.0108C48 22.9498 47.9303 21.905 47.7968 20.8804V20.8804Z" fill="#D80027"/>
</g>
<defs>
<clipPath id="clip0_154_953">
<rect width="48" height="48" fill="white" transform="translate(0 0.0107422)"/>
</clipPath>
</defs>
</svg>
