<svg width="48" height="48" viewBox="0 0 48 48" fill="none" xmlns="http://www.w3.org/2000/svg">
<g clip-path="url(#clip0_154_2378)">
<path d="M24 48C37.2548 48 48 37.2548 48 24C48 10.7452 37.2548 0 24 0C10.7452 0 0 10.7452 0 24C0 37.2548 10.7452 48 24 48Z" fill="#F0F0F0"/>
<path d="M4.96064 9.38818C3.07542 11.841 1.65389 14.668 0.826172 17.7392H13.3116L4.96064 9.38818Z" fill="#0052B4"/>
<path d="M47.1727 17.7392C46.345 14.6681 44.9234 11.8411 43.0383 9.38831L34.6875 17.7392H47.1727Z" fill="#0052B4"/>
<path d="M0.826172 30.2609C1.65398 33.3319 3.07552 36.159 4.96064 38.6116L13.3113 30.2609H0.826172Z" fill="#0052B4"/>
<path d="M38.6106 4.96122C36.1579 3.076 33.3309 1.65447 30.2598 0.82666V13.312L38.6106 4.96122Z" fill="#0052B4"/>
<path d="M9.38867 43.0384C11.8415 44.9237 14.6685 46.3452 17.7395 47.173V34.6877L9.38867 43.0384Z" fill="#0052B4"/>
<path d="M17.7395 0.82666C14.6684 1.65447 11.8414 3.076 9.38867 4.96113L17.7395 13.3119V0.82666Z" fill="#0052B4"/>
<path d="M30.2598 47.173C33.3308 46.3452 36.1579 44.9236 38.6105 43.0385L30.2598 34.6877V47.173Z" fill="#0052B4"/>
<path d="M34.6875 30.2609L43.0383 38.6117C44.9234 36.1591 46.345 33.3319 47.1727 30.2609H34.6875Z" fill="#0052B4"/>
<path d="M47.7968 20.8696H27.1306H27.1305V0.203156C26.1057 0.06975 25.061 0 24 0C22.9388 0 21.8943 0.06975 20.8696 0.203156V20.8694V20.8695H0.203156C0.06975 21.8943 0 22.939 0 24C0 25.0612 0.06975 26.1057 0.203156 27.1304H20.8694H20.8695V47.7968C21.8943 47.9303 22.9388 48 24 48C25.061 48 26.1057 47.9303 27.1304 47.7968V27.1306V27.1305H47.7968C47.9303 26.1057 48 25.0612 48 24C48 22.939 47.9303 21.8943 47.7968 20.8696V20.8696Z" fill="#D80027"/>
<path d="M30.2617 30.2611L40.9713 40.9707C41.4639 40.4783 41.9338 39.9635 42.3821 39.4299L33.2132 30.261H30.2617V30.2611Z" fill="#D80027"/>
<path d="M17.739 30.261H17.7388L7.0293 40.9705C7.52167 41.4631 8.03645 41.933 8.57008 42.3813L17.739 33.2121V30.261Z" fill="#D80027"/>
<path d="M17.7395 17.7392V17.739L7.02989 7.0293C6.53733 7.52167 6.06745 8.03645 5.61914 8.57008L14.7882 17.7391H17.7395V17.7392Z" fill="#D80027"/>
<path d="M30.2617 17.7394L40.9714 7.02955C40.4791 6.53699 39.9643 6.06712 39.4307 5.6189L30.2617 14.7879V17.7394Z" fill="#D80027"/>
</g>
<defs>
<clipPath id="clip0_154_2378">
<rect width="48" height="48" fill="white"/>
</clipPath>
</defs>
</svg>
