<svg width="48" height="48" viewBox="0 0 48 48" fill="none" xmlns="http://www.w3.org/2000/svg">
<g clip-path="url(#clip0_154_1024)">
<path d="M0 24C0 26.9357 0.528094 29.7478 1.49278 32.3478L24 33.3913L46.5072 32.3479C47.472 29.7478 48 26.9357 48 24C48 21.0643 47.472 18.2522 46.5072 15.6522L24 14.6087L1.49278 15.6521C0.528094 18.2522 0 21.0643 0 24H0Z" fill="#FFDA44"/>
<path d="M24.0004 0C13.6812 0 4.8842 6.513 1.49316 15.6522H46.5077C43.1166 6.513 34.3195 0 24.0004 0V0Z" fill="#D80027"/>
<path d="M46.5076 32.3479H1.49316C4.8842 41.487 13.6812 48.0001 24.0004 48.0001C34.3195 48.0001 43.1166 41.487 46.5076 32.3479Z" fill="#496E2D"/>
<path d="M23.9999 15.6522L26.0718 22.0291H32.7775L27.3529 25.9706L29.4248 32.3478L23.9999 28.4065L18.5751 32.3478L20.6473 25.9706L15.2227 22.0291H21.928L23.9999 15.6522Z" fill="black"/>
</g>
<defs>
<clipPath id="clip0_154_1024">
<rect width="48" height="48" fill="white"/>
</clipPath>
</defs>
</svg>
