<svg width="48" height="48" viewBox="0 0 48 48" fill="none" xmlns="http://www.w3.org/2000/svg">
<g clip-path="url(#clip0_154_1004)">
<path d="M24 48C37.2548 48 48 37.2548 48 24C48 10.7452 37.2548 0 24 0C10.7452 0 0 10.7452 0 24C0 37.2548 10.7452 48 24 48Z" fill="#F0F0F0"/>
<path d="M24.0006 0C14.0785 0 5.56342 6.02119 1.9082 14.6087H46.093C42.4378 6.02119 33.9226 0 24.0006 0Z" fill="#A2001D"/>
<path d="M24.0006 48C33.9226 48 42.4378 41.9789 46.093 33.3914H1.9082C5.56342 41.9789 14.0785 48 24.0006 48Z" fill="#496E2D"/>
<path d="M47.1732 17.7391H0.826781C0.28875 19.7353 0 21.8337 0 24C0 26.1663 0.28875 28.2647 0.826781 30.2609H47.1733C47.7113 28.2647 48 26.1663 48 24C48 21.8337 47.7112 19.7353 47.1732 17.7391V17.7391Z" fill="#0052B4"/>
</g>
<defs>
<clipPath id="clip0_154_1004">
<rect width="48" height="48" fill="white"/>
</clipPath>
</defs>
</svg>
