<svg width="48" height="48" viewBox="0 0 48 48" fill="none" xmlns="http://www.w3.org/2000/svg">
<g clip-path="url(#clip0_154_1109)">
<path d="M32.3486 1.49287C29.7485 0.528094 26.9363 0 24.0005 0C21.0649 0 18.2528 0.528094 15.6529 1.49269L14.6094 24L15.6528 46.5073C18.2528 47.472 21.0649 48 24.0005 48C26.9364 48 29.7485 47.472 32.3486 46.5071L33.392 24L32.3486 1.49287Z" fill="#FFDA44"/>
<path d="M0 24C0 34.319 6.513 43.1162 15.6522 46.5071V1.49268C6.513 4.8838 0 13.6807 0 24Z" fill="#D80027"/>
<path d="M47.9999 24C47.9999 13.6807 41.4869 4.8838 32.3477 1.49268V46.5072C41.4869 43.1162 47.9999 34.3191 47.9999 24Z" fill="#6DA544"/>
</g>
<defs>
<clipPath id="clip0_154_1109">
<rect width="48" height="48" fill="white"/>
</clipPath>
</defs>
</svg>
