<svg width="48" height="49" viewBox="0 0 48 49" fill="none" xmlns="http://www.w3.org/2000/svg">
<g clip-path="url(#clip0_154_897)">
<path d="M24 48.0107C37.2548 48.0107 48 37.2656 48 24.0107C48 10.7559 37.2548 0.0107422 24 0.0107422C10.7452 0.0107422 0 10.7559 0 24.0107C0 37.2656 10.7452 48.0107 24 48.0107Z" fill="#F0F0F0"/>
<path d="M14.6087 15.663H46.5072C43.1162 6.52374 34.3191 0.0107422 24.0001 0.0107422C17.3725 0.0107422 11.3731 2.69752 7.03027 7.04096L14.6087 15.663Z" fill="#6DA544"/>
<path d="M14.6087 32.3585H46.5072C43.1162 41.4977 34.3191 48.0107 24.0001 48.0107C17.3725 48.0107 11.3731 45.324 7.03027 40.9805L14.6087 32.3585Z" fill="#D80027"/>
<path d="M7.02942 7.0401C-2.34314 16.4127 -2.34314 31.6087 7.02942 40.9813C10.9025 37.1083 14.6275 33.3833 24 24.0107L7.02942 7.0401Z" fill="#0052B4"/>
<path d="M28.1738 19.8368V25.0542C28.1738 28.2492 32.3478 29.2282 32.3478 29.2282C32.3478 29.2282 36.5217 28.2492 36.5217 25.0542V19.8368H28.1738Z" fill="#DEDDE0"/>
<path d="M31.3047 24.115H33.3917V27.1411H31.3047V24.115Z" fill="#786145"/>
<path d="M34.4351 22.9673C34.4351 21.8147 33.5008 20.8804 32.3482 20.8804C31.1955 20.8804 30.2612 21.8147 30.2612 22.9673C29.6849 22.9673 29.2178 23.4345 29.2178 24.0108C29.2178 24.5871 29.6849 25.0542 30.2612 25.0542H34.4351C35.0114 25.0542 35.4786 24.5871 35.4786 24.0108C35.4786 23.4345 35.0115 22.9673 34.4351 22.9673V22.9673Z" fill="#6DA544"/>
</g>
<defs>
<clipPath id="clip0_154_897">
<rect width="48" height="48" fill="white" transform="translate(0 0.0107422)"/>
</clipPath>
</defs>
</svg>
