<svg width="48" height="48" viewBox="0 0 48 48" fill="none" xmlns="http://www.w3.org/2000/svg">
<g clip-path="url(#clip0_154_1037)">
<path d="M24 48C37.2548 48 48 37.2548 48 24C48 10.7452 37.2548 0 24 0C10.7452 0 0 10.7452 0 24C0 37.2548 10.7452 48 24 48Z" fill="#F0F0F0"/>
<path d="M24 17.7391H47.1732C46.5714 15.5066 45.6568 13.4027 44.4774 11.4782H24V17.7391Z" fill="#338AF3"/>
<path d="M9.06018 42.7826H38.9395C41.1298 41.0381 43.0082 38.9192 44.4772 36.5217H3.52246C4.99162 38.9191 6.86999 41.0381 9.06018 42.7826V42.7826Z" fill="#338AF3"/>
<path d="M8.34768 5.80676C6.46087 7.43154 4.82971 9.34489 3.52246 11.4783H8.34768V5.80676Z" fill="#338AF3"/>
<path d="M24 24C24 21.5554 24 19.5094 24 17.7391H14.6087V24H8.34778V17.7391H0.826781C0.28875 19.7354 0 21.8337 0 24C0 26.1663 0.28875 28.2646 0.826781 30.2609H47.1733C47.7113 28.2646 48 26.1663 48 24H24Z" fill="#338AF3"/>
<path d="M23.9997 0C20.667 0 17.4931 0.679969 14.6084 1.90762V11.4783H23.9997C23.9997 9.29278 23.9997 7.434 23.9997 5.21738H38.9394C34.8396 1.95225 29.6481 0 23.9997 0V0Z" fill="#338AF3"/>
</g>
<defs>
<clipPath id="clip0_154_1037">
<rect width="48" height="48" fill="white"/>
</clipPath>
</defs>
</svg>
