<svg width="48" height="48" viewBox="0 0 48 48" fill="none" xmlns="http://www.w3.org/2000/svg">
<g clip-path="url(#clip0_154_1076)">
<path d="M10.4727 43.826C14.3243 46.459 18.9818 48 23.9996 48C29.0173 48 33.6747 46.459 37.5265 43.826L23.9996 41.7391L10.4727 43.826Z" fill="#D80027"/>
<path d="M37.5265 4.17394C33.6747 1.54097 29.0173 0 23.9996 0C18.9818 0 14.3243 1.54097 10.4727 4.17394L23.9996 6.26091L37.5265 4.17394Z" fill="#D80027"/>
<path d="M48 24C48 16.0584 43.2454 8.08314 37.5269 4.17395H10.4731C4.15031 8.4962 0 15.7631 0 24C0 32.2372 4.15031 39.5038 10.4731 43.8261H37.5269C43.8498 39.5038 48 32.2372 48 24Z" fill="#0052B4"/>
<path d="M22.6416 39.1497C22.3136 38.8684 14.6084 32.1702 14.6084 23.9999C14.6084 15.8297 22.3135 9.13138 22.6416 8.85022L23.9997 7.68604L25.3579 8.85013C25.6858 9.13138 33.391 15.8296 33.391 23.9999C33.391 32.1703 25.6859 38.8686 25.3579 39.1497L23.9997 40.3139L22.6416 39.1497Z" fill="#D80027"/>
<path d="M31.304 24.0001C31.304 16.6957 23.9997 10.4348 23.9997 10.4348C23.9997 10.4348 16.6953 16.6959 16.6953 24.0001C16.6953 26.2346 17.3794 28.3711 18.3283 30.261H29.671C30.6199 28.3711 31.304 26.2346 31.304 24.0001Z" fill="#338AF3"/>
<path d="M31.304 24C31.304 26.2345 30.6199 28.371 29.671 30.2609L23.9997 31.3043L18.3283 30.2609C17.3794 28.3711 16.6953 26.2345 16.6953 24H31.304Z" fill="#0052B4"/>
<path d="M24.0004 37.5653C24.0004 37.5653 27.5187 34.5487 29.6717 30.261H18.3291C20.4822 34.5487 24.0004 37.5653 24.0004 37.5653Z" fill="#FFDA44"/>
<path d="M19.3047 19.8262H28.696L24.0003 24.5218L19.3047 19.8262Z" fill="#6DA544"/>
<path d="M22.4346 22.9565H25.565V32.3479H22.4346V22.9565Z" fill="#A2001D"/>
</g>
<defs>
<clipPath id="clip0_154_1076">
<rect width="48" height="48" fill="white"/>
</clipPath>
</defs>
</svg>
