<svg width="48" height="48" viewBox="0 0 48 48" fill="none" xmlns="http://www.w3.org/2000/svg">
<g clip-path="url(#clip0_154_1114)">
<path d="M24 48C37.2548 48 48 37.2548 48 24C48 10.7452 37.2548 0 24 0C10.7452 0 0 10.7452 0 24C0 37.2548 10.7452 48 24 48Z" fill="#F0F0F0"/>
<path d="M24.0004 0C19.7572 0 15.7721 1.10269 12.3135 3.03488V44.9651C15.7722 46.8973 19.7572 48 24.0004 48C37.2552 48 48.0004 37.2548 48.0004 24C48.0004 10.7452 37.2552 0 24.0004 0Z" fill="#6DA544"/>
<path d="M12.3836 2.99542C10.8737 3.83214 9.46391 4.82664 8.17587 5.95727C8.30609 5.84308 8.43763 5.7302 8.57019 5.61883L26.9513 24L8.57009 42.3812C8.43744 42.2698 8.306 42.157 8.17578 42.0428C9.46381 43.1734 10.8737 44.1678 12.3835 45.0046L47.9999 24L12.3836 2.99542Z" fill="#F0F0F0"/>
<path d="M10.3567 4.25458C9.62483 4.76139 8.92189 5.30673 8.25205 5.88958L24.0002 24L8.25195 42.1105C8.9218 42.6933 9.62473 43.2387 10.3566 43.7455L43.8919 24L10.3567 4.25458Z" fill="#FFDA44"/>
<path d="M8.57008 5.61884C8.03655 6.06715 7.52167 6.53712 7.0293 7.0294L21.913 24L7.0293 40.9706C7.52167 41.463 8.03645 41.9331 8.57008 42.3812L26.9513 24L8.57008 5.61884Z" fill="black"/>
<path d="M7.02942 7.02936C-2.34314 16.4019 -2.34314 31.5979 7.02942 40.9706C10.9025 37.0975 14.6275 33.3725 24 24L7.02942 7.02936Z" fill="#D80027"/>
</g>
<defs>
<clipPath id="clip0_154_1114">
<rect width="48" height="48" fill="white"/>
</clipPath>
</defs>
</svg>
