<svg width="48" height="48" viewBox="0 0 48 48" fill="none" xmlns="http://www.w3.org/2000/svg">
<g clip-path="url(#clip0_154_1141)">
<path d="M24 48C37.2548 48 48 37.2548 48 24C48 10.7452 37.2548 0 24 0C10.7452 0 0 10.7452 0 24C0 37.2548 10.7452 48 24 48Z" fill="#F0F0F0"/>
<path d="M24.0004 47.9999C33.5154 47.9999 41.737 42.4626 45.619 34.4347H2.38184C6.26384 42.4626 14.4853 47.9999 24.0004 47.9999Z" fill="#338AF3"/>
<path d="M24.0004 0C14.4853 0 6.26384 5.53734 2.38184 13.5652H45.6189C41.737 5.53734 33.5154 0 24.0004 0V0Z" fill="#338AF3"/>
<path d="M14.7701 15.6522L15.5471 18.0437H18.0615L16.0274 19.5216L16.8045 21.913L14.7701 20.4351L12.7357 21.913L13.5128 19.5216L11.4785 18.0437H13.993L14.7701 15.6522Z" fill="#338AF3"/>
<path d="M14.7701 26.0869L15.5471 28.4785H18.0615L16.0274 29.9564L16.8045 32.3477L14.7701 30.8698L12.7357 32.3477L13.5128 29.9564L11.4785 28.4785H13.993L14.7701 26.0869Z" fill="#338AF3"/>
<path d="M33.231 15.6521L34.0081 18.0436H36.5226L34.4883 19.5214L35.2654 21.9129L33.231 20.4349L31.1966 21.9129L31.9737 19.5214L29.9395 18.0436H32.454L33.231 15.6521Z" fill="#338AF3"/>
<path d="M33.231 26.0869L34.0081 28.4785H36.5226L34.4883 29.9564L35.2654 32.3477L33.231 30.8698L31.1966 32.3477L31.9737 29.9564L29.9395 28.4785H32.454L33.231 26.0869Z" fill="#338AF3"/>
<path d="M24.0005 20.8696L24.7776 23.2612H27.2921L25.2578 24.7391L26.0349 27.1304L24.0005 25.6525L21.9662 27.1304L22.7433 24.7391L20.709 23.2612H23.2235L24.0005 20.8696Z" fill="#338AF3"/>
</g>
<defs>
<clipPath id="clip0_154_1141">
<rect width="48" height="48" fill="white"/>
</clipPath>
</defs>
</svg>
