<svg width="48" height="48" viewBox="0 0 48 48" fill="none" xmlns="http://www.w3.org/2000/svg">
<g clip-path="url(#clip0_154_1122)">
<path d="M48 24C48 37.2548 37.2548 48 24 48C10.7452 48 0 37.2548 0 24C0 10.7452 24 0 24 0C24 0 48 10.7452 48 24Z" fill="#A2001D"/>
<path d="M0 24C0 10.7452 10.7452 0 24 0C37.2548 0 48 10.7452 48 24" fill="#0052B4"/>
<path d="M32.3479 30.2609L24.0001 29.2174L15.6523 30.2609V17.7391H32.3479V30.2609Z" fill="#F0F0F0"/>
<path d="M24.0001 29.2174C26.3053 29.2174 28.174 27.3486 28.174 25.0434C28.174 22.7382 26.3053 20.8695 24.0001 20.8695C21.6949 20.8695 19.8262 22.7382 19.8262 25.0434C19.8262 27.3486 21.6949 29.2174 24.0001 29.2174Z" fill="#0052B4"/>
<path d="M24.0001 27.1304C25.1527 27.1304 26.087 26.196 26.087 25.0434C26.087 23.8908 25.1527 22.9564 24.0001 22.9564C22.8475 22.9564 21.9131 23.8908 21.9131 25.0434C21.9131 26.196 22.8475 27.1304 24.0001 27.1304Z" fill="#A2001D"/>
<path d="M20.8691 19.8262H27.13L23.9995 22.9567L20.8691 19.8262Z" fill="#6DA544"/>
<path d="M22.957 21.9131H25.044V28.174H22.957V21.9131Z" fill="#FFDA44"/>
<path d="M27.3392 27.5477H20.6608L15.6523 30.2609H32.3479L27.3392 27.5477Z" fill="#6DA544"/>
</g>
<defs>
<clipPath id="clip0_154_1122">
<rect width="48" height="48" fill="white"/>
</clipPath>
</defs>
</svg>
