<svg width="48" height="48" viewBox="0 0 48 48" fill="none" xmlns="http://www.w3.org/2000/svg">
<g clip-path="url(#clip0_154_1175)">
<path d="M24 48C37.2548 48 48 37.2548 48 24C48 10.7452 37.2548 0 24 0C10.7452 0 0 10.7452 0 24C0 37.2548 10.7452 48 24 48Z" fill="#F0F0F0"/>
<path d="M23.9994 0C14.4844 0 6.26286 5.53734 2.38086 13.5652H45.6179C41.736 5.53734 33.5144 0 23.9994 0V0Z" fill="#FF9811"/>
<path d="M23.9994 48.0001C33.5144 48.0001 41.736 42.4627 45.618 34.4348H2.38086C6.26286 42.4627 14.4844 48.0001 23.9994 48.0001Z" fill="#6DA544"/>
<path d="M24.0001 32.3478C28.6105 32.3478 32.3479 28.6104 32.3479 24C32.3479 19.3897 28.6105 15.6522 24.0001 15.6522C19.3898 15.6522 15.6523 19.3897 15.6523 24C15.6523 28.6104 19.3898 32.3478 24.0001 32.3478Z" fill="#0052B4"/>
<path d="M24.0006 29.2175C26.8821 29.2175 29.218 26.8816 29.218 24.0001C29.218 21.1186 26.8821 18.7827 24.0006 18.7827C21.1191 18.7827 18.7832 21.1186 18.7832 24.0001C18.7832 26.8816 21.1191 29.2175 24.0006 29.2175Z" fill="#F0F0F0"/>
<path d="M23.9994 17.5618L25.609 21.2122L29.575 20.7809L27.2185 24L29.575 27.219L25.609 26.7877L23.9994 30.4381L22.3898 26.7877L18.4238 27.219L20.7803 24L18.4238 20.7809L22.3898 21.2122L23.9994 17.5618Z" fill="#0052B4"/>
</g>
<defs>
<clipPath id="clip0_154_1175">
<rect width="48" height="48" fill="white"/>
</clipPath>
</defs>
</svg>
