<svg width="48" height="48" viewBox="0 0 48 48" fill="none" xmlns="http://www.w3.org/2000/svg">
<g clip-path="url(#clip0_154_1193)">
<path d="M24 48C37.2548 48 48 37.2548 48 24C48 10.7452 37.2548 0 24 0C10.7452 0 0 10.7452 0 24C0 37.2548 10.7452 48 24 48Z" fill="#F0F0F0"/>
<path d="M24.0004 0C13.6812 0 4.8842 6.513 1.49316 15.6522H46.5077C43.1166 6.513 34.3195 0 24.0004 0V0Z" fill="#A2001D"/>
<path d="M24.0004 48.0001C34.3195 48.0001 43.1166 41.4871 46.5076 32.3479H1.49316C4.8842 41.4871 13.6812 48.0001 24.0004 48.0001Z" fill="black"/>
<path d="M18.2608 22.4348C18.2477 22.4348 18.2348 22.4356 18.2217 22.4358V22.4348H13.6338C13.8664 21.5361 14.6819 20.8695 15.6521 20.8695V17.7391C12.7752 17.7391 10.4347 20.0797 10.4347 22.9565V25.5131V25.5653H18.2217H18.2608C18.5485 25.5653 18.7825 25.7994 18.7825 26.087V27.1304H8.34766V30.2609H21.9129V26.0869C21.9129 24.0732 20.2745 22.4348 18.2608 22.4348V22.4348Z" fill="#496E2D"/>
<path d="M26.0865 27.1304V17.7391H22.9561V30.2609H28.1734V27.1304H26.0865Z" fill="#496E2D"/>
<path d="M36.5211 27.1305V17.7391H33.3907V27.1305H32.3472V24.0001H29.2168V30.261H38.6081V27.1305H36.5211Z" fill="#496E2D"/>
</g>
<defs>
<clipPath id="clip0_154_1193">
<rect width="48" height="48" fill="white"/>
</clipPath>
</defs>
</svg>
