<svg width="48" height="48" viewBox="0 0 48 48" fill="none" xmlns="http://www.w3.org/2000/svg">
<g clip-path="url(#clip0_154_1166)">
<path d="M24 48C37.2548 48 48 37.2548 48 24C48 10.7452 37.2548 0 24 0C10.7452 0 0 10.7452 0 24C0 37.2548 10.7452 48 24 48Z" fill="#F0F0F0"/>
<path d="M0.826172 30.2609C2.2148 35.4133 5.27527 39.879 9.3907 43.0411V30.2609H0.826172Z" fill="#0052B4"/>
<path d="M21.9121 47.9088C22.6 47.968 23.2958 48.0001 23.9991 48.0001C35.0877 48.0001 44.4183 40.4794 47.1723 30.261H21.9121V47.9088Z" fill="#0052B4"/>
<path d="M47.1723 17.7391C44.4183 7.52072 35.0877 0 23.9991 0C23.2958 0 22.6 0.0320625 21.9121 0.0913125V17.7391H47.1723Z" fill="#0052B4"/>
<path d="M9.3907 4.95892C5.27527 8.12111 2.2148 12.5867 0.826172 17.7391H9.3907V4.95892Z" fill="#0052B4"/>
<path d="M47.7968 20.8696H18.7827H18.7826V0.570496C16.5647 1.06231 14.462 1.85946 12.5217 2.91818V20.8695H0.203156C0.0695625 21.8943 0 22.9391 0 24C0 25.061 0.0695625 26.1057 0.203156 27.1304H12.5216H12.5217V45.0818C14.462 46.1404 16.5647 46.9377 18.7826 47.4295V27.1307V27.1305H47.7968C47.9303 26.1057 48 25.061 48 24C48 22.9391 47.9303 21.8943 47.7968 20.8696V20.8696Z" fill="#D80027"/>
</g>
<defs>
<clipPath id="clip0_154_1166">
<rect width="48" height="48" fill="white"/>
</clipPath>
</defs>
</svg>
