<svg width="48" height="48" viewBox="0 0 48 48" fill="none" xmlns="http://www.w3.org/2000/svg">
<g clip-path="url(#clip0_154_1239)">
<path d="M24 48C37.2548 48 48 37.2548 48 24C48 10.7452 37.2548 0 24 0C10.7452 0 0 10.7452 0 24C0 37.2548 10.7452 48 24 48Z" fill="#F0F0F0"/>
<path d="M43.0399 38.6132L28.4266 24H28.4265L43.0399 9.38653C42.4096 8.56753 41.7201 7.77957 40.97 7.02929C40.2198 6.2791 39.4319 5.58957 38.6128 4.95947L23.9995 19.5728L23.9994 19.5728L9.38614 4.95947C8.56723 5.58966 7.77917 6.279 7.02889 7.02929C6.27861 7.77957 5.58917 8.56753 4.95908 9.38653L19.5724 23.9997L19.5725 23.9998L4.95898 38.6133C5.58927 39.4323 6.2787 40.2202 7.0288 40.9705C7.77908 41.7207 8.56695 42.4102 9.38605 43.0403L23.9994 28.4271L23.9995 28.427L38.6128 43.0402C39.4317 42.4101 40.2198 41.7206 40.97 40.9704C41.7203 40.2202 42.4097 39.4322 43.0399 38.6132V38.6132Z" fill="#D80027"/>
<path d="M19.8262 7.30429L24.0001 8.34773L28.174 7.30429V3.75651L26.5045 4.59126L24.0001 2.08691L21.4958 4.59126L19.8262 3.75651V7.30429Z" fill="#FFDA44"/>
<path d="M19.8262 7.30432V9.9132C19.8262 13.1082 24.0001 14.0871 24.0001 14.0871C24.0001 14.0871 28.174 13.1081 28.174 9.9132V7.30432H19.8262Z" fill="#D80027"/>
</g>
<defs>
<clipPath id="clip0_154_1239">
<rect width="48" height="48" fill="white"/>
</clipPath>
</defs>
</svg>
