<svg width="48" height="48" viewBox="0 0 48 48" fill="none" xmlns="http://www.w3.org/2000/svg">
<g clip-path="url(#clip0_154_1245)">
<path d="M24 48C37.2548 48 48 37.2548 48 24C48 10.7452 37.2548 0 24 0C10.7452 0 0 10.7452 0 24C0 37.2548 10.7452 48 24 48Z" fill="#F0F0F0"/>
<path d="M14.6078 15.6522H46.5062C43.1153 6.513 34.3181 0 23.9991 0C17.3715 0 11.3722 2.68678 7.0293 7.03022L14.6078 15.6522Z" fill="black"/>
<path d="M14.6078 32.3479H46.5062C43.1153 41.4871 34.3181 48.0001 23.9991 48.0001C17.3715 48.0001 11.3722 45.3133 7.0293 40.9699L14.6078 32.3479Z" fill="#6DA544"/>
<path d="M7.02942 7.02942C-2.34314 16.402 -2.34314 31.598 7.02942 40.9707C10.9025 37.0976 14.6275 33.3726 24 24L7.02942 7.02942Z" fill="#D80027"/>
<path d="M9.52536 18.7826L10.8425 21.5369L13.817 20.8494L12.4849 23.5964L14.8769 25.4933L11.8987 26.1645L11.907 29.2173L9.52536 27.3074L7.14364 29.2173L7.15198 26.1645L4.17383 25.4933L6.56577 23.5964L5.23377 20.8494L8.20817 21.5369L9.52536 18.7826Z" fill="#F0F0F0"/>
</g>
<defs>
<clipPath id="clip0_154_1245">
<rect width="48" height="48" fill="white"/>
</clipPath>
</defs>
</svg>
