<svg width="48" height="48" viewBox="0 0 48 48" fill="none" xmlns="http://www.w3.org/2000/svg">
<g clip-path="url(#clip0_154_1272)">
<path d="M0 24C0 10.7452 10.7452 0 24 0C37.2548 0 48 10.7452 48 24" fill="#D80027"/>
<path d="M32.3479 22.3199L28.9368 23.9242L30.7533 27.2279L27.0493 26.5192L26.58 30.261L24.0001 27.5089L21.4201 30.261L20.9509 26.5192L17.2469 27.2277L19.0633 23.9242L15.6523 22.3199L19.0633 20.7153L17.2469 17.412L20.9508 18.1203L21.4202 14.3788L24.0001 17.1306L26.5801 14.3788L27.0493 18.1203L30.7534 17.412L28.9371 20.7155L32.3479 22.3199Z" fill="#FFDA44"/>
<path d="M30.2611 7.82611H25.5654C25.5654 6.96183 24.8645 6.26086 24.0002 6.26086C23.1358 6.26086 22.4349 6.96174 22.4349 7.82611H17.7393C17.7393 8.69049 18.4923 9.39136 19.3566 9.39136H19.3044C19.3044 10.2557 20.0051 10.9566 20.8697 10.9566C20.8697 11.821 21.5704 12.5219 22.4349 12.5219H25.5653C26.4296 12.5219 27.1306 11.8211 27.1306 10.9566C27.9949 10.9566 28.6958 10.2558 28.6958 9.39136H28.6436C29.5081 9.39136 30.2611 8.69058 30.2611 7.82611V7.82611Z" fill="#FFDA44"/>
<path d="M48 24C48 37.2548 37.2548 48 24 48C10.7452 48 0 37.2548 0 24H48Z" fill="#F0F0F0"/>
<path d="M23.9999 48.0001C31.5019 48.0001 38.1989 44.5572 42.6001 39.1662C41.8084 38.6265 41.381 37.754 39.9995 37.754C37.9996 37.754 37.9996 39.5827 35.9997 39.5827C33.9998 39.5827 33.9997 37.754 31.9999 37.754C29.9999 37.754 29.9999 39.5827 27.9998 39.5827C25.9998 39.5827 25.9997 37.754 23.9995 37.754C21.9995 37.754 21.9995 39.5827 19.9997 39.5827C18 39.5827 18 37.754 16 37.754C13.9999 37.754 13.9999 39.5827 11.9997 39.5827C9.99954 39.5827 9.99954 37.754 7.99938 37.754C6.61807 37.754 6.19066 38.6263 5.39941 39.166C9.80041 44.5572 16.4977 48.0001 23.9999 48.0001V48.0001Z" fill="#0052B4"/>
<path d="M43.9997 27.061C41.9998 27.061 41.9998 25.2323 39.9997 25.2323C37.9997 25.2323 37.9997 27.061 35.9998 27.061C34 27.061 33.9999 25.2323 32 25.2323C30 25.2323 30 27.061 28 27.061C25.9999 27.061 25.9998 25.2323 23.9997 25.2323C21.9997 25.2323 21.9997 27.061 19.9998 27.061C18.0001 27.061 18.0001 25.2323 16.0002 25.2323C14 25.2323 14 27.061 11.9998 27.061C9.99969 27.061 9.99969 25.2323 7.99953 25.2323C5.99984 25.2323 5.99984 27.061 3.99988 27.061C2.01069 27.061 1.99916 25.2525 0.03125 25.2331C0.0866563 26.331 0.217719 27.4087 0.415906 28.4626C2.01003 28.6969 2.14963 30.261 3.99997 30.261C5.99994 30.261 5.99994 28.4325 7.99963 28.4325C9.99978 28.4325 9.99978 30.261 11.9999 30.261C14.0001 30.261 14.0001 28.4325 16.0003 28.4325C18.0002 28.4325 18.0002 30.261 19.9999 30.261C21.9999 30.261 21.9999 28.4325 23.9998 28.4325C25.9999 28.4325 25.9999 30.261 28.0001 30.261C30.0002 30.261 30.0002 28.4325 32.0001 28.4325C34.0001 28.4325 34.0001 30.261 35.9999 30.261C37.9998 30.261 37.9999 28.4325 39.9998 28.4325C41.9999 28.4325 41.9999 30.261 43.9998 30.261C45.8503 30.261 45.9899 28.697 47.5842 28.4627C47.7824 27.4087 47.9133 26.331 47.969 25.2332C46.0007 25.2526 45.989 27.061 43.9997 27.061V27.061Z" fill="#0052B4"/>
<path d="M39.9995 31.4932C37.9996 31.4932 37.9996 33.3219 35.9997 33.3219C33.9998 33.3219 33.9997 31.4932 31.9998 31.4932C29.9999 31.4932 29.9999 33.3219 27.9998 33.3219C25.9997 33.3219 25.9997 31.4932 23.9995 31.4932C21.9995 31.4932 21.9995 33.3219 19.9997 33.3219C18 33.3219 18 31.4932 16 31.4932C13.9998 31.4932 13.9998 33.3219 11.9997 33.3219C9.99953 33.3219 9.99953 31.4932 7.99938 31.4932C5.99969 31.4932 5.99969 33.3219 3.99972 33.3219C2.57069 33.3219 2.1625 32.3885 1.31641 31.8552C1.87966 33.4826 2.61241 35.0307 3.49487 36.4778C3.64834 36.5062 3.81541 36.5218 3.99972 36.5218C5.99969 36.5218 5.99969 34.6933 7.99938 34.6933C9.99953 34.6933 9.99953 36.5218 11.9997 36.5218C13.9998 36.5218 13.9998 34.6933 16 34.6933C18 34.6933 18 36.5218 19.9997 36.5218C21.9996 36.5218 21.9996 34.6933 23.9995 34.6933C25.9997 34.6933 25.9997 36.5218 27.9998 36.5218C30 36.5218 30 34.6933 31.9998 34.6933C33.9998 34.6933 33.9998 36.5218 35.9997 36.5218C37.9996 36.5218 37.9997 34.6933 39.9995 34.6933C41.9997 34.6933 41.9997 36.5218 43.9996 36.5218C44.1841 36.5218 44.3511 36.5062 44.5046 36.4778C45.3871 35.0307 46.1197 33.4826 46.6832 31.8553C45.8371 32.3883 45.4288 33.3219 43.9996 33.3219C41.9997 33.3219 41.9997 31.4932 39.9995 31.4932Z" fill="#0052B4"/>
<path d="M47.9256 22.1039C46.0009 22.1493 45.9743 23.9305 43.9997 23.9305C41.9997 23.9305 41.9997 22.1018 39.9997 22.1018C37.9997 22.1018 37.9997 23.9305 35.9998 23.9305C33.9999 23.9305 33.9998 22.1018 32 22.1018C30 22.1018 30 23.9305 27.9999 23.9305C25.9999 23.9305 25.9998 22.1018 23.9996 22.1018C21.9997 22.1018 21.9997 23.9305 19.9998 23.9305C18.0001 23.9305 18.0001 22.1018 16.0001 22.1018C14 22.1018 14 23.9305 11.9998 23.9305C9.99966 23.9305 9.99966 22.1018 7.9995 22.1018C5.99981 22.1018 5.99981 23.9305 3.99984 23.9305C2.02556 23.9305 1.99884 22.1495 0.0743437 22.1039C0.0255 22.7296 0 23.3618 0 24C0 24.4371 0.012375 24.8715 0.0357188 25.3028C1.99913 25.3248 2.01216 27.1304 3.99994 27.1304C5.99991 27.1304 5.99991 25.3019 7.99959 25.3019C9.99975 25.3019 9.99975 27.1304 11.9999 27.1304C14.0001 27.1304 14.0001 25.3019 16.0002 25.3019C18.0002 25.3019 18.0002 27.1304 19.9999 27.1304C21.9998 27.1304 21.9998 25.3019 23.9997 25.3019C25.9999 25.3019 25.9999 27.1304 28 27.1304C30.0002 27.1304 30.0002 25.3019 32.0001 25.3019C34 25.3019 34 27.1304 35.9999 27.1304C37.9998 27.1304 37.9999 25.3019 39.9998 25.3019C41.9999 25.3019 41.9999 27.1304 43.9998 27.1304C45.9877 27.1304 46.0008 25.3248 47.9646 25.3028C47.9876 24.8714 48 24.4371 48 24C48 23.3618 47.9745 22.7296 47.9256 22.1039V22.1039Z" fill="#F0F0F0"/>
</g>
<defs>
<clipPath id="clip0_154_1272">
<rect width="48" height="48" fill="white"/>
</clipPath>
</defs>
</svg>
