<svg width="48" height="48" viewBox="0 0 48 48" fill="none" xmlns="http://www.w3.org/2000/svg">
<g clip-path="url(#clip0_154_1679)">
<path d="M24 48C37.2548 48 48 37.2548 48 24C48 10.7452 37.2548 0 24 0C10.7452 0 0 10.7452 0 24C0 37.2548 10.7452 48 24 48Z" fill="#F0F0F0"/>
<path d="M23.9999 0C16.7257 0 10.2079 3.23662 5.80664 8.34778H42.193C37.7918 3.23662 31.274 0 23.9999 0V0Z" fill="#0052B4"/>
<path d="M42.1931 39.6522H5.80664C10.2079 44.7634 16.7257 48 23.9999 48C31.274 48 37.7918 44.7634 42.1931 39.6522Z" fill="#0052B4"/>
<path d="M44.4774 11.4783H3.52256C1.28859 15.1237 0 19.4112 0 24C0 28.5888 1.28859 32.8763 3.52256 36.5217H44.4774C46.7114 32.8763 48 28.5888 48 24C48 19.4112 46.7114 15.1237 44.4774 11.4783Z" fill="#D80027"/>
<path d="M14.766 33.2346C19.8662 33.2346 24.0007 29.1001 24.0007 23.9999C24.0007 18.8997 19.8662 14.7651 14.766 14.7651C9.66579 14.7651 5.53125 18.8997 5.53125 23.9999C5.53125 29.1001 9.66579 33.2346 14.766 33.2346Z" fill="#F0F0F0"/>
<path d="M14.7656 14.7651L16.8375 21.1421H23.5536L18.1183 25.0835L20.2065 31.4795L14.7656 27.5194L9.33295 31.4721L11.4129 25.0835L5.98242 21.1421H12.6935L14.7656 14.7651Z" fill="#D80027"/>
</g>
<defs>
<clipPath id="clip0_154_1679">
<rect width="48" height="48" fill="white"/>
</clipPath>
</defs>
</svg>
