<svg width="48" height="49" viewBox="0 0 48 49" fill="none" xmlns="http://www.w3.org/2000/svg">
<g clip-path="url(#clip0_154_2071)">
<path d="M24 48.0098C37.2548 48.0098 48 37.2646 48 24.0098C48 10.7549 37.2548 0.00976562 24 0.00976562C10.7452 0.00976562 0 10.7549 0 24.0098C0 37.2646 10.7452 48.0098 24 48.0098Z" fill="#F0F0F0"/>
<path d="M32.3479 24.0098C32.3479 26.0967 28.6105 31.3141 24.0001 31.3141C19.3898 31.3141 15.6523 26.0967 15.6523 24.0098C15.6523 19.3993 19.3898 15.662 24.0001 15.662C28.6105 15.662 32.3479 19.3993 32.3479 24.0098Z" fill="#D80027"/>
<path d="M32.3479 24.0098C32.3479 28.6202 28.6105 32.3575 24.0001 32.3575C19.3898 32.3575 15.6523 28.6202 15.6523 24.0098" fill="#0052B4"/>
<path d="M32.8477 31.3886L35.0609 29.1754L36.5363 30.6509L34.3231 32.8641L32.8477 31.3886Z" fill="black"/>
<path d="M29.1582 35.0774L31.3714 32.8642L32.8469 34.3397L30.6337 36.5529L29.1582 35.0774Z" fill="black"/>
<path d="M37.2734 35.8149L39.4866 33.6017L40.9621 35.0772L38.7489 37.2904L37.2734 35.8149Z" fill="black"/>
<path d="M33.584 39.5042L35.7972 37.291L37.2727 38.7664L35.0595 40.9796L33.584 39.5042Z" fill="black"/>
<path d="M35.0605 33.6018L37.2737 31.3886L38.7492 32.8641L36.536 35.0773L35.0605 33.6018Z" fill="black"/>
<path d="M31.373 37.2908L33.5862 35.0776L35.0617 36.5531L32.8485 38.7663L31.373 37.2908Z" fill="black"/>
<path d="M37.2832 16.635L31.3813 10.7331L32.8568 9.25764L38.7587 15.1595L37.2832 16.635Z" fill="black"/>
<path d="M31.3809 15.1602L29.1677 12.947L30.6431 11.4715L32.8563 13.6847L31.3809 15.1602Z" fill="black"/>
<path d="M35.0703 18.8496L32.8571 16.6364L34.3325 15.161L36.5457 17.3742L35.0703 18.8496Z" fill="black"/>
<path d="M35.8066 10.7329L33.5934 8.51971L35.0689 7.04423L37.2821 9.25742L35.8066 10.7329Z" fill="black"/>
<path d="M39.498 14.4229L37.2849 12.2097L38.7603 10.7342L40.9735 12.9474L39.498 14.4229Z" fill="black"/>
<path d="M8.50781 33.5977L14.4097 39.4995L12.9342 40.975L7.03232 35.0731L8.50781 33.5977Z" fill="black"/>
<path d="M14.4102 35.072L16.6234 37.2852L15.1479 38.7606L12.9347 36.5474L14.4102 35.072Z" fill="black"/>
<path d="M10.7207 31.3841L12.9339 33.5973L11.4584 35.0728L9.24522 32.8596L10.7207 31.3841Z" fill="black"/>
<path d="M12.9336 29.1702L18.8355 35.072L17.36 36.5475L11.4581 30.6457L12.9336 29.1702Z" fill="black"/>
<path d="M14.4102 8.51514L8.50827 14.417L7.03279 12.9415L12.9347 7.03965L14.4102 8.51514Z" fill="black"/>
<path d="M16.623 10.728L10.7212 16.6299L9.24568 15.1544L15.1476 9.25254L16.623 10.728Z" fill="black"/>
<path d="M18.8379 12.9426L12.936 18.8445L11.4606 17.3691L17.3625 11.4672L18.8379 12.9426Z" fill="black"/>
</g>
<defs>
<clipPath id="clip0_154_2071">
<rect width="48" height="48" fill="white" transform="translate(0 0.00976562)"/>
</clipPath>
</defs>
</svg>
