<svg width="48" height="48" viewBox="0 0 48 48" fill="none" xmlns="http://www.w3.org/2000/svg">
<g clip-path="url(#clip0_154_1295)">
<path d="M46.5072 32.3478C47.4719 29.7479 48 26.9357 48 24.0001C48 21.0644 47.4719 18.2522 46.5072 15.6523L24 13.5653L1.49278 15.6523C0.528094 18.2522 0 21.0644 0 24.0001C0 26.9357 0.528094 29.7479 1.49278 32.3478L24 34.4348L46.5072 32.3478Z" fill="#F0F0F0"/>
<path d="M24.0005 48.0001C34.3195 48.0001 43.1167 41.4871 46.5076 32.3479H1.49316C4.88429 41.4871 13.6812 48.0001 24.0005 48.0001Z" fill="#D80027"/>
<path d="M24.0005 0C13.6812 0 4.88429 6.513 1.49316 15.6522H46.5077C43.1167 6.513 34.3195 0 24.0005 0Z" fill="#6DA544"/>
<path d="M7.02942 7.02942C-2.34314 16.402 -2.34314 31.598 7.02942 40.9707C9.47583 38.5243 11.8636 36.1364 15.6522 32.3479V15.6523L7.02942 7.02942Z" fill="black"/>
</g>
<defs>
<clipPath id="clip0_154_1295">
<rect width="48" height="48" fill="white"/>
</clipPath>
</defs>
</svg>
