<svg width="48" height="48" viewBox="0 0 48 48" fill="none" xmlns="http://www.w3.org/2000/svg">
<g clip-path="url(#clip0_154_604)">
<path d="M48 24C48 37.2548 37.2548 48 24 48C10.7452 48 0 37.2548 0 24C0 24.0057 24 0.002625 24 0C37.2548 0 48 10.7452 48 24Z" fill="#0052B4"/>
<path d="M23.9355 24H23.9998C23.9998 23.9784 23.9998 23.9574 23.9998 23.9358C23.9784 23.9573 23.957 23.9786 23.9355 24Z" fill="#F0F0F0"/>
<path d="M24 12.5217C24 8.29875 24 5.53172 24 0H23.996C10.7429 0.00225 0 10.7465 0 24H12.5217V16.949L19.5728 24H23.9359C23.9572 23.9786 23.9786 23.9573 24.0001 23.9358C24.0001 22.3189 24.0001 20.8762 24.0001 19.5729L16.9489 12.5217H24Z" fill="#F0F0F0"/>
<path d="M34.4357 17.7392C36.7409 17.7392 38.6096 15.8705 38.6096 13.5653C38.6096 11.2601 36.7409 9.39136 34.4357 9.39136C32.1305 9.39136 30.2617 11.2601 30.2617 13.5653C30.2617 15.8705 32.1305 17.7392 34.4357 17.7392Z" fill="#6DA544"/>
<path d="M12.1425 3.13037C8.38883 5.26778 5.26817 8.38834 3.13086 12.142V24H9.39177V9.39147V9.39128H24.0005C24.0005 7.41662 24.0005 5.53543 24.0005 3.13037H12.1425Z" fill="#D80027"/>
<path d="M23.9998 21.0486L15.4727 12.5217H12.5215V12.5219L23.9996 23.9999H23.9998C23.9998 23.9999 23.9998 21.9649 23.9998 21.0486V21.0486Z" fill="#D80027"/>
<path d="M27.1309 12.5217H41.7395V18.7826H27.1309V12.5217Z" fill="#D80027"/>
<path d="M27.1309 28.1738V32.3478H29.3269C30.6436 33.6381 32.4459 34.4347 34.4352 34.4347C36.4245 34.4347 38.2268 33.6381 39.5435 32.3478H39.6526H41.7395V28.1738H27.1309Z" fill="#FFDA44"/>
<path d="M27.1309 17.739V23.9999C27.1309 29.5911 34.4352 31.3043 34.4352 31.3043C34.4352 31.3043 41.7395 29.5911 41.7395 23.9999V17.739H27.1309Z" fill="#338AF3"/>
<path d="M34.4347 21.0835C32.6088 21.0835 32.6088 22.7531 30.7828 22.7531C28.9568 22.7531 28.9568 21.0835 27.1309 21.0835V24.0052C28.9568 24.0052 28.9568 25.6748 30.7828 25.6748C32.6088 25.6748 32.6088 24.0052 34.4347 24.0052C36.2609 24.0052 36.2609 25.6748 38.0871 25.6748C39.9134 25.6748 39.9133 24.0052 41.7395 24.0052V21.0835C39.9134 21.0835 39.9134 22.7531 38.0871 22.7531C36.2609 22.7531 36.2609 21.0835 34.4347 21.0835V21.0835Z" fill="#F3F3F3"/>
<path d="M34.4347 15.2349C32.6088 15.2349 32.6088 16.9045 30.7828 16.9045C28.9568 16.9045 28.9568 15.2349 27.1309 15.2349V18.1566C28.9568 18.1566 28.9568 19.8262 30.7828 19.8262C32.6088 19.8262 32.6088 18.1566 34.4347 18.1566C36.2609 18.1566 36.2609 19.8262 38.0871 19.8262C39.9134 19.8262 39.9133 18.1566 41.7395 18.1566V15.2349C39.9134 15.2349 39.9134 16.9045 38.0871 16.9045C36.2609 16.9045 36.2609 15.2349 34.4347 15.2349Z" fill="#F3F3F3"/>
</g>
<defs>
<clipPath id="clip0_154_604">
<rect width="48" height="48" fill="white"/>
</clipPath>
</defs>
</svg>
