<svg width="48" height="48" viewBox="0 0 48 48" fill="none" xmlns="http://www.w3.org/2000/svg">
<g clip-path="url(#clip0_154_1252)">
<path d="M24 48C37.2548 48 48 37.2548 48 24C48 10.7452 37.2548 0 24 0C10.7452 0 0 10.7452 0 24C0 37.2548 10.7452 48 24 48Z" fill="#338AF3"/>
<path d="M37.5651 24.2609H10.4346C10.4346 26.1339 12.0659 27.6522 13.9388 27.6522H13.8259C13.8259 29.5252 15.3442 31.0435 17.2172 31.0435C17.2172 32.9165 18.7355 34.4348 20.6085 34.4348H27.3911C29.2642 34.4348 30.7824 32.9165 30.7824 31.0435C32.6555 31.0435 34.1738 29.5252 34.1738 27.6522H34.0609C35.9335 27.6522 37.5651 26.1339 37.5651 24.2609V24.2609Z" fill="#FFDA44"/>
<path d="M33.391 19.8262C33.391 25.0128 29.1863 29.2175 23.9997 29.2175C18.813 29.2175 14.6084 25.0128 14.6084 19.8262" fill="#338AF3"/>
<path d="M31.1737 19.826L28.2426 21.2048L29.8035 24.0435L26.6206 23.4346L26.2173 26.6499L24.0004 24.285L21.7834 26.6499L21.3802 23.4346L18.1974 24.0433L19.7581 21.2047L16.8271 19.826L19.7582 18.4473L18.1974 15.6086L21.3801 16.2174L21.7835 13.0022L24.0004 15.367L26.2174 13.0022L26.6206 16.2174L29.8036 15.6086L28.2427 18.4474L31.1737 19.826Z" fill="#FFDA44"/>
</g>
<defs>
<clipPath id="clip0_154_1252">
<rect width="48" height="48" fill="white"/>
</clipPath>
</defs>
</svg>
