<svg width="48" height="48" viewBox="0 0 48 48" fill="none" xmlns="http://www.w3.org/2000/svg">
<g clip-path="url(#clip0_154_1324)">
<path d="M24 48C37.2548 48 48 37.2548 48 24C48 10.7452 37.2548 0 24 0C10.7452 0 0 10.7452 0 24C0 37.2548 10.7452 48 24 48Z" fill="#F0F0F0"/>
<path d="M23.9994 0C14.4844 0 6.26286 5.53734 2.38086 13.5652H45.6179C41.736 5.53734 33.5144 0 23.9994 0V0Z" fill="#D80027"/>
<path d="M23.9994 47.9999C33.5144 47.9999 41.736 42.4626 45.618 34.4347H2.38086C6.26286 42.4626 14.4844 47.9999 23.9994 47.9999Z" fill="#D80027"/>
<path d="M30.2601 28.1738L23.9992 16.6956L17.7383 28.1738H22.4339V31.3042H25.5644V28.1738H30.2601Z" fill="#6DA544"/>
</g>
<defs>
<clipPath id="clip0_154_1324">
<rect width="48" height="48" fill="white"/>
</clipPath>
</defs>
</svg>
