<svg width="48" height="48" viewBox="0 0 48 48" fill="none" xmlns="http://www.w3.org/2000/svg">
<g clip-path="url(#clip0_154_1363)">
<path d="M48 24C48 37.2547 37.2548 48 24 48C10.7452 48 0 37.2547 0 24C1.04344 24 24 20.8696 24 20.8696L48 24Z" fill="#D80027"/>
<path d="M0 24C0 10.7452 10.7452 0 24 0C37.2548 0 48 10.7452 48 24" fill="#0052B4"/>
<path d="M17.7385 16.6957C17.7385 14.9669 16.337 13.5653 14.6081 13.5653C13.8061 13.5653 13.0751 13.8672 12.5211 14.363V12.5218H13.5646V10.4348H12.5211V9.39136H10.4342V10.4348H9.39073V12.5218H10.4342V14.363C9.8802 13.8672 9.14923 13.5653 8.3472 13.5653C6.61836 13.5653 5.2168 14.9669 5.2168 16.6957C5.2168 17.6226 5.62002 18.4551 6.26023 19.0284V20.8696H16.695V19.0284C17.3354 18.4551 17.7385 17.6226 17.7385 16.6957V16.6957Z" fill="#FFDA44"/>
</g>
<defs>
<clipPath id="clip0_154_1363">
<rect width="48" height="48" fill="white"/>
</clipPath>
</defs>
</svg>
