<svg width="48" height="48" viewBox="0 0 48 48" fill="none" xmlns="http://www.w3.org/2000/svg">
<g clip-path="url(#clip0_154_2108)">
<path d="M24 47.9999C37.2548 47.9999 47.9999 37.2548 47.9999 24C47.9999 10.7451 37.2548 0 24 0C10.7451 0 0 10.7451 0 24C0 37.2548 10.7451 47.9999 24 47.9999Z" fill="#FFDA44"/>
<path d="M18.783 4.17395H10.4734C10.1052 4.42567 9.74482 4.6877 9.39166 4.95892L7.30469 24L9.39166 43.041C9.74482 43.3123 10.1052 43.5743 10.4734 43.826H18.783V4.17395Z" fill="#FF9811"/>
<path d="M0 24.0001C0 31.7575 3.68138 38.6539 9.39133 43.0412V4.95898C3.68138 9.34631 0 16.2428 0 24.0001V24.0001Z" fill="#6DA544"/>
<path d="M38.6094 14.6311V15.2316L38.6317 15.2349L38.6094 14.6311Z" fill="#FFDA44"/>
<path d="M46.088 30.2608H41.5662L39.6532 32.3477V36.5217H35.4792V34.4347H37.5662V30.2608H28.1749V32.8694H26.0879V27.8978C25.4476 27.3246 25.0445 26.492 25.0445 25.5651V11.9999C25.0445 10.2711 26.446 8.86949 28.1749 8.86949V28.1739H32.3488L33.781 26.9803C33.5308 26.3846 33.3923 25.7303 33.3923 25.0435V21.9131H30.2619V15.6522H36.5227C36.5227 14.6088 38.0879 13.5653 38.0879 13.5653C38.0879 13.5653 39.6532 14.6087 39.6532 15.6522V17.2175V21.9131C40.8141 21.9269 42.6585 21.8968 44.6512 21.9131C44.1277 20.9981 43.827 19.9124 43.827 18.7827C43.827 16.9414 44.622 15.2859 45.8875 14.1403C44.0635 10.0983 41.1529 6.65183 37.5279 4.17383H21.9141V43.826H37.528C41.936 40.8128 45.2875 36.368 46.9135 31.1613L46.088 30.2608Z" fill="#A2001D"/>
</g>
<defs>
<clipPath id="clip0_154_2108">
<rect width="48" height="48" fill="white"/>
</clipPath>
</defs>
</svg>
