<svg width="48" height="48" viewBox="0 0 48 48" fill="none" xmlns="http://www.w3.org/2000/svg">
<g clip-path="url(#clip0_154_1331)">
<path d="M0 24C0 27.7397 0.855656 31.2795 2.38144 34.4348L24 35.4783L45.6186 34.4349C47.1443 31.2795 48 27.7397 48 24C48 20.2603 47.1443 16.7205 45.6186 13.5653L24 12.5217L2.38144 13.5652C0.855656 16.7205 0 20.2603 0 24H0Z" fill="#F0F0F0"/>
<path d="M23.9994 48.0001C33.5144 48.0001 41.736 42.4627 45.618 34.4348H2.38086C6.26286 42.4627 14.4844 48.0001 23.9994 48.0001Z" fill="#6DA544"/>
<path d="M23.9994 0C14.4844 0 6.26286 5.53734 2.38086 13.5652H45.6179C41.736 5.53734 33.5144 0 23.9994 0V0Z" fill="#0052B4"/>
<path d="M25.5656 23.4784V17.7393H22.4352V23.4784L18.6543 27.2594C19.7539 29.0594 21.7368 30.261 24.0005 30.261C26.2642 30.261 28.247 29.0594 29.3467 27.2594L25.5656 23.4784Z" fill="black"/>
</g>
<defs>
<clipPath id="clip0_154_1331">
<rect width="48" height="48" fill="white"/>
</clipPath>
</defs>
</svg>
