<svg width="48" height="48" viewBox="0 0 48 48" fill="none" xmlns="http://www.w3.org/2000/svg">
<g clip-path="url(#clip0_154_1355)">
<path d="M2.38144 13.5652C0.85575 16.7205 0 20.2602 0 24C0 27.7398 0.85575 31.2795 2.38144 34.4347L24 36.5217L45.6186 34.4347C47.1442 31.2795 48 27.7398 48 24C48 20.2602 47.1442 16.7205 45.6186 13.5652L24 11.4783L2.38144 13.5652Z" fill="black"/>
<path d="M2.38281 34.4347C6.26462 42.4626 14.4855 47.9999 24.0005 47.9999C33.5155 47.9999 41.7364 42.4626 45.6182 34.4347H2.38281Z" fill="#496E2D"/>
<path d="M2.38281 13.5652H45.6182C41.7364 5.53734 33.5155 0 24.0005 0C14.4855 0 6.26462 5.53734 2.38281 13.5652Z" fill="#D80027"/>
<path d="M29.5859 19.6112L31.555 22.3248L34.7441 21.2907L32.7718 24.002L34.7407 26.7155L31.5528 25.6775L29.5805 28.3887L29.5826 25.0361L26.3945 23.9981L29.5837 22.9641L29.5859 19.6112Z" fill="#F0F0F0"/>
<path d="M24.2123 30.7826C20.4665 30.7826 17.4297 27.7459 17.4297 24C17.4297 20.2541 20.4665 17.2173 24.2123 17.2173C25.3803 17.2173 26.4793 17.5127 27.4387 18.0326C25.9335 16.5606 23.8751 15.6521 21.6036 15.6521C16.9932 15.6521 13.2559 19.3895 13.2559 23.9999C13.2559 28.6102 16.9933 32.3477 21.6036 32.3477C23.8752 32.3477 25.9336 31.4391 27.4387 29.9672C26.4792 30.4873 25.3804 30.7826 24.2123 30.7826Z" fill="#F0F0F0"/>
</g>
<defs>
<clipPath id="clip0_154_1355">
<rect width="48" height="48" fill="white"/>
</clipPath>
</defs>
</svg>
