<svg width="48" height="48" viewBox="0 0 48 48" fill="none" xmlns="http://www.w3.org/2000/svg">
<g clip-path="url(#clip0_154_1427)">
<path d="M32.347 1.49278C29.747 0.528094 26.9349 0 23.9992 0C21.0635 0 18.2514 0.528094 15.6514 1.49278L13.5645 24L15.6514 46.5072C18.2514 47.472 21.0635 48 23.9992 48C26.9349 48 29.747 47.472 32.347 46.5072L34.434 24L32.347 1.49278Z" fill="#FFDA44"/>
<path d="M47.9999 24C47.9999 13.6809 41.4869 4.88381 32.3477 1.49287V46.5074C41.4869 43.1162 47.9999 34.3192 47.9999 24V24Z" fill="#D80027"/>
<path d="M0 24C0 34.3192 6.513 43.1162 15.6522 46.5073V1.49287C6.513 4.88381 0 13.6809 0 24V24Z" fill="#6DA544"/>
</g>
<defs>
<clipPath id="clip0_154_1427">
<rect width="48" height="48" fill="white"/>
</clipPath>
</defs>
</svg>
