<svg width="48" height="48" viewBox="0 0 48 48" fill="none" xmlns="http://www.w3.org/2000/svg">
<g clip-path="url(#clip0_154_1378)">
<path d="M24 48C37.2548 48 48 37.2548 48 24C48 10.7452 37.2548 0 24 0C10.7452 0 0 10.7452 0 24C0 37.2548 10.7452 48 24 48Z" fill="#496E2D"/>
<path d="M28.1744 22.9992C27.5853 22.9992 27.026 23.1166 26.5066 23.3036C26.7912 22.6694 26.9819 21.9639 26.9819 21.2104C26.9819 18.2291 24.0006 15.993 24.0006 15.993C24.0006 15.993 21.0192 18.2291 21.0192 21.2104C21.0192 21.9638 21.21 22.6694 21.4946 23.3036C20.9751 23.1168 20.4158 22.9992 19.8267 22.9992C16.8454 22.9992 14.6094 25.9805 14.6094 25.9805C14.6094 25.9805 16.8454 28.9619 19.8267 28.9619C21.5747 28.9619 23.0655 27.9374 24.0007 27.0894C24.9358 27.9374 26.4267 28.9619 28.1746 28.9619C31.156 28.9619 33.392 25.9805 33.392 25.9805C33.392 25.9805 31.1558 22.9992 28.1744 22.9992V22.9992Z" fill="#F0F0F0"/>
<path d="M24.0013 9.39136L24.6171 11.2866H26.61L24.9979 12.4581L25.6133 14.3534L24.0013 13.1819L22.3892 14.3534L23.0046 12.4581L21.3926 11.2866H23.3854L24.0013 9.39136Z" fill="#FFDA44"/>
<path d="M16.4222 12.7063L17.607 13.773L18.9877 12.9759L18.3393 14.4323L19.524 15.4992L17.9385 15.3325L17.2901 16.7889L16.9585 15.2296L15.373 15.0629L16.7536 14.2656L16.4222 12.7063Z" fill="#FFDA44"/>
<path d="M10.875 18.2538L12.4344 18.5852L13.2316 17.2046L13.3983 18.79L14.9575 19.1217L13.5012 19.7701L13.6679 21.3554L12.6009 20.1709L11.1446 20.8193L11.9418 19.4385L10.875 18.2538Z" fill="#FFDA44"/>
<path d="M31.5783 12.7063L30.3936 13.773L29.0129 12.9759L29.6612 14.4323L28.4766 15.4992L30.0621 15.3325L30.7104 16.7889L31.0421 15.2296L32.6275 15.0629L31.247 14.2656L31.5783 12.7063Z" fill="#FFDA44"/>
<path d="M37.1255 18.2538L35.5661 18.5852L34.769 17.2046L34.6022 18.79L33.043 19.1217L34.4993 19.7702L34.3326 21.3555L35.3996 20.1709L36.8559 20.8193L36.0587 19.4386L37.1255 18.2538Z" fill="#FFDA44"/>
<path d="M23.9993 37.3099C26.3675 37.3099 28.5504 36.5197 30.3015 35.1903H17.6973C19.4483 36.5196 21.6311 37.3099 23.9993 37.3099Z" fill="#F0F0F0"/>
<path d="M14.4336 31.049C14.7648 31.807 15.1848 32.517 15.6781 33.1685H32.3204C32.8138 32.5171 33.2338 31.807 33.565 31.049H14.4336Z" fill="#F0F0F0"/>
</g>
<defs>
<clipPath id="clip0_154_1378">
<rect width="48" height="48" fill="white"/>
</clipPath>
</defs>
</svg>
