<svg width="48" height="48" viewBox="0 0 48 48" fill="none" xmlns="http://www.w3.org/2000/svg">
<g clip-path="url(#clip0_154_1696)">
<path d="M24 48C37.2548 48 48 37.2548 48 24C48 10.7452 37.2548 0 24 0C10.7452 0 0 10.7452 0 24C0 37.2548 10.7452 48 24 48Z" fill="#338AF3"/>
<path d="M23.2431 39.1115C22.5962 39.0802 22.0609 38.6597 21.8511 38.0889C21.4807 38.572 20.8442 38.8152 20.2171 38.6535C19.5888 38.4917 19.1496 37.9721 19.0588 37.3689C18.5975 37.7674 17.9255 37.8759 17.3444 37.5912C16.7621 37.3052 16.4366 36.7072 16.47 36.0989C15.9389 36.3973 15.2585 36.3681 14.7462 35.9716C14.2349 35.575 14.0356 34.9249 14.19 34.3353C13.6098 34.5211 12.9503 34.3562 12.5277 33.8647C12.1051 33.3743 12.0403 32.6971 12.3096 32.1513C11.7044 32.2159 11.0909 31.9217 10.7757 31.3562C10.4595 30.7907 10.5326 30.1135 10.9071 29.6323C10.3009 29.5739 9.75823 29.1617 9.56416 28.5439C9.36907 27.9262 9.57776 27.2772 10.0421 26.8817C9.45982 26.702 9.01319 26.1887 8.94748 25.545C8.88176 24.9012 9.21569 24.3095 9.74885 24.0152C9.2156 23.723 8.8796 23.1315 8.94326 22.4886H8.94429C9.00794 21.8437 9.45457 21.3294 10.0357 21.1477C9.57138 20.7533 9.36063 20.1053 9.55366 19.4875C9.74669 18.8687 10.2882 18.4555 10.8946 18.3949C10.5199 17.9149 10.4449 17.2376 10.7589 16.6712C11.073 16.1056 11.6866 15.8102 12.2929 15.8739C12.0215 15.3282 12.0852 14.6509 12.5068 14.1585C12.9273 13.667 13.5868 13.5011 14.168 13.6847C14.0115 13.0962 14.2098 12.4451 14.7211 12.0476C15.2314 11.6499 15.9117 11.6196 16.4428 11.916C16.4084 11.3077 16.7328 10.7097 17.3141 10.4227C17.8943 10.1368 18.5674 10.2433 19.0295 10.6418C19.1182 10.0388 19.5575 9.51709 20.1846 9.35415C20.8107 9.1914 21.4473 9.43243 21.8187 9.9145C22.0284 9.34375 22.5627 8.92215 23.2097 8.88981C23.8556 8.85653 24.4294 9.21953 24.6966 9.76543C25.0159 9.24784 25.6233 8.94109 26.2629 9.03812C26.9036 9.13412 27.3951 9.60568 27.5475 10.1954C27.9648 9.75071 28.6222 9.57446 29.2295 9.79768C29.8379 10.022 30.2239 10.5834 30.2532 11.1928C30.7509 10.8422 31.4313 10.8015 31.9812 11.1437C32.5311 11.485 32.7951 12.1121 32.7012 12.7142C33.2595 12.4711 33.9335 12.5681 34.4031 13.0126C34.8727 13.4582 35.0062 14.1249 34.7934 14.6957C35.3892 14.5694 36.03 14.799 36.4014 15.3301C36.7729 15.8601 36.7698 16.5405 36.4473 17.057C37.0557 17.0528 37.6369 17.4077 37.8947 18.0014C38.1514 18.5961 38.0104 19.263 37.59 19.7043C38.1879 19.8233 38.6856 20.2877 38.8171 20.9221C38.9475 21.5565 38.6751 22.1794 38.1754 22.527C38.7347 22.764 39.1291 23.3179 39.1301 23.9649V23.9858V23.9994C39.1301 24.6463 38.7378 25.2015 38.1784 25.4404C38.6793 25.7859 38.9538 26.4088 38.8233 27.0432C38.694 27.6776 38.1973 28.1431 37.5993 28.2641C38.0209 28.7044 38.1639 29.3702 37.9083 29.966C37.6526 30.5608 37.0714 30.9167 36.462 30.9135C36.7854 31.43 36.7907 32.1104 36.4203 32.6415C36.0498 33.1727 35.4102 33.4043 34.8143 33.2791C35.0283 33.8488 34.8957 34.5167 34.4272 34.9633C33.9576 35.409 33.2846 35.5069 32.7263 35.2659C32.8213 35.8669 32.5583 36.4952 32.0094 36.8385C31.4605 37.1818 30.7802 37.142 30.2814 36.7925C30.2532 37.4019 29.8692 37.9644 29.262 38.1898C28.6548 38.4152 29.262 38.1898 29.2609 38.1898C28.6536 38.4141 27.9963 38.2389 27.5778 37.7955C27.4276 38.3861 26.9372 38.8587 26.2965 38.9568C25.6568 39.0539 25.0485 38.7492 24.7281 38.2316C24.4735 38.7565 23.9351 39.1133 23.3215 39.1133C23.2954 39.1137 23.2693 39.1127 23.2431 39.1115V39.1115Z" fill="#F3F3F3"/>
<path d="M23.9992 34.4347C29.7622 34.4347 34.434 29.7629 34.434 23.9999C34.434 18.237 29.7622 13.5652 23.9992 13.5652C18.2362 13.5652 13.5645 18.237 13.5645 23.9999C13.5645 29.7629 18.2362 34.4347 23.9992 34.4347Z" fill="#338AF3"/>
<path d="M26.284 20.458C26.7967 20.0778 27.1304 19.47 27.1304 18.7826V17.7392C27.1304 16.5865 26.1961 15.6522 25.0435 15.6522H22.9566C21.8039 15.6522 20.8696 16.5865 20.8696 17.7392V18.7826C20.8696 19.47 21.2034 20.0778 21.716 20.458L19.8262 39.6521C19.8262 39.6521 20.8696 40.6958 24.0001 40.6958C27.1306 40.6958 28.174 39.6521 28.174 39.6521L26.284 20.458Z" fill="#BDBCC1"/>
<path d="M24.0005 15.6521L25.8134 21.2319H31.6808L26.9342 24.6808L28.7471 30.2608L24.0005 26.8122L19.2538 30.2608L21.067 24.6808L16.3203 21.2319H22.1875L24.0005 15.6521Z" fill="#F0F0F0"/>
</g>
<defs>
<clipPath id="clip0_154_1696">
<rect width="48" height="48" fill="white"/>
</clipPath>
</defs>
</svg>
