<svg width="48" height="48" viewBox="0 0 48 48" fill="none" xmlns="http://www.w3.org/2000/svg">
<g clip-path="url(#clip0_154_1443)">
<path d="M24 48C37.2548 48 48 37.2548 48 24C48 10.7452 37.2548 0 24 0C10.7452 0 0 10.7452 0 24C0 37.2548 10.7452 48 24 48Z" fill="#F0F0F0"/>
<path d="M47.7948 20.8695C47.1327 15.8083 44.8593 10.9177 40.971 7.02944C37.0827 3.14116 32.192 0.867629 27.1309 0.205566L27.131 20.8695H47.7948Z" fill="#0052B4"/>
<path d="M20.869 0.205566C15.8078 0.867629 10.9171 3.14107 7.02886 7.02935C3.14067 10.9177 0.867141 15.8084 0.205078 20.8697L20.8691 20.8696L20.869 0.205566Z" fill="#0052B4"/>
<path d="M0.205078 27.1305C0.867141 32.1917 3.14067 37.0824 7.02886 40.9706C10.9171 44.8588 15.8077 47.1322 20.8691 47.7946L20.869 27.1307L0.205078 27.1305Z" fill="#0052B4"/>
<path d="M27.1309 47.7943C32.192 47.1322 37.0826 44.8588 40.9709 40.9705C44.8592 37.0822 47.1326 32.1917 47.7947 27.1305H27.1309V47.7943Z" fill="#0052B4"/>
<path d="M32.1941 15.2286C32.1941 14.9094 32.4535 14.65 32.7727 14.65H34.0125C35.9722 14.65 37.5666 13.0557 37.5666 11.0961C37.5666 9.13641 35.9723 7.542 34.0125 7.542H32.8352C32.4509 7.25335 31.9353 7.07532 31.3667 7.07532C30.1804 7.07532 29.2188 7.84454 29.2188 8.79347C29.2188 9.73322 30.1621 10.4956 31.3324 10.5104L31.3319 10.5173H34.0125C34.3317 10.5173 34.5911 10.7768 34.5911 11.0959C34.5911 11.415 34.3317 11.6744 34.0125 11.6744H32.7727C30.813 11.6744 29.2188 13.2687 29.2188 15.2284C29.2188 17.188 30.8129 18.7824 32.7727 18.7824H37.5665V15.807H32.7727C32.4535 15.8071 32.1941 15.5477 32.1941 15.2286V15.2286Z" fill="#F0F0F0"/>
<path d="M13.4108 15.2286C13.4108 14.9094 13.6702 14.65 13.9894 14.65H15.2292C17.1889 14.65 18.7833 13.0557 18.7833 11.0961C18.7833 9.13641 17.189 7.542 15.2292 7.542H14.0519C13.6676 7.25335 13.152 7.07532 12.5834 7.07532C11.3971 7.07532 10.4355 7.84454 10.4355 8.79347C10.4355 9.73322 11.3788 10.4956 12.5491 10.5104L12.5486 10.5173H15.2293C15.5485 10.5173 15.8079 10.7768 15.8079 11.0959C15.8079 11.415 15.5485 11.6744 15.2293 11.6744H13.9895C12.0298 11.6744 10.4355 13.2687 10.4355 15.2284C10.4355 17.188 12.0297 18.7824 13.9895 18.7824H18.7832V15.807H13.9894C13.6702 15.8071 13.4108 15.5477 13.4108 15.2286V15.2286Z" fill="#F0F0F0"/>
<path d="M32.1942 37.3707C32.1942 37.0515 32.4536 36.7921 32.7728 36.7921H34.0126C35.9723 36.7921 37.5667 35.1978 37.5667 33.2382C37.5667 31.2785 35.9724 29.6841 34.0126 29.6841H32.8352C32.451 29.3954 31.9354 29.2174 31.3667 29.2174C30.1804 29.2174 29.2188 29.9867 29.2188 30.9356C29.2188 31.8753 30.1621 32.6377 31.3324 32.6525L31.3319 32.6593H34.0125C34.3317 32.6593 34.5911 32.9188 34.5911 33.238C34.5911 33.5571 34.3317 33.8165 34.0125 33.8165H32.7727C30.813 33.8165 29.2188 35.4108 29.2188 37.3705C29.2188 39.3301 30.8129 40.9245 32.7727 40.9245H37.5666V37.9492H32.7728C32.4536 37.9493 32.1942 37.6897 32.1942 37.3707V37.3707Z" fill="#F0F0F0"/>
<path d="M13.4109 37.3706C13.4109 37.0515 13.6703 36.7921 13.9895 36.7921H15.2293C17.189 36.7921 18.7834 35.1978 18.7834 33.2381C18.7834 31.2785 17.1891 29.6841 15.2293 29.6841H14.052C13.6677 29.3954 13.1521 29.2174 12.5835 29.2174C11.3971 29.2174 10.4355 29.9867 10.4355 30.9355C10.4355 31.8753 11.3788 32.6377 12.5491 32.6525L12.5486 32.6593H15.2293C15.5485 32.6593 15.8079 32.9188 15.8079 33.2379C15.8079 33.5571 15.5485 33.8165 15.2293 33.8165H13.9895C12.0298 33.8165 10.4355 35.4108 10.4355 37.3704C10.4355 39.3301 12.0297 40.9245 13.9895 40.9245H18.7833V37.9492H13.9895C13.6703 37.9492 13.4109 37.6897 13.4109 37.3706Z" fill="#F0F0F0"/>
</g>
<defs>
<clipPath id="clip0_154_1443">
<rect width="48" height="48" fill="white"/>
</clipPath>
</defs>
</svg>
