<svg width="48" height="48" viewBox="0 0 48 48" fill="none" xmlns="http://www.w3.org/2000/svg">
<g clip-path="url(#clip0_154_1456)">
<path d="M24 48C37.2548 48 48 37.2548 48 24C48 10.7452 37.2548 0 24 0C10.7452 0 0 10.7452 0 24C0 37.2548 10.7452 48 24 48Z" fill="#496E2D"/>
<path d="M24.0001 27.7267C20.0039 27.7267 16.6655 24.9181 15.8464 21.1676C15.7206 21.7442 15.6523 22.342 15.6523 22.9565C15.6523 27.567 19.3897 31.3042 24.0001 31.3042C28.6106 31.3042 32.3479 27.5669 32.3479 22.9565C32.3479 22.342 32.2797 21.7442 32.1538 21.1675C31.3347 24.9182 27.9963 27.7267 24.0001 27.7267Z" fill="#FFDA44"/>
<path d="M24.0005 16.6956L24.7775 19.0871H27.2921L25.2578 20.5651L26.0348 22.9566L24.0005 21.4785L21.9662 22.9566L22.7433 20.5651L20.709 19.0871H23.2235L24.0005 16.6956Z" fill="#FFDA44"/>
</g>
<defs>
<clipPath id="clip0_154_1456">
<rect width="48" height="48" fill="white"/>
</clipPath>
</defs>
</svg>
