<svg width="48" height="48" viewBox="0 0 48 48" fill="none" xmlns="http://www.w3.org/2000/svg">
<g clip-path="url(#clip0_154_1422)">
<path d="M24 48C37.2548 48 48 37.2548 48 24C48 10.7452 37.2548 0 24 0C10.7452 0 0 10.7452 0 24C0 37.2548 10.7452 48 24 48Z" fill="#D80027"/>
<path d="M8.34766 12.5217H39.652V35.4783H8.34766V12.5217Z" fill="#6DA544"/>
<path d="M27.8647 30.7826C24.1188 30.7826 21.082 27.7459 21.082 24C21.082 20.2541 24.1188 17.2173 27.8647 17.2173C29.0326 17.2173 30.1316 17.5127 31.0911 18.0326C29.5859 16.5606 27.5276 15.6521 25.256 15.6521C20.6457 15.6521 16.9082 19.3895 16.9082 23.9999C16.9082 28.6102 20.6457 32.3477 25.256 32.3477C27.5276 32.3477 29.586 31.4391 31.0911 29.9672C30.1316 30.4873 29.0326 30.7826 27.8647 30.7826Z" fill="#F0F0F0"/>
</g>
<defs>
<clipPath id="clip0_154_1422">
<rect width="48" height="48" fill="white"/>
</clipPath>
</defs>
</svg>
