<svg width="48" height="48" viewBox="0 0 48 48" fill="none" xmlns="http://www.w3.org/2000/svg">
<g clip-path="url(#clip0_154_1404)">
<path d="M0 24C0 26.9357 0.528094 29.7478 1.49278 32.3478L24 33.3913L46.5072 32.3479C47.472 29.7478 48 26.9357 48 24C48 21.0643 47.472 18.2522 46.5072 15.6522L24 14.6087L1.49278 15.6521C0.528094 18.2522 0 21.0643 0 24H0Z" fill="#D80027"/>
<path d="M23.9994 0C13.6802 0 4.88322 6.513 1.49219 15.6522H46.5067C43.1156 6.513 34.3186 0 23.9994 0V0Z" fill="black"/>
<path d="M46.5066 32.3478H1.49219C4.88322 41.4869 13.6802 48 23.9994 48C34.3186 48 43.1156 41.4869 46.5066 32.3478Z" fill="#496E2D"/>
<path d="M31.1727 11.4783L28.2417 10.0996L29.8026 7.26095L26.6198 7.86986L26.2165 4.65442L23.9995 7.01926L21.7825 4.65442L21.3791 7.86986L18.1964 7.26095L19.7573 10.0996L16.8262 11.4783H31.1727Z" fill="#D80027"/>
</g>
<defs>
<clipPath id="clip0_154_1404">
<rect width="48" height="48" fill="white"/>
</clipPath>
</defs>
</svg>
