<svg width="48" height="48" viewBox="0 0 48 48" fill="none" xmlns="http://www.w3.org/2000/svg">
<g clip-path="url(#clip0_154_1488)">
<path d="M24 48C37.2548 48 48 37.2548 48 24C48 10.7452 37.2548 0 24 0C10.7452 0 0 10.7452 0 24C0 37.2548 10.7452 48 24 48Z" fill="#F0F0F0"/>
<path d="M48.0008 24C48.0008 14.485 42.4635 6.26347 34.4355 2.38147V45.6185C42.4635 41.7366 48.0008 33.5151 48.0008 24V24Z" fill="#D80027"/>
<path d="M0 24C0 33.5151 5.53734 41.7366 13.5652 45.6186V2.38144C5.53734 6.26344 0 14.4849 0 24Z" fill="#6DA544"/>
<path d="M17.7383 24C17.7383 27.4578 20.5414 30.2609 23.9992 30.2609C27.457 30.2609 30.2601 27.4578 30.2601 24V21.9131H17.7383V24Z" fill="#6DA544"/>
<path d="M32.3481 19.8261H26.0872C26.0872 18.6735 25.1528 17.7391 24.0002 17.7391C22.8477 17.7391 21.9133 18.6735 21.9133 19.8261H15.6523C15.6523 20.9788 16.6563 21.9131 17.8088 21.9131H17.7393C17.7393 23.0657 18.6736 24 19.8263 24C19.8263 25.1527 20.7606 26.087 21.9133 26.087H26.0872C27.2398 26.087 28.1742 25.1527 28.1742 24C29.3268 24 30.2611 23.0657 30.2611 21.9131H30.1916C31.3442 21.9131 32.3481 20.9788 32.3481 19.8261Z" fill="#FF9811"/>
</g>
<defs>
<clipPath id="clip0_154_1488">
<rect width="48" height="48" fill="white"/>
</clipPath>
</defs>
</svg>
