<svg width="48" height="48" viewBox="0 0 48 48" fill="none" xmlns="http://www.w3.org/2000/svg">
<g clip-path="url(#clip0_154_1601)">
<path d="M24 48C37.2548 48 48 37.2548 48 24C48 10.7452 37.2548 0 24 0C10.7452 0 0 10.7452 0 24C0 37.2548 10.7452 48 24 48Z" fill="#F0F0F0"/>
<path d="M47.86 26.6087L47.8595 26.6079L47.8594 26.6087H47.86Z" fill="#0052B4"/>
<path d="M47.8584 26.6087C47.8584 26.6085 47.8585 26.6083 47.8585 26.6079L21.5387 0.124786C20.3513 0.245818 19.1895 0.45338 18.0597 0.741099C7.67794 3.38438 0 24 0 24C0 24 33.5998 46.4845 37.433 43.8904C38.1999 43.3714 38.9353 42.8092 39.6354 42.2073L24.037 26.6087H47.8584Z" fill="#0052B4"/>
<path d="M41.7391 24L18.398 0.658966C7.84575 3.18243 0 12.6742 0 24C0 37.2547 10.7452 48 24 48C29.0277 48 33.6935 46.4529 37.5496 43.8104L17.7391 24H41.7391Z" fill="#D80027"/>
<path d="M22.8252 35.437L19.8941 34.0583L21.4549 31.2196L18.2721 31.8285L17.8688 28.6131L15.6519 30.9779L13.435 28.6131L13.0316 31.8285L9.84886 31.2195L11.4097 34.0583L8.47852 35.437L11.4097 36.8156L9.84886 39.6543L13.0318 39.0455L13.4349 42.2608L15.6519 39.8959L17.8688 42.2608L18.2721 39.0455L21.4548 39.6544L19.894 36.8158L22.8252 35.437Z" fill="#F0F0F0"/>
<path d="M20.8684 13.311L18.7366 12.3084L19.8718 10.2437L17.5568 10.6866L17.2635 8.3479L15.6511 10.0679L14.0387 8.3479L13.7452 10.6866L11.4302 10.2437L12.5656 12.3084L10.4336 13.311L15.6511 14.3547L20.8684 13.311Z" fill="#F0F0F0"/>
<path d="M21.9124 13.311C21.9124 16.7688 19.1093 19.5719 15.6515 19.5719C12.1937 19.5719 9.39062 16.7688 9.39062 13.311" fill="#F0F0F0"/>
</g>
<defs>
<clipPath id="clip0_154_1601">
<rect width="48" height="48" fill="white"/>
</clipPath>
</defs>
</svg>
