<svg width="48" height="48" viewBox="0 0 48 48" fill="none" xmlns="http://www.w3.org/2000/svg">
<g clip-path="url(#clip0_154_1593)">
<path d="M24 48C37.2548 48 48 37.2548 48 24C48 10.7452 37.2548 0 24 0C10.7452 0 0 10.7452 0 24C0 37.2548 10.7452 48 24 48Z" fill="#0052B4"/>
<path d="M24 48C37.2548 48 48 37.2548 48 24C48 10.7452 37.2548 0 24 0C10.7452 0 0 10.7452 0 24C0 37.2548 10.7452 48 24 48Z" fill="#FFDA44"/>
<path d="M24.0004 0C11.4488 0 1.14958 9.63572 0.0917969 21.913H47.9091C46.8512 9.63572 36.552 0 24.0004 0V0Z" fill="#0052B4"/>
<path d="M24.0004 48C36.552 48 46.8512 38.3643 47.9091 26.087H0.0917969C1.14958 38.3643 11.4488 48 24.0004 48Z" fill="#0052B4"/>
<path d="M19.8253 32.3477L17.136 33.6128L18.568 36.2173L15.6478 35.6586L15.2777 38.6086L13.2436 36.439L11.2096 38.6086L10.8396 35.6586L7.9193 36.2172L9.35142 33.6127L6.66211 32.3477L9.35152 31.0828L7.9193 28.4784L10.8395 29.0369L11.2097 26.0869L13.2436 28.2566L15.2778 26.0869L15.6478 29.0369L18.5681 28.4784L17.136 31.0829L19.8253 32.3477Z" fill="#F0F0F0"/>
</g>
<defs>
<clipPath id="clip0_154_1593">
<rect width="48" height="48" fill="white"/>
</clipPath>
</defs>
</svg>
