<svg width="48" height="48" viewBox="0 0 48 48" fill="none" xmlns="http://www.w3.org/2000/svg">
<g clip-path="url(#clip0_154_1617)">
<path d="M48 24C48 37.2548 37.2548 48 24 48C10.7452 48 0 37.2548 0 24C0 24.0057 24 0.002625 24 0C37.2548 0 48 10.7452 48 24Z" fill="#0052B4"/>
<path d="M23.9355 24H23.9998C23.9998 23.9784 23.9998 23.9574 23.9998 23.9358C23.9784 23.9573 23.957 23.9786 23.9355 24Z" fill="#F0F0F0"/>
<path d="M24 12.5217C24 8.29875 24 5.53172 24 0H23.996C10.743 0.00225 0 10.7465 0 24H12.5217V16.949L19.5728 24H23.9359C23.9572 23.9786 23.9787 23.9573 24.0001 23.9358C24.0001 22.3189 24.0001 20.8762 24.0001 19.5729L16.9489 12.5217H24Z" fill="#F0F0F0"/>
<path d="M12.1425 3.13037C8.38883 5.26778 5.26827 8.38834 3.13086 12.142V24H9.39177V9.39147V9.39128H24.0005C24.0005 7.41662 24.0005 5.53543 24.0005 3.13037H12.1425Z" fill="#D80027"/>
<path d="M23.9997 21.0486L15.4728 12.5217C15.4728 12.5217 12.5215 12.5219 12.5215 12.5217V12.5219L23.9996 23.9999H23.9997C23.9997 23.9999 23.9997 21.9649 23.9997 21.0486Z" fill="#D80027"/>
<path d="M41.5617 17.8086L42.0797 19.4029H43.756L42.3998 20.3882L42.9179 21.9824L41.5617 20.9972L40.2054 21.9824L40.7235 20.3882L39.3672 19.4029H41.0435L41.5617 17.8086Z" fill="#D80027"/>
<path d="M35.5709 29.2869L36.348 31.6784H38.8624L36.828 33.1563L37.6052 35.5478L35.5709 34.0698L33.5365 35.5478L34.3137 33.1563L32.2793 31.6784H34.7938L35.5709 29.2869Z" fill="#D80027"/>
<path d="M35.7956 10.5044L36.4432 12.4974H38.5386L36.8432 13.7288L37.4909 15.7218L35.7956 14.49L34.1004 15.7218L34.7479 13.7288L33.0527 12.4974H35.148L35.7956 10.5044Z" fill="#D80027"/>
<path d="M30.0298 17.739L30.8068 20.1306H33.3214L31.287 21.6085L32.0642 23.9999L30.0298 22.522L27.9955 23.9999L28.7727 21.6085L26.7383 20.1306H29.2527L30.0298 17.739Z" fill="#D80027"/>
</g>
<defs>
<clipPath id="clip0_154_1617">
<rect width="48" height="48" fill="white"/>
</clipPath>
</defs>
</svg>
