<svg width="48" height="48" viewBox="0 0 48 48" fill="none" xmlns="http://www.w3.org/2000/svg">
<g clip-path="url(#clip0_154_1712)">
<path d="M24 48C37.2548 48 48 37.2548 48 24C48 10.7452 37.2548 0 24 0C10.7452 0 0 10.7452 0 24C0 37.2548 10.7452 48 24 48Z" fill="#F0F0F0"/>
<path d="M0 24C0 33.097 5.06156 41.0114 12.5217 45.0818V2.91815C5.06156 6.98859 0 14.903 0 24Z" fill="#D80027"/>
<path d="M46.5073 32.3478C47.472 29.7478 48 26.9357 48 24C48 21.0643 47.472 18.2521 46.5073 15.6522H1.49287C0.528094 18.2521 0 21.0643 0 24C0 26.9357 0.528094 29.7478 1.49287 32.3478L24 34.4348L46.5073 32.3478Z" fill="#D80027"/>
<path d="M23.9993 48.0001C34.3186 48.0001 43.1155 41.4871 46.5066 32.3479H1.49219C4.88312 41.4871 13.6802 48.0001 23.9993 48.0001V48.0001Z" fill="#6DA544"/>
<path d="M0 24C0 35.0887 7.52072 44.4192 17.7391 47.1732V0.826782C7.52072 3.58078 0 12.9113 0 24Z" fill="#D80027"/>
<path d="M14.6832 10.5614L12.4697 8.3479L10.994 9.82371L9.51841 8.3479L7.30487 10.5614L8.78059 12.0372L7.30469 13.513L9.51822 15.7265L10.9939 14.2507L12.4697 15.7265L14.6832 13.513L13.2075 12.0372L14.6832 10.5614Z" fill="#F0F0F0"/>
</g>
<defs>
<clipPath id="clip0_154_1712">
<rect width="48" height="48" fill="white"/>
</clipPath>
</defs>
</svg>
