<svg width="48" height="48" viewBox="0 0 48 48" fill="none" xmlns="http://www.w3.org/2000/svg">
<g clip-path="url(#clip0_154_1754)">
<path d="M24 48C37.2548 48 48 37.2548 48 24C48 10.7452 37.2548 0 24 0C10.7452 0 0 10.7452 0 24C0 37.2548 10.7452 48 24 48Z" fill="#F0F0F0"/>
<path d="M0 24C0 37.2548 10.7452 48 24 48C24 38.873 24 24 24 24C24 24 8.34778 24 0 24Z" fill="#0052B4"/>
<path d="M24 0C37.2548 0 48 10.7452 48 24C38.873 24 24 24 24 24C24 24 24 8.34778 24 0Z" fill="#D80027"/>
<path d="M14.2863 8.34778L15.8403 13.1307H20.8694L16.8008 16.0867L18.3548 20.8696L14.2863 17.9136L10.2177 20.8696L11.7717 16.0867L7.70312 13.1307H12.7322L14.2863 8.34778Z" fill="#0052B4"/>
<path d="M33.714 27.1304L35.2681 31.9133H40.2971L36.2285 34.8692L37.7825 39.6522L33.714 36.6962L29.6454 39.6522L31.1994 34.8692L27.1309 31.9133H32.1599L33.714 27.1304Z" fill="#D80027"/>
</g>
<defs>
<clipPath id="clip0_154_1754">
<rect width="48" height="48" fill="white"/>
</clipPath>
</defs>
</svg>
