<svg width="48" height="48" viewBox="0 0 48 48" fill="none" xmlns="http://www.w3.org/2000/svg">
<g clip-path="url(#clip0_154_1761)">
<path d="M40.9707 40.9705C31.5981 50.3431 16.4022 50.3431 7.02941 40.9705C-2.34315 31.598 -2.34315 16.4019 7.0295 7.02928C16.4021 -2.34329 30.1223 -0.867567 39.4948 8.50509C48.8673 17.8777 50.3431 31.598 40.9707 40.9705V40.9705Z" fill="black"/>
<path d="M7.0293 7.0294C16.4019 -2.34316 31.5977 -2.34297 40.9705 7.02949C50.343 16.4021 50.343 31.598 40.9705 40.9707" fill="#A2001D"/>
<path d="M18.343 32.3479L18.7315 33.5437H19.9888L18.9716 34.2826L19.3602 35.4784L18.343 34.7394L17.3259 35.4784L17.7144 34.2826L16.6973 33.5437H17.9545L18.343 32.3479Z" fill="#F0F0F0"/>
<path d="M15.1316 20.8696L15.7793 22.8626H17.8746L16.1794 24.0942L16.8269 26.0871L15.1316 24.8553L13.4364 26.0871L14.084 24.0942L12.3887 22.8626H14.4842L15.1316 20.8696Z" fill="#F0F0F0"/>
<path d="M15.1316 35.4785L15.7791 37.4715H17.8746L16.1792 38.703L16.8269 40.6959L15.1316 39.4641L13.4364 40.6959L14.0839 38.703L12.3887 37.4715H14.4839L15.1316 35.4785Z" fill="#F0F0F0"/>
<path d="M21.2585 26.0872L21.9062 28.0801H24.0015L22.3062 29.3116L22.9538 31.3045L21.2585 30.0728L19.5633 31.3045L20.2109 29.3116L18.5156 28.0801H20.611L21.2585 26.0872Z" fill="#F0F0F0"/>
<path d="M9.00466 26.0871L9.65238 28.08H11.7476L10.0524 29.3115L10.6998 31.3045L9.00466 30.0727L7.30938 31.3045L7.95709 29.3115L6.26172 28.08H8.35713L9.00466 26.0871Z" fill="#F0F0F0"/>
<path d="M40.1758 17.7713C39.1032 16.6987 37.7095 16.065 36.2118 15.9562L40.695 12.4693C38.9095 10.6838 36.5164 9.87751 34.1813 10.048C33.9017 9.04341 33.3688 8.09447 32.5787 7.30444L30.8079 10.8461C30.6917 10.6344 30.5446 10.4352 30.3652 10.2559C29.3463 9.2371 27.6946 9.2371 26.676 10.2559C25.6573 11.2747 25.6571 12.9263 26.676 13.9451C26.8553 14.1245 27.0546 14.2716 27.2663 14.3878L23.7246 16.1587C24.5148 16.949 25.4644 17.4823 26.4696 17.7617C26.2985 20.0968 27.104 22.4895 28.8896 24.2751L32.8065 19.239C33.1011 18.9488 33.4903 18.7886 33.9043 18.7886C34.3224 18.7886 34.7154 18.9514 35.011 19.2472C35.3067 19.5428 35.4695 19.9358 35.4695 20.3539C35.4695 20.772 35.3067 21.165 35.011 21.4607L36.4868 22.9365C37.1765 22.2467 37.5565 21.3295 37.5565 20.354C37.5565 19.5558 37.3019 18.797 36.8318 18.1696C37.5167 18.3525 38.1641 18.7108 38.7003 19.2472C40.3278 20.8746 40.3278 23.5226 38.7003 25.1499L40.1761 26.6258C41.3586 25.4432 42.0099 23.871 42.0099 22.1986C42.0096 20.526 41.3582 18.9538 40.1758 17.7713V17.7713Z" fill="#FFDA44"/>
</g>
<defs>
<clipPath id="clip0_154_1761">
<rect width="48" height="48" fill="white"/>
</clipPath>
</defs>
</svg>
