<svg width="48" height="48" viewBox="0 0 48 48" fill="none" xmlns="http://www.w3.org/2000/svg">
<g clip-path="url(#clip0_154_1735)">
<path d="M24 48C37.2548 48 48 37.2548 48 24C48 10.7452 37.2548 0 24 0C10.7452 0 0 10.7452 0 24C0 37.2548 10.7452 48 24 48Z" fill="#F0F0F0"/>
<path d="M0 24C0 33.097 5.06147 41.0113 12.5217 45.0818V2.91815C5.06147 6.98868 0 14.903 0 24Z" fill="#F0F0F0"/>
<path d="M23.9998 0C19.842 0 15.9313 1.05778 12.5215 2.91816V45.0818C15.9313 46.9422 19.842 48 23.9998 48C37.2545 48 47.9998 37.2548 47.9998 24C47.9998 10.7452 37.2545 0 23.9998 0Z" fill="#496E2D"/>
<path d="M34.2614 27.9691C31.2251 30.1629 26.9852 29.48 24.7914 26.4439C22.5975 23.4075 23.2805 19.1676 26.3167 16.9739C27.2634 16.2899 28.3271 15.8855 29.4093 15.745C27.3274 15.4337 25.1266 15.9028 23.2856 17.233C19.5487 19.9332 18.7081 25.1514 21.4082 28.8885C24.1083 32.6253 29.3266 33.466 33.0636 30.7656C34.9048 29.4354 36.0411 27.4936 36.3991 25.419C35.926 26.402 35.2082 27.285 34.2614 27.9691V27.9691Z" fill="#F0F0F0"/>
<path d="M34.1318 15.6524L35.8422 17.4956L38.1237 16.4389L36.899 18.6349L38.6093 20.4783L36.1422 19.9922L34.9176 22.1884L34.6175 19.6918L32.1504 19.2057L34.432 18.149L34.1318 15.6524Z" fill="#F0F0F0"/>
</g>
<defs>
<clipPath id="clip0_154_1735">
<rect width="48" height="48" fill="white"/>
</clipPath>
</defs>
</svg>
