<svg width="48" height="48" viewBox="0 0 48 48" fill="none" xmlns="http://www.w3.org/2000/svg">
<g clip-path="url(#clip0_154_1813)">
<path d="M0 24C0 34.3191 6.513 43.1161 15.652 46.5071L17.7391 23.9999L15.652 1.4928C6.513 4.88392 0 13.6809 0 24Z" fill="#6DA544"/>
<path d="M48.0003 24C48.0003 10.7452 37.2551 0 24.0003 0C21.0646 0 18.2524 0.528094 15.6523 1.49278V46.5072C18.2524 47.472 21.0646 48 24.0003 48C37.2551 48 48.0003 37.2548 48.0003 24Z" fill="#D80027"/>
<path d="M15.6525 32.3477C20.2628 32.3477 24.0002 28.6102 24.0002 23.9999C24.0002 19.3895 20.2628 15.6521 15.6525 15.6521C11.0421 15.6521 7.30469 19.3895 7.30469 23.9999C7.30469 28.6102 11.0421 32.3477 15.6525 32.3477Z" fill="#FFDA44"/>
<path d="M10.957 19.8262V25.0435C10.957 27.6369 13.0593 29.7392 15.6527 29.7392C18.2461 29.7392 20.3483 27.637 20.3483 25.0435V19.8262H10.957Z" fill="#D80027"/>
<path d="M15.6531 26.6087C14.7901 26.6087 14.0879 25.9065 14.0879 25.0434V22.9565H17.2183V25.0435C17.2183 25.9065 16.5161 26.6087 15.6531 26.6087Z" fill="#F0F0F0"/>
</g>
<defs>
<clipPath id="clip0_154_1813">
<rect width="48" height="48" fill="white"/>
</clipPath>
</defs>
</svg>
