<svg width="48" height="49" viewBox="0 0 48 49" fill="none" xmlns="http://www.w3.org/2000/svg">
<g clip-path="url(#clip0_154_1960)">
<path d="M24 48.0107C37.2548 48.0107 48 37.2656 48 24.0107C48 10.7559 37.2548 0.0107422 24 0.0107422C10.7452 0.0107422 0 10.7559 0 24.0107C0 37.2656 10.7452 48.0107 24 48.0107Z" fill="#F0F0F0"/>
<path d="M24 0.0107422C10.7452 0.0107422 0 10.756 0 24.0107C0 26.9464 0.528094 29.7586 1.49278 32.3585H46.5073C47.472 29.7586 48 26.9464 48 24.0107C48 10.756 37.2548 0.0107422 24 0.0107422Z" fill="#0052B4"/>
<path d="M23.9994 0.0107422C13.6802 0.0107422 4.88322 6.52374 1.49219 15.663H46.5067C43.1156 6.52374 34.3186 0.0107422 23.9994 0.0107422V0.0107422Z" fill="#D80027"/>
<path d="M6.20508 13.5759V25.5484C6.20508 32.3587 15.102 34.4455 15.102 34.4455C15.102 34.4455 23.9989 32.3587 23.9989 25.5484V13.5759H6.20508Z" fill="#D80027"/>
<path d="M9.88477 15.6629H20.3196V11.489L18.2326 12.5324L15.1022 9.40204L11.9717 12.5324L9.88477 11.489V15.6629Z" fill="#FFDA44"/>
<path d="M21.9129 27.2154L15.1303 20.4327L8.34766 27.2154L10.5612 29.4289L15.1303 24.8598L19.6994 29.4289L21.9129 27.2154Z" fill="#FFDA44"/>
<path d="M21.9129 20.8803H18.7483C18.9262 20.5732 19.0297 20.2175 19.0297 19.8371C19.0297 18.6843 18.0953 17.7501 16.9427 17.7501C16.1463 17.7501 15.4547 18.1962 15.1029 18.852C14.7511 18.1963 14.0595 17.7501 13.2631 17.7501C12.1105 17.7501 11.1761 18.6843 11.1761 19.8371C11.1761 20.2175 11.2796 20.5733 11.4575 20.8803H8.34766C8.34766 22.033 9.35162 22.9673 10.5041 22.9673H10.4346C10.4346 24.12 11.3689 25.0543 12.5216 25.0543C12.5216 26.0748 13.2545 26.9227 14.2225 27.1042L12.5781 30.8169C13.3662 31.1372 14.2274 31.3152 15.1304 31.3152C16.0334 31.3152 16.8946 31.1372 17.6826 30.8169L16.0383 27.1042C17.0062 26.9229 17.7392 26.0749 17.7392 25.0543C18.8918 25.0543 19.8261 24.12 19.8261 22.9673H19.7567C20.909 22.9673 21.9129 22.0329 21.9129 20.8803V20.8803Z" fill="#F0F0F0"/>
</g>
<defs>
<clipPath id="clip0_154_1960">
<rect width="48" height="48" fill="white" transform="translate(0 0.0107422)"/>
</clipPath>
</defs>
</svg>
