<svg width="48" height="49" viewBox="0 0 48 49" fill="none" xmlns="http://www.w3.org/2000/svg">
<g clip-path="url(#clip0_154_1861)">
<path d="M24 48.0107C37.2548 48.0107 48 37.2656 48 24.0107C48 10.7559 37.2548 0.0107422 24 0.0107422C10.7452 0.0107422 0 10.7559 0 24.0107C0 37.2656 10.7452 48.0107 24 48.0107Z" fill="#F0F0F0"/>
<path d="M46.5072 32.3585C47.472 29.7586 48 26.9464 48 24.0107C48 21.0751 47.472 18.2629 46.5072 15.663H1.49278C0.528094 18.2629 0 21.0751 0 24.0107C0 26.9464 0.528094 29.7586 1.49278 32.3585L24 34.4455L46.5072 32.3585Z" fill="#0052B4"/>
<path d="M23.9994 48.0109C34.3186 48.0109 43.1156 41.4979 46.5066 32.3586H1.49219C4.88322 41.4979 13.6802 48.0109 23.9994 48.0109Z" fill="#D80027"/>
</g>
<defs>
<clipPath id="clip0_154_1861">
<rect width="48" height="48" fill="white" transform="translate(0 0.0107422)"/>
</clipPath>
</defs>
</svg>
