<svg width="48" height="49" viewBox="0 0 48 49" fill="none" xmlns="http://www.w3.org/2000/svg">
<g clip-path="url(#clip0_154_1935)">
<path d="M24 48.0107C37.2548 48.0107 48 37.2656 48 24.0107C48 10.7559 37.2548 0.0107422 24 0.0107422C10.7452 0.0107422 0 10.7559 0 24.0107C0 37.2656 10.7452 48.0107 24 48.0107Z" fill="#6DA544"/>
<path d="M13.5645 28.7065C13.5645 30.4354 14.966 31.8369 16.6949 31.8369H26.0862C26.0862 33.2777 27.2541 34.4456 28.6949 34.4456H31.8253C33.266 34.4456 34.434 33.2777 34.434 31.8369V28.7065H13.5645Z" fill="#F0F0F0"/>
<path d="M34.6963 13.5759V20.8803C34.6963 22.0311 33.7602 22.9672 32.6094 22.9672V26.0976C35.4863 26.0976 37.8268 23.7571 37.8268 20.8803V13.5759H34.6963Z" fill="#F0F0F0"/>
<path d="M12.2608 20.8804C12.2608 22.0312 11.3246 22.9674 10.1738 22.9674V26.0978C13.0507 26.0978 15.3912 23.7572 15.3912 20.8804V13.576H12.2608V20.8804Z" fill="#F0F0F0"/>
<path d="M30 13.576H33.1304V20.8804H30V13.576Z" fill="#F0F0F0"/>
<path d="M25.3048 17.7499C25.3048 18.0376 25.0707 18.2716 24.7831 18.2716C24.4955 18.2716 24.2614 18.0375 24.2614 17.7499V13.5759H21.131V17.7499C21.131 18.0376 20.8969 18.2716 20.6093 18.2716C20.3216 18.2716 20.0875 18.0375 20.0875 17.7499V13.5759H16.957V17.7499C16.957 19.7637 18.5954 21.4021 20.6093 21.4021C21.3848 21.4021 22.1041 21.1583 22.6962 20.7443C23.2883 21.1582 24.0076 21.4021 24.7832 21.4021C24.9394 21.4021 25.0929 21.3911 25.244 21.3719C25.0222 22.2859 24.199 22.9672 23.2179 22.9672V26.0976C26.0948 26.0976 28.4353 23.7571 28.4353 20.8803V17.7499V13.5759H25.3049V17.7499H25.3048Z" fill="#F0F0F0"/>
<path d="M16.957 22.9673H21.6527V26.0977H16.957V22.9673Z" fill="#F0F0F0"/>
</g>
<defs>
<clipPath id="clip0_154_1935">
<rect width="48" height="48" fill="white" transform="translate(0 0.0107422)"/>
</clipPath>
</defs>
</svg>
