<svg width="48" height="49" viewBox="0 0 48 49" fill="none" xmlns="http://www.w3.org/2000/svg">
<g clip-path="url(#clip0_154_1971)">
<path d="M24 48.0107C37.2548 48.0107 48 37.2656 48 24.0107C48 10.7559 37.2548 0.0107422 24 0.0107422C10.7452 0.0107422 0 10.7559 0 24.0107C0 37.2656 10.7452 48.0107 24 48.0107Z" fill="#F0F0F0"/>
<path d="M40.2011 6.30484C35.9318 2.39621 30.2448 0.0107422 24.0003 0.0107422C22.978 0.0107422 21.9707 0.0751484 20.982 0.19918L9.39161 13.576L0.759766 30.023C1.31739 32.185 2.16995 34.2282 3.26992 36.109L24.0003 24.0107L40.2011 6.30484Z" fill="#FFDA44"/>
<path d="M43.9806 37.3081L10.4023 43.7881C14.2676 46.4507 18.9511 48.0108 23.9996 48.0108C32.3359 48.0108 39.6783 43.7599 43.9806 37.3081V37.3081Z" fill="#6DA544"/>
<path d="M40.2041 6.30804L3.2832 36.1323C4.24892 37.7793 5.40514 39.3009 6.72205 40.6668L47.9999 24.0108C47.9999 17.0021 44.9951 10.6957 40.2041 6.30804V6.30804Z" fill="#D80027"/>
<path d="M0 24.0107C0 26.087 0.263812 28.1016 0.759469 30.023L20.9817 0.199158C9.15169 1.6836 0 11.7782 0 24.0107Z" fill="#0052B4"/>
</g>
<defs>
<clipPath id="clip0_154_1971">
<rect width="48" height="48" fill="white" transform="translate(0 0.0107422)"/>
</clipPath>
</defs>
</svg>
