<svg width="48" height="48" viewBox="0 0 48 48" fill="none" xmlns="http://www.w3.org/2000/svg">
<g clip-path="url(#clip0_154_2171)">
<path d="M24 48C37.2548 48 48 37.2548 48 24C48 10.7452 37.2548 0 24 0C10.7452 0 0 10.7452 0 24C0 37.2548 10.7452 48 24 48Z" fill="#FFDA44"/>
<path d="M18.7833 20.8696H47.7974C46.2634 9.09394 36.1944 0 24.0006 0C22.2086 0 20.4631 0.198094 18.7832 0.570469V20.8696H18.7833Z" fill="#0052B4"/>
<path d="M12.5217 20.8695V2.91815C5.93162 6.51384 1.21403 13.1092 0.203125 20.8696H12.5217V20.8695Z" fill="#0052B4"/>
<path d="M12.5216 27.1304H0.203125C1.21403 34.8908 5.93162 41.4862 12.5217 45.0818L12.5216 27.1304Z" fill="#0052B4"/>
<path d="M18.7832 27.1305V47.4295C20.4631 47.8019 22.2086 48 24.0006 48C36.1944 48 46.2634 38.906 47.7974 27.1304H18.7832V27.1305Z" fill="#0052B4"/>
</g>
<defs>
<clipPath id="clip0_154_2171">
<rect width="48" height="48" fill="white"/>
</clipPath>
</defs>
</svg>
