<svg width="48" height="49" viewBox="0 0 48 49" fill="none" xmlns="http://www.w3.org/2000/svg">
<g clip-path="url(#clip0_154_2030)">
<path d="M24 48.0107C37.2548 48.0107 48 37.2656 48 24.0107C48 10.7559 37.2548 0.0107422 24 0.0107422C10.7452 0.0107422 0 10.7559 0 24.0107C0 37.2656 10.7452 48.0107 24 48.0107Z" fill="#F0F0F0"/>
<path d="M46.5072 15.6629H20.8696V9.40204H8.34778V15.6629H1.49278C0.528094 18.2628 0 21.075 0 24.0107C0 26.9464 0.528094 29.7585 1.49278 32.3585L24 34.4455L46.5072 32.3585C47.4719 29.7585 48 26.9464 48 24.0107C48 21.075 47.4719 18.2628 46.5072 15.6629Z" fill="#0052B4"/>
<path d="M23.9994 48.0109C34.3186 48.0109 43.1156 41.4979 46.5066 32.3586H1.49219C4.88322 41.4979 13.6802 48.0109 23.9994 48.0109Z" fill="#D80027"/>
<path d="M8.34766 15.6629V17.7498C8.34766 22.5424 14.6086 24.0108 14.6086 24.0108C14.6086 24.0108 20.8695 22.5424 20.8695 17.7498V15.6629L18.7825 17.7499L14.6086 14.6195L10.4346 17.7499L8.34766 15.6629Z" fill="#F0F0F0"/>
</g>
<defs>
<clipPath id="clip0_154_2030">
<rect width="48" height="48" fill="white" transform="translate(0 0.0107422)"/>
</clipPath>
</defs>
</svg>
