<svg width="48" height="49" viewBox="0 0 48 49" fill="none" xmlns="http://www.w3.org/2000/svg">
<g clip-path="url(#clip0_154_2021)">
<path d="M24 48.0117C37.2548 48.0117 48 37.2666 48 24.0117C48 10.7569 37.2548 0.0117188 24 0.0117188C10.7452 0.0117188 0 10.7569 0 24.0117C0 37.2666 10.7452 48.0117 24 48.0117Z" fill="#F0F0F0"/>
<path d="M24 48.0117C37.2548 48.0117 48 37.2665 48 24.0117C48 21.076 47.472 18.2638 46.5072 15.6639H1.49278C0.528094 18.2638 0 21.076 0 24.0117C0 37.2665 10.7452 48.0117 24 48.0117Z" fill="#0052B4"/>
<path d="M23.9994 48.0118C34.3186 48.0118 43.1156 41.4988 46.5066 32.3596H1.49219C4.88322 41.4988 13.6802 48.0118 23.9994 48.0118Z" fill="#D80027"/>
<path d="M6.20703 13.5769V25.5493C6.20703 32.3597 15.104 34.4465 15.104 34.4465C15.104 34.4465 24.0009 32.3597 24.0009 25.5493V13.5769H6.20703Z" fill="#F0F0F0"/>
<path d="M8.29297 13.577V25.5494C8.29297 26.3489 8.47053 27.104 8.82228 27.8119H21.3836C21.7353 27.1041 21.9129 26.3489 21.9129 25.5494V13.577H8.29297Z" fill="#D80027"/>
<path d="M19.2775 21.9246H16.1472V19.8377H18.2341V17.7507H16.1472V15.6638H14.0602V17.7507H11.9733V19.8377H14.0602V21.9246H10.9297V24.0116H14.0602V26.0986H16.1472V24.0116H19.2775V21.9246Z" fill="#F0F0F0"/>
<path d="M11.6688 30.7251C13.0136 31.5702 14.3953 32.0609 15.1027 32.2792C15.81 32.061 17.1917 31.5702 18.5365 30.7251C19.8927 29.8727 20.8435 28.8979 21.3833 27.8118C20.7879 27.3906 20.0614 27.1421 19.2766 27.1421C18.9909 27.1421 18.7133 27.176 18.4464 27.2381C17.8808 25.953 16.5969 25.0552 15.1028 25.0552C13.6087 25.0552 12.3247 25.953 11.7592 27.2381C11.4923 27.176 11.2146 27.1421 10.9289 27.1421C10.1441 27.1421 9.41767 27.3906 8.82227 27.8118C9.3618 28.8978 10.3125 29.8726 11.6688 30.7251Z" fill="#0052B4"/>
</g>
<defs>
<clipPath id="clip0_154_2021">
<rect width="48" height="48" fill="white" transform="translate(0 0.0117188)"/>
</clipPath>
</defs>
</svg>
