<svg width="48" height="49" viewBox="0 0 48 49" fill="none" xmlns="http://www.w3.org/2000/svg">
<g clip-path="url(#clip0_154_1901)">
<path d="M48 24.0107C48 37.2655 37.2548 48.0107 24 48.0107C10.7452 48.0107 0 37.2655 0 24.0107C1.04344 24.0107 24 20.8803 24 20.8803L48 24.0107Z" fill="#338AF3"/>
<path d="M0 24.0107C0 10.756 10.7452 0.0107422 24 0.0107422C37.2548 0.0107422 48 10.756 48 24.0107" fill="#F0F0F0"/>
<path d="M33.5262 16.571L23.9997 26.0976L14.4732 16.571C13.2412 18.3998 12.5215 20.601 12.5215 22.9671V26.0975C12.5215 31.124 15.7695 35.4059 20.2767 36.9557C19.6751 38.1347 19.7765 39.6061 20.658 40.7062C21.8288 39.7679 23.0409 38.7965 24.0691 37.9727C25.0974 38.7966 26.3096 39.768 27.4802 40.7062C28.3721 39.5932 28.4662 38.0998 27.8409 36.9139C32.2865 35.3304 35.4779 31.08 35.4779 26.0975V22.9672C35.478 20.601 34.7581 18.3999 33.5262 16.571V16.571Z" fill="#6DA544"/>
<path d="M24.0001 34.4455C19.3971 34.4455 15.6523 30.7006 15.6523 26.0977V22.9673C15.6523 18.3643 19.3972 14.6195 24.0001 14.6195C28.6031 14.6195 32.3479 18.3644 32.3479 22.9673V26.0977C32.3479 30.7006 28.6032 34.4455 24.0001 34.4455Z" fill="#FFDA44"/>
<path d="M29.218 26.0978V22.9674C29.218 20.0905 26.8774 17.75 24.0006 17.75C21.1238 17.75 18.7832 20.0906 18.7832 22.9674V26.0978L24.0006 27.1412L29.218 26.0978Z" fill="#338AF3"/>
<path d="M18.7832 26.0977C18.7832 28.9746 21.1238 31.315 24.0006 31.315C26.8774 31.315 29.218 28.9745 29.218 26.0977H18.7832Z" fill="#6DA544"/>
<path d="M30.26 14.6195C30.26 12.8907 28.8584 11.4891 27.1296 11.4891C26.3276 11.4891 25.5966 11.791 25.0426 12.2868V10.4456H26.0861V8.35862H25.0426V7.31519H22.9557V8.35862H21.9122V10.4456H22.9557V12.2868C22.4017 11.791 21.6706 11.4891 20.8687 11.4891C19.1398 11.4891 17.7383 12.8907 17.7383 14.6195C17.7383 15.5464 18.1415 16.3789 18.7817 16.9522V18.7935H29.2165V16.9522C29.8568 16.3789 30.26 15.5464 30.26 14.6195V14.6195Z" fill="#FFDA44"/>
</g>
<defs>
<clipPath id="clip0_154_1901">
<rect width="48" height="48" fill="white" transform="translate(0 0.0107422)"/>
</clipPath>
</defs>
</svg>
