<svg width="48" height="49" viewBox="0 0 48 49" fill="none" xmlns="http://www.w3.org/2000/svg">
<g clip-path="url(#clip0_154_1953)">
<path d="M34.435 2.39218C31.2797 0.866492 27.7399 0.0107422 24.0002 0.0107422C20.2605 0.0107422 16.7207 0.866492 13.5655 2.39218L11.4785 24.0107L13.5655 45.6293C16.7207 47.155 20.2605 48.0107 24.0002 48.0107C27.7399 48.0107 31.2797 47.155 34.435 45.6293L36.522 24.0107L34.435 2.39218Z" fill="#FFDA44"/>
<path d="M23.9999 15.663L26.0718 22.0398H32.7775L27.3528 25.9814L29.4248 32.3585L23.9999 28.4173L18.5751 32.3585L20.6474 25.9814L15.2227 22.0398H21.9279L23.9999 15.663Z" fill="#496E2D"/>
<path d="M13.5652 2.39301C5.53744 6.27491 0 14.4958 0 24.0107C0 33.5257 5.53744 41.7465 13.5652 45.6284V2.39301Z" fill="#496E2D"/>
<path d="M34.4355 2.39307V45.6285C42.4634 41.7466 48.0008 33.5258 48.0008 24.0108C48.0008 14.4958 42.4634 6.27497 34.4355 2.39307Z" fill="#D80027"/>
</g>
<defs>
<clipPath id="clip0_154_1953">
<rect width="48" height="48" fill="white" transform="translate(0 0.0107422)"/>
</clipPath>
</defs>
</svg>
