<svg width="48" height="48" viewBox="0 0 48 48" fill="none" xmlns="http://www.w3.org/2000/svg">
<g clip-path="url(#clip0_154_2147)">
<path d="M24 48C37.2548 48 48 37.2548 48 24C48 10.7452 37.2548 0 24 0C10.7452 0 0 10.7452 0 24C0 37.2548 10.7452 48 24 48Z" fill="#F0F0F0"/>
<path d="M46.5071 15.6522H1.49269C0.528094 18.2523 0 21.0643 0 24C0 26.9357 0.528094 29.7479 1.49269 32.3478H46.5072C47.472 29.7479 48 26.9357 48 24C48 21.0643 47.472 18.2523 46.5071 15.6522Z" fill="#A2001D"/>
<path d="M24.0691 48.0001C32.2892 48.0001 39.5433 43.8664 43.8687 37.5653H4.26953C8.59497 43.8664 15.8488 48.0001 24.0691 48.0001Z" fill="#6DA544"/>
<path d="M24.0691 0.000244141C32.2892 0.000244141 39.5433 4.13387 43.8687 10.435H4.26953C8.59497 4.13387 15.8488 0.000244141 24.0691 0.000244141V0.000244141Z" fill="#6DA544"/>
<path d="M24.0001 15.6522L26.0721 22.0291H32.7775L27.3528 25.9707L29.4249 32.3478L24.0001 28.4066L18.5753 32.3478L20.6475 25.9707L15.2227 22.0291H21.9281L24.0001 15.6522Z" fill="#FFDA44"/>
</g>
<defs>
<clipPath id="clip0_154_2147">
<rect width="48" height="48" fill="white"/>
</clipPath>
</defs>
</svg>
