<svg width="48" height="49" viewBox="0 0 48 49" fill="none" xmlns="http://www.w3.org/2000/svg">
<g clip-path="url(#clip0_154_1910)">
<path d="M24 48.0107C37.2548 48.0107 48 37.2656 48 24.0107C48 10.7559 37.2548 0.0107422 24 0.0107422C10.7452 0.0107422 0 10.7559 0 24.0107C0 37.2656 10.7452 48.0107 24 48.0107Z" fill="#FFDA44"/>
<path d="M14.6078 15.663H46.5062C43.1153 6.52374 34.3181 0.0107422 23.9991 0.0107422C17.3715 0.0107422 11.3722 2.69752 7.0293 7.04096L14.6078 15.663Z" fill="#6DA544"/>
<path d="M14.6078 32.3585H46.5062C43.1153 41.4977 34.3181 48.0107 23.9991 48.0107C17.3715 48.0107 11.3722 45.324 7.0293 40.9805L14.6078 32.3585Z" fill="#6DA544"/>
<path d="M7.02942 7.0401C-2.34314 16.4127 -2.34314 31.6087 7.02942 40.9813C10.9025 37.1083 14.6275 33.3833 24 24.0107L7.02942 7.0401Z" fill="#D80027"/>
<path d="M30.4766 19.8369L31.5126 23.0255H34.8653L32.153 24.9962L33.189 28.1848L30.4766 26.2141L27.7642 28.1848L28.8002 24.9962L26.0879 23.0255H29.4406L30.4766 19.8369Z" fill="black"/>
<path d="M40.9103 19.8368L41.9462 23.0254H45.2989L42.5866 24.996L43.6226 28.1847L40.9103 26.2139L38.1978 28.1847L39.2339 24.996L36.5215 23.0254H39.8742L40.9103 19.8368Z" fill="black"/>
</g>
<defs>
<clipPath id="clip0_154_1910">
<rect width="48" height="48" fill="white" transform="translate(0 0.0107422)"/>
</clipPath>
</defs>
</svg>
