<svg width="48" height="49" viewBox="0 0 48 49" fill="none" xmlns="http://www.w3.org/2000/svg">
<g clip-path="url(#clip0_154_884)">
<path d="M24 48.0107C37.2548 48.0107 48 37.2656 48 24.0107C48 10.7559 37.2548 0.0107422 24 0.0107422C10.7452 0.0107422 0 10.7559 0 24.0107C0 37.2656 10.7452 48.0107 24 48.0107Z" fill="#F0F0F0"/>
<path d="M24.0004 0.0107422C14.4853 0.0107422 6.26384 5.54809 2.38184 13.576H45.6189C41.737 5.54809 33.5154 0.0107422 24.0004 0.0107422V0.0107422Z" fill="#0052B4"/>
<path d="M24.0004 48.0107C33.5154 48.0107 41.737 42.4734 45.619 34.4455H2.38184C6.26384 42.4734 14.4853 48.0107 24.0004 48.0107Z" fill="#0052B4"/>
<path d="M19.1807 25.0541L24.0004 16.7063L28.82 25.0541H19.1807Z" fill="#FFDA44"/>
<path d="M30.2611 27.8105L24.0002 30.941L17.7393 27.8105V23.6367H30.2611V27.8105Z" fill="#6DA544"/>
<path d="M29.9028 17.0645L27.6893 19.278C28.6334 20.2222 29.2175 21.5265 29.2175 22.9673C29.2175 25.8488 26.8815 28.1847 24.0001 28.1847C21.1187 28.1847 18.7828 25.8487 18.7828 22.9673C18.7828 21.5265 19.3668 20.2222 20.311 19.278L18.0974 17.0645C16.5867 18.575 15.6523 20.662 15.6523 22.9673C15.6523 27.5777 19.3898 31.3151 24.0001 31.3151C28.6105 31.3151 32.3479 27.5776 32.3479 22.9673C32.3478 20.662 31.4135 18.575 29.9028 17.0645V17.0645Z" fill="#FFDA44"/>
</g>
<defs>
<clipPath id="clip0_154_884">
<rect width="48" height="48" fill="white" transform="translate(0 0.0107422)"/>
</clipPath>
</defs>
</svg>
