<svg width="48" height="48" viewBox="0 0 48 48" fill="none" xmlns="http://www.w3.org/2000/svg">
<g clip-path="url(#clip0_154_2183)">
<path d="M24 48C37.2548 48 48 37.2548 48 24C48 10.7452 37.2548 0 24 0C10.7452 0 0 10.7452 0 24C0 37.2548 10.7452 48 24 48Z" fill="#F0F0F0"/>
<path d="M23.9994 0C13.6802 0 4.88322 6.513 1.49219 15.6522H46.5067C43.1156 6.513 34.3186 0 23.9994 0V0Z" fill="#D80027"/>
<path d="M23.9994 48.0001C34.3186 48.0001 43.1156 41.4871 46.5066 32.3479H1.49219C4.88322 41.4871 13.6802 48.0001 23.9994 48.0001Z" fill="black"/>
<path d="M14.3394 18.261L15.6344 22.2465H19.8253L16.4348 24.71L17.7299 28.6957L14.3394 26.2325L10.9489 28.6957L12.244 24.71L8.85352 22.2465H13.0444L14.3394 18.261Z" fill="#6DA544"/>
<path d="M33.6597 18.261L34.9547 22.2465H39.1457L35.7551 24.71L37.0502 28.6957L33.6597 26.2325L30.2692 28.6957L31.5643 24.71L28.1738 22.2465H32.3647L33.6597 18.261Z" fill="#6DA544"/>
</g>
<defs>
<clipPath id="clip0_154_2183">
<rect width="48" height="48" fill="white"/>
</clipPath>
</defs>
</svg>
