<svg width="48" height="48" viewBox="0 0 48 48" fill="none" xmlns="http://www.w3.org/2000/svg">
<g clip-path="url(#clip0_154_2155)">
<path d="M45.6186 34.4348C47.1442 31.2796 48 27.7397 48 24C48 20.2603 47.1442 16.7204 45.6186 13.5653L24 12.5217L2.38144 13.5652C0.85575 16.7204 0 20.2603 0 24C0 27.7397 0.85575 31.2796 2.38144 34.4348L24 35.4783L45.6186 34.4348Z" fill="#FFDA44"/>
<path d="M23.9994 0C14.4844 0 6.26286 5.53734 2.38086 13.5652H45.6179C41.736 5.53734 33.5144 0 23.9994 0V0Z" fill="black"/>
<path d="M23.9994 48.0001C14.4844 48.0001 6.26286 42.4627 2.38086 34.4348H45.6179C41.736 42.4627 33.5144 48.0001 23.9994 48.0001V48.0001Z" fill="#0052B4"/>
<path d="M46.8667 16.6957H1.13334C0.398156 18.999 0 21.4529 0 24C0 26.5471 0.398156 29.001 1.13334 31.3044H46.8666C47.6018 29.001 48 26.5471 48 24C48 21.4529 47.6018 18.999 46.8667 16.6957Z" fill="#A2001D"/>
<path d="M8.34766 22.9566H39.652V25.0436H8.34766V22.9566Z" fill="#FFDA44"/>
<path d="M12.5215 18.7827H35.478V20.8696H12.5215V18.7827Z" fill="#FFDA44"/>
<path d="M35.6265 23.9999C35.6265 23.9999 30.26 30.2608 23.9992 30.2608C17.7384 30.2608 17.7383 23.9999 17.7383 23.9999C17.7383 23.9999 17.7383 17.739 23.9992 17.739C30.2601 17.739 35.6265 23.9999 35.6265 23.9999Z" fill="#F0F0F0"/>
<path d="M24.0004 30.2608C17.7395 30.2608 12.373 23.9999 12.373 23.9999C12.373 23.9999 17.7395 17.739 24.0004 17.739" fill="black"/>
<path d="M19.8262 21.913H21.9131V26.087H19.8262V21.913Z" fill="#F0F0F0"/>
<path d="M26.0879 21.9131H28.1749V26.087H26.0879V21.9131Z" fill="black"/>
<path d="M8.34869 26.087C9.50129 26.087 10.4357 25.1527 10.4357 24.0001C10.4357 22.8475 9.50129 21.9131 8.34869 21.9131C7.19609 21.9131 6.26172 22.8475 6.26172 24.0001C6.26172 25.1527 7.19609 26.087 8.34869 26.087Z" fill="#0052B4"/>
<path d="M39.6534 26.087C40.806 26.087 41.7403 25.1527 41.7403 24.0001C41.7403 22.8475 40.806 21.9131 39.6534 21.9131C38.5008 21.9131 37.5664 22.8475 37.5664 24.0001C37.5664 25.1527 38.5008 26.087 39.6534 26.087Z" fill="#0052B4"/>
</g>
<defs>
<clipPath id="clip0_154_2155">
<rect width="48" height="48" fill="white"/>
</clipPath>
</defs>
</svg>
