<svg width="48" height="48" viewBox="0 0 48 48" fill="none" xmlns="http://www.w3.org/2000/svg">
<g clip-path="url(#clip0_154_664)">
<path d="M24.0007 0C21.065 0 18.2528 0.528094 15.6529 1.49278L14.6094 24L15.6528 46.5072C18.2528 47.472 21.065 48 24.0007 48C26.9364 48 29.7486 47.472 32.3485 46.5072L33.392 24L32.3486 1.49278C29.7486 0.528094 26.9364 0 24.0007 0V0Z" fill="#FFDA44"/>
<path d="M47.9999 24C47.9999 13.6808 41.4869 4.8838 32.3477 1.49277V46.5073C41.4869 43.1162 47.9999 34.3191 47.9999 24V24Z" fill="#D80027"/>
<path d="M15.6522 46.5072V1.49277C6.513 4.8838 0 13.6808 0 24C0 34.3191 6.513 43.1162 15.6522 46.5072Z" fill="#0052B4"/>
</g>
<defs>
<clipPath id="clip0_154_664">
<rect width="48" height="48" fill="white"/>
</clipPath>
</defs>
</svg>
