<svg width="48" height="48" viewBox="0 0 48 48" fill="none" xmlns="http://www.w3.org/2000/svg">
<g clip-path="url(#clip0_154_2242)">
<path d="M24 48C37.2548 48 48 37.2548 48 24C48 10.7452 37.2548 0 24 0C10.7452 0 0 10.7452 0 24C0 37.2548 10.7452 48 24 48Z" fill="#FFDA44"/>
<path d="M24.0005 0C23.983 0.0001875 22.957 9.6 22.957 9.6H43.2016C38.823 3.77091 31.8522 0 24.0005 0Z" fill="#496E2D"/>
<path d="M23.9999 48C31.8516 48 38.8224 44.2291 43.2009 38.4H4.79883C9.17733 44.2291 16.1481 48 23.9999 48Z" fill="#496E2D"/>
<path d="M47.5199 19.2H22.957L24.0005 28.8H47.5199C47.8349 27.249 48.0005 25.6439 48.0005 24C48.0005 22.356 47.8347 20.7509 47.5199 19.2V19.2Z" fill="#496E2D"/>
<path d="M24 28.8C24 23.7913 24 5.63475 24 0C10.7452 0 0 10.7452 0 24C0 25.6439 0.16575 27.2491 0.480562 28.8H24Z" fill="#D80027"/>
<path d="M13.2431 11.4783L14.7971 16.2609H19.8263L15.7578 19.2171L17.3117 24L13.2431 21.0441L9.17453 24L10.7286 19.2171L6.66016 16.2609H11.6892L13.2431 11.4783Z" fill="#F0F0F0"/>
</g>
<defs>
<clipPath id="clip0_154_2242">
<rect width="48" height="48" fill="white"/>
</clipPath>
</defs>
</svg>
