<svg width="48" height="48" viewBox="0 0 48 48" fill="none" xmlns="http://www.w3.org/2000/svg">
<g clip-path="url(#clip0_154_2279)">
<path d="M24 48C37.2548 48 48 37.2548 48 24C48 10.7452 37.2548 0 24 0C10.7452 0 0 10.7452 0 24C0 37.2548 10.7452 48 24 48Z" fill="#D80027"/>
<path d="M23.9998 35.4783C30.339 35.4783 35.478 30.3393 35.478 24C35.478 17.6607 30.339 12.5217 23.9998 12.5217C17.6605 12.5217 12.5215 17.6607 12.5215 24C12.5215 30.3393 17.6605 35.4783 23.9998 35.4783Z" fill="#F0F0F0"/>
<path d="M25.4139 19.6111L27.383 22.3247L30.5721 21.2906L28.5999 24.0019L30.5688 26.7154L27.3808 25.6774L25.4086 28.3886L25.4106 25.036L22.2227 23.998L25.4118 22.964L25.4139 19.6111Z" fill="#D80027"/>
<path d="M26.6088 30.7826C22.8629 30.7826 19.8262 27.7459 19.8262 24C19.8262 20.2541 22.8629 17.2173 26.6088 17.2173C27.7767 17.2173 28.8758 17.5127 29.8352 18.0326C28.3301 16.5606 26.2718 15.6521 24.0001 15.6521C19.3899 15.6521 15.6523 19.3895 15.6523 23.9999C15.6523 28.6102 19.3899 32.3477 24.0001 32.3477C26.2718 32.3477 28.3302 31.4391 29.8352 29.9672C28.8758 30.4873 27.7767 30.7826 26.6088 30.7826Z" fill="#D80027"/>
</g>
<defs>
<clipPath id="clip0_154_2279">
<rect width="48" height="48" fill="white"/>
</clipPath>
</defs>
</svg>
