<svg width="48" height="48" viewBox="0 0 48 48" fill="none" xmlns="http://www.w3.org/2000/svg">
<g clip-path="url(#clip0_154_2336)">
<path d="M48 24C48 37.2548 37.2548 48 24.0001 48C10.7453 48 0 37.2548 0 24C0 24.0057 24.0001 0.002625 24.0001 0C37.2548 0 48 10.7452 48 24Z" fill="#338AF3"/>
<path d="M11.4785 24H19.5731L12.522 15.6522L11.4785 18.7826V24Z" fill="#0052B4"/>
<path d="M24.0002 19.5729L15.6523 11.4783H24.0001L24.0002 19.5729Z" fill="#0052B4"/>
<path d="M23.9355 24H23.9998C23.9998 23.9784 23.9998 23.9574 23.9998 23.9358C23.9784 23.9573 23.957 23.9786 23.9355 24Z" fill="#F0F0F0"/>
<path d="M24.0001 12.5217C24.0001 8.29875 24.0001 5.53163 24.0001 0H23.9961C10.743 0.00225 0 10.7465 0 24H12.5218V16.949L19.5728 24H23.936C23.9573 23.9786 23.9787 23.9573 24.0002 23.9358C24.0002 22.3189 24.0002 20.8762 24.0002 19.5729L16.9489 12.5217H24.0001Z" fill="#F0F0F0"/>
<path d="M12.1425 3.13037C8.38883 5.26778 5.26827 8.38834 3.13086 12.142V24H9.39177V9.39147V9.39128H24.0005C24.0005 7.41662 24.0005 5.53543 24.0005 3.13037H12.1425Z" fill="#D80027"/>
<path d="M23.9998 21.0486L15.4727 12.5217H12.5215V12.5219L23.9996 23.9999H23.9998C23.9998 23.9999 23.9998 21.9649 23.9998 21.0486V21.0486Z" fill="#D80027"/>
<path d="M26.1943 39.6522L26.7124 41.2465H28.3887L27.0326 42.2318L27.5507 43.8261L26.1943 42.8408L24.8382 43.8261L25.3563 42.2318L24 41.2465H25.6763L26.1943 39.6522Z" fill="#FFDA44"/>
<path d="M39.544 29.2174L40.062 30.8117H41.7383L40.3822 31.7971L40.9004 33.3913L39.544 32.4061L38.1879 33.3913L38.706 31.7971L37.3496 30.8117H39.026L39.544 29.2174Z" fill="#FFDA44"/>
<path d="M42.8896 13.5653L43.4077 15.1596H45.084L43.7279 16.1449L44.2459 17.7392L42.8896 16.7539L41.5335 17.7392L42.0516 16.1449L40.6953 15.1596H42.3717L42.8896 13.5653Z" fill="#FFDA44"/>
<path d="M43.7178 25.0436L44.2358 26.638H45.9122L44.5561 27.6233L45.0741 29.2175L43.7178 28.2323L42.3618 29.2175L42.8798 27.6233L41.5234 26.638H43.1998L43.7178 25.0436Z" fill="#FFDA44"/>
<path d="M28.598 35.9025L30.0919 36.6637L31.2771 35.4784L31.015 37.1339L32.5085 37.895L30.8527 38.1573L30.5905 39.813L29.8296 38.3193L28.1738 38.5817L29.3591 37.3964L28.598 35.9025Z" fill="#FFDA44"/>
<path d="M28.598 29.6416L30.0919 30.4027L31.2771 29.2174L31.015 30.873L32.5085 31.634L30.8527 31.8963L30.5905 33.552L29.8296 32.0584L28.1738 32.3207L29.3591 31.1354L28.598 29.6416Z" fill="#FFDA44"/>
<path d="M33.8147 33.6547L35.3087 34.4159L36.4939 33.2306L36.2318 34.8861L37.7253 35.6472L36.0695 35.9095L35.8073 37.5652L35.0464 36.0714L33.3906 36.3339L34.5759 35.1486L33.8147 33.6547Z" fill="#FFDA44"/>
<path d="M33.8147 20.2503L35.3087 21.0113L36.4939 19.826L36.2318 21.4817L37.7253 22.2426L36.0695 22.505L35.8073 24.1607L35.0464 22.667L33.3906 22.9294L34.5759 21.7441L33.8147 20.2503Z" fill="#FFDA44"/>
<path d="M38.8714 20.0896L40.3653 20.8507L41.5506 19.6654L41.2884 21.321L42.782 22.082L41.1262 22.3443L40.864 24L40.1031 22.5064L38.4473 22.7687L39.6325 21.5834L38.8714 20.0896Z" fill="#FFDA44"/>
</g>
<defs>
<clipPath id="clip0_154_2336">
<rect width="48" height="48" fill="white"/>
</clipPath>
</defs>
</svg>
