<svg width="48" height="48" viewBox="0 0 48 48" fill="none" xmlns="http://www.w3.org/2000/svg">
<g clip-path="url(#clip0_154_2212)">
<path d="M24 48C37.2548 48 48 37.2548 48 24C48 10.7452 37.2548 0 24 0C10.7452 0 0 10.7452 0 24C0 37.2548 10.7452 48 24 48Z" fill="#FFDA44"/>
<path d="M7.02892 40.9707C8.0357 41.9774 9.10989 42.8753 10.2367 43.6658L43.6651 10.2373C42.8748 9.11047 41.9769 8.03629 40.9701 7.0295C39.9632 6.02272 38.8891 5.12497 37.7623 4.33447L4.33398 37.763C5.1243 38.8895 6.02223 39.9638 7.02892 40.9707V40.9707Z" fill="black"/>
<path d="M7.02845 7.02931C-0.54299 14.6009 -1.99658 25.972 2.66495 35.0041L35.0033 2.6659C25.9711 -1.99563 14.6 -0.54194 7.02845 7.02931V7.02931Z" fill="#6DA544"/>
<path d="M40.9708 40.9707C48.5423 33.3992 49.9958 22.028 45.3344 12.9958L12.9961 45.3342C22.0281 49.9957 33.3993 48.5421 40.9708 40.9707Z" fill="#338AF3"/>
</g>
<defs>
<clipPath id="clip0_154_2212">
<rect width="48" height="48" fill="white"/>
</clipPath>
</defs>
</svg>
