<svg width="48" height="48" viewBox="0 0 48 48" fill="none" xmlns="http://www.w3.org/2000/svg">
<g clip-path="url(#clip0_154_2359)">
<path d="M41.8868 39.9999C45.6877 35.7538 48 30.1473 48 24C48 17.8526 45.6877 12.2461 41.8867 7.99993L24 6.26086L6.11325 7.99993C2.31234 12.2461 0 17.8526 0 24C0 30.1473 2.31225 35.7538 6.11316 39.9999L24 41.7391L41.8868 39.9999Z" fill="#FFDA44"/>
<path d="M6.11328 7.99997H41.8869C37.4923 3.09056 31.1075 0 24 0C16.8926 0 10.5077 3.09056 6.11328 7.99997Z" fill="black"/>
<path d="M0 23.9999L24 26.0869L48 23.9999C48 21.1946 47.5171 18.5023 46.6324 15.9999H1.36763C0.482906 18.5023 0 21.1946 0 23.9999H0Z" fill="#D80027"/>
<path d="M1.36763 32H46.6326C47.5171 29.4976 48 26.8054 48 24H0C0 26.8054 0.482906 29.4976 1.36763 32V32Z" fill="black"/>
<path d="M41.887 39.9999H6.11328C10.5077 44.9094 16.8926 47.9999 24.0001 47.9999C31.1077 47.9999 37.4925 44.9094 41.887 39.9999Z" fill="#D80027"/>
<path d="M32.0096 23.9999C32.0096 28.4233 28.4243 32.0086 24.0009 32.0086C19.5775 32.0086 15.9922 28.4233 15.9922 23.9999C15.9922 19.5765 19.5775 15.9912 24.0009 15.9912C28.4243 15.9912 32.0096 19.5765 32.0096 23.9999Z" fill="#F0F0F0"/>
<path d="M26.9337 24.4084L23.9998 23.137C23.9998 23.137 24.6863 20.8586 24.7228 20.7027C24.7495 20.5888 24.7638 20.47 24.7638 20.348C24.7638 19.9157 24.5886 19.5244 24.3052 19.2413L25.0431 18.5034C24.571 18.0314 23.9188 17.7394 23.1984 17.7394C22.4781 17.7394 21.8258 18.0313 21.3538 18.5034L22.0916 19.2413C21.8083 19.5245 21.6332 19.9158 21.6332 20.348C21.6332 20.506 21.6571 20.6584 21.7007 20.8023L20.5898 21.913H22.6088C22.6088 21.913 21.7741 23.1668 21.3184 24.1965C20.8627 25.2261 21.3247 26.483 22.3778 26.9512L22.9868 27.2218L23.9998 28.1739V29.2174L22.9564 30.2608H25.0433V28.1738L25.9956 27.2216H27.9651C27.9745 27.202 27.9845 27.1829 27.9935 27.1628C28.4614 26.1098 27.987 24.8764 26.9337 24.4084Z" fill="black"/>
</g>
<defs>
<clipPath id="clip0_154_2359">
<rect width="48" height="48" fill="white"/>
</clipPath>
</defs>
</svg>
