<svg width="48" height="48" viewBox="0 0 48 48" fill="none" xmlns="http://www.w3.org/2000/svg">
<g clip-path="url(#clip0_154_2422)">
<path d="M1.13325 16.6958C0.398063 18.999 -9.37335e-05 21.4527 1.6552e-08 23.9998C-9.37335e-05 26.547 0.398156 29.0009 1.13334 31.3042L24 32.3478L46.8667 31.3043C47.6018 29.001 48.0001 26.547 48.0001 24C48 21.4528 47.6018 18.999 46.8667 16.6957L24 15.6522L1.13325 16.6958Z" fill="#F0F0F0"/>
<path d="M46.8664 16.6958L23.9997 15.6523L1.133 16.6958C0.915125 17.3787 0.727531 18.0749 0.570312 18.7828H47.4288C47.2718 18.0748 47.0843 17.3785 46.8664 16.6958Z" fill="#D80027"/>
<path d="M0.570312 29.2173C0.727344 29.9251 0.914938 30.6213 1.13281 31.3042L1.13506 31.3043L23.9994 32.3477L46.866 31.3043C47.0839 30.6214 47.2715 29.9251 47.4286 29.2173H0.570312Z" fill="#D80027"/>
<path d="M23.9994 47.9999C34.7071 47.9999 43.7756 40.9871 46.866 31.3042H1.13281C4.22328 40.987 13.2919 47.9999 23.9994 47.9999V47.9999Z" fill="#6DA544"/>
<path d="M23.9995 9.39945e-10C13.2919 9.37509e-05 4.22347 7.01287 1.13281 16.6957L46.866 16.6957C43.7757 7.01278 34.7072 -9.37491e-05 23.9995 9.39945e-10V9.39945e-10Z" fill="#338AF3"/>
<path d="M10.9675 9.91321C10.9675 7.66537 12.5473 5.78756 14.657 5.32687C14.3328 5.256 13.9963 5.21765 13.6507 5.21765C11.0574 5.21765 8.95508 7.3199 8.95508 9.91331C8.95508 12.5067 11.0572 14.609 13.6507 14.609C13.9963 14.609 14.3327 14.5705 14.657 14.4997C12.5474 14.0389 10.9675 12.1611 10.9675 9.91321V9.91321Z" fill="#F0F0F0"/>
<path d="M17.4326 12.0476L17.7504 13.0259H18.779L17.9469 13.6306L18.2647 14.6089L17.4326 14.0043L16.6002 14.6089L16.9182 13.6306L16.0859 13.0259H17.1146L17.4326 12.0476Z" fill="#F0F0F0"/>
<path d="M20.7156 12.0476L21.0335 13.0259H22.0621L21.2299 13.6306L21.5478 14.6089L20.7156 14.0043L19.8834 14.6089L20.2013 13.6306L19.3691 13.0259H20.3977L20.7156 12.0476Z" fill="#F0F0F0"/>
<path d="M23.999 12.0475L24.3168 13.0258H25.3455L24.5133 13.6305L24.8311 14.6087L23.999 14.0041L23.1667 14.6087L23.4847 13.6305L22.6523 13.0258H23.6811L23.999 12.0475Z" fill="#F0F0F0"/>
<path d="M27.2822 12.0475L27.6001 13.0258H28.6286L27.7965 13.6305L28.1144 14.6087L27.2822 14.0041L26.4499 14.6087L26.7679 13.6305L25.9355 13.0258H26.9642L27.2822 12.0475Z" fill="#F0F0F0"/>
<path d="M30.5652 12.0476L30.8831 13.0259H31.9117L31.0796 13.6306L31.3975 14.6089L30.5652 14.0043L29.733 14.6089L30.0509 13.6306L29.2188 13.0259H30.2473L30.5652 12.0476Z" fill="#F0F0F0"/>
<path d="M20.7156 8.63257L21.0335 9.61076H22.0621L21.2299 10.2155L21.5478 11.1937L20.7156 10.5891L19.8834 11.1937L20.2013 10.2155L19.3691 9.61076H20.3977L20.7156 8.63257Z" fill="#F0F0F0"/>
<path d="M23.999 8.63245L24.3168 9.61063H25.3455L24.5133 10.2154L24.8311 11.1936L23.999 10.589L23.1667 11.1936L23.4847 10.2154L22.6523 9.61063H23.6811L23.999 8.63245Z" fill="#F0F0F0"/>
<path d="M27.2822 8.63245L27.6001 9.61063H28.6286L27.7965 10.2154L28.1144 11.1936L27.2822 10.589L26.4499 11.1936L26.7679 10.2154L25.9355 9.61063H26.9642L27.2822 8.63245Z" fill="#F0F0F0"/>
<path d="M30.5652 8.63257L30.8831 9.61076H31.9117L31.0796 10.2155L31.3975 11.1937L30.5652 10.5891L29.733 11.1937L30.0509 10.2155L29.2188 9.61076H30.2473L30.5652 8.63257Z" fill="#F0F0F0"/>
<path d="M23.999 5.21741L24.3168 6.19578H25.3455L24.5133 6.80038L24.8311 7.77875L23.999 7.17416L23.1667 7.77875L23.4847 6.80038L22.6523 6.19578H23.6811L23.999 5.21741Z" fill="#F0F0F0"/>
<path d="M27.2822 5.21741L27.6001 6.19578H28.6286L27.7965 6.80038L28.1144 7.77875L27.2822 7.17416L26.4499 7.77875L26.7679 6.80038L25.9355 6.19578H26.9642L27.2822 5.21741Z" fill="#F0F0F0"/>
<path d="M30.5652 5.21741L30.8831 6.19578H31.9117L31.0796 6.80038L31.3975 7.77875L30.5652 7.17416L29.733 7.77875L30.0509 6.80038L29.2188 6.19578H30.2473L30.5652 5.21741Z" fill="#F0F0F0"/>
</g>
<defs>
<clipPath id="clip0_154_2422">
<rect width="48" height="48" fill="white"/>
</clipPath>
</defs>
</svg>
