<svg width="48" height="48" viewBox="0 0 48 48" fill="none" xmlns="http://www.w3.org/2000/svg">
<g clip-path="url(#clip0_154_2471)">
<path d="M23.9995 0C37.2543 0 47.9995 10.7452 47.9995 24C47.9995 37.2548 37.2543 48 23.9995 48C23.9995 46.9566 20.8691 24 20.8691 24L23.9995 0Z" fill="#F0F0F0"/>
<path d="M24 48C10.7452 48 0 37.2548 0 24C0 10.7452 10.7452 0 24 0" fill="#FFDA44"/>
<path d="M33.1904 20.8842L37.7008 26.851C36.9902 27.9271 36.9939 29.3768 37.8158 30.464C38.8583 31.8432 40.8215 32.1162 42.2008 31.0736C43.58 30.0311 43.853 28.0679 42.8103 26.6887C41.9885 25.6015 40.5947 25.2025 39.3656 25.5927L32.3361 16.2933L30.6713 17.5518L28.1738 19.4394L30.6908 22.7689L33.1904 20.8842ZM39.6838 27.7439C40.1435 27.3962 40.798 27.4874 41.1455 27.9469C41.493 28.4067 41.4021 29.0611 40.9424 29.4088C40.4827 29.7561 39.8283 29.6654 39.4808 29.2055C39.1331 28.7458 39.2241 28.0913 39.6838 27.7439V27.7439Z" fill="#ACABB1"/>
<path d="M40.9265 22.7689L43.4435 19.4393L40.9462 17.5516L39.2814 16.2931L32.2519 25.5924C31.0231 25.2022 29.6291 25.6013 28.8073 26.6885C27.7646 28.0677 28.0376 30.0308 29.4167 31.0733C30.796 32.1158 32.7591 31.8429 33.8016 30.4638C34.6234 29.3766 34.6272 27.9268 33.9167 26.8507L38.4271 20.8839L40.9265 22.7689ZM32.1368 29.2055C31.7894 29.6653 31.135 29.7562 30.6752 29.4087C30.2155 29.0611 30.1246 28.4066 30.4721 27.9469C30.8195 27.4873 31.474 27.3962 31.9338 27.7438C32.3935 28.0913 32.4843 28.7458 32.1368 29.2055V29.2055Z" fill="#FFDA44"/>
</g>
<defs>
<clipPath id="clip0_154_2471">
<rect width="48" height="48" fill="white"/>
</clipPath>
</defs>
</svg>
