<svg width="48" height="48" viewBox="0 0 48 48" fill="none" xmlns="http://www.w3.org/2000/svg">
<g clip-path="url(#clip0_154_2444)">
<path d="M48 24C48 22.939 47.9303 21.8943 47.7968 20.8696H20.8693C15.9661 15.9667 7.02903 7.03017 7.02941 7.02942C-2.34314 16.402 -2.34314 31.5979 7.02941 40.9706L20.8696 27.1305H47.7968C47.9302 26.1057 48 25.061 48 24V24Z" fill="black"/>
<path d="M47.9936 24.5459C47.9926 24.5922 47.9915 24.6387 47.9902 24.685C47.9914 24.6385 47.9925 24.5922 47.9936 24.5459Z" fill="#F0F0F0"/>
<path d="M47.9707 25.2017C47.9685 25.2475 47.9653 25.2932 47.9629 25.3389C47.9653 25.2933 47.9683 25.2475 47.9707 25.2017Z" fill="#F0F0F0"/>
<path d="M47.9368 25.7249C47.932 25.7923 47.9273 25.8597 47.9219 25.9269C47.9273 25.8597 47.9319 25.7923 47.9368 25.7249Z" fill="#F0F0F0"/>
<path d="M47.8574 21.3843C47.8662 21.4645 47.875 21.5447 47.883 21.6251C47.875 21.5446 47.8661 21.4645 47.8574 21.3843Z" fill="#F0F0F0"/>
<path d="M47.9629 22.6611C47.9654 22.7069 47.9685 22.7525 47.9707 22.7984C47.9684 22.7525 47.9654 22.7068 47.9629 22.6611Z" fill="#F0F0F0"/>
<path d="M47.9902 23.3152C47.9915 23.3615 47.9925 23.408 47.9936 23.4543C47.9926 23.4078 47.9915 23.3615 47.9902 23.3152Z" fill="#F0F0F0"/>
<path d="M47.9219 22.0732C47.9273 22.1405 47.932 22.2079 47.9368 22.2753C47.9319 22.2079 47.9273 22.1405 47.9219 22.0732Z" fill="#F0F0F0"/>
<path d="M47.7969 20.8696C47.8077 20.9518 47.8172 21.0345 47.8271 21.1169C46.4026 9.22173 36.279 0.00012207 24.0001 0.00012207C17.3725 0.00012207 11.3724 2.68652 7.0293 7.02986L20.869 20.8697H47.7969V20.8696Z" fill="#D80027"/>
<path d="M47.7969 27.1305H20.869L7.0293 40.9703C11.3724 45.3135 17.3725 48 24.0001 48C36.279 48 46.4027 38.7784 47.8271 26.8832C47.8172 26.9656 47.8075 27.0483 47.7969 27.1305V27.1305Z" fill="#6DA544"/>
<path d="M47.883 26.3749C47.875 26.4553 47.8662 26.5355 47.8574 26.6157C47.8662 26.5355 47.8751 26.4554 47.883 26.3749Z" fill="#F0F0F0"/>
<path d="M47.9375 22.2751C47.9466 22.4035 47.9548 22.5321 47.9619 22.661C47.9548 22.5321 47.9466 22.4035 47.9375 22.2751V22.2751Z" fill="black"/>
<path d="M47.8262 21.1169C47.837 21.2059 47.8472 21.2951 47.8567 21.3843C47.847 21.2951 47.8368 21.206 47.8262 21.1169Z" fill="black"/>
<path d="M47.8828 21.6251C47.8974 21.7741 47.9107 21.9234 47.9226 22.0733C47.9108 21.9234 47.8975 21.774 47.8828 21.6251Z" fill="black"/>
<path d="M47.999 24C47.999 24.1825 47.9962 24.3643 47.9922 24.5457C47.9962 24.3642 47.999 24.1824 47.999 24Z" fill="black"/>
<path d="M47.9619 25.3389C47.9547 25.4678 47.9465 25.5964 47.9375 25.7247C47.9465 25.5964 47.9547 25.4678 47.9619 25.3389Z" fill="black"/>
<path d="M47.9226 25.9269C47.9107 26.0766 47.8974 26.226 47.8828 26.3749C47.8975 26.226 47.9108 26.0766 47.9226 25.9269Z" fill="black"/>
<path d="M47.8567 26.6157C47.8472 26.705 47.837 26.794 47.8262 26.8831C47.8368 26.7941 47.847 26.705 47.8567 26.6157Z" fill="black"/>
<path d="M47.9922 23.4543C47.9962 23.6358 47.999 23.8177 47.999 24.0001C47.999 23.8177 47.9962 23.6358 47.9922 23.4543Z" fill="black"/>
<path d="M47.9707 22.7983C47.9791 22.9701 47.9855 23.1425 47.9904 23.3152C47.9855 23.1424 47.9792 22.9701 47.9707 22.7983Z" fill="black"/>
<path d="M47.9904 24.6851C47.9855 24.8577 47.9791 25.0302 47.9707 25.2019C47.9793 25.0301 47.9856 24.8577 47.9904 24.6851Z" fill="black"/>
<path d="M47.9765 22.9478H19.987L5.60986 8.57275C5.14514 9.06288 4.64142 9.74725 4.32989 10.2347L18.0791 23.9911L4.31836 37.7522C4.5908 38.2369 5.18433 38.9543 5.60104 39.421L19.9873 25.0348H47.9799C47.9948 24.6886 47.9995 24.341 47.9995 23.9913C47.9994 23.5228 47.9865 23.1773 47.9765 22.9478Z" fill="#FFDA44"/>
<path d="M5.83029 29.1161V27.1058C7.83635 27.1058 9.46825 25.4737 9.46825 23.4678C9.46825 22.0486 8.31354 20.8939 6.89435 20.8939C5.92751 20.8939 5.14086 21.6805 5.14086 22.6475C5.14086 23.2658 5.64382 23.7689 6.2622 23.7689C6.6117 23.7689 6.89604 23.4843 6.89604 23.1348H8.90622C8.90622 24.5929 7.7201 25.7791 6.26229 25.7791C4.53551 25.7791 3.13086 24.3742 3.13086 22.6477C3.13086 20.5724 4.81929 18.884 6.89445 18.884C9.42213 18.884 11.4786 20.9405 11.4786 23.4681C11.4785 26.5822 8.94475 29.1161 5.83029 29.1161V29.1161Z" fill="#FFDA44"/>
</g>
<defs>
<clipPath id="clip0_154_2444">
<rect width="48" height="48" fill="white"/>
</clipPath>
</defs>
</svg>
