<svg width="48" height="49" viewBox="0 0 48 49" fill="none" xmlns="http://www.w3.org/2000/svg">
<g clip-path="url(#clip0_154_2063)">
<path d="M24 48.0107C37.2548 48.0107 48 37.2656 48 24.0107C48 10.7559 37.2548 0.0107422 24 0.0107422C10.7452 0.0107422 0 10.7559 0 24.0107C0 37.2656 10.7452 48.0107 24 48.0107Z" fill="#F0F0F0"/>
<path d="M7.02942 40.9813C-2.34314 31.6087 -2.34314 16.4128 7.02942 7.0401C7.02877 7.04113 20.8696 24.0107 20.8696 24.0107L7.02942 40.9813Z" fill="black"/>
<path d="M20.8702 24.0107L3.18373 12.0588C2.63539 13.012 2.15183 14.0069 1.73633 15.0366L10.6903 24.0108L1.73661 32.9855C2.15173 34.0145 2.63483 35.0087 3.1828 35.9612L20.8702 24.0107Z" fill="#FFDA44"/>
<path d="M47.7963 20.8804H20.8684L7.02867 7.04053C5.5373 8.5319 4.24158 10.2186 3.18258 12.059L15.1112 24.0108L3.18164 35.9611C4.24064 37.802 5.53692 39.4892 7.02867 40.9809L20.8684 27.1412H47.7963C47.9297 26.1165 47.9995 25.0717 47.9995 24.0108C47.9995 22.9498 47.9297 21.9051 47.7963 20.8804V20.8804Z" fill="#6DA544"/>
<path d="M9.38867 43.0493C13.4358 46.1601 18.5017 48.0108 24.0007 48.0108C35.0894 48.0108 44.42 40.4901 47.174 30.2717H22.1663L9.38867 43.0493Z" fill="#0052B4"/>
<path d="M47.174 17.7498C44.42 7.53146 35.0894 0.0107422 24.0007 0.0107422C18.5017 0.0107422 13.4358 1.86146 9.38867 4.97227L22.1662 17.7498H47.174Z" fill="#D80027"/>
</g>
<defs>
<clipPath id="clip0_154_2063">
<rect width="48" height="48" fill="white" transform="translate(0 0.0107422)"/>
</clipPath>
</defs>
</svg>
